/* XPM */
static char * gschem_save_as_xpm[] = {
"22 26 292 2",
"  	c None",
". 	c #F5E265",
"+ 	c #477AB2",
"@ 	c #848A95",
"# 	c #F39132",
"$ 	c #F2972D",
"% 	c #F1CE23",
"& 	c #F4E15F",
"* 	c #E6CC33",
"= 	c #DDC545",
"- 	c #B2971C",
"; 	c #3C6FA8",
"> 	c #4D6988",
", 	c #7591B3",
"' 	c #E6C9AC",
") 	c #EFD0B1",
"! 	c #EFD0A1",
"~ 	c #F0D739",
"{ 	c #E6CC32",
"] 	c #DCC341",
"^ 	c #C5A425",
"/ 	c #63768B",
"( 	c #4F729B",
"_ 	c #6893C5",
": 	c #698CB8",
"< 	c #E1E4E6",
"[ 	c #EFEFED",
"} 	c #EFEDD9",
"| 	c #EFDC42",
"1 	c #F4E260",
"2 	c #DCC342",
"3 	c #C6AB31",
"4 	c #D0D2CC",
"5 	c #5F83B2",
"6 	c #5583B8",
"7 	c #5F8DC2",
"8 	c #688CB8",
"9 	c #E2E5E6",
"0 	c #C2C4C1",
"a 	c #D6D8D3",
"b 	c #D8D8C1",
"c 	c #EAD73D",
"d 	c #C2A72D",
"e 	c #B7B7AC",
"f 	c #E1E4E5",
"g 	c #5E83B2",
"h 	c #4B7CB4",
"i 	c #618FC4",
"j 	c #6A8DBA",
"k 	c #E5E8E9",
"l 	c #F1F1F0",
"m 	c #F1F1EF",
"n 	c #F1EEDA",
"o 	c #EEDB42",
"p 	c #F4E25F",
"q 	c #C7AB32",
"r 	c #E0DED5",
"s 	c #E4E7E8",
"t 	c #4E7EB6",
"u 	c #6291C5",
"v 	c #6A8EBA",
"w 	c #E6E9EB",
"x 	c #F7F7F6",
"y 	c #F6F4E2",
"z 	c #EDDA43",
"A 	c #E5CC31",
"B 	c #C8AD33",
"C 	c #E5E4DB",
"D 	c #E6E8EA",
"E 	c #6084B3",
"F 	c #507EB7",
"G 	c #6593C6",
"H 	c #6B90BB",
"I 	c #E8EAEB",
"J 	c #C3C5C2",
"K 	c #D8D8C2",
"L 	c #E6D43C",
"M 	c #DCC340",
"N 	c #C2A72E",
"O 	c #C8C8BC",
"P 	c #C4C6C3",
"Q 	c #E7E9EA",
"R 	c #6186B3",
"S 	c #5180B9",
"T 	c #6795C7",
"U 	c #6D90BB",
"V 	c #EAECEE",
"W 	c #FDFDFC",
"X 	c #FCFBED",
"Y 	c #EBD842",
"Z 	c #DBC340",
"` 	c #C9AE36",
" .	c #EAE8E0",
"..	c #E9EBED",
"+.	c #6287B5",
"@.	c #5483BB",
"#.	c #6996C8",
"$.	c #6E91BD",
"%.	c #ECEEF0",
"&.	c #FFFFFF",
"*.	c #F4E77D",
"=.	c #F7EC97",
"-.	c #E8D24A",
";.	c #C9AE37",
">.	c #ECEAE3",
",.	c #EBEDEF",
"'.	c #6488B5",
").	c #5685BC",
"!.	c #6B98CA",
"~.	c #6F93BD",
"{.	c #C6C7C5",
"].	c #D8DAD6",
"^.	c #D7D9D4",
"/.	c #E0CE54",
"(.	c #F4EAAB",
"_.	c #E4D277",
":.	c #C2A930",
"<.	c #CACAC0",
"[.	c #C6C8C6",
"}.	c #EAEDEF",
"|.	c #6589B6",
"1.	c #5987BD",
"2.	c #6D9ACB",
"3.	c #7094BE",
"4.	c #ECEFF0",
"5.	c #B7B28B",
"6.	c #726419",
"7.	c #C2AD44",
"8.	c #CDC18F",
"9.	c #F2F0EB",
"0.	c #EBEEF0",
"a.	c #668AB6",
"b.	c #5B8ABE",
"c.	c #6E9BCC",
"d.	c #648BBA",
"e.	c #D9DFE2",
"f.	c #DBE1E6",
"g.	c #D0D5D7",
"h.	c #B9BEC3",
"i.	c #D1D6DC",
"j.	c #DAE0E6",
"k.	c #DAE0E5",
"l.	c #DADFE5",
"m.	c #D9DFE5",
"n.	c #D6DDE0",
"o.	c #5881B3",
"p.	c #5D8BC0",
"q.	c #6B97C8",
"r.	c #5985B8",
"s.	c #5783B7",
"t.	c #5682B7",
"u.	c #5582B6",
"v.	c #5580B5",
"w.	c #547FB5",
"x.	c #537FB5",
"y.	c #537EB4",
"z.	c #527DB3",
"A.	c #517DB3",
"B.	c #517CB3",
"C.	c #4F7BB2",
"D.	c #4F7BB1",
"E.	c #4E7AB1",
"F.	c #4D79B1",
"G.	c #4E7AB0",
"H.	c #5C89BD",
"I.	c #5F8DC1",
"J.	c #6F9CCC",
"K.	c #729FCF",
"L.	c #6E94BD",
"M.	c #65829E",
"N.	c #637F9D",
"O.	c #637F9E",
"P.	c #63809D",
"Q.	c #627E9C",
"R.	c #617E9C",
"S.	c #5F7C9B",
"T.	c #5D7C9D",
"U.	c #5D8BBF",
"V.	c #5C8ABF",
"W.	c #5B89BE",
"X.	c #5C8ABE",
"Y.	c #6290C5",
"Z.	c #608FC4",
"`.	c #719ECD",
" +	c #737C7C",
".+	c #A3A99E",
"++	c #A4A89F",
"@+	c #A2A59F",
"#+	c #A9ABA5",
"$+	c #BCBEBA",
"%+	c #C3C5C1",
"&+	c #BDC0BC",
"*+	c #B8BBB6",
"=+	c #B3B5AF",
"-+	c #A6A9A5",
";+	c #697B8B",
">+	c #6390C2",
",+	c #6591C4",
"'+	c #6692C3",
")+	c #5C88BC",
"!+	c #6290C4",
"~+	c #709AC7",
"{+	c #88908D",
"]+	c #AFB5A8",
"^+	c #687377",
"/+	c #577290",
"(+	c #577291",
"_+	c #81898B",
":+	c #D2D4CF",
"<+	c #CACDC6",
"[+	c #C1C5BD",
"}+	c #B9BDB5",
"|+	c #C5C8C3",
"1+	c #78848B",
"2+	c #6A98CA",
"3+	c #6997C9",
"4+	c #6D9ACA",
"5+	c #638FC1",
"6+	c #6492C6",
"7+	c #6E9CCD",
"8+	c #8A9290",
"9+	c #B6BCB0",
"0+	c #6D7981",
"a+	c #5888BE",
"b+	c #7C8587",
"c+	c #CCCFC9",
"d+	c #C4C7C0",
"e+	c #BBBFB8",
"f+	c #BEC1BA",
"g+	c #CACDC7",
"h+	c #7A838B",
"i+	c #6C9ACB",
"j+	c #6B99CA",
"k+	c #729DCD",
"l+	c #6793C5",
"m+	c #6794C7",
"n+	c #6F9BCD",
"o+	c #8E9593",
"p+	c #BEC3B8",
"q+	c #727D85",
"r+	c #7C8487",
"s+	c #C7CAC3",
"t+	c #BEC2BA",
"u+	c #BBBEB7",
"v+	c #C4C7C1",
"w+	c #D0D2CD",
"x+	c #7A858B",
"y+	c #6F9CCD",
"z+	c #6D9BCC",
"A+	c #75A0CE",
"B+	c #6996C6",
"C+	c #909795",
"D+	c #C6CBC1",
"E+	c #768288",
"F+	c #709ECE",
"G+	c #709DCE",
"H+	c #7C8486",
"I+	c #C1C4BE",
"J+	c #CBCDC8",
"K+	c #D5D7D3",
"L+	c #78828A",
"M+	c #719ECE",
"N+	c #6F9DCD",
"O+	c #79A4D0",
"P+	c #6D99C8",
"Q+	c #729FCE",
"R+	c #939A99",
"S+	c #CFD2CA",
"T+	c #858C8F",
"U+	c #74808A",
"V+	c #727F89",
"W+	c #8D9494",
"X+	c #C7CAC4",
"Y+	c #D1D3CF",
"Z+	c #D4D7D2",
"`+	c #768087",
" @	c #7DA7D2",
".@	c #6F9AC9",
"+@	c #5E8CC1",
"@@	c #648FBF",
"#@	c #959B9C",
"$@	c #DDE0DB",
"%@	c #DFE0DB",
"&@	c #CED1CB",
"*@	c #C5C9C2",
"=@	c #C8CBC5",
"-@	c #D0D2CE",
";@	c #CED0CB",
">@	c #6B99CB",
",@	c #6C99CB",
"'@	c #77A1CE",
")@	c #6B96C7",
"                                            ",
"                                  .         ",
"  + @ # # # # # # # # # # # $ % & * = - ;   ",
"  > , ' ) ) ) ) ) ) ) ) ) ! ~ & { ] ^ / (   ",
"  _ : < [ [ [ [ [ [ [ [ } | 1 { 2 3 4 5 6   ",
"  7 8 9 0 a a a a a a b c 1 { ] d e f g h   ",
"  i j k l m m m m m n o p { ] q r l s 5 t   ",
"  u v w x x x x x y z p A ] B C x x D E F   ",
"  G H I J a a a K L p A M N O a a P Q R S   ",
"  T U V W W W X Y p A Z `  .W W W W ..+.@.  ",
"  #.$.%.&.&.&.*.=.-.Z ;.>.&.&.&.&.&.,.'.).  ",
"  !.~.,.{.].^./.(._.:.<.].].].].].[.}.|.1.  ",
"  2.3.4.&.&.5.6.7.8.9.&.&.&.&.&.&.&.0.a.b.  ",
"  c.d.e.f.f.g.h.i.j.j.k.l.m.m.m.m.m.n.o.p.  ",
"  c.q.r.s.t.u.v.w.x.y.z.A.B.C.D.E.F.G.H.I.  ",
"  J.K.K.L.M.N.N.O.P.N.Q.R.S.T.U.V.W.X.Y.Z.  ",
"  c.K.`. +.+++@+#+$+%+&+*+=+-+;+>+,+'+)+!+  ",
"  c.K.~+{+]+^+/+(+_+:+<+[+}+|+1+2+3+4+5+6+  ",
"  7+K.~+8+9+0+1.a+b+c+d+e+f+g+h+i+j+k+l+m+  ",
"  n+K.~+o+p+q+6+6+r+s+t+u+v+w+x+y+z+A+B+3+  ",
"  n+K.~+C+D+E+F+G+H+[+}+I+J+K+L+M+N+O+P+j+  ",
"  I.Q+~+R+S+T+U+V+W+e+f+X+Y+Z+`+K.K. @.@z+  ",
"    +@@@#@$@%@^.&@*@I+=@-@].;@q+>@,@'@)@3+  ",
"                                            ",
"                                            ",
"                                            "};
