/* XPM */
static char * gschem_print_document_xpm[] = {
"54 46 349 2",
"  	c None",
". 	c #555753",
"+ 	c #BEC0BC",
"@ 	c #E1E4DF",
"# 	c #DFE1DC",
"$ 	c #DCDEDA",
"% 	c #DADCD7",
"& 	c #D7D9D4",
"* 	c #D5D7D3",
"= 	c #AFB1AC",
"- 	c #E3E5E0",
"; 	c #CED2CA",
"> 	c #C9CDC5",
", 	c #C5C8C1",
"' 	c #C1C4BD",
") 	c #BDC0B9",
"! 	c #BABDB6",
"~ 	c #BBBEB7",
"{ 	c #CDD0C9",
"] 	c #C9CCC5",
"^ 	c #C4C8C0",
"/ 	c #C0C4BC",
"( 	c #BCBFB8",
"_ 	c #D3D5D1",
": 	c #E0E2DD",
"< 	c #CCD0C8",
"[ 	c #C8CCC4",
"} 	c #C4C7C0",
"| 	c #C0C3BC",
"1 	c #D2D4CF",
"2 	c #DEE0DC",
"3 	c #CBCFC7",
"4 	c #C7CBC3",
"5 	c #C3C7BF",
"6 	c #BFC2BB",
"7 	c #D0D2CD",
"8 	c #DCDFDA",
"9 	c #C7CAC3",
"0 	c #C3C6BF",
"a 	c #BEC2BA",
"b 	c #CED0CB",
"c 	c #DADDD7",
"d 	c #CACEC6",
"e 	c #C6CAC2",
"f 	c #C2C5BE",
"g 	c #BEC1BA",
"h 	c #CCCEC9",
"i 	c #D9DCD6",
"j 	c #CACDC6",
"k 	c #C6C9C2",
"l 	c #C1C5BD",
"m 	c #CACDC7",
"n 	c #D7DAD4",
"o 	c #C8CBC5",
"p 	c #D6D8D3",
"q 	c #C7C9C3",
"r 	c #D4D7D0",
"s 	c #C8CBC4",
"t 	c #C5C7C1",
"u 	c #D2D5CE",
"v 	c #C3C6C0",
"w 	c #D0D3CD",
"x 	c #C2C6BE",
"y 	c #C1C4BE",
"z 	c #B9BDB6",
"A 	c #EBECEA",
"B 	c #FFFFFF",
"C 	c #E8E8E6",
"D 	c #FEFEFE",
"E 	c #DBDDD9",
"F 	c #DADBD8",
"G 	c #D9DBD7",
"H 	c #D9DAD7",
"I 	c #D9DAD6",
"J 	c #D8DAD6",
"K 	c #D8D9D5",
"L 	c #D7D9D5",
"M 	c #D7D8D4",
"N 	c #D6D8D4",
"O 	c #D6D7D3",
"P 	c #D5D7D2",
"Q 	c #D5D6D2",
"R 	c #D4D6D2",
"S 	c #D4D6D1",
"T 	c #ABAEA8",
"U 	c #D3D5D0",
"V 	c #D2D4D0",
"W 	c #D1D3CF",
"X 	c #D1D3CE",
"Y 	c #A4A7A1",
"Z 	c #D0D2CE",
"` 	c #CFD1CD",
" .	c #CFD1CC",
"..	c #9DA09A",
"+.	c #9A9C96",
"@.	c #CDD0CB",
"#.	c #CDCFCA",
"$.	c #979993",
"%.	c #EFEFED",
"&.	c #C3C5BF",
"*.	c #959793",
"=.	c #CCCFC9",
"-.	c #CBCEC8",
";.	c #CBCDC8",
">.	c #90928D",
",.	c #C4C6C0",
"'.	c #EEEEED",
").	c #E5E6E3",
"!.	c #B8BBB4",
"~.	c #B9BBB5",
"{.	c #B9BCB5",
"].	c #BABCB6",
"^.	c #BABDB7",
"/.	c #B7BAB3",
"(.	c #E8E8E5",
"_.	c #EDEDEC",
":.	c #E3E3E2",
"<.	c #F3F3F1",
"[.	c #E9E9E7",
"}.	c #E9E9E6",
"|.	c #E9E9E8",
"1.	c #E5E5E3",
"2.	c #F3F3F2",
"3.	c #E0E1DF",
"4.	c #F5F5F4",
"5.	c #EEEEEC",
"6.	c #CDCFC9",
"7.	c #EAEAE8",
"8.	c #EFEFEE",
"9.	c #ECECEB",
"0.	c #F0F0EE",
"a.	c #E8E9E7",
"b.	c #F4F4F3",
"c.	c #C2C4BE",
"d.	c #F6F6F5",
"e.	c #F2F2F1",
"f.	c #D9D9D7",
"g.	c #EBEBE9",
"h.	c #FDFDFD",
"i.	c #F9F9F8",
"j.	c #FDFDFC",
"k.	c #ECECEA",
"l.	c #D4D4D3",
"m.	c #E6E6E4",
"n.	c #C9CAC6",
"o.	c #C4C7C1",
"p.	c #E7E8E5",
"q.	c #F1F1EF",
"r.	c #EAEBE8",
"s.	c #BEC1BB",
"t.	c #FAFAFA",
"u.	c #EEEFED",
"v.	c #E5E6E4",
"w.	c #E4E5E3",
"x.	c #FAFAF9",
"y.	c #E8E9E6",
"z.	c #F1F2F0",
"A.	c #C8C9C6",
"B.	c #EBECE9",
"C.	c #E6E7E3",
"D.	c #F7F8F7",
"E.	c #FCFCFC",
"F.	c #F7F7F7",
"G.	c #D0D2CC",
"H.	c #ECECE9",
"I.	c #C3C4C2",
"J.	c #DDDEDC",
"K.	c #E5E7E3",
"L.	c #E2E4DF",
"M.	c #CED1CB",
"N.	c #C1C3BD",
"O.	c #CFD1CB",
"P.	c #ECEDEA",
"Q.	c #DEE0DB",
"R.	c #DEE0DA",
"S.	c #DCDED8",
"T.	c #DADCD6",
"U.	c #BFC6B7",
"V.	c #BAC0B5",
"W.	c #DBDDD7",
"X.	c #EDEFEC",
"Y.	c #AFD0A4",
"Z.	c #72DB57",
"`.	c #B2D2A8",
" +	c #EBEDEA",
".+	c #D5D9D1",
"++	c #D6D9D2",
"@+	c #D4DAD3",
"#+	c #D6DCD5",
"$+	c #D5DDD5",
"%+	c #D6DAD3",
"&+	c #ECEEEA",
"*+	c #EAECE9",
"=+	c #D3D7CF",
"-+	c #EBEDE9",
";+	c #BEC2BB",
">+	c #989A95",
",+	c #92938F",
"'+	c #939490",
")+	c #969793",
"!+	c #949692",
"~+	c #959792",
"{+	c #969893",
"]+	c #979994",
"^+	c #999B96",
"/+	c #9A9C97",
"(+	c #9B9C98",
"_+	c #9C9D99",
":+	c #999A9B",
"<+	c #9A9B9C",
"[+	c #9A9C9D",
"}+	c #9B9D9E",
"|+	c #9C9E9F",
"1+	c #9D9F9F",
"2+	c #9EA0A0",
"3+	c #9FA0A1",
"4+	c #A0A1A2",
"5+	c #A1A2A3",
"6+	c #A6A7A3",
"7+	c #A7A8A4",
"8+	c #A8A9A5",
"9+	c #A9AAA6",
"0+	c #A9ABA7",
"a+	c #AAACA8",
"b+	c #ABADA9",
"c+	c #ADAEAA",
"d+	c #AEAFAB",
"e+	c #B1B3AD",
"f+	c #9FA19C",
"g+	c #666962",
"h+	c #54584F",
"i+	c #6C6F6A",
"j+	c #C7C8C7",
"k+	c #ADB0AB",
"l+	c #ABAEA9",
"m+	c #9EA1AC",
"n+	c #1D23C9",
"o+	c #2127C8",
"p+	c #2A30C6",
"q+	c #8F9BAF",
"r+	c #748AB5",
"s+	c #AEB1AC",
"t+	c #C6C7C6",
"u+	c #555950",
"v+	c #72756D",
"w+	c #BCBDB9",
"x+	c #D2D6CE",
"y+	c #AAABA7",
"z+	c #5A5E55",
"A+	c #797A76",
"B+	c #D8D8D8",
"C+	c #BCBEB9",
"D+	c #ADAFBB",
"E+	c #2B31C8",
"F+	c #A4ADBB",
"G+	c #4C71C3",
"H+	c #446BC4",
"I+	c #6280C1",
"J+	c #767873",
"K+	c #CBCBC8",
"L+	c #B7B8B5",
"M+	c #60655B",
"N+	c #8C8E8A",
"O+	c #E4E4E4",
"P+	c #CED0CC",
"Q+	c #CDBDB5",
"R+	c #CDB9B0",
"S+	c #BDC0CC",
"T+	c #2D33C9",
"U+	c #ACB8CB",
"V+	c #4F74C7",
"W+	c #B1BBCB",
"X+	c #B4ABB4",
"Y+	c #BDADAF",
"Z+	c #E5E5E5",
"`+	c #8A8C87",
" @	c #62665D",
".@	c #D8D8D6",
"+@	c #D3D6CF",
"@@	c #C5C5C2",
"#@	c #676B61",
"$@	c #6A6E65",
"%@	c #A9AAA7",
"&@	c #F1F2F1",
"*@	c #E1E3DF",
"=@	c #DBB8AC",
"-@	c #CB4E2C",
";@	c #CB5130",
">@	c #693E8F",
",@	c #343ACC",
"'@	c #373DCC",
")@	c #2F34CB",
"!@	c #BBC7DA",
"~@	c #5A7ECD",
"{@	c #DBBBAF",
"]@	c #D8A999",
"^@	c #F2F3F2",
"/@	c #A8A8A5",
"(@	c #6C7067",
"_@	c #94988F",
":@	c #9A9D95",
"<@	c #CBCDC9",
"[@	c #EDEFEB",
"}@	c #DB9985",
"|@	c #D88973",
"1@	c #D69686",
"2@	c #B76C69",
"3@	c #99ABDB",
"4@	c #97A9DB",
"5@	c #95A7DB",
"6@	c #95A8DB",
"7@	c #8FA7D9",
"8@	c #5E81D0",
"9@	c #DC9D8A",
"0@	c #D7836B",
"a@	c #F9FAF9",
"b@	c #CCCDC9",
"c@	c #93978E",
"d@	c #E8EAE6",
"e@	c #C1C3BE",
"f@	c #A4A6A0",
"g@	c #BDBFB9",
"h@	c #E7E8E6",
"i@	c #F8F9F8",
"j@	c #F2F3F1",
"k@	c #ECDAD3",
"l@	c #D05E3F",
"m@	c #CC5536",
"n@	c #8B87B3",
"o@	c #7C98D8",
"p@	c #96ACDD",
"q@	c #EDDCD6",
"r@	c #CE5737",
"s@	c #EACFC6",
"t@	c #B7B9B4",
"u@	c #A0A39C",
"v@	c #CECFCB",
"w@	c #B3B5B0",
"x@	c #B2B5AF",
"y@	c #979A93",
"z@	c #C3C6C1",
"A@	c #DCDCDA",
"B@	c #E2E3E0",
"C@	c #C1C2BF",
"D@	c #F2F2F0",
"E@	c #F1F1F0",
"F@	c #F0F0EF",
"G@	c #E3E4E1",
"H@	c #BCBCBA",
"                                              . . . . . . . .                                               ",
"                                            + @ # $ % & * * * =                                             ",
"                                            - ; > , ' ) ! ! ~ * .                                           ",
"                                            @ { ] ^ / ( ! ! ! _ .                                           ",
"                                            : < [ } | ( ! ! ! 1 .                                           ",
"                                            2 3 4 5 6 ~ ! ! ! 7 .                                           ",
"                                            8 3 9 0 a ! ! ! ! b .                                           ",
"                                            c d e f g ! ! ! ! h .                                           ",
"                                            i j k l ) ! ! ! ! m .                                           ",
"                                            n > , ' ) ! ! ! ! o .                                           ",
"                                            p [ ^ | ( ! ! ! ! q .                                           ",
"                                            r s } | ~ ! ! ! ! t .                                           ",
"                                            u 4 0 6 ~ ! ! ! ! v .                                           ",
"                                            w 9 x a ! ! ! ! ! y .                                           ",
"                              z z z z z z z z z z z z z z z z z z z z z z z z                               ",
"                            A B B B B B B B B B B B B B B B B B B B B B B B B C                             ",
"                            D E F G G H I J J K L L M N N p O * P Q R S S _ * B T                           ",
"                            D J J L L L M N N O * * P R R S _ _ U U V 1 1 W X B Y                           ",
"                            D N p O * P Q R S S _ _ U V V 1 1 W X X Z 7 7 `  .B ..                          ",
"                          +.D R S _ _ U U V 1 1 W X X Z 7 7 7  . . .b b b @.#.B $.                          ",
"                    %.&.( *.D V 1 1 W X X Z 7 7 `  . . .b b b #.#.#.=.h h -.;.B >.) ,.'.                    ",
"                  '.).g ) !.g !.!.!.!.!.~.!.{.{.{.{.{.{.].! ! ! ! ! ! ^.~ ~ ~ g /.) ) (._.                  ",
"                :.<.K p [.}.[.|.|.|.|.|.|.[.[.[.[.[.[.[.[.[.[.[.[.[.[.[.[.[.[.C 1.[.S G 2.3.                ",
"                4.5.6.7.8.9.9.9.9.9.9.9.9.9.9.9.9.9.9.9.9.9.9.9.9.9.9.9.9.9.9.9.9.0.a.b 5.4.                ",
"              b.8.5.c.d.b.e.e.e.e.e.e.e.e.e.e.e.e.e.e.e.e.e.e.e.e.e.e.e.e.e.e.e.e.b.4.,.5.0.2.              ",
"            f.e.5.g.g h.i.i.i.i.i.i.i.i.i.i.i.i.i.i.i.i.i.i.i.i.i.i.i.i.i.i.i.i.i.i.j.( k.5.<.l.            ",
"            d.5.5.m.n.B B B B B B B B B B B B B B B B B B B B B B B B B B B B B B B B o.p.5.5.d.            ",
"            q.r.r.p.s.t.u.v.w.w.w.w.w.w.w.w.w.w.w.w.w.w.w.w.w.w.w.w.w.w.w.w.w.w.v.8.x.g y.r.r.z.            ",
"          A.B.C.C.C.b P D.h.E.E.E.E.E.E.E.E.E.E.E.E.E.E.E.E.E.E.E.E.E.E.E.E.E.E.h.F.U G.C.C.C.H.I.          ",
"          J.K.L.L.L.: M.| g | | | | | | | | | | | | | | | | | | | | | | | | | | g N.O.: L.L.L.C.F           ",
"          P.Q.R.R.R.R.R.R.S.S.S.S.S.S.S.S.S.S.S.S.S.S.S.S.S.S.S.S.S.S.S.S.S.S.S.S.R.R.T.U.V.U.W.r.          ",
"          X.i i i i i i i i i i i i i i i i i i i i i i i i i i i i i i i i i i i i i 1 Y.Z.`.S u..         ",
"           +.+.+.+.+.+.+.+.+.+.+.+.+.+.+.+.+.+.+.+.+.+.+.+.+.+.+.+.+.+.+.+.+.+.+.+.+.+++@+#+$+%+&+.         ",
"          *+=+=+=+=+=+=+=+=+=+=+=+=+=+=+=+=+=+=+=+=+=+=+=+=+=+=+=+=+=+=+=+=+=+=+=+=+=+=+=+.+=+=+-+.         ",
"          *+=+=+=+;+>+,+'+)+!+~+{+]+>+^+/+(+_+:+<+[+}+|+1+2+3+4+5+6+7+8+9+0+a+b+c+c+d+e+j =+=+=+-+.         ",
"          *+=+=+=+f+g+h+i+j+k+l+l+l+l+l+l+l+m+n+o+o+o+o+o+o+o+o+p+l+q+r+l+l+l+s+t+i+u+v+w+=+=+=+-+.         ",
"          *+=+=+x+y+z+z+A+B+C+C+C+C+C+C+C+C+D+E+F+G+G+G+G+G+G+G+G+G+H+I+C+C+C+C+B+J+z+z+K+=+=+=+-+.         ",
"          *+=+=+x+L+M+M+N+O+P+P+P+Q+R+P+P+P+S+T+U+V+W+W+W+W+W+W+W+W+X+Y+P+P+P+P+Z+`+ @M+.@=+=+=+-+.         ",
"          *+=+=++@@@#@$@%@&@*@*@=@-@;@>@,@'@'@)@!@~@*@*@*@*@*@*@*@{@-@;@]@*@*@*@^@/@(@#@).=+=+=+-+.         ",
"          *+=+=+=+b _@:@<@i.[@[@}@|@1@2@3@4@5@6@7@8@[@[@[@[@[@[@[@}@|@9@0@[@[@[@a@b@:@c@r.=+=+=+-+.         ",
"          -+d@d@d@e@f@g@h@i@j@j@k@l@m@n@o@o@o@o@o@p@j@j@j@j@j@j@j@q@l@r@s@j@j@j@a@h@t@u@v@d@d@d@-+.         ",
"                    $.w@a@a@D.D.D.D.D.D.D.D.D.D.D.D.D.D.D.D.D.D.D.D.D.D.D.D.D.D.a@a@x@y@                    ",
"                    F f B B B B B B B B B B B B B B B B B B B B B B B B B B B B B B z@A@                    ",
"                    w.! ! ! ! ! ! ! ! ! ! ! ! ! ! ! ! ! ! ! ! ! ! ! ! ! ! ! ! ! ! ! ! B@                    ",
"                  C@1.q.D@D@E@E@E@E@E@E@E@E@q.q.q.q.q.q.q.q.q.q.q.q.q.q.q.F@F@F@F@F@8.G@H@                  ",
"                      . . . . . . . . . . . . . . . . . . . . . . . . . . . . . . . .                       "};
