/* XPM */
static char * gschem_comp_26x26_xpm[] = {
"26 26 5 1",
" 	c None",
".	c #008B00",
"+	c #005000",
"@	c #000000",
"#	c #757373",
"                          ",
"                          ",
"                          ",
"                          ",
"                          ",
"                          ",
"                          ",
"                          ",
"         ........         ",
"        +.       .        ",
"   @@@@@@.        .       ",
"  ######+.        .       ",
"        +.        .@@@@@@ ",
"        +.        .#####  ",
"   @@@@@@.        .       ",
"  ######+.       .+       ",
"        +........+        ",
"        +++++++++         ",
"                          ",
"                          ",
"                          ",
"                          ",
"                          ",
"                          ",
"                          ",
"                          "};
