/* XPM */
static char * gschem_select_26x26_xpm[] = {
"26 26 2 1",
" 	c None",
".	c #000000",
"                          ",
"       .                  ",
"       ...                ",
"       ....               ",
"       .....              ",
"       ......             ",
"       .......            ",
"       ........           ",
"       .........          ",
"       ..........         ",
"       ...........        ",
"       ............       ",
"       ............       ",
"       ........           ",
"       ... ....           ",
"       ..   ...           ",
"       .     ...          ",
"             ...          ",
"             ....         ",
"              ....        ",
"              ....        ",
"               ...        ",
"                ...       ",
"                ...       ",
"                 .        ",
"                          "};
