/* XPM */
static char * gschem_filltype_mesh_28x28_xpm[] = {
"28 28 2 1",
" 	c None",
".	c #000000",
"                            ",
" .......................... ",
" .......................... ",
" ..  .....   ..    ........ ",
" ....    ..    ..... ..  .. ",
" .. .     .   ....    .. .. ",
" .. ..     ..... .     .... ",
" ..  ..   ....    .     ... ",
" ..   ..... ..    ..   .... ",
" ..  .....   ..    ........ ",
" ...... ..    ..  .....  .. ",
" .. .     .   ....    .. .. ",
" .. ..     ..... .     .... ",
" ..  ..   ....    .     ... ",
" ..   ..... ..    ..   .... ",
" ..  .....   ..    ........ ",
" ...... ..    ..  .....  .. ",
" ....    ..    ..... ..  .. ",
" .. ..     ..... .     .... ",
" ..  ..   ....    .     ... ",
" ..   ..... ..    ..   .... ",
" ..  .....   ..    ........ ",
" ...... ..    ..  .....  .. ",
" ....    ..    ..... ..  .. ",
" .. .     .   ....    .. .. ",
" .......................... ",
" .......................... ",
"                            "};
