/* XPM */
static char * gschem_select_22x22_xpm[] = {
"22 22 2 1",
" 	c None",
".	c #000000",
"                      ",
"     ..               ",
"     ....             ",
"     .....            ",
"     ......           ",
"     ........         ",
"     .........        ",
"     ..........       ",
"     ...........      ",
"     ............     ",
"     ............     ",
"     ........         ",
"     ... ....         ",
"     ...  ....        ",
"     ..    ...        ",
"           ....       ",
"           .....      ",
"            ....      ",
"             ....     ",
"             ....     ",
"              ..      ",
"                      "};
