<?xml version="1.0" encoding="UTF-8"?>
<!-- Created with Inkscape (http://www.inkscape.org/) -->
<svg id="svg2" width="600" height="200" version="1.0" xmlns="http://www.w3.org/2000/svg" xmlns:cc="http://creativecommons.org/ns#" xmlns:dc="http://purl.org/dc/elements/1.1/" xmlns:rdf="http://www.w3.org/1999/02/22-rdf-syntax-ns#">
 <defs id="defs4">
  <marker id="Arrow2Mend" overflow="visible" orient="auto">
   <path id="path3537" transform="scale(.6) rotate(180) translate(0)" d="m8.7186 4.0337-10.926-4.0177 10.926-4.0177c-1.7455 2.3721-1.7354 5.6175-6e-7 8.0354z" fill-rule="evenodd" stroke-linejoin="round" stroke-width=".625"/>
  </marker>
  <marker id="Arrow1Mend" overflow="visible" orient="auto">
   <path id="path3406" transform="matrix(-.4 0 0 -.4 -4 0)" d="m0 0 5-5-17.5 5 17.5 5-5-5z" fill-rule="evenodd" stroke="#000" stroke-width="1pt"/>
  </marker>
 </defs>
 <metadata id="metadata7">
  <rdf:RDF>
   <cc:Work rdf:about="">
    <dc:format>image/svg+xml</dc:format>
    <dc:type rdf:resource="http://purl.org/dc/dcmitype/StillImage"/>
   </cc:Work>
  </rdf:RDF>
 </metadata>
 <g id="layer1">
  <rect id="rect3363" x="-9.9626" y="-7.2817" width="620.66" height="219.65" fill="#c0c0c0"/>
  <text id="text3199" x="201.45422" y="48.469925" fill="#000000" font-family="Courier New" font-size="15.462px" stroke-width="1px" xml:space="preserve"><tspan id="tspan3209" x="201.45422" y="48.469925"/></text>
  <path id="path2579" d="m-61.032-2.607h58.685v-50.469" fill="none" stroke="#000" stroke-width="3"/>
  <path id="path3357" d="m663.66 204.59h-58.685v50.469" fill="none" stroke="#000" stroke-width="3"/>
  <path id="path3359" d="m661.16-2.1669h-58.685v-50.469" fill="none" stroke="#000" stroke-width="3"/>
  <path id="path3361" d="m0.4498 264.16v-58.685h-50.469" fill="none" stroke="#000" stroke-width="3"/>
  <rect id="rect2828" transform="rotate(-90)" x="23.745" y="1139.9" width="0" height="26" fill="#ccc"/>
  <rect id="rect2725" x="148.89" y="43.037" width="80.36" height="71.486" fill="#fff" stroke="#000" stroke-linecap="round" stroke-linejoin="round" stroke-width=".76002"/>
  <text id="text2713" x="150.69017" y="53.713799" fill="#000000" font-family="Courier New" font-size="7.6131px" stroke-width="1px" xml:space="preserve"><tspan id="tspan2715" x="150.69017" y="53.713799">type=OBJ_COMPLEX</tspan><tspan id="tspan2719" x="150.69017" y="63.230232">name="complex.1"</tspan><tspan id="tspan2717" x="150.69017" y="72.746674">sid=123</tspan><tspan id="tspan2721" x="150.69017" y="82.263107">complex_basename=</tspan><tspan id="tspan2723" x="150.69017" y="91.779549">    "resistor-1.sym"</tspan></text>
  <rect id="rect3503" x="240.85" y="174.82" width="257.56" height="13.101" fill="#fff" stroke="#000" stroke-linecap="round" stroke-linejoin="round" stroke-width=".58249"/>
  <rect id="rect4361" x="6.0292" y="40.375" width="587.02" height="78.585" fill="#e6e6e6" stroke="#000" stroke-linecap="round" stroke-linejoin="round" stroke-width=".76002"/>
  <g id="g4305" transform="matrix(.63443 0 0 .63443 -23.667 -134.84)" stroke-width="1px">
   <path id="path3505" d="m225.17 365.73h43.599" fill="none" marker-end="url(#Arrow2Mend)" stroke="#000"/>
   <text id="text4291" x="226.32254" y="363.26917" fill="#000000" font-family="Courier New" font-size="12px" xml:space="preserve"><tspan id="tspan4293" x="226.32254" y="363.26917">next</tspan></text>
   <text id="text4295" x="245.15396" y="383.38647" fill="#000000" font-family="Courier New" font-size="12px" xml:space="preserve"><tspan id="tspan4297" x="245.15396" y="383.38647">prev</tspan></text>
   <path id="path4299" d="m270.05 374.98h-43.723" fill="none" marker-end="url(#Arrow2Mend)" stroke="#000"/>
  </g>
  <text id="text4301" transform="matrix(.51422 .85766 -.85766 .51422 0 0)" x="216.98622" y="-97.716614" fill="#000000" font-family="Courier New" font-size="7.6131px" stroke-width="1px" xml:space="preserve"><tspan id="tspan4303" x="216.98622" y="-97.716614">attribs</tspan></text>
  <text id="text4313" x="241.70155" y="172.63249" fill="#000000" font-family="Courier New" font-size="7.6131px" stroke-width="1px" xml:space="preserve"><tspan id="tspan4921" x="241.70155" y="172.63249">GList to OBJECTs</tspan></text>
  <rect id="rect4319" x="148.89" y="43.037" width="80.36" height="71.486" fill="#fff" stroke="#000" stroke-linecap="round" stroke-linejoin="round" stroke-width=".76002"/>
  <text id="text4321" x="150.69017" y="53.713799" fill="#000000" font-family="Courier New" font-size="7.6131px" stroke-width="1px" xml:space="preserve"><tspan id="tspan4323" x="150.69017" y="53.713799">type=OBJ_COMPLEX</tspan><tspan id="tspan4325" x="150.69017" y="63.230232">name="complex.1"</tspan><tspan id="tspan4327" x="150.69017" y="72.746674">sid=123</tspan><tspan id="tspan4329" x="150.69017" y="82.263107">complex_basename=</tspan><tspan id="tspan4331" x="150.69017" y="91.779549">    "resistor-1.sym"</tspan></text>
  <rect id="rect4333" x="148.89" y="43.037" width="80.36" height="71.486" fill="#fff" stroke="#000" stroke-linecap="round" stroke-linejoin="round" stroke-width=".76002"/>
  <text id="text4335" x="150.69017" y="53.713799" fill="#000000" font-family="Courier New" font-size="7.6131px" stroke-width="1px" xml:space="preserve"><tspan id="tspan4337" x="150.69017" y="53.713799">type=OBJ_COMPLEX</tspan><tspan id="tspan4339" x="150.69017" y="63.230232">name="complex.1"</tspan><tspan id="tspan4341" x="150.69017" y="72.746674">sid=123</tspan><tspan id="tspan4343" x="150.69017" y="82.263107">complex_basename=</tspan><tspan id="tspan4345" x="150.69017" y="91.779549">    "resistor-1.sym"</tspan></text>
  <rect id="rect4347" x="148.89" y="43.037" width="80.36" height="71.486" fill="#fff" stroke="#000" stroke-linecap="round" stroke-linejoin="round" stroke-width=".76002"/>
  <text id="text4349" x="150.69017" y="53.713799" fill="#000000" font-family="Courier New" font-size="7.6131px" stroke-width="1px" xml:space="preserve"><tspan id="tspan4351" x="150.69017" y="53.713799">type=OBJ_COMPLEX</tspan><tspan id="tspan4353" x="150.69017" y="63.230236">name="complex.123"</tspan><tspan id="tspan4355" x="150.69017" y="72.746674">sid=123</tspan><tspan id="tspan4357" x="150.69017" y="82.263107">complex_basename=</tspan><tspan id="tspan4359" x="150.69017" y="91.779541">    "resistor-1.sym"</tspan></text>
  <rect id="rect4375" x="37.972" y="43.037" width="80.36" height="71.486" fill="#fff" stroke="#000" stroke-linecap="round" stroke-linejoin="round" stroke-width=".76002"/>
  <text id="text4377" x="39.776009" y="53.713799" fill="#000000" font-family="Courier New" font-size="7.6131px" stroke-width="1px" xml:space="preserve"><tspan id="tspan4379" x="39.776009" y="53.713799">type=OBJ_LINE</tspan><tspan id="tspan4381" x="39.776009" y="63.230232">name="line.1"</tspan><tspan id="tspan4383" x="39.776009" y="72.746674">sid=1</tspan><tspan id="tspan4387" x="39.776009" y="82.263107">line structure</tspan></text>
  <rect id="rect4389" x="369.38" y="43.037" width="80.36" height="71.486" fill="#fff" stroke="#000" stroke-linecap="round" stroke-linejoin="round" stroke-width=".76002"/>
  <text id="text4391" x="371.18756" y="53.713799" fill="#000000" font-family="Courier New" font-size="7.6131px" stroke-width="1px" xml:space="preserve"><tspan id="tspan4393" x="371.18756" y="53.713799">type=OBJ_CIRCLE</tspan><tspan id="tspan4395" x="371.18756" y="63.230232">name="circle.124"</tspan><tspan id="tspan4397" x="371.18756" y="72.746674">sid=124</tspan><tspan id="tspan4401" x="371.18756" y="82.263107">circle structure</tspan></text>
  <rect id="rect4403" x="259.36" y="43.037" width="80.36" height="71.486" fill="#fff" stroke="#000" stroke-linecap="round" stroke-linejoin="round" stroke-width=".76002"/>
  <text id="text4405" x="261.16071" y="53.713799" fill="#000000" font-family="Courier New" font-size="7.6131px" stroke-width="1px" xml:space="preserve"><tspan id="tspan4407" x="261.16071" y="53.713799">type=OBJ_TEXT</tspan><tspan id="tspan4409" x="261.16071" y="63.230232">name="text.1123"</tspan><tspan id="tspan4411" x="261.16071" y="72.746674">sid=1123</tspan><tspan id="tspan4413" x="261.16071" y="82.263107">text-&gt;string=</tspan><tspan id="tspan4415" x="261.16071" y="91.779549">    "footprint=SO16"</tspan></text>
  <g id="g4417" transform="matrix(.63443 0 0 .63443 197.72 -134.84)" stroke-width="1px">
   <path id="path4419" d="m225.17 365.73h43.599" fill="none" marker-end="url(#Arrow2Mend)" stroke="#000"/>
   <text id="text4421" x="226.32254" y="363.26917" fill="#000000" font-family="Courier New" font-size="12px" xml:space="preserve"><tspan id="tspan4423" x="226.32254" y="363.26917">next</tspan></text>
   <text id="text4425" x="245.15396" y="383.38647" fill="#000000" font-family="Courier New" font-size="12px" xml:space="preserve"><tspan id="tspan4427" x="245.15396" y="383.38647">prev</tspan></text>
   <path id="path4429" d="m270.05 374.98h-43.723" fill="none" marker-end="url(#Arrow2Mend)" stroke="#000"/>
  </g>
  <g id="g4431" transform="matrix(.63443 0 0 .63443 87.247 -134.84)" stroke-width="1px">
   <path id="path4433" d="m225.17 365.73h43.599" fill="none" marker-end="url(#Arrow2Mend)" stroke="#000"/>
   <text id="text4435" x="226.32254" y="363.26917" fill="#000000" font-family="Courier New" font-size="12px" xml:space="preserve"><tspan id="tspan4437" x="226.32254" y="363.26917">next</tspan></text>
   <text id="text4439" x="245.15396" y="383.38647" fill="#000000" font-family="Courier New" font-size="12px" xml:space="preserve"><tspan id="tspan4441" x="245.15396" y="383.38647">prev</tspan></text>
   <path id="path4443" d="m270.05 374.98h-43.723" fill="none" marker-end="url(#Arrow2Mend)" stroke="#000"/>
  </g>
  <text id="text4453" x="20.951727" y="108.39125" fill="#000000" font-family="Courier New" font-size="7.6131px" stroke-width="1px" xml:space="preserve"><tspan id="tspan4455" x="20.951727" y="108.39125">prev</tspan></text>
  <path id="path4457" d="m36.747 103.06h-27.739" fill="none" marker-end="url(#Arrow2Mend)" stroke="#000" stroke-width=".63443px"/>
  <g id="g4461" transform="matrix(.63443 0 0 .63443 307.74 -134.84)" stroke-width="1px">
   <path id="path4463" d="m225.17 365.73h43.599" fill="none" marker-end="url(#Arrow2Mend)" stroke="#000"/>
   <text id="text4465" x="226.32254" y="363.26917" fill="#000000" font-family="Courier New" font-size="12px" xml:space="preserve"><tspan id="tspan4467" x="226.32254" y="363.26917">next</tspan></text>
   <text id="text4469" x="245.15396" y="383.38647" fill="#000000" font-family="Courier New" font-size="12px" xml:space="preserve"><tspan id="tspan4471" x="245.15396" y="383.38647">prev</tspan></text>
   <path id="path4473" d="m270.05 374.98h-43.723" fill="none" marker-end="url(#Arrow2Mend)" stroke="#000"/>
  </g>
  <rect id="rect4475" x="480.3" y="43.037" width="80.36" height="71.486" fill="#fff" stroke="#000" stroke-linecap="round" stroke-linejoin="round" stroke-width=".76002"/>
  <text id="text4477" x="482.10172" y="53.713799" fill="#000000" font-family="Courier New" font-size="7.6131px" stroke-width="1px" xml:space="preserve"><tspan id="tspan4479" x="482.10172" y="53.713799">type=OBJ_TEXT</tspan><tspan id="tspan4481" x="482.10172" y="63.230232">name="text.234"</tspan><tspan id="tspan4483" x="482.10172" y="72.746674">sid=234</tspan><tspan id="tspan4485" x="482.10172" y="82.263107">text-&gt;string=</tspan><tspan id="tspan4487" x="482.10172" y="91.779549">    "value=10k"</tspan></text>
  <path id="path4507" d="m561.96 97.192h27.66" fill="none" marker-end="url(#Arrow2Mend)" stroke="#000" stroke-width=".63443px"/>
  <text id="text4509" x="562.68811" y="95.62825" fill="#000000" font-family="Courier New" font-size="7.6131px" stroke-width="1px" xml:space="preserve"><tspan id="tspan4511" x="562.68811" y="95.62825">next</tspan></text>
  <path id="path4891" d="m323.2 177.51c1.5714-53.86-36.68-11.414-36.547-60.141" fill="none" marker-end="url(#Arrow1Mend)" stroke="#000" stroke-width=".81746"/>
  <path id="path4893" d="m479.2 177.37c-0.69166-58.392 36.639-11.033 36.503-60.301" fill="none" marker-end="url(#Arrow1Mend)" stroke="#000" stroke-width=".82653"/>
  <text id="text4895" x="297.09686" y="152.64926" fill="#000000" font-family="Courier New" font-size="7.6131px" stroke-width="1px" xml:space="preserve"><tspan id="tspan4897" x="297.09686" y="152.64926">data</tspan></text>
  <text id="text4899" x="489.64389" y="152.64923" fill="#000000" font-family="Courier New" font-size="7.6131px" stroke-width="1px" xml:space="preserve"><tspan id="tspan4901" x="489.64389" y="152.64923">data</tspan></text>
  <rect id="rect4903" x="364.63" y="174.82" width="133.78" height="13.101" fill="#fff" stroke="#000" stroke-linecap="round" stroke-linejoin="round" stroke-width=".58249"/>
  <text id="text4905" transform="scale(1.4749 .67799)" x="339.11224" y="275.57816" fill="#000000" font-family="Courier New" font-size="7.607px" stroke-width="1px" xml:space="preserve"><tspan id="tspan4907" x="339.11224" y="275.57816">ooo</tspan></text>
  <path id="path4909" d="m295.93 40.105c-8.3785-21.943-82.983-31.548-109.13 0.2588" fill="none" marker-end="url(#Arrow1Mend)" stroke="#000" stroke-width=".81746"/>
  <path id="path4911" d="m494.25 41.436c-33.7-24.363-46.283-26.425-167.75-28.068-106.79-1.4447-131.65-3.8356-142.81 26.552" fill="none" marker-end="url(#Arrow1Mend)" stroke="#000" stroke-width=".81746"/>
  <text id="text4913" x="315.7305" y="20.883188" fill="#000000" font-family="Courier New" font-size="7.6131px" stroke-width="1px" xml:space="preserve"><tspan id="tspan4915" x="315.7305" y="20.883188">attached_to</tspan></text>
  <text id="text4917" x="223.00623" y="28.425365" fill="#000000" font-family="Courier New" font-size="7.6131px" stroke-width="1px" xml:space="preserve"><tspan id="tspan4919" x="223.00623" y="28.425365">attached_to</tspan></text>
  <text id="text4925" x="9.8844881" y="36.341423" fill="#000000" font-family="Courier New" font-size="10.05px" stroke-width="1px" xml:space="preserve"><tspan id="tspan4927" x="9.8844881" y="36.341423">OBJECT list</tspan></text>
  <path id="path11087" d="m186.97 115.83c-2.2249 9.7206 9.3973 52.464 48.966 62.399" fill="none" marker-end="url(#Arrow1Mend)" stroke="#000" stroke-width=".81746"/>
 </g>
</svg>
