<?xml version="1.0" encoding="UTF-8"?>
<!-- Created with Inkscape (http://www.inkscape.org/) -->
<svg id="svg2" width="600" height="300" version="1.0" xmlns="http://www.w3.org/2000/svg" xmlns:cc="http://creativecommons.org/ns#" xmlns:dc="http://purl.org/dc/elements/1.1/" xmlns:rdf="http://www.w3.org/1999/02/22-rdf-syntax-ns#">
 <defs id="defs4">
  <marker id="Arrow2Mend" overflow="visible" orient="auto">
   <path id="path3537" transform="scale(-.6)" d="m8.7186 4.0337-10.926-4.0177 10.926-4.0177c-1.7455 2.3721-1.7354 5.6175-6e-7 8.0354z" fill-rule="evenodd" stroke-linejoin="round" stroke-width=".625"/>
  </marker>
  <marker id="Arrow1Mend" overflow="visible" orient="auto">
   <path id="path3406" transform="matrix(-.4 0 0 -.4 -4 0)" d="m0 0 5-5-17.5 5 17.5 5-5-5z" fill-rule="evenodd" stroke="#000" stroke-width="1pt"/>
  </marker>
 </defs>
 <metadata id="metadata7">
  <rdf:RDF>
   <cc:Work rdf:about="">
    <dc:format>image/svg+xml</dc:format>
    <dc:type rdf:resource="http://purl.org/dc/dcmitype/StillImage"/>
   </cc:Work>
  </rdf:RDF>
 </metadata>
 <g id="layer1">
  <rect id="rect3363" x="-12.06" y="-6.5824" width="622.76" height="313.36" fill="#c0c0c0"/>
  <rect id="rect2547" x="94.837" y="205.91" width="488.95" height="70.433" fill="#e6e6e6" stroke="#000" stroke-linecap="round" stroke-linejoin="round" stroke-width=".66636"/>
  <text id="text3199" x="201.45422" y="48.469925" fill="#000000" font-family="Courier New" font-size="15.462px" stroke-width="1px" xml:space="preserve"><tspan id="tspan3209" x="201.45422" y="48.469925"/></text>
  <path id="path2579" d="m-61.032-2.607h58.685v-50.469" fill="none" stroke="#000" stroke-width="3"/>
  <path id="path3357" d="m663.17 303.54h-58.685v50.469" fill="none" stroke="#000" stroke-width="3"/>
  <path id="path3359" d="m662.83-2.0675h-58.685v-50.469" fill="none" stroke="#000" stroke-width="3"/>
  <path id="path3361" d="m-2.6971 361.36v-58.685h-50.469" fill="none" stroke="#000" stroke-width="3"/>
  <rect id="rect2828" transform="rotate(-90)" x="23.745" y="1139.9" width="0" height="26" fill="#ccc"/>
  <rect id="rect2725" x="205.07" y="24.613" width="70.456" height="62.677" fill="#fff" stroke="#000" stroke-linecap="round" stroke-linejoin="round" stroke-width=".66636"/>
  <text id="text2713" x="206.64923" y="33.973621" fill="#000000" font-family="Courier New" font-size="6.6749px" stroke-width="1px" xml:space="preserve"><tspan id="tspan2715" x="206.64923" y="33.973621">type=OBJ_COMPLEX</tspan><tspan id="tspan2719" x="206.64923" y="42.317303">name="complex.1"</tspan><tspan id="tspan2717" x="206.64923" y="50.660976">sid=123</tspan><tspan id="tspan2721" x="206.64923" y="59.004658">complex_basename=</tspan><tspan id="tspan2723" x="206.64923" y="67.348328">    "resistor-1.sym"</tspan></text>
  <rect id="rect4361" x="8.0803" y="22.279" width="586.41" height="68.901" fill="#e6e6e6" stroke="#000" stroke-linecap="round" stroke-linejoin="round" stroke-width=".66636"/>
  <g id="g4305" transform="matrix(.55625 0 0 .55625 53.779 -131.34)" stroke-width="1px">
   <path id="path3505" d="m225.17 365.73h43.599" fill="none" marker-end="url(#Arrow2Mend)" stroke="#000"/>
   <text id="text4291" x="226.32254" y="363.26917" fill="#000000" font-family="Courier New" font-size="12px" xml:space="preserve"><tspan id="tspan4293" x="226.32254" y="363.26917">next</tspan></text>
   <text id="text4295" x="245.15396" y="383.38647" fill="#000000" font-family="Courier New" font-size="12px" xml:space="preserve"><tspan id="tspan4297" x="245.15396" y="383.38647">prev</tspan></text>
   <path id="path4299" d="m270.05 374.98h-43.723" fill="none" marker-end="url(#Arrow2Mend)" stroke="#000"/>
  </g>
  <text id="text4301" transform="matrix(.99912 -.041835 .041835 .99912 0 0)" x="168.20587" y="113.51384" fill="#000000" font-family="Courier New" font-size="6.6749px" stroke-width="1px" xml:space="preserve"><tspan id="tspan4303" x="168.20587" y="113.51384">complex</tspan></text>
  <rect id="rect4319" x="205.07" y="24.613" width="70.456" height="62.677" fill="#fff" stroke="#000" stroke-linecap="round" stroke-linejoin="round" stroke-width=".66636"/>
  <text id="text4321" x="206.64923" y="33.973621" fill="#000000" font-family="Courier New" font-size="6.6749px" stroke-width="1px" xml:space="preserve"><tspan id="tspan4323" x="206.64923" y="33.973621">type=OBJ_COMPLEX</tspan><tspan id="tspan4325" x="206.64923" y="42.317303">name="complex.1"</tspan><tspan id="tspan4327" x="206.64923" y="50.660976">sid=123</tspan><tspan id="tspan4329" x="206.64923" y="59.004658">complex_basename=</tspan><tspan id="tspan4331" x="206.64923" y="67.348328">    "resistor-1.sym"</tspan></text>
  <rect id="rect4333" x="205.07" y="24.613" width="70.456" height="62.677" fill="#fff" stroke="#000" stroke-linecap="round" stroke-linejoin="round" stroke-width=".66636"/>
  <text id="text4335" x="206.64923" y="33.973621" fill="#000000" font-family="Courier New" font-size="6.6749px" stroke-width="1px" xml:space="preserve"><tspan id="tspan4337" x="206.64923" y="33.973621">type=OBJ_COMPLEX</tspan><tspan id="tspan4339" x="206.64923" y="42.317303">name="complex.1"</tspan><tspan id="tspan4341" x="206.64923" y="50.660976">sid=123</tspan><tspan id="tspan4343" x="206.64923" y="59.004658">complex_basename=</tspan><tspan id="tspan4345" x="206.64923" y="67.348328">    "resistor-1.sym"</tspan></text>
  <rect id="rect4347" x="205.07" y="24.613" width="70.456" height="62.677" fill="#fff" stroke="#000" stroke-linecap="round" stroke-linejoin="round" stroke-width=".66636"/>
  <text id="text4349" x="206.64923" y="33.973621" fill="#000000" font-family="Courier New" font-size="6.6749px" stroke-width="1px" xml:space="preserve"><tspan id="tspan4351" x="206.64923" y="33.973621">type=OBJ_COMPLEX</tspan><tspan id="tspan4353" x="206.64923" y="42.317303">name="complex.123"</tspan><tspan id="tspan4355" x="206.64923" y="50.660976">sid=123</tspan><tspan id="tspan4357" x="206.64923" y="59.004658">complex_basename=</tspan><tspan id="tspan4359" x="206.64923" y="67.348328">    "resistor-1.sym"</tspan></text>
  <rect id="rect4375" x="107.82" y="24.613" width="70.456" height="62.677" fill="#fff" stroke="#000" stroke-linecap="round" stroke-linejoin="round" stroke-width=".66636"/>
  <text id="text4377" x="109.4036" y="33.973621" fill="#000000" font-family="Courier New" font-size="6.6749px" stroke-width="1px" xml:space="preserve"><tspan id="tspan4379" x="109.4036" y="33.973621">type=OBJ_LINE</tspan><tspan id="tspan4381" x="109.4036" y="42.317303">name="line.1"</tspan><tspan id="tspan4383" x="109.4036" y="50.660976">sid=1</tspan><tspan id="tspan4387" x="109.4036" y="59.004658">line structure</tspan></text>
  <rect id="rect4389" x="398.39" y="24.613" width="70.456" height="62.677" fill="#fff" stroke="#000" stroke-linecap="round" stroke-linejoin="round" stroke-width=".66636"/>
  <text id="text4391" x="399.9736" y="33.973621" fill="#000000" font-family="Courier New" font-size="6.6749px" stroke-width="1px" xml:space="preserve"><tspan id="tspan4393" x="399.9736" y="33.973621">type=OBJ_CIRCLE</tspan><tspan id="tspan4395" x="399.9736" y="42.317303">name="circle.124"</tspan><tspan id="tspan4397" x="399.9736" y="50.660976">sid=124</tspan><tspan id="tspan4401" x="399.9736" y="59.004658">circle structure</tspan></text>
  <rect id="rect4403" x="301.92" y="24.613" width="70.456" height="62.677" fill="#fff" stroke="#000" stroke-linecap="round" stroke-linejoin="round" stroke-width=".66636"/>
  <text id="text4405" x="303.50592" y="33.973621" fill="#000000" font-family="Courier New" font-size="6.6749px" stroke-width="1px" xml:space="preserve"><tspan id="tspan4407" x="303.50592" y="33.973621">type=OBJ_TEXT</tspan><tspan id="tspan4409" x="303.50592" y="42.317303">name="text.1123"</tspan><tspan id="tspan4411" x="303.50592" y="50.660976">sid=1123</tspan><tspan id="tspan4413" x="303.50592" y="59.004658">text-&gt;string=</tspan><tspan id="tspan4415" x="303.50592" y="67.348328">    "footprint=SO16"</tspan></text>
  <g id="g4417" transform="matrix(.55625 0 0 .55625 247.88 -131.34)" stroke-width="1px">
   <path id="path4419" d="m225.17 365.73h43.599" fill="none" marker-end="url(#Arrow2Mend)" stroke="#000"/>
   <text id="text4421" x="226.32254" y="363.26917" fill="#000000" font-family="Courier New" font-size="12px" xml:space="preserve"><tspan id="tspan4423" x="226.32254" y="363.26917">next</tspan></text>
   <text id="text4425" x="245.15396" y="383.38647" fill="#000000" font-family="Courier New" font-size="12px" xml:space="preserve"><tspan id="tspan4427" x="245.15396" y="383.38647">prev</tspan></text>
   <path id="path4429" d="m270.05 374.98h-43.723" fill="none" marker-end="url(#Arrow2Mend)" stroke="#000"/>
  </g>
  <g id="g4431" transform="matrix(.55625 0 0 .55625 151.02 -131.34)" stroke-width="1px">
   <path id="path4433" d="m225.17 365.73h43.599" fill="none" marker-end="url(#Arrow2Mend)" stroke="#000"/>
   <text id="text4435" x="226.32254" y="363.26917" fill="#000000" font-family="Courier New" font-size="12px" xml:space="preserve"><tspan id="tspan4437" x="226.32254" y="363.26917">next</tspan></text>
   <text id="text4439" x="245.15396" y="383.38647" fill="#000000" font-family="Courier New" font-size="12px" xml:space="preserve"><tspan id="tspan4441" x="245.15396" y="383.38647">prev</tspan></text>
   <path id="path4443" d="m270.05 374.98h-43.723" fill="none" marker-end="url(#Arrow2Mend)" stroke="#000"/>
  </g>
  <g id="g4461" transform="matrix(.55625 0 0 .55625 344.35 -131.34)" stroke-width="1px">
   <path id="path4463" d="m225.17 365.73h43.599" fill="none" marker-end="url(#Arrow2Mend)" stroke="#000"/>
   <text id="text4465" x="226.32254" y="363.26917" fill="#000000" font-family="Courier New" font-size="12px" xml:space="preserve"><tspan id="tspan4467" x="226.32254" y="363.26917">next</tspan></text>
   <text id="text4469" x="245.15396" y="383.38647" fill="#000000" font-family="Courier New" font-size="12px" xml:space="preserve"><tspan id="tspan4471" x="245.15396" y="383.38647">prev</tspan></text>
   <path id="path4473" d="m270.05 374.98h-43.723" fill="none" marker-end="url(#Arrow2Mend)" stroke="#000"/>
  </g>
  <rect id="rect4475" x="495.64" y="24.613" width="70.456" height="62.677" fill="#fff" stroke="#000" stroke-linecap="round" stroke-linejoin="round" stroke-width=".66636"/>
  <text id="text4477" x="497.21927" y="33.973621" fill="#000000" font-family="Courier New" font-size="6.6749px" stroke-width="1px" xml:space="preserve"><tspan id="tspan4479" x="497.21927" y="33.973621">type=OBJ_TEXT</tspan><tspan id="tspan4481" x="497.21927" y="42.317303">name="text.234"</tspan><tspan id="tspan4483" x="497.21927" y="50.660976">sid=234</tspan><tspan id="tspan4485" x="497.21927" y="59.004658">text-&gt;string=</tspan><tspan id="tspan4487" x="497.21927" y="67.348328">    "value=10k"</tspan></text>
  <path id="path4507" d="m567.24 72.094h24.252" fill="none" marker-end="url(#Arrow2Mend)" stroke="#000" stroke-width=".55625px"/>
  <text id="text4509" x="567.87457" y="70.722748" fill="#000000" font-family="Courier New" font-size="6.6749px" stroke-width="1px" xml:space="preserve"><tspan id="tspan4511" x="567.87457" y="70.722748">next</tspan></text>
  <path id="path4891" d="m111.43 169.49c-0.46163 36.468 16.583 2.5612 15.781 38.319" fill="none" marker-end="url(#Arrow1Mend)" stroke="#000" stroke-width=".71672"/>
  <text id="text4895" x="114.59601" y="184.48148" fill="#000000" font-family="Courier New" font-size="6.6749px" stroke-width="1px" xml:space="preserve"><tspan id="tspan4897" x="114.59601" y="184.48148">prim_objs</tspan></text>
  <path id="path4909" d="m146.23 210.38c5.2268-64.327 94.17-76.651 94.655-122.47" fill="none" marker-end="url(#Arrow1Mend)" stroke="#000" stroke-width=".71672"/>
  <text id="text4925" x="8.3948402" y="19.355259" fill="#000000" font-family="Courier New" font-size="8.8112px" stroke-width="1px" xml:space="preserve"><tspan id="tspan4927" x="8.3948402" y="19.355259">OBJECT list</tspan></text>
  <path id="path11087" d="m233.86 87.974c0.67241 18.057-18.393 19.442-55.216 20.156-24.225 0.46432-47.839-7.6631-49.768 13.86" fill="none" marker-end="url(#Arrow1Mend)" stroke="#000" stroke-width=".71672"/>
  <rect id="rect2507" x="11.102" y="24.613" width="70.456" height="62.677" fill="#fff" stroke="#000" stroke-linecap="round" stroke-linejoin="round" stroke-width=".66636"/>
  <text id="text2509" x="12.683553" y="33.973621" fill="#000000" font-family="Courier New" font-size="6.6749px" stroke-width="1px" xml:space="preserve"><tspan id="tspan2511" x="12.683553" y="33.973621">type=-1</tspan><tspan id="tspan2513" x="12.683553" y="42.317303">name="object_head.0"</tspan><tspan id="tspan2515" x="12.683553" y="50.660976">sid=1</tspan><tspan id="tspan2517" x="12.683553" y="59.004658"/></text>
  <g id="g2519" transform="matrix(.55625 0 0 .55625 -42.941 -131.34)" stroke-width="1px">
   <path id="path2521" d="m225.17 365.73h43.599" fill="none" marker-end="url(#Arrow2Mend)" stroke="#000"/>
   <text id="text2523" x="226.32254" y="363.26917" fill="#000000" font-family="Courier New" font-size="12px" xml:space="preserve"><tspan id="tspan2525" x="226.32254" y="363.26917">next</tspan></text>
   <text id="text2527" x="245.15396" y="383.38647" fill="#000000" font-family="Courier New" font-size="12px" xml:space="preserve"><tspan id="tspan2529" x="245.15396" y="383.38647">prev</tspan></text>
   <path id="path2531" d="m270.05 374.98h-43.723" fill="none" marker-end="url(#Arrow2Mend)" stroke="#000"/>
  </g>
  <rect id="rect2533" x="292.13" y="209.78" width="70.456" height="62.677" fill="#fff" stroke="#000" stroke-linecap="round" stroke-linejoin="round" stroke-width=".66636"/>
  <text id="text2535" x="293.71262" y="219.13657" fill="#000000" font-family="Courier New" font-size="6.6749px" stroke-width="1px" xml:space="preserve"><tspan id="tspan2537" x="293.71262" y="219.13657">type=OBJ_COMPLEX</tspan><tspan id="tspan2539" x="293.71262" y="227.48024">name="complex.1"</tspan><tspan id="tspan2541" x="293.71262" y="235.82391">sid=123</tspan><tspan id="tspan2543" x="293.71262" y="244.1676">complex_basename=</tspan><tspan id="tspan2545" x="293.71262" y="252.51128">    "resistor-1.sym"</tspan></text>
  <g id="g2549" transform="matrix(.55625 0 0 .55625 140.84 53.819)" stroke-width="1px">
   <path id="path2551" d="m225.17 365.73h43.599" fill="none" marker-end="url(#Arrow2Mend)" stroke="#000"/>
   <text id="text2553" x="226.32254" y="363.26917" fill="#000000" font-family="Courier New" font-size="12px" xml:space="preserve"><tspan id="tspan2555" x="226.32254" y="363.26917">next</tspan></text>
   <text id="text2557" x="245.15396" y="383.38647" fill="#000000" font-family="Courier New" font-size="12px" xml:space="preserve"><tspan id="tspan2559" x="245.15396" y="383.38647">prev</tspan></text>
   <path id="path2561" d="m270.05 374.98h-43.723" fill="none" marker-end="url(#Arrow2Mend)" stroke="#000"/>
  </g>
  <rect id="rect2563" x="292.13" y="209.78" width="70.456" height="62.677" fill="#fff" stroke="#000" stroke-linecap="round" stroke-linejoin="round" stroke-width=".66636"/>
  <text id="text2565" x="293.71262" y="219.13657" fill="#000000" font-family="Courier New" font-size="6.6749px" stroke-width="1px" xml:space="preserve"><tspan id="tspan2567" x="293.71262" y="219.13657">type=OBJ_COMPLEX</tspan><tspan id="tspan2569" x="293.71262" y="227.48024">name="complex.1"</tspan><tspan id="tspan2571" x="293.71262" y="235.82391">sid=123</tspan><tspan id="tspan2573" x="293.71262" y="244.1676">complex_basename=</tspan><tspan id="tspan2575" x="293.71262" y="252.51128">    "resistor-1.sym"</tspan></text>
  <rect id="rect2577" x="292.13" y="209.78" width="70.456" height="62.677" fill="#fff" stroke="#000" stroke-linecap="round" stroke-linejoin="round" stroke-width=".66636"/>
  <text id="text2579" x="293.71262" y="219.13657" fill="#000000" font-family="Courier New" font-size="6.6749px" stroke-width="1px" xml:space="preserve"><tspan id="tspan2581" x="293.71262" y="219.13657">type=OBJ_COMPLEX</tspan><tspan id="tspan2583" x="293.71262" y="227.48024">name="complex.1"</tspan><tspan id="tspan2585" x="293.71262" y="235.82391">sid=123</tspan><tspan id="tspan2587" x="293.71262" y="244.1676">complex_basename=</tspan><tspan id="tspan2589" x="293.71262" y="252.51128">    "resistor-1.sym"</tspan></text>
  <rect id="rect2591" x="292.13" y="209.78" width="70.456" height="62.677" fill="#fff" stroke="#000" stroke-linecap="round" stroke-linejoin="round" stroke-width=".66636"/>
  <text id="text2593" x="293.71262" y="219.13657" fill="#000000" font-family="Courier New" font-size="6.6749px" stroke-width="1px" xml:space="preserve"><tspan id="tspan2595" x="293.71262" y="219.13657">type=OBJ_PIN</tspan><tspan id="tspan2597" x="293.71262" y="227.48024">name="pin.1231"</tspan><tspan id="tspan2599" x="293.71262" y="235.82391">sid=1231</tspan><tspan id="tspan2603" x="293.71262" y="244.1676">whichend=0</tspan></text>
  <rect id="rect2605" x="194.89" y="209.78" width="70.456" height="62.677" fill="#fff" stroke="#000" stroke-linecap="round" stroke-linejoin="round" stroke-width=".66636"/>
  <text id="text2607" x="196.46696" y="219.13657" fill="#000000" font-family="Courier New" font-size="6.6749px" stroke-width="1px" xml:space="preserve"><tspan id="tspan2609" x="196.46696" y="219.13657">type=OBJ_LINE</tspan><tspan id="tspan2611" x="196.46696" y="227.48024">name="line.5"</tspan><tspan id="tspan2613" x="196.46696" y="235.82391">sid=5</tspan><tspan id="tspan2615" x="196.46696" y="244.1676">line structure</tspan></text>
  <rect id="rect2617" x="485.46" y="209.78" width="70.456" height="62.677" fill="#fff" stroke="#000" stroke-linecap="round" stroke-linejoin="round" stroke-width=".66636"/>
  <text id="text2619" x="487.03699" y="219.13657" fill="#000000" font-family="Courier New" font-size="6.6749px" stroke-width="1px" xml:space="preserve"><tspan id="tspan2621" x="487.03699" y="219.13657">type=OBJ_NET</tspan><tspan id="tspan2623" x="487.03699" y="227.48024">name="net.1124"</tspan><tspan id="tspan2625" x="487.03699" y="235.82391">sid=1124</tspan><tspan id="tspan2627" x="487.03699" y="244.1676"/></text>
  <rect id="rect2629" x="388.99" y="209.78" width="70.456" height="62.677" fill="#fff" stroke="#000" stroke-linecap="round" stroke-linejoin="round" stroke-width=".66636"/>
  <text id="text2631" x="390.56931" y="219.13657" fill="#000000" font-family="Courier New" font-size="6.6749px" stroke-width="1px" xml:space="preserve"><tspan id="tspan2633" x="390.56931" y="219.13657">type=OBJ_TEXT</tspan><tspan id="tspan2635" x="390.56931" y="227.48024">name="text.1111"</tspan><tspan id="tspan2637" x="390.56931" y="235.82391">sid=1111</tspan><tspan id="tspan2639" x="390.56931" y="244.1676">text-&gt;string=</tspan><tspan id="tspan2641" x="390.56931" y="252.51128">    "netname=AD10"</tspan></text>
  <g id="g2643" transform="matrix(.55625 0 0 .55625 334.94 53.819)" stroke-width="1px">
   <path id="path2645" d="m225.17 365.73h43.599" fill="none" marker-end="url(#Arrow2Mend)" stroke="#000"/>
   <text id="text2647" x="226.32254" y="363.26917" fill="#000000" font-family="Courier New" font-size="12px" xml:space="preserve"><tspan id="tspan2649" x="226.32254" y="363.26917">next</tspan></text>
   <text id="text2651" x="245.15396" y="383.38647" fill="#000000" font-family="Courier New" font-size="12px" xml:space="preserve"><tspan id="tspan2653" x="245.15396" y="383.38647">prev</tspan></text>
   <path id="path2655" d="m270.05 374.98h-43.723" fill="none" marker-end="url(#Arrow2Mend)" stroke="#000"/>
  </g>
  <g id="g2657" transform="matrix(.55625 0 0 .55625 238.09 53.819)" stroke-width="1px">
   <path id="path2659" d="m225.17 365.73h43.599" fill="none" marker-end="url(#Arrow2Mend)" stroke="#000"/>
   <text id="text2661" x="226.32254" y="363.26917" fill="#000000" font-family="Courier New" font-size="12px" xml:space="preserve"><tspan id="tspan2663" x="226.32254" y="363.26917">next</tspan></text>
   <text id="text2665" x="245.15396" y="383.38647" fill="#000000" font-family="Courier New" font-size="12px" xml:space="preserve"><tspan id="tspan2667" x="245.15396" y="383.38647">prev</tspan></text>
   <path id="path2669" d="m270.05 374.98h-43.723" fill="none" marker-end="url(#Arrow2Mend)" stroke="#000"/>
  </g>
  <path id="path2699" d="m556.26 257.26h24.252" fill="none" marker-end="url(#Arrow2Mend)" stroke="#000" stroke-width=".55625px"/>
  <text id="text2701" x="556.90295" y="255.8857" fill="#000000" font-family="Courier New" font-size="6.6749px" stroke-width="1px" xml:space="preserve"><tspan id="tspan2703" x="556.90295" y="255.8857">next</tspan></text>
  <text id="text2705" x="94.231956" y="285.45035" fill="#000000" font-family="Courier New" font-size="8.8112px" stroke-width="1px" xml:space="preserve"><tspan id="tspan2707" x="94.231956" y="285.45035">OBJECT list of the complex object</tspan></text>
  <rect id="rect2709" x="98.166" y="209.78" width="70.456" height="62.677" fill="#fff" stroke="#000" stroke-linecap="round" stroke-linejoin="round" stroke-width=".66636"/>
  <text id="text2711" x="99.746925" y="219.13657" fill="#000000" font-family="Courier New" font-size="6.6749px" stroke-width="1px" xml:space="preserve"><tspan id="tspan2713" x="99.746925" y="219.13657">type=-1</tspan><tspan id="tspan2716" x="99.746925" y="227.48024">name=</tspan><tspan id="tspan2768" x="99.746925" y="235.82391">   "complex_head.0"</tspan><tspan id="tspan2718" x="99.746925" y="244.1676"/><tspan id="tspan2720" x="99.746925" y="252.51128"/></text>
  <g id="g2722" transform="matrix(.55625 0 0 .55625 44.122 53.819)" stroke-width="1px">
   <path id="path2724" d="m225.17 365.73h43.599" fill="none" marker-end="url(#Arrow2Mend)" stroke="#000"/>
   <text id="text2726" x="226.32254" y="363.26917" fill="#000000" font-family="Courier New" font-size="12px" xml:space="preserve"><tspan id="tspan2728" x="226.32254" y="363.26917">next</tspan></text>
   <text id="text2730" x="245.15396" y="383.38647" fill="#000000" font-family="Courier New" font-size="12px" xml:space="preserve"><tspan id="tspan2732" x="245.15396" y="383.38647">prev</tspan></text>
   <path id="path2734" d="m270.05 374.98h-43.723" fill="none" marker-end="url(#Arrow2Mend)" stroke="#000"/>
  </g>
  <rect id="rect2736" x="93.261" y="123.94" width="39.187" height="44.896" fill="#fff" stroke="#000" stroke-linecap="round" stroke-linejoin="round" stroke-width=".66636"/>
  <text id="text2738" x="94.841942" y="133.29942" fill="#000000" font-family="Courier New" font-size="6.6749px" stroke-width="1px" xml:space="preserve"><tspan id="tspan2740" x="94.841942" y="133.29942">x=10000</tspan><tspan id="tspan2752" x="94.841942" y="141.64311">y=5000</tspan><tspan id="tspan2754" x="94.841942" y="149.98679">angle=90</tspan><tspan id="tspan2746" x="94.841942" y="158.33046">mirror=1</tspan></text>
  <text id="text2748" x="92.704788" y="122.22501" fill="#000000" font-family="Courier New" font-size="6.6749px" stroke-width="1px" xml:space="preserve"><tspan id="tspan2750" x="92.704788" y="122.22501">COMPLEX</tspan></text>
  <text id="text2770" transform="matrix(.76905 -.63918 .63918 .76905 0 0)" x="12.973873" y="232.33252" fill="#000000" font-family="Courier New" font-size="6.6749px" stroke-width="1px" xml:space="preserve"><tspan id="tspan2772" x="12.973873" y="232.33252">complex_parent</tspan></text>
  <text id="text2778" transform="matrix(.38872 -.92136 .92136 .38872 0 0)" x="-72.020103" y="270.87137" fill="#000000" font-family="Courier New" font-size="6.6749px" stroke-width="1px" xml:space="preserve"><tspan id="tspan2780" x="-72.020103" y="270.87137">complex_parent</tspan></text>
  <text id="text2782" transform="matrix(.71877 .69525 -.69525 .71877 0 0)" x="269.25449" y="-105.68107" fill="#000000" font-family="Courier New" font-size="6.6749px" stroke-width="1px" xml:space="preserve"><tspan id="tspan2784" x="269.25449" y="-105.68107">complex_parent</tspan></text>
  <path id="path2788" d="m330.17 209.15c5.2268-64.327-72.292-74.811-71.808-120.63" fill="none" marker-end="url(#Arrow1Mend)" stroke="#000" stroke-width=".71672"/>
  <path id="path2790" d="m220.42 209.15c5.2268-64.327 30.406-74.811 30.89-120.63" fill="none" marker-end="url(#Arrow1Mend)" stroke="#000" stroke-width=".71672"/>
 </g>
</svg>
