<?xml version="1.0" encoding="UTF-8" standalone="no"?>
<svg
   xmlns:dc="http://purl.org/dc/elements/1.1/"
   xmlns:cc="http://creativecommons.org/ns#"
   xmlns:rdf="http://www.w3.org/1999/02/22-rdf-syntax-ns#"
   xmlns:svg="http://www.w3.org/2000/svg"
   xmlns="http://www.w3.org/2000/svg"
   xmlns:sodipodi="http://sodipodi.sourceforge.net/DTD/sodipodi-0.dtd"
   xmlns:inkscape="http://www.inkscape.org/namespaces/inkscape"
   id="svg2"
   width="600"
   height="200"
   version="1.0"
   inkscape:version="0.48.5 r10040"
   sodipodi:docname="o_text_text_overview.new.svg">
  <sodipodi:namedview
     pagecolor="#ffffff"
     bordercolor="#666666"
     borderopacity="1"
     objecttolerance="10"
     gridtolerance="10"
     guidetolerance="10"
     inkscape:pageopacity="0"
     inkscape:pageshadow="2"
     inkscape:window-width="770"
     inkscape:window-height="480"
     id="namedview336"
     showgrid="false"
     inkscape:zoom="0.97166667"
     inkscape:cx="300"
     inkscape:cy="100"
     inkscape:window-x="0"
     inkscape:window-y="31"
     inkscape:window-maximized="0"
     inkscape:current-layer="svg2" />
  <defs
     id="defs4">
    <marker
       id="Arrow1Mend"
       overflow="visible"
       orient="auto">
      <path
         id="path3406"
         transform="matrix(-.4 0 0 -.4 -4 0)"
         d="m0 0 5-5-17.5 5 17.5 5-5-5z"
         fill-rule="evenodd"
         stroke="#000"
         stroke-width="1pt" />
    </marker>
  </defs>
  <g
     id="layer1">
    <rect
       id="rect3363"
       x="-9.9626"
       y="-7.2817"
       width="620.66"
       height="219.65"
       fill="#c0c0c0" />
    <rect
       id="rect6063"
       x="21.814"
       y="106.61"
       width="210.59"
       height="86.811"
       stroke="#000"
       stroke-linecap="round"
       stroke-linejoin="round"
       stroke-width="1.1918" />
    <text
       id="text3175"
       transform="matrix(1 .0021265 -.0021265 1 0 0)"
       x="200.19473"
       y="11.958162"
       fill="#000000"
       font-family="Courier New"
       font-size="13.157px"
       stroke-width="1px"
       xml:space="preserve"><tspan
         id="tspan3177"
         x="200.19473"
         y="11.958162">gEDA file format</tspan></text>
    <text
       id="text3199"
       x="201.45422"
       y="48.469925"
       fill="#000000"
       font-family="Courier New"
       font-size="15.462px"
       stroke-width="1px"
       xml:space="preserve"><tspan
         id="tspan3209"
         x="201.45422"
         y="48.469925" /></text>
    <path
       id="path2579"
       d="m-61.032-2.607h58.685v-50.469"
       fill="none"
       stroke="#000"
       stroke-width="3" />
    <path
       id="path3357"
       d="m663.66 204.59h-58.685v50.469"
       fill="none"
       stroke="#000"
       stroke-width="3" />
    <path
       id="path3359"
       d="m661.16-2.1669h-58.685v-50.469"
       fill="none"
       stroke="#000"
       stroke-width="3" />
    <path
       id="path3361"
       d="m0.4498 264.16v-58.685h-50.469"
       fill="none"
       stroke="#000"
       stroke-width="3" />
    <g
       id="g2519"
       transform="translate(-17.16 55.656)">
      <rect
         id="rect3211"
         x="215.28"
         y="-37.519"
         width="222.14"
         height="79.762"
         fill="#fff"
         stroke="#000"
         stroke-linecap="round"
         stroke-linejoin="round"
         stroke-width="1.3832" />
      <text
         id="text2501"
         x="218.0766"
         y="-24.069031"
         fill="#000000"
         font-family="Courier New"
         font-size="11.857px"
         stroke-width="1px"
         style="line-height:125%"
         xml:space="preserve"><tspan
           id="tspan2513"
           x="218.0766"
           y="-24.069031">T 43200 44100 9 10 1 0 0 0 2</tspan><tspan
           id="tspan2480"
           x="218.0766"
           y="-9.2479239">Text with \_overbar\_</tspan><tspan
           id="tspan2482"
           x="218.0766"
           y="5.573184">...     and tabulator</tspan><tspan
           id="tspan2484"
           x="218.0766"
           y="20.394291">T 43200 43800 9 10 1 1 0 0 1</tspan><tspan
           id="tspan2486"
           x="218.0766"
           y="35.215401">attribute_name=attribute_value</tspan><tspan
           id="tspan2488"
           x="218.0766"
           y="50.036507" /></text>
    </g>
    <rect
       id="rect2828"
       transform="rotate(-90)"
       x="23.745"
       y="1139.9"
       width="0"
       height="26"
       fill="#ccc" />
    <path
       id="path11087"
       d="m428.36 59.383c29.36 5.5316 41.695 18.243 55.705 41.794"
       fill="none"
       marker-end="url(#Arrow1Mend)"
       stroke="#000"
       stroke-width="1.2885" />
    <rect
       id="rect6083"
       x="438.63"
       y="105.44"
       width="140.06"
       height="81.187"
       fill="#fff"
       stroke="#fff"
       stroke-linecap="round"
       stroke-linejoin="round"
       stroke-width="1.0868" />
    <g
       id="g6075"
       transform="matrix(1.0168 0 0 1 145.99 -8.6958)">
      <path
         id="path2553"
         d="m355.99 120.99h45.438"
         fill="none"
         stroke="#000"
         stroke-linecap="square"
         stroke-miterlimit="10"
         stroke-width="1.3405" />
      <g
         id="g2555"
         transform="matrix(0 2.1443 2.1443 0 -92.201 -614)">
        <text
           id="text2557"
           transform="matrix(0 1 1 0 349.01 182.26)"
           fill="#000000"
           font-size="6.2513px">
          <tspan
             id="tspan2559"
             x="0 3.8195686 7.2953138 10.420983 12.158856 13.896729 18.410196 19.797995 21.535866 25.011612 26.749483 30.225229 33.350899 36.826645 38.90834 42.384087 45.859829"
             y="0"
             font-family="Ubuntu">Text with overbar</tspan>
          <tspan
             id="tspan2561"
             x="0 1.7378725 3.475745 5.2136173 17.378725 20.854469 24.330215 27.80596 29.543833 31.281706 34.75745 38.233196 41.708939 43.096737 46.572483 48.310356 51.786102"
             y="11.7023"
             font-family="Courier New">... and tabulator</tspan>
          <tspan
             id="tspan2563"
             x="0 3.475745 5.2136173 6.9514899 9.033186 10.420983 13.896729 17.372475 19.110346 22.586092 26.061836 29.187506 32.66325 34.051048 37.526794"
             y="25.2054"
             font-family="Courier New">attribute_value</tspan>
        </text>
      </g>
    </g>
    <g
       id="g5770"
       transform="translate(12.072 -10.13)"
       fill="none"
       stroke="#008000"
       stroke-linecap="square"
       stroke-miterlimit="10"
       stroke-width=".96515">
      <path
         id="path3086"
         d="m19.58 127.83v12.546" />
      <path
         id="path3088"
         d="m23.922 127.83h-8.6867" />
      <path
         id="path3090"
         d="m31.161 140.38 1.9299-0.96495" />
      <path
         id="path3092"
         d="m29.229 140.38h1.932" />
      <path
         id="path3094"
         d="m27.299 139.41 1.9299 0.96495" />
      <path
         id="path3096"
         d="m26.335 137.48 0.96495 1.9299" />
      <path
         id="path3098"
         d="m26.335 135.55v1.9299" />
      <path
         id="path3100"
         d="m27.299 133.62-0.96495 1.932" />
      <path
         id="path3102"
         d="m29.229 132.66-1.9299 0.96495" />
      <path
         id="path3104"
         d="m31.161 132.66h-1.932" />
      <path
         id="path3106"
         d="m33.091 133.62-1.9299-0.96495" />
      <path
         id="path3108"
         d="m34.056 136.52h-7.7217" />
      <path
         id="path3110"
         d="m34.056 135.55v0.96495" />
      <path
         id="path3112"
         d="m33.091 133.62 0.96495 1.932" />
      <path
         id="path3114"
         d="m42.743 132.66-6.7568 7.7217" />
      <path
         id="path3116"
         d="m42.743 140.38-6.7568-7.7217" />
      <path
         id="path3118"
         d="m49.015 131.69h-3.8598" />
      <path
         id="path3120"
         d="m47.085 139.41v-11.582" />
      <path
         id="path3122"
         d="m48.05 140.38-0.96495-0.96495" />
      <path
         id="path3124"
         d="m49.015 140.38h-0.96495" />
      <path
         id="path3126"
         d="m59.151 140.38-2.897-7.7217" />
      <path
         id="path3128"
         d="m62.046 132.66-2.8948 7.7217" />
      <path
         id="path3130"
         d="m64.941 140.38-2.8948-7.7217" />
      <path
         id="path3132"
         d="m67.836 132.66-2.8948 7.7217" />
      <path
         id="path3134"
         d="m70.733 132.66v7.7217" />
      <path
         id="path3136"
         d="m70.733 129.76v0.48247" />
      <path
         id="path3138"
         d="m77.487 131.69h-3.8598" />
      <path
         id="path3140"
         d="m75.558 139.41v-11.582" />
      <path
         id="path3142"
         d="m76.523 140.38-0.96495-0.96495" />
      <path
         id="path3144"
         d="m77.487 140.38h-0.96495" />
      <path
         id="path3146"
         d="m79.42 127.83v12.546" />
      <path
         id="path3148"
         d="m81.349 132.66-1.9299 0.96495" />
      <path
         id="path3150"
         d="m84.244 132.66h-2.8948" />
      <path
         id="path3152"
         d="m86.174 134.59-1.9299-1.9299" />
      <path
         id="path3154"
         d="m86.174 140.38v-5.7918" />
      <path
         id="path3156"
         d="m95.343 139.41 1.9299 0.96495" />
      <path
         id="path3158"
         d="m94.378 137.48 0.96495 1.9299" />
      <path
         id="path3160"
         d="m94.378 135.55v1.9299" />
      <path
         id="path3162"
         d="m95.343 133.62-0.96495 1.932" />
      <path
         id="path3164"
         d="m97.273 132.66-1.9299 0.96495" />
      <path
         id="path3166"
         d="m98.238 132.66h-0.96495" />
      <path
         id="path3168"
         d="m100.17 133.62-1.9299-0.96495" />
      <path
         id="path3170"
         d="m101.13 135.55-0.96495-1.932" />
      <path
         id="path3172"
         d="m101.13 137.48v-1.9299" />
      <path
         id="path3174"
         d="m100.17 139.41 0.96495-1.9299" />
      <path
         id="path3176"
         d="m98.238 140.38 1.9299-0.96495" />
      <path
         id="path3178"
         d="m97.273 140.38h0.96495" />
      <path
         id="path3180"
         d="m107.89 140.38-3.8598-7.7217" />
      <path
         id="path3182"
         d="m111.75 132.66-3.8619 7.7217" />
      <path
         id="path3184"
         d="m118.51 140.38 1.9299-0.96495" />
      <path
         id="path3186"
         d="m116.58 140.38h1.9299" />
      <path
         id="path3188"
         d="m114.65 139.41 1.9299 0.96495" />
      <path
         id="path3190"
         d="m113.68 137.48 0.96495 1.9299" />
      <path
         id="path3192"
         d="m113.68 135.55v1.9299" />
      <path
         id="path3194"
         d="m114.65 133.62-0.96495 1.932" />
      <path
         id="path3196"
         d="m116.58 132.66-1.9299 0.96495" />
      <path
         id="path3198"
         d="m118.51 132.66h-1.9299" />
      <path
         id="path3200"
         d="m120.44 133.62-1.9299-0.96495" />
      <path
         id="path3202"
         d="m121.4 136.52h-7.7217" />
      <path
         id="path3204"
         d="m121.4 135.55v0.96495" />
      <path
         id="path3206"
         d="m120.44 133.62 0.96709 1.932" />
      <path
         id="path3208"
         d="m123.33 132.66v7.7217" />
      <path
         id="path3210"
         d="m125.26 132.66-1.9299 0.96495" />
      <path
         id="path3212"
         d="m127.19 132.66h-1.9299" />
      <path
         id="path3214"
         d="m128.16 133.62-0.96494-0.96495" />
      <path
         id="path3216"
         d="m130.09 127.83v12.546" />
      <path
         id="path3218"
         d="m132.02 140.38-1.9299-0.96495" />
      <path
         id="path3220"
         d="m133.95 140.38h-1.9299" />
      <path
         id="path3222"
         d="m135.88 139.41-1.9299 0.96495" />
      <path
         id="path3224"
         d="m136.84 137.48-0.96495 1.9299" />
      <path
         id="path3226"
         d="m136.84 135.55v1.9299" />
      <path
         id="path3228"
         d="m135.88 133.62 0.96495 1.932" />
      <path
         id="path3230"
         d="m133.95 132.66 1.9299 0.96495" />
      <path
         id="path3232"
         d="m132.02 132.66h1.9299" />
      <path
         id="path3234"
         d="m130.09 133.62 1.9299-0.96495" />
      <path
         id="path3236"
         d="m147.46 139.41 0.9671 0.96495" />
      <path
         id="path3238"
         d="m147.46 134.59v4.8269" />
      <path
         id="path3240"
         d="m145.53 132.66 1.9299 1.9299" />
      <path
         id="path3242"
         d="m142.64 132.66h2.8948" />
      <path
         id="path3244"
         d="m141.67 133.62 0.96494-0.96495" />
      <path
         id="path3246"
         d="m145.53 140.38 1.9299-0.96495" />
      <path
         id="path3248"
         d="m142.64 140.38h2.8948" />
      <path
         id="path3250"
         d="m140.71 139.41 1.9299 0.96495" />
      <path
         id="path3252"
         d="m140.71 138.45v0.96494" />
      <path
         id="path3254"
         d="m142.64 136.52-1.9299 1.9299" />
      <path
         id="path3256"
         d="m147.46 136.52h-4.8247" />
      <path
         id="path3258"
         d="m152.29 132.66v7.7217" />
      <path
         id="path3260"
         d="m154.22 132.66-1.9299 0.96495" />
      <path
         id="path3262"
         d="m156.15 132.66h-1.9299" />
      <path
         id="path3264"
         d="m157.11 133.62-0.96495-0.96495" />
      <path
         id="path3266"
         d="m159.04 124.74h-64.664" />
      <path
         id="path3268"
         d="m16.683 165.95h-0.48247" />
      <path
         id="path3270"
         d="m17.165 165.47-0.48247 0.48247" />
      <path
         id="path3272"
         d="m17.165 164.99v0.48247" />
      <path
         id="path3274"
         d="m16.683 164.51 0.48247 0.48248" />
      <path
         id="path3276"
         d="m16.2 164.51h0.48247" />
      <path
         id="path3278"
         d="m15.718 164.99 0.48247-0.48248" />
      <path
         id="path3280"
         d="m15.718 165.47v-0.48247" />
      <path
         id="path3282"
         d="m16.2 165.95-0.48247-0.48247" />
      <path
         id="path3284"
         d="m22.475 165.95h-0.48247" />
      <path
         id="path3286"
         d="m22.957 165.47-0.48247 0.48247" />
      <path
         id="path3288"
         d="m22.957 164.99v0.48247" />
      <path
         id="path3290"
         d="m22.475 164.51 0.48247 0.48248" />
      <path
         id="path3292"
         d="m21.992 164.51h0.48247" />
      <path
         id="path3294"
         d="m21.51 164.99 0.48247-0.48248" />
      <path
         id="path3296"
         d="m21.51 165.47v-0.48247" />
      <path
         id="path3298"
         d="m21.992 165.95-0.48247-0.48247" />
      <path
         id="path3300"
         d="m28.264 165.95h-0.48247" />
      <path
         id="path3302"
         d="m28.747 165.47-0.48247 0.48247" />
      <path
         id="path3304"
         d="m28.747 164.99v0.48247" />
      <path
         id="path3306"
         d="m28.264 164.51 0.48247 0.48248" />
      <path
         id="path3308"
         d="m27.782 164.51h0.48247" />
      <path
         id="path3310"
         d="m27.299 164.99 0.48247-0.48248" />
      <path
         id="path3312"
         d="m27.299 165.47v-0.48247" />
      <path
         id="path3314"
         d="m27.782 165.95-0.48247-0.48247" />
      <path
         id="path3316"
         d="m106.92 164.51 0.96495 0.96495" />
      <path
         id="path3318"
         d="m106.92 159.68v4.8247" />
      <path
         id="path3320"
         d="m104.99 157.75 1.9299 1.9299" />
      <path
         id="path3322"
         d="m102.1 157.75h2.8948" />
      <path
         id="path3324"
         d="m101.13 158.72 0.96709-0.96494" />
      <path
         id="path3326"
         d="m104.99 165.47 1.9299-0.96495" />
      <path
         id="path3328"
         d="m102.1 165.47h2.8948" />
      <path
         id="path3330"
         d="m100.17 164.51 1.932 0.96495" />
      <path
         id="path3332"
         d="m100.17 163.54v0.96495" />
      <path
         id="path3334"
         d="m102.1 161.61-1.932 1.9299" />
      <path
         id="path3336"
         d="m106.92 161.61h-4.8247" />
      <path
         id="path3338"
         d="m111.75 157.75v7.7196" />
      <path
         id="path3340"
         d="m113.68 157.75-1.9299 0.96494" />
      <path
         id="path3342"
         d="m116.58 157.75h-2.8948" />
      <path
         id="path3344"
         d="m118.51 159.68-1.9299-1.9299" />
      <path
         id="path3346"
         d="m118.51 165.47v-5.7897" />
      <path
         id="path3348"
         d="m128.16 152.92v12.546" />
      <path
         id="path3350"
         d="m126.23 165.47 1.9299-0.96495" />
      <path
         id="path3352"
         d="m124.3 165.47h1.9299" />
      <path
         id="path3354"
         d="m122.37 164.51 1.9299 0.96495" />
      <path
         id="path3356"
         d="m121.4 162.58 0.96495 1.9299" />
      <path
         id="path3358"
         d="m121.4 160.65v1.9299" />
      <path
         id="path3360"
         d="m122.37 158.72-0.96495 1.9299" />
      <path
         id="path3362"
         d="m124.3 157.75-1.9299 0.96494" />
      <path
         id="path3364"
         d="m126.23 157.75h-1.9299" />
      <path
         id="path3366"
         d="m128.16 158.72-1.9299-0.96494" />
      <path
         id="path3368"
         d="m140.22 156.79h-3.8598" />
      <path
         id="path3370"
         d="m138.29 164.51v-11.582" />
      <path
         id="path3372"
         d="m139.26 165.47-0.96495-0.96495" />
      <path
         id="path3374"
         d="m140.22 165.47h-0.96495" />
      <path
         id="path3376"
         d="m148.91 164.51 0.96495 0.96495" />
      <path
         id="path3378"
         d="m148.91 159.68v4.8247" />
      <path
         id="path3380"
         d="m146.98 157.75 1.932 1.9299" />
      <path
         id="path3382"
         d="m144.08 157.75h2.8948" />
      <path
         id="path3384"
         d="m143.12 158.72 0.96495-0.96494" />
      <path
         id="path3386"
         d="m146.98 165.47 1.932-0.96495" />
      <path
         id="path3388"
         d="m144.08 165.47h2.8948" />
      <path
         id="path3390"
         d="m142.15 164.51 1.9299 0.96495" />
      <path
         id="path3392"
         d="m142.15 163.54v0.96495" />
      <path
         id="path3394"
         d="m144.08 161.61-1.9299 1.9299" />
      <path
         id="path3396"
         d="m148.91 161.61h-4.8269" />
      <path
         id="path3398"
         d="m153.74 152.92v12.546" />
      <path
         id="path3400"
         d="m155.67 165.47-1.9299-0.96495" />
      <path
         id="path3402"
         d="m157.6 165.47h-1.9299" />
      <path
         id="path3404"
         d="m159.53 164.51-1.9299 0.96495" />
      <path
         id="path4043"
         d="m160.49 162.58-0.96709 1.9299" />
      <path
         id="path3408"
         d="m160.49 160.65v1.9299" />
      <path
         id="path3410"
         d="m159.53 158.72 0.96709 1.9299" />
      <path
         id="path3412"
         d="m157.6 157.75 1.9299 0.96494" />
      <path
         id="path3414"
         d="m155.67 157.75h1.9299" />
      <path
         id="path3416"
         d="m153.74 158.72 1.9299-0.96494" />
      <path
         id="path3418"
         d="m164.35 163.54v-5.7897" />
      <path
         id="path3420"
         d="m166.28 165.47-1.9299-1.9299" />
      <path
         id="path3422"
         d="m169.18 165.47h-2.897" />
      <path
         id="path3424"
         d="m171.11 164.51-1.9299 0.96495" />
      <path
         id="path3426"
         d="m171.11 157.75v7.7196" />
      <path
         id="path3428"
         d="m174.49 152.92v12.546" />
      <path
         id="path3430"
         d="m184.62 164.51 0.96495 0.96495" />
      <path
         id="path3432"
         d="m184.62 159.68v4.8247" />
      <path
         id="path3434"
         d="m182.69 157.75 1.9299 1.9299" />
      <path
         id="path3436"
         d="m179.8 157.75h2.8948" />
      <path
         id="path3438"
         d="m178.83 158.72 0.96709-0.96494" />
      <path
         id="path3440"
         d="m182.69 165.47 1.9299-0.96495" />
      <path
         id="path3442"
         d="m179.8 165.47h2.8948" />
      <path
         id="path3444"
         d="m177.86 164.51 1.932 0.96495" />
      <path
         id="path3446"
         d="m177.86 163.54v0.96495" />
      <path
         id="path3448"
         d="m179.8 161.61-1.932 1.9299" />
      <path
         id="path3450"
         d="m184.62 161.61h-4.8247" />
      <path
         id="path3452"
         d="m193.31 156.79h-3.8619" />
      <path
         id="path3454"
         d="m191.38 164.51v-11.582" />
      <path
         id="path3456"
         d="m192.34 165.47-0.96495-0.96495" />
      <path
         id="path3458"
         d="m193.31 165.47h-0.96495" />
      <path
         id="path3460"
         d="m196.2 164.51 1.9299 0.96495" />
      <path
         id="path3462"
         d="m195.24 162.58 0.96495 1.9299" />
      <path
         id="path3464"
         d="m195.24 160.65v1.9299" />
      <path
         id="path3466"
         d="m196.2 158.72-0.96495 1.9299" />
      <path
         id="path3468"
         d="m198.13 157.75-1.9299 0.96494" />
      <path
         id="path3470"
         d="m199.1 157.75h-0.96709" />
      <path
         id="path3472"
         d="m201.03 158.72-1.9299-0.96494" />
      <path
         id="path3474"
         d="m201.99 160.65-0.96494-1.9299" />
      <path
         id="path3476"
         d="m201.99 162.58v-1.9299" />
      <path
         id="path3478"
         d="m201.03 164.51 0.96494-1.9299" />
      <path
         id="path3480"
         d="m199.1 165.47 1.9299-0.96495" />
      <path
         id="path3482"
         d="m198.13 165.47h0.96709" />
      <path
         id="path3484"
         d="m204.89 157.75v7.7196" />
      <path
         id="path3486"
         d="m206.82 157.75-1.9299 0.96494" />
      <path
         id="path3488"
         d="m208.75 157.75h-1.9299" />
      <path
         id="path3490"
         d="m209.71 158.72-0.96495-0.96494" />
      <path
         id="path3492"
         d="m21.992 193.46 0.96495 0.96709" />
      <path
         id="path3494"
         d="m21.992 188.64v4.8247" />
      <path
         id="path3496"
         d="m20.062 186.71 1.9299 1.9299" />
      <path
         id="path3498"
         d="m17.165 186.71h2.897" />
      <path
         id="path3500"
         d="m16.2 187.67 0.96495-0.96495" />
      <path
         id="path3502"
         d="m20.062 194.43 1.9299-0.96709" />
      <path
         id="path3504"
         d="m17.165 194.43h2.897" />
      <path
         id="path3506"
         d="m15.235 193.46 1.9299 0.96709" />
      <path
         id="path3508"
         d="m15.235 192.5v0.96495" />
      <path
         id="path3510"
         d="m17.165 190.57-1.9299 1.9299" />
      <path
         id="path3512"
         d="m21.992 190.57h-4.8269" />
      <path
         id="path3514"
         d="m30.677 185.74h-3.8598" />
      <path
         id="path3516"
         d="m28.747 193.46v-11.582" />
      <path
         id="path3518"
         d="m29.712 194.43-0.96495-0.96709" />
      <path
         id="path3520"
         d="m30.677 194.43h-0.96495" />
      <path
         id="path3522"
         d="m36.469 185.74h-3.8598" />
      <path
         id="path3524"
         d="m34.539 193.46v-11.582" />
      <path
         id="path3526"
         d="m35.504 194.43-0.96495-0.96709" />
      <path
         id="path3528"
         d="m36.469 194.43h-0.96495" />
      <path
         id="path3530"
         d="m38.399 186.71v7.7217" />
      <path
         id="path3532"
         d="m40.331 186.71-1.932 0.96495" />
      <path
         id="path3534"
         d="m42.26 186.71h-1.9299" />
      <path
         id="path3536"
         d="m43.225 187.67-0.96495-0.96495" />
      <path
         id="path3538"
         d="m46.12 186.71v7.7217" />
      <path
         id="path3540"
         d="m46.12 183.81v0.48248" />
      <path
         id="path3542"
         d="m49.015 181.88v12.549" />
      <path
         id="path3544"
         d="m50.947 194.43-1.932-0.96709" />
      <path
         id="path3546"
         d="m52.877 194.43h-1.9299" />
      <path
         id="path3548"
         d="m54.807 193.46-1.9299 0.96709" />
      <path
         id="path3550"
         d="m55.772 191.53-0.96495 1.9299" />
      <path
         id="path3552"
         d="m55.772 189.6v1.9299" />
      <path
         id="path3554"
         d="m54.807 187.67 0.96495 1.9299" />
      <path
         id="path3556"
         d="m52.877 186.71 1.9299 0.96495" />
      <path
         id="path3558"
         d="m50.947 186.71h1.9299" />
      <path
         id="path3560"
         d="m49.015 187.67 1.932-0.96495" />
      <path
         id="path3562"
         d="m59.634 192.5v-5.7897" />
      <path
         id="path3564"
         d="m61.564 194.43-1.9299-1.932" />
      <path
         id="path3566"
         d="m64.459 194.43h-2.8948" />
      <path
         id="path3568"
         d="m66.388 193.46-1.9299 0.96709" />
      <path
         id="path3570"
         d="m66.388 186.71v7.7217" />
      <path
         id="path3572"
         d="m72.663 185.74h-3.8619" />
      <path
         id="path3574"
         d="m70.733 193.46v-11.582" />
      <path
         id="path3576"
         d="m71.698 194.43-0.96495-0.96709" />
      <path
         id="path3578"
         d="m72.663 194.43h-0.96495" />
      <path
         id="path3580"
         d="m79.42 194.43 1.9299-0.96709" />
      <path
         id="path3582"
         d="m77.487 194.43h1.932" />
      <path
         id="path3584"
         d="m75.558 193.46 1.9299 0.96709" />
      <path
         id="path3586"
         d="m74.593 191.53 0.96495 1.9299" />
      <path
         id="path3588"
         d="m74.593 189.6v1.9299" />
      <path
         id="path3590"
         d="m75.558 187.67-0.96495 1.9299" />
      <path
         id="path3592"
         d="m77.487 186.71-1.9299 0.96495" />
      <path
         id="path3594"
         d="m79.42 186.71h-1.932" />
      <path
         id="path3596"
         d="m81.349 187.67-1.9299-0.96495" />
      <path
         id="path3598"
         d="m82.314 190.57h-7.7217" />
      <path
         id="path3600"
         d="m82.314 189.6v0.96495" />
      <path
         id="path3602"
         d="m81.349 187.67 0.96495 1.9299" />
      <path
         id="path3604"
         d="m93.896 193.46h-9.6516" />
      <path
         id="path3606"
         d="m100.17 194.43-3.8598-7.7217" />
      <path
         id="path3608"
         d="m104.03 186.71-3.8619 7.7217" />
      <path
         id="path3610"
         d="m112.72 193.46 0.96495 0.96709" />
      <path
         id="path3612"
         d="m112.72 188.64v4.8247" />
      <path
         id="path3614"
         d="m110.79 186.71 1.9299 1.9299" />
      <path
         id="path3616"
         d="m107.89 186.71h2.897" />
      <path
         id="path3618"
         d="m106.92 187.67 0.96495-0.96495" />
      <path
         id="path3620"
         d="m110.79 194.43 1.9299-0.96709" />
      <path
         id="path3622"
         d="m107.89 194.43h2.897" />
      <path
         id="path3624"
         d="m105.96 193.46 1.9299 0.96709" />
      <path
         id="path3626"
         d="m105.96 192.5v0.96495" />
      <path
         id="path3628"
         d="m107.89 190.57-1.9299 1.9299" />
      <path
         id="path3630"
         d="m112.72 190.57h-4.8269" />
      <path
         id="path3632"
         d="m118.51 181.88v12.549" />
      <path
         id="path3634"
         d="m121.89 192.5v-5.7897" />
      <path
         id="path3636"
         d="m123.82 194.43-1.9299-1.932" />
      <path
         id="path3638"
         d="m126.71 194.43h-2.8948" />
      <path
         id="path3640"
         d="m128.64 193.46-1.932 0.96709" />
      <path
         id="path3642"
         d="m128.64 186.71v7.7217" />
      <path
         id="path3644"
         d="m135.88 194.43 1.9299-0.96709" />
      <path
         id="path3646"
         d="m133.95 194.43h1.9299" />
      <path
         id="path3648"
         d="m132.02 193.46 1.9299 0.96709" />
      <path
         id="path3650"
         d="m131.05 191.53 0.96495 1.9299" />
      <path
         id="path3652"
         d="m131.05 189.6v1.9299" />
      <path
         id="path3654"
         d="m132.02 187.67-0.96495 1.9299" />
      <path
         id="path3656"
         d="m133.95 186.71-1.9299 0.96495" />
      <path
         id="path3658"
         d="m135.88 186.71h-1.9299" />
      <path
         id="path3660"
         d="m137.81 187.67-1.9299-0.96495" />
      <path
         id="path3662"
         d="m138.77 190.57h-7.7196" />
      <path
         id="path3664"
         d="m138.77 189.6v0.96495" />
      <path
         id="path3666"
         d="m137.81 187.67 0.96495 1.9299" />
    </g>
    <path
       id="path6085"
       d="m193.51 55.887c-14.04 7.5122-39.606 22.429-49.031 42.988"
       fill="none"
       marker-end="url(#Arrow1Mend)"
       stroke="#000"
       stroke-width="1.2885" />
    <text
       id="text6087"
       transform="matrix(.99759 .0021316 -.0021214 1.0024 0 0)"
       x="-5.1353517"
       y="55.144699"
       fill="#000000"
       font-family="Courier New"
       font-size="13.125px"
       xml:space="preserve"><tspan
         id="tspan6089"
         x="-5.1353517"
         y="55.144699">graphical representation</tspan><tspan
         id="tspan6097"
         x="-5.1353517"
         y="71.55114">of the text elements</tspan></text>
    <text
       id="text6091"
       transform="matrix(1 .0021265 -.0021265 1 0 0)"
       x="466.52829"
       y="51.307716"
       fill="#000000"
       font-family="Courier New"
       font-size="13.157px"
       xml:space="preserve"><tspan
         id="tspan6093"
         x="466.52829"
         y="51.307716">postscript output</tspan><tspan
         id="tspan6095"
         x="466.52829"
         y="67.753708">of the text</tspan></text>
  </g>
</svg>
