<?xml version="1.0" encoding="UTF-8"?>
<!-- Created with Inkscape (http://www.inkscape.org/) -->
<svg id="svg2" width="600" height="200" version="1.0" xmlns="http://www.w3.org/2000/svg" xmlns:cc="http://creativecommons.org/ns#" xmlns:dc="http://purl.org/dc/elements/1.1/" xmlns:rdf="http://www.w3.org/1999/02/22-rdf-syntax-ns#">
 <defs id="defs4">
  <marker id="Arrow1Mend" overflow="visible" orient="auto">
   <path id="path3406" transform="matrix(-.4 0 0 -.4 -4 0)" d="m0 0 5-5-17.5 5 17.5 5-5-5z" fill-rule="evenodd" stroke="#000" stroke-width="1pt"/>
  </marker>
 </defs>
 <metadata id="metadata7">
  <rdf:RDF>
   <cc:Work rdf:about="">
    <dc:format>image/svg+xml</dc:format>
    <dc:type rdf:resource="http://purl.org/dc/dcmitype/StillImage"/>
   </cc:Work>
  </rdf:RDF>
 </metadata>
 <g id="layer1">
  <rect id="rect3363" x="-9.9626" y="-11.477" width="620.66" height="219.65" fill="#c0c0c0"/>
  <text id="text3175" transform="matrix(.40849 -.91276 .91276 .40849 0 0)" x="-81.490654" y="67.002098" fill="#000000" font-family="Courier New" font-size="13.157px" stroke-width="1px" xml:space="preserve"><tspan id="tspan3177" x="-81.490654" y="67.002098">basic lines</tspan></text>
  <text id="text3199" x="201.45422" y="48.469925" fill="#000000" font-family="Courier New" font-size="15.462px" stroke-width="1px" xml:space="preserve"><tspan id="tspan3209" x="201.45422" y="48.469925"/></text>
  <path id="path2579" d="m-61.032-2.607h58.685v-50.469" fill="none" stroke="#000" stroke-width="3"/>
  <path id="path3357" d="m663.66 204.59h-58.685v50.469" fill="none" stroke="#000" stroke-width="3"/>
  <path id="path3359" d="m661.16-2.1669h-58.685v-50.469" fill="none" stroke="#000" stroke-width="3"/>
  <path id="path3361" d="m0.4498 264.16v-58.685h-50.469" fill="none" stroke="#000" stroke-width="3"/>
  <g id="g2519" transform="translate(-179.43 63.468)">
   <rect id="rect3211" x="268.63" y="45.506" width="139.16" height="74.912" fill="#fff" stroke="#000" stroke-linecap="round" stroke-linejoin="round" stroke-width="1.2885"/>
   <text id="text2501" x="271.61014" y="57.838566" fill="#000000" font-family="Courier New" font-size="12px" stroke-width="1px" xml:space="preserve"><tspan id="tspan2503" x="271.61014" y="57.838566">v 20031231 1</tspan><tspan id="tspan2505" x="271.61014" y="72.838562">F A 29</tspan><tspan id="tspan2507" x="271.61014" y="87.838562">L 0 0 10 26 3 0 0 0 -1 -1</tspan><tspan id="tspan2509" x="271.61014" y="102.83856">L 10 26 20 0 3 0 0 0 -1 -1</tspan><tspan id="tspan2511" x="271.61014" y="117.83856">L 4 10 16 10 3 0 0 0 -1 -1</tspan><tspan id="tspan2513" x="271.61014" y="132.83856"/></text>
  </g>
  <rect id="rect2828" transform="rotate(-90)" x="23.745" y="1139.9" width="0" height="26" fill="#ccc"/>
  <path id="path4186" d="m134.84 67.838c-0.77205 19.775 28.996 2.8193 28.96 37.626" fill="none" marker-end="url(#Arrow1Mend)" stroke="#000" stroke-width="1.2885"/>
  <rect id="rect11071" x="67.543" y="25.108" width="49.902" height="44.74" fill="#feff93"/>
  <text id="text11073" x="127.7695" y="44.036217" fill="#ff0000" font-family="Courier New" font-size="20.649px" stroke-width="1px" xml:space="preserve"><tspan id="tspan11075" x="127.7695" y="44.036217">A</tspan></text>
  <text id="text11077" x="127.7695" y="66.406059" fill="#ff0000" font-family="Courier New" font-size="20.649px" stroke-width="1px" xml:space="preserve"><tspan id="tspan11079" x="127.7695" y="66.406059">A.sym</tspan></text>
  <path id="path11081" d="m67.543 69.848 17.208-44.74" fill="#feff93" fill-rule="evenodd" stroke="#f00" stroke-width="1.7208px"/>
  <path id="path11083" d="m84.751 25.108 17.208 44.74" fill="#feff93" fill-rule="evenodd" stroke="#f00" stroke-width="1.7208px"/>
  <path id="path11085" d="m74.426 52.64h20.649" fill="#feff93" fill-rule="evenodd" stroke="#f00" stroke-width="1.7208px"/>
  <path id="path11087" d="m108.3 128.64c-0.36133-32.294 12.841-64.51 21.831-82.015" fill="none" marker-end="url(#Arrow1Mend)" stroke="#000" stroke-width="1.2885"/>
  <path id="path11089" d="m43.199 74.607c9.8451-11.724-0.19024-25.268 32.381-35.014" fill="none" marker-end="url(#Arrow1Mend)" stroke="#000" stroke-width="1.2885"/>
  <path id="path11091" d="m40.712 78.295c17.478-28.706 25.969 6.0374 40.014-22.92" fill="none" marker-end="url(#Arrow1Mend)" stroke="#000" stroke-width="1.2885"/>
  <path id="path11093" d="m91.658 163.12c-69.607-11.604-80.622-96.755-4.7571-119.75" fill="none" marker-end="url(#Arrow1Mend)" stroke="#000" stroke-width="1.2885"/>
  <path id="path11103" d="m67.242 69.795c0.51461 7.7191 21.099 5.3176 21.099 5.3176l1.0292 6.1753 1.3723-6.1753s22.986 3.6023 26.245-4.4599" fill="none" stroke="#000" stroke-width="1px"/>
  <path id="path11105" d="m113.79 136.87c-47.019 10.076-46.339-16.823-25.685-53.368" fill="none" marker-end="url(#Arrow1Mend)" stroke="#000" stroke-width="1.2885"/>
  <text id="text11107" transform="matrix(.37611 -.92658 .92658 .37611 0 0)" x="-94.891174" y="109.30846" fill="#000000" font-family="Courier New" font-size="12px" stroke-width="1px" xml:space="preserve"><tspan id="tspan11109" x="-94.891174" y="109.30846">char width</tspan></text>
  <text id="text11111" x="143.40433" y="78.371346" fill="#000000" font-family="Courier New" font-size="12px" stroke-width="1px" xml:space="preserve"><tspan id="tspan11113" x="143.40433" y="78.371346">font</tspan><tspan id="tspan11115" x="143.40433" y="93.371346">file</tspan></text>
  <rect id="rect11145" x="498.18" y="91.452" width="64.659" height="57.97" fill="#fea"/>
  <rect id="rect11153" x="440.01" y="91.234" width="57.97" height="57.97" fill="#fd5"/>
  <rect id="rect11206" x="374.64" y="91.234" width="64.659" height="57.97" fill="#fea"/>
  <rect id="rect11223" x="320.24" y="91.212" width="53.511" height="57.97" fill="#fd5"/>
  <path id="path11403" d="m318.96 75.831h269.23" fill="none" stroke="#000080" stroke-width="1px"/>
  <path id="path11405" d="m320.01 113.33h268.68" fill="none" stroke="#000080" stroke-width="1px"/>
  <path id="path11407" d="m298.33 149.87h291.84" fill="none" stroke="#000080" stroke-width="1px"/>
  <path id="path11409" d="m319.66 162.81h270.51" fill="none" stroke="#000080" stroke-width="1px"/>
  <path id="path11411" d="m298.33 91.128h289.86" fill="none" stroke="#000080" stroke-width="1px"/>
  <g id="g11373" transform="translate(-10.759 19.911)" stroke="#000" stroke-width="2.2296px">
   <path id="path11147" d="m508.94 129.51 22.296-57.97" fill="#feff93" fill-rule="evenodd"/>
   <path id="path11149" d="m531.23 71.541 22.296 57.97" fill="#feff93" fill-rule="evenodd"/>
   <path id="path11151" d="m517.86 107.21h26.755" fill="#feff93" fill-rule="evenodd"/>
   <path id="path11155" d="m450.77 129.29h26.755" fill="#feff93" fill-rule="evenodd"/>
   <path id="path11157" d="m477.52 129.29 13.378-8.9184" fill="#feff93" fill-rule="evenodd"/>
   <path id="path11159" d="m490.9 120.37 4.4593-13.378" fill="#feff93" fill-rule="evenodd"/>
   <path id="path11161" d="m495.36 107v-13.378" fill="#feff93" fill-rule="evenodd"/>
   <path id="path11163" d="m495.36 93.618-4.4593-13.378" fill="#feff93" fill-rule="evenodd"/>
   <path id="path11165" d="m490.9 80.241-13.378-8.9184" fill="#feff93" fill-rule="evenodd"/>
   <path id="path11167" d="m477.52 71.322h-26.755" fill="#feff93" fill-rule="evenodd"/>
   <path id="path11169" d="m450.77 71.322v57.97" fill="#feff93" fill-rule="evenodd"/>
   <path id="path11208" d="m425.53 129.29h-40.133" fill="none"/>
   <path id="path11210" d="m385.4 129.29v-57.97" fill="none"/>
   <path id="path11212" d="m385.4 71.322h40.133" fill="none"/>
   <path id="path11214" d="m385.4 98.078h31.215" fill="none"/>
   <path id="path11225" d="m335.46 138.19 4.4593 4.4592" fill="none"/>
   <path id="path11227" d="m339.92 142.65h13.378" fill="none"/>
   <path id="path11229" d="m353.3 142.65 8.9183-4.4592" fill="none"/>
   <path id="path11231" d="m362.22 138.19v-44.592" fill="none"/>
   <path id="path11233" d="m362.22 124.81-8.9183 4.4592" fill="none"/>
   <path id="path11235" d="m353.3 129.27h-8.9183" fill="none"/>
   <path id="path11237" d="m344.38 129.27-8.9187-4.4592" fill="none"/>
   <path id="path11239" d="m335.46 124.81-4.459-8.9184" fill="none"/>
   <path id="path11241" d="m331 115.89v-8.9184" fill="none"/>
   <path id="path11243" d="m331 106.97 4.459-8.9184" fill="none"/>
   <path id="path11245" d="m335.46 98.056 8.9187-4.4592" fill="none"/>
   <path id="path11247" d="m344.38 93.597h8.9183" fill="none"/>
   <path id="path11249" d="m353.3 93.597 8.9183 4.4592" fill="none"/>
  </g>
  <text id="text11413" x="289.24146" y="153.36578" fill="#000080" font-family="Courier New" font-size="12px" stroke-width="1px" style="line-height:125%" xml:space="preserve"><tspan id="tspan11415" x="289.24146" y="153.36578">0</tspan></text>
  <text id="text11417" x="306.02466" y="167.70146" fill="#000080" font-family="Courier New" font-size="12px" stroke-width="1px" style="line-height:125%" xml:space="preserve"><tspan id="tspan11419" x="306.02466" y="167.70146">-6</tspan></text>
  <text id="text11421" x="302.52814" y="117.70147" fill="#000080" font-family="Courier New" font-size="12px" stroke-width="1px" style="line-height:125%" xml:space="preserve"><tspan id="tspan11423" x="302.52814" y="117.70147">16</tspan></text>
  <text id="text11425" x="283.29736" y="95.673477" fill="#000080" font-family="Courier New" font-size="12px" stroke-width="1px" style="line-height:125%" xml:space="preserve"><tspan id="tspan11427" x="283.29736" y="95.673477">26</tspan></text>
  <text id="text11429" x="304.2764" y="79.239922" fill="#000080" font-family="Courier New" font-size="12px" stroke-width="1px" style="line-height:125%" xml:space="preserve"><tspan id="tspan11431" x="304.2764" y="79.239922">32</tspan></text>
 </g>
</svg>
