/* XPM */
static char *gaf_pdf_28x28[] = {
/* columns rows colors chars-per-pixel */
"28 28 214 2 ",
"   c #A44106980495",
".  c #A3E70C3F0B81",
"X  c #B42E083615C0",
"o  c #B2500AFB1D30",
"O  c #A881189C125D",
"+  c #AED91D3118ED",
"@  c #B59013E11882",
"#  c #8DC425DE20B7",
"$  c #95B12376241B",
"%  c #973B2F9F2D08",
"&  c #9C7C39FC3560",
"*  c #9A583AC13EEC",
"=  c #A1502E3D2EDA",
"-  c #AF5227DE34E9",
";  c #A6533F563EB1",
":  c #B2B83BA83D2E",
">  c #C37F0F5A0C2B",
",  c #C0E8134611F3",
"<  c #D52B177A1CB2",
"1  c #D04A228E1DD5",
"2  c #C824244121CF",
"3  c #D25F3C8F3E39",
"4  c #DF70384D382B",
"5  c #E261366B3545",
"6  c #ECB236283ED8",
"7  c #E5AC3BA23EF0",
"8  c #A00B470F3D60",
"9  c #B3BE40E53E85",
"0  c #B87042F23BFF",
"q  c #A85F3729465B",
"w  c #A6FD38CE4478",
"e  c #AD0A3C7A4739",
"r  c #DF0E3BA545D8",
"t  c #E2893B5A4D32",
"y  c #F26D352248BE",
"u  c #93884F615043",
"i  c #8DBE5DCB547A",
"p  c #AE51435B4403",
"a  c #B24C41DA44DF",
"s  c #A9B15834563A",
"d  c #BD4154BC581D",
"f  c #B195651B5D13",
"g  c #BEA95D216973",
"h  c #8B0F6F766F3C",
"j  c #8EC2753D754B",
"k  c #926B75CA757A",
"l  c #928A77757EFA",
"z  c #B69F6AFB6B3A",
"x  c #AEAD73106A38",
"c  c #B1F273BA6A8A",
"v  c #BEF76ACE70B3",
"b  c #B6FA7C8074C1",
"n  c #C88942F74AB6",
"m  c #DC3646ED46C6",
"M  c #D86246C0540F",
"N  c #D8D847725CFD",
"B  c #CCD9508355AC",
"V  c #CB2C56CD5C9D",
"C  c #DA055600570C",
"Z  c #D49E55A2589B",
"A  c #E6F443F4416C",
"S  c #E0CC4D1A50F3",
"D  c #EC1B4DB35372",
"F  c #E5444D4C5B05",
"G  c #EB5E4A255B4C",
"H  c #EBD552ED5A72",
"J  c #F75B5D245FCE",
"K  c #C93454B066A5",
"L  c #E2295BB265ED",
"P  c #EFEF5FCA6271",
"I  c #C33D618C683D",
"U  c #D4156C996E29",
"Y  c #D44966F1793C",
"T  c #CC7C772F7932",
"R  c #D56775DD7341",
"E  c #E3AF620665B7",
"W  c #ECFE64296F7C",
"Q  c #E22A6AE56DE0",
"!  c #E2506A5B7329",
"~  c #E950763F70BB",
"^  c #EE9B7C157A58",
"/  c #F5C8729972C8",
"(  c #BDC97E7E8660",
")  c #E016771184B8",
"_  c #D4FA7EE283BE",
"`  c #DDA37D058078",
"'  c #ECE47C248141",
"]  c #F4537F488F81",
"[  c #9F168DE084EF",
"{  c #96D696E196E0",
"}  c #9C989C819C8C",
"|  c #BEC586E18451",
" . c #AD2197959DBB",
".. c #A1A5A4FE9FF6",
"X. c #B188A0CE90C4",
"o. c #BAEBA29096E9",
"O. c #A6AAAC08A830",
"+. c #AC91ACC6AC3A",
"@. c #BF4AB14EA2B7",
"#. c #B390B404B3C1",
"$. c #BFF1BBEEB2AE",
"%. c #BC72BC4FBBBD",
"&. c #CED683E884BE",
"*. c #D3E588E88877",
"=. c #D313937B92A9",
"-. c #DF929541915F",
";. c #D9FA9799985A",
":. c #D7309EC79BC0",
">. c #E81F812085F5",
",. c #EA7D82DA8787",
"<. c #EDAA88B0837B",
"1. c #ED3A850F8AA2",
"2. c #F079877D84B4",
"3. c #F16E8A288501",
"4. c #F7428FCF8C9C",
"5. c #E1E78CB79040",
"6. c #EB068D3D9281",
"7. c #EAA39BAF9F32",
"8. c #F4C890BF9623",
"9. c #E12AA91193CE",
"0. c #C9AAA4A8A2AA",
"q. c #CF64AC2BA8F8",
"w. c #DB1AA563A866",
"e. c #C120BB40BD67",
"r. c #DAF9BBA9B3E6",
"t. c #DA65C028BFD7",
"y. c #E4D0A36AA454",
"u. c #E580A46BA97C",
"i. c #EF7CA44AADBC",
"p. c #F589A2C3AFAA",
"a. c #E9D0B0BAAED7",
"s. c #E561B2C1B2C6",
"d. c #EA46B164B1C1",
"f. c #E9A9B96BB72A",
"g. c #E2D9B9A0B888",
"h. c #ED0BBC0ABF2A",
"j. c #BDD9C1BBB4BA",
"k. c #E3C2C29BBE55",
"l. c #E560D114BDEE",
"z. c #D01ABF06CA38",
"x. c #DACDB8DCC1E9",
"c. c #BFADC5C9C30C",
"v. c #C6F1C6DBC677",
"b. c #C911C9B8C7AF",
"n. c #CD60CD52CBBE",
"m. c #DDDDC53EC4DC",
"M. c #DB40CB2FC3FD",
"N. c #D122CEE0CD9E",
"B. c #C23CD4FDC86D",
"V. c #CD6ED1FECFC7",
"C. c #D348D144CDD0",
"Z. c #D8C5D2D2CD2D",
"A. c #CE54D4CFD3BD",
"S. c #C352E03ED4E1",
"D. c #CDA8DD9DD659",
"F. c #D46AD3BFD351",
"G. c #DABCD494D439",
"H. c #D2A3D945D6DC",
"J. c #DC3CDA24D718",
"K. c #D661DB6ADB73",
"L. c #DD09DCC1DCB7",
"P. c #E604C608C153",
"I. c #E911C9C7C406",
"U. c #ECB6CCC1CEAB",
"Y. c #F133CDD5C9FC",
"T. c #E6F8D227C5D3",
"R. c #EE22D2B5C994",
"E. c #E2ECD5ECD747",
"W. c #E87FD7A9D43C",
"Q. c #E2DED288DA3B",
"!. c #E7CED915DAB9",
"~. c #EAF2DCEEDEF1",
"^. c #F65ED6BFD6BD",
"/. c #F45FDC16DF8F",
"(. c #CB7BE2C9D7EE",
"). c #DF2FE313DF6F",
"_. c #E091E22DD9DD",
"`. c #DA42DE8FE165",
"'. c #FB02DE47E79D",
"]. c #DE9CE2C0E33A",
"[. c #DE9EED51E782",
"{. c #DE50ED27ECCE",
"}. c #DD71FC22F55B",
"|. c #E4E2E52DE510",
" X c #EC34E570E56A",
".X c #E53CE9E5E648",
"XX c #E905EB6AE75D",
"oX c #EA63E772E874",
"OX c #E637EB98EBF0",
"+X c #EBEBEC09EBE8",
"@X c #F7ACE245E1C7",
"#X c #F3B7E994E58C",
"$X c #F456E2D9EB4B",
"%X c #F934E32EEB1A",
"&X c #F2DBEBDCEEAC",
"*X c #FB74EC54EC8B",
"=X c #E46BF17FE73D",
"-X c #EE21F9C0E7E5",
";X c #E4ECFC76EE8E",
":X c #E7F5EFEAF078",
">X c #ED45ECABF1DB",
",X c #F497EEDBF40F",
"<X c #EE50F276F37F",
"1X c #EC99FEA1F649",
"2X c #EF07F33DF9AE",
"3X c #EEDCF9D5FCD8",
"4X c #F524F52EF605",
"5X c #FA51F480F710",
"6X c #F661F9EFF5C8",
"7X c #F655F6F9FD1E",
"8X c #FB4FF56CFB3E",
"9X c #F640FCEDFC5C",
"0X c #FBA7FBD2FBDE",
"qX c None",
/* pixels */
"qXqXqXqXqX*X~.~.!.E.H.F.F.n.v.e.#.O.n.0XqXqXqXqXqXqXqXqX",
"qXqXqXqX8X].K.K.H.D.F.F.N.n.n.v.%.+...n.0XqXqXqXqXqXqXqX",
"qXqXqXqX9X]..X].|.].].].`.L.L.G.V.v.+.e.L.0XqXqXqXqXqXqX",
"qXqXqXqXR.I.P.P.P.k.m.m.x.t.t.t.M.Z.%.F.N.L.0XqXqXqXqXqX",
"qXqXU.&.^ 1.8.1.,.6.3.^ 3.4.<.' T f.b.[.>XC.`.0XqXqXqXqX",
"qXqX7.J / f.P.h.s.T.l.7.U.x.-./ P =.V.oX4X|.n.L.0XqXqXqX",
"qXqX6.5 7 ;.o.:.=.Y K :.q.o.C A 4 *.K.v.%.#.+.+.|.0XqXqX",
"qXqX5.> < z x - s v g f x a 2 1 @ _ ].F.C.b.%...#.0XqXqX",
"qXqX*.  @ * $ X % i u # & o O + . | OXQ.`.L.C.#.} oXqXqX",
"qXqXw.= a a p 0 : w w 8 p p 9 a = 0.{.`.L.L.F.b.+.|.qXqX",
"qXqX X .l h k j k k k k k j j j [ L.OX).L.L.L.N.#.|.qXqX",
"qXqXqXqX&XL..XoXXXXXXXXXoXoXOX.X-X;X>X'.oX|.`.H.%.|.qXqX",
"qXqXqXqX9XoX<X4X4X4X4X4X4X4X2X3Xy.u.,XOXoX|.|.L.v.|.qXqX",
"qXqXqXqX5XoX4X5X4X4X4X5X4X5X4X>XF t ^.}..XoX|.).n.|.qXqX",
"qXqXqXqX6X.X4X6X6X6X6X6X6X6X9X#XH m Y.4X+X>X X XF.|.qXqX",
"qXqXqXqX4XoX9X0X4X0X0X0X0X0X9X=XH F /.3X4X&XXX XG.oXqXqX",
"qXqXqXqX4XoX9X5X0X0X0X0X0X0X0X6XQ W 6X3X4X,XXX[.D.|.qXqX",
"qXqXqXqX0XoX9X0X0X0X0X0X0X0X0X8XR ! 6X9X,X,X,X$XQ.|.qXqX",
"qXqXqXqX4XoX5X0X0X0X0X0X0X0X0X!.C M i.6X1X1X1X=XH.oXqXqX",
"qXqXqXqX6XoX6X0X0X0X0X0X0X0X0X6.~ 9.N ] p.i.h.@XJ.oXqXqX",
"qXqXqXqX9XoX4X6X0X0X0X0X9X0X^.D E U V n 3 y y ) J.oXqXqX",
"qXqXqXqX5XoX4X4X6X6X8X0X6Xa.E B T 0.$.$.X.b I ( V.oXqXqX",
"qXqXqXqX6X|.4X4X4X4X8X*X` r S @.).:X2X7X&X(.B.Z.G.oXqXqX",
"qXqXqXqX0X|.XX>X<X2X9Xd.t G =.*X4X<X<X:X:X+X%X XS.oXqXqX",
"qXqXqXqX0X|.oX>X&X<X4Xr.d _ ].2X<X>X&X#X X[._.|.F.oXqXqX",
"qXqXqXqX9XL.|.|.oX.XXXJ.e.J.+XoX+XoX|.|.|.].L.!.N.oXqXqX",
"qXqXqXqX0Xn.{ } } } } } ..} } } } } } { } { } { O.>XqXqX",
"qXqXqXqXqXqXqXqXqXqXqXqXqXqXqXqXqXqXqXqXqXqXqXqXqXqXqXqX"
};
