/* XPM */
static char *geda_tools_24x24[] = {
/* columns rows colors chars-per-pixel */
"24 24 184 2 ",
"   c #0DCD3058646C",
".  c #119235576C40",
"X  c #1F1644B67B7C",
"o  c #23BF48397C10",
"O  c #7853799A7690",
"+  c #0B623B6281A9",
"@  c #16E1453287F7",
"#  c #231749EE8227",
"$  c #20544DFD8FE3",
"%  c #2758513587EF",
"&  c #2CCA56258B93",
"*  c #2A5654FE8CCD",
"=  c #305E59C58F35",
"-  c #24C55044911F",
";  c #2743521C91B5",
":  c #2B7157E797D6",
">  c #2B5058319898",
",  c #30185A919812",
"<  c #303D5D699D8D",
"1  c #35C162029B30",
"2  c #326060DD9D16",
"3  c #3606620C9F18",
"4  c #369D6704A549",
"5  c #3AC3676AA5D0",
"6  c #4E896D099692",
"7  c #5C3B75C49757",
"8  c #42836CECA6D5",
"9  c #44F36EEEA8B8",
"0  c #4BC07148A645",
"q  c #42487153AE13",
"w  c #4EE476E7AAB0",
"e  c #42D772B7B33A",
"r  c #476B7507B0B9",
"t  c #46F876D5B54D",
"y  c #471C774FB6B1",
"u  c #48317546B095",
"i  c #486375F6B26A",
"p  c #452B78A7BCF0",
"a  c #4F827E90BAE6",
"s  c #51097ABDB377",
"d  c #51697F61BADF",
"f  c #7FE3852D8A65",
"g  c #5A0E8573BE51",
"h  c #6350868EB3FE",
"j  c #62D689B9BBCD",
"k  c #6D428F4BBB14",
"l  c #54EF861FC51F",
"z  c #5EF389DEC1DF",
"x  c #5C158965C504",
"c  c #5B938B6EC877",
"v  c #621B8B31C18C",
"b  c #67479014C59C",
"n  c #70C99CC9D448",
"m  c #7EE4A42AD411",
"M  c #876488A385B8",
"N  c #88788AC485CA",
"B  c #88E68A9C8707",
"V  c #8A5F8C958722",
"C  c #8D758F618A77",
"Z  c #8FC491418D56",
"A  c #916993508E81",
"S  c #9BF298418AD5",
"D  c #95A197639298",
"F  c #99619B3096C8",
"G  c #99AB9B88977A",
"H  c #9A549BEF97D0",
"J  c #9BDC9DCA995F",
"K  c #9CB79E4D9A16",
"L  c #9CE39E7D9A53",
"P  c #A2A4A02894D5",
"I  c #A141A2CF9EB4",
"U  c #933F9B35A904",
"Y  c #940E9DEEAD1B",
"T  c #96B09F79ACE8",
"R  c #95609F55AE53",
"E  c #97F2A05BAD0C",
"W  c #9962A1CAB00D",
"Q  c #9743A15AB04F",
"!  c #9C35A6BDB5AF",
"~  c #9F39A7ADB461",
"^  c #9F3FA940B6F2",
"/  c #A520A6EFA305",
"(  c #A8A3AA3DA658",
")  c #AC28AD06AAF6",
"_  c #AF6CB0F1AD4C",
"`  c #B246B392B025",
"'  c #A6A8AFD7BBE0",
"]  c #A938B0B9BB7D",
"[  c #ADAEB2EFBB09",
"{  c #AB69B256BC70",
"}  c #B2EFB425B0EA",
"|  c #B482B5C4B28B",
" . c #B80DB965B666",
".. c #B992BADDB7BF",
"X. c #C187C29BBFE3",
"o. c #8650A9B3D697",
"O. c #89A4ACD2D8BE",
"+. c #A76AB23BC05C",
"@. c #AD3EB50CC160",
"#. c #AE5EB735C4FD",
"$. c #B29CB82CC161",
"%. c #B626BC13C418",
"&. c #B5D7BC2BC55F",
"*. c #B572BC1AC66A",
"=. c #C028C016C044",
"-. c #B12EBBBEC925",
";. c #B4B2BE9CC9A6",
":. c #8FF7B3DCE15F",
">. c #BFADC8B6D277",
",. c #BB40C914D6B3",
"<. c #A7A6C495E7E6",
"1. c #A9E5C523E714",
"2. c #A90FC5FEE9F4",
"3. c #C288C3ABC10C",
"4. c #C451C544C2F8",
"5. c #C6F3C80FC5E1",
"6. c #C7ABC87FC641",
"7. c #C965CA6AC7E8",
"8. c #C20FC8AED011",
"9. c #C8F1C93EC879",
"0. c #CBCFCC29C86B",
"q. c #CB27CBFAC9ED",
"w. c #CAE1CA9DCB39",
"e. c #CD3FCE0ACC09",
"r. c #CF50D00ACE1A",
"t. c #CF6ACFB1CEF4",
"y. c #C69FCBF1D2EE",
"u. c #C761CCA2D2AB",
"i. c #C79ACD58D4D7",
"p. c #C958CD65D2BF",
"a. c #C14FCDCADA03",
"s. c #C46FD025DC5B",
"d. c #C146CE9CDDD1",
"f. c #D07AD063D0A2",
"g. c #D187D1C3D13E",
"h. c #D509D593D43D",
"j. c #D680D723D59C",
"k. c #D6C4D792D5B6",
"l. c #D77DD825D5BF",
"z. c #DA11DA7CD96D",
"x. c #DB0ADB6ADA95",
"c. c #DC29DC66DBA3",
"v. c #DC79DD05DBAD",
"b. c #DD55DDABDCD5",
"n. c #DCE0DE06DD97",
"m. c #DDD7DDE0DDC3",
"M. c #DDF4DE73DD17",
"N. c #DE5FDF40DF16",
"B. c #DF8EDFE9DEE2",
"V. c #DFDFDFF6DFB5",
"C. c #C680D411E248",
"Z. c #CA4ED894E763",
"A. c #CEEBDD3EEC1C",
"S. c #DD54DEBBE1D3",
"D. c #D173DF60ED4E",
"F. c #DF60E166E563",
"G. c #E203E1FDE20E",
"H. c #E286E269E2AE",
"J. c #E50BE519E4E8",
"K. c #E734E7AFE67F",
"L. c #E849E848E84B",
"P. c #E88EE720E182",
"I. c #ED09EAD6E594",
"U. c #E8F3E8F4E8F2",
"Y. c #E9C5E9A4E9EF",
"T. c #EC40EC52EC36",
"R. c #ECCCECC5ECD7",
"E. c #ED8AEDA2ED9E",
"W. c #EEBFEED2EEA5",
"Q. c #EF47EF2DEF7E",
"!. c #EF8EEF82EF87",
"~. c #F171F158F1EF",
"^. c #F1CCF24AF390",
"/. c #F2FAF303F2EF",
"(. c #F406F49EF622",
"). c #F539F4F6F599",
"_. c #F7A0F75EF809",
"`. c #F881F823F76B",
"'. c #F918F915F8EF",
"]. c #FBF0FBD4FC27",
"[. c #FD0BFD1DFD80",
"{. c #FF24FF29FF1E",
"}. c #FFF2FFF2FFF1",
"|. c None",
/* pixels */
"|.|.|.|.|.|.|.|.|.|.|.|.|.|.|.|.|.|.|.|.|.|.|.|.",
"|.|.|.|.|.|.|.|.|.|.|.|.|.|.|.|.|.|.|.|.|.|.|.|.",
"|.|.|.|.|.|.|.|.F |.|.|.|.|.|.|.|.|.|.|.|.|.|.|.",
"|.|.|.|.|.|.|.| W.h./ |.|.|.|.|.|.|.|.~ Y |.|.|.",
"|.|.|.|.|.|.|.|.4.).J.L |.|.|.|.|.|.+.A.d.R |.|.",
"|.|.|.|.|.|.|.|.V z.).3.|.|.|.|.|.-.D.Z.C.Q |.|.",
"|.|.|.L D |.|.|.|.B.}.r.|.|.|.|.R s.,.a.^ |.|.|.",
"|.|.|.6.v.C |.|. ./.].X.|.|.|.|.~ >.;.' |.|.|.|.",
"|.|.|.` ].B.q.r.W.U.W.h.N |.|.E 8.] U |.|.|.|.|.",
"|.|.|.|.h.}.}.}.}.].v.~.l.N E p.{ |.|.|.|.|.|.|.",
"|.|.|.|.A 7.K.K.5.B.(.E._.{ i.*.|.|.|.|.|.|.|.|.",
"|.|.|.|.|.|.|.|.|.S J.`.$.i.*.M |.|.|.|.|.|.|.|.",
"|.|.|.|.|.|.|.|.|.|.7 @.p.*.F.q.|.|.|.|.|.|.|.|.",
"|.|.|.|.|.|.|.|., v x 0 #.S.).}.3.|.|.|.|.|.|.|.",
"|.|.|.|.|.|.|.; z c a y 6 I./.T.]. .|.|.|.|.|.|.",
"|.|.|.|.|.|.; g n w 1 i @ P B.W.U./.} |.|.|.|.|.",
"|.|.|.|.|.> b :.h = r : |.|.F B.U.K.W._ |.|.|.|.",
"|.|.|.+ 5 o.2.k & r : |.|.|.|.F z.G.G.S.( |.|.|.",
"|.|.|.s <.1.j % i < |.|.|.|.|.|.J z.g.=.q.F |.|.",
"|.|.$ m O.d * q 3 |.|.|.|.|.|.|.|.Z r.w.g.I |.|.",
"|.|.|.9 l 2 4 e   |.|.|.|.|.|.|.|.|.O ) M |.|.|.",
"|.|.|.. 8 y p # |.|.|.|.|.|.|.|.|.|.|.|.|.|.|.|.",
"|.|.|.|.|.o X |.|.|.|.|.|.|.|.|.|.|.|.|.|.|.|.|.",
"|.|.|.|.|.|.|.|.|.|.|.|.|.|.|.|.|.|.|.|.|.|.|.|."
};
