/* XPM */
static char *gaf_pdf_26x26[] = {
/* columns rows colors chars-per-pixel */
"26 26 202 2 ",
"   c #9F090D821870",
".  c #B13801E90000",
"X  c #B17B0F130CC8",
"o  c #AC3B0D8E1D61",
"O  c #AB3211BC1183",
"+  c #A7D3196F179B",
"@  c #B65316D01170",
"#  c #A19D1787213C",
"$  c #B7351B83248E",
"%  c #9F833533310E",
"&  c #93453F963979",
"*  c #9DF83B8E3C89",
"=  c #A60827362881",
"-  c #BC482F783009",
";  c #A5F838393498",
":  c #A7FD37BF3CA4",
">  c #B42434DA3156",
",  c #BBAB34F231BF",
"<  c #B6D933DA3C75",
"1  c #D9921F8E1AF9",
"2  c #CEFB29A32A30",
"3  c #DF272FF32BEA",
"4  c #D5183E603BD1",
"5  c #A4BF374A45F9",
"6  c #DD5A3A4943F3",
"7  c #DB4E370F4D95",
"8  c #C96D3460527A",
"9  c #E0B7379049DF",
"0  c #E3443CE74928",
"q  c #EC5A3D214C20",
"w  c #9D3D490A4164",
"e  c #8EBE5D325E3F",
"r  c #9412564C50E7",
"t  c #BF4C53F14B9B",
"y  c #8C9462FE5E52",
"u  c #924D60035D84",
"i  c #974268DD5CDE",
"p  c #94315D116212",
"a  c #9C1170347643",
"s  c #A0F668726836",
"d  c #BB0563CE679D",
"f  c #B338745468F4",
"g  c #A4917B957697",
"h  c #DD7543E94B53",
"j  c #CC21454F56DF",
"k  c #CA064B77511A",
"l  c #E01A4B9E5ACC",
"z  c #CFB35451577A",
"x  c #DBF45C9E5D32",
"c  c #E945406F46A4",
"v  c #E08941F8499D",
"b  c #F6844E9B4DA6",
"n  c #E80B50C753A8",
"m  c #F38561C25E6F",
"M  c #CFFB5F4C6579",
"N  c #DB165DF361C1",
"B  c #EBD855D367D8",
"V  c #CA5564AC6824",
"C  c #DE1D6686645D",
"Z  c #D87C63596AC3",
"A  c #D6FF64B87111",
"S  c #D7B06EB2723D",
"D  c #C55072277563",
"F  c #CD7677E37E68",
"G  c #C40C7A617A8B",
"H  c #DB8E75FC77FF",
"J  c #D9747D077A7B",
"K  c #EBBE61F96B2A",
"L  c #F0C360FF6E86",
"P  c #E92E6417728A",
"I  c #F2F66AEF773A",
"U  c #E3D0713C74D1",
"Y  c #EA1570ED7437",
"T  c #E67F76BA7D2F",
"R  c #F39077F27C60",
"E  c #B97C85707C66",
"W  c #C61482D27E10",
"Q  c #DD4D83517CEC",
"!  c #ECA37DFB8359",
"~  c #EB1C7F348AA5",
"^  c #9A599A599A59",
"/  c #BA428AAF8212",
"(  c #BF01A0CF95B8",
")  c #A431A439A44D",
"_  c #A691A97EA7AF",
"`  c #A999AC35A650",
"'  c #A63DA8BBA8C6",
"]  c #AAF0AC7CAB2D",
"[  c #AEE4B11EAFB2",
"{  c #B254B24CA586",
"}  c #B7AFB1F1B00A",
"|  c #BB6DB0CFAF6F",
" . c #B563B563B563",
".. c #BDACBC5EBD9B",
"X. c #CEFE84B780B1",
"o. c #C0A790218748",
"O. c #CF9C9EA59AC0",
"+. c #ED5789E2801F",
"@. c #E7488A3D8F49",
"#. c #F13885698276",
"$. c #EBD994028C51",
"%. c #EC6D930798DF",
"&. c #F05398EF9C93",
"*. c #F29799E3993D",
"=. c #D7F4A11B9C9A",
"-. c #F6779DECA782",
";. c #C09DA9A4A7BB",
":. c #DC47A44AA206",
">. c #D0ACABE2A96D",
",. c #D86BADC9ABC9",
"<. c #CD15B263AE65",
"1. c #D195B11DAEB2",
"2. c #C667B156B639",
"3. c #C0FEBC17BEF7",
"4. c #CDADBF7FBD84",
"5. c #DFCEB248B1F4",
"6. c #D908BC2BB6D8",
"7. c #DAEBBB03B94A",
"8. c #E2A0A597A588",
"9. c #F017A63BA414",
"0. c #E54FA987A739",
"q. c #ED0FA239AB6B",
"w. c #E532AB95AB97",
"e. c #F2F0A278A543",
"r. c #FB17A567AAF1",
"t. c #F8BAA8EEA86E",
"y. c #EBAFB303AEF8",
"u. c #F402B493A5F9",
"i. c #E46BB75CB958",
"p. c #BC75C150BD9B",
"a. c #D67BC2C8BCD0",
"s. c #DC06C3BCBE1E",
"d. c #E523C6C3BED3",
"f. c #CF6BBFD6CB23",
"g. c #DFD9BDFBC2E6",
"h. c #C472C4D1C455",
"j. c #CA29C4DFC4B5",
"k. c #C5F5C9F5C0AC",
"l. c #CBC9CC44CBA9",
"z. c #DD5EC156C511",
"x. c #DA3EC762CC5A",
"c. c #D32BCCE8CC30",
"v. c #D8EBCD58C978",
"b. c #CFFDD1CECDC5",
"n. c #D653D127CF37",
"m. c #D249CFD6D059",
"M. c #CCA5D5E6D439",
"N. c #D37AD4D7D411",
"B. c #DAD1D63ED52C",
"V. c #D6A3D917D579",
"C. c #D9FCDB19D5E9",
"Z. c #D647DD0ADC1E",
"A. c #DD26DD19DCD0",
"S. c #EC77C9ADC280",
"D. c #ED25C762CACF",
"F. c #E301D610D75A",
"G. c #EC88D666D745",
"H. c #E640D65EDE29",
"J. c #E75EDB33DC52",
"K. c #E8EDDCB6DDD5",
"L. c #F62DD88CD9A6",
"P. c #D030E093DA40",
"I. c #D630E206DBD4",
"U. c #DE03E17FDCF0",
"Y. c #E241E2A5DD04",
"T. c #E2A4DEF1E0B0",
"R. c #EF8EDD42E2CC",
"E. c #D7ADE23DE3C6",
"W. c #DE05E463E42D",
"Q. c #DFDBEA6FEA3B",
"!. c #DC9FF3CCEF17",
"~. c #E381E4B8E3DB",
"^. c #EC7AE5C9E56F",
"/. c #E4C7EB66E63A",
"(. c #EA49EB37E51B",
"). c #E2E8E673EB5F",
"_. c #EF90E3FFEC78",
"`. c #E7F9EB07EB34",
"'. c #EDCBED74ED68",
"]. c #F3C3E438E475",
"[. c #F2B7E7ECECC9",
"{. c #F44EEBDCEC13",
"}. c #F880EEA7EC42",
"|. c #E2CAF6E5E273",
" X c #EDBCF427EFCF",
".X c #F7B0F644EDFB",
"XX c #EF1AED20F122",
"oX c #F367EEEEF458",
"OX c #E19EF85BF12D",
"+X c #EDA2F38CF20C",
"@X c #EBD5F993F2C5",
"#X c #EF80F579FBDF",
"$X c #EF5AFFFFFFFF",
"%X c #F46EF3D6F4D0",
"&X c #FA64F3BCF34E",
"*X c #F670FA10F62D",
"=X c #FE27F8AEF80B",
"-X c #F675F595F981",
";X c #FB9BF3CFFC15",
":X c #F587FB34FBCF",
">X c #FC1FFC63FC6B",
",X c None",
/* pixels */
",X,X,X,X=X].J.J.F.V.N.N.l.h.3.[ ` U.>X,X,X,X,X,X,X,X",
",X,X,X,XoXZ.Z.Z.M.n.n.m.c.l.f..._ ` ~.>X,X,X,X,X,X,X",
",X,X,X,X+X/./.~./.Q.W.W.E.E.Z.N...} j.).>X,X,X,X,X,X",
",X,X,X=.y.0.0.w.8.8.w.:.:.8.:.6.v.h.~.l.'.>X,X,X,X,X",
",X,Xw.Y ! e.r.@.9.u.#.*.t.$.R S 7.M.:X'.M./.>X,X,X,X",
",X,X! b Y s.<.7.5.O.w.g.2.H m n >.m.A.N.h.f.'.>X,X,X",
",X,XU 1 6 ( X.d F 8 X.o.E 4 3 2 ,.Z.h. .[ )  .>X,X,X",
",X>XV . $ r   # i s & w o X @ O 1.~.A.A.N. .^ T.,X,X",
",X,XD + < : , - * 5 % ; < > > = 4.).A.A.V.l.' N.,X,X",
",X,Xz.a p e y u p p y e e p e g T.W.U.W.A.N. .B.,X,X",
",X,X,X,Xm.m.V.V.V.V.C.V.V.V.N.|.OX_.R.~.T.A...B.,X,X",
",X,X,X,X+XXX*X>X*X-X*X-X:X:X%Xw.D.oX'.~.~.A.l.Z.,X,X",
",X,X,X,X'.[.%X%X%X%X%X&X%X:XR.9 P +X!.'.~.~.N.A.,X,X",
",X,X,X,X X'.*X*X*X*X>X*X*X:XG.c C {.oX'.[.^.B.A.,X,X",
",X,X,X,X'.'.>X-X=X>X>X>X>X>XY.q T =X#XoX'.(.C.Y.,X,X",
",X,X,X,X'.'.:X>X=X>X>X>X>X>X}.x %.$X;X%XXX`.Z.W.,X,X",
",X,X,X,X'.'.>X>X>X>X>X>X>X>X].z @.>X*X X X[.H.T.,X,X",
",X,X,X,X'.'.>X>X>X>X>X>X>X>Xw.x Z q..X X X@XI.~.,X,X",
",X,X,X,X'.'.>X>X>X>X>X>X>X=XK +.Q 7 B L I -.G.W.,X,X",
",X,X,X,X'.'.-X*X>X;X>X:X&X%.h M G E f t 0 j 4.~.,X,X",
",X,X,X,X'.'.*X%X*X;X>XS.N h / a.A.Q.~.k.{ ;.x.~.,X,X",
",X,X,X,X'.~.oXoXoX$XL.l q J ^.-X#X#X#X+X`.^.P.W.,X,X",
",X,X,X,X'.W.'.'.'.*Xd.k A n.&XoX'.[.(./.^.R.V.U.,X,X",
",X,X,X,X'.A.'.'.oX{.~.| n.+X X'.'.'._.~.~.~.V.T.,X,X",
",X,X,X,XoX .) ) ) _ ) ] ' ) ' ' ) ) ) ) ) ) ) ~.,X,X",
",X,X,X,X,X,X,X,X,X,X,X,X,X,X,X,X,X,X,X,X,X,X,X,X,X,X"
};
