/* XPM */
static char *gaf_pdf_24x24[] = {
/* columns rows colors chars-per-pixel */
"24 24 167 2 ",
"   c #B1560D7E0CD0",
".  c #BC9315641CFF",
"X  c #B12A1EBE1BA5",
"o  c #B0E723821E50",
"O  c #B4471CD629AA",
"+  c #9ED533C12D7E",
"@  c #97A73235317A",
"#  c #9BFD3A25358F",
"$  c #AB591FF72D69",
"%  c #A1612C352CA2",
"&  c #BD562F012EDA",
"*  c #A92331003112",
"=  c #AB1A313F39D9",
"-  c #C96307AE06D0",
";  c #C6F4186B137D",
":  c #C34F1D921B77",
">  c #DD942CA23F91",
",  c #EA13364C34E0",
"<  c #E4F6338B3961",
"1  c #CFA73EDE4710",
"2  c #E3DE355E42E7",
"3  c #EA8134A44357",
"4  c #ED9D39F34515",
"5  c #932645D247BD",
"6  c #9A29427B4EFA",
"7  c #92D14E324BE7",
"8  c #9C754BFD4D15",
"9  c #9C9550B74A48",
"0  c #977B4E134FF4",
"q  c #9A2D4A6F5273",
"w  c #998D50A55444",
"e  c #B1D441DC4433",
"r  c #B6DD46664862",
"t  c #BAE84B8F506C",
"y  c #B0075DF25CCF",
"u  c #A9D6652B5DA7",
"i  c #B8965DC768CB",
"p  c #A7266E2F65F4",
"a  c #BDA568AC6E53",
"s  c #AFE57214711C",
"d  c #CA14422B4CD7",
"f  c #CC8E4B364D66",
"g  c #D34A40B4455B",
"h  c #DB8E4D7B4F44",
"j  c #D4F04A5C52AE",
"k  c #DECC4ECA5E75",
"l  c #DD7254565B89",
"z  c #D97859475A62",
"x  c #EB4745CE4216",
"c  c #EACD495B513B",
"v  c #EDCB463959B3",
"b  c #CC0D5C826FAB",
"n  c #C68B604360FB",
"m  c #CE80649A66E6",
"M  c #DA0163A66354",
"N  c #D990663F6F2A",
"B  c #DD966C326FBE",
"V  c #DFC477097500",
"C  c #E68562DA671B",
"Z  c #F74068906BA7",
"A  c #F88470297221",
"S  c #BA0983A47B59",
"D  c #E32985E17766",
"F  c #993699369936",
"G  c #BEBDA2239FC6",
"H  c #BB07AB649D9D",
"J  c #A4A2A71AA54F",
"K  c #AC28AC84AC7A",
"L  c #BDFBA910A370",
"P  c #ACDEB25EB251",
"I  c #B22DB254B1F4",
"U  c #B900B55BB3D0",
"Y  c #BA00BAF0B596",
"T  c #BD89B6F6BE46",
"R  c #BCFBBC8BBB64",
"E  c #DEFB821C856F",
"W  c #DD428DC18D86",
"Q  c #CCAC940A9405",
"!  c #C8319484981E",
"~  c #D80F91379267",
"^  c #D31D9F1B9EAB",
"/  c #D8DC9D329FA7",
"(  c #E5BC82C188E6",
")  c #E5B491D08E10",
"_  c #F1C28DC19B38",
"`  c #E7839367930C",
"'  c #E981948993D6",
"]  c #EAF297C2990A",
"[  c #EBE7983B9945",
"{  c #EEFEA2B89AD5",
"}  c #EE439582A089",
"|  c #F0E99926A1F1",
" . c #C7FDA5D8AA79",
".. c #D3D2ADB1ABB8",
"X. c #DA07AEE4ABF4",
"o. c #C3C3B4F3A87D",
"O. c #C80BBA4BB527",
"+. c #C1F9BDC8BC9C",
"@. c #D42FB7C9BA4A",
"#. c #EBD1A816AC98",
"$. c #EBFDAA42ABAF",
"%. c #E170ACDFB31B",
"&. c #E73FBA55B4A1",
"*. c #E125BDE3BAE3",
"=. c #ED1EBAC1BD50",
"-. c #C1BDC075BBD5",
";. c #C5A7C87CBE9C",
":. c #DAA7C181BD86",
">. c #EAC2CD9FBC45",
",. c #C4ABC4ECC462",
"<. c #CF27C383C06B",
"1. c #CEBBC28ECD0D",
"2. c #CD93CDDFCD77",
"3. c #D50DC72CC4DC",
"4. c #D3EAC899C643",
"5. c #D2D3CD90CDE7",
"6. c #DE2BCFDDCF87",
"7. c #D5B1D633CA66",
"8. c #D47DD51DD45E",
"9. c #D95CD4ADD3CF",
"0. c #D566D944D54B",
"q. c #D87CDA4BD5D2",
"w. c #D798D78ADC02",
"e. c #D4E4DD36DB3F",
"r. c #DCF5DD28DC8B",
"t. c #EE16C26CC3C1",
"y. c #EAB2CAC3C749",
"u. c #EF4DC70FC977",
"i. c #ED91C927D003",
"p. c #F7D9C7BACC7B",
"a. c #F4A1CC13CB9A",
"s. c #E513D143C954",
"d. c #ED2ADBFCD64A",
"f. c #E277D793D885",
"g. c #E57EDC34DD19",
"h. c #F445DF34DD46",
"j. c #DC0CE358DA12",
"k. c #D8E0EE0EDBD6",
"l. c #E64EE41ADEFB",
"z. c #D72FDF32E0B6",
"x. c #E44FDF70E438",
"c. c #F75EDFCDE82F",
"v. c #DC9CE384E2A9",
"b. c #D585EA35E313",
"n. c #E4C9E54AE4FA",
"m. c #ED2EE412E654",
"M. c #E56DEDC8E802",
"N. c #EC6AEA6DE5F7",
"B. c #E491EB3BE9AC",
"V. c #EC50EBCAEB57",
"C. c #F37EEE01EE37",
"Z. c #ED5CEE20F2A2",
"A. c #F2DFEE24F31E",
"S. c #F9CEED20F606",
"D. c #E415F0F9F1F2",
"F. c #EEE0F48BF3AE",
"G. c #ED65FE3AF725",
"H. c #ED6AF706FCAB",
"J. c #E42CFFFFF905",
"K. c #F4F3F420F486",
"L. c #FD8CF601F6CA",
"P. c #F6F9F9FAF624",
"I. c #F5B0F72BFBD2",
"U. c #FD22F5A3FA09",
"Y. c #F62EFD97FDA4",
"T. c #FBB2FBFEFC4C",
"R. c None",
/* pixels */
"R.R.R.R.A.g.g.f.9.8.5.2.,.+.K I V.R.R.R.R.R.R.R.",
"R.R.R.T.B.e.j.e.8.8.9.5.5.1.R J Y K.R.R.R.R.R.R.",
"R.R.R.R.N.l.n.l.n.v.z.z.e.q.0.Y +.2.K.R.R.R.R.R.",
"R.R.*.W ] ] ` ` ` ` ` ` ' ~ ..4.0.B.2.K.R.R.R.R.",
"R.R.( Z [ t.#.$.>.{ $.=.) A B :.v.T.j.2.K.R.R.R.",
"R.R.C , E o.^ / b ~ ..L z x h 4.2.,.T K ,.T.R.R.",
"R.L.f - t p $ y i y u e : ; & 6.w.5.2.U F r.R.R.",
"R.R.r   = % : # w @ + O o X * 0.x.e.w.2.K ,.R.R.",
"R.R.! w q 9 9 8 6 7 7 0 8 5 s n.v.r.r.8.R 2.R.R.",
"R.R.R.T U R +.-.-.+.+.-.+.,.k.D.c.n.v.r.,.2.R.R.",
"R.R.R.R.Z.P.T.T.Y.P.T.P.Y.A.&.m.A.n.n.n.2.8.R.R.",
"R.R.R.R.V.Z.K.A.A.P.K.S.Y.i.> | J.B.n.n.w.8.R.R.",
"R.R.R.R.V.K.P.P.P.P.P.P.Y.t.< ` I.Z.C.m.g.r.R.R.",
"R.R.R.R.V.K.T.P.T.T.T.T.Y.s.3 $.Y.F.C.M.j.r.R.R.",
"R.R.R.R.V.K.T.T.T.T.T.T.T.h.l a.Y.S.A.V.n.q.R.R.",
"R.R.R.R.V.P.T.T.T.T.T.T.T.y.1 } T.G.G.K.x.r.R.R.",
"R.R.R.R.V.K.T.T.T.T.T.T.T.( D N _ p.y.h.n.j.R.R.",
"R.R.R.R.V.K.K.T.T.T.T.T.a.c V m d g 4 v %.v.R.R.",
"R.R.R.R.V.K.P.P.U.T.P.$.l n Q O.,.L S a  .n.R.R.",
"R.R.R.R.n.V.K.K.P.S.E 2 M 7.F.H.Y.A.b.e.q.r.R.R.",
"R.R.R.R.n.n.Z.C.I.d.j k :.L.A.Z.V.M.V.c.r.z.R.R.",
"R.R.R.R.n.V.F.K.K.N.G @.F.F.K.A.C.V.M.n.g.q.R.R.",
"R.R.R.R.r.K K I I P P P I I I K K K K K J 8.R.R.",
"R.R.R.R.R.R.R.R.R.R.R.R.R.R.R.R.R.R.R.R.R.R.R.R."
};
