/* XPM */
static char *geda_tools_32x32[] = {
/* columns rows colors chars-per-pixel */
"32 32 141 2 ",
"   c #11FF12F51136",
".  c #015B19063CC8",
"X  c #036825E75B02",
"o  c #0AB92AC95A6B",
"O  c #07F02C3E6257",
"+  c #14D83BFC757F",
"@  c #176A40037B47",
"#  c #2F4B4D647691",
"$  c #4FCB51294E17",
"%  c #595F5AFC56F0",
"&  c #698E6B13677A",
"*  c #7A507C3A77AD",
"=  c #7C607EA37914",
"-  c #7F0A816B7BF2",
";  c #816583F07E21",
":  c #0DD03C158188",
">  c #134141908627",
",  c #1A5F462786EE",
"<  c #188B46128A1B",
"1  c #1E274CA78F28",
"2  c #1DE54D6D92B3",
"3  c #2AEA54188C1B",
"4  c #34BF5BA48DDC",
"5  c #37EF5D6C8DE9",
"6  c #2518532094A3",
"7  c #2B2155FB933E",
"8  c #2E13598A9249",
"9  c #2CEB5E699EE7",
"0  c #31DF5CBB948D",
"q  c #37F55FCD939B",
"w  c #32D65EC79CB5",
"e  c #34CA61189AA6",
"r  c #3A4064C1A001",
"t  c #36B364D6A324",
"y  c #38E8654CA2FB",
"u  c #3D076943A678",
"i  c #3C776CDEAB96",
"p  c #40F06B29A62C",
"a  c #445F6EF7AA1C",
"s  c #46AB70F3AB8B",
"d  c #4E0F7761B029",
"f  c #435773A7B33B",
"g  c #4DF87C17B7AF",
"h  c #4D9E7DB5BC50",
"j  c #52737D81B6E2",
"k  c #52387F77B9FD",
"l  c #69467FA2A0EB",
"z  c #47D27CF8C0E6",
"x  c #4F8A805DBF9C",
"c  c #54258161BBD4",
"v  c #702586DDA8E3",
"b  c #4E1880FCC2E7",
"n  c #5B9987DBC106",
"m  c #61CA8D01C455",
"M  c #5FFB8E4FC974",
"N  c #680E9027C625",
"B  c #655B911CC9BA",
"V  c #6B13949DCA57",
"C  c #6D0098B3CF93",
"Z  c #79539D6FCB77",
"A  c #6F309A78D0CE",
"S  c #72CA9CB3D1DC",
"D  c #7CD4A264D27D",
"F  c #833B863C8406",
"G  c #860A887082E4",
"H  c #8A4E8BF78671",
"J  c #8C828E968990",
"K  c #915A93378E8D",
"L  c #85118DE59D0B",
"P  c #896590009A8B",
"I  c #873390419F5E",
"U  c #954296F392BE",
"Y  c #973399069460",
"T  c #99319B1296A3",
"R  c #9BD69D8D9953",
"E  c #9E7FA0699BF5",
"W  c #A25EA4119FDE",
"Q  c #8C0794F3A3B3",
"!  c #911A9A0EA797",
"~  c #94AC9D55AB3E",
"^  c #9647A049AF5B",
"/  c #9BAEA4CAB22A",
"(  c #A46FA59FA2E9",
")  c #A7B0A938A56C",
"_  c #A945AAEBA705",
"`  c #AC9CAE0EAAB7",
"'  c #A4DFABC1B6D1",
"]  c #A5F7AF3ABC35",
"[  c #A665B0B2BE6A",
"{  c #ABA7B1F2BC5F",
"}  c #B382B4DEB19C",
"|  c #BA5DBA7AB52C",
" . c #B726B9DAB8D1",
".. c #BCA1BD71BB3F",
"X. c #BF40C0A0BDA2",
"o. c #C0F2C1C2BFAE",
"O. c #8CD3AD42D690",
"+. c #806AA76ED891",
"@. c #86F7AB9AD9AA",
"#. c #94A1B48ADDD5",
"$. c #9B34B8CBDD5B",
"%. c #ADB6B653C201",
"&. c #B069B693C1BD",
"*. c #B7BABE1CC738",
"=. c #B1C5BDD3CB39",
"-. c #9696B845E151",
";. c #BDBCC380CB7B",
":. c #BD8BC9BCD631",
">. c #ABCBC5C5E61D",
",. c #B21ECBADEA97",
"<. c #C525C5EAC3F0",
"1. c #CAF7CB85C7CB",
"2. c #C147C7C8CF08",
"3. c #C3C5C934D01D",
"4. c #CE5DCE34CE8E",
"5. c #D07CD0E7CFC4",
"6. c #C4B5CAC9D268",
"7. c #C2BDCF76DC81",
"8. c #CE3DD306D837",
"9. c #C6CBD261DF02",
"0. c #CFF1D4E9DA59",
"q. c #D5D4D62BD586",
"w. c #D7E1D86CD6D5",
"e. c #D2A5D7A2DCF1",
"r. c #D464D8F3DE23",
"t. c #DD58DDCEDCD1",
"y. c #C6C4D4A1E363",
"u. c #C9DED7F3E6C2",
"i. c #CD43DA05E650",
"p. c #D0C6DF11EDA8",
"a. c #DF4CE104E2E8",
"s. c #D242E0C1EF56",
"d. c #D3DFE2B3F1C8",
"f. c #E4A6E4C5E4C8",
"g. c #EC2CEC4EEC6B",
"h. c #F074F049F0B0",
"j. c #F42AF420F429",
"k. c #F993F905F802",
"l. c #F840F835F8BD",
"z. c #FD82FD76FD8C",
"x. c None",
/* pixels */
"x.x.x.x.x.x.x.x.x.x.x.x.x.x.x.x.x.x.x.x.x.x.x.x.x.x.x.x.x.x.x.x.",
"x.x.x.x.x.x.x.x.x.x.x.x.x.x.x.x.x.x.x.x.x.x.x.x.x.x.x.x.x.x.x.x.",
"x.x.x.x.x.x.x.x.x.x.x.x.x.x.x.x.x.x.x.x.x.x.x.x.x.x.x.x.x.x.x.x.",
"x.x.x.x.x.x.x.x.x.x.U Y G x.x.x.x.x.x.x.x.x.x.x.x.x.x.x.x.x.x.x.",
"x.x.x.x.x.x.x.x.x.Y g.g.w.` ; x.x.x.x.x.x.x.x.x.x.L ^ L x.x.x.x.",
"x.x.x.x.x.x.x.x.x.x.` h.h.j.} x.x.x.x.x.x.x.x.x.I =.p.%.L x.x.x.",
"x.x.x.x.x.x.x.x.x.x.x._ g.g.g.R x.x.x.x.x.x.x.Q :.s.u.d.] x.x.x.",
"x.x.x.x.x.x.x.x.x.x.x.; w.g.j.} x.x.x.x.x.x.~ 9.s.y.u.:.~ x.x.x.",
"x.x.x.x.x.H x.x.x.x.x.= w.j.z.<.x.x.x.x.x.x.%.i.:.:.7./ x.x.x.x.",
"x.x.x.x.` f.K x.x.x.x.T j.z.z...x.x.x.x.x.x.[ 6.=.:.[ x.x.x.x.x.",
"x.x.x.x.` z.t.R J x.R f.g.f.h._ x.x.x.x.x.~ 3.;.%.[ Q x.x.x.x.x.",
"x.x.x.x.Y g.j.h.a.w.h.h.g.g.h.t.J x.x.x.~ 2.3.^ L x.x.x.x.x.x.x.",
"x.x.x.x.x.X.z.z.z.z.z.l.z.f.w.k.t.H x.~ 3.6.^ x.x.x.x.x.x.x.x.x.",
"x.x.x.x.x.G <.z.z.z.z.j.z.f.g.f.z.q.P 6.0./ x.x.x.x.x.x.x.x.x.x.",
"x.x.x.x.x.x.x.W o.<.| K ` z.g.k.g.&.3.0./ x.x.x.x.x.x.x.x.x.x.x.",
"x.x.x.x.x.x.x.x.x.x.x.x.x.| z.g.{ ;.e.' F x.x.x.x.x.x.x.x.x.x.x.",
"x.x.x.x.x.x.x.x.x.x.x.x.x.# / ;.*.e.' g.1.* x.x.x.x.x.x.x.x.x.x.",
"x.x.x.x.x.x.x.x.x.x.x.> a N w v a.' a.z.z.<.x.x.x.x.x.x.x.x.x.x.",
"x.x.x.x.x.x.x.x.x.x.x.d A M V u l g.j.h.h.z.| x.x.x.x.x.x.x.x.x.",
"x.x.x.x.x.x.x.x.x.x.a A x h f c 3  .z.g.h.g.z.} x.x.x.x.x.x.x.x.",
"x.x.x.x.x.x.x.x.x.p C M m q y g 2 x...j.g.g.g.k.` x.x.x.x.x.x.x.",
"x.x.x.x.x.x.x.: s S D Z 4 0 c w x.x.x...h.f.f.g.h._ x.x.x.x.x.x.",
"x.x.x.x.x.x.< j +.#.O.4 8 c w x.x.x.x.* ..h.a.a.f.g.W x.x.x.x.x.",
"x.x.x.x.: 6 V -.>.O.4 8 k w x.x.x.x.x.x.- ..g.t.t.f.f.E x.x.x.x.",
"x.x.x.x.y @.>.>.D 0 3 h y x.x.x.x.x.x.x.x.; ..f.q...<.5.K x.x.x.",
"x.x.x.1 D ,.$.B e 3 f s : x.x.x.x.x.x.x.x.x.; <.q...*.4.) x.x.x.",
"x.x.x., V C h i 4 t h + x.x.x.x.x.x.x.x.x.x.x.% <.q.4.q.J x.x.x.",
"x.x.x.x.w B f e 9 b 7 x.x.x.x.x.x.x.x.x.x.x.x.x.$ U ( & x.x.x.x.",
"x.x.x.x.X r c f h f o x.x.x.x.x.x.x.x.x.x.x.x.x.x.x.  x.x.x.x.x.",
"x.x.x.x.x.O 3 p t @ x.x.x.x.x.x.x.x.x.x.x.x.x.x.x.x.x.x.x.x.x.x.",
"x.x.x.x.x.x.x.. x.x.x.x.x.x.x.x.x.x.x.x.x.x.x.x.x.x.x.x.x.x.x.x.",
"x.x.x.x.x.x.x.x.x.x.x.x.x.x.x.x.x.x.x.x.x.x.x.x.x.x.x.x.x.x.x.x."
};
