/* XPM */
static char *gaf_pdf_22x22[] = {
/* columns rows colors chars-per-pixel */
"22 22 160 2 ",
"   c #B2240E4E0A80",
".  c #BA020D591127",
"X  c #A84C146B1CE7",
"o  c #B466163612B0",
"O  c #B0631B4626D8",
"+  c #9BE72F38301B",
"@  c #9A8F3CA53422",
"#  c #97BB3DD13826",
"$  c #982439C73ED0",
"%  c #A3AC25322849",
"&  c #B54827622634",
"*  c #A4FB39263B56",
"=  c #A87B3F523C68",
"-  c #D952255321CA",
";  c #DD2E262F29EE",
":  c #D35F390237D9",
">  c #E19533DD38A4",
",  c #9D5E393741EA",
"<  c #A31B3C954112",
"1  c #DDAA35CA45C5",
"2  c #D8C83F913FD5",
"3  c #E3373762494A",
"4  c #9DC7463A46E7",
"5  c #9BEE4851488E",
"6  c #B5C8515F4FF4",
"7  c #9AC066896023",
"8  c #B52161E8643E",
"9  c #B79775F06DFF",
"0  c #BC1C749375AE",
"q  c #B7647F4477F0",
"w  c #BBA87C2977F2",
"e  c #DA2746F74D49",
"r  c #C31454924DF7",
"t  c #D5C34C445104",
"y  c #D8BB4C575BBE",
"u  c #D05E5D185D1C",
"i  c #DC4A588D5F5C",
"p  c #E9C140EF4E0A",
"a  c #E07F56265C65",
"s  c #F7465D435D1E",
"d  c #C85F5B276C48",
"f  c #DF175DE9671B",
"g  c #C98161A66CA7",
"h  c #CCBB73DA7B04",
"j  c #DAAE73847596",
"k  c #EC7265D36B0C",
"l  c #F30364C4666B",
"z  c #ED886843791F",
"x  c #E0F57E1F7EDD",
"c  c #EA4D7EFB81A1",
"v  c #9F9C9F9D9F9D",
"b  c #BFF7860E8230",
"n  c #A6FF96419C10",
"m  c #A9529B4E9918",
"M  c #AE2BA1319E7C",
"N  c #B0E3A04D9EA4",
"B  c #AF069D53A09F",
"V  c #A469A6D4A234",
"C  c #AD2DA521A13B",
"Z  c #A773AA00A827",
"A  c #AC42AC36AC3D",
"S  c #AF7AB07AB048",
"D  c #B4A4B649B675",
"F  c #BA8FBF91B498",
"G  c #B760B7B9B84A",
"H  c #B5F3BAE6BAE9",
"J  c #BC44BB55BB81",
"K  c #C20C8D748876",
"L  c #C276922488AD",
"P  c #C77C95EB9317",
"I  c #D25D9AFEA01F",
"U  c #DF679BFC9BC4",
"Y  c #EB5385E08BEA",
"T  c #E73B8A6D8DAB",
"R  c #EDE78A058961",
"E  c #F31C805F8B36",
"W  c #E4B992AA83DA",
"Q  c #EE7A90F88CB1",
"!  c #F4598E74972E",
"~  c #EE4694689702",
"^  c #EDFB9F909BEB",
"/  c #F2D498C896EA",
"(  c #F27797A09B90",
")  c #DBA8A4E3A3F1",
"_  c #DBD1A9D7A5E7",
"`  c #C706B090A693",
"'  c #DE03B2EEAE25",
"]  c #CF26BEE8BF65",
"[  c #DCD3BC0BB9DC",
"{  c #E0E6A156A160",
"}  c #E326A969A1EC",
"|  c #EE32A628AE78",
" . c #ECE7A8EEAB46",
".. c #E538B545B52E",
"X. c #E8DFB296B5EF",
"o. c #E727B864B40C",
"O. c #EABEB059B8E3",
"+. c #C042C2E4BE3C",
"@. c #EE0DC11BC001",
"#. c #CAEDBFDBC58B",
"$. c #D600BEE9C269",
"%. c #C4FCC490C493",
"&. c #CED8C7B7D037",
"*. c #CCEECC50CB63",
"=. c #D7EDCEAFCC24",
"-. c #D9ADCD50CD5B",
";. c #CDBED1E7CE6B",
":. c #D2EAD3D4CF67",
">. c #CEFCD7D3D0FC",
",. c #D049DF74D918",
"<. c #D491D472D450",
"1. c #DC22D4E8D55A",
"2. c #D79DDD47D7DB",
"3. c #D66DDAA7D9FD",
"4. c #DCD6DC35DC37",
"5. c #EF92C74BC55A",
"6. c #EFE4CA06C6E3",
"7. c #E311CF9BCD25",
"8. c #F2A1C704C99D",
"9. c #F231CD2BCF5E",
"0. c #E861D063C817",
"q. c #E6AFD447CF47",
"w. c #F139CF81D15D",
"e. c #E773D574D07E",
"r. c #F044D6A9D726",
"t. c #E2CCDAACDB28",
"y. c #F6B0D6D1D853",
"u. c #F172DABCDCCD",
"i. c #D5CEE271D6C1",
"p. c #D6DDE0B4DF66",
"a. c #DA8CE078DE8E",
"s. c #E802E158E03E",
"d. c #EF12E64ADE3E",
"f. c #DAB9E3F5E2DA",
"g. c #E00DE929E0D2",
"h. c #DF3DFB91F572",
"j. c #E3D3E425E3AA",
"k. c #EADAE41BE585",
"l. c #E1A9E735E8F9",
"z. c #EFCAE64EEBB6",
"x. c #E555ED65EE29",
"c. c #EC74EC6FEC05",
"v. c #F393ED30ECE2",
"b. c #F976EB50EA41",
"n. c #E6DFF08EEFC1",
"m. c #E9A6F0A2EF91",
"M. c #F53DF1FBEF28",
"N. c #E240EEE4F07A",
"B. c #E9B7EE86F103",
"V. c #F453EDFFF1F7",
"C. c #EE32F33EF3F2",
"Z. c #EBD3FF24F856",
"A. c #EE65FEFCF887",
"S. c #F533F49FF506",
"D. c #F8C7F700F680",
"F. c #F768FA17F6EC",
"G. c #F3B1F555F943",
"H. c #F5EFFC91FC8D",
"J. c #FC12FBE8FC31",
"K. c None",
/* pixels */
"K.K.K.K.z.t.t.1.:.:.*.%.] Z J F.K.K.K.K.K.K.",
"K.K.K.F.f.a.p.2.3.<.<.<.&.D V *.J.K.K.K.K.K.",
"K.K.K.d.e.q.q.7.1.1.-.-.=.:.J *.4.J.K.K.K.K.",
"K.K.U c ~ ( T ^ Q R / Q x ) *.n.j.a.J.K.K.K.",
"K.w.k l ..[ X.' } X.] Y s j ;.s.a.%.3.J.K.K.",
"K.y.2 ; K w 0 d d L q : - u 4.%.J S v 4.K.K.",
"K.r.& . 5 X % 7 5 @ O o   6 g.4.4.:.A J J.K.",
"K.K.8 * , = * , $ # < < + 0 N.a.4.<.%.J J.K.",
"K.K.#.n m N N N M M M B C i.n.s.f.a.*.%.F.K.",
"K.K.K.D.m.F.H.H.H.F.H.H.v.0.V.z.k.j.1.*.G.K.",
"K.K.K.S.c.S.S.S.S.D.M.H.O.1 9.h.k.j.4.<.D.K.",
"K.K.K.M.c.D.D.F.F.F.D.H. .> 5.G.v.c.k.1.F.K.",
"K.K.K.S.c.J.H.D.J.J.J.J...3 u.H.V.B.g.3.S.K.",
"K.K.K.S.c.J.J.J.J.J.J.J.5.i M.H.V.v.k.4.M.K.",
"K.K.K.S.c.H.J.J.J.J.J.J.{ t | H.Z.A.m.3.D.K.",
"K.K.K.S.c.H.J.J.J.J.J.b.k W y z E ! 8.4.S.K.",
"K.K.K.S.c.F.G.H.H.J.M.Y e h K 9 r 1 h 4.M.K.",
"K.K.K.S.k.F.S.D.J.6.a t ` s.N.B.;.F ] 4.D.K.",
"K.K.K.F.j.B.v.C.M.f 3 _ F.G.C.B.m.c.j.,.D.K.",
"K.K.K.D.k.S.M.G.S.P I C.F.S.V.v.c.k.k.4.D.K.",
"K.K.K.H.*.D J J J D H J J J J G D D S *.K.K.",
"K.K.K.K.K.K.K.K.K.K.K.K.K.K.K.K.K.K.K.K.K.K."
};
