/* XPM */
static char *geda_tools_28x28[] = {
/* columns rows colors chars-per-pixel */
"28 28 238 2 ",
"   c #39233A7F3713",
".  c #0606293E5DDF",
"X  c #0AEF2CA05ED4",
"o  c #0E382D745CB5",
"O  c #116B30775DF1",
"+  c #0C0F30756807",
"@  c #1E24457F7EDC",
"#  c #20A044EF7BE3",
"$  c #538454E95208",
"%  c #625063B9606F",
"&  c #15E5435786A0",
"*  c #175446918A83",
"=  c #189545ED88A1",
"-  c #185C45CD8933",
";  c #21034D008D27",
":  c #2CDE54648782",
">  c #2DF954F787B3",
",  c #2A6653328885",
"<  c #2AED54F28F47",
"1  c #301D57968AF6",
"2  c #24BD52B5947B",
"3  c #2FA45A5191E7",
"4  c #2E0559B192D0",
"5  c #2ED259A69606",
"6  c #327A5EA0981E",
"7  c #31A85CC69A83",
"8  c #33E15F679D6D",
"9  c #362D605C9B23",
"0  c #36D060679B4C",
"q  c #390C65819F76",
"w  c #34A76386A045",
"e  c #37906718A4C0",
"r  c #397863D3A029",
"t  c #3B4565A0A1A5",
"y  c #3A3C6841A3BC",
"u  c #3E656B76A5A1",
"i  c #3DC96963A67F",
"p  c #3D0571D7B54C",
"a  c #553D710A989C",
"s  c #418A6B57A58C",
"d  c #40BF6CF9A95D",
"f  c #40EF6E81A93E",
"g  c #431570A4AB64",
"h  c #44BE712EAD79",
"j  c #455671EBAE15",
"k  c #58AD774CA3F1",
"l  c #43267242B2AC",
"z  c #45487389B1C8",
"x  c #46D6755CB37B",
"c  c #423872D1B4FA",
"v  c #4911764DB2B5",
"b  c #4A027707B416",
"n  c #4D1C77F8B26D",
"m  c #4F757B4FB43E",
"M  c #458C7834B9D2",
"N  c #4C2F7B09B84A",
"B  c #492D7B92BCBD",
"V  c #51D27C48B647",
"C  c #50B17EE3BAC9",
"Z  c #7FC8887D9780",
"A  c #751687829EE0",
"S  c #65358B59BBF3",
"D  c #57458762C507",
"F  c #5AC88830C316",
"G  c #5AD588C3C35A",
"H  c #5DCC8D1FC9A8",
"J  c #602B8DA7C76D",
"K  c #6750921EC91D",
"L  c #6715922DC963",
"P  c #6C0E93C6C853",
"I  c #6AFC95B8CC06",
"U  c #6C299780CF06",
"Y  c #7A699BD4C6C7",
"T  c #710797A4C924",
"R  c #704D970EC978",
"E  c #77149EBAD178",
"W  c #74C59F05D4A9",
"Q  c #7EE8A069CB37",
"!  c #84FB870381D6",
"~  c #84C78743820F",
"^  c #8652888A8315",
"/  c #87A28A1A84A3",
"(  c #89378B5B8635",
")  c #8D5C8F3F8A3F",
"_  c #906592668D83",
"`  c #90DF92648E91",
"'  c #919393848ED7",
"]  c #84968D809C6C",
"[  c #86978F829E90",
"{  c #87B190A09FA6",
"}  c #93F095AD9104",
"|  c #97C999A79518",
" . c #9ACF9C8D980A",
".. c #9B139CCB9889",
"X. c #9B829D3698C4",
"o. c #9C949E0399C5",
"O. c #9E119F469C53",
"+. c #A11AA2AE9EB8",
"@. c #A1B3A3669F55",
"#. c #AC0FA96E9E38",
"$. c #8A469310A1B8",
"%. c #8C0A94CDA399",
"&. c #8CD1945CA170",
"*. c #8F0C97E6A658",
"=. c #94449A02A141",
"-. c #906F990FA878",
";. c #93939C47A92D",
":. c #93769C4DAA75",
">. c #95089D71AB11",
",. c #96F09F5AACAD",
"<. c #A6A0A808A3CC",
"1. c #A63BA80CA4FB",
"2. c #A7D7A9E0A738",
"3. c #A90EAA64A6F6",
"4. c #A95CAAFCA731",
"5. c #AAFCAC82A8D0",
"6. c #AB85ACE9A96B",
"7. c #AC71ADDCAA8C",
"8. c #AE99B028ACA1",
"9. c #A10FA9FAB6D8",
"0. c #A136A9AEB66E",
"q. c #A22DAA1CB663",
"w. c #ADF5B3F5BDD9",
"e. c #B3E5B4FBB22A",
"r. c #B429B56DB23D",
"t. c #B647B7A7B450",
"y. c #B860B9B2B6C5",
"u. c #BA59BB9EB877",
"i. c #BBC1BD11BA0C",
"p. c #BCC3BE1ABB4E",
"a. c #BD51BD3ABD77",
"s. c #BD9EBDACBD86",
"d. c #BED5BFDFBD18",
"f. c #9216B1E5D985",
"g. c #930FB53DDF4A",
"h. c #9312B4EFE046",
"j. c #A7EAB35DC21E",
"k. c #AD20B8BDC72C",
"l. c #B5DBBB90C5AB",
"z. c #B685BD2CC597",
"x. c #B58BBCE1C68A",
"c. c #B9D1BEA5C72D",
"v. c #BB5CBFF8C80C",
"b. c #B24FBD9ACB68",
"n. c #B19CBD97CCCA",
"m. c #B495BFCACC64",
"M. c #B6DEC1FECD6D",
"N. c #BC2CC102C9B8",
"B. c #BE01C3BCCB4B",
"V. c #B849C25ACD08",
"C. c #B5CEC247D149",
"Z. c #BB27C62DD33D",
"A. c #B903C6A2D47A",
"S. c #A9F6C560E79F",
"D. c #ACBAC612E5AD",
"F. c #A53EC394E894",
"G. c #AB85C79AE9F3",
"H. c #C217C32BC068",
"J. c #C4B6C5A0C350",
"K. c #C605C6C8C4F3",
"L. c #C76CC847C5FD",
"P. c #C6C4C685C726",
"I. c #C976CA4AC802",
"U. c #C103C6A0CDCE",
"Y. c #C1EAC7BDCF66",
"T. c #C30EC830CF1B",
"R. c #C427C967D037",
"E. c #CD1ECE08CBF3",
"W. c #CECFCF39CE2D",
"Q. c #C2B4CA07D1DB",
"!. c #C3F6C9D8D1EC",
"~. c #C598CB3DD1BD",
"^. c #C0BFCAF9D55B",
"/. c #C80CCDDDD596",
"(. c #C851CCE2D3F4",
"). c #C06ACD81DA56",
"_. c #CB63D081D6DD",
"`. c #D194D17FD1B8",
"'. c #D212D2D1D0E7",
"]. c #D2DED3C2D1BC",
"[. c #D509D5A7D406",
"{. c #D5BDD690D4A0",
"}. c #D824D819D829",
"|. c #D8F5D9B9D7E3",
" X c #D97DDA0AD8C5",
".X c #DC86DD14DBB4",
"XX c #DEF9DF67DE2D",
"oX c #DF1BDF24DF07",
"OX c #DF83DF7BDF98",
"+X c #C6A8D49EE374",
"@X c #CAD3D713E33B",
"#X c #CCF2DB1FE94B",
"$X c #D10ADF7FEE25",
"%X c #D24BE0EFF034",
"&X c #D2F8E116EF02",
"*X c #E13CE14DE125",
"=X c #E2DDE2DAE2E5",
"-X c #E36DE379E360",
";X c #E3F4E3E0E3F3",
":X c #E473E4E9E3B1",
">X c #E509E509E507",
",X c #E7A7E78AE7CB",
"<X c #E88AE8BBE81D",
"1X c #E8ECE8FFE8D3",
"2X c #E9E0E9DBEA17",
"3X c #EA61EA73EA36",
"4X c #EAB2EB1AEA46",
"5X c #EAD6EAE7EAC8",
"6X c #ECB1ECD0ECC9",
"7X c #EDAEEDABEDF3",
"8X c #EE72EE86EE59",
"9X c #EF73EF74EDED",
"0X c #EE04EE63EE78",
"qX c #EF6EEF77EF6A",
"wX c #EFD5EFD1EFE2",
"eX c #F50FF385F053",
"rX c #F0D3F0B8F0FA",
"tX c #F22EF221F1E3",
"yX c #F29CF26BF2CE",
"uX c #F30AF2F4F32C",
"iX c #F294F303F3F5",
"pX c #F348F39CF402",
"aX c #F451F428F3DA",
"sX c #F477F46BF46E",
"dX c #F509F4FBF51E",
"fX c #F654F64EF64D",
"gX c #F69AF679F6EB",
"hX c #F7FAF7E1F81E",
"jX c #F881F716F3B1",
"kX c #F9E9F9C9FA0A",
"lX c #FB26FB23FA61",
"zX c #FAF0FAC2FB31",
"xX c #FD25FCFAFD26",
"cX c #FD6EFD56FD89",
"vX c #FF49FF4CFF45",
"bX c #FF62FF4FFF8F",
"nX c #FFFDFFFDFFFD",
"mX c None",
/* pixels */
"mXmXmXmXmXmXmXmXmXmXmXmXmXmXmXmXmXmXmXmXmXmXmXmXmXmXmXmX",
"mXmXmXmXmXmXmXmXmXmXmXmXmXmXmXmXmXmXmXmXmXmXmXmXmXmXmXmX",
"mXmXmXmXmXmXmXmXmXmXmXmXmXmXmXmXmXmXmXmXmXmXmXmXmXmXmXmX",
"mXmXmXmXmXmXmXmX@.L.y. .mXmXmXmXmXmXmXmXmXmXmX] mXmXmXmX",
"mXmXmXmXmXmXmXmX..<XzX3X6.mXmXmXmXmXmXmXmXZ j.n.{ mXmXmX",
"mXmXmXmXmXmXmXmXmX`  XwX3X..mXmXmXmXmXmX{ n.%X%XC.{ mXmX",
"mXmXmXmXmXmXmXmXmXmXr.8XrXp.mXmXmXmXmX*.A.&X@X#Xk.mXmXmX",
"mXmXmXmX} mXmXmXmXmX7.hXzXI.mXmXmXmXmXq.@XA.Z.M.] mXmXmX",
"mXmXmXmXOXi.mXmXmX~ [.nXnXd.mXmXmXmXmXq.^.M.V.:.mXmXmXmX",
"mXmXmXmX.XdXd.7.@.'.rX;XrXi.mXmXmXmX>.!.x.q.,.mXmXmXmXmX",
"mXmXmXmXp.nXzXdXdXdXrX8X>XrX8.mXmX>.~.x.$.mXmXmXmXmXmXmX",
"mXmXmXmX/ '.nXnXnXnXnXrXOX3XzX7.%._.N.%.mXmXmXmXmXmXmXmX",
"mXmXmXmXmX~ r.{.|.H.1.8XpXrXdXx.~.!.-.mXmXmXmXmXmXmXmXmX",
"mXmXmXmXmXmXmXmXmXmXmX#.jXrXw.Y./.=.mXmXmXmXmXmXmXmXmXmX",
"mXmXmXmXmXmXmXmXmXmXmX# A N.Y.Y.N.8Xo.mXmXmXmXmXmXmXmXmX",
"mXmXmXmXmXmXmXmXmXmXt P b k (.c.rXnX3X| mXmXmXmXmXmXmXmX",
"mXmXmXmXmXmXmXmXmXr U D H z a eXrX8XzX;X` mXmXmXmXmXmXmX",
"mXmXmXmXmXmXmXmX6 K H m e C < <.8X8X3XhX.X) mXmXmXmXmXmX",
"mXmXmXmXmXmXmX8 K E S 1 g d mXmX2.8X3X>XdX{.( mXmXmXmXmX",
"mXmXmXmXmXmXi E g.Y : f j - mXmXmX4.3X>X;X8XE./ mXmXmXmX",
"mXmXmXmX* V g.S.Q : i j & mXmXmXmXmX2.1XOXOX>XJ.^ mXmXmX",
"mXmXmX2 R G.D.R , q b = mXmXmXmXmXmXmX6.;X`.d.'.e.mXmXmX",
"mXmXmXn F.f.G 3 6 N ; mXmXmXmXmXmXmXmXmX2.}.a.L.L.mXmXmX",
"mXmXmX0 U M y 4 B 5 mXmXmXmXmXmXmXmXmXmX  O.W.W.` mXmXmX",
"mXmXmX. s G w p l X mXmXmXmXmXmXmXmXmXmXmXmX% $ mXmXmXmX",
"mXmXmXmX+ 0 x c @ mXmXmXmXmXmXmXmXmXmXmXmXmXmXmXmXmXmXmX",
"mXmXmXmXmXmXO o mXmXmXmXmXmXmXmXmXmXmXmXmXmXmXmXmXmXmXmX",
"mXmXmXmXmXmXmXmXmXmXmXmXmXmXmXmXmXmXmXmXmXmXmXmXmXmXmXmX"
};
