/* XPM */
static char *gaf_pdf_32x32[] = {
/* columns rows colors chars-per-pixel */
"32 32 256 2 ",
"   c #8D4C18551B24",
".  c #A80E10770BC2",
"X  c #AE6712B40CDF",
"o  c #AC02078D1505",
"O  c #B115000012DC",
"+  c #A7B313F71884",
"@  c #AB00132F101C",
"#  c #894C288120C8",
"$  c #9A2920782507",
"%  c #A7B72CD42F0A",
"&  c #B1AD30352CEE",
"*  c #B86131EF2DBC",
"=  c #AC072B993025",
"-  c #A7EA3B1B3A6E",
";  c #BA963A5C372D",
":  c #CC52207E1A88",
">  c #D34825071CD1",
",  c #C6A81C0B210E",
"<  c #D47D1C5929E4",
"1  c #C8362AFD26EE",
"2  c #D4F522882025",
"3  c #C9483951362F",
"4  c #C09F37553954",
"5  c #DEBE362136DF",
"6  c #D2F33E4B3D2F",
"7  c #E184283639C8",
"8  c #EE372D643CCA",
"9  c #E97B3A683E16",
"0  c #89A1445F3F73",
"q  c #A1AD401E3DED",
"w  c #E52F414C3B5B",
"e  c #ACAB3C1940FD",
"r  c #AEB532604680",
"t  c #B1A23727407C",
"y  c #BAD83B9C4255",
"u  c #BC653C9E5542",
"i  c #C0CB1E844095",
"p  c #C09F366640B9",
"a  c #CE703858430A",
"s  c #DAF93DFF4722",
"d  c #DCE83BE054F9",
"f  c #EBA32B8240AD",
"g  c #E3823AB64A23",
"h  c #F9BE34EC470C",
"j  c #83C649804686",
"k  c #948A4D1E4D46",
"l  c #8AF652B84D53",
"z  c #85E652EE4CAD",
"x  c #9219505A4F51",
"c  c #8CF44DCD505B",
"v  c #92A64DB354D9",
"b  c #8FCC4FD551A8",
"n  c #895553F45574",
"m  c #901452C65A50",
"M  c #A804404B4595",
"N  c #AD7643EF46FB",
"B  c #886466025543",
"V  c #AC6B60A857D9",
"C  c #B96F5FA76B17",
"Z  c #987567106488",
"A  c #B3E572F86BD8",
"S  c #AFF37DD67EFB",
"D  c #B9977D32757A",
"F  c #C7D4460C4AA2",
"G  c #D4AC493F4FC8",
"H  c #D14045434A36",
"J  c #D8CD4A4A5797",
"K  c #C7C354B75A01",
"L  c #DAC359DF58A5",
"P  c #E9E1434D4B1F",
"I  c #F20F4C565C3E",
"U  c #EC9856155D4F",
"Y  c #E3E6542A5864",
"T  c #CA2E5EDB6469",
"R  c #D9C15AB261A0",
"E  c #D5FB5722661A",
"W  c #CBEC62D968E5",
"Q  c #D8D86701608D",
"!  c #D74D69406B5C",
"~  c #CAFB7A0E7B4C",
"^  c #D3257C007B41",
"/  c #DBFF7E337DA2",
"(  c #EEC9682067AA",
")  c #E1386D166F5C",
"_  c #E1ED625F6CA6",
"`  c #FC8C6BE66881",
"'  c #F3986C377F93",
"]  c #E53C757C76EF",
"[  c #F4517AE97F2D",
"{  c #C9BD7FEB8442",
"}  c #EDC67916877F",
"|  c #F2E37BBA81CB",
" . c #EF747F269021",
".. c #8D4A8D468D40",
"X. c #90548F6A8F6F",
"o. c #920C917A9177",
"O. c #9C8F9C8F9C8F",
"+. c #C028872280DF",
"@. c #B30A8B3180C2",
"#. c #BD6E8B9F8BCA",
"$. c #A9DD960184F6",
"%. c #BA3E99138CA9",
"&. c #BC468CA89199",
"*. c #BB7E9F3291A6",
"=. c #9F70A2C49FC1",
"-. c #A622A622A622",
";. c #AAEAAD02ABB4",
":. c #ACB3A8DCA4DF",
">. c #B6D7AF26ACA8",
",. c #B93EAF56ADF8",
"<. c #B13FA608A996",
"1. c #AE86B132ABA6",
"2. c #B59DB053AE39",
"3. c #B873B9BDAC3F",
"4. c #B640AD29B2F9",
"5. c #B37CB3EFB3B5",
"6. c #BFCBB62FBDA2",
"7. c #B6DBB967B877",
"8. c #BCDCBCDCBCDC",
"9. c #B81AB7F9B2FD",
"0. c #DA038CD18C32",
"q. c #D4098C828984",
"w. c #CB3290518D19",
"e. c #DC2D8FF69188",
"r. c #CE69964C93AF",
"t. c #DF3A95AF93D2",
"y. c #DEF396B19DE6",
"u. c #F04E871B847C",
"i. c #E5B28A6C8D6E",
"p. c #E96B83F889D3",
"a. c #F14890A3874D",
"s. c #E5128DEA9250",
"d. c #F4488E4C9BAB",
"f. c #E346958C966B",
"g. c #E2969571996C",
"h. c #EA87955C9B1B",
"j. c #E9459FA39DFB",
"k. c #E69A9B729583",
"l. c #F33498AB9CDC",
"z. c #ED269B7CA12B",
"x. c #C313AE99A7FB",
"c. c #C910AF49AB70",
"v. c #C486A12CADE9",
"b. c #DE33A830A5B8",
"n. c #D767ADC0A89D",
"m. c #DADEAB2AAC86",
"M. c #C945B8A0AA17",
"N. c #C9E4B28CACD5",
"B. c #C35AB7CBBF60",
"V. c #CAF4B7F1B902",
"C. c #C10CBEBEBB79",
"Z. c #D701B65CB54F",
"A. c #EC89A6F7AEBD",
"S. c #F561A56AA281",
"D. c #F096A5AEA87A",
"F. c #FF18AD52A96F",
"G. c #EA58B213AB75",
"H. c #F738B4EDA763",
"J. c #FFFFAC3BB112",
"K. c #ED1CB41BB635",
"L. c #B774C9CEBA6E",
"P. c #C486C22FBD9B",
"I. c #D080C8A4BD08",
"U. c #D52AC33BBE26",
"Y. c #EBA2C22AA408",
"T. c #E262C46EC02E",
"R. c #C18EC00AC136",
"E. c #CE5ABEACC7EF",
"W. c #E1BCBC92C09F",
"Q. c #F6CCBD26C820",
"!. c #BFB7C293C0E2",
"~. c #C56AC598C5F2",
"^. c #C860C845C844",
"/. c #C96DCE2BC818",
"(. c #C337C97EC8A9",
"). c #CCABCCBACD37",
"_. c #C7B0CB6FC605",
"`. c #D10DCFA9D031",
"'. c #DCBECE4ECAC2",
"]. c #D6DCCA2CC485",
"[. c #CE50D1D4CD3E",
"{. c #C4E7D8CACC2C",
"}. c #D08CD52FCE9C",
"|. c #D30BCF2CD358",
" X c #DB9ACF74D4E3",
".X c #CF41D65BD2FB",
"XX c #CD33D970D412",
"oX c #D45DD439D457",
"OX c #DABAD411D564",
"+X c #DB19DD41D6D6",
"@X c #DC61D71BD9FE",
"#X c #D697DCA1DB38",
"$X c #DCACDCEFDD1C",
"%X c #E470C65EC48C",
"&X c #EB93CDCECD2B",
"*X c #E126CE07CB44",
"=X c #F39DC5D1C4F6",
"-X c #F255CC1ECCAA",
";X c #F5E1C772C53C",
":X c #EB8CD19CCBF4",
">X c #E306CD4CD316",
",X c #E8E8D71BDC21",
"<X c #E23DDD37DE87",
"1X c #EC81DD0BDD8A",
"2X c #E644D6FAD69B",
"3X c #D67EE08ED9B0",
"4X c #D5C3E6CDDAE2",
"5X c #E4CFE406DE91",
"6X c #E9FEE43CDF64",
"7X c #F7B5E07BDFBB",
"8X c #DD09DD0AE121",
"9X c #E48FDF47E508",
"0X c #EB01DD53E402",
"qX c #FA01E00DE903",
"wX c #F248DBC3E315",
"eX c #D4B3E6CBE2F3",
"rX c #DCCAE331E2D0",
"tX c #D7B2EAEDE814",
"yX c #DD6CEA9FE494",
"uX c #DF65EDF6ED6B",
"iX c #D9D3F5AEF048",
"pX c #E4B0E4A0E4BF",
"aX c #EC75E4F2E3BF",
"sX c #E4D3EBFDE6C8",
"dX c #EC0DEBB6E675",
"fX c #E768E6A3EA43",
"gX c #EDC9E74EEA6B",
"hX c #E671EAB3EA97",
"jX c #EC00EC43EC3D",
"kX c #F259E0CDE3A5",
"lX c #FBCDE7D4E5C0",
"zX c #F7DAE77AE98D",
"xX c #F45DED33EC9E",
"cX c #F8DDF01FEBDD",
"vX c #E7F8F3EDEEED",
"bX c #EDD6F181EECA",
"nX c #E8EDF8AFF056",
"mX c #F51EF5FFED23",
"MX c #F5A4F7ADE91C",
"NX c #EE32EE09F284",
"BX c #F45CEF19F2ED",
"VX c #FBE2EEBAF599",
"CX c #F345E76FF185",
"ZX c #EDE8F26DF459",
"AX c #EAD4FC7EF764",
"SX c #ECD8F6C2FAD1",
"DX c #ECA7FE37FDD8",
"FX c #F3E4F3A4F41E",
"GX c #F98DF47AF6AF",
"HX c #F4D0F9F4F5EB",
"JX c #F99EFBE0F633",
"KX c #F172F3CBF9CE",
"LX c #FBBDF544FB62",
"PX c #F3DAFEA3FD6A",
"IX c #FBFFFC13FC18",
"UX c None",
/* pixels */
"UXUXUXUXUXIXzX1X1X1X,X@X@XOXoX`.^.R.7.;.9.dXIXUXUXUXUXUXUXUXUXUX",
"UXUXUXUXUXGXrX#X#X#X.X}.}.[././.^.E.B.5.=.1.pXIXUXUXUXUXUXUXUXUX",
"UXUXUXUXUXNX#XrX3XrX#X@X@XOX>X X X|.).~.5.-.C.hXIXUXUXUXUXUXUXUX",
"UXUXUXUXUXmX6XdXaX6XaXrXtXtXtXeXeX+X+X[.P.9. X~.NXIXUXUXUXUXUXUX",
"UXUXUX%Xq.j.f.f.g.j.t.s.h.f.s.i.s.t.r.%X'.8.fX$X^.NXIXUXUXUXUXUX",
"UXUXzX^ [ | l.J.l.i.S.H.a.u.S.F.k.| ] ~ *X(.AXFX$X`.bXIXUXUXUXUX",
"UXUX;XU ` ) :Xc.=Xm.:XM.=Xy.,Xv.0.( ` R ].).bXjX5XoX^.FXIXUXUXUX",
"UXUX;Xs w s n.%.b.+.t.i 0.w.Z.*.L 9 w H ].`.~.9.;.-.;.8.IXUXUXUX",
"UXUX-X, > < @.A ; e +.u ~ V D q 1 2 : 4 '.@XoX`.^.8.-.O.@XIXUXUX",
"UXUX&X+ X o k   o $ B Z 0 # - O . @ . % OX9X$X$X@XoX8.O.7.IXUXUX",
"UXUX&X= * y e ; 4 4 q r - - - y ; ; & N 3XrX<X$X@XoX^.5.9.IXUXUX",
"UXUXVX&.m m b l c c v v n z b c k v j &.jXrX4X$X$X#XoX8.8.IXUXUX",
"UXUXUX8XB.<.:.,.>.>.>.>.,.,.2.>.4.4.3.4XuXfX1XpXpX$XoX~.8.HXUXUX",
"UXUXUXUXUXFXhXHXHXHXHXKXHXHXHXHXGXSXMXMXvXCXqXfXpXpX$X^.~.GXUXUX",
"UXUXUXUXUXNXfXZXFXZXFXFXFXFXKXFXKXDXK.W Q.ZXuXsXpXpX$XoX).GXUXUX",
"UXUXUXUXUXFXaXGXGXGXGXGXGXGXGXGXGXDX .7 } mXiXjXfXpXpX#X).FXUXUX",
"UXUXUXUXUXbXsXHXHXHXHXKXHXJXJXJXGXDX[ 5 ] cXNXNXjXdXaX$XoXFXUXUX",
"UXUXUXUXUXbXjXHXJXGXJXJXIXJXIXIXHXAXp.8 e.VXKXBXbXzX6X1X XFXUXUX",
"UXUXUXUXUXBXjXLXIXGXIXIXIXIXIXIXIXPXt.8 D.PXSXGXNXvXsXeXXXFXUXUX",
"UXUXUXUXUXbXhXGXIXIXIXIXIXIXIXIXIXIXG.H =XDXGXLXVXCXgXpXOXFXUXUX",
"UXUXUXUXUXbXaXIXIXIXIXIXIXIXIXIXIXPXf.a d.JXmXnXvXvXxX0XoXHXUXUX",
"UXUXUXUXUXNXhXIXIXIXIXIXIXIXIXIXIXaXR Q E A.MXHXHXHXvXrX}.GXUXUX",
"UXUXUXUXUXFXhXIXJXIXIXIXIXIXIXIXIXz.U Y./ d '  .p.h.;XkXoXGXUXUX",
"UXUXUXUXUXZXfXGXKXIXIXHXIXIXIXIXkXU Y ! T K F 6 f h J W.#XFXUXUX",
"UXUXUXUXUXbXaXGXHXJXLXLXIXPXJXK._ G T w.x.3.3.$.D T C V.#XFXUXUX",
"UXUXUXUXUXFXpXHXFXGXGXGXLXlX{ H P @.I.pXfXKXBXpX{.L.P.>XOXGXUXUX",
"UXUXUXUXUXFX$XNXbXbXFXHXIXi.g I ! 2XGXKXSXSXZXZXvXgXaXeXXXGXUXUX",
"UXUXUXUXUXFX$XjXjXNXNXZXcX^ s E I.GXVXNXNXgXdXsXsXkXwX#XXXGXUXUX",
"UXUXUXUXUXFX$XNXNXZXFXFXFXN.S Z.vXnXKXZXBXxXzXdXsXyXpX1XoXHXUXUX",
"UXUXUXUXUXFX[.`.oXoXoXoXoX).(.oX@XOX+XOXoXoX}.oXoX`.).^.^.IXUXUX",
"UXUXUXUXUXIX9...o.o.o.o.o.o.o.X.X.......................^.IXUXUX",
"UXUXUXUXUXUXUXUXUXUXUXUXUXUXUXUXUXUXUXUXUXUXUXUXUXUXUXUXUXUXUXUX"
};
