/* XPM */
static char *geda_tools_26x26[] = {
/* columns rows colors chars-per-pixel */
"26 26 210 2 ",
"   c #09F6282F558C",
".  c #12F73517673B",
"X  c #1BF83D976E85",
"o  c #15743B9A7451",
"O  c #53CA552251EC",
"+  c #72E774397111",
"@  c #1AC842D5807B",
"#  c #1CC44B3B8E86",
"$  c #23724B3884A5",
"%  c #270F4F1D88B0",
"&  c #233F4EED8C85",
"*  c #28AD51448637",
"=  c #28B2528A892C",
"-  c #2C6A549288B4",
";  c #2ED8573E8B8E",
":  c #29D952FF8DDD",
">  c #2AD056409574",
",  c #2EA05AE69A45",
"<  c #2E3F5D6E9A66",
"1  c #32995E3796FB",
"2  c #2FFC5A9B98B1",
"3  c #3578602C9D1D",
"4  c #351B62BD9DF7",
"5  c #34E462BF9E2C",
"6  c #361B6265A08E",
"7  c #37AD6458A294",
"8  c #36D864CBA4ED",
"9  c #3A2D66E8A4A7",
"0  c #3D446928A6EB",
"q  c #3EF96C66A73B",
"w  c #507E6E0B971E",
"e  c #67477D4899CE",
"r  c #402A6DE5AC60",
"t  c #448771BEAC32",
"y  c #46E8745BAF4B",
"u  c #48687585AFF9",
"i  c #4F90793BAF52",
"p  c #5109733FA457",
"a  c #439D7345B073",
"s  c #470F7644B4F7",
"d  c #472576B6B5C4",
"f  c #489C7507B088",
"g  c #4D777B8FB7C1",
"h  c #46A578EDBB11",
"j  c #4AC57BE0BB40",
"k  c #51207BACB53D",
"l  c #48EC7CF5C08D",
"z  c #54458149BD5D",
"x  c #5824819BB957",
"c  c #5BB1848ABBB0",
"v  c #64C48943B804",
"b  c #58EB8612C16B",
"n  c #583186DEC26B",
"m  c #57AE8825C627",
"M  c #60B78AC1C14C",
"N  c #602F8B83C394",
"B  c #65D5908CC776",
"V  c #66809070C704",
"C  c #685F90A4C5D2",
"Z  c #66F794F1CF49",
"A  c #71D895C2C3D8",
"S  c #7618975CC1F6",
"D  c #777CA013D347",
"F  c #7CCAA2ABD2F7",
"G  c #867C884882F5",
"H  c #87C989078647",
"J  c #88938A718632",
"K  c #8ABD8D6A8806",
"L  c #8C2F8E4788E3",
"P  c #8DB58FC08AD3",
"I  c #9116925D8F19",
"U  c #84598CFF9C99",
"Y  c #8B5090C096D1",
"T  c #88BB91109FEA",
"R  c #9579976192B0",
"E  c #991C9ABF9669",
"W  c #9A719BF998B2",
"Q  c #9C369E1899D9",
"!  c #A4EAA1EA95EB",
"~  c #A3C2A36C9BFE",
"^  c #A0B3A23B9E52",
"/  c #A0A1A2C19F9D",
"(  c #A201A3DF9FD7",
")  c #8992928AA159",
"_  c #915C9A0BA80B",
"`  c #90BE9A55A959",
"'  c #92C29AE2A91F",
"]  c #95389DDAAAA0",
"[  c #9890A0FFAE48",
"{  c #A275A3F8A033",
"}  c #A4CDA6A9A294",
"|  c #A5F7A786A373",
" . c #A62EA7C0A3CA",
".. c #A8FAAA5EA688",
"X. c #AC77AE25AA4E",
"o. c #AF8FB111AD84",
"O. c #B016B16FAE2F",
"+. c #B15BB2D4AF90",
"@. c #A24CAD4ABC5C",
"#. c #A4C4AF93BD93",
"$. c #A66AB19BBFFC",
"%. c #A918B1BBBD4C",
"&. c #AFB6B584BF0F",
"*. c #AE8FB5DDBF95",
"=. c #B311B448B11B",
"-. c #B301B483B1BC",
";. c #B77FB8ABB5B5",
":. c #B95CBAA4B793",
">. c #BB9EBCC9B9CA",
",. c #BCE7BDF9BB08",
"<. c #BD05BE01BBA5",
"1. c #BE34BE1DBE5C",
"2. c #C143C261BFB7",
"3. c #81F3A930DB07",
"4. c #ADF6B81FC44F",
"5. c #B35CB8CDC1E7",
"6. c #B485BADFC3BD",
"7. c #B304BB59C5FA",
"8. c #B111BAF3C7C2",
"9. c #B549BB3BC516",
"0. c #B1B6BC96CA45",
"q. c #B2ECBC5CC84D",
"w. c #B9ACBFEDC89D",
"e. c #9F88BC4BE063",
"r. c #9D2EBC83E35A",
"t. c #A010BEEEE615",
"y. c #BAEFC18ACBF6",
"u. c #BCEEC33ECC96",
"i. c #BFA6C59FCDCD",
"p. c #BC09C827D3E1",
"a. c #BB9BC83DD481",
"s. c #AE52C8B9E90D",
"d. c #B3C0CEAFEEA1",
"f. c #C5FFC6EBC48D",
"g. c #C7C1C8C3C67B",
"h. c #C9E6CA34C968",
"j. c #CA85CB50C90F",
"k. c #CADACB97C9B6",
"l. c #CE07CECACCC7",
"z. c #CEBBCF8FCD7A",
"x. c #C1B8C978D206",
"c. c #C481CA20D14D",
"v. c #C52FCA64D10F",
"b. c #C4ABCAA8D16B",
"n. c #C74ECBD3D1C9",
"m. c #CB7BCE99D47B",
"M. c #CA60CF72D565",
"N. c #C0F0CEAFDD03",
"B. c #CEFAD262D8EF",
"V. c #D206D209D1FF",
"C. c #D465D4A3D40C",
"Z. c #D4B1D58ED389",
"A. c #D54BD527D568",
"S. c #D728D7D4D63B",
"D. c #D709D6F4D724",
"F. c #D801D8BBD6D5",
"G. c #DC25DC2DDC13",
"H. c #DE00DE15DDC6",
"J. c #DF8ADF99DCAD",
"K. c #DEA9DF1DDDF5",
"L. c #DE6EDE5CDE8F",
"P. c #DF39DF55DEF9",
"I. c #E0C8E142E036",
"U. c #C81BD5A8E2E9",
"Y. c #C91AD6F7E5ED",
"T. c #CE3EDCB7EBE9",
"R. c #D09ADE62EB89",
"E. c #D262E0A2EF07",
"W. c #E0CEE0D5E0BF",
"Q. c #E22EE2C2E15F",
"!. c #E3F7E414E3C7",
"~. c #E453E499E3E1",
"^. c #E479E461E49B",
"/. c #E420E531E502",
"(. c #E61BE665E5A8",
"). c #E68DE6C3E64C",
"_. c #E718E748E6BF",
"`. c #E6F3E77AE763",
"'. c #E7B6E7C5E79F",
"]. c #E999E9D2E92F",
"[. c #E96DE95EE984",
"{. c #EA4FEA5AEA3E",
"}. c #EA55EA3DEA7D",
"|. c #EB36EB30EB3E",
" X c #EBF1EC43EABD",
".X c #EB75EB8EEB70",
"XX c #ED06ECFEED17",
"oX c #EE0CEE37EDCB",
"OX c #EEEFEEE6EF03",
"+X c #EF08EEF7EF70",
"@X c #F0D8EF63EAE0",
"#X c #F384F195ED47",
"$X c #F0F4F0DFF114",
"%X c #F1EBF1CEF211",
"&X c #F2AAF310F41A",
"*X c #F444F418F47C",
"=X c #F5ABF590F5D2",
"-X c #F76CF704F631",
";X c #F486F51FF689",
":X c #F66DF63AF6B8",
">X c #F6C9F6D0F6EA",
",X c #F8A2F8ADF870",
"<X c #F867F822F8D8",
"1X c #F8E9F906F8B6",
"2X c #F9CBF9A3FA12",
"3X c #FCFCFCCEFD35",
"4X c #FEDDFE95FF35",
"5X c #FF23FF19FF99",
"6X c #FFD7FFD7FFD6",
"7X c None",
/* pixels */
"7X7X7X7X7X7X7X7X7X7X7X7X7X7X7X7X7X7X7X7X7X7X7X7X7X7X",
"7X7X7X7X7X7X7X7X7X7X7X7X7X7X7X7X7X7X7X7X7X7X7X7X7X7X",
"7X7X7X7X7X7X7X7X7X7X7X7X7X7X7X7X7X7X7X7X7X7X7X7X7X7X",
"7X7X7X7X7X7X7XP l.S.;.K 7X7X7X7X7X7X7X7X7X_ 7X7X7X7X",
"7X7X7X7X7X7X7X7X=.%X<Xj.G 7X7X7X7X7X7X7X4.Y.@.7X7X7X",
"7X7X7X7X7X7X7X7X7Xo.|.%X+.7X7X7X7X7X) q.T.T.Y._ 7X7X",
"7X7X7X7X7X7X7X7X7XE _.:Xg.7X7X7X7X7X8.T.a.Y.#.7X7X7X",
"7X7X7X{ ,.7X7X7X7X} 1X6Xj.7X7X7X7X7Xq.a.a.8.U 7X7X7X",
"7X7X7X..:Xf.R 7X^ ~.|.:X;.7X7X7X7X[ c.7.%._ 7X7X7X7X",
"7X7X7XP K.6X|.K.oX%X|.[._.Q 7X7X] v.4.T 7X7X7X7X7X7X",
"7X7X7X7XX.1X6X6X6X6X:XG.oX|.Q _ m.5.7X7X7X7X7X7X7X7X",
"7X7X7X7X7X} Z.Q.S.=._.;XoX:X5.v.u.7X7X7X7X7X7X7X7X7X",
"7X7X7X7X7X7X7X7X7X7X! @X:X5.c.i.Y 7X7X7X7X7X7X7X7X7X",
"7X7X7X7X7X7X7X7X7X7X@ e 9.n.w.B.J.H 7X7X7X7X7X7X7X7X",
"7X7X7X7X7X7X7X7X7X3 C z p y.m.:X6XS.7X7X7X7X7X7X7X7X",
"7X7X7X7X7X7X7X7X2 B m n d w #X%X|.6Xl.7X7X7X7X7X7X7X",
"7X7X7X7X7X7X7X> N Z i 3 g & ~ '.oX[.1Xf.7X7X7X7X7X7X",
"7X7X7X7X7X7X, B 3.v ; u 7 7X7X^ _.|.^.&Xf.7X7X7X7X7X",
"7X7X7X7X7X0 F t.S - y 7 7X7X7X7X^ ~./.Q.oX>.7X7X7X7X",
"7X7X7X# k r.s.A * t 9 7X7X7X7X7X7X^ K.K.V.S.o.7X7X7X",
"7X7X7Xx d.e.M = q r 7X7X7X7X7X7X7X7X} K.1.1.j.7X7X7X",
"7X7X7Xc D j 1 3 d o 7X7X7X7X7X7X7X7X7XI S.C.1.7X7X7X",
"7X7X7X$ n a < l : 7X7X7X7X7X7X7X7X7X7X7X+ H O 7X7X7X",
"7X7X7X7X% f h 8   7X7X7X7X7X7X7X7X7X7X7X7X7X7X7X7X7X",
"7X7X7X7X7X. X 7X7X7X7X7X7X7X7X7X7X7X7X7X7X7X7X7X7X7X",
"7X7X7X7X7X7X7X7X7X7X7X7X7X7X7X7X7X7X7X7X7X7X7X7X7X7X"
};
