/* XPM */
static char * geda_tools_22x22_xpm[] = {
"22 22 188 2",
"  	c None",
". 	c #9EA09C",
"+ 	c #C3C4C1",
"@ 	c #A6A7A4",
"# 	c #878985",
"$ 	c #7F8897",
"% 	c #949591",
"& 	c #EBEAEB",
"* 	c #F7F7F8",
"= 	c #BFC0BE",
"- 	c #788190",
"; 	c #9DA8B7",
"> 	c #AEBAC9",
", 	c #818A99",
"' 	c #8A8D88",
") 	c #DDDDDC",
"! 	c #F6F6F6",
"~ 	c #8B94A3",
"{ 	c #A1ACBB",
"] 	c #D0DEED",
"^ 	c #D2E1F1",
"/ 	c #A7B3C2",
"( 	c #898B87",
"_ 	c #BCBDBB",
": 	c #FAFAFB",
"< 	c #C9CAC8",
"[ 	c #9FA7B5",
"} 	c #C9D8E5",
"| 	c #C3CFDC",
"1 	c #C1CEDB",
"2 	c #929CAB",
"3 	c #D0D1D0",
"4 	c #B3B5B2",
"5 	c #7F837D",
"6 	c #DEDEDD",
"7 	c #FFFFFF",
"8 	c #C6C6C5",
"9 	c #A6AEBA",
"0 	c #BFCAD6",
"a 	c #BCC6D2",
"b 	c #97A0AE",
"c 	c #DADBD9",
"d 	c #EEEDEE",
"e 	c #A1A39F",
"f 	c #D6D6D4",
"g 	c #EEEEEE",
"h 	c #EDEDED",
"i 	c #C0C2C0",
"j 	c #959DAB",
"k 	c #C4CAD1",
"l 	c #AAB1BD",
"m 	c #969FAC",
"n 	c #A8AAA6",
"o 	c #FDFDFD",
"p 	c #FFFEFF",
"q 	c #FCFBFC",
"r 	c #F5F5F5",
"s 	c #E5E5E5",
"t 	c #F3F2F3",
"u 	c #BEC0BD",
"v 	c #8A8D90",
"w 	c #9CA4B1",
"x 	c #C7CCD2",
"y 	c #A0A8B4",
"z 	c #7A8493",
"A 	c #7E817B",
"B 	c #A6A8A4",
"C 	c #DCDDDC",
"D 	c #E7E8E7",
"E 	c #D7D8D6",
"F 	c #D1D2D0",
"G 	c #F0F0F1",
"H 	c #ECECEC",
"I 	c #F9F8F9",
"J 	c #A8AEB5",
"K 	c #C6CCD3",
"L 	c #7F8898",
"M 	c #848782",
"N 	c #C2C3C0",
"O 	c #D6D7D5",
"P 	c #BBBCB9",
"Q 	c #ACA89C",
"R 	c #E2DFD6",
"S 	c #F7F6F5",
"T 	c #B0B6BF",
"U 	c #C6CCD4",
"V 	c #A1A7AF",
"W 	c #1D4683",
"X 	c #46638D",
"Y 	c #A9B2BF",
"Z 	c #C4C9D1",
"` 	c #BDC2CB",
" .	c #ECECEF",
"..	c #A4A6A2",
"+.	c #345E9C",
"@.	c #5680B9",
"#.	c #5C8AC8",
"$.	c #456EA6",
"%.	c #A7B1C0",
"&.	c #E3E3E5",
"*.	c #F9F9F8",
"=.	c #F8F8F8",
"-.	c #A9AAA7",
";.	c #6D6F6A",
">.	c #26538D",
",.	c #5883BD",
"'.	c #5F8ECA",
").	c #4675B2",
"!.	c #4D7CBA",
"~.	c #3C5F90",
"{.	c #DBD9D1",
"].	c #F1F1F1",
"^.	c #EEEEEF",
"/.	c #2A5695",
"(.	c #5985BE",
"_.	c #769DD0",
":.	c #557BAB",
"<.	c #39639B",
"[.	c #416DAA",
"}.	c #A0A2A0",
"|.	c #DADADA",
"1.	c #EAEAEA",
"2.	c #E8E8E8",
"3.	c #E9E9E8",
"4.	c #939591",
"5.	c #0B3B81",
"6.	c #4773AF",
"7.	c #658DC2",
"8.	c #95B6E0",
"9.	c #698BB7",
"0.	c #2D578F",
"a.	c #416FAC",
"b.	c #184589",
"c.	c #9B9C98",
"d.	c #DBDBDB",
"e.	c #E6E6E6",
"f.	c #E0E0DE",
"g.	c #8F928C",
"h.	c #17468A",
"i.	c #3C68A4",
"j.	c #89ABD6",
"k.	c #A5C3E7",
"l.	c #6084B2",
"m.	c #2C568D",
"n.	c #416EAD",
"o.	c #1D4B8D",
"p.	c #9C9F9C",
"q.	c #CECECD",
"r.	c #DFDFDF",
"s.	c #D3D4D3",
"t.	c #CDCECC",
"u.	c #949692",
"v.	c #3D69A8",
"w.	c #9EBDE4",
"x.	c #95B4DC",
"y.	c #507BB2",
"z.	c #2C578F",
"A.	c #4A79B6",
"B.	c #234F8F",
"C.	c #ADAEAC",
"D.	c #CBCBCB",
"E.	c #C0C0C0",
"F.	c #C9C9C6",
"G.	c #C7C8C6",
"H.	c #2E5893",
"I.	c #6994CC",
"J.	c #3F72B3",
"K.	c #315D96",
"L.	c #4677B7",
"M.	c #2B5692",
"N.	c #2B2C29",
"O.	c #636461",
"P.	c #C5C6C4",
"Q.	c #C9CAC9",
"R.	c #888A86",
"S.	c #001B4D",
"T.	c #2C548D",
"U.	c #4E7CB7",
"V.	c #3D6FB1",
"W.	c #3B69A9",
"X.	c #042556",
"Y.	c #565754",
"Z.	c #454644",
"`.	c #04275F",
" +	c #2F578F",
".+	c #22477B",
"++	c #1B4178",
"@+	c #0B2855",
"                                            ",
"                                            ",
"            . + @ #                 $       ",
"            % & * =             - ; > ,     ",
"              ' ) ! @         ~ { ] ^ / $   ",
"      (         _ : <         [ } | 1 2     ",
"      3 4     5 6 7 8         9 0 a b       ",
"      c d 4 e f g h i       j k l m         ",
"      n o 7 p q r s t u v w x y z           ",
"      A B C D E F G H I J K y L             ",
"        M N O P Q R S T U V                 ",
"                W X Y Z `  ...              ",
"              +.@.#.$.%.&.*.=.-.;.          ",
"            >.,.'.).!.~.{.].^.h ..          ",
"          /.(._.:.<.[.  }.|.1.2.3.4.        ",
"      5.6.7.8.9.0.a.b.    c.d.e.2.f.g.      ",
"    h.i.j.k.l.m.n.o.        p.q.r.s.t.u.    ",
"    v.w.x.y.z.A.B.            C.D.E.F.G.    ",
"    H.I.J.K.L.M.              N.O.P.Q.R.    ",
"    S.T.U.V.W.X.                  Y.Z.      ",
"      `. +.+++                              ",
"          @+                                "};
