/* XPM */
static char * geda_name_tag_32x32_xpm[] = {
"32 32 359 2",
"  	c None",
". 	c #898D8A",
"+ 	c #929793",
"@ 	c #86908E",
"# 	c #6F7474",
"$ 	c #6C7070",
"% 	c #909A9B",
"& 	c #707476",
"* 	c #676E71",
"= 	c #ADB6B4",
"- 	c #5B87B3",
"; 	c #5682AE",
"> 	c #628AAF",
", 	c #638BB0",
"' 	c #6088AF",
") 	c #6089AF",
"! 	c #5D86AF",
"~ 	c #7898B2",
"{ 	c #C0C4BD",
"] 	c #636262",
"^ 	c #5F5F61",
"/ 	c #656363",
"( 	c #6895B5",
"_ 	c #D4EBFE",
": 	c #E7F7FC",
"< 	c #D5EBF7",
"[ 	c #E5F4FD",
"} 	c #E5F3FC",
"| 	c #E4F2FC",
"1 	c #E7F6FC",
"2 	c #EAF8FC",
"3 	c #BFDAE9",
"4 	c #8FB4C5",
"5 	c #8C9495",
"6 	c #676B6D",
"7 	c #524F51",
"8 	c #7A878C",
"9 	c #DADAD1",
"0 	c #94B5D1",
"a 	c #7FA7CC",
"b 	c #D2E4EE",
"c 	c #FFFFFF",
"d 	c #ECF1EC",
"e 	c #FAF8F4",
"f 	c #FBFEFF",
"g 	c #C0DAE6",
"h 	c #88ACC1",
"i 	c #8B9594",
"j 	c #5F6164",
"k 	c #5E5F62",
"l 	c #6B6B6A",
"m 	c #5B616A",
"n 	c #6589A6",
"o 	c #8FB4D2",
"p 	c #F3F9FE",
"q 	c #CFDCDE",
"r 	c #A4B2B6",
"s 	c #E9F1F4",
"t 	c #F7FCFD",
"u 	c #B6D2DF",
"v 	c #8FB2C5",
"w 	c #7794AB",
"x 	c #B7BBBA",
"y 	c #889192",
"z 	c #7399B6",
"A 	c #BCD8E8",
"B 	c #FDFFFF",
"C 	c #F7F9F9",
"D 	c #F2F4F4",
"E 	c #F8FFFF",
"F 	c #C6D4DA",
"G 	c #9EADB3",
"H 	c #DAE4E6",
"I 	c #B0CFE0",
"J 	c #92ACC1",
"K 	c #AFB5B1",
"L 	c #83AEC8",
"M 	c #F5FFFF",
"N 	c #E0EDF1",
"O 	c #D4E8F1",
"P 	c #FCFFFF",
"Q 	c #E4EFF3",
"R 	c #B8C4C5",
"S 	c #E0E6E4",
"T 	c #BBC9CE",
"U 	c #99A7AB",
"V 	c #DCE7EA",
"W 	c #E2F5FC",
"X 	c #98BFD8",
"Y 	c #7AA3C0",
"Z 	c #BEC0BC",
"` 	c #B0B5B1",
" .	c #82ACC7",
"..	c #E7EBEB",
"+.	c #E2E9EB",
"@.	c #F8FEFF",
"#.	c #C7D6DB",
"$.	c #A4AFAE",
"%.	c #DDDFDD",
"&.	c #F6FFFF",
"*.	c #B7C7CB",
"=.	c #9DABAE",
"-.	c #CFE1E6",
";.	c #DCF4FC",
">.	c #99BFD6",
",.	c #97AFBD",
"'.	c #81ACC7",
").	c #F4FFFF",
"!.	c #DFE3E2",
"~.	c #B0BABA",
"{.	c #DBE5E8",
"].	c #FBFFFF",
"^.	c #BFD2D8",
"/.	c #9AA5A5",
"(.	c #D3E0E0",
"_.	c #EAFEFF",
":.	c #B5C4C9",
"<.	c #9EAAAD",
"[.	c #D0E1E7",
"}.	c #CDEDF7",
"|.	c #98BFD7",
"1.	c #7FA5BE",
"2.	c #C7C9C0",
"3.	c #FDFDFC",
"4.	c #F7F8F5",
"5.	c #CDD2D2",
"6.	c #9BA8AC",
"7.	c #D5E3E9",
"8.	c #F8FDFE",
"9.	c #B9CFD6",
"0.	c #8FA4AB",
"a.	c #C4DDE3",
"b.	c #E6FBFF",
"c.	c #AFBFC4",
"d.	c #93A0A4",
"e.	c #C8E0E6",
"f.	c #CFEFFA",
"g.	c #93BBD1",
"h.	c #8AA2B3",
"i.	c #C9CBC3",
"j.	c #F6F7F7",
"k.	c #B8C3C3",
"l.	c #DBE3E4",
"m.	c #FEFFFF",
"n.	c #B8C5C9",
"o.	c #96A4A8",
"p.	c #D9E6EC",
"q.	c #EEFDFD",
"r.	c #ABC5CF",
"s.	c #8FA6AB",
"t.	c #C2DDE6",
"u.	c #D4F1F9",
"v.	c #9EB1B6",
"w.	c #919DA0",
"x.	c #C1DBE3",
"y.	c #C2E4F1",
"z.	c #90B1C7",
"A.	c #8EA6B6",
"B.	c #C9CBC2",
"C.	c #84AFC7",
"D.	c #F9FFFF",
"E.	c #FBFCFD",
"F.	c #C6D7DD",
"G.	c #A1B2B9",
"H.	c #D7E4E7",
"I.	c #B6C2C5",
"J.	c #98A5A9",
"K.	c #D1E2E9",
"L.	c #E4FBFC",
"M.	c #A5BEC7",
"N.	c #8BA0A7",
"O.	c #BBDAE4",
"P.	c #C7E9F3",
"Q.	c #94A8AE",
"R.	c #8A979C",
"S.	c #BBD6E1",
"T.	c #BDE0ED",
"U.	c #88ACC2",
"V.	c #97ACB9",
"W.	c #C7C8C2",
"X.	c #588BB6",
"Y.	c #C6E2F3",
"Z.	c #C2D0D5",
"`.	c #9BA9AE",
" +	c #D9E6E7",
".+	c #EBFDFF",
"++	c #ADBCC2",
"@+	c #9AA6AA",
"#+	c #CCE0E6",
"$+	c #D3F1F9",
"%+	c #9FB9C1",
"&+	c #8DA4AB",
"*+	c #B8D9E4",
"=+	c #C1E4F0",
"-+	c #8EA2A9",
";+	c #8B989C",
">+	c #B5D2DB",
",+	c #B6D9E6",
"'+	c #83A7BF",
")+	c #9EB1BA",
"!+	c #C0C4C0",
"~+	c #7B99B4",
"{+	c #5A8FBD",
"]+	c #BDDDEC",
"^+	c #F8FDFF",
"/+	c #F0F8FA",
"(+	c #B3C1C5",
"_+	c #98A6AB",
":+	c #CBDDE5",
"<+	c #DEF5FE",
"[+	c #ABBCC2",
"}+	c #98A6A8",
"|+	c #BDD7DF",
"1+	c #C6E9F5",
"2+	c #9CB6BF",
"3+	c #90A5AC",
"4+	c #B7D8E3",
"5+	c #B6DAE6",
"6+	c #98B0B8",
"7+	c #AFCCD6",
"8+	c #B0D6E5",
"9+	c #6F9FC4",
"0+	c #7598B3",
"a+	c #98ADB7",
"b+	c #D3D2C4",
"c+	c #819EB5",
"d+	c #568DBB",
"e+	c #9EC5DF",
"f+	c #E1F6FE",
"g+	c #E7F8FA",
"h+	c #AEBDC1",
"i+	c #9BA7AB",
"j+	c #C4DBE2",
"k+	c #D4EFF8",
"l+	c #AABCC2",
"m+	c #93A2A6",
"n+	c #B8D4DC",
"o+	c #C3E4EF",
"p+	c #99AAAF",
"q+	c #8CA1A9",
"r+	c #B2D4DE",
"s+	c #B8DDE9",
"t+	c #A6C9D8",
"u+	c #6D99BD",
"v+	c #5A90BF",
"w+	c #B2C4CA",
"x+	c #D9D7C9",
"y+	c #CCCDC3",
"z+	c #8AA5B7",
"A+	c #4982B5",
"B+	c #97BFDC",
"C+	c #DDF5FB",
"D+	c #D9F3F9",
"E+	c #ACBFC2",
"F+	c #93A1A5",
"G+	c #BAD2D9",
"H+	c #CBEAF3",
"I+	c #A3B9C0",
"J+	c #93A2A8",
"K+	c #B3CED6",
"L+	c #B5D6E1",
"M+	c #8CAABB",
"N+	c #A0B2B8",
"O+	c #ADD0DF",
"P+	c #6691B5",
"Q+	c #5282B1",
"R+	c #98B4C6",
"S+	c #E2E6DA",
"T+	c #C4C9C1",
"U+	c #8FA7B9",
"V+	c #4881B6",
"W+	c #92BDD8",
"X+	c #D1EEF7",
"Y+	c #D6F4FA",
"Z+	c #A4B7BD",
"`+	c #8A989C",
" @	c #B5CFD8",
".@	c #C4E5F1",
"+@	c #96B2C2",
"@@	c #899EA7",
"#@	c #AED0DB",
"$@	c #B8DCE9",
"%@	c #A7C5D0",
"&@	c #6793B7",
"*@	c #437AB1",
"=@	c #86A5C3",
"-@	c #B7C0C1",
";@	c #7C9CB8",
">@	c #457FB5",
",@	c #96BFD9",
"'@	c #CBE9F3",
")@	c #C9EAF6",
"!@	c #A7BDC3",
"~@	c #8E9B9F",
"{@	c #B2CCD5",
"]@	c #BADEEA",
"^@	c #96B7C9",
"/@	c #ADCEDB",
"(@	c #AACCDB",
"_@	c #6690B5",
":@	c #3E77B1",
"<@	c #99B1C6",
"[@	c #EAE4D3",
"}@	c #BBC2C3",
"|@	c #7597B7",
"1@	c #467FB5",
"2@	c #93BFD8",
"3@	c #C4E5F0",
"4@	c #C5E7F3",
"5@	c #99B1B9",
"6@	c #869498",
"7@	c #AEC9D1",
"8@	c #BFE2EC",
"9@	c #ABCFDF",
"0@	c #6C9EC6",
"a@	c #3D76AF",
"b@	c #98B1C7",
"c@	c #EFE8D3",
"d@	c #C3C7C3",
"e@	c #6B91B5",
"f@	c #4880B6",
"g@	c #92BCD5",
"h@	c #BADDE8",
"i@	c #B9DCE9",
"j@	c #96AEB5",
"k@	c #95A6AC",
"l@	c #ADCFDC",
"m@	c #70A2CA",
"n@	c #3D77AF",
"o@	c #96B0C6",
"p@	c #EFE7D3",
"q@	c #C8C9C4",
"r@	c #658EB4",
"s@	c #8DB7D2",
"t@	c #B6D8E4",
"u@	c #BBDEEA",
"v@	c #ABD1E3",
"w@	c #6EA0C7",
"x@	c #467BAF",
"y@	c #8DA7BF",
"z@	c #ECE6D3",
"A@	c #C4C9C4",
"B@	c #4680B6",
"C@	c #8CB7D2",
"D@	c #A7CCDB",
"E@	c #6FA0C7",
"F@	c #4C80B3",
"G@	c #8CA5BA",
"H@	c #C3C8C3",
"I@	c #7598B7",
"J@	c #4A82B7",
"K@	c #598FBE",
"L@	c #5687B5",
"M@	c #87A2B8",
"N@	c #BEC3C2",
"O@	c #3F75B0",
"P@	c #1F61A7",
"Q@	c #7195B7",
"R@	c #C0C4C3",
"                                                                ",
"                                                                ",
"                                                                ",
"                                                                ",
"      . +                                                       ",
"      @ # $                                                     ",
"      % & * = - ; > , ' ' ) ) ) ! ~ {                           ",
"        ] ^ / ( _ : < [ } | } 1 2 3 4                           ",
"        5 6 7 8 9 0 a b c c c d e f g h                         ",
"          i j k l m n o p c c q r s t u v                       ",
"              w x y z A B C D E F G H E I J                     ",
"            K L M N O P c Q R S c T U V W X Y Z                 ",
"            `  .M c c ..+.@.#.$.%.&.*.=.-.;.>.,.                ",
"              '.).c c !.~.{.].^./.(._.:.<.[.}.|.1.2.            ",
"              '.M 3.4.c 5.6.7.8.9.0.a.b.c.d.e.f.g.h.i.          ",
"              '.M j.k.l.m.n.o.p.q.r.s.t.u.v.w.x.y.z.A.B.        ",
"              C.D.E.F.G.H.D.I.J.K.L.M.N.O.P.Q.R.S.T.U.V.W.      ",
"              X.Y.m.B Z.`. +.+++@+#+$+%+&+*+=+-+;+>+,+'+)+!+    ",
"              ~+{+]+^+/+(+_+:+<+[+}+|+1+2+3+4+5+6+7+8+9+0+a+    ",
"              b+c+d+e+f+g+h+i+j+k+l+m+n+o+p+q+r+s+t+u+v+w+x+    ",
"                y+z+A+B+C+D+E+F+G+H+I+J+K+L+M+N+O+P+Q+R+S+      ",
"                  T+U+V+W+X+Y+Z+`+ @.@+@@@#@$@%@&@*@=@          ",
"                    -@;@>@,@'@)@!@~@{@]@^@/@(@_@:@<@[@          ",
"                      }@|@1@2@3@4@5@6@7@8@9@0@a@b@c@            ",
"                        d@e@f@g@h@i@j@k@l@m@n@o@p@              ",
"                          q@r@f@s@t@u@v@w@x@y@z@                ",
"                            A@e@B@C@D@E@F@G@                    ",
"                              H@I@J@K@L@M@                      ",
"                                N@O@P@Q@R@                      ",
"                                                                ",
"                                                                ",
"                                                                "};
