/* XPM */
static char * geda_sheets_32x32_xpm[] = {
"32 32 206 2",
"  	c None",
". 	c #6C6C6C",
"+ 	c #B4B4B4",
"@ 	c #B9B9B9",
"# 	c #BFBFBF",
"$ 	c #C4C4C4",
"% 	c #D5D5D5",
"& 	c #DADADA",
"* 	c #DDDDDD",
"= 	c #E3E3E3",
"- 	c #E7E7E7",
"; 	c #EAEAEA",
"> 	c #EDEDED",
", 	c #EFEFEF",
"' 	c #F0F0F0",
") 	c #F2F2F2",
"! 	c #F4F4F4",
"~ 	c #F3F3F3",
"{ 	c #F1F1F1",
"] 	c #EEEEEE",
"^ 	c #EBEBEB",
"/ 	c #E9E9E9",
"( 	c #D7D7D7",
"_ 	c #D3D3D3",
": 	c #CDCDCD",
"< 	c #C9C9C9",
"[ 	c #C2C2C2",
"} 	c #BEBEBE",
"| 	c #ACACAC",
"1 	c #A1A1A1",
"2 	c #2A4450",
"3 	c #26444C",
"4 	c #A2A2A2",
"5 	c #A0A0A0",
"6 	c #263F4B",
"7 	c #FFFFF4",
"8 	c #243D49",
"9 	c #29424D",
"0 	c #243E49",
"a 	c #223B46",
"b 	c #273F4B",
"c 	c #9E9E9E",
"d 	c #213843",
"e 	c #1F3844",
"f 	c #253D48",
"g 	c #9F9F9F",
"h 	c #1F3742",
"i 	c #1D343E",
"j 	c #243A45",
"k 	c #2A434E",
"l 	c #9D9D9D",
"m 	c #1C323E",
"n 	c #1B313B",
"o 	c #223842",
"p 	c #27404C",
"q 	c #1A303B",
"r 	c #192E37",
"s 	c #20353E",
"t 	c #273E49",
"u 	c #9C9C9C",
"v 	c #182C36",
"w 	c #172B35",
"x 	c #1F333D",
"y 	c #243C46",
"z 	c #9B9B9B",
"A 	c #162933",
"B 	c #1F313A",
"C 	c #999999",
"D 	c #15272F",
"E 	c #16242B",
"F 	c #152730",
"G 	c #1D3038",
"H 	c #223741",
"I 	c #9A9A9A",
"J 	c #989898",
"K 	c #14262E",
"L 	c #13252D",
"M 	c #1C2D34",
"N 	c #223640",
"O 	c #979797",
"P 	c #12222A",
"Q 	c #16242A",
"R 	c #17242B",
"S 	c #17252B",
"T 	c #16252C",
"U 	c #17252C",
"V 	c #17262C",
"W 	c #17272E",
"X 	c #18272E",
"Y 	c #19282E",
"Z 	c #18282F",
"` 	c #192830",
" .	c #1B2A32",
"..	c #1A2B33",
"+.	c #1B2B34",
"@.	c #1B2C34",
"#.	c #1C2C34",
"$.	c #1B2D35",
"%.	c #1C2D36",
"&.	c #20333C",
"*.	c #969696",
"=.	c #14232A",
"-.	c #1E323B",
";.	c #828282",
">.	c #8C8C8C",
",.	c #8E8E8E",
"'.	c #020506",
").	c #090E11",
"!.	c #152328",
"~.	c #919191",
"{.	c #152228",
"].	c #8F8F8F",
"^.	c #142025",
"/.	c #8D8D8D",
"(.	c #8A8A8A",
"_.	c #8B8B8B",
":.	c #888888",
"<.	c #131F24",
"[.	c #868686",
"}.	c #131E23",
"|.	c #878787",
"1.	c #838383",
"2.	c #142228",
"3.	c #848484",
"4.	c #152126",
"5.	c #7F7F7F",
"6.	c #142026",
"7.	c #808080",
"8.	c #131F25",
"9.	c #7B7B7B",
"0.	c #131F23",
"a.	c #7C7C7C",
"b.	c #787878",
"c.	c #080D0F",
"d.	c #070E0F",
"e.	c #121E24",
"f.	c #7A7A7A",
"g.	c #777777",
"h.	c #010203",
"i.	c #010101",
"j.	c #000101",
"k.	c #020304",
"l.	c #020405",
"m.	c #030506",
"n.	c #040607",
"o.	c #040708",
"p.	c #05070A",
"q.	c #06080B",
"r.	c #060A0C",
"s.	c #060B0C",
"t.	c #070C0D",
"u.	c #080D10",
"v.	c #090F10",
"w.	c #0A1012",
"x.	c #0A1013",
"y.	c #0A1113",
"z.	c #0B1115",
"A.	c #0C1315",
"B.	c #0E171B",
"C.	c #0F181C",
"D.	c #0F191C",
"E.	c #10191E",
"F.	c #0F1A1E",
"G.	c #111A20",
"H.	c #111C21",
"I.	c #121E22",
"J.	c #767676",
"K.	c #010001",
"L.	c #000001",
"M.	c #000000",
"N.	c #040709",
"O.	c #05080A",
"P.	c #05090B",
"Q.	c #060B0D",
"R.	c #070C0E",
"S.	c #080E11",
"T.	c #090F12",
"U.	c #0A1014",
"V.	c #0B1215",
"W.	c #0B1317",
"X.	c #0C1418",
"Y.	c #0E191D",
"Z.	c #0F1B1E",
"`.	c #111C1F",
" +	c #101D20",
".+	c #121D23",
"++	c #131F26",
"@+	c #494949",
"#+	c #898989",
"$+	c #B1B1B1",
"%+	c #BABABA",
"&+	c #C6C6C6",
"*+	c #CCCCCC",
"=+	c #D0D0D0",
"-+	c #D8D8D8",
";+	c #DCDCDC",
">+	c #E0E0E0",
",+	c #E4E4E4",
"'+	c #DFDFDF",
")+	c #DBDBDB",
"!+	c #B6B6B6",
"~+	c #B0B0B0",
"{+	c #A9A9A9",
"]+	c #A4A4A4",
"^+	c #909090",
"/+	c #4A4A4A",
". + @ # $ % & * = - ; > , ' ) ! ! ~ { ' ] ^ / ( _ : < [ } @ | . ",
"1 2 2 2 2 2 2 2 2 2 2 2 2 2 2 2 2 2 2 2 2 2 2 2 2 2 2 2 2 2 3 4 ",
"5 2 2 2 2 2 2 2 2 2 2 2 2 2 2 2 2 2 2 2 2 2 2 2 2 2 2 2 2 3 2 1 ",
"5 2 2 2 2 2 2 2 2 2 2 2 2 2 2 2 2 2 2 2 2 2 2 2 2 2 2 2 2 3 2 1 ",
"5 6 7 7 7 7 7 7 7 7 7 7 7 7 7 8 9 7 7 7 7 7 7 7 7 7 7 7 7 7 2 1 ",
"5 0 7 7 7 7 7 7 7 7 7 7 7 7 7 a b 7 7 7 7 7 7 7 7 7 7 7 7 7 2 1 ",
"c d 7 7 7 7 7 7 7 7 7 7 7 7 7 e f 7 7 7 7 7 7 7 7 7 7 7 7 7 2 g ",
"g h 7 7 7 7 7 7 7 7 7 7 7 7 7 i j 7 7 7 7 7 7 7 7 7 7 7 7 7 k g ",
"l m 7 7 7 7 7 7 7 7 7 7 7 7 7 n o 7 7 7 7 7 7 7 7 7 7 7 7 7 p c ",
"l q 7 7 7 7 7 7 7 7 7 7 7 7 7 r s 7 7 7 7 7 7 7 7 7 7 7 7 7 t l ",
"u v 7 7 7 7 7 7 7 7 7 7 7 7 7 w x 7 7 7 7 7 7 7 7 7 7 7 7 7 y u ",
"z w 7 7 7 7 7 7 7 7 7 7 7 7 7 A B 7 7 7 7 7 7 7 7 7 7 7 7 7 j u ",
"C D 7 7 7 7 7 7 7 7 E E E E 7 F G 7 7 7 7 7 7 7 7 E E E E 7 H I ",
"J K 7 7 7 7 7 7 7 7 7 7 7 7 7 L M 7 7 7 7 7 7 7 7 7 7 7 7 7 N C ",
"O P E Q E E R S S E T T U V S W W X X Y Z Z `  ...+.@.#.$.%.&.O ",
"*.=.P P P P P P P P P P P P P P P P P P P P P P P #.#.#.#.#.-.*.",
";.P E Q E E R S S E T T U V S W W X X Y Z Z `  ...+.@.#.$.%.&.>.",
",.'.7 7 7 7 7 7 7 7 7 7 7 7 7 ).).7 7 7 7 7 7 7 7 7 7 7 7 7 !.~.",
",.'.7 7 7 7 7 7 7 7 7 7 7 7 7 ).).7 7 7 7 7 7 7 7 7 7 7 7 7 {.].",
">.'.7 7 7 7 7 7 7 7 7 7 7 7 7 ).).7 7 7 7 7 7 7 7 7 7 7 7 7 ^./.",
"(.'.7 7 7 7 7 7 7 7 7 7 7 7 7 ).).7 7 7 7 7 7 7 7 7 7 7 7 7 ^._.",
":.'.7 7 7 7 7 7 7 7 7 7 7 7 7 ).).7 7 7 7 7 7 7 7 7 7 7 7 7 <.(.",
"[.'.7 7 7 7 7 7 7 7 7 7 7 7 7 ).).7 7 7 7 7 7 7 7 7 7 7 7 7 }.|.",
"1.'.7 7 7 7 7 7 7 7 7 7 7 7 7 ).).7 7 7 7 7 7 7 7 7 7 7 7 7 2.3.",
";.'.7 7 7 7 7 7 7 7 7 7 7 7 7 ).).7 7 7 7 7 7 7 7 7 7 7 7 7 4.1.",
"5.'.7 7 7 7 7 7 7 7 7 7 7 7 7 ).).7 7 7 7 7 7 7 7 7 7 7 7 7 6.7.",
"5.'.7 7 7 7 7 7 7 7 7 7 7 7 7 ).).7 7 7 7 7 7 7 7 7 7 7 7 7 8.7.",
"9.'.7 7 7 7 7 7 7 7 E E E E 7 ).).7 7 7 7 7 7 7 7 E E E E 7 0.a.",
"b.'.7 7 7 7 7 7 7 7 7 7 7 7 7 c.d.7 7 7 7 7 7 7 7 7 7 7 7 7 e.f.",
"g.h.i.j.i.k.l.m.n.o.p.q.r.s.t.c.u.v.w.x.y.z.A.B.C.D.E.F.G.H.I.b.",
"J.K.L.M.L.k.l.m.n.N.O.P.r.Q.R.c.S.T.y.U.V.W.X.Y.F.Z.`. +.+e.++g.",
"@+#+].J l $+%+# &+*+=+-+;+>+- > ' / ,+'+)+% =+!+~+{+]+u *.^+;./+"};
