/* XPM */
static char * geda_value_24x24_xpm[] = {
"24 24 238 2",
"  	c None",
". 	c #7DA123",
"+ 	c #789E23",
"@ 	c #2F6322",
"# 	c #568824",
"$ 	c #CCD621",
"% 	c #C3D222",
"& 	c #498329",
"* 	c #2E7128",
"= 	c #2F742A",
"- 	c #5C982B",
"; 	c #8FB627",
"> 	c #BDCF23",
", 	c #CED920",
"' 	c #C7D422",
") 	c #A2C125",
"! 	c #7FAC29",
"~ 	c #478E2E",
"{ 	c #22762F",
"] 	c #0C5F2C",
"^ 	c #1E702E",
"/ 	c #59982D",
"( 	c #A7C325",
"_ 	c #C9D622",
": 	c #C9D621",
"< 	c #C5D422",
"[ 	c #C0D223",
"} 	c #BBCE23",
"| 	c #B0C824",
"1 	c #A1BF25",
"2 	c #639D2D",
"3 	c #187634",
"4 	c #00522D",
"5 	c #005A32",
"6 	c #629E2C",
"7 	c #C6D422",
"8 	c #CBD821",
"9 	c #ACC120",
"0 	c #3E641F",
"a 	c #A3BF24",
"b 	c #AEC623",
"c 	c #427626",
"d 	c #93B123",
"e 	c #AAC625",
"f 	c #A3C125",
"g 	c #A4C226",
"h 	c #1C662B",
"i 	c #468B2F",
"j 	c #DBE01F",
"k 	c #D1DC20",
"l 	c #A3B921",
"m 	c #A1BE24",
"n 	c #ABC222",
"o 	c #5B8A24",
"p 	c #9CBD25",
"q 	c #9FC125",
"r 	c #327228",
"s 	c #004938",
"t 	c #B9CC23",
"u 	c #C7D521",
"v 	c #89B228",
"w 	c #397126",
"x 	c #9ABB25",
"y 	c #A5BF25",
"z 	c #669828",
"A 	c #96BA27",
"B 	c #2F7028",
"C 	c #589529",
"D 	c #C1D222",
"E 	c #C4D422",
"F 	c #C0D221",
"G 	c #B4CB23",
"H 	c #87B228",
"I 	c #5E8621",
"J 	c #90B525",
"K 	c #9DBB24",
"L 	c #357326",
"M 	c #89B327",
"N 	c #2E7129",
"O 	c #5C9629",
"P 	c #BBCE22",
"Q 	c #BDD022",
"R 	c #B7CD22",
"S 	c #B2C923",
"T 	c #B3C924",
"U 	c #B4CA24",
"V 	c #A6C324",
"W 	c #95B726",
"X 	c #679C28",
"Y 	c #2A6E27",
"Z 	c #ABC423",
"` 	c #B6CD23",
" .	c #B0C924",
"..	c #AAC524",
"+.	c #A4C225",
"@.	c #ABC625",
"#.	c #9FBF26",
"$.	c #98BB26",
"%.	c #3E7424",
"&.	c #698C20",
"*.	c #A3C425",
"=.	c #ADC724",
"-.	c #A4C125",
";.	c #9EBF26",
">.	c #97BB26",
",.	c #93B926",
"'.	c #93B826",
").	c #B0C825",
"!.	c #92B727",
"~.	c #4D8B2A",
"{.	c #275B22",
"].	c #4C7A21",
"^.	c #94B927",
"/.	c #9EBF25",
"(.	c #96BA26",
"_.	c #91B826",
":.	c #8CB427",
"<.	c #87B227",
"[.	c #82AE28",
"}.	c #8DB528",
"|.	c #8AB328",
"1.	c #478D2E",
"2.	c #104B21",
"3.	c #457822",
"4.	c #88B027",
"5.	c #8AB427",
"6.	c #83AF27",
"7.	c #7FAE29",
"8.	c #79AB29",
"9.	c #71A62B",
"0.	c #74A72A",
"a.	c #72A52A",
"b.	c #2D8232",
"c.	c #619027",
"d.	c #79A928",
"e.	c #7DAC28",
"f.	c #77AA29",
"g.	c #72A62A",
"h.	c #6DA32A",
"i.	c #66A02C",
"j.	c #6DA32B",
"k.	c #6AA12B",
"l.	c #0D6B33",
"m.	c #225920",
"n.	c #6AA02A",
"o.	c #6FA52B",
"p.	c #659F2A",
"q.	c #609C2C",
"r.	c #5A992B",
"s.	c #56962D",
"t.	c #4B8E2E",
"u.	c #004632",
"v.	c #086933",
"w.	c #065227",
"x.	c #619C2B",
"y.	c #4B8E2C",
"z.	c #58992C",
"A.	c #53952D",
"B.	c #4D922D",
"C.	c #468E2E",
"D.	c #116C32",
"E.	c #398731",
"F.	c #1C702F",
"G.	c #5A982B",
"H.	c #5D982B",
"I.	c #002D1F",
"J.	c #488A2B",
"K.	c #52952E",
"L.	c #4C912D",
"M.	c #478E2F",
"N.	c #3E892E",
"O.	c #26792F",
"P.	c #6FA42A",
"Q.	c #51932D",
"R.	c #54952C",
"S.	c #58952B",
"T.	c #185522",
"U.	c #41882D",
"V.	c #3F8A2E",
"W.	c #37852F",
"X.	c #166F30",
"Y.	c #659E2A",
"Z.	c #71A52B",
"`.	c #2C772C",
" +	c #4D902D",
".+	c #51912C",
"++	c #1F551F",
"@+	c #3D862D",
"#+	c #3E8A30",
"$+	c #388630",
"%+	c #2F802F",
"&+	c #5F9B2B",
"*+	c #70A52A",
"=+	c #67A02C",
"-+	c #5F9629",
";+	c #689726",
">+	c #38611E",
",+	c #488C2D",
"'+	c #488E2D",
")+	c #356E26",
"!+	c #679B29",
"~+	c #48912E",
"{+	c #348430",
"]+	c #318331",
"^+	c #1A6D2E",
"/+	c #5C9B2C",
"(+	c #68A12A",
"_+	c #69A12B",
":+	c #83AF29",
"<+	c #99BB26",
"[+	c #D6DD20",
"}+	c #69A22B",
"|+	c #52952D",
"1+	c #AFC724",
"2+	c #3A8730",
"3+	c #2D8131",
"4+	c #1B6D2D",
"5+	c #3D842D",
"6+	c #58962B",
"7+	c #54962C",
"8+	c #56972D",
"9+	c #669F2B",
"0+	c #78A92A",
"a+	c #50942D",
"b+	c #438C2E",
"c+	c #5F9C2D",
"d+	c #378630",
"e+	c #267A31",
"f+	c #19682C",
"g+	c #1B5A24",
"h+	c #2A762C",
"i+	c #317B2D",
"j+	c #2E722A",
"k+	c #35842F",
"l+	c #10642D",
"m+	c #0E5828",
"n+	c #1F6C2D",
"o+	c #206D2D",
"                      . +                       ",
"                  @ # $ % & *                   ",
"              = - ; > , ' ) ! ~ { ]             ",
"            ^ / ( _ : < [ } | 1 2 3 4           ",
"          5 6 7 8 9 0 a b c d e f g h           ",
"          i j k l     m n     o p q r           ",
"        s t 8 u v w   x y       z A B           ",
"        C D E F G H I J K       L M N           ",
"        O P Q R S T U V W         X Y           ",
"          Z `  ...+.@.#.$.K %.                  ",
"          &.*.=.-.;.>.,.'.).!.~.{.              ",
"            ].^./.(._.:.<.[.}.|.1.2.            ",
"              3.4.; 5.6.7.8.9.0.a.b.            ",
"                  c.d.e.f.g.h.i.j.k.l.          ",
"                    m.n.g.o.p.q.r.s.t.u.        ",
"          v.w.        x.p.y.q.z.A.B.C.D.        ",
"          E.F.        G.H.I.J.K.L.M.N.O.        ",
"          P.Q.        R.S.  T.U.C.V.W.X.        ",
"          Y.Z.`.       +.+  ++@+#+$+%+          ",
"          &+*+=+-+;+>+,+'+)+!+~+{+]+^+          ",
"          /+(+_+:+<+[+}+|+1+P.2+3+4+            ",
"          5+6+7+8+9+0+a+b+c+d+e+f+              ",
"              g+h+i+j+$+k+l+m+                  ",
"                      n+o+                      "};
