/* XPM */
static char * geda_find_26x26_xpm[] = {
"26 26 409 2",
"  	c None",
". 	c #3A3534",
"+ 	c #2A3232",
"@ 	c #28231C",
"# 	c #312B24",
"$ 	c #232724",
"% 	c #162425",
"& 	c #1A2123",
"* 	c #1E1F1C",
"= 	c #29241C",
"- 	c #322B22",
"; 	c #152C32",
"> 	c #102026",
", 	c #253332",
"' 	c #2A211A",
") 	c #2E2E2D",
"! 	c #252F32",
"~ 	c #1D3541",
"{ 	c #243940",
"] 	c #20211D",
"^ 	c #342B21",
"/ 	c #3A322C",
"( 	c #223037",
"_ 	c #12272D",
": 	c #1F3031",
"< 	c #2F2B26",
"[ 	c #2D241D",
"} 	c #35302C",
"| 	c #2C2F2D",
"1 	c #1D323C",
"2 	c #0C181B",
"3 	c #201C18",
"4 	c #43382E",
"5 	c #3D352D",
"6 	c #242F30",
"7 	c #12232A",
"8 	c #162525",
"9 	c #3E3024",
"0 	c #232016",
"a 	c #362B1F",
"b 	c #25221C",
"c 	c #332F28",
"d 	c #151612",
"e 	c #282414",
"f 	c #1D3338",
"g 	c #0A1314",
"h 	c #142A31",
"i 	c #131F20",
"j 	c #1D1D16",
"k 	c #111F1F",
"l 	c #0C1C21",
"m 	c #273331",
"n 	c #272B2B",
"o 	c #353331",
"p 	c #2B231C",
"q 	c #372E1F",
"r 	c #0C0E0B",
"s 	c #2A221C",
"t 	c #243139",
"u 	c #0B1B20",
"v 	c #070E0F",
"w 	c #091314",
"x 	c #1A1B14",
"y 	c #222823",
"z 	c #272D2B",
"A 	c #262F31",
"B 	c #1F3644",
"C 	c #1D3037",
"D 	c #46372D",
"E 	c #5B4637",
"F 	c #23272F",
"G 	c #142F3D",
"H 	c #112736",
"I 	c #0D1D22",
"J 	c #070807",
"K 	c #27211A",
"L 	c #162F3B",
"M 	c #0F3442",
"N 	c #000000",
"O 	c #121310",
"P 	c #1F1E18",
"Q 	c #221F17",
"R 	c #201C17",
"S 	c #151311",
"T 	c #090F0E",
"U 	c #0D1515",
"V 	c #131C1E",
"W 	c #4F4235",
"X 	c #211D18",
"Y 	c #322A21",
"Z 	c #4E3C2F",
"` 	c #282D30",
" .	c #192325",
"..	c #352B24",
"+.	c #725741",
"@.	c #5D4C36",
"#.	c #28281B",
"$.	c #221E16",
"%.	c #11272E",
"&.	c #13242A",
"*.	c #0F1617",
"=.	c #101412",
"-.	c #453529",
";.	c #3D322C",
">.	c #262927",
",.	c #122125",
"'.	c #111C1C",
").	c #122122",
"!.	c #2D251C",
"~.	c #372B26",
"{.	c #4C3D2E",
"].	c #262C2E",
"^.	c #151C1E",
"/.	c #1B1C17",
"(.	c #28211E",
"_.	c #1F1B16",
":.	c #1D1A17",
"<.	c #181C1F",
"[.	c #101E25",
"}.	c #061115",
"|.	c #040504",
"1.	c #0C0C09",
"2.	c #332E23",
"3.	c #302C20",
"4.	c #21282A",
"5.	c #172020",
"6.	c #101D1E",
"7.	c #16242B",
"8.	c #493E33",
"9.	c #251F1A",
"0.	c #3A2F27",
"a.	c #513D2F",
"b.	c #202626",
"c.	c #1C282D",
"d.	c #0E1312",
"e.	c #030705",
"f.	c #342B20",
"g.	c #372E28",
"h.	c #303131",
"i.	c #1C2E36",
"j.	c #0E1E25",
"k.	c #050C0A",
"l.	c #0E0E0B",
"m.	c #2E2720",
"n.	c #2F2823",
"o.	c #252727",
"p.	c #191D1E",
"q.	c #121B1C",
"r.	c #182223",
"s.	c #32291E",
"t.	c #26221A",
"u.	c #372E25",
"v.	c #543D32",
"w.	c #222225",
"x.	c #18252A",
"y.	c #121516",
"z.	c #0D0D0A",
"A.	c #342720",
"B.	c #2C2922",
"C.	c #272C2A",
"D.	c #1A2730",
"E.	c #0E1E27",
"F.	c #050F10",
"G.	c #0E0E0A",
"H.	c #2D271D",
"I.	c #2F2B24",
"J.	c #2A2622",
"K.	c #141E22",
"L.	c #0F1B1C",
"M.	c #182222",
"N.	c #29221C",
"O.	c #2D241F",
"P.	c #3A2F24",
"Q.	c #513F32",
"R.	c #222521",
"S.	c #1C292D",
"T.	c #111616",
"U.	c #10110D",
"V.	c #29251C",
"W.	c #3B3025",
"X.	c #1F2122",
"Y.	c #101C22",
"Z.	c #0C1518",
"`.	c #040B0A",
" +	c #0D0F09",
".+	c #2D271F",
"++	c #2E2A22",
"@+	c #262525",
"#+	c #161C1E",
"$+	c #101919",
"%+	c #192123",
"&+	c #241D1A",
"*+	c #352C25",
"=+	c #363021",
"-+	c #513E2F",
";+	c #1B1C1C",
">+	c #14252E",
",+	c #040908",
"'+	c #231D1A",
")+	c #171412",
"!+	c #0B100F",
"~+	c #0B0F0E",
"{+	c #0A1312",
"]+	c #171919",
"^+	c #373122",
"/+	c #3B3125",
"(+	c #292829",
"_+	c #101B19",
":+	c #0D191A",
"<+	c #132023",
"[+	c #281D19",
"}+	c #372B21",
"|+	c #2F251F",
"1+	c #4F4030",
"2+	c #2D2B29",
"3+	c #181C1C",
"4+	c #302B1F",
"5+	c #9B7F55",
"6+	c #907252",
"7+	c #4F3C30",
"8+	c #342420",
"9+	c #161A18",
"0+	c #0C1212",
"a+	c #0F0F0F",
"b+	c #0E1210",
"c+	c #3C3228",
"d+	c #4A352F",
"e+	c #2F2920",
"f+	c #0E1B1F",
"g+	c #132128",
"h+	c #203036",
"i+	c #26201D",
"j+	c #312A21",
"k+	c #25211B",
"l+	c #332C23",
"m+	c #22292F",
"n+	c #183040",
"o+	c #1F2425",
"p+	c #3A2A1F",
"q+	c #30281C",
"r+	c #48392A",
"s+	c #42332A",
"t+	c #0F1313",
"u+	c #070C0A",
"v+	c #070B08",
"w+	c #11120F",
"x+	c #27231C",
"y+	c #312920",
"z+	c #252526",
"A+	c #132B33",
"B+	c #10232D",
"C+	c #112632",
"D+	c #192525",
"E+	c #392E24",
"F+	c #231F1B",
"G+	c #282520",
"H+	c #322820",
"I+	c #362F25",
"J+	c #152E3F",
"K+	c #0D1F27",
"L+	c #080C0B",
"M+	c #060808",
"N+	c #4F3C31",
"O+	c #322423",
"P+	c #191B1E",
"Q+	c #13110E",
"R+	c #151610",
"S+	c #221F18",
"T+	c #2E2220",
"U+	c #2F261F",
"V+	c #221E19",
"W+	c #111716",
"X+	c #0A1010",
"Y+	c #08100F",
"Z+	c #3A2D20",
"`+	c #211E17",
" @	c #33281F",
".@	c #1E1A15",
"+@	c #100E0E",
"@@	c #0B0A07",
"#@	c #0E0C06",
"$@	c #181613",
"%@	c #1E1914",
"&@	c #221B14",
"*@	c #12110E",
"=@	c #0D100F",
"-@	c #0C1411",
";@	c #4A3C2A",
">@	c #2E251B",
",@	c #383023",
"'@	c #24201B",
")@	c #1C1A17",
"!@	c #0E1310",
"~@	c #1F201B",
"{@	c #442B25",
"]@	c #261F19",
"^@	c #292219",
"/@	c #1E1F17",
"(@	c #191E20",
"_@	c #171D1E",
":@	c #091313",
"<@	c #192528",
"[@	c #413225",
"}@	c #2E261D",
"|@	c #3B2E29",
"1@	c #292521",
"2@	c #222320",
"3@	c #131B1D",
"4@	c #151511",
"5@	c #3A2A21",
"6@	c #201C14",
"7@	c #272319",
"8@	c #1F1D1C",
"9@	c #171E1D",
"0@	c #141D1E",
"a@	c #0A100E",
"b@	c #1A2427",
"c@	c #3F2F29",
"d@	c #30281B",
"e@	c #3D3628",
"f@	c #2B2527",
"g@	c #212426",
"h@	c #151E20",
"i@	c #161515",
"j@	c #1D1E1E",
"k@	c #2D231D",
"l@	c #1A1812",
"m@	c #27201C",
"n@	c #161C19",
"o@	c #101A1A",
"p@	c #09100E",
"q@	c #162325",
"r@	c #312620",
"s@	c #352922",
"t@	c #3C3328",
"u@	c #2C2929",
"v@	c #282826",
"w@	c #162024",
"x@	c #131715",
"y@	c #191A18",
"z@	c #1F1D18",
"A@	c #151410",
"B@	c #1D1916",
"C@	c #131614",
"D@	c #131817",
"E@	c #101819",
"F@	c #08110F",
"G@	c #10191A",
"H@	c #2C241A",
"I@	c #382C20",
"J@	c #3A3127",
"K@	c #2E2923",
"L@	c #282928",
"M@	c #151E1F",
"N@	c #121819",
"O@	c #161511",
"P@	c #10120D",
"Q@	c #161715",
"R@	c #131413",
"S@	c #111714",
"T@	c #0D1516",
"U@	c #091210",
"V@	c #0B1112",
"W@	c #262018",
"X@	c #342B24",
"Y@	c #3D3227",
"Z@	c #2C2927",
"`@	c #1F2427",
" #	c #142022",
".#	c #0F1716",
"+#	c #161818",
"@#	c #12100D",
"##	c #0C0D0C",
"$#	c #131411",
"%#	c #121511",
"&#	c #101616",
"*#	c #0D1616",
"=#	c #091114",
"-#	c #0A1111",
";#	c #1A1B11",
">#	c #342B1F",
",#	c #423729",
"'#	c #1C1C1C",
")#	c #101316",
"!#	c #0C1312",
"~#	c #060C09",
"{#	c #0E100E",
"]#	c #0B0C09",
"^#	c #070907",
"/#	c #0F0F0E",
"(#	c #0A0D0B",
"_#	c #070C0B",
":#	c #070D09",
"<#	c #060B0A",
"[#	c #050908",
"}#	c #191711",
"|#	c #2C251D",
"1#	c #382D25",
"2#	c #181717",
"3#	c #0D1110",
"4#	c #0C100F",
"5#	c #171816",
"6#	c #11110D",
"7#	c #0E100D",
"8#	c #070908",
"9#	c #090B0A",
"0#	c #0A0E0C",
"a#	c #0E1413",
"b#	c #0D1313",
"                                . +                 ",
"            @ # $ % &       * = - ; > ,             ",
"            ' ) ! ~ {       ] ^ / ( _ :             ",
"          < [ } | 1 2       3 4 5 6 7 8             ",
"          9 0 a b c d e f g h i j k l m             ",
"            n o p q r s t u v w x y z A B C         ",
"        D E F G H I J K L M N O P Q R S T U V       ",
"    W X Y Z `  ...+.@.#.$.%.&.*.=.-.;.>.,.'.).      ",
"      !.~.{.].^./.(._.:.<.[.}.|.1.2.3.4.5.6.7.      ",
"    8.9.0.a.b.c.d.e.f.g.h.i.j.k.l.m.n.o.p.q.r.      ",
"    s.t.u.v.w.x.y.z.A.B.C.D.E.F.G.H.I.J.K.L.M.      ",
"    N.O.P.Q.R.S.T.U.V.W.X.Y.Z.`. +.+++@+#+$+%+      ",
"    &+*+=+-+;+>+,+N N '+)+!+~+{+]+^+/+(+_+:+<+      ",
"    [+}+|+1+2+3+4+5+6+7+8+9+0+a+b+c+d+e+f+Y.g+h+    ",
"    i+j+k+l+m+n+o+p+q+r+s+t+u+v+w+x+y+z+A+B+C+D+    ",
"  E+F+G+H+I+X.J+K+L+M+N+O+P+Q+R+S+T+U+V+W+X+Y+L+    ",
"  Z+`+ @.@+@@@#@                    $@%@&@*@=@-@    ",
"  ;@>@,@'@)@!@~@                  {@]@^@/@(@_@:@<@  ",
"  [@}@|@1@2@3@4@                  5@6@7@8@9@0@a@b@  ",
"  c@d@e@f@g@h@i@j@                k@l@m@j n@o@p@q@  ",
"  r@s@t@u@v@w@x@y@                z@A@B@C@D@E@F@G@  ",
"  H@I@J@K@L@M@N@y@                O@P@Q@R@S@T@U@V@  ",
"  W@X@Y@Z@`@ #.#+#                @###$#%#&#*#=#-#  ",
"  ;#>#,#'#)#!#~#{#                ]#^#/#(#_#:#<#[#  ",
"  }#|#1#2#3#-#4#5#                6#O 7#8#9#0#a#b#  ",
"                                                    "};
