/* XPM */
static char * geda_value_26x26_xpm[] = {
"26 26 341 2",
"  	c None",
". 	c #749C22",
"+ 	c #739C22",
"@ 	c #3B651E",
"# 	c #6BB833",
"$ 	c #244316",
"% 	c #C8D220",
"& 	c #C4D222",
"* 	c #185327",
"= 	c #6CB42D",
"- 	c #276324",
"; 	c #275F22",
"> 	c #1E6829",
", 	c #3C7A27",
"' 	c #578824",
") 	c #719A24",
"! 	c #B1D127",
"~ 	c #D4DC20",
"{ 	c #CBD722",
"] 	c #9CC327",
"^ 	c #659928",
"/ 	c #458128",
"( 	c #2C7129",
"_ 	c #13662C",
": 	c #04592C",
"< 	c #12642C",
"[ 	c #28742C",
"} 	c #619B2B",
"| 	c #A1C327",
"1 	c #C4D623",
"2 	c #CED720",
"3 	c #C7D521",
"4 	c #C2D222",
"5 	c #BDD022",
"6 	c #ADC825",
"7 	c #93BA28",
"8 	c #619E2D",
"9 	c #297C30",
"0 	c #065C2E",
"a 	c #004F2C",
"b 	c #01582D",
"c 	c #166B2E",
"d 	c #6CA42A",
"e 	c #B9CE23",
"f 	c #CCD720",
"g 	c #AFC622",
"h 	c #496D22",
"i 	c #ADC523",
"j 	c #B6CB23",
"k 	c #4F8126",
"l 	c #A8C523",
"m 	c #B2C823",
"n 	c #A3C126",
"o 	c #87B329",
"p 	c #45852B",
"q 	c #08592B",
"r 	c #003E2E",
"s 	c #065C33",
"t 	c #619A2C",
"u 	c #CDD920",
"v 	c #D1DB1F",
"w 	c #A3B920",
"x 	c #91AE20",
"y 	c #001A22",
"z 	c #A2C024",
"A 	c #AAC122",
"B 	c #001426",
"C 	c #84B022",
"D 	c #669223",
"E 	c #9FBE24",
"F 	c #ABC724",
"G 	c #6D9C26",
"H 	c #2A6D28",
"I 	c #003E36",
"J 	c #2E7030",
"K 	c #C0D222",
"L 	c #D7DE1F",
"M 	c #BCCF22",
"N 	c #7CA023",
"O 	c #306624",
"P 	c #A0C025",
"Q 	c #A4BC24",
"R 	c #000327",
"S 	c #346B23",
"T 	c #5F9126",
"U 	c #9BBE26",
"V 	c #679826",
"W 	c #2C6D28",
"X 	c #186732",
"Y 	c #68992A",
"Z 	c #D3DC20",
"` 	c #C6D521",
" .	c #BED021",
"..	c #85AE27",
"+.	c #578D27",
"@.	c #02120D",
"#.	c #93B524",
"$.	c #9EB925",
"%.	c #000427",
"&.	c #448128",
"*.	c #7FAC26",
"=.	c #649627",
"-.	c #296C28",
";.	c #659E28",
">.	c #90B625",
",.	c #C8D621",
"'.	c #BFD122",
").	c #BBCF21",
"!.	c #AFC823",
"~.	c #A1C226",
"{.	c #60821F",
"].	c #96B824",
"^.	c #97B524",
"/.	c #000325",
"(.	c #083D25",
"_.	c #407126",
":.	c #5C9428",
"<.	c #286D29",
"[.	c #367427",
"}.	c #739E24",
"|.	c #C4D422",
"1.	c #B8CD22",
"2.	c #B3CA22",
"3.	c #B0C823",
"4.	c #ADC724",
"5.	c #BAD024",
"6.	c #A3C224",
"7.	c #95B826",
"8.	c #4E7524",
"9.	c #366B21",
"0.	c #00241D",
"a.	c #4A7F28",
"b.	c #488427",
"c.	c #266A26",
"d.	c #001F26",
"e.	c #3B6125",
"f.	c #B7CF22",
"g.	c #B6CC23",
"h.	c #ACC623",
"i.	c #A7C324",
"j.	c #A4C124",
"k.	c #A6C224",
"l.	c #9BBD25",
"m.	c #96BA26",
"n.	c #BCCD22",
"o.	c #609124",
"p.	c #2C6825",
"q.	c #266524",
"r.	c #427F27",
"s.	c #739923",
"t.	c #8FB725",
"u.	c #ACCA24",
"v.	c #A9C424",
"w.	c #A0BF25",
"x.	c #9BBD24",
"y.	c #96B925",
"z.	c #91B725",
"A.	c #8EB525",
"B.	c #A5C125",
"C.	c #9CBB26",
"D.	c #689D29",
"E.	c #3D842C",
"F.	c #1C4718",
"G.	c #5A8722",
"H.	c #A3C425",
"I.	c #9DBE25",
"J.	c #94B825",
"K.	c #90B725",
"L.	c #8BB426",
"M.	c #87B326",
"N.	c #81AE27",
"O.	c #87B127",
"P.	c #8DB528",
"Q.	c #629F2D",
"R.	c #246A29",
"S.	c #01371D",
"T.	c #528D27",
"U.	c #629627",
"V.	c #8AB126",
"W.	c #8FB626",
"X.	c #89B327",
"Y.	c #82AE26",
"Z.	c #7FAD29",
"`.	c #79AB29",
" +	c #73A72A",
".+	c #75A829",
"++	c #7AAA28",
"@+	c #458E2F",
"#+	c #227D34",
"$+	c #125425",
"%+	c #3F7A27",
"&+	c #76A528",
"*+	c #7DAC27",
"=+	c #7EAC28",
"-+	c #78AA29",
";+	c #74A72A",
">+	c #6EA42A",
",+	c #669F2B",
"'+	c #6AA22A",
")+	c #7BAA29",
"!+	c #2D7D30",
"~+	c #066130",
"{+	c #075A2B",
"]+	c #044924",
"^+	c #609328",
"/+	c #3E7624",
"(+	c #70A329",
"_+	c #72A629",
":+	c #6EA52A",
"<+	c #68A02A",
"[+	c #629D2B",
"}+	c #59992C",
"|+	c #5E9A2B",
"1+	c #57992D",
"2+	c #10562A",
"3+	c #003625",
"4+	c #066A33",
"5+	c #055B2C",
"6+	c #044C25",
"7+	c #002C1D",
"8+	c #6AA229",
"9+	c #4D8F2B",
"0+	c #639E2B",
"a+	c #5C9A2B",
"b+	c #57972C",
"c+	c #4F932C",
"d+	c #52942C",
"e+	c #267931",
"f+	c #016235",
"g+	c #1D7933",
"h+	c #166D2F",
"i+	c #0F622C",
"j+	c #5D9B2C",
"k+	c #5F9A2B",
"l+	c #0B4625",
"m+	c #55962B",
"n+	c #55972C",
"o+	c #50942C",
"p+	c #4B902D",
"q+	c #478E2E",
"r+	c #307F2E",
"s+	c #23772F",
"t+	c #71A62A",
"u+	c #54952D",
"v+	c #23742E",
"w+	c #00512F",
"x+	c #57982C",
"y+	c #58932A",
"z+	c #001F21",
"A+	c #387F27",
"B+	c #3E812A",
"C+	c #4A912D",
"D+	c #448D2E",
"E+	c #408A2E",
"F+	c #2A7C2F",
"G+	c #1D742F",
"H+	c #6BA22A",
"I+	c #6FA52A",
"J+	c #367F2C",
"K+	c #0E5726",
"L+	c #51952D",
"M+	c #52902B",
"N+	c #002022",
"O+	c #1B591E",
"P+	c #2D6F28",
"Q+	c #448E2F",
"R+	c #3D892E",
"S+	c #3A882F",
"T+	c #1A6C2D",
"U+	c #055A2B",
"V+	c #619D2B",
"W+	c #6DA42A",
"X+	c #397A28",
"Y+	c #316F25",
"Z+	c #6DA72A",
"`+	c #3F581A",
" @	c #4A8F2D",
".@	c #4B8E2B",
"+@	c #002920",
"@@	c #34671E",
"#@	c #42872C",
"$@	c #3D892F",
"%@	c #378530",
"&@	c #2F8130",
"*@	c #16672C",
"=@	c #003925",
"-@	c #5E9C2C",
";@	c #65A02A",
">@	c #6FA42A",
",@	c #6DA32A",
"'@	c #6EA028",
")@	c #7AAB28",
"!@	c #6D871E",
"~@	c #50922D",
"{@	c #498F2D",
"]@	c #538325",
"^@	c #56982D",
"/@	c #358530",
"(@	c #2F8230",
"_@	c #1B6C2D",
":@	c #0F5D2B",
"<@	c #4F922C",
"[@	c #5B9A2C",
"}@	c #65A32C",
"|@	c #6DA62B",
"1@	c #7FAE29",
"2@	c #91B726",
"3@	c #C8D321",
"4@	c #488F2D",
"5@	c #ACC725",
"6@	c #6AA42C",
"7@	c #3F8D30",
"8@	c #1C6D2D",
"9@	c #12612B",
"0@	c #3F8A2F",
"a@	c #44842A",
"b@	c #447C25",
"c@	c #40832B",
"d@	c #498D2C",
"e@	c #56992E",
"f@	c #6EAD2E",
"g@	c #49902E",
"h@	c #3D892D",
"i@	c #50972F",
"j@	c #2B772C",
"k@	c #226C2B",
"l@	c #1C682B",
"m@	c #12602B",
"n@	c #3A6C20",
"o@	c #316320",
"p@	c #266D28",
"q@	c #389737",
"r@	c #2E6F26",
"s@	c #1A4118",
"t@	c #37842E",
"u@	c #35852F",
"v@	c #074F27",
"w@	c #1D7C32",
"x@	c #175524",
"y@	c #1C6A2D",
"z@	c #1E6C2D",
"                        . +                         ",
"                  @ # $ % & * = - ;                 ",
"              > , ' ) ! ~ { ] ^ / ( _ :             ",
"            < [ } | 1 2 3 4 5 6 7 8 9 0 a           ",
"          b c d e f g h i j k l m n o p q           ",
"        r s t u v w x y z A B C D E F G H           ",
"        I J K L M N O   P Q R   S T U V W           ",
"        X Y Z `  ...+.@.#.$.%.    &.*.=.-.          ",
"        ;.>.,.'.).!.~.{.].^./.    (._.:.<.          ",
"        [.}.|.1.2.3.4.5.6.7.8.9.0.  a.b.c.          ",
"        d.e.f.g.h.i.j.k.l.m.n.o.p.q.  r.            ",
"          s.t.u.v.w.x.y.z.A.B.C.D.E.                ",
"            F.G.H.I.J.K.L.M.N.O.P.Q.R.S.            ",
"              T.U.V.W.X.Y.Z.`. +.+++@+#+            ",
"                $+%+&+*+=+-+;+>+,+'+)+!+~+          ",
"            {+]+    ^+/+(+_+:+<+[+}+|+1+2+3+        ",
"          4+5+6+      7+} 8+9+0+a+b+c+d+e+f+        ",
"          g+h+i+        j+k+l+m+n+o+p+q+r+s+        ",
"          t+u+v+w+      x+y+z+A+B+C+D+E+F+G+        ",
"          H+I+J+K+      L+M+N+O+P+Q+R+S+T+U+        ",
"          V+W+,+X+Y+Z+`+ @.@+@@@#@$@%@&@*@=@        ",
"          -@;@>@,@'@)@!@~@{@]@'@^@/@(@_@:@          ",
"          <@[@}@|@1@2@3@a+4@5@6@7@9 8@9@            ",
"          0@a@b@c@d@e@f@g@h@i@j@k@l@m@              ",
"            n@o@p@q@r@s@t@u@v@w@x@                  ",
"                        y@z@                        "};
