/* XPM */
static char * geda_name_tag_28x28_xpm[] = {
"28 28 312 2",
"  	c None",
". 	c #878A87",
"+ 	c #8F938F",
"@ 	c #A9AFA9",
"# 	c #87908D",
"$ 	c #818886",
"% 	c #727675",
"& 	c #03020A",
"* 	c #919C9D",
"= 	c #818889",
"- 	c #656A6D",
"; 	c #A9B0AC",
"> 	c #5E88B3",
", 	c #4C79A7",
"' 	c #5882A9",
") 	c #557FA8",
"! 	c #5580A8",
"~ 	c #527DA9",
"{ 	c #839DB0",
"] 	c #CCCABD",
"^ 	c #646463",
"/ 	c #5F5F60",
"( 	c #676261",
"_ 	c #6390B0",
": 	c #D2E9FD",
"< 	c #E1F2F8",
"[ 	c #D5EAF6",
"} 	c #DFEFF9",
"| 	c #DDEDF8",
"1 	c #E0F1F8",
"2 	c #E1F1F8",
"3 	c #AFCDDE",
"4 	c #8BAFBF",
"5 	c #929A9B",
"6 	c #767D7E",
"7 	c #524F51",
"8 	c #747F84",
"9 	c #D5D5CD",
"0 	c #85A9CA",
"a 	c #92B5D3",
"b 	c #ECF4F7",
"c 	c #FFFFFF",
"d 	c #EBF0EB",
"e 	c #F7F5F1",
"f 	c #F4FAFD",
"g 	c #ABC9D8",
"h 	c #83A8BD",
"i 	c #939E9C",
"j 	c #676A6C",
"k 	c #5F646A",
"l 	c #6E6F6E",
"m 	c #5C6670",
"n 	c #6E97B6",
"o 	c #C4DAEB",
"p 	c #FEFFFF",
"q 	c #D7E3E5",
"r 	c #A3B2B7",
"s 	c #E4ECEE",
"t 	c #EAF4F7",
"u 	c #A7C5D5",
"v 	c #8EAFC3",
"w 	c #EDE7D2",
"x 	c #7A9FB9",
"y 	c #D1D7D5",
"z 	c #9FAEB3",
"A 	c #A4C3D7",
"B 	c #EFF8FC",
"C 	c #F7FAFB",
"D 	c #DEE3E4",
"E 	c #F5FBFA",
"F 	c #D8E2E7",
"G 	c #A0AFB5",
"H 	c #D7E0E1",
"I 	c #E3F3F9",
"J 	c #9EBCD1",
"K 	c #7BA2BF",
"L 	c #BFC0BB",
"M 	c #B2B5AF",
"N 	c #81ACC6",
"O 	c #FCFFFF",
"P 	c #F3FAFD",
"Q 	c #F1F8F9",
"R 	c #F5F7F7",
"S 	c #F4FAFC",
"T 	c #C1CFD3",
"U 	c #BCC5C3",
"V 	c #F6F6F4",
"W 	c #D0DDE0",
"X 	c #A2B1B5",
"Y 	c #CFDEE1",
"Z 	c #CCE8F4",
"` 	c #8AB3CE",
" .	c #A9B6BB",
"..	c #BDB7AA",
"+.	c #7EA9C4",
"@.	c #F8FFFF",
"#.	c #F7F8F7",
"$.	c #C8D0CF",
"%.	c #D9E2E4",
"&.	c #B2C3C8",
"*.	c #AEB5B4",
"=.	c #E9F5F5",
"-.	c #CBDCDF",
";.	c #A3B0B4",
">.	c #CEDEE2",
",.	c #C6E6F2",
"'.	c #94B7CD",
").	c #7FA3BB",
"!.	c #D4D0C1",
"~.	c #7DA9C5",
"{.	c #FEFDFC",
"].	c #FEFEFC",
"^.	c #E1E4E4",
"/.	c #A7B1B4",
"(.	c #D4E1E6",
"_.	c #F2F9FA",
":.	c #ABC1C7",
"<.	c #9FB3B8",
"[.	c #DAF2F7",
"}.	c #C6D7DB",
"|.	c #9AA6AA",
"1.	c #C5DCE2",
"2.	c #C9EAF7",
"3.	c #8AB2C9",
"4.	c #9DADB4",
"5.	c #D6D3C6",
"6.	c #EBEDED",
"7.	c #C0CACA",
"8.	c #F4F7F7",
"9.	c #CFD8DB",
"0.	c #96A4A8",
"a.	c #D8E5EB",
"b.	c #EAFAFA",
"c.	c #9EB8C2",
"d.	c #9FB7BD",
"e.	c #D3EFF8",
"f.	c #AFC5CB",
"g.	c #909C9F",
"h.	c #C1DBE3",
"i.	c #BDE0EE",
"j.	c #8AA9BF",
"k.	c #A4B3B9",
"l.	c #D2D1C3",
"m.	c #7EAAC4",
"n.	c #FBFFFF",
"o.	c #F4F7F8",
"p.	c #B5C7CE",
"q.	c #B4C4CA",
"r.	c #F4FBFC",
"s.	c #C7D2D4",
"t.	c #96A3A7",
"u.	c #D0E1E8",
"v.	c #DCF4F6",
"w.	c #97AFB8",
"x.	c #9EB7BF",
"y.	c #C8EAF5",
"z.	c #9FB7BE",
"A.	c #879498",
"B.	c #BAD5E0",
"C.	c #B5D9E7",
"D.	c #87A8BC",
"E.	c #AFB9BD",
"F.	c #CACAC2",
"G.	c #5687B2",
"H.	c #B5D5EB",
"I.	c #F3F7F8",
"J.	c #ACBABF",
"K.	c #B7C4C7",
"L.	c #E9FBFD",
"M.	c #BACAD1",
"N.	c #99A5A9",
"O.	c #C7DCE3",
"P.	c #C7E5EE",
"Q.	c #94ADB4",
"R.	c #A1BDC6",
"S.	c #C3E7F4",
"T.	c #97AFB7",
"U.	c #8A989D",
"V.	c #B8D6E0",
"W.	c #A5CBDD",
"X.	c #82A3B9",
"Y.	c #AEB9BC",
"Z.	c #BCC1BE",
"`.	c #9EAFB9",
" +	c #5B8CB7",
".+	c #A4CAE1",
"++	c #EBF7FC",
"@+	c #DFECEE",
"#+	c #A3B1B5",
"$+	c #AFBEC5",
"%+	c #DAF2FB",
"&+	c #B8CCD3",
"*+	c #99A8AB",
"=+	c #B7D2DA",
"-+	c #BBDCE7",
";+	c #94A9B0",
">+	c #A2BCC5",
",+	c #B8DDE9",
"'+	c #A3C0C9",
")+	c #ACCCD9",
"!+	c #86B3D1",
"~+	c #6D99BC",
"{+	c #A1B3BB",
"]+	c #B0BCBD",
"^+	c #E1DBC6",
"/+	c #A7B5BB",
"(+	c #608FB7",
"_+	c #84B2D5",
":+	c #DCF4FC",
"<+	c #D5E9ED",
"[+	c #A3B2B5",
"}+	c #A7B8BD",
"|+	c #CDE8F0",
"1+	c #B5CCD4",
"2+	c #96A8AD",
"3+	c #B4CED6",
"4+	c #B3CED6",
"5+	c #89A1AD",
"6+	c #A6BFC6",
"7+	c #B7DCE9",
"8+	c #7BA4C1",
"9+	c #5C8BB6",
"0+	c #A6BFCC",
"a+	c #DDDDD0",
"b+	c #E5DDC8",
"c+	c #D1D0C3",
"d+	c #AAB8BC",
"e+	c #618EB6",
"f+	c #81AFD2",
"g+	c #D0EEF7",
"h+	c #D0EBF0",
"i+	c #9BACB1",
"j+	c #98A9AE",
"k+	c #C3E1EB",
"l+	c #ACC8D4",
"m+	c #8EA3AD",
"n+	c #A8C7D0",
"o+	c #ACCFDE",
"p+	c #AAC2C9",
"q+	c #7CA5C2",
"r+	c #487CB0",
"s+	c #769ABD",
"t+	c #D6DED5",
"u+	c #FBFBE7",
"v+	c #C0C6C1",
"w+	c #9EB1BC",
"x+	c #5386B5",
"y+	c #83B1D2",
"z+	c #CCEAF4",
"A+	c #C5E4EF",
"B+	c #9DB0B5",
"C+	c #98A8AE",
"D+	c #BBDBE6",
"E+	c #A0C2D1",
"F+	c #A2C2D0",
"G+	c #B5D6E1",
"H+	c #779EBC",
"I+	c #3E77B0",
"J+	c #99B1C5",
"K+	c #E4E0D2",
"L+	c #C0C5C3",
"M+	c #99ADBC",
"N+	c #4C80B3",
"O+	c #86B5D2",
"P+	c #C4E5F0",
"Q+	c #C2E3EE",
"R+	c #91A5AC",
"S+	c #92A4A9",
"T+	c #BADAE3",
"U+	c #B7DAE5",
"V+	c #7DABCC",
"W+	c #3B75AE",
"X+	c #98B1C6",
"Y+	c #F2EAD3",
"Z+	c #D1CFC5",
"`+	c #90A7BA",
" @	c #477DB2",
".@	c #88B4D0",
"+@	c #B9DCE7",
"@@	c #B4D6E2",
"#@	c #93A8AF",
"$@	c #A3BBC4",
"%@	c #84B2D1",
"&@	c #3F79B1",
"*@	c #96B0C5",
"=@	c #F4EAD3",
"-@	c #DCD5C7",
";@	c #88A3B9",
">@	c #81AECD",
",@	c #B5D8E4",
"'@	c #B7DCEA",
")@	c #82B1D2",
"!@	c #4F82B2",
"~@	c #7F9DBB",
"{@	c #EFE7D3",
"]@	c #D7D5C7",
"^@	c #4C82B4",
"/@	c #7BAACB",
"(@	c #82AECC",
"_@	c #5889B7",
":@	c #7D9BB7",
"<@	c #BEC1BB",
"[@	c #D1D1C5",
"}@	c #3772B0",
"|@	c #4079B1",
"1@	c #8AA4BA",
"2@	c #B7BEC0",
"3@	c #C1C4C2",
"4@	c #2C68AB",
"5@	c #2F6AA8",
"6@	c #A5B4BF",
"7@	c #D1CEC6",
"                                                        ",
"                                                        ",
"                                                        ",
"    . + @                                               ",
"    # $ % &                                             ",
"    * = - ; > , ' ' ) ! ! ! ~ { ]                       ",
"      ^ / ( _ : < [ } | | 1 2 3 4                       ",
"      5 6 7 8 9 0 a b c c d e f g h                     ",
"        i j k l m n o p c q r s t u v                   ",
"          w x y z A B C D E F G H I J K L               ",
"          M N O P Q R S T U V W X Y Z `  .              ",
"          ..+.@.c #.$.%.Q &.*.=.-.;.>.,.'.).!.          ",
"            ~.@.{.].^./.(._.:.<.[.}.|.1.2.3.4.5.        ",
"            ~.@.6.7.8.9.0.a.b.c.d.e.f.g.h.i.j.k.l.      ",
"            m.n.o.p.q.r.s.t.u.v.w.x.y.z.A.B.C.D.E.F.    ",
"            G.H.O I.J.K.L.M.N.O.P.Q.R.S.T.U.V.W.X.Y.Z.  ",
"            `. +.+++@+#+$+%+&+*+=+-+;+>+,+'+)+!+~+{+]+  ",
"            ^+/+(+_+:+<+[+}+|+1+2+3+4+5+6+7+8+9+0+a+b+  ",
"              c+d+e+f+g+h+i+j+k+l+m+n+o+p+q+r+s+t+u+    ",
"                v+w+x+y+z+A+B+C+D+E+F+G+H+I+J+K+        ",
"                  L+M+N+O+P+Q+R+S+T+U+V+W+X+Y+          ",
"                    Z+`+ @.@+@@@#@$@%@&@*@=@            ",
"                      -@;@ @>@,@'@)@!@~@{@              ",
"                        ]@`+^@/@(@_@:@<@                ",
"                          [@M+}@|@1@2@                  ",
"                            3@4@5@6@7@                  ",
"                                                        ",
"                                                        "};
