/* XPM */
static char * icon_glasses_28x18_xpm[] = {
"28 18 2 1",
" 	c None",
".	c #000000",
"                            ",
"                            ",
"                 ....       ",
"              .........     ",
"              ...........   ",
"..            ..     ...... ",
" ..                   ......",
" ...               ........ ",
" .....  ..............   .. ",
"  ..................     .. ",
"    .....      .....     .. ",
"      ...      .....    ..  ",
"       ..      ..  ..  ...  ",
"       ..     ...   .....   ",
"       ...   ...     ..     ",
"        .......             ",
"         ....               ",
"                            "};
