/* XPM */
static char * geda_name_tag_26x26_xpm[] = {
"26 26 316 2",
"  	c None",
". 	c #878A87",
"+ 	c #989C97",
"@ 	c #BBC2BA",
"# 	c #868A87",
"$ 	c #878B88",
"% 	c #919692",
"& 	c #8E938F",
"* 	c #000000",
"= 	c #8B9593",
"- 	c #899391",
"; 	c #7C8382",
"> 	c #55585A",
", 	c #373F4B",
"' 	c #528AC3",
") 	c #406E9C",
"! 	c #48759F",
"~ 	c #44719E",
"{ 	c #43729D",
"] 	c #43719D",
"^ 	c #416F9F",
"/ 	c #879DAC",
"( 	c #DAD1BE",
"_ 	c #8C9596",
": 	c #6C6F70",
"< 	c #737473",
"[ 	c #8498A7",
"} 	c #6A96C0",
"| 	c #8BACCA",
"1 	c #8DADC8",
"2 	c #88A9C6",
"3 	c #86A8C5",
"4 	c #88AAC6",
"5 	c #87A8C7",
"6 	c #93AEBF",
"7 	c #B4C0BC",
"8 	c #706F6F",
"9 	c #777B7B",
"0 	c #605F5F",
"a 	c #586169",
"b 	c #ABBFCA",
"c 	c #D2E5F1",
"d 	c #B8D4E9",
"e 	c #E4F2F9",
"f 	c #F6FCFF",
"g 	c #F6FDFF",
"h 	c #EFF8F6",
"i 	c #F9FEFC",
"j 	c #CEE2ED",
"k 	c #8CB2C5",
"l 	c #799FB6",
"m 	c #949D9E",
"n 	c #798080",
"o 	c #55575B",
"p 	c #7F7F7C",
"q 	c #76818A",
"r 	c #668BAB",
"s 	c #BAD1E3",
"t 	c #FBFCFD",
"u 	c #FFFFFF",
"v 	c #DEE7E6",
"w 	c #C2CACB",
"x 	c #F3F9FB",
"y 	c #C7DCE6",
"z 	c #8DB0C4",
"A 	c #8CACBF",
"B 	c #B9B9AD",
"C 	c #A4ADAC",
"D 	c #8A9BA6",
"E 	c #959C9C",
"F 	c #81A0B4",
"G 	c #CBDFED",
"H 	c #F7FBFC",
"I 	c #EBEDEE",
"J 	c #EFF7F7",
"K 	c #C0CDD3",
"L 	c #B4C0C5",
"M 	c #E5EEF0",
"N 	c #C3DBE7",
"O 	c #87AAC3",
"P 	c #96ACBB",
"Q 	c #CAC5BA",
"R 	c #CEC9BA",
"S 	c #A3B6BB",
"T 	c #B7D1E0",
"U 	c #EFF4F4",
"V 	c #DEEAEF",
"W 	c #F2F7F9",
"X 	c #FAFEFF",
"Y 	c #C6D3D6",
"Z 	c #C9D1CE",
"` 	c #F5F7F6",
" .	c #BDCBCF",
"..	c #AFBDC0",
"+.	c #D8EAEF",
"@.	c #AACDE2",
"#.	c #91ADBF",
"$.	c #BABCB7",
"%.	c #C1B7A7",
"&.	c #9FADB0",
"*.	c #B7D3E3",
"=.	c #FCFDFC",
"-.	c #D4DAD9",
";.	c #DBE4E5",
">.	c #EDF4F6",
",.	c #AFC0C4",
"'.	c #BABFBD",
").	c #EAF6F6",
"!.	c #BCCCCF",
"~.	c #AEBCC0",
"{.	c #D0E7EF",
"].	c #ABCEDF",
"^.	c #81A5BE",
"/.	c #B5BFBE",
"(.	c #E6D9C2",
"_.	c #76A0BB",
":.	c #B6D1E0",
"<.	c #E9EBEA",
"[.	c #ACB5B8",
"}.	c #D4E0E5",
"|.	c #EFF6F7",
"1.	c #A6BBC1",
"2.	c #A9BCC0",
"3.	c #DCF2F7",
"4.	c #B7C5C9",
"5.	c #A7B6BB",
"6.	c #CDE9F2",
"7.	c #A4CBDF",
"8.	c #90AAB8",
"9.	c #C8C9C0",
"0.	c #E2DBCA",
"a.	c #6D9DBD",
"b.	c #B7D2E1",
"c.	c #F9FBF9",
"d.	c #CAD1D1",
"e.	c #EBEFEE",
"f.	c #D7DFE1",
"g.	c #97A5A9",
"h.	c #D8E4EA",
"i.	c #E7F8F8",
"j.	c #99B3BD",
"k.	c #A8C1C7",
"l.	c #CFEAF3",
"m.	c #A0B1B6",
"n.	c #A3B3B8",
"o.	c #C5E5F0",
"p.	c #9BBDD2",
"q.	c #97ABB8",
"r.	c #C9CBC0",
"s.	c #D9D5C4",
"t.	c #6D9EBC",
"u.	c #B8D1DF",
"v.	c #C9D6DC",
"w.	c #ADBEC5",
"x.	c #ECF4F6",
"y.	c #CED9DA",
"z.	c #95A2A6",
"A.	c #CFE0E7",
"B.	c #D8F0F2",
"C.	c #93ABB5",
"D.	c #A7C3CB",
"E.	c #BFDFE9",
"F.	c #90A2A7",
"G.	c #9EB0B7",
"H.	c #BCDEEA",
"I.	c #92B6CA",
"J.	c #A1B2BB",
"K.	c #C6C7C1",
"L.	c #C8C8C1",
"M.	c #4E7FAA",
"N.	c #7BA5C8",
"O.	c #DBECF6",
"P.	c #FEFFFF",
"Q.	c #BFCACE",
"R.	c #ADBABE",
"S.	c #E4F5F8",
"T.	c #BFD0D8",
"U.	c #98A5A9",
"V.	c #C4DAE1",
"W.	c #C1DFE8",
"X.	c #93ADB4",
"Y.	c #ABC9D4",
"Z.	c #B5D6E1",
"`.	c #8C9FA5",
" +	c #A5BBC3",
".+	c #AED3E3",
"++	c #82A8C0",
"@+	c #A3B3BA",
"#+	c #B9BFBD",
"$+	c #B6BDBC",
"%+	c #85A1B5",
"&+	c #75A4C7",
"*+	c #C7E0EF",
"=+	c #E7F5F9",
"-+	c #B1C0C3",
";+	c #A6B4BB",
">+	c #D4EBF4",
",+	c #BCD2D9",
"'+	c #9AAAAD",
")+	c #B4CFD8",
"!+	c #B5D3DE",
"~+	c #95AAB1",
"{+	c #A8C5D0",
"]+	c #B1D3DE",
"^+	c #A8C7D3",
"/+	c #8AB4D0",
"(+	c #709DC1",
"_+	c #9FB3BD",
":+	c #B6C0BE",
"<+	c #EFE4C8",
"[+	c #D1D0C2",
"}+	c #88A3B6",
"|+	c #6798C0",
"1+	c #B4D7EB",
"2+	c #DBF2F8",
"3+	c #B0C2C5",
"4+	c #9FAFB3",
"5+	c #C3DCE3",
"6+	c #B8D1D9",
"7+	c #98ACB2",
"8+	c #AEC8D0",
"9+	c #A7C3CD",
"0+	c #95AEB8",
"a+	c #AFCDD7",
"b+	c #86B1CD",
"c+	c #5686B3",
"d+	c #9DB8C8",
"e+	c #E2E4D7",
"f+	c #EAE0CA",
"g+	c #DAD6C4",
"h+	c #C6C9C0",
"i+	c #86A2B6",
"j+	c #6294BE",
"k+	c #ACD2E7",
"l+	c #D5F2F8",
"m+	c #A8BEC4",
"n+	c #94A5A9",
"o+	c #B8D3DC",
"p+	c #AECCD8",
"q+	c #91ABB6",
"r+	c #ABCCD8",
"s+	c #AECDD9",
"t+	c #7DA3BD",
"u+	c #5485B4",
"v+	c #85A3BE",
"w+	c #C8D2CF",
"x+	c #FAFBE7",
"y+	c #C5C9C1",
"z+	c #BAC2C0",
"A+	c #7A9AB6",
"B+	c #5E91BE",
"C+	c #ABD1E4",
"D+	c #CAEBF5",
"E+	c #ABC3CB",
"F+	c #91A1A7",
"G+	c #ADC9D2",
"H+	c #ADCFDC",
"I+	c #ACCDDA",
"J+	c #82ADCA",
"K+	c #4C7FB1",
"L+	c #9AB1C4",
"M+	c #E3E0D2",
"N+	c #FFFED8",
"O+	c #C7C9C4",
"P+	c #C2C6C2",
"Q+	c #7395B5",
"R+	c #5A8FBC",
"S+	c #A7CEE0",
"T+	c #C3E5EF",
"U+	c #9EB8C2",
"V+	c #91A4A9",
"W+	c #B3D1DA",
"X+	c #89B7D4",
"Y+	c #4E84B7",
"Z+	c #99B0C3",
"`+	c #E9E4D2",
" @	c #FFFFD9",
".@	c #DFD8C7",
"+@	c #C9C9C3",
"@@	c #6D91B4",
"#@	c #588CBB",
"$@	c #9CC4D9",
"%@	c #BADCE6",
"&@	c #A8C6D2",
"*@	c #83ACC8",
"=@	c #5589B8",
"-@	c #8FA9C0",
";@	c #E8E3D2",
">@	c #FFFFD8",
",@	c #F1E1CA",
"'@	c #C6CAC3",
")@	c #7496B5",
"!@	c #558BBA",
"~@	c #95BFD6",
"{@	c #90BBD6",
"]@	c #5B8DBA",
"^@	c #809CB5",
"/@	c #C2C5C0",
"(@	c #FFFFE9",
"_@	c #E8E0CA",
":@	c #809FB8",
"<@	c #437CB5",
"[@	c #5588B7",
"}@	c #89A3B9",
"|@	c #B0B9BD",
"1@	c #DBCFB3",
"2@	c #DBD8C6",
"3@	c #B9BFC0",
"4@	c #2564A9",
"5@	c #4075AB",
"6@	c #B4BDC1",
"7@	c #D3CFC6",
"8@	c #C0C3C1",
"9@	c #2362A9",
"0@	c #3E73AA",
"a@	c #BAC0C2",
"                                                    ",
"                                                    ",
"    . + @                                           ",
"  # $ % & *                                         ",
"  = - ; > , ' ) ! ~ { { ] ^ / (                     ",
"    _ : < [ } | 1 2 3 3 4 5 6 7                     ",
"    8 9 0 a b c d e f g h i j k l                   ",
"      m n o p q r s t u v w x y z A                 ",
"        B C D E F G H I J K L M N O P Q             ",
"        R S T U V W X Y Z `  ...+.@.#.$.            ",
"        %.&.*.u =.-.;.>.,.'.).!.~.{.].^./.(.        ",
"          _.:.u u <.[.}.|.1.2.3.4.5.6.7.8.9.0.      ",
"          a.b.c.d.e.f.g.h.i.j.k.l.m.n.o.p.q.r.s.    ",
"          t.u.u v.w.x.y.z.A.B.C.D.E.F.G.H.I.J.K.L.  ",
"          M.N.O.P.Q.R.S.T.U.V.W.X.Y.Z.`. +.+++@+#+  ",
"          $+%+&+*+=+-+;+>+,+'+)+!+~+{+]+^+/+(+_+:+  ",
"          <+[+}+|+1+2+3+4+5+6+7+8+9+0+a+b+c+d+e+f+  ",
"            g+h+i+j+k+l+m+n+o+p+q+r+s+t+u+v+w+x+    ",
"              y+z+A+B+C+D+E+F+G+H+I+J+K+L+M+N+      ",
"                O+P+Q+R+S+T+U+V+W+X+Y+Z+`+ @        ",
"                  .@+@@@#@$@%@&@*@=@-@;@>@          ",
"                    ,@'@)@!@~@{@]@^@/@(@            ",
"                      _@'@:@<@[@}@|@1@              ",
"                        2@3@4@5@6@7@                ",
"                          8@9@0@a@                  ",
"                                                    "};
