/* XPM */
static char * geda_circle_32x32_xpm[] = {
"32 32 2 1",
" 	c None",
".	c #716DDE",
"                                ",
"               ...              ",
"          .............         ",
"        .................       ",
"        .................       ",
"       ......        .....      ",
"      ....             ....     ",
"     ....               .....   ",
"   .....                 .....  ",
"  .....                   ....  ",
"  ....                     .... ",
"  ....                     .... ",
"  ....                     .... ",
" ....                        .. ",
" ....                        .. ",
" ....                        ...",
" ....                        ...",
" ....                        ...",
" ....                        .. ",
" ....                        .. ",
" ....                        .. ",
"  ....                     .... ",
"  ....                     .... ",
"  .....                   ....  ",
"   .....                 .....  ",
"     ....               .....   ",
"      ....             ....     ",
"       ......        .....      ",
"       ......        .....      ",
"        .................       ",
"          .............         ",
"               ...              "};
