/* XPM */
static char * geda_circle_24x24_xpm[] = {
"24 24 2 1",
" 	c None",
".	c #716DDE",
"                        ",
"           ...          ",
"       ...........      ",
"      .............     ",
"     ....       ....    ",
"    ...           ...   ",
"  ....             ...  ",
"  ...               ... ",
"  ...               ... ",
" ...                 ...",
" ...                 ...",
" ...                 ...",
" ...                 ...",
" ...                 ...",
" ...                 .. ",
" ...                 .. ",
"  ...               ... ",
"  ...               ... ",
"   ...            ....  ",
"    ...           ...   ",
"     ....       ....    ",
"      .............     ",
"       ...........      ",
"           ...          "};
