/* XPM */
static char * geda_demote_48x48_xpm[] = {
"48 48 252 2",
"  	c None",
". 	c #000825",
"+ 	c #00082F",
"@ 	c #000D40",
"# 	c #000E4E",
"$ 	c #000F50",
"% 	c #001341",
"& 	c #000A28",
"* 	c #000720",
"= 	c #00051A",
"- 	c #000726",
"; 	c #00082C",
"> 	c #00092F",
", 	c #000A25",
"' 	c #000619",
") 	c #00217C",
"! 	c #000A2A",
"~ 	c #000922",
"{ 	c #000C30",
"] 	c #000E36",
"^ 	c #000E3A",
"/ 	c #000D35",
"( 	c #000823",
"_ 	c #003AC1",
": 	c #000E2B",
"< 	c #000C23",
"[ 	c #000F31",
"} 	c #001338",
"| 	c #00123C",
"1 	c #000F3C",
"2 	c #000B2B",
"3 	c #0040DA",
"4 	c #00102D",
"5 	c #000E23",
"6 	c #001330",
"7 	c #001536",
"8 	c #00163C",
"9 	c #001143",
"0 	c #0050F9",
"a 	c #000928",
"b 	c #00082A",
"c 	c #000B37",
"d 	c #001036",
"e 	c #001533",
"f 	c #000F37",
"g 	c #003FC7",
"h 	c #000827",
"i 	c #00072B",
"j 	c #000A39",
"k 	c #001532",
"l 	c #000E35",
"m 	c #000925",
"n 	c #003BBD",
"o 	c #003BBE",
"p 	c #000727",
"q 	c #000A2B",
"r 	c #00092C",
"s 	c #000E3B",
"t 	c #001238",
"u 	c #001832",
"v 	c #001233",
"w 	c #000D23",
"x 	c #0050B4",
"y 	c #000D2D",
"z 	c #000B2D",
"A 	c #00113C",
"B 	c #00163A",
"C 	c #001A34",
"D 	c #001731",
"E 	c #001023",
"F 	c #0069BB",
"G 	c #00082B",
"H 	c #000D3B",
"I 	c #001237",
"J 	c #001733",
"K 	c #000C28",
"L 	c #0045EB",
"M 	c #000621",
"N 	c #000529",
"O 	c #000D37",
"P 	c #001332",
"Q 	c #000C39",
"R 	c #00062A",
"S 	c #002AFF",
"T 	c #00031D",
"U 	c #000327",
"V 	c #000637",
"W 	c #000C35",
"X 	c #000E31",
"Y 	c #000931",
"Z 	c #000522",
"` 	c #001BD3",
" .	c #000839",
"..	c #000E2E",
"+.	c #00071B",
"@.	c #002C8E",
"#.	c #000B38",
"$.	c #00112E",
"%.	c #000D28",
"&.	c #00081B",
"*.	c #001A36",
"=.	c #001938",
"-.	c #00254F",
";.	c #00264F",
">.	c #002151",
",.	c #002042",
"'.	c #002034",
").	c #002845",
"!.	c #001638",
"~.	c #000C31",
"{.	c #001135",
"].	c #00152E",
"^.	c #000F32",
"/.	c #000C29",
"(.	c #001850",
"_.	c #00133D",
":.	c #00133B",
"<.	c #001849",
"[.	c #00215B",
"}.	c #040E43",
"|.	c #050021",
"1.	c #100026",
"2.	c #00122B",
"3.	c #000514",
"4.	c #000A1F",
"5.	c #000C25",
"6.	c #000C1F",
"7.	c #000D1C",
"8.	c #000F1E",
"9.	c #000F28",
"0.	c #001039",
"a.	c #00103C",
"b.	c #001535",
"c.	c #00152D",
"d.	c #000E39",
"e.	c #000B35",
"f.	c #000829",
"g.	c #000623",
"h.	c #000521",
"i.	c #000724",
"j.	c #000B32",
"k.	c #000421",
"l.	c #020012",
"m.	c #0D0024",
"n.	c #000819",
"o.	c #000C26",
"p.	c #00103B",
"q.	c #000F33",
"r.	c #001033",
"s.	c #000F34",
"t.	c #000F35",
"u.	c #001034",
"v.	c #000933",
"w.	c #000B34",
"x.	c #001334",
"y.	c #001336",
"z.	c #001138",
"A.	c #00051B",
"B.	c #000000",
"C.	c #000923",
"D.	c #001038",
"E.	c #001035",
"F.	c #000A32",
"G.	c #000B33",
"H.	c #001335",
"I.	c #001436",
"J.	c #000F3A",
"K.	c #000113",
"L.	c #000B27",
"M.	c #000C2F",
"N.	c #000E33",
"O.	c #001435",
"P.	c #001131",
"Q.	c #000F30",
"R.	c #000D2E",
"S.	c #00185D",
"T.	c #000A20",
"U.	c #000D34",
"V.	c #000B23",
"W.	c #001445",
"X.	c #000A21",
"Y.	c #000C33",
"Z.	c #001236",
"`.	c #001132",
" +	c #000E2A",
".+	c #003651",
"++	c #000E27",
"@+	c #000D33",
"#+	c #000E37",
"$+	c #001136",
"%+	c #000C24",
"&+	c #000D1F",
"*+	c #000D36",
"=+	c #000A2F",
"-+	c #001134",
";+	c #000E32",
">+	c #001037",
",+	c #00091E",
"'+	c #002540",
")+	c #000E34",
"!+	c #000D2F",
"~+	c #001340",
"{+	c #002593",
"]+	c #00071D",
"^+	c #00123B",
"/+	c #001133",
"(+	c #001031",
"_+	c #000F39",
":+	c #000929",
"<+	c #00051F",
"[+	c #000618",
"}+	c #001137",
"|+	c #001232",
"1+	c #001141",
"2+	c #000F3D",
"3+	c #000A2D",
"4+	c #00031A",
"5+	c #000016",
"6+	c #000B29",
"7+	c #001235",
"8+	c #000F3B",
"9+	c #00051E",
"0+	c #000921",
"a+	c #000B26",
"b+	c #000F2F",
"c+	c #000F36",
"d+	c #000622",
"e+	c #000934",
"f+	c #00091C",
"g+	c #000B25",
"h+	c #000E30",
"i+	c #000821",
"j+	c #000A27",
"k+	c #001842",
"l+	c #000719",
"m+	c #000D2A",
"n+	c #00123F",
"o+	c #000A24",
"p+	c #00071F",
"q+	c #00113F",
"r+	c #00101F",
"s+	c #002447",
"t+	c #000A26",
"u+	c #001243",
"v+	c #000B1F",
"w+	c #000B31",
"x+	c #000F3F",
"y+	c #09001C",
"z+	c #010003",
"A+	c #010006",
"B+	c #02000D",
"C+	c #030018",
"                                                                                                ",
"                                                                                                ",
"                                                                                                ",
"                                        . + @ # $ % &                                           ",
"                                        * = - ; > , ' )                                         ",
"                                        ! ~ { ] ^ / ( _                                         ",
"                                        : < [ } | 1 2 3                                         ",
"                                        4 5 6 7 8 9 { 0                                         ",
"                                        a b c d e f , g                                         ",
"                                        h i j d k l m n                                         ",
"                                        h i j d k l m o                                         ",
"                                        h i j d k l m o                                         ",
"                                        h i j d k l m o                                         ",
"                                        h i j d k l m o                                         ",
"                                        h i j d k l m o                                         ",
"                                        p i j d k l m o                                         ",
"                                        q r s t u v w x                                         ",
"                                        y z A B C D E F                                         ",
"                                        ! G H I J d K L                                         ",
"                                        M N j O P Q R S                                         ",
"                                        T U V W X Y Z `                                         ",
"                                        & N  .W ..& +.@.                                        ",
"                                        [ ; #.l $.%.&.                                          ",
"                        *.=.-.;.>.,.'.).!.~.^ {.].^./.(._.d :.<.[.}.|.1.                        ",
"                        2.3.4.w 5.6.7.8.9.0.a.b.c.d.e.f.g.h.i.G j.k.l.m.                        ",
"                          n.o.p.0.q.^.r.s.t.t.u.r.v.w.s.x.b.y.z.d.A.B.                          ",
"                          z C.s.D.E.E.t.E.u.u.t.s.F.G.s.H.b.I.u.J.K.                            ",
"                            L.M.N.E.E.s.E.s.s.E.s.F.G.s.I.O.P.Q.! R.                            ",
"                            S.T...s.s.E.t.E.s.E.s.F.U.l y.v $.V.p                               ",
"                              W.X.E.s.q.s.s.E.E.s.Y.U.l Z.`. +T..+                              ",
"                                ++q.q.E.s.t.E.E.s.@+U.#+$+[ %+&+                                ",
"                                *+=+s.u.-+l E.E.s.;+s.#+>+X ,+'+                                ",
"                                  D.q.s.s.N.N.)+s.;+s.#+D.!+~+                                  ",
"                                  {+]+y E.^+z./+(+a._+Y.:+<+                                    ",
"                                    [+~ }+_.:.|+$.1+2+3+4+5+                                    ",
"                                      6+..z.I 7+[ 8+/ q 9+                                      ",
"                                      0+a+b+u.{.Z.c+!+d+e+                                      ",
"                                        f+g+h+d D.y i+j+                                        ",
"                                        k+l+m+#+n+o+p+                                          ",
"                                          0+m _+q+&.r+                                          ",
"                                          s+t+^ u+v+                                            ",
"                                            ! w+x+..                                            ",
"                                            y+z+A+                                              ",
"                                              B+C+                                              ",
"                                                                                                ",
"                                                                                                ",
"                                                                                                ",
"                                                                                                "};
