/* XPM */
static char *geda_line_28x28[] = {
/* columns rows colors chars-per-pixel */
"28 28 42 1 ",
"  c #058200",
". c #058400",
"X c #058500",
"o c #068600",
"O c #068700",
"+ c #058900",
"@ c #068800",
"# c #068900",
"$ c #078B00",
"% c #078D00",
"& c #078E00",
"* c #078F00",
"= c #079000",
"- c #089000",
"; c #089100",
": c #089200",
"> c #089300",
", c #099A00",
"< c #0CC800",
"1 c #0DC800",
"2 c #0DCA00",
"3 c #0DCB00",
"4 c #0DCE00",
"5 c #0DD000",
"6 c #0CD100",
"7 c #0DD100",
"8 c #0CD300",
"9 c #0CD400",
"0 c #0CD500",
"q c #0CD600",
"w c #0BD900",
"e c #0CD800",
"r c #0CD900",
"t c #0CDB00",
"y c #0BDD00",
"u c #0BDE00",
"i c #0CDC00",
"p c #01FF00",
"a c #02FF00",
"s c #03FF00",
"d c #04FF00",
"f c None",
/* pixels */
"ffffffffffffffffffffffffffff",
"ffffffffffffffffffffffffffff",
"ffffffffffffffffffffffffffff",
"ffffffffffffffffffffffffu,ff",
"fffffffffffffffffffffffu;fff",
"ffffffffffffffffffffffu>ffff",
"fffffffffffffffffffffu;fffff",
"ffffffffffffffffffffe;ffffff",
"fffffffffffffffffffe;fffffff",
"ffffffffffffffffffe;ffffffff",
"ffffffffffffffffde%fffffffff",
"fffffffffffffffae%ffffffffff",
"ffffffffffffffaq%fffffffffff",
"fffffffffffffaq%ffffffffffff",
"ffffffffffffaq#fffffffffffff",
"fffffffffffa8#ffffffffffffff",
"ffffffffffa8offfffffffffffff",
"fffffffffa8#ffffffffffffffff",
"ffffffffa8#fffffffffffffffff",
"fffffffa4offffffffffffffffff",
"ffffffa4offfffffffffffffffff",
"fffffd3offffffffffffffffffff",
"ffffa3offfffffffffffffffffff",
"fffd3offffffffffffffffffffff",
"ffd3offfffffffffffffffffffff",
"ff< ffffffffffffffffffffffff",
"ff#fffffffffffffffffffffffff",
"ffffffffffffffffffffffffffff"
};
