/* XPM */
static char * geda_name_value_26x26_xpm[] = {
"26 26 447 2",
"  	c None",
". 	c #B4C3A2",
"+ 	c #8EB36E",
"@ 	c #9CBBC6",
"# 	c #76A97C",
"$ 	c #ACB775",
"% 	c #97B837",
"& 	c #639A4D",
"* 	c #568F78",
"= 	c #7487BE",
"- 	c #B5CA96",
"; 	c #96BB61",
"> 	c #81B055",
", 	c #75A93B",
"' 	c #BAD11B",
") 	c #CCDD0C",
"! 	c #73AB28",
"~ 	c #5F9B47",
"{ 	c #5C935A",
"] 	c #579063",
"^ 	c #859498",
"/ 	c #D1E2AB",
"( 	c #72A14A",
"_ 	c #559C1B",
": 	c #7CB30F",
"< 	c #BED60A",
"[ 	c #DEE80A",
"} 	c #D3E30C",
"| 	c #B8D40B",
"1 	c #8CBA0C",
"2 	c #4D9817",
"3 	c #258027",
"4 	c #328253",
"5 	c #EBF699",
"6 	c #7FAB5B",
"7 	c #33890D",
"8 	c #9DC40E",
"9 	c #E4EC09",
"0 	c #C9DD0F",
"a 	c #BBD016",
"b 	c #C0D90E",
"c 	c #AFD00F",
"d 	c #BDD90B",
"e 	c #B8D30B",
"f 	c #73AD0A",
"g 	c #3B8B32",
"h 	c #525955",
"i 	c #807C84",
"j 	c #ACC682",
"k 	c #258213",
"l 	c #BCD60B",
"m 	c #E2ED06",
"n 	c #B1C236",
"o 	c #5F7489",
"p 	c #839D48",
"q 	c #99C016",
"r 	c #65886B",
"s 	c #8EA754",
"t 	c #95C20F",
"u 	c #ADCF07",
"v 	c #88B424",
"w 	c #4B5656",
"x 	c #4A4E51",
"y 	c #678AA7",
"z 	c #638DB5",
"A 	c #668CB0",
"B 	c #648BB0",
"C 	c #5F88AE",
"D 	c #5F89AD",
"E 	c #6089AF",
"F 	c #6186A7",
"G 	c #63869C",
"H 	c #16745A",
"I 	c #ACCD07",
"J 	c #EDF209",
"K 	c #B8D212",
"L 	c #629543",
"M 	c #4A25FF",
"N 	c #A1B052",
"O 	c #99BE1B",
"P 	c #79897F",
"Q 	c #607194",
"R 	c #AAC78D",
"S 	c #8DBC10",
"T 	c #7DAF24",
"U 	c #697172",
"V 	c #353538",
"W 	c #436075",
"X 	c #5E90B4",
"Y 	c #5E92BA",
"Z 	c #6896B9",
"` 	c #89A9C8",
" .	c #8CACC8",
"..	c #94B2D1",
"+.	c #80A5C2",
"@.	c #6F94A2",
"#.	c #7E93BE",
"$.	c #2D8332",
"%.	c #F3F606",
"&.	c #CEE10B",
"*.	c #BBD709",
"=.	c #76B119",
"-.	c #768F6C",
";.	c #889E4E",
">.	c #92BB1E",
",.	c #789F4A",
"'.	c #ABC59F",
").	c #9CBF64",
"!.	c #71A828",
"~.	c #4D5556",
"{.	c #404140",
"].	c #576265",
"^.	c #49739A",
"/.	c #76A4C2",
"(.	c #FFFFFF",
"_.	c #C8D0CE",
":.	c #F2F1EE",
"<.	c #BBD2DF",
"[.	c #5C8BD2",
"}.	c #7FB32A",
"|.	c #DAE809",
"1.	c #C5DB0C",
"2.	c #C2DA0C",
"3.	c #ACCD09",
"4.	c #A2CB0D",
"5.	c #87B51B",
"6.	c #90B524",
"7.	c #669254",
"8.	c #A1BF95",
"9.	c #6DA53B",
"0.	c #67787F",
"a.	c #566F81",
"b.	c #505959",
"c.	c #385E78",
"d.	c #8BB0CC",
"e.	c #EEF3F3",
"f.	c #DDE2E3",
"g.	c #CCD6D8",
"h.	c #728890",
"i.	c #C7D3D5",
"j.	c #95B7DE",
"k.	c #3B774D",
"l.	c #D8EA05",
"m.	c #BCD60D",
"n.	c #B7D40C",
"o.	c #B9D40B",
"p.	c #B5D20B",
"q.	c #BAD60A",
"r.	c #97C012",
"s.	c #76A33F",
"t.	c #599041",
"u.	c #818689",
"v.	c #8EB792",
"w.	c #74A07E",
"x.	c #5386A4",
"y.	c #5688A5",
"z.	c #8FB3C4",
"A.	c #B8CED9",
"B.	c #FBFDFF",
"C.	c #F5F9FB",
"D.	c #798E94",
"E.	c #C8CBC7",
"F.	c #D4DADD",
"G.	c #74858A",
"H.	c #ACC9D4",
"I.	c #AEC3DA",
"J.	c #88B400",
"K.	c #BFDB08",
"L.	c #B1D00D",
"M.	c #ABCD0A",
"N.	c #AACD0B",
"O.	c #A8CC0D",
"P.	c #A0C60D",
"Q.	c #95BE0C",
"R.	c #74A81F",
"S.	c #5F9051",
"T.	c #769180",
"U.	c #7C988A",
"V.	c #6092B0",
"W.	c #5890B1",
"X.	c #ADCCDD",
"Y.	c #FFFFFE",
"Z.	c #C8CECD",
"`.	c #97A8AA",
" +	c #E6EDEE",
".+	c #5F797B",
"++	c #BBC3C1",
"@+	c #B7C7CB",
"#+	c #577077",
"$+	c #C5DDE6",
"%+	c #7CA59B",
"&+	c #81B302",
"*+	c #ADCF0A",
"=+	c #ADCF0C",
"-+	c #B0D00A",
";+	c #B4D20B",
">+	c #B1D10B",
",+	c #94C00A",
"'+	c #93BC0C",
")+	c #67A612",
"!+	c #518E46",
"~+	c #678C71",
"{+	c #5E8FB2",
"]+	c #5C92B4",
"^+	c #B6D2E1",
"/+	c #F9F8F7",
"(+	c #EBEDEC",
"_+	c #728082",
":+	c #A3B8C0",
"<+	c #E0E7E9",
"[+	c #4F747D",
"}+	c #B6D0D6",
"|+	c #9BADB4",
"1+	c #4E676F",
"2+	c #C0DAE2",
"3+	c #669988",
"4+	c #75A718",
"5+	c #96C10E",
"6+	c #A1C70B",
"7+	c #AED00A",
"8+	c #BED909",
"9+	c #B9D50A",
"0+	c #8CBA0A",
"a+	c #85B60B",
"b+	c #47960C",
"c+	c #488851",
"d+	c #5B8A6D",
"e+	c #5F95B2",
"f+	c #5B93B3",
"g+	c #BFD9E8",
"h+	c #AAB4B5",
"i+	c #B7C3C7",
"j+	c #D6DCDF",
"k+	c #60757B",
"l+	c #AEBFC5",
"m+	c #C4D7DF",
"n+	c #62848F",
"o+	c #BDD6DE",
"p+	c #98ABB1",
"q+	c #546C73",
"r+	c #A3BFCF",
"s+	c #608E96",
"t+	c #5A8E38",
"u+	c #82B311",
"v+	c #97C20C",
"w+	c #ABCD0B",
"x+	c #B7D40A",
"y+	c #B2D009",
"z+	c #99C30B",
"A+	c #80B40A",
"B+	c #298714",
"C+	c #56876A",
"D+	c #5F8BB0",
"E+	c #5489B0",
"F+	c #95BDD5",
"G+	c #F2F4F4",
"H+	c #82979F",
"I+	c #A7B2B7",
"J+	c #DCE3E4",
"K+	c #63777E",
"L+	c #A0B1B7",
"M+	c #B9CCD3",
"N+	c #5F808B",
"O+	c #B4D1DB",
"P+	c #C0C7CF",
"Q+	c #697F87",
"R+	c #9BBACB",
"S+	c #4E7EA0",
"T+	c #4F775B",
"U+	c #69A02A",
"V+	c #86BA0A",
"W+	c #A0C80A",
"X+	c #AACD0A",
"Y+	c #ADCF09",
"Z+	c #94BF0B",
"`+	c #539E04",
" @	c #368253",
".@	c #507AA1",
"+@	c #427CA7",
"@@	c #98BFD7",
"#@	c #E9F0F2",
"$@	c #657E88",
"%@	c #A1ADB2",
"&@	c #ECF3F5",
"*@	c #687E85",
"=@	c #9DB2B8",
"-@	c #C0D1D6",
";@	c #516775",
">@	c #7AB292",
",@	c #6E9CA3",
"'@	c #5F97AF",
")@	c #4183B6",
"!@	c #4D6D86",
"~@	c #789953",
"{@	c #4E9C0F",
"]@	c #5DA115",
"^@	c #8EBE0A",
"/@	c #9AC40B",
"(@	c #A0C60A",
"_@	c #81B508",
":@	c #21802E",
"<@	c #4C7391",
"[@	c #3372A3",
"}@	c #94BDD8",
"|@	c #CEE3E9",
"1@	c #5B767E",
"2@	c #A0ADB1",
"3@	c #EBF1F4",
"4@	c #748A92",
"5@	c #C1D0D4",
"6@	c #DFDAE6",
"7@	c #006C06",
"8@	c #428582",
"9@	c #4679AD",
"0@	c #4581AB",
"a@	c #898F7D",
"b@	c #739650",
"c@	c #4A931C",
"d@	c #5B8171",
"e@	c #5EA01F",
"f@	c #7EB50B",
"g@	c #8EBC0B",
"h@	c #79B009",
"i@	c #2C8522",
"j@	c #4F6F89",
"k@	c #3772A5",
"l@	c #8FBBD5",
"m@	c #CBE3E7",
"n@	c #56727B",
"o@	c #9CAAAE",
"p@	c #D4DEE3",
"q@	c #6C8A95",
"r@	c #C3D2E6",
"s@	c #81B73B",
"t@	c #297442",
"u@	c #3F6C9A",
"v@	c #578199",
"w@	c #FFF8F4",
"x@	c #658F4C",
"y@	c #438F19",
"z@	c #9CA7B8",
"A@	c #8BA596",
"B@	c #5AA010",
"C@	c #8ABC0A",
"D@	c #71AC09",
"E@	c #29832E",
"F@	c #436D92",
"G@	c #3773A6",
"H@	c #90BCD5",
"I@	c #CCE2E8",
"J@	c #68838A",
"K@	c #98A9AE",
"L@	c #DFE8EC",
"M@	c #80A0C1",
"N@	c #5AA401",
"O@	c #4E951D",
"P@	c #477855",
"Q@	c #4D6765",
"R@	c #689053",
"S@	c #3C8C1D",
"T@	c #96AEAB",
"U@	c #86A997",
"V@	c #4E9716",
"W@	c #88BB0B",
"X@	c #4C9B00",
"Y@	c #4E8759",
"Z@	c #436C97",
"`@	c #3270A8",
" #	c #86B5CC",
".#	c #C6DBE0",
"+#	c #658089",
"@#	c #96B4BC",
"##	c #8FACD5",
"$#	c #59A204",
"%#	c #7AB111",
"&#	c #64A416",
"*#	c #6AA125",
"=#	c #81AF6E",
"-#	c #528648",
";#	c #30881F",
">#	c #58954E",
",#	c #6FA624",
"'#	c #79B30C",
")#	c #77B10A",
"!#	c #318821",
"~#	c #5A8461",
"{#	c #7F7A6B",
"]#	c #55738B",
"^#	c #2E6EAA",
"/#	c #93BAD0",
"(#	c #C1DDE5",
"_#	c #498BB7",
":#	c #2E5898",
"<#	c #56A407",
"[#	c #90BE0C",
"}#	c #9EC60B",
"|#	c #9DC50B",
"1#	c #C1DB06",
"2#	c #B0D109",
"3#	c #589E12",
"4#	c #AACC16",
"5#	c #93BF09",
"6#	c #6EAB0C",
"7#	c #31881C",
"8#	c #54895E",
"9#	c #7C7F6C",
"0#	c #52728A",
"a#	c #3977AC",
"b#	c #4482B0",
"c#	c #3F74A1",
"d#	c #647191",
"e#	c #4E9838",
"f#	c #5D9E2C",
"g#	c #68A71B",
"h#	c #6CAB10",
"i#	c #6FAA0F",
"j#	c #69A70E",
"k#	c #509A11",
"l#	c #5DA113",
"m#	c #499522",
"n#	c #34853B",
"o#	c #528C6A",
"p#	c #6A9583",
"q#	c #717A70",
"r#	c #5E7E9C",
"s#	c #5386BB",
"t#	c #61839E",
"u#	c #5A9661",
"v#	c #6B936F",
"w#	c #5A9073",
"x#	c #4E9450",
"y#	c #509647",
"z#	c #3F843B",
"A#	c #2A8222",
"B#	c #408B57",
"C#	c #579476",
"D#	c #458B56",
"E#	c #789A90",
"F#	c #708699",
"G#	c #6592C1",
"H#	c #6B958A",
"I#	c #609C67",
"J#	c #66A159",
"K#	c #60846A",
"L#	c #3A854A",
"M#	c #5B9471",
"N#	c #729F93",
"                                                    ",
"                                    . +             ",
"                                @ # $ % & * =       ",
"                            - ; > , ' ) ! ~ { ] ^   ",
"                          / ( _ : < [ } | 1 2 3 4   ",
"                        5 6 7 8 9 0 a b c d e f g   ",
"h i                     j k l m n o p q r s t u v   ",
"w x y z A B C D E F G   H I J K L M N O P Q R S T   ",
"U V W X Y Z `  ...+.@.#.$.%.&.*.=.-.;.>.,.  '.).!.  ",
"  ~.{.].^./.(.(._.:.<.[.}.|.1.2.3.4.5.6.7.    8.9.  ",
"  0.a.b.c.d.e.f.g.h.i.j.k.l.m.n.o.p.q.r.s.t.u.v.w.  ",
"  x.y.z.A.B.C.D.E.F.G.H.I.J.K.L.M.N.O.P.Q.R.S.T.U.  ",
"  V.W.X.Y.Z.`. +.+++@+#+$+%+&+*+=+-+;+>+,+'+)+!+~+  ",
"  {+]+^+/+(+_+:+<+[+}+|+1+2+3+4+5+6+7+8+9+0+a+b+c+d+",
"  e+f+g+h+i+j+k+l+m+n+o+p+q+r+s+t+u+v+w+x+y+z+A+B+C+",
"  D+E+F+G+H+I+J+K+L+M+N+O+P+Q+R+S+T+U+V+W+X+Y+Z+`+ @",
"    .@+@@@#@$@%@&@*@=@-@;@>@,@'@)@!@~@{@]@^@/@(@_@:@",
"      <@[@}@|@1@2@3@4@5@6@7@8@9@0@a@b@c@d@e@f@g@h@i@",
"        j@k@l@m@n@o@p@q@r@s@t@u@v@w@x@y@z@A@B@C@D@E@",
"          F@G@H@I@J@K@L@M@N@O@P@Q@(.R@S@T@U@V@W@X@Y@",
"            Z@`@ #.#+#@###$#%#&#*#=#-#;#>#,#'#)#!#~#",
"            {#]#^#/#(#_#:#<#[#}#|#1#2#3#4#5#6#7#8#  ",
"              9#0#a#b#c#d#e#f#g#h#i#j#k#l#m#n#o#p#  ",
"                q#r#s#t#  u#v#w#x#y#z#A#B#C#D#E#    ",
"                  F#G#        H#I#J#K#L#M#N#        ",
"                                                    "};
