/* XPM */
static char * geda_sheets_24x24_xpm[] = {
"24 24 132 2",
"  	c None",
". 	c #6C6C6C",
"+ 	c #B4B4B4",
"@ 	c #BFBFBF",
"# 	c #D5D5D5",
"$ 	c #DADADA",
"% 	c #DDDDDD",
"& 	c #E7E7E7",
"* 	c #EAEAEA",
"= 	c #EDEDED",
"- 	c #F2F2F2",
"; 	c #F4F4F4",
"> 	c #F3F3F3",
", 	c #F0F0F0",
"' 	c #EBEBEB",
") 	c #E9E9E9",
"! 	c #D7D7D7",
"~ 	c #CDCDCD",
"{ 	c #C9C9C9",
"] 	c #C2C2C2",
"^ 	c #ACACAC",
"/ 	c #A1A1A1",
"( 	c #2A4450",
"_ 	c #26444C",
": 	c #A2A2A2",
"< 	c #A0A0A0",
"[ 	c #243E49",
"} 	c #FFFFF4",
"| 	c #223B46",
"1 	c #273F4B",
"2 	c #9E9E9E",
"3 	c #213843",
"4 	c #1F3844",
"5 	c #253D48",
"6 	c #9F9F9F",
"7 	c #1F3742",
"8 	c #1D343E",
"9 	c #243A45",
"0 	c #2A434E",
"a 	c #9D9D9D",
"b 	c #1A303B",
"c 	c #192E37",
"d 	c #20353E",
"e 	c #273E49",
"f 	c #9C9C9C",
"g 	c #182C36",
"h 	c #172B35",
"i 	c #1F333D",
"j 	c #243C46",
"k 	c #9B9B9B",
"l 	c #16242B",
"m 	c #162933",
"n 	c #1F313A",
"o 	c #979797",
"p 	c #12222A",
"q 	c #16242A",
"r 	c #17242B",
"s 	c #17252B",
"t 	c #16252C",
"u 	c #17272E",
"v 	c #18272E",
"w 	c #19282E",
"x 	c #18282F",
"y 	c #192830",
"z 	c #1B2B34",
"A 	c #1B2C34",
"B 	c #1C2C34",
"C 	c #20333C",
"D 	c #969696",
"E 	c #14232A",
"F 	c #1E323B",
"G 	c #828282",
"H 	c #1B2A32",
"I 	c #8C8C8C",
"J 	c #8E8E8E",
"K 	c #020506",
"L 	c #090E11",
"M 	c #152328",
"N 	c #919191",
"O 	c #142025",
"P 	c #8D8D8D",
"Q 	c #888888",
"R 	c #131F24",
"S 	c #8A8A8A",
"T 	c #868686",
"U 	c #131E23",
"V 	c #878787",
"W 	c #838383",
"X 	c #142228",
"Y 	c #848484",
"Z 	c #7F7F7F",
"` 	c #142026",
" .	c #808080",
"..	c #131F25",
"+.	c #7B7B7B",
"@.	c #131F23",
"#.	c #7C7C7C",
"$.	c #767676",
"%.	c #010001",
"&.	c #000000",
"*.	c #020304",
"=.	c #020405",
"-.	c #030506",
";.	c #040709",
">.	c #05080A",
",.	c #05090B",
"'.	c #070C0E",
").	c #080D0F",
"!.	c #080E11",
"~.	c #090F12",
"{.	c #0A1014",
"].	c #0B1317",
"^.	c #0C1418",
"/.	c #0E191D",
"(.	c #0F1B1E",
"_.	c #111C1F",
":.	c #101D20",
"<.	c #131F26",
"[.	c #777777",
"}.	c #494949",
"|.	c #898989",
"1.	c #989898",
"2.	c #B1B1B1",
"3.	c #BABABA",
"4.	c #CCCCCC",
"5.	c #D0D0D0",
"6.	c #D8D8D8",
"7.	c #DFDFDF",
"8.	c #B6B6B6",
"9.	c #A9A9A9",
"0.	c #A4A4A4",
"a.	c #4A4A4A",
". + @ # $ % % & * = - ; ; > , ' ) ! ! ~ { ] ^ . ",
"/ ( ( ( ( ( ( ( ( ( ( ( ( ( ( ( ( ( ( ( ( ( _ : ",
"< ( ( ( ( ( ( ( ( ( ( ( ( ( ( ( ( ( ( ( ( ( ( / ",
"< [ } } } } } } } } } | 1 } } } } } } } } } ( / ",
"2 3 } } } } } } } } } 4 5 } } } } } } } } } ( 6 ",
"6 7 } } } } } } } } } 8 9 } } } } } } } } } 0 6 ",
"6 7 } } } } } } } } } 8 9 } } } } } } } } } 0 6 ",
"a b } } } } } } } } } c d } } } } } } } } } e a ",
"f g } } } } } } } } } h i } } } } } } } } } j f ",
"k h } } } } } } l l l m n } } } } } } l l l 9 f ",
"o p q l r s s l t t s u u v w x y l l z A B C o ",
"D E p p p p p p p p p p p p p p p p p B B B F D ",
"G p q l r s s l t t s u u v w x y H H z A B C I ",
"J K } } } } } } } } } L L } } } } } } } } } M N ",
"I K } } } } } } } } } L L } } } } } } } } } O P ",
"Q K } } } } } } } } } L L } } } } } } } } } R S ",
"T K } } } } } } } } } L L } } } } } } } } } U V ",
"W K } } } } } } } } } L L } } } } } } } } } X Y ",
"W K } } } } } } } } } L L } } } } } } } } } X Y ",
"Z K } } } } } } } } } L L } } } } } } } } } `  .",
"Z K } } } } } } } } } L L } } } } } } } } } .. .",
"+.K } } } } } } l l l L L } } } } } } l l l @.#.",
"$.%.&.*.=.-.-.;.>.,.'.).!.~.{.].^././.(._.:.<.[.",
"}.|.1.2.3.@ @ 4.5.6.& = , ) 7.# 5.8.8.9.0.f G a."};
