/* XPM */
static char *geda_tools2_28x28[] = {
/* columns rows colors chars-per-pixel */
"28 28 113 2 ",
"   c #00B700BB00BA",
".  c #0ACC059B0000",
"X  c #0B550B7B0B38",
"o  c #16780CED0000",
"O  c #0E3F0EB31020",
"+  c #153115631544",
"@  c #1C051C171BD6",
"#  c #22FD149E0012",
"$  c #28F817170000",
"%  c #31DC1D350000",
"&  c #3B0D23730048",
"*  c #3EC82C1A001E",
"=  c #20FA224E1F81",
"-  c #23E8242223A5",
";  c #28D82A712734",
":  c #2D8C2DF82D0C",
">  c #30AA32362F12",
",  c #33F234A4333B",
"<  c #38CE3A49374D",
"1  c #38E538F7390C",
"2  c #41C7289D0000",
"3  c #4AEB2DA100EF",
"4  c #5411319B0189",
"5  c #5D03355E0000",
"6  c #52B73B4F0000",
"7  c #5E79389D01AD",
"8  c #43903C5E32BC",
"9  c #636740300021",
"0  c #734C492900A2",
"q  c #79E855C1008D",
"w  c #439043EC4324",
"e  c #4B654C004B2F",
"r  c #4F804EE553B1",
"t  c #4C64508257C1",
"y  c #52D753565255",
"u  c #580859D6575A",
"i  c #5B755BDE5BA9",
"p  c #63FB644763CF",
"a  c #6C1F6C766C6D",
"s  c #735373B47351",
"d  c #7BD67C537BFC",
"f  c #9B6964FA0000",
"g  c #AF18782E0052",
"h  c #9C837F7044EE",
"j  c #A3858564037E",
"k  c #BFFB889900EC",
"l  c #C4C48F160000",
"z  c #C3028A9D0916",
"x  c #C6AD91EC0027",
"c  c #CB8298EA0000",
"v  c #D1A29BB20048",
"b  c #DCF79DF900E4",
"n  c #D9A0A4B500FF",
"m  c #DC3FAA1400B9",
"M  c #E0CAA60A00A3",
"N  c #EE65AB3601CA",
"B  c #EBD4B635000B",
"V  c #EB26BB1D01F3",
"C  c #FC23BE060068",
"Z  c #FB82BE1C1272",
"A  c #DA80B6002280",
"S  c #E711C24602F7",
"D  c #EA66C1770A91",
"F  c #F276C37F004B",
"G  c #FB7EC351000C",
"H  c #FA35D8250017",
"J  c #F8C4DE600000",
"K  c #FA57D8010F1C",
"L  c #FB95DA390B6C",
"P  c #EC0CC562114B",
"I  c #F0A3C09E100F",
"U  c #F50CDA03184F",
"Y  c #FE3BE4390001",
"T  c #F9CFE3AA0B3E",
"R  c #FFFFE9590C81",
"E  c #FA2FE16F1EC0",
"W  c #FF04E5492893",
"Q  c #FAD1E5953110",
"!  c #FFFFD81756E7",
"~  c #FBEBE8BF4372",
"^  c #FB87EA6A5584",
"/  c #F7FCE57463B9",
"(  c #842084508496",
")  c #8B0A8B918AFF",
"_  c #90378FCC8EFB",
"`  c #8E5C90B38DC9",
"'  c #940A9438944F",
"]  c #97419858972F",
"[  c #9B279B419B0A",
"{  c #A261A1749FC6",
"}  c #A50DA5AAA57E",
"|  c #A83EA8CEA812",
" . c #A5D4A754ABA7",
".. c #ADAFADD7ADA0",
"X. c #B339B37DB2EE",
"o. c #B6E6B85BB7CA",
"O. c #BD65BDC0BD8C",
"+. c #E780DC6C8875",
"@. c #B970BC63C491",
"#. c #C45EC493C488",
"$. c #C846C893C90F",
"%. c #CBA5CC25CBBF",
"&. c #D51FD26BC6E8",
"*. c #D4B8D516D4F0",
"=. c #D89BDA37D55A",
"-. c #DC69DCB7DC41",
";. c #E49BE51BE4C2",
":. c #E900E91FE849",
">. c #EC89ECE6ECC1",
",. c #F543F5A8F593",
"<. c #F819F85CF885",
"1. c #FC9DFCBCFC81",
"2. c None",
/* pixels */
"2.2.2.2.2.2.2.2.2.2.2.2.2.2.2.2.2.2.2.2.2.2.2.2.2.2.2.2.",
"2.2.2.2.2.2.2.2.2.2.2.2.2.2.2.2.2.2.2.) #.*.*.#.2.2.2.2.",
"2.X.<.O.2.2.2.2.2.2.2.2.2.2.2.2.2.2.d ;.>.<.<.*.i 2.2.2.",
"2...1.;.a 2.2.2.2.2.2.2.2.2.2.2.2.; #.<.<.=.w X   2.2.2.",
"2.; #.*.#.u 2.2.2.2.2.2.2.2.2.2.2.e ;.>.1.{   2.2.2.2.2.",
"2.2.X u ;.:.p 2.2.2.2.2.2.2.2.2.2.a -.:.1...2.2.2.2.2.2.",
"2.2.2.  1 ;.:.s 2.2.2.2.2.2.2.2.2.) %.:.;.;.s 2.2.d a 2.",
"2.2.2.2.  : -.,.a 2.2.2.2.2.2.2.> ..-.o.%.=.O.d o..., 2.",
"2.2.2.2.2.  ; =.<.s 2.2.2.2.2.2.i | } ` a *.X.X.%.s . 2.",
"2.2.2.2.2.2.  - *.<.d 2.2.2.2.+ O.%.u =.u } ] ] [ - 2.2.",
"2.2.2.2.2.2.2.2.@ *.,.( 2.2.2. .<.*.e ) ] ) s i -   2.2.",
"2.2.2.2.2.2.2.2.2.+ $.<.( @ o. .w } ) i w @ O     2.2.2.",
"2.2.2.2.2.2.2.2.2.2.+ O.>. .) = s _ @     2.2.2.2.2.2.2.",
"2.2.2.2.2.2.2.2.2.2.2.- *.>.d p ' O 2.2.2.2.2.2.2.2.2.2.",
"2.2.2.2.2.2.2.2.2.2.i ..e ..:. .r h 2.2.2.2.2.2.2.2.2.2.",
"2.2.2.2.2.2.2.2.2.p O.s - - @.&.+.! f 2.2.2.2.2.2.2.2.2.",
"2.2.2.2.2.2.2.2.p #.p ; > ] 8 A Y Z m 6 2.2.2.2.2.2.2.2.",
"2.2.2.2.2.2.2.s #.i : @ { t 3 N C G H m j 2.2.2.2.2.2.2.",
"2.2.2.2.2.2.( #.y > + [ a     3 g F J Y W z 5 2.2.2.2.2.",
"2.2.2.2.2.( #.e , O ) (   2.2.    q F T / I l 7 2.2.2.2.",
"2.2.2.2.' #.w , X d ]   2.2.2.2.2.. l F U ^ K x 4 2.2.2.",
"2.2.2.} O., < . a ..O 2.2.2.2.2.2.2.& b B P ~ K c 7 2.2.",
"2.2.] O.} p   i #.@ 2.2.2.2.2.2.2.2.  & m B D Q L v 0 2.",
"2.d '   - [ p $.: 2.2.2.2.2.2.2.2.2.2.  % n V S E L v & ",
"2.' i 2.  ( ;.1   2.2.2.2.2.2.2.2.2.2.2.  $ v V S R v o ",
"2.y ..> p X.w   2.2.2.2.2.2.2.2.2.2.2.2.2.  # x C B 2 2.",
"2.  s | ] 1   2.2.2.2.2.2.2.2.2.2.2.2.2.2.2.2.# 9 $   2.",
"2.2.  @ X   2.2.2.2.2.2.2.2.2.2.2.2.2.2.2.2.2.2.  2.2.2."
};
