/* XPM */
static char *geda_arc_24x24[] = {
/* columns rows colors chars-per-pixel */
"24 24 85 1 ",
"  c #FF0000",
". c #FF0100",
"X c #FF0001",
"o c #FF0300",
"O c #FF0600",
"+ c #FF0004",
"@ c #FF0007",
"# c #FF0307",
"$ c #FF0800",
"% c #FF0E00",
"& c #FF0F00",
"* c #FF0906",
"= c #FF0D06",
"- c #FF0008",
"; c #FF000B",
": c #FD0509",
"> c #FF0408",
", c #FF070A",
"< c #FF000E",
"1 c #FC040E",
"2 c #FF0908",
"3 c #FF080E",
"4 c #FD0C0D",
"5 c #FE0F0F",
"6 c #FF1100",
"7 c #FF1300",
"8 c #FE1302",
"9 c #FF1701",
"0 c #FC1706",
"q c #FF1A00",
"w c #FF1D00",
"e c #FF1C02",
"r c #FC1B0F",
"t c #FF0710",
"y c #FF0611",
"u c #FF0512",
"i c #FB0514",
"p c #FF0A11",
"a c #F8061C",
"s c #FE0D1E",
"d c #FA1114",
"f c #F91619",
"g c #FE1518",
"h c #FE171E",
"j c #FD1E1C",
"k c #FE1D1E",
"l c #FF2400",
"z c #FE2701",
"x c #FE2E05",
"c c #FD2008",
"v c #FE3903",
"b c #FF2612",
"n c #FB2B11",
"m c #F7201F",
"M c #F8261D",
"N c #F70F21",
"B c #F60F22",
"V c #FE0B20",
"C c #FE0B26",
"Z c #F40E2C",
"A c #F40E2D",
"S c #FE1425",
"D c #F4122B",
"F c #F51528",
"G c #F41729",
"H c #F00E39",
"J c #EF113E",
"K c #FD2225",
"L c #F4202C",
"P c #FD212A",
"I c #FD272E",
"U c #FD3333",
"Y c #FC3335",
"T c #FC3038",
"R c #FC333B",
"E c #FC3939",
"W c #FC3343",
"Q c #FC3E4D",
"! c #FB4F4E",
"~ c #FB4B53",
"^ c #FB545C",
"/ c #FA6867",
"( c #FA6A6D",
") c #FA7071",
"_ c None",
/* pixels */
"___________________H1  j",
"_________________mz$ gU(",
"______________Jn082T/___",
"_____________Mxqbj)_____",
"___________Lv6=E!_______",
"__________Zl Y__________",
"_________Gw*K___________",
"________rw-u____________",
"_______A4 W_____________",
"______GqpI______________",
"______w>V_______________",
"_____B5s________________",
"____fOS_________________",
"____d3Q_________________",
"___D%C__________________",
"___c>^__________________",
"__B8-___________________",
"__%OR___________________",
"__i <___________________",
"__ S~___________________",
"_>+p____________________",
"_a+P____________________",
"_Ou_____________________",
"_+-_____________________"
};
