/* XPM */
static char * geda_find_28x28_xpm[] = {
"28 28 487 2",
"  	c None",
". 	c #3A3534",
"+ 	c #2A3232",
"@ 	c #28231C",
"# 	c #2F2720",
"$ 	c #312B24",
"% 	c #232724",
"& 	c #162425",
"* 	c #1A2123",
"= 	c #1E1F1C",
"- 	c #29241C",
"; 	c #322B22",
"> 	c #152C32",
", 	c #102026",
"' 	c #253332",
") 	c #2A211A",
"! 	c #312824",
"~ 	c #2E2E2D",
"{ 	c #252F32",
"] 	c #1D3541",
"^ 	c #243940",
"/ 	c #20211D",
"( 	c #342B21",
"_ 	c #3A322C",
": 	c #223037",
"< 	c #12272D",
"[ 	c #1F3031",
"} 	c #2F2B26",
"| 	c #2D241D",
"1 	c #342B27",
"2 	c #35302C",
"3 	c #2C2F2D",
"4 	c #1D323C",
"5 	c #0C181B",
"6 	c #201C18",
"7 	c #43382E",
"8 	c #3D352D",
"9 	c #242F30",
"0 	c #12232A",
"a 	c #162525",
"b 	c #3E3024",
"c 	c #232016",
"d 	c #3C2C22",
"e 	c #362B1F",
"f 	c #25221C",
"g 	c #332F28",
"h 	c #151612",
"i 	c #282414",
"j 	c #1D3338",
"k 	c #0A1314",
"l 	c #142A31",
"m 	c #131F20",
"n 	c #1D1D16",
"o 	c #111F1F",
"p 	c #0C1C21",
"q 	c #273331",
"r 	c #272B2B",
"s 	c #343A3E",
"t 	c #353331",
"u 	c #2B231C",
"v 	c #372E1F",
"w 	c #0C0E0B",
"x 	c #2A221C",
"y 	c #243139",
"z 	c #0B1B20",
"A 	c #070E0F",
"B 	c #091314",
"C 	c #1A1B14",
"D 	c #222823",
"E 	c #272D2B",
"F 	c #262F31",
"G 	c #1F3443",
"H 	c #1F3644",
"I 	c #1D3037",
"J 	c #46372D",
"K 	c #5B4637",
"L 	c #23272F",
"M 	c #19303C",
"N 	c #142F3D",
"O 	c #112736",
"P 	c #0D1D22",
"Q 	c #070807",
"R 	c #27211A",
"S 	c #162F3B",
"T 	c #0F3442",
"U 	c #000000",
"V 	c #121310",
"W 	c #1F1E18",
"X 	c #221F17",
"Y 	c #201C17",
"Z 	c #151311",
"` 	c #0B0E0E",
" .	c #090F0E",
"..	c #0D1515",
"+.	c #131C1E",
"@.	c #4F3E38",
"#.	c #1E1714",
"$.	c #312823",
"%.	c #2B261B",
"&.	c #151511",
"*.	c #0A0C0C",
"=.	c #0D100F",
"-.	c #121917",
";.	c #1B211B",
">.	c #1C1A13",
",.	c #4B3925",
"'.	c #443421",
").	c #1A2B39",
"!.	c #060F10",
"~.	c #0C110E",
"{.	c #101210",
"].	c #2B2419",
"^.	c #3C3224",
"/.	c #27271D",
"(.	c #13252A",
"_.	c #0F191A",
":.	c #090F0B",
"<.	c #0B1212",
"[.	c #4F4235",
"}.	c #211D18",
"|.	c #322A21",
"1.	c #4E3C2F",
"2.	c #282D30",
"3.	c #1F2D32",
"4.	c #192325",
"5.	c #352B24",
"6.	c #725741",
"7.	c #5D4C36",
"8.	c #28281B",
"9.	c #221E16",
"0.	c #11272E",
"a.	c #13242A",
"b.	c #0F1617",
"c.	c #101412",
"d.	c #453529",
"e.	c #3D322C",
"f.	c #262927",
"g.	c #182A31",
"h.	c #122125",
"i.	c #111C1C",
"j.	c #122122",
"k.	c #2D251C",
"l.	c #372B26",
"m.	c #4C3D2E",
"n.	c #262C2E",
"o.	c #1B262A",
"p.	c #151C1E",
"q.	c #1B1C17",
"r.	c #28211E",
"s.	c #1F1B16",
"t.	c #1D1A17",
"u.	c #181C1F",
"v.	c #101E25",
"w.	c #061115",
"x.	c #040504",
"y.	c #0C0C09",
"z.	c #332E23",
"A.	c #302C20",
"B.	c #21282A",
"C.	c #1B252C",
"D.	c #172020",
"E.	c #101D1E",
"F.	c #16242B",
"G.	c #493E33",
"H.	c #251F1A",
"I.	c #3A2F27",
"J.	c #513D2F",
"K.	c #202626",
"L.	c #1A2834",
"M.	c #1C282D",
"N.	c #0E1312",
"O.	c #030705",
"P.	c #342B20",
"Q.	c #372E28",
"R.	c #303131",
"S.	c #1C2E36",
"T.	c #0E1E25",
"U.	c #050C0A",
"V.	c #0E0E0B",
"W.	c #2E2720",
"X.	c #2F2823",
"Y.	c #252727",
"Z.	c #19272D",
"`.	c #191D1E",
" +	c #121B1C",
".+	c #182223",
"++	c #32291E",
"@+	c #26221A",
"#+	c #372E25",
"$+	c #543D32",
"%+	c #222225",
"&+	c #172831",
"*+	c #18252A",
"=+	c #121516",
"-+	c #0D0D0A",
";+	c #342720",
">+	c #2C2922",
",+	c #272C2A",
"'+	c #1A2730",
")+	c #0E1E27",
"!+	c #050F10",
"~+	c #0E0E0A",
"{+	c #2D271D",
"]+	c #2F2B24",
"^+	c #2A2622",
"/+	c #1A2227",
"(+	c #141E22",
"_+	c #0F1B1C",
":+	c #182222",
"<+	c #29221C",
"[+	c #2D241F",
"}+	c #3A2F24",
"|+	c #513F32",
"1+	c #222521",
"2+	c #172630",
"3+	c #1C292D",
"4+	c #111616",
"5+	c #10110D",
"6+	c #29251C",
"7+	c #3B3025",
"8+	c #1F2122",
"9+	c #101C22",
"0+	c #0C1518",
"a+	c #040B0A",
"b+	c #0D0F09",
"c+	c #2D271F",
"d+	c #2E2A22",
"e+	c #262525",
"f+	c #192222",
"g+	c #161C1E",
"h+	c #101919",
"i+	c #192123",
"j+	c #241D1A",
"k+	c #352C25",
"l+	c #363021",
"m+	c #513E2F",
"n+	c #1B1C1C",
"o+	c #18282D",
"p+	c #14252E",
"q+	c #040908",
"r+	c #231D1A",
"s+	c #171412",
"t+	c #0B100F",
"u+	c #0B0F0E",
"v+	c #0A1312",
"w+	c #171919",
"x+	c #373122",
"y+	c #3B3125",
"z+	c #292829",
"A+	c #152326",
"B+	c #101B19",
"C+	c #0D191A",
"D+	c #132023",
"E+	c #281D19",
"F+	c #372B21",
"G+	c #2F251F",
"H+	c #4F4030",
"I+	c #2D2B29",
"J+	c #1A2127",
"K+	c #181C1C",
"L+	c #302B1F",
"M+	c #9B7F55",
"N+	c #907252",
"O+	c #4F3C30",
"P+	c #342420",
"Q+	c #161A18",
"R+	c #0C1212",
"S+	c #0F0F0F",
"T+	c #0E1210",
"U+	c #3C3228",
"V+	c #4A352F",
"W+	c #2F2920",
"X+	c #182225",
"Y+	c #0E1B1F",
"Z+	c #132128",
"`+	c #203036",
" @	c #26201D",
".@	c #312A21",
"+@	c #25211B",
"@@	c #332C23",
"#@	c #22292F",
"$@	c #1A3344",
"%@	c #183040",
"&@	c #1F2425",
"*@	c #3A2A1F",
"=@	c #30281C",
"-@	c #48392A",
";@	c #42332A",
">@	c #0F1313",
",@	c #070C0A",
"'@	c #070B08",
")@	c #11120F",
"!@	c #27231C",
"~@	c #312920",
"{@	c #252526",
"]@	c #162D34",
"^@	c #132B33",
"/@	c #10232D",
"(@	c #112632",
"_@	c #192525",
":@	c #392E24",
"<@	c #231F1B",
"[@	c #282520",
"}@	c #322820",
"|@	c #362F25",
"1@	c #192B33",
"2@	c #152E3F",
"3@	c #0D1F27",
"4@	c #080C0B",
"5@	c #060808",
"6@	c #4F3C31",
"7@	c #322423",
"8@	c #191B1E",
"9@	c #13110E",
"0@	c #151610",
"a@	c #221F18",
"b@	c #2E2220",
"c@	c #2F261F",
"d@	c #221E19",
"e@	c #181919",
"f@	c #111716",
"g@	c #0A1010",
"h@	c #08100F",
"i@	c #3A2D20",
"j@	c #211E17",
"k@	c #33281F",
"l@	c #1E1A15",
"m@	c #100E0E",
"n@	c #0B0A07",
"o@	c #050603",
"p@	c #0E0C06",
"q@	c #181613",
"r@	c #1E1914",
"s@	c #2F241C",
"t@	c #221B14",
"u@	c #12110E",
"v@	c #0C1411",
"w@	c #4A3C2A",
"x@	c #2E251B",
"y@	c #383023",
"z@	c #24201B",
"A@	c #1C1A17",
"B@	c #0E1310",
"C@	c #0B0D0A",
"D@	c #1F201B",
"E@	c #442B25",
"F@	c #261F19",
"G@	c #292219",
"H@	c #3A2E21",
"I@	c #1E1F17",
"J@	c #191E20",
"K@	c #171D1E",
"L@	c #091313",
"M@	c #192528",
"N@	c #413225",
"O@	c #2E261D",
"P@	c #3B2E29",
"Q@	c #292521",
"R@	c #222320",
"S@	c #131B1D",
"T@	c #0D1111",
"U@	c #3A2A21",
"V@	c #201C14",
"W@	c #272319",
"X@	c #362B23",
"Y@	c #1F1D1C",
"Z@	c #171E1D",
"`@	c #141D1E",
" #	c #0A100E",
".#	c #1A2427",
"+#	c #3F2F29",
"@#	c #30281B",
"##	c #3D3628",
"$#	c #2B2527",
"%#	c #212426",
"&#	c #151E20",
"*#	c #0D1517",
"=#	c #161515",
"-#	c #1D1E1E",
";#	c #2D231D",
">#	c #1A1812",
",#	c #27201C",
"'#	c #352C1E",
")#	c #161C19",
"!#	c #101A1A",
"~#	c #09100E",
"{#	c #162325",
"]#	c #312C1B",
"^#	c #2B2727",
"/#	c #282729",
"(#	c #122126",
"_#	c #0F1C22",
":#	c #131614",
"<#	c #191518",
"[#	c #2C2319",
"}#	c #181610",
"|#	c #232317",
"1#	c #2C241F",
"2#	c #16171A",
"3#	c #121C1D",
"4#	c #101719",
"5#	c #0C1415",
"6#	c #312620",
"7#	c #352922",
"8#	c #3C3328",
"9#	c #2C2929",
"0#	c #282826",
"a#	c #162024",
"b#	c #0E1C22",
"c#	c #131715",
"d#	c #191A18",
"e#	c #1F1D18",
"f#	c #151410",
"g#	c #1D1916",
"h#	c #211F18",
"i#	c #131817",
"j#	c #101819",
"k#	c #08110F",
"l#	c #10191A",
"m#	c #2C241A",
"n#	c #382C20",
"o#	c #3A3127",
"p#	c #2E2923",
"q#	c #282928",
"r#	c #151E1F",
"s#	c #0E1B20",
"t#	c #121819",
"u#	c #161511",
"v#	c #10120D",
"w#	c #161715",
"x#	c #1E1B17",
"y#	c #131413",
"z#	c #111714",
"A#	c #0D1516",
"B#	c #091210",
"C#	c #0B1112",
"D#	c #262018",
"E#	c #342B24",
"F#	c #3D3227",
"G#	c #2C2927",
"H#	c #1F2427",
"I#	c #142022",
"J#	c #0E1C1C",
"K#	c #0F1716",
"L#	c #161818",
"M#	c #12100D",
"N#	c #0C0D0C",
"O#	c #131411",
"P#	c #191A14",
"Q#	c #121511",
"R#	c #101616",
"S#	c #0D1616",
"T#	c #091114",
"U#	c #0A1111",
"V#	c #1A1B11",
"W#	c #342B1F",
"X#	c #423729",
"Y#	c #1C1C1C",
"Z#	c #101316",
"`#	c #0C1312",
" $	c #0A0D0D",
".$	c #060C09",
"+$	c #0E100E",
"@$	c #0B0C09",
"#$	c #070907",
"$$	c #0F0F0E",
"%$	c #0E100D",
"&$	c #0A0D0B",
"*$	c #070C0B",
"=$	c #070D09",
"-$	c #060B0A",
";$	c #050908",
">$	c #191711",
",$	c #2C251D",
"'$	c #382D25",
")$	c #181717",
"!$	c #0D1110",
"~$	c #0B0F0F",
"{$	c #0C100F",
"]$	c #171816",
"^$	c #11110D",
"/$	c #090B07",
"($	c #070908",
"_$	c #090B0A",
":$	c #0A0E0C",
"<$	c #0E1413",
"[$	c #0D1313",
"                                  . +                   ",
"            @ # $ % & *       = - ; > , '               ",
"            ) ! ~ { ] ^       / ( _ : < [               ",
"          } | 1 2 3 4 5       6 7 8 9 0 a               ",
"          b c d e f g h i j k l m n o p q               ",
"            r s t u v w x y z A B C D E F G H I         ",
"        J K L M N O P Q R S T U V W X Y Z `  ...+.      ",
"    @.#.$.%.&.*.=.-.;.>.,.'.).!.~.{.].^./.(._.:.<.      ",
"    [.}.|.1.2.3.4.5.6.7.8.9.0.a.b.c.d.e.f.g.h.i.j.      ",
"      k.l.m.n.o.p.q.r.s.t.u.v.w.x.y.z.A.B.C.D.E.F.      ",
"    G.H.I.J.K.L.M.N.O.P.Q.R.S.T.U.V.W.X.Y.Z.`. +.+      ",
"    ++@+#+$+%+&+*+=+-+;+>+,+'+)+!+~+{+]+^+/+(+_+:+      ",
"    <+[+}+|+1+2+3+4+5+6+7+8+9+0+a+b+c+d+e+f+g+h+i+      ",
"    j+k+l+m+n+o+p+q+U U r+s+t+u+v+w+x+y+z+A+B+C+D+      ",
"    E+F+G+H+I+J+K+L+M+N+O+P+Q+R+S+T+U+V+W+X+Y+9+Z+`+    ",
"     @.@+@@@#@$@%@&@*@=@-@;@>@,@'@)@!@~@{@]@^@/@(@_@    ",
"  :@<@[@}@|@8+1@2@3@4@5@6@7@8@9@0@a@b@c@d@e@f@g@h@4@    ",
"  i@j@k@l@m@n@o@p@                    q@r@s@t@u@=.v@    ",
"  w@x@y@z@A@B@C@D@                  E@F@G@H@I@J@K@L@M@  ",
"  N@O@P@Q@R@S@T@&.                  U@V@W@X@Y@Z@`@ #.#  ",
"  +#@###$#%#&#*#=#-#                ;#>#,#'#n )#!#~#{#  ",
"  k+]#;@^#/#(#_#:#<#                [#}#|#1#2#3#4#~#5#  ",
"  6#7#8#9#0#a#b#c#d#                e#f#g#h#:#i#j#k#l#  ",
"  m#n#o#p#q#r#s#t#d#                u#v#w#x#y#z#A#B#C#  ",
"  D#E#F#G#H#I#J#K#L#                M#N#O#P#Q#R#S#T#U#  ",
"  V#W#X#Y#Z#`# $.$+$                @$#$$$%$&$*$=$-$;$  ",
"  >$,$'$)$!$U#~${$]$                ^$V %$/$($_$:$<$[$  ",
"                                                        "};
