/* XPM */
static char * geda_find_and_replace_22x22_xpm[] = {
"22 22 300 2",
"  	c None",
". 	c #ABABAB",
"+ 	c #B8B8B8",
"@ 	c #BBBBBB",
"# 	c #BABABA",
"$ 	c #B3B3B3",
"% 	c #ADADAD",
"& 	c #A9A9A9",
"* 	c #A7A7A7",
"= 	c #A4A4A4",
"- 	c #A1A1A1",
"; 	c #9D9D9D",
"> 	c #999999",
", 	c #979797",
"' 	c #959595",
") 	c #898989",
"! 	c #D4D4D4",
"~ 	c #EFEFEF",
"{ 	c #E7E7E7",
"] 	c #D8D7D7",
"^ 	c #C9CACA",
"/ 	c #CFD2D5",
"( 	c #D2D5D8",
"_ 	c #E0DFDF",
": 	c #EDEEEE",
"< 	c #F3F2F3",
"[ 	c #F2F2F2",
"} 	c #F3F3F3",
"| 	c #F4F4F4",
"1 	c #F8F8F8",
"2 	c #EDEDED",
"3 	c #7F7F7F",
"4 	c #D1D1D1",
"5 	c #D8D7D8",
"6 	c #BCBBBA",
"7 	c #B9BFC6",
"8 	c #A1B7D1",
"9 	c #8FA9C9",
"0 	c #8CA6C7",
"a 	c #94B1D1",
"b 	c #BDC4CC",
"c 	c #C4C3C1",
"d 	c #DADADA",
"e 	c #DEDEDE",
"f 	c #DCDCDC",
"g 	c #E3E3E3",
"h 	c #CBCBCB",
"i 	c #CECCCB",
"j 	c #C2C6CB",
"k 	c #92ACCD",
"l 	c #A2B8D5",
"m 	c #CCD8E8",
"n 	c #C4D3E5",
"o 	c #92ACCB",
"p 	c #7396C0",
"q 	c #B8C2CD",
"r 	c #BDBCBA",
"s 	c #CFCFCF",
"t 	c #D0D0D0",
"u 	c #D8D8D8",
"v 	c #E5E5E5",
"w 	c #DFDFDF",
"x 	c #C4C3C3",
"y 	c #D2D1CF",
"z 	c #95ACC8",
"A 	c #9AB4D2",
"B 	c #E7EDF3",
"C 	c #E3E9F0",
"D 	c #D8E1EC",
"E 	c #D9E2EB",
"F 	c #84A4C7",
"G 	c #7898BE",
"H 	c #C4C1BF",
"I 	c #B4B4B4",
"J 	c #CBCACA",
"K 	c #C7C7C7",
"L 	c #D5D5D5",
"M 	c #E6E6E6",
"N 	c #E0E0E0",
"O 	c #C8C6C2",
"P 	c #ABB2BA",
"Q 	c #6F90BA",
"R 	c #BCCDE0",
"S 	c #DFE7EF",
"T 	c #D2DDEA",
"U 	c #CFDBE8",
"V 	c #B3C7DD",
"W 	c #8AA8CC",
"X 	c #7396BF",
"Y 	c #ABADB2",
"Z 	c #B6B5B4",
"` 	c #D7D8D8",
" .	c #D3D3D3",
"..	c #E2E2E2",
"+.	c #C7C4C1",
"@.	c #A8AFB8",
"#.	c #6F90B9",
"$.	c #BCCCDF",
"%.	c #D9E1EA",
"&.	c #C6D4E2",
"*.	c #B2C6DB",
"=.	c #91AFCF",
"-.	c #8FADCE",
";.	c #7194BF",
">.	c #A3A5AA",
",.	c #B2B1AF",
"'.	c #D8D9D9",
").	c #DCDCDB",
"!.	c #EDEDEE",
"~.	c #E4E6E7",
"{.	c #C0C0BF",
"].	c #D6D3D0",
"^.	c #91A7C4",
"/.	c #94ADCB",
"(.	c #C0CFDE",
"_.	c #A4BAD2",
":.	c #91AFCE",
"<.	c #90AECE",
"[.	c #8EACCD",
"}.	c #7192BA",
"|.	c #B0AEAB",
"1.	c #D3D3D2",
"2.	c #E5E6E7",
"3.	c #E2E6E4",
"4.	c #B3AA96",
"5.	c #805F3E",
"6.	c #C3C3C3",
"7.	c #CCCBC9",
"8.	c #CFD3D9",
"9.	c #8AA7CA",
"0.	c #92ACC9",
"a.	c #99B2CC",
"b.	c #91AECC",
"c.	c #84A4C8",
"d.	c #5D86B8",
"e.	c #B7C1CC",
"f.	c #918F8E",
"g.	c #CFCECE",
"h.	c #CDCDCD",
"i.	c #D1D2D3",
"j.	c #CECFCE",
"k.	c #A99074",
"l.	c #D67A6B",
"m.	c #EB4B45",
"n.	c #803910",
"o.	c #A5A5A5",
"p.	c #9B9B9B",
"q.	c #BBBBBA",
"r.	c #D4DBE2",
"s.	c #99B3D3",
"t.	c #7DA1CB",
"u.	c #7A9ECC",
"v.	c #99B8DC",
"w.	c #B5BDC6",
"x.	c #939392",
"y.	c #C6C6C6",
"z.	c #D8D8D7",
"A.	c #DEE0E3",
"B.	c #CAC8C6",
"C.	c #9A8B71",
"D.	c #AEAEA5",
"E.	c #DF7274",
"F.	c #D71516",
"G.	c #76320A",
"H.	c #8F8F8F",
"I.	c #9A9A9A",
"J.	c #878787",
"K.	c #A2A1A1",
"L.	c #87888A",
"M.	c #9A9FA4",
"N.	c #969BA0",
"O.	c #59595A",
"P.	c #9E9D9D",
"Q.	c #D9D9D9",
"R.	c #ECEEF0",
"S.	c #BBB8B2",
"T.	c #8E7545",
"U.	c #D2AA63",
"V.	c #C4AE79",
"W.	c #B79094",
"X.	c #7C3514",
"Y.	c #929292",
"Z.	c #AAAAAA",
"`.	c #E8E8E8",
" +	c #8F8F8E",
".+	c #F0F0F1",
"++	c #D2CDC5",
"@+	c #AA9161",
"#+	c #D6AE64",
"$+	c #D09B36",
"%+	c #B98731",
"&+	c #867554",
"*+	c #534F33",
"=+	c #BCBCBC",
"-+	c #949494",
";+	c #B1B1B1",
">+	c #E9E9E9",
",+	c #E1E1E1",
"'+	c #E2E2E3",
")+	c #C7C1B5",
"!+	c #A08550",
"~+	c #CA9F4F",
"{+	c #D09A35",
"]+	c #A26F0E",
"^+	c #8C723F",
"/+	c #C9C5BD",
"(+	c #B7B7B7",
"_+	c #A6A6A6",
":+	c #C9C9C9",
"<+	c #CACACA",
"[+	c #BEBEBE",
"}+	c #B0B0B0",
"|+	c #A09787",
"1+	c #97793D",
"2+	c #D6A957",
"3+	c #CD9730",
"4+	c #9B6A0F",
"5+	c #907A51",
"6+	c #E4E2DE",
"7+	c #E9EAEB",
"8+	c #DDDDDD",
"9+	c #CCCCCC",
"0+	c #C2C2C2",
"a+	c #C8C9C9",
"b+	c #C3C2C0",
"c+	c #ADA088",
"d+	c #A68445",
"e+	c #DAAC56",
"f+	c #C58E27",
"g+	c #8F620F",
"h+	c #8F7E60",
"i+	c #DFE0E0",
"j+	c #F9FAFD",
"k+	c #C7C8C8",
"l+	c #A1957B",
"m+	c #AD8E4B",
"n+	c #D9A84B",
"o+	c #BC841D",
"p+	c #8C641A",
"q+	c #A0957F",
"r+	c #D0D2D3",
"s+	c #E6E7E8",
"t+	c #EAEAEA",
"u+	c #EBEBEB",
"v+	c #E4E4E3",
"w+	c #E0E1E3",
"x+	c #B7AF9F",
"y+	c #C2B27F",
"z+	c #E7D499",
"A+	c #B68320",
"B+	c #805D1D",
"C+	c #B4AD9F",
"D+	c #F0F1F4",
"E+	c #F6F6F6",
"F+	c #EAEBED",
"G+	c #DDDEDC",
"H+	c #8D7B58",
"I+	c #C8B06F",
"J+	c #AD9558",
"K+	c #9A8152",
"L+	c #BCB6AC",
"M+	c #F0F1F5",
"N+	c #F8F9F9",
"O+	c #F7F7F7",
"P+	c #E4E4E4",
"Q+	c #E7E8E8",
"R+	c #EEF0F1",
"S+	c #9F9177",
"T+	c #584624",
"U+	c #958362",
"V+	c #B8B09F",
"W+	c #C1BFBB",
"X+	c #D3D5D6",
"Y+	c #D5D6D6",
"Z+	c #DBDBDB",
"`+	c #F0F0F0",
" @	c #F4F4F5",
".@	c #EDEBE9",
"+@	c #C1B7A7",
"@@	c #D8D4CB",
"#@	c #EBEAE7",
"$@	c #ECECED",
"%@	c #E9EAEA",
"&@	c #EBEBEA",
"*@	c #EEEEEE",
"=@	c #727272",
"-@	c #6B6B6B",
";@	c #7E7E7E",
">@	c #7B7B7C",
",@	c #767575",
"'@	c #727273",
")@	c #6E6E6E",
"!@	c #6B6A6A",
"~@	c #6D6D6D",
"{@	c #6F6F6F",
"]@	c #737373",
"^@	c #797979",
"/@	c #7D7D7D",
"(@	c #828282",
"_@	c #767676",
"      . + @ # $ % & . . * = - ; > , ' )     ",
"      ! ~ { ] ^ / ( ^ _ : < [ } | } 1 2 3   ",
"      4 5 6 7 8 9 0 a b c d e f f e g e     ",
"      h i j k l m n o p q r s t s u v w     ",
"      x y z A B C D E F G H I J K L M N     ",
"      O P Q R S T U V W X Y Z `  .f { ..    ",
"      +.@.#.$.%.&.*.=.-.;.>.,.'. .).!.~.    ",
"      {.].^./.(._.:.<.[.}.|.$ d 1.2.3.4.5.  ",
"      6.7.8.9.0.a.b.c.d.e.f.g.h.i.j.k.l.m.n.",
"      o.p.q.r.s.t.u.v.w.x.y.z.A.B.C.D.E.F.G.",
"    H.I.J.- K.L.M.N.O.P.Q.M R.S.T.U.V.W.X.  ",
"  Y.> J.' Z.`.w  +) w u { .+++@+#+$+%+&+*+  ",
"  =+-+' ;+Q.f Q.v >+f ,+'+)+!+~+{+]+^+/+    ",
"  y.(+_+:+<+<+[+% }+(+# |+1+2+3+4+5+6+7+    ",
"      # 8+!  .9+0+a+b+c+d+e+f+g+h+i+j+v     ",
"      [+M g M 8+9+k+l+m+n+o+p+q+r+s+| v     ",
"      [+t+{ u+v+w+x+y+z+A+B+C+D+!.2 E+v     ",
"      =+t+{ >+F+G+H+I+J+K+L+M+N+O+| O+v     ",
"      =+{ P+Q+R+S+T+U+V+W+X+Y+Z+..{ [ M     ",
"      + } `+ @.@+@@@#@!.$@%@&@*@`+[ O+P+=@  ",
"      -@3 ;@>@,@=@'@)@-@!@~@{@]@^@/@(@_@    ",
"                                            "};
