/* XPM */
static char * geda_find_and_replace_36x36_xpm[] = {
"36 36 531 2",
"  	c None",
". 	c #9C9C9C",
"+ 	c #ACACAC",
"@ 	c #ADADAD",
"# 	c #B0B0B0",
"$ 	c #AFAFAF",
"% 	c #AEAEAE",
"& 	c #AAAAAA",
"* 	c #A8A8A8",
"= 	c #A5A5A5",
"- 	c #A3A3A3",
"; 	c #A0A0A0",
"> 	c #9D9D9D",
", 	c #9B9B9B",
"' 	c #989898",
") 	c #969696",
"! 	c #939393",
"~ 	c #919191",
"{ 	c #8F8F8F",
"] 	c #8C8C8C",
"^ 	c #898989",
"/ 	c #878787",
"( 	c #858585",
"_ 	c #838383",
": 	c #808080",
"< 	c #7E7E7E",
"[ 	c #6E6E6E",
"} 	c #CDCDCD",
"| 	c #F6F6F6",
"1 	c #EEEEEE",
"2 	c #F0F0F0",
"3 	c #F3F3F3",
"4 	c #FAFAFA",
"5 	c #DADADA",
"6 	c #C5C5C5",
"7 	c #BABABA",
"8 	c #BFBFBF",
"9 	c #F8F8F8",
"0 	c #F1F1F1",
"a 	c #F5F5F5",
"b 	c #D2D2D2",
"c 	c #525252",
"d 	c #D6D6D6",
"e 	c #E5E5E5",
"f 	c #DBDBDB",
"g 	c #E1E1E1",
"h 	c #D1D1D1",
"i 	c #8E8F8F",
"j 	c #A4A4A4",
"k 	c #D8D7D5",
"l 	c #F3F2F1",
"m 	c #F2F1F0",
"n 	c #C5C5C4",
"o 	c #929292",
"p 	c #B4B4B4",
"q 	c #E2E2E2",
"r 	c #E3E3E3",
"s 	c #E7E7E7",
"t 	c #545454",
"u 	c #D5D5D5",
"v 	c #E6E6E6",
"w 	c #DCDCDC",
"x 	c #DEDEDE",
"y 	c #B8B8B8",
"z 	c #A5A4A4",
"A 	c #F7F6F6",
"B 	c #E7ECF3",
"C 	c #B5C4D5",
"D 	c #8EA5C2",
"E 	c #98ACC6",
"F 	c #C4D0DE",
"G 	c #F1F6FC",
"H 	c #DEDDDB",
"I 	c #D8D8D8",
"J 	c #E4E4E4",
"K 	c #D4D4D4",
"L 	c #DFDFDF",
"M 	c #B8B8B7",
"N 	c #F2F3F4",
"O 	c #7492BA",
"P 	c #4270A9",
"Q 	c #6B90BE",
"R 	c #88A7CB",
"S 	c #7E9FC7",
"T 	c #5A83B4",
"U 	c #3E6EA6",
"V 	c #9EB2CC",
"W 	c #EEEDEC",
"X 	c #9F9F9F",
"Y 	c #DDDDDD",
"Z 	c #E8E8E8",
"` 	c #535353",
" .	c #B5B5B5",
"..	c #F5F7F8",
"+.	c #577DAE",
"@.	c #779AC4",
"#.	c #D7E1EE",
"$.	c #E4EAF2",
"%.	c #DFE7F0",
"&.	c #D8E2EC",
"*.	c #CDDAE8",
"=.	c #A1B9D4",
"-.	c #5480B3",
";.	c #88A2C2",
">.	c #F6F7F6",
",.	c #979797",
"'.	c #CCCCCC",
").	c #CECECE",
"!.	c #CFCFCF",
"~.	c #A8A7A7",
"{.	c #F9F8F6",
"].	c #91A6C0",
"^.	c #6990BE",
"/.	c #E1E8F1",
"(.	c #E6EDF2",
"_.	c #DFE7EF",
":.	c #D8E2ED",
"<.	c #CFDBE9",
"[.	c #CDD9E7",
"}.	c #A5BDD7",
"|.	c #396BA6",
"1.	c #D0D7DF",
"2.	c #D7D7D7",
"3.	c #B1B1B1",
"4.	c #CBCBCB",
"5.	c #EAEAEA",
"6.	c #B2B1B0",
"7.	c #DFE1E2",
"8.	c #3365A4",
"9.	c #C2D3E4",
"0.	c #DEE7F0",
"a.	c #E1E9F1",
"b.	c #E1E8F0",
"c.	c #DCE5EF",
"d.	c #D5E0EC",
"e.	c #CEDBE9",
"f.	c #9EB8D4",
"g.	c #7599C3",
"h.	c #426FA6",
"i.	c #F7F5F1",
"j.	c #8B8B8B",
"k.	c #D0D0D0",
"l.	c #B2B2B2",
"m.	c #CCC9C5",
"n.	c #7F9BBF",
"o.	c #5A84B5",
"p.	c #DBE4EE",
"q.	c #DBE5EF",
"r.	c #D6E0EA",
"s.	c #D3DEEA",
"t.	c #CFDBE8",
"u.	c #CAD7E6",
"v.	c #B9CBDE",
"w.	c #85A4C7",
"x.	c #94B0CE",
"y.	c #3365A2",
"z.	c #DADDE3",
"A.	c #818180",
"B.	c #BCBCBC",
"C.	c #C4C4C4",
"D.	c #EBEBEB",
"E.	c #515151",
"F.	c #A7A7A7",
"G.	c #D0CDC9",
"H.	c #6388B4",
"I.	c #7496C0",
"J.	c #DEE6EF",
"K.	c #D8E2EB",
"L.	c #D7E1EB",
"M.	c #D4DFEC",
"N.	c #CFDDEA",
"O.	c #CCDAE9",
"P.	c #C8D7E7",
"Q.	c #9EB9D7",
"R.	c #95B3D4",
"S.	c #9FBAD9",
"T.	c #4E7BB1",
"U.	c #BAC5D4",
"V.	c #898786",
"W.	c #ECECEC",
"X.	c #6387B4",
"Y.	c #7798C0",
"Z.	c #DDE5EC",
"`.	c #D6DFEB",
" +	c #CDD9E6",
".+	c #CAD8E6",
"++	c #C6D5E6",
"@+	c #A4BED8",
"#+	c #90AECF",
"$+	c #9CB8D5",
"%+	c #4976AD",
"&+	c #B9C4D2",
"*+	c #81807E",
"=+	c #505050",
"-+	c #AEAFAF",
";+	c #CBC8C4",
">+	c #87A1C2",
",+	c #5880B3",
"'+	c #D7E0E8",
")+	c #D2DCE8",
"!+	c #CDD9E5",
"~+	c #BECCDB",
"{+	c #B3C6D7",
"]+	c #8DA9C9",
"^+	c #89A8C9",
"/+	c #8AA8C9",
"(+	c #91ADCC",
"_+	c #2D60A0",
":+	c #DBDCDF",
"<+	c #6A6A6A",
"[+	c #C0C0C0",
"}+	c #E9E9E9",
"|+	c #F0F0F1",
"1+	c #DFDFE0",
"2+	c #4D4E4F",
"3+	c #A9A9A9",
"4+	c #F8F3ED",
"5+	c #3263A2",
"6+	c #B9C9D9",
"7+	c #BBCADB",
"8+	c #B1C5DA",
"9+	c #A5BCD5",
"0+	c #99B4D2",
"a+	c #95B3D2",
"b+	c #94B2D3",
"c+	c #96B3D4",
"d+	c #6C93C1",
"e+	c #597FB0",
"f+	c #E7E3DF",
"g+	c #6B6B6B",
"h+	c #ECECED",
"i+	c #CDC8BE",
"j+	c #856E48",
"k+	c #664619",
"l+	c #EEECEA",
"m+	c #AFBFD3",
"n+	c #6187B6",
"o+	c #BBCCDD",
"p+	c #AFC3D8",
"q+	c #99B1CA",
"r+	c #93AECB",
"s+	c #8DABCB",
"t+	c #8CABCC",
"u+	c #90AECD",
"v+	c #86A5C8",
"w+	c #426FA7",
"x+	c #E4E7EC",
"y+	c #A9A8A8",
"z+	c #949494",
"A+	c #F2F3F5",
"B+	c #B2AA96",
"C+	c #7E5C2D",
"D+	c #E59187",
"E+	c #F6716D",
"F+	c #A84626",
"G+	c #C1C1C1",
"H+	c #F7F7F8",
"I+	c #839FC2",
"J+	c #4876AE",
"K+	c #A8BDD6",
"L+	c #A2B9D1",
"M+	c #9BB6D1",
"N+	c #97B3D1",
"O+	c #7B9FC8",
"P+	c #3668A6",
"Q+	c #B7C8DC",
"R+	c #E8E7E7",
"S+	c #4F4F4F",
"T+	c #CACACA",
"U+	c #E4E5E7",
"V+	c #8E7F67",
"W+	c #8C5E30",
"X+	c #FB8F8B",
"Y+	c #FE6768",
"Z+	c #FF3333",
"`+	c #E21F18",
" @	c #6B3C0B",
".@	c #909090",
"+@	c #ABABAB",
"@@	c #FCFCF9",
"#@	c #B3C2D4",
"$@	c #2F62A1",
"%@	c #4573AA",
"&@	c #547EB1",
"*@	c #4F7BB0",
"=@	c #3A6BA7",
"-@	c #4B75A8",
";@	c #DEE3E8",
">@	c #E9E8E6",
",@	c #E0E0E1",
"'@	c #DEDEDD",
")@	c #827253",
"!@	c #8F7550",
"~@	c #C9C5C9",
"{@	c #CCA0A0",
"]@	c #F92C2C",
"^@	c #E11314",
"/@	c #B6150E",
"(@	c #673A0B",
"_@	c #8E8E8E",
":@	c #8D8D8D",
"<@	c #6D6D6D",
"[@	c #B6B6B6",
"}@	c #B3B3B3",
"|@	c #DDDCDA",
"1@	c #BDCFE4",
"2@	c #AEC3DD",
"3@	c #B2C5DF",
"4@	c #CCD9E9",
"5@	c #FEFDF8",
"6@	c #B1B1B0",
"7@	c #717171",
"8@	c #DADBDD",
"9@	c #C8C6C3",
"0@	c #806C47",
"a@	c #9F7A3C",
"b@	c #D6C5AA",
"c@	c #BCB6B1",
"d@	c #B1BCBD",
"e@	c #C55051",
"f@	c #B10806",
"g@	c #762F0A",
"h@	c #999999",
"i@	c #7A7A7A",
"j@	c #A1A1A1",
"k@	c #6F6F6F",
"l@	c #939392",
"m@	c #9C9B9B",
"n@	c #929291",
"o@	c #787777",
"p@	c #4A4949",
"q@	c #EDEEEE",
"r@	c #D2CEC7",
"s@	c #5D4515",
"t@	c #C29D58",
"u@	c #DEBB7A",
"v@	c #D7AA57",
"w@	c #C59241",
"x@	c #B0B5B7",
"y@	c #AB7070",
"z@	c #6B2F00",
"A@	c #57430A",
"B@	c #959595",
"C@	c #7B7B7B",
"D@	c #9E9E9E",
"E@	c #D3D3D3",
"F@	c #848484",
"G@	c #747474",
"H@	c #EFEFEF",
"I@	c #F2F2F3",
"J@	c #D4D1C9",
"K@	c #765C2C",
"L@	c #CDA762",
"M@	c #DCB871",
"N@	c #D3A651",
"O@	c #C88B19",
"P@	c #C48C27",
"Q@	c #A4958A",
"R@	c #6E582D",
"S@	c #504322",
"T@	c #A6A6A6",
"U@	c #7C7C7C",
"V@	c #9A9A9A",
"W@	c #B7B7B7",
"X@	c #F2F2F2",
"Y@	c #F8F9FB",
"Z@	c #B4AB9A",
"`@	c #7B5E25",
" #	c #C19D57",
".#	c #DDB974",
"+#	c #D1A044",
"@#	c #D09221",
"##	c #BE871F",
"$#	c #855C10",
"%#	c #775E36",
"&#	c #B4AEA3",
"*#	c #484A50",
"=#	c #D9D9D9",
"-#	c #E0E0E0",
";#	c #ECEDEF",
">#	c #ACA18D",
",#	c #76581C",
"'#	c #DAB56E",
")#	c #DCB771",
"!#	c #CD9733",
"~#	c #CB9020",
"{#	c #B7811E",
"]#	c #75510C",
"^#	c #6D5628",
"/#	c #EBE9E7",
"(#	c #D9D9DA",
"_#	c #444444",
":#	c #BBBBBB",
"<#	c #C3C3C3",
"[#	c #C8C8C8",
"}#	c #BDBDBE",
"|#	c #877B61",
"1#	c #7C5B1B",
"2#	c #DFBA74",
"3#	c #DAB36A",
"4#	c #CD9835",
"5#	c #CA8F1F",
"6#	c #B47F1C",
"7#	c #6D4B0B",
"8#	c #7C6941",
"9#	c #F3F4F5",
"0#	c #F6F6F7",
"a#	c #828282",
"b#	c #C7C7C7",
"c#	c #C2C2C2",
"d#	c #BEBEBE",
"e#	c #C6C6C6",
"f#	c #C9C9C8",
"g#	c #7C6A4B",
"h#	c #916F2D",
"i#	c #DFBA75",
"j#	c #D8B064",
"k#	c #CB9228",
"l#	c #CB8F1E",
"m#	c #A1711A",
"n#	c #654407",
"o#	c #96876C",
"p#	c #F3F2F3",
"q#	c #F3F3F4",
"r#	c #454545",
"s#	c #B9B9B9",
"t#	c #C9C9C9",
"u#	c #CCCBCB",
"v#	c #6C572D",
"w#	c #B28E4C",
"x#	c #DFBB75",
"y#	c #D6AB5A",
"z#	c #CA9023",
"A#	c #986A17",
"B#	c #593900",
"C#	c #B8AD99",
"D#	c #EFF1F2",
"E#	c #BEBEBF",
"F#	c #BAB9B8",
"G#	c #654A14",
"H#	c #B6924E",
"I#	c #DFB974",
"J#	c #D5AA57",
"K#	c #C98C1D",
"L#	c #CA8E20",
"M#	c #8A6114",
"N#	c #614612",
"O#	c #ADA99E",
"P#	c #D0D2D4",
"Q#	c #EDEDED",
"R#	c #D4D5D4",
"S#	c #C0BDB5",
"T#	c #765B25",
"U#	c #BD9A55",
"V#	c #E2BB73",
"W#	c #D1A046",
"X#	c #CB8D1B",
"Y#	c #BC861E",
"Z#	c #775006",
"`#	c #685126",
" $	c #C0BCB4",
".$	c #DEDEE0",
"+$	c #D9D8D8",
"@$	c #F4F4F4",
"#$	c #DADAD9",
"$$	c #8D7D5E",
"%$	c #C4B582",
"&$	c #E4D7A5",
"*$	c #D1A54C",
"=$	c #CC9020",
"-$	c #B5801D",
";$	c #6B4804",
">$	c #8A7752",
",$	c #DADAD8",
"'$	c #E2E3E4",
")$	c #F7F7F7",
"!$	c #D0CDC7",
"~$	c #8A7037",
"{$	c #E1D4A0",
"]$	c #E1D5A3",
"^$	c #DABC71",
"/$	c #AF7C1D",
"($	c #68490D",
"_$	c #7C6A46",
":$	c #E7E8EA",
"<$	c #F8F8F7",
"[$	c #F9F9F9",
"}$	c #E6E8EA",
"|$	c #634A1F",
"1$	c #CEB168",
"2$	c #E0CD8E",
"3$	c #E7CF8E",
"4$	c #AD8F49",
"5$	c #5A3A00",
"6$	c #AA9E86",
"7$	c #E9EAEC",
"8$	c #E5E5E6",
"9$	c #BDBDBD",
"0$	c #F2F4F6",
"a$	c #AA9D85",
"b$	c #806F4D",
"c$	c #827450",
"d$	c #B9974D",
"e$	c #65470B",
"f$	c #735D35",
"g$	c #D6D3CC",
"h$	c #EAEAEB",
"i$	c #E0DEDA",
"j$	c #654C1D",
"k$	c #281C06",
"l$	c #553E17",
"m$	c #81725B",
"n$	c #C6C4BE",
"o$	c #DBDEE2",
"p$	c #9F8F71",
"q$	c #776241",
"r$	c #BFB6A3",
"s$	c #DFDEDB",
"t$	c #E3E4E6",
"u$	c #DDDDDF",
"v$	c #FFFFFF",
"w$	c #E9E6E0",
"x$	c #FCFCFD",
"y$	c #FAFAF9",
"z$	c #FBFBFB",
"A$	c #414141",
"B$	c #4B4B4B",
"C$	c #585858",
"D$	c #575757",
"E$	c #595959",
"F$	c #4D4D4D",
"          . + @ # # $ % + & * = - ; > , ' ) ! ~ { ] ^ / ( _ : < [       ",
"          } | 1 2 2 3 4 5 6 7 8 } 2 9 0 2 0 2 2 2 2 2 2 2 2 2 a b c     ",
"          d e f f g h i j k l m n o p g q q r q q q r q q q q s f t     ",
"          u v w x y z A B C D E F G H * I J r r J r r r r r q s 5 t     ",
"          K v L ; M N O P Q R S T U V W X u Y w w w w w L J r Z 5 `     ",
"          K s  .8 ..+.@.#.$.%.&.*.=.-.;.>.,.'.).!.!.!.!.d J J Z 5 `     ",
"          b v ~.{.].^./.(.B _.:.<.[.}.|.1.2.3.'.4.4.4.4.u e J 5.5 `     ",
"          b Y 6.7.8.9.0.a.b.c.d.e.<.f.g.h.i.j.k.h b b h I v e 5.5 `     ",
"          2.l.m.n.o.p.q.p.r.s.t.u.v.w.x.y.z.A.B.6 6 6 C.k.s v D.5 E.    ",
"          I F.G.H.I.J.K.L.M.N.O.P.Q.R.S.T.U.V.b r r r r e Z s W.f E.    ",
"          2.= G.X.Y.Z.`.s. +.+++@+#+#+$+%+&+*+6 2.2.2.2.Y Z Z W.f =+    ",
"          d -+;+>+,+'+)+!+~+{+]+^+/+/+(+_+:+<+ .8 [+[+8 ).}+}+|+1+2+    ",
"          ).g 3+4+5+6+7+8+9+0+a+b+b+c+d+e+f+g+g q q q q e 5.h+i+j+k+    ",
"          '.5.F.l+m+n+o+p+q+r+s+t+u+v+w+x+y+z+!.'.'.'.'.2.A+B+C+D+E+F+  ",
"          ).}+o G+H+I+J+K+L+M+N+N+O+P+Q+R+S+T+k.!.!.!.!.U+V+W+X+Y+Z+`+ @",
"          [+.@+@% 2 @@#@$@%@&@*@=@-@;@>@c 4.q L L L ,@'@)@!@~@{@]@^@/@(@",
"          _@+@:@<@[@}@|@{.1@2@3@4@5@6@7@j f K K K 8@9@0@a@b@c@d@e@f@g@  ",
"        h@+@: i@+@j@& , k@l@m@n@o@p@{ ).W.5.D.D.q@r@s@t@u@v@w@x@y@z@A@  ",
"      B@+ C@: = D@j@D.| E@F@G@C@o f !.b 1 1 H@I@J@K@L@M@N@O@P@Q@R@S@    ",
"  ] T@. U@( & V@W@5.e r Z H@2 X@3 W.1 2 1 2 Y@Z@`@ #.#+#@###$#%#&#*#    ",
"  3.v , _ 3.:@B.5 =#I 2.2.d I 5 f Y -#q e ;#>#,#'#)#!#~#{#]#^#/#(#_#    ",
"  :#Y f $ ~ <# .[#!.).'.6 + @ # 3.p W@7 }#|#1#2#3#4#5#6#7#8#9#0#I _#    ",
"  ) 4.G+a#y f '.!.4.T+b#c#p y :#d#G+e#f#g#h#i#j#k#l#m#n#o#p#q#a =#r#    ",
"          s#x K b b E@h !.[#t#4.).h u#v#w#x#y#z#~#A#B#C#D#3 X@| =#r#    ",
"          8 s w x Y x Y d y 7 B.E#F#G#H#I#J#K#L#M#N#O#P#2.3 X@| =#r#    ",
"          c#Q#v v Z }+Z J h E@R#S#T#U#V#W#X#Y#Z#`# $.$+$r @$3 | =#r#    ",
"          G+Q#s s }+5.D.s =#f #$$$%$&$*$=$-$;$>$,$'$q -#s @$3 )$=#r#    ",
"          [+Q#s s }+5.D.s f Y !$~${$]$^$/$($_$:$<$[$[$9 )$@$3 )$=#r#    ",
"          8 Q#s s }+5.D.s f }$|$1$2$3$4$5$6$7$8$)$9 9 | a @$3 )$=#r#    ",
"          9$1 s s }+5.}+D.0$a$b$c$d$e$f$g$h$5.D.Q#2 X@@$3 @$@$)$=#r#    ",
"          9$1 e s }+}+5.D.i$j$k$l$m$n$o$).4.} !.E@I Y g v 5.H@| =#r#    ",
"          d#1 e s }+5.5.W.p$q$r$s$t$u$=#I d 2.=#w -#r Z D.H@X@a f r#    ",
"          @ v$)$[$[$[$[$H+w$[$x$y$[$[$[$[$[$[$[$[$4 4 z$z$z$z$v$).A$    ",
"          B$C$C$D$C$C$C$E$E$D$E$C$C$C$C$C$C$E$E$E$C$E$E$E$C$C$E$F$      ",
"                                                                        ",
"                                                                        "};
