/* XPM */
static char * geda_value_28x28_xpm[] = {
"28 28 347 2",
"  	c None",
". 	c #739B23",
"+ 	c #729B23",
"@ 	c #3F6B20",
"# 	c #6FC136",
"$ 	c #1C3613",
"% 	c #C7D321",
"& 	c #C4D322",
"* 	c #104927",
"= 	c #72BB2F",
"- 	c #2C6B26",
"; 	c #286022",
"> 	c #236A29",
", 	c #497F26",
"' 	c #528223",
") 	c #6D9B26",
"! 	c #A5C727",
"~ 	c #D5DC20",
"{ 	c #CDD822",
"] 	c #91BB28",
"^ 	c #649B2A",
"/ 	c #417F28",
"( 	c #2D6D27",
"_ 	c #1E6C2C",
": 	c #0B5D2C",
"< 	c #1A682C",
"[ 	c #2F782C",
"} 	c #629C2C",
"| 	c #9BBF28",
"1 	c #C3D423",
"2 	c #DEE421",
"3 	c #CCD821",
"4 	c #C5D422",
"5 	c #C9D622",
"6 	c #AAC525",
"7 	c #8BB529",
"8 	c #619E2D",
"9 	c #2D7E30",
"0 	c #006031",
"a 	c #00512D",
"b 	c #0E5E2A",
"c 	c #197230",
"d 	c #72A62B",
"e 	c #B7CC23",
"f 	c #D5DE21",
"g 	c #B7CD23",
"h 	c #779522",
"i 	c #B6CB23",
"j 	c #BCCF23",
"k 	c #7AA927",
"l 	c #AEC925",
"m 	c #A6C226",
"n 	c #78A92A",
"o 	c #609D2D",
"p 	c #085A2D",
"q 	c #005F35",
"r 	c #82AF29",
"s 	c #CDD920",
"t 	c #D0DB21",
"u 	c #9FB721",
"v 	c #84A421",
"w 	c #002B23",
"x 	c #A8C424",
"y 	c #B2C823",
"z 	c #002B26",
"A 	c #86AE23",
"B 	c #82A824",
"C 	c #A9C625",
"D 	c #9FBF25",
"E 	c #A7C425",
"F 	c #337429",
"G 	c #004D31",
"H 	c #57952E",
"I 	c #DBE01F",
"J 	c #CFDA20",
"K 	c #B8CA21",
"L 	c #91AA21",
"M 	c #A3C125",
"N 	c #ABC223",
"O 	c #000E27",
"P 	c #346922",
"Q 	c #759D24",
"R 	c #9CBD25",
"S 	c #9DC025",
"T 	c #3A7728",
"U 	c #005037",
"V 	c #C2D222",
"W 	c #CDD821",
"X 	c #C7D621",
"Y 	c #ABC625",
"Z 	c #538727",
"` 	c #326925",
" .	c #9DBF26",
"..	c #A6C025",
"+.	c #001028",
"@.	c #2E7029",
"#.	c #79A628",
"$.	c #97BB27",
"%.	c #367528",
"&.	c #4F8F2B",
"*.	c #C8D521",
"=.	c #C5D522",
"-.	c #C2D321",
";.	c #BCCF21",
">.	c #95BC28",
",.	c #70A027",
"'.	c #12210F",
").	c #92B424",
"!.	c #9FBC25",
"~.	c #000D26",
"{.	c #568D26",
"].	c #8EB627",
"^.	c #357529",
"/.	c #74A527",
"(.	c #C2D322",
"_.	c #C0D123",
":.	c #BBCF22",
"<.	c #B6CD23",
"[.	c #B1C823",
"}.	c #ACC726",
"|.	c #8CB527",
"1.	c #9CBE25",
"2.	c #99B925",
"3.	c #021A25",
"4.	c #003426",
"5.	c #76A628",
"6.	c #317429",
"7.	c #326D27",
"8.	c #BBCE22",
"9.	c #B9CE23",
"0.	c #B5CB23",
"a.	c #B0C823",
"b.	c #AEC724",
"c.	c #ACC624",
"d.	c #C1D223",
"e.	c #A3C225",
"f.	c #97BA27",
"g.	c #719924",
"h.	c #487B23",
"i.	c #00341F",
"j.	c #5D9529",
"k.	c #2C6E26",
"l.	c #002726",
"m.	c #96B724",
"n.	c #BBCF23",
"o.	c #AEC824",
"p.	c #AAC524",
"q.	c #A5C225",
"r.	c #A2C025",
"s.	c #A0BF25",
"t.	c #99BC26",
"u.	c #95BA26",
"v.	c #78A325",
"w.	c #417C27",
"x.	c #2A6925",
"y.	c #84AA24",
"z.	c #96BF27",
"A.	c #B1C923",
"B.	c #9ABD25",
"C.	c #95B926",
"D.	c #91B726",
"E.	c #8DB526",
"F.	c #9FBE26",
"G.	c #A3C026",
"H.	c #7DAA28",
"I.	c #488C2D",
"J.	c #244F1A",
"K.	c #85B229",
"L.	c #A8C524",
"M.	c #98BB26",
"N.	c #94B826",
"O.	c #90B726",
"P.	c #8BB427",
"Q.	c #87B327",
"R.	c #81AE28",
"S.	c #84AF28",
"T.	c #93B828",
"U.	c #73A62B",
"V.	c #418D30",
"W.	c #094220",
"X.	c #568F27",
"Y.	c #93B826",
"Z.	c #8FB627",
"`.	c #89B327",
" +	c #83AF27",
".+	c #80AE29",
"++	c #7AAC29",
"@+	c #75A82A",
"#+	c #71A62A",
"$+	c #83AF28",
"%+	c #5D9A2C",
"&+	c #288033",
"*+	c #1E5E26",
"=+	c #538A28",
"-+	c #7FAC28",
";+	c #81AF28",
">+	c #7FAD28",
",+	c #79AB29",
"'+	c #70A52A",
")+	c #6CA32B",
"!+	c #5D9B2C",
"~+	c #8BB328",
"{+	c #52942E",
"]+	c #0E6A32",
"^+	c #609328",
"/+	c #4E8526",
"(+	c #74A629",
"_+	c #74A72A",
":+	c #6AA12A",
"<+	c #659F2B",
"[+	c #619D2C",
"}+	c #53952C",
"|+	c #72A52A",
"1+	c #2E7F31",
"2+	c #003A24",
"3+	c #0B6931",
"4+	c #044D26",
"5+	c #003B1F",
"6+	c #669F2B",
"7+	c #6EA429",
"8+	c #5E9D2C",
"9+	c #67A12C",
"0+	c #5F9B2B",
"a+	c #5A992C",
"b+	c #56972C",
"c+	c #4C912D",
"d+	c #54952D",
"e+	c #036034",
"f+	c #006735",
"g+	c #0A5C2B",
"h+	c #609C2C",
"i+	c #649F2B",
"j+	c #175C28",
"k+	c #54912A",
"l+	c #5C9C2C",
"m+	c #54962C",
"n+	c #4F932D",
"o+	c #4B902E",
"p+	c #458D2E",
"q+	c #237730",
"r+	c #5E9C2D",
"s+	c #267830",
"t+	c #5A9A2C",
"u+	c #5D982B",
"v+	c #002121",
"w+	c #488D2B",
"x+	c #478A2C",
"y+	c #4E932D",
"z+	c #49902E",
"A+	c #458D2F",
"B+	c #3E892E",
"C+	c #25782F",
"D+	c #6DA42A",
"E+	c #58972D",
"F+	c #0E632C",
"G+	c #55972D",
"H+	c #58952B",
"I+	c #002324",
"J+	c #1B5C21",
"K+	c #2A6C27",
"L+	c #468D2E",
"M+	c #438D2E",
"N+	c #3E8A2E",
"O+	c #388630",
"P+	c #187030",
"Q+	c #67A02B",
"R+	c #75A82B",
"S+	c #2B782D",
"T+	c #155322",
"U+	c #4F932E",
"V+	c #51922C",
"W+	c #002423",
"X+	c #1F561C",
"Y+	c #2A6926",
"Z+	c #408B2F",
"`+	c #3D8930",
" @	c #378630",
".@	c #32822F",
"+@	c #005029",
"@@	c #629E2C",
"#@	c #70A52B",
"$@	c #4A8B2B",
"%@	c #427C26",
"&@	c #73A92A",
"*@	c #445E1B",
"=@	c #4A902E",
"-@	c #4B902C",
";@	c #0A3B21",
">@	c #406E1F",
",@	c #53952D",
"'@	c #3E8A2F",
")@	c #368430",
"!@	c #338431",
"~@	c #20742F",
"{@	c #5E9C2C",
"]@	c #6AA22A",
"^@	c #6AA12B",
"/@	c #78AA2A",
"(@	c #87B329",
"_@	c #81AD27",
":@	c #879F20",
"<@	c #76A528",
"[@	c #7FB12B",
"}@	c #5F9C2C",
"|@	c #308331",
"1@	c #23762F",
"2@	c #0C592A",
"3@	c #4D912D",
"4@	c #629F2C",
"5@	c #60A02C",
"6@	c #6CA42B",
"7@	c #7CAB29",
"8@	c #96BA26",
"9@	c #CCDA23",
"0@	c #59992C",
"a@	c #ADC826",
"b@	c #68A12C",
"c@	c #3E8C30",
"d@	c #2B7E31",
"e@	c #1E6F2E",
"f@	c #13622B",
"g@	c #3F882F",
"h@	c #447924",
"i@	c #3B7626",
"j@	c #39822D",
"k@	c #448D2E",
"l@	c #4C932F",
"m@	c #599E2F",
"n@	c #448D2F",
"o@	c #3B882E",
"p@	c #25762E",
"q@	c #1F672A",
"r@	c #1F692A",
"s@	c #13602B",
"t@	c #38681F",
"u@	c #2B6122",
"v@	c #26762D",
"w@	c #3C9D39",
"x@	c #286122",
"y@	c #173B17",
"z@	c #36842F",
"A@	c #358530",
"B@	c #044926",
"C@	c #1D8134",
"D@	c #175825",
"E@	c #1C6A2D",
"F@	c #1E6C2D",
"                          . +                           ",
"                    @ # $ % & * = - ;                   ",
"                > , ' ) ! ~ { ] ^ / ( _ :               ",
"              < [ } | 1 2 3 4 5 6 7 8 9 0 a             ",
"            b c d e f g h i j k l j m n o p             ",
"            q r s t u v w x y z A B C D E F             ",
"          G H I J K L     M N O   P Q R S T             ",
"          U V W X Y Z `    ...+.    @.#.$.%.            ",
"          &.*.=.-.;.>.,.'.).!.~.      {.].^.            ",
"          /.(._.:.<.[.}.|.1.2.3.      4.5.6.            ",
"          7.8.9.0.a.b.c.d.e.f.g.h.i.    j.k.            ",
"          l.m.n.o.p.q.r.s.t.u.5 v.w.x.                  ",
"            y.z.A.M D B.C.D.E.F.G.H.I.                  ",
"              J.K.L.M.N.O.P.Q.R.S.T.U.V.W.              ",
"                X.,.Y.Z.`. +.+++@+#+$+%+&+              ",
"                  *+=+-+;+>+,+@+'+)+!+~+{+]+            ",
"                      ^+/+(+_+#+:+<+[+}+|+1+2+          ",
"            3+4+        5+6+7+8+9+0+a+b+c+d+e+          ",
"            f+g+          h+i+j+k+l+m+n+o+p+q+          ",
"            r+s+          t+u+v+w+x+y+z+A+B+C+          ",
"            D+E+F+        G+H+I+J+K+L+M+N+O+P+          ",
"            Q+R+S+T+      U+V+W+X+Y+Z+`+ @.@+@          ",
"            @@#+#@$@%@&@*@=@-@;@>@,@'@)@!@~@            ",
"            {@]@^@/@(@_@:@,@z+<@[@}@ @|@1@2@            ",
"            3@4@5@6@7@8@9@0@p+a@b@c@d@e@f@              ",
"            g@h@i@j@k@l@m@n@o@c@p@q@r@s@                ",
"              t@u@v@w@x@y@z@A@B@C@D@                    ",
"                          E@F@                          "};
