/* XPM */
static char * geda_name_tag_24x24_xpm[] = {
"24 24 214 2",
"  	c None",
". 	c #888D8A",
"+ 	c #858A87",
"@ 	c #8F9A99",
"# 	c #6D7273",
"$ 	c #838A88",
"% 	c #668EB6",
"& 	c #4372A1",
"* 	c #517CA4",
"= 	c #4C78A3",
"- 	c #4C79A3",
"; 	c #4B77A4",
"> 	c #98A9B2",
", 	c #626162",
"' 	c #676463",
") 	c #618BAA",
"! 	c #CDE6FB",
"~ 	c #D5E9F3",
"{ 	c #D5E8F4",
"] 	c #D4E5F2",
"^ 	c #D3E5F2",
"/ 	c #D6E9F4",
"( 	c #D4E7F1",
"_ 	c #A1C1D1",
": 	c #889091",
"< 	c #5B5B5D",
"[ 	c #6D7679",
"} 	c #C8CAC4",
"| 	c #759CC0",
"1 	c #BBD3E3",
"2 	c #FFFFFF",
"3 	c #EAEFEB",
"4 	c #F2F1EE",
"5 	c #E5F2F7",
"6 	c #97B8CB",
"7 	c #757979",
"8 	c #64727E",
"9 	c #848584",
"0 	c #607788",
"a 	c #91B6D2",
"b 	c #FCFFFF",
"c 	c #FEFDFD",
"d 	c #E9F2F3",
"e 	c #AABAC0",
"f 	c #DAE2E5",
"g 	c #DFEEF3",
"h 	c #9ABBCF",
"i 	c #93A7B9",
"j 	c #7DA7C1",
"k 	c #F1F9F8",
"l 	c #C8DCE4",
"m 	c #EFF7FB",
"n 	c #FEFEFF",
"o 	c #CDD8DB",
"p 	c #E0E6E5",
"q 	c #F3F6F7",
"r 	c #A0AFB4",
"s 	c #DBE5E7",
"t 	c #D3EAF5",
"u 	c #82ABC8",
"v 	c #BABDBB",
"w 	c #7CA6C2",
"x 	c #E8EBEB",
"y 	c #DDE4E6",
"z 	c #E6F0F3",
"A 	c #A5B2B3",
"B 	c #DADDDB",
"C 	c #DFECEE",
"D 	c #9CABAE",
"E 	c #CDDFE4",
"F 	c #C1E0EE",
"G 	c #96B1C2",
"H 	c #78A6C3",
"I 	c #FFFFFE",
"J 	c #F5F6F5",
"K 	c #B4BDBD",
"L 	c #D4DEE1",
"M 	c #E5F0F3",
"N 	c #9FB0B4",
"O 	c #C6DADE",
"P 	c #D6E8EC",
"Q 	c #9FACB0",
"R 	c #C3D8DD",
"S 	c #BADEEF",
"T 	c #87ABC1",
"U 	c #B3BAB9",
"V 	c #D8DDDC",
"W 	c #DCE3E4",
"X 	c #F3F5F5",
"Y 	c #9CABAF",
"Z 	c #D8E3E9",
"` 	c #E1F3F4",
" .	c #93ACB4",
"..	c #C2DDE5",
"+.	c #CAE5EC",
"@.	c #929FA3",
"#.	c #C1DAE1",
"$.	c #B6D9E9",
"%.	c #8BA6B9",
"&.	c #C2C6C0",
"*.	c #76A5C1",
"=.	c #E8EFF2",
"-.	c #A3B4BB",
";.	c #D5E2E5",
">.	c #E1EAEB",
",.	c #97A4A8",
"'.	c #CFE0E7",
").	c #CCE5EA",
"!.	c #8AA0A7",
"~.	c #B9D8E2",
"{.	c #B3D0D9",
"].	c #859398",
"^.	c #B9D3DE",
"/.	c #A6CBDC",
"(.	c #90AABA",
"_.	c #C4C6C1",
":.	c #628BB1",
"<.	c #97BFDD",
"[.	c #FBFFFF",
"}.	c #E4EDEF",
"|.	c #9EACB1",
"1.	c #CEDEE2",
"2.	c #CEE1E9",
"3.	c #9BA9AD",
"4.	c #C1D8DD",
"5.	c #BAD9E3",
"6.	c #8EA6AE",
"7.	c #B5D5E0",
"8.	c #A7C6D0",
"9.	c #8FA1A6",
"0.	c #BCDCE6",
"a.	c #80AAC8",
"b.	c #87A2B4",
"c.	c #CBCCC2",
"d.	c #7297B5",
"e.	c #80AFD2",
"f.	c #E1F5FD",
"g.	c #DAEAEC",
"h.	c #9DA9AE",
"i.	c #C4DAE2",
"j.	c #CCE5ED",
"k.	c #99A7AC",
"l.	c #B7D3DB",
"m.	c #8E9FA5",
"n.	c #AFD1DB",
"o.	c #B4D7E3",
"p.	c #91B7CD",
"q.	c #578EBE",
"r.	c #AFC1C7",
"s.	c #C8CAC1",
"t.	c #6991B2",
"u.	c #7CAACF",
"v.	c #D9F3FA",
"w.	c #C9E1E5",
"x.	c #93A1A5",
"y.	c #B7CFD6",
"z.	c #BCD8E1",
"A.	c #91A1A8",
"B.	c #AFCBD3",
"C.	c #A3C5D4",
"D.	c #9EB0B7",
"E.	c #9CC2D6",
"F.	c #5180AE",
"G.	c #90AEC2",
"H.	c #F5F3DF",
"I.	c #B7BFBE",
"J.	c #628CB4",
"K.	c #6EA1C9",
"L.	c #CEEDF7",
"M.	c #BED9E2",
"N.	c #92A2A7",
"O.	c #B1CAD3",
"P.	c #ADCFDD",
"Q.	c #8CA7B5",
"R.	c #B7D9E4",
"S.	c #92B5C9",
"T.	c #477CB0",
"U.	c #92ACC3",
"V.	c #B7BFC2",
"W.	c #658EB5",
"X.	c #70A3C9",
"Y.	c #C4E5F0",
"Z.	c #BCDCE7",
"`.	c #8A9BA0",
" +	c #ABC6CE",
".+	c #BADEE9",
"++	c #95BDD5",
"@+	c #3D77AF",
"#+	c #98B1C6",
"$+	c #F1E9D3",
"%+	c #BBC2C1",
"&+	c #5785B2",
"*+	c #7AA9CB",
"=+	c #B8DBE7",
"-+	c #ABCBD5",
";+	c #96A8AF",
">+	c #9EC5D9",
",+	c #4B83B7",
"'+	c #95AFC5",
")+	c #FBEED4",
"!+	c #A9B7BE",
"~+	c #6C9EC6",
"{+	c #B5D8E4",
"]+	c #98C3DD",
"^+	c #5488B8",
"/+	c #7495B5",
"(+	c #EFE8D3",
"_+	c #6790B6",
":+	c #598FBE",
"<+	c #5789B8",
"[+	c #829EB7",
"}+	c #BBC0C1",
"|+	c #195CA6",
"1+	c #698FB4",
"                                                ",
"                                                ",
"                                                ",
"    . +                                         ",
"    @ # $ % & * = = - - ; >                     ",
"      , ' ) ! ~ { ] ^ / ( _                     ",
"      : < [ } | 1 2 2 3 4 5 6                   ",
"        7 8 9 0 a b c d e f g h i               ",
"          j k l m n o p q r s t u v             ",
"          w b 2 x y z A B C D E F G             ",
"          H b I J K L M N O P Q R S T U         ",
"          H b V W X Y Z `  ...+.@.#.$.%.&.      ",
"          *.b =.-.;.>.,.'.).!.~.{.].^./.(._.    ",
"          :.<.[.}.|.1.2.3.4.5.6.7.8.9.0.a.b.    ",
"          c.d.e.f.g.h.i.j.k.l.5.m.n.o.p.q.r.    ",
"            s.t.u.v.w.x.y.z.A.B.C.D.E.F.G.H.    ",
"              I.J.K.L.M.N.O.P.Q.R.S.T.U.        ",
"                V.W.X.Y.Z.`. +.+++@+#+$+        ",
"                  %+&+*+=+-+;+>+,+'+)+          ",
"                    !+&+~+{+]+^+/+(+            ",
"                      %+_+:+<+[+                ",
"                        }+|+1+                  ",
"                                                ",
"                                                "};
