/* XPM */
static char * geda_demote_24x24_xpm[] = {
"24 24 111 2",
"  	c None",
". 	c #000326",
"+ 	c #00053B",
"@ 	c #00073E",
"# 	c #000A23",
"$ 	c #00051F",
"% 	c #000620",
"& 	c #00092F",
"* 	c #000A35",
"= 	c #000926",
"- 	c #000928",
"; 	c #000923",
"> 	c #000E2F",
", 	c #000F35",
"' 	c #000A32",
") 	c #000719",
"! 	c #00052A",
"~ 	c #000D33",
"{ 	c #001232",
"] 	c #000A31",
"^ 	c #000414",
"/ 	c #00032B",
"( 	c #000B32",
"_ 	c #00102E",
": 	c #00082C",
"< 	c #000315",
"[ 	c #00042B",
"} 	c #00082D",
"| 	c #000416",
"1 	c #00052B",
"2 	c #000C34",
"3 	c #00122E",
"4 	c #00092B",
"5 	c #000919",
"6 	c #00072E",
"7 	c #000E37",
"8 	c #00152F",
"9 	c #000D2C",
"0 	c #00020A",
"a 	c #000329",
"b 	c #001130",
"c 	c #000630",
"d 	c #000228",
"e 	c #000832",
"f 	c #000B2A",
"g 	c #000421",
"h 	c #00264E",
"i 	c #003A77",
"j 	c #003859",
"k 	c #000B36",
"l 	c #00102A",
"m 	c #000C2C",
"n 	c #002460",
"o 	c #021E64",
"p 	c #090643",
"q 	c #00061A",
"r 	c #00071E",
"s 	c #000A20",
"t 	c #000A1F",
"u 	c #000B31",
"v 	c #001035",
"w 	c #000F2E",
"x 	c #000631",
"y 	c #000721",
"z 	c #000727",
"A 	c #000523",
"B 	c #000015",
"C 	c #000924",
"D 	c #000C30",
"E 	c #000D37",
"F 	c #000E38",
"G 	c #000E33",
"H 	c #000931",
"I 	c #001438",
"J 	c #001234",
"K 	c #00092A",
"L 	c #00000B",
"M 	c #000925",
"N 	c #000C31",
"O 	c #000D31",
"P 	c #000B2F",
"Q 	c #000E30",
"R 	c #000C26",
"S 	c #000824",
"T 	c #000D26",
"U 	c #000B2D",
"V 	c #000C32",
"W 	c #000D32",
"X 	c #000B25",
"Y 	c #000A2C",
"Z 	c #000B2E",
"` 	c #000D35",
" .	c #000E32",
"..	c #000D30",
"+.	c #000B35",
"@.	c #000A27",
"#.	c #000826",
"$.	c #000E34",
"%.	c #001033",
"&.	c #000A33",
"*.	c #00031D",
"=.	c #000720",
"-.	c #000A26",
";.	c #000725",
">.	c #00021E",
",.	c #00071A",
"'.	c #00040F",
").	c #000B1E",
"!.	c #000726",
"~.	c #000211",
"{.	c #000526",
"                                                ",
"                    . + @ #                     ",
"                  $ % & * =                     ",
"                  - ; > , '                     ",
"                  ) ! ~ { ]                     ",
"                  ^ / ( _ :                     ",
"                  < [ ( _ }                     ",
"                  | 1 2 3 4                     ",
"                  5 6 7 8 9                     ",
"                  0 a * b c                     ",
"                    d e f g                     ",
"            h i   j ( k l m   n o p             ",
"            q r s t u v w x y z A B             ",
"            C D E F G D ' H I J K L             ",
"              M m N O G P ' Q R S               ",
"              T U N V W N V N X                 ",
"                Y Z `  ...+.4 @.                ",
"                  #.$.%.D &.*.                  ",
"                  =.-.W ~ ;.>.                  ",
"                    ,.( 7 '.                    ",
"                    ).!.(                       ",
"                      ~.{.                      ",
"                                                ",
"                                                "};
