/* XPM */
static char * geda_find_and_replace_16x16_xpm[] = {
"16 16 176 2",
"  	c None",
". 	c #B1B1B1",
"+ 	c #C1C1C1",
"@ 	c #C0BFBF",
"# 	c #B6B6B5",
"$ 	c #AFAFAF",
"% 	c #B2B2B2",
"& 	c #B0B0B0",
"* 	c #ACACAC",
"= 	c #A8A8A8",
"- 	c #A4A4A4",
"; 	c #A2A2A2",
"> 	c #8E8E8E",
", 	c #D3D3D3",
"' 	c #E0E0E0",
") 	c #CCCDCD",
"! 	c #B1BFCE",
"~ 	c #A6B8CE",
"{ 	c #A9BBCF",
"] 	c #D6D7D7",
"^ 	c #E3E3E2",
"/ 	c #EBEBEB",
"( 	c #F1F1F1",
"_ 	c #C9C9C9",
": 	c #CACACA",
"< 	c #CCCBCA",
"[ 	c #9EB2CB",
"} 	c #A1B7D4",
"| 	c #CBD7E8",
"1 	c #98B1CE",
"2 	c #7D9CC1",
"3 	c #BEC0C1",
"4 	c #CFCFCF",
"5 	c #D0D0D0",
"6 	c #D4D4D4",
"7 	c #E5E5E5",
"8 	c #C2C2C2",
"9 	c #C4C2C1",
"0 	c #B5BEC8",
"a 	c #94AFCE",
"b 	c #EBF0F4",
"c 	c #DCE4ED",
"d 	c #DAE3EC",
"e 	c #7D9FC5",
"f 	c #9DABBC",
"g 	c #B2B2B1",
"h 	c #CECDCD",
"i 	c #D1D1D1",
"j 	c #E6E6E6",
"k 	c #C3C3C3",
"l 	c #C8C5C1",
"m 	c #8F9FB4",
"n 	c #A5BAD5",
"o 	c #DCE3EC",
"p 	c #C5D3E2",
"q 	c #9EB8D4",
"r 	c #88A7CB",
"s 	c #8B9CB2",
"t 	c #B1B0AE",
"u 	c #D9DADA",
"v 	c #D7D7D7",
"w 	c #ECECED",
"x 	c #C7CCCF",
"y 	c #BEBFBE",
"z 	c #C6C9CE",
"A 	c #8DA7C7",
"B 	c #BDCDDC",
"C 	c #99B3CE",
"D 	c #8FADCD",
"E 	c #87A6C9",
"F 	c #94A0AF",
"G 	c #D9D9D9",
"H 	c #DFE0E1",
"I 	c #DDE0DC",
"J 	c #9D856B",
"K 	c #B6B6B7",
"L 	c #BEBDBC",
"M 	c #B6C5D6",
"N 	c #91AECF",
"O 	c #87A8CD",
"P 	c #8FB0D7",
"Q 	c #849DBB",
"R 	c #D1D1D0",
"S 	c #D5D6D9",
"T 	c #BCBAB4",
"U 	c #A79481",
"V 	c #ED5351",
"W 	c #8F3312",
"X 	c #9C9C9C",
"Y 	c #A8A8A7",
"Z 	c #83888F",
"` 	c #98A3AE",
" .	c #5D6269",
"..	c #A9A8A9",
"+.	c #DBDADA",
"@.	c #EBEDF0",
"#.	c #AFA99D",
"$.	c #B9975B",
"%.	c #C1B085",
"&.	c #A8615C",
"*.	c #9A9A9A",
"=.	c #878787",
"-.	c #9F9F9F",
";.	c #DCDCDC",
">.	c #E1E1E0",
",.	c #8F8F8E",
"'.	c #DEDEDE",
").	c #EDEDEE",
"!.	c #CAC3B6",
"~.	c #B89656",
"{.	c #D19D3A",
"].	c #AE7F2E",
"^.	c #78725A",
"/.	c #B6B6B6",
"(.	c #9D9D9D",
"_.	c #C6C6C6",
":.	c #D2D2D2",
"<.	c #C7C7C7",
"[.	c #CACACC",
"}.	c #AB9F89",
"|.	c #BC9752",
"1.	c #CB9631",
"2.	c #94691A",
"3.	c #BDB39F",
"4.	c #C4C5C7",
"5.	c #C2C3C3",
"6.	c #C5C5C5",
"7.	c #AA9A7E",
"8.	c #C29A4F",
"9.	c #C9922B",
"0.	c #89621B",
"a.	c #C4C0B7",
"b.	c #F8F9FC",
"c.	c #C3C2C2",
"d.	c #BCBCBC",
"e.	c #E9E9E9",
"f.	c #E8E8E8",
"g.	c #DFDFDE",
"h.	c #A99E82",
"i.	c #C3A258",
"j.	c #BD8621",
"k.	c #907035",
"l.	c #C3C2BF",
"m.	c #E5E6E9",
"n.	c #F3F3F3",
"o.	c #BABABA",
"p.	c #ECECEC",
"q.	c #E9E9E8",
"r.	c #E8E8EA",
"s.	c #C2BDB2",
"t.	c #C4AE72",
"u.	c #B89F5F",
"v.	c #9D855A",
"w.	c #E0DFE0",
"x.	c #FBFCFD",
"y.	c #F6F6F6",
"z.	c #B9B9B9",
"A.	c #EBECEC",
"B.	c #796849",
"C.	c #8B7959",
"D.	c #BDB7AB",
"E.	c #CECFCF",
"F.	c #D5D6D6",
"G.	c #DDDDDD",
"H.	c #F2F2F2",
"I.	c #C4C4C4",
"J.	c #9E9E9E",
"K.	c #CDCDCD",
"L.	c #CACACB",
"M.	c #C0BEBC",
"N.	c #ADA8A1",
"O.	c #BEBFC1",
"P.	c #BDBDBD",
"Q.	c #C8C8C8",
"R.	c #CECECE",
"S.	c #A6A6A6",
"    . + @ # . $ % & * = - ; >   ",
"    , ' ) ! ~ { ] ^ / / / ( _   ",
"    : < [ } | 1 2 3 4 5 6 7 8   ",
"    9 0 a b c d e f g h i j k   ",
"    l m n o p q r s t u v w x   ",
"    y z A B C D E F % G H I J   ",
"    K L M N O P Q - R S T U V W ",
"    X > Y Z `  ...+.@.#.$.%.&.  ",
"  *.=.-.;.>.,.;.'.).!.~.{.].^.  ",
"  /.(._.:.<._ _.[.}.|.1.2.3.4.  ",
"    /.;.:.: 5.6.7.8.9.0.a.b.c.  ",
"    d.e.f.g.) h.i.j.k.l.m.n.k   ",
"    o.p.q.r.s.t.u.v.w.x.n.y.8   ",
"    z.e.j A.B.C.D.E.F.G.7 H.I.  ",
"    J.K.L.M.N.+ O.d.P.k Q.R.S.  ",
"                                "};
