/* XPM */
static char *geda_arc_28x28[] = {
/* columns rows colors chars-per-pixel */
"28 28 111 2 ",
"   c #FF0000",
".  c #FF0001",
"X  c #FF0101",
"o  c #FF0200",
"O  c #FF0102",
"+  c #FF0003",
"@  c #FF0302",
"#  c #FF0500",
"$  c #FF0700",
"%  c #FF0601",
"&  c #FF0005",
"*  c #FF0205",
"=  c #FF0006",
"-  c #FF0007",
";  c #FF0704",
":  c #FF0605",
">  c #FF0407",
",  c #FF0507",
"<  c #FF0A00",
"1  c #FF0903",
"2  c #FF0D00",
"3  c #FF0D03",
"4  c #FF0F02",
"5  c #FF0009",
"6  c #FF030C",
"7  c #FF070F",
"8  c #FF090C",
"9  c #FF0A0E",
"0  c #FE0C0C",
"q  c #FF1400",
"w  c #FF1704",
"e  c #FF1800",
"r  c #FF1900",
"t  c #FF1A00",
"y  c #FF1C00",
"u  c #FF1D00",
"i  c #FD1807",
"p  c #FF1209",
"a  c #FC110C",
"s  c #FC1A0B",
"d  c #FF0010",
"f  c #FF0012",
"g  c #FE0E10",
"h  c #FE0E12",
"j  c #F90B19",
"k  c #FF0919",
"l  c #FF0B1B",
"z  c #FB1011",
"x  c #FE1212",
"c  c #FA1114",
"v  c #FE1315",
"b  c #FA1614",
"n  c #F8101C",
"m  c #F8151C",
"M  c #F81B1B",
"N  c #F91C19",
"B  c #F81C1B",
"V  c #F8181D",
"C  c #FE191C",
"Z  c #FF2000",
"A  c #FF2300",
"S  c #FF2900",
"D  c #FF3300",
"F  c #FF3400",
"G  c #FE3705",
"H  c #FC3D0B",
"J  c #FB2110",
"K  c #F92317",
"L  c #F92617",
"P  c #F82B1A",
"I  c #F82F1B",
"U  c #F70C22",
"Y  c #F4072B",
"T  c #F50829",
"R  c #FE1923",
"E  c #F3152D",
"W  c #F41829",
"Q  c #F10734",
"!  c #EF103B",
"~  c #F11534",
"^  c #FD2020",
"/  c #FD2323",
"(  c #FD222D",
")  c #FD2236",
"_  c #FD2939",
"`  c #FD3037",
"'  c #FD303A",
"]  c #FC3939",
"[  c #FC3A3E",
"{  c #EE0B43",
"}  c #EE0E43",
"|  c #EC0A47",
" . c #EB054D",
".. c #EB074D",
"X. c #EB064E",
"o. c #EA0A4E",
"O. c #EE1141",
"+. c #FC3E40",
"@. c #FC3D4D",
"#. c #FC4A42",
"$. c #FB5153",
"%. c #FB575A",
"&. c #FB565B",
"*. c #FA5F61",
"=. c #F97576",
"-. c #F97677",
";. c #F98383",
":. c #F98483",
">. c #F88A87",
",. c #F7A29E",
"<. c None",
/* pixels */
"<.<.<.<.<.<.<.<.<.<.<.<.<.<.<.<.<.<.<.<.<.<.} Y o o o x ",
"<.<.<.<.<.<.<.<.<.<.<.<.<.<.<.<.<.<.<.<.~ G q o o C h =.",
"<.<.<.<.<.<.<.<.<.<.<.<.<.<.<.<.<.<.E J A o h [ / *.<.<.",
"<.<.<.<.<.<.<.<.<.<.<.<.<.<.<.O.I L D < ; +.<.,.<.<.<.<.",
"<.<.<.<.<.<.<.<.<.<.<.<.<.X.H K S t < #.<.<.<.<.<.<.<.<.",
"<.<.<.<.<.<.<.<.<.<.<.<.X.P F e o ] &.<.<.<.<.<.<.<.<.<.",
"<.<.<.<.<.<.<.<.<.<.<.o.n A o / -.<.<.<.<.<.<.<.<.<.<.<.",
"<.<.<.<.<.<.<.<.<.<.{ B y ; v <.<.<.<.<.<.<.<.<.<.<.<.<.",
"<.<.<.<.<.<.<.<.<.V A w o 6 ;.<.<.<.<.<.<.<.<.<.<.<.<.<.",
"<.<.<.<.<.<.<.<.X.U p 7 _ <.<.<.<.<.<.<.<.<.<.<.<.<.<.<.",
"<.<.<.<.<.<.<.X.m 3 5 + <.<.<.<.<.<.<.<.<.<.<.<.<.<.<.<.",
"<.<.<.<.<.<.<.N t ; ' <.<.<.<.<.<.<.<.<.<.<.<.<.<.<.<.<.",
"<.<.<.<.<.<.| t 9 d <.<.<.<.<.<.<.<.<.<.<.<.<.<.<.<.<.<.",
"<.<.<.<.<.| c 0 k <.<.<.<.<.<.<.<.<.<.<.<.<.<.<.<.<.<.<.",
"<.<.<.<.<.i $ l :.<.<.<.<.<.<.<.<.<.<.<.<.<.<.<.<.<.<.<.",
"<.<.<.<.! z 9 ) <.<.<.<.<.<.<.<.<.<.<.<.<.<.<.<.<.<.<.<.",
"<.<.<.<.s 3 f >.<.<.<.<.<.<.<.<.<.<.<.<.<.<.<.<.<.<.<.<.",
"<.<.<.W b > @.<.<.<.<.<.<.<.<.<.<.<.<.<.<.<.<.<.<.<.<.<.",
"<.<.<.N t d <.<.<.<.<.<.<.<.<.<.<.<.<.<.<.<.<.<.<.<.<.<.",
"<.<.<.a ; d <.<.<.<.<.<.<.<.<.<.<.<.<.<.<.<.<.<.<.<.<.<.",
"<.<.<.3 o &.<.<.<.<.<.<.<.<.<.<.<.<.<.<.<.<.<.<.<.<.<.<.",
"<.<.Y ; 5 <.<.<.<.<.<.<.<.<.<.<.<.<.<.<.<.<.<.<.<.<.<.<.",
"<.<.$ + R <.<.<.<.<.<.<.<.<.<.<.<.<.<.<.<.<.<.<.<.<.<.<.",
"<.<.> + $.<.<.<.<.<.<.<.<.<.<.<.<.<.<.<.<.<.<.<.<.<.<.<.",
"<.Q o + <.<.<.<.<.<.<.<.<.<.<.<.<.<.<.<.<.<.<.<.<.<.<.<.",
"<.j o ' <.<.<.<.<.<.<.<.<.<.<.<.<.<.<.<.<.<.<.<.<.<.<.<.",
"<.$ + ( <.<.<.<.<.<.<.<.<.<.<.<.<.<.<.<.<.<.<.<.<.<.<.<.",
"<.o 5 <.<.<.<.<.<.<.<.<.<.<.<.<.<.<.<.<.<.<.<.<.<.<.<.<."
};
