/* XPM */
static char * geda_promote_22x22_xpm[] = {
"22 22 109 2",
"  	c None",
". 	c #010015",
"+ 	c #000002",
"@ 	c #000423",
"# 	c #000212",
"$ 	c #000403",
"% 	c #000C33",
"& 	c #00082B",
"* 	c #00071A",
"= 	c #000418",
"- 	c #000D33",
"; 	c #000B30",
"> 	c #00081E",
", 	c #00081C",
"' 	c #000001",
") 	c #000117",
"! 	c #00072A",
"~ 	c #000C32",
"{ 	c #000F31",
"] 	c #000B2B",
"^ 	c #000520",
"/ 	c #000018",
"( 	c #01071D",
"_ 	c #000420",
": 	c #000A32",
"< 	c #000C30",
"[ 	c #000F33",
"} 	c #000827",
"| 	c #000826",
"1 	c #04151C",
"2 	c #010D24",
"3 	c #000A2D",
"4 	c #000A33",
"5 	c #000D32",
"6 	c #000B32",
"7 	c #000D2D",
"8 	c #001333",
"9 	c #000927",
"0 	c #000923",
"a 	c #000D2C",
"b 	c #000A2F",
"c 	c #000D31",
"d 	c #000C2F",
"e 	c #000A29",
"f 	c #000925",
"g 	c #000623",
"h 	c #000C2E",
"i 	c #001234",
"j 	c #000B31",
"k 	c #000930",
"l 	c #000D34",
"m 	c #000929",
"n 	c #030013",
"o 	c #01021A",
"p 	c #000625",
"q 	c #000621",
"r 	c #00062C",
"s 	c #000E2E",
"t 	c #001034",
"u 	c #000B2D",
"v 	c #00091E",
"w 	c #00071F",
"x 	c #00071B",
"y 	c #0A0025",
"z 	c #040E46",
"A 	c #001F5A",
"B 	c #001F5C",
"C 	c #001444",
"D 	c #001029",
"E 	c #000A34",
"F 	c #000F34",
"G 	c #003257",
"H 	c #003C73",
"I 	c #002A5A",
"J 	c #001A38",
"K 	c #000222",
"L 	c #000B2A",
"M 	c #000732",
"N 	c #000122",
"O 	c #00000F",
"P 	c #00082F",
"Q 	c #001230",
"R 	c #000C35",
"S 	c #000426",
"T 	c #00041B",
"U 	c #00142E",
"V 	c #000D35",
"W 	c #000629",
"X 	c #00102E",
"Y 	c #000B33",
"Z 	c #000427",
"` 	c #00031F",
" .	c #00082C",
"..	c #00031E",
"+.	c #00082E",
"@.	c #00112F",
"#.	c #00051F",
"$.	c #000D2F",
"%.	c #000825",
"&.	c #000824",
"*.	c #000829",
"=.	c #000B2C",
"-.	c #000620",
";.	c #00083F",
">.	c #00043C",
",.	c #000326",
"'.	c #000318",
").	c #000746",
"!.	c #000345",
"                                            ",
"                    . +                     ",
"                    @ #                     ",
"                  $ % & *                   ",
"                  = - ; > ,                 ",
"              ' ) ! ~ { ] ^ /               ",
"              ( _ : < [ - } |               ",
"            1 2 3 4 ; 5 6 ; 7 8             ",
"            9 0 a 6 b 5 c d e f             ",
"            g h i j k < - l ; m             ",
"          n o p q r s t u v w x ,           ",
"          y z A B C D E F G H I J           ",
"                  K L M N O                 ",
"                  P Q R S T                 ",
"                  ] U V W q                 ",
"                  & X Y Z `                 ",
"                   .X : S ..                ",
"                  +.@.Y Z #.                ",
"                  : F $.%.&.                ",
"                  *.4 =.-.q                 ",
"                  0 ;.>.,.'.                ",
"                    ).!.                    "};
