/* XPM */
static char * geda_value_36x36_xpm[] = {
"36 36 424 2",
"  	c None",
". 	c #6C9725",
"+ 	c #C2D324",
"@ 	c #C3D523",
"# 	c #003426",
"$ 	c #0E5928",
"% 	c #58922A",
"& 	c #8CB428",
"* 	c #DDE021",
"= 	c #D4DC22",
"- 	c #80AD29",
"; 	c #59972C",
"> 	c #31792C",
", 	c #004524",
"' 	c #0A5529",
") 	c #57942C",
"! 	c #79AB2B",
"~ 	c #9CBE27",
"{ 	c #B2CA25",
"] 	c #C8D623",
"^ 	c #D0DB21",
"/ 	c #CED922",
"( 	c #A8C526",
"_ 	c #95BA27",
": 	c #7FAE2A",
"< 	c #67A12C",
"[ 	c #498F2F",
"} 	c #2F7E30",
"| 	c #095C2B",
"1 	c #29772E",
"2 	c #59992E",
"3 	c #6CA32C",
"4 	c #81B02A",
"5 	c #AFC726",
"6 	c #C9D523",
"7 	c #D7DD22",
"8 	c #CAD722",
"9 	c #C6D523",
"0 	c #C8D523",
"a 	c #B9CC25",
"b 	c #A4C127",
"c 	c #7DAC2A",
"d 	c #49902F",
"e 	c #398631",
"f 	c #277E33",
"g 	c #0C6E35",
"h 	c #00532B",
"i 	c #1F7632",
"j 	c #408B30",
"k 	c #69A12C",
"l 	c #E2E321",
"m 	c #D3DC21",
"n 	c #CDD921",
"o 	c #C6D623",
"p 	c #C4D423",
"q 	c #C1D223",
"r 	c #C0D223",
"s 	c #B8CE23",
"t 	c #B4CC24",
"u 	c #BED024",
"v 	c #CAD523",
"w 	c #8AB32A",
"x 	c #428C31",
"y 	c #0E6F35",
"z 	c #005930",
"A 	c #0F6931",
"B 	c #2A7F32",
"C 	c #8AB329",
"D 	c #D9DF20",
"E 	c #D2DC21",
"F 	c #CEDA22",
"G 	c #BCCF23",
"H 	c #4F8929",
"I 	c #002C21",
"J 	c #B1CB25",
"K 	c #C2D423",
"L 	c #0A5D2D",
"M 	c #7AAA2A",
"N 	c #AFC825",
"O 	c #ADC824",
"P 	c #AAC526",
"Q 	c #A6C326",
"R 	c #A1C126",
"S 	c #B7CB25",
"T 	c #29702C",
"U 	c #00331C",
"V 	c #0B6E36",
"W 	c #A2C027",
"X 	c #D7DF20",
"Y 	c #D1DB22",
"Z 	c #CEDA21",
"` 	c #84AC26",
" .	c #AAC726",
"..	c #BBD024",
"+.	c #003524",
"@.	c #62992A",
"#.	c #AAC625",
"$.	c #9DBF27",
"%.	c #9EBF26",
"&.	c #458029",
"*.	c #005E32",
"=.	c #74A72C",
"-.	c #DAE021",
";.	c #D0DB22",
">.	c #CCD821",
",.	c #C2D424",
"'.	c #00301E",
").	c #A6C426",
"!.	c #B6CD24",
"~.	c #003928",
"{.	c #4A8227",
"].	c #99BC27",
"^.	c #99BD27",
"/.	c #417E29",
"(.	c #006236",
"_.	c #CDD922",
":.	c #CFDA21",
"<.	c #CAD821",
"[.	c #A1C026",
"}.	c #4B8B2C",
"|.	c #A1C227",
"1.	c #003A28",
"2.	c #4C892B",
"3.	c #94B928",
"4.	c #94BA27",
"5.	c #3F7C29",
"6.	c #4C8E2E",
"7.	c #C9D722",
"8.	c #C2D322",
"9.	c #C3D223",
"0.	c #75A92B",
"a.	c #68A02B",
"b.	c #153413",
"c.	c #9DC027",
"d.	c #ACC826",
"e.	c #80AE28",
"f.	c #8FB728",
"g.	c #3D7B29",
"h.	c #7EAB28",
"i.	c #CCD922",
"j.	c #C5D423",
"k.	c #C1D222",
"l.	c #BED123",
"m.	c #B8CF23",
"n.	c #89B329",
"o.	c #2C6D27",
"p.	c #9BBE27",
"q.	c #A7C525",
"r.	c #266D2B",
"s.	c #8DB628",
"t.	c #3B7B2A",
"u.	c #7CAA29",
"v.	c #C7D522",
"w.	c #BCD024",
"x.	c #B5CB24",
"y.	c #B4CB24",
"z.	c #BCCE24",
"A.	c #9DBE27",
"B.	c #B8CE24",
"C.	c #A4C226",
"D.	c #A2C227",
"E.	c #002E25",
"F.	c #3B7E2A",
"G.	c #578F29",
"H.	c #C3D423",
"I.	c #BBCF24",
"J.	c #B8CD23",
"K.	c #B4CB25",
"L.	c #B0C924",
"M.	c #ACC725",
"N.	c #BBCE24",
"O.	c #A0C026",
"P.	c #9BBD27",
"Q.	c #87AE27",
"R.	c #175523",
"S.	c #0C4E24",
"T.	c #002E21",
"U.	c #B2CB25",
"V.	c #AFC824",
"W.	c #ABC625",
"X.	c #A8C426",
"Y.	c #A1C127",
"Z.	c #93B928",
"`.	c #AFC925",
" +	c #49872A",
".+	c #7DA726",
"++	c #B3CB24",
"@+	c #AEC825",
"#+	c #A6C425",
"$+	c #A3C226",
"%+	c #9FC027",
"&+	c #9BBD26",
"*+	c #98BC27",
"=+	c #94BA28",
"-+	c #8EB628",
";+	c #D1D923",
">+	c #135D29",
",+	c #7CAC29",
"'+	c #A9C525",
")+	c #A5C325",
"!+	c #A2C126",
"~+	c #9EBF27",
"{+	c #9ABD26",
"]+	c #97BB27",
"^+	c #8FB727",
"/+	c #8CB528",
"(+	c #87B229",
"_+	c #8FB629",
":+	c #B8CB25",
"<+	c #7BAC2A",
"[+	c #6AA22C",
"}+	c #3D862F",
"|+	c #699E2A",
"1+	c #95BA28",
"2+	c #92B827",
"3+	c #8EB728",
"4+	c #8BB429",
"5+	c #87B329",
"6+	c #83B029",
"7+	c #80AE29",
"8+	c #7DAD2A",
"9+	c #9ABB28",
"0+	c #89B229",
"a+	c #54962F",
"b+	c #368431",
"c+	c #064120",
"d+	c #538C28",
"e+	c #92B828",
"f+	c #91B828",
"g+	c #89B328",
"h+	c #85B129",
"i+	c #82B02A",
"j+	c #7EAE29",
"k+	c #7AAB2A",
"l+	c #77A92B",
"m+	c #72A72B",
"n+	c #7CAC2A",
"o+	c #84AF2A",
"p+	c #247C33",
"q+	c #004124",
"r+	c #74A72A",
"s+	c #8BB529",
"t+	c #88B328",
"u+	c #84B129",
"v+	c #81AF2A",
"w+	c #7DAD29",
"x+	c #7AAB2B",
"y+	c #76A92B",
"z+	c #6FA52C",
"A+	c #6BA32C",
"B+	c #65A02C",
"C+	c #9ABB29",
"D+	c #308232",
"E+	c #126C32",
"F+	c #246B29",
"G+	c #78AA2B",
"H+	c #74A82A",
"I+	c #71A62A",
"J+	c #6DA42C",
"K+	c #6AA22B",
"L+	c #66A02D",
"M+	c #629E2D",
"N+	c #5F9C2C",
"O+	c #81AE2A",
"P+	c #0F7035",
"Q+	c #002E1A",
"R+	c #063318",
"S+	c #3A7E2B",
"T+	c #70A62B",
"U+	c #6CA42C",
"V+	c #68A12B",
"W+	c #659F2C",
"X+	c #619D2C",
"Y+	c #5D9C2D",
"Z+	c #5A992D",
"`+	c #54962E",
" @	c #55962F",
".@	c #005C30",
"+@	c #68A22C",
"@@	c #6EA52B",
"#@	c #6FA52B",
"$@	c #649F2D",
"%@	c #609D2C",
"&@	c #5C9B2D",
"*@	c #59992D",
"=@	c #55972D",
"-@	c #52942E",
";@	c #58992E",
">@	c #006435",
",@	c #0E7136",
"'@	c #64A02D",
")@	c #6DA52B",
"!@	c #196D2F",
"~@	c #609C2D",
"{@	c #5B9B2D",
"]@	c #57982D",
"^@	c #50942F",
"/@	c #4C922E",
"(@	c #2E7F31",
"_@	c #107136",
":@	c #176D30",
"<@	c #5F9D2D",
"[@	c #67A22D",
"}@	c #003822",
"|@	c #00341D",
"1@	c #52952E",
"2@	c #56972D",
"3@	c #53952E",
"4@	c #4F932E",
"5@	c #4B922E",
"6@	c #488F30",
"7@	c #448D2F",
"8@	c #2D7E30",
"9@	c #7BAD2B",
"0@	c #5B9B2E",
"a@	c #003F26",
"b@	c #00331B",
"c@	c #479030",
"d@	c #4D922F",
"e@	c #4A912E",
"f@	c #468F30",
"g@	c #438D2F",
"h@	c #277B31",
"i@	c #6DA52C",
"j@	c #1E712F",
"k@	c #56982E",
"l@	c #5E9C2D",
"m@	c #004027",
"n@	c #246A2A",
"o@	c #4A912F",
"p@	c #458E30",
"q@	c #428C2F",
"r@	c #3E8A30",
"s@	c #3B8830",
"t@	c #1D7431",
"u@	c #6AA32C",
"v@	c #79AA2B",
"w@	c #358531",
"x@	c #195D27",
"y@	c #52962F",
"z@	c #246728",
"A@	c #408C30",
"B@	c #3D8930",
"C@	c #398730",
"D@	c #378731",
"E@	c #0C5E2C",
"F@	c #66A12D",
"G@	c #73A82B",
"H@	c #71A52C",
"I@	c #29722B",
"J@	c #4D932F",
"K@	c #53972E",
"L@	c #003D23",
"M@	c #09411E",
"N@	c #3D8A30",
"O@	c #3C8830",
"P@	c #388631",
"Q@	c #348531",
"R@	c #6EA42C",
"S@	c #72A62B",
"T@	c #5E9B2E",
"U@	c #81AF29",
"V@	c #619C2B",
"W@	c #327328",
"X@	c #003320",
"Y@	c #4A9230",
"Z@	c #4F942F",
"`@	c #00532C",
" #	c #55942C",
".#	c #74A82B",
"+#	c #378631",
"@#	c #338432",
"##	c #318331",
"$#	c #166A2F",
"%#	c #5D9D2D",
"&#	c #69A22B",
"*#	c #71A62B",
"=#	c #CFDB22",
"-#	c #438D30",
";#	c #ACC726",
">#	c #82AF2A",
",#	c #328432",
"'#	c #2F8231",
")#	c #1A7231",
"!#	c #5D9B2D",
"~#	c #8BB329",
"{#	c #A3C127",
"]#	c #C4D323",
"^#	c #E0E221",
"/#	c #C3D324",
"(#	c #98BA28",
"_#	c #629D2D",
":#	c #308332",
"<#	c #2E8132",
"[#	c #196E30",
"}#	c #317B2E",
"|#	c #52922C",
"1#	c #54972E",
"2#	c #55972E",
"3#	c #51952F",
"4#	c #48902F",
"5#	c #418B30",
"6#	c #51942F",
"7#	c #408B31",
"8#	c #348532",
"9#	c #2D8132",
"0#	c #257931",
"a#	c #07562B",
"b#	c #055329",
"c#	c #25752F",
"d#	c #318230",
"e#	c #3E8930",
"f#	c #428B2F",
"g#	c #3F8A2F",
"h#	c #3D8A31",
"i#	c #3A8730",
"j#	c #287D32",
"k#	c #1C7431",
"l#	c #0B5E2C",
"m#	c #000B0A",
"n#	c #368732",
"o#	c #003E24",
"p#	c #1B6A2D",
"q#	c #1C6A2D",
"                                  . .                                   ",
"                                  + @ #                                 ",
"                            $ % & * = - ; > ,                           ",
"                      ' ) ! ~ { ] ^ / ( _ : < [ } |                     ",
"                    1 2 3 4 5 6 7 8 9 0 a b c d e f g h                 ",
"                  i j k 5 l m n o p q r s t u v w x y z                 ",
"                A B C D E F G H I J K L M N O P Q R S T                 ",
"              U V W X Y Z `        ...+.    @.#.R $.%.&.                ",
"              *.=.-.;.>.,.'.      ).!.~.      {.R ].^./.                ",
"              (._.:.<.] [.}.      |.J 1.        2.3.4.5.                ",
"              6.m 7.9 8.9.0.a.b.  c.d.1.          e.f.g.                ",
"              h.i.j.k.l.m.P n.~ o.p.q.1.          r.s.t.                ",
"              u.v.r w.s x.y.z.A.B.C.D.E.            0.F.                ",
"              G.H.I.J.K.L.M.( N.0 O.P.Q.R.          S.                  ",
"              T.t !.U.V.W.X.C.Y.~ p.Z.q `. +                            ",
"                .+++@+#.#+$+%+&+*+=+-+;+W.3.0.>+                        ",
"                  ,+'+)+!+~+{+]+Z.^+/+(+_+:+<+[+}+                      ",
"                    |+C.$.].1+2+3+4+5+6+7+8+9+0+a+b+c+                  ",
"                      d+e+_ f+s.g+h+i+j+k+l+m+n+o+j p+                  ",
"                        q+r+s+t+u+v+w+x+y+m+z+A+B+C+D+E+                ",
"                            F+i+7+,+G+H+I+J+K+L+M+N+O+P+Q+              ",
"                              R+S+y+H+T+U+V+W+X+Y+Z+`+ @.@              ",
"                                  +@@@#@< $@%@&@*@=@-@;@>@              ",
"                ,@L               '@)@!@Y+~@{@]@`+^@/@d (@              ",
"                _@:@              <@[@}@|@1@2@3@4@5@6@7@8@              ",
"                9@e               0@M+a@  b@c@d@e@f@g@j h@              ",
"                i@$@j@            k@l@m@    n@o@p@q@r@s@t@              ",
"                u@v@w@x@          y@;@m@    z@p@A@B@C@D@E@              ",
"                F@G@H@k@I@        J@K@L@  M@;@N@O@P@Q@B                 ",
"                M+R@S@T@[+U@V@W@X@Y@Z@`@ #.#A++#+#@###$#                ",
"                %#&#B+*#9+8+P.y.=#`+-#;#s.>#~@w@,#'#)#                  ",
"                0@$@%@!#!#~#{#]#^#Z@B@/#(#_#:###<#[#                    ",
"                }#|#1#2 2#3#4#5#6#g@r@7###8#9#0#a#                      ",
"                      b#c#d#e#f#g#h#i#j#k#l#                            ",
"                                m#8#n#o#                                ",
"                                  p#q#                                  "};
