/* XPM */
static char * geda_find_16x16_xpm[] = {
"16 16 161 2",
"  	c None",
". 	c #322C26",
"+ 	c #242B2B",
"@ 	c #302C28",
"# 	c #252D2C",
"$ 	c #1D2B2E",
"% 	c #2C241E",
"& 	c #302924",
"* 	c #1F2F35",
"= 	c #12252C",
"- 	c #292B2A",
"; 	c #342C24",
"> 	c #1A272A",
", 	c #17282B",
"' 	c #28251C",
") 	c #2D271F",
"! 	c #202725",
"~ 	c #141C1C",
"{ 	c #1F2A29",
"] 	c #101516",
"^ 	c #21201C",
"/ 	c #141A18",
"( 	c #152022",
"_ 	c #322F2B",
": 	c #222B30",
"< 	c #222624",
"[ 	c #150F09",
"} 	c #212D30",
"| 	c #061B23",
"1 	c #11130F",
"2 	c #1C1C14",
"3 	c #1F2322",
"4 	c #101A1D",
"5 	c #121C20",
"6 	c #2D241F",
"7 	c #221D17",
"8 	c #2E2A25",
"9 	c #10181B",
"0 	c #2E2C25",
"a 	c #3E3124",
"b 	c #2F2518",
"c 	c #0C202A",
"d 	c #0B0D0C",
"e 	c #231E17",
"f 	c #2F2C23",
"g 	c #111D1F",
"h 	c #0C1618",
"i 	c #2C261F",
"j 	c #2E2620",
"k 	c #37322D",
"l 	c #19242B",
"m 	c #161512",
"n 	c #2D251D",
"o 	c #2A2725",
"p 	c #10232A",
"q 	c #090C0A",
"r 	c #28221C",
"s 	c #2B2926",
"t 	c #162024",
"u 	c #141E20",
"v 	c #2C251C",
"w 	c #352A23",
"x 	c #352E29",
"y 	c #18262C",
"z 	c #0C100E",
"A 	c #28211A",
"B 	c #2E2D29",
"C 	c #10232B",
"D 	c #070C0B",
"E 	c #25221B",
"F 	c #292723",
"G 	c #161E21",
"H 	c #151D1E",
"I 	c #18292F",
"J 	c #2E2621",
"K 	c #392D24",
"L 	c #312C24",
"M 	c #132229",
"N 	c #000003",
"O 	c #030102",
"P 	c #171514",
"Q 	c #081112",
"R 	c #0E1211",
"S 	c #25201A",
"T 	c #2F2C25",
"U 	c #111C1C",
"V 	c #122122",
"W 	c #31261E",
"X 	c #2C241C",
"Y 	c #342E29",
"Z 	c #131D24",
"` 	c #604F39",
" .	c #A99162",
"..	c #4A332B",
"+.	c #0D1412",
"@.	c #0C0F0C",
"#.	c #2D271D",
"$.	c #362C26",
"%.	c #131E23",
"&.	c #0F1E26",
"*.	c #121F23",
"=.	c #2B241C",
"-.	c #262118",
";.	c #161514",
">.	c #0E1B20",
",.	c #0D1215",
"'.	c #120E0D",
").	c #1A1B1F",
"!.	c #211E18",
"~.	c #29221F",
"{.	c #221D1A",
"].	c #1D1D19",
"^.	c #0D1213",
"/.	c #0D1414",
"(.	c #382C21",
"_.	c #2E251D",
":.	c #0D0F0C",
"<.	c #0F100D",
"[.	c #2F251C",
"}.	c #2A251B",
"|.	c #151D1D",
"1.	c #111A1A",
"2.	c #372D23",
"3.	c #302825",
"4.	c #181D1E",
"5.	c #121515",
"6.	c #261F17",
"7.	c #26221B",
"8.	c #12191A",
"9.	c #0D1516",
"0.	c #382D23",
"a.	c #302928",
"b.	c #1C2224",
"c.	c #10171A",
"d.	c #1B1912",
"e.	c #1C1B18",
"f.	c #0E1617",
"g.	c #0B1212",
"h.	c #352A1F",
"i.	c #352B22",
"j.	c #302B27",
"k.	c #1B2223",
"l.	c #0E1819",
"m.	c #10110E",
"n.	c #161712",
"o.	c #0D1514",
"p.	c #091111",
"q.	c #322A20",
"r.	c #292420",
"s.	c #0C1316",
"t.	c #080F0E",
"u.	c #1A1D1B",
"v.	c #16120D",
"w.	c #0A0D09",
"x.	c #0D0F0D",
"y.	c #080E0D",
"z.	c #060D0C",
"A.	c #111A1D",
"B.	c #302922",
"C.	c #272521",
"D.	c #0F1414",
"        . +       @ # $         ",
"      % & * =   - ; > ,         ",
"      ' ) ! ~ { ] ^ / (         ",
"      _ : < [ } | 1 2 3 4 5     ",
"  6 7 8 9 0 a b c d e f g h     ",
"  i j k l m n o p q r s t u     ",
"  v w x y z A B C D E F G H I   ",
"  J K L M N O P Q R S T U U V   ",
"  W X Y Z `  ...+.@.#.$.%.&.*.  ",
"  =.-.;.>.,.'.  ).!.~.{.].^./.  ",
"  (._.:.<.            [.}.|.1.  ",
"  2.3.4.5.            6.7.8.9.  ",
"  0.a.b.c.            d.e.f.g.  ",
"h.i.j.k.l.            m.n.o.p.  ",
"7.q.r.s.t.u.        v.w.x.y.z.A.",
"  B.C.D.                        "};
