/* XPM */
static char * geda_find_and_replace_28x28_xpm[] = {
"28 28 368 2",
"  	c None",
". 	c #AAAAAA",
"+ 	c #AFAFAF",
"@ 	c #B2B2B2",
"# 	c #B1B1B1",
"$ 	c #B0B0B0",
"% 	c #ACACAC",
"& 	c #A6A6A6",
"* 	c #A4A4A4",
"= 	c #A3A3A3",
"- 	c #A0A0A0",
"; 	c #9D9D9D",
"> 	c #9A9A9A",
", 	c #989898",
"' 	c #939393",
") 	c #909090",
"! 	c #8C8C8C",
"~ 	c #8A8A8A",
"{ 	c #888888",
"] 	c #868686",
"^ 	c #838383",
"/ 	c #EEEEEE",
"( 	c #F1F1F1",
"_ 	c #F0F0F0",
": 	c #F2F2F2",
"< 	c #E7E7E7",
"[ 	c #CECECD",
"} 	c #C7C6C6",
"| 	c #CCCCCB",
"1 	c #E5E5E5",
"2 	c #F3F3F3",
"3 	c #F4F4F4",
"4 	c #F9F9F9",
"5 	c #7F7F7F",
"6 	c #E1E1E1",
"7 	c #DBDBDB",
"8 	c #DCDCDC",
"9 	c #D3D3D3",
"0 	c #BABABA",
"a 	c #A8A8A7",
"b 	c #C3C4C5",
"c 	c #DFE4EA",
"d 	c #CCCFD1",
"e 	c #ABABAB",
"f 	c #BDBCBB",
"g 	c #D1D1D1",
"h 	c #E2E2E2",
"i 	c #E0E0E0",
"j 	c #E3E3E3",
"k 	c #828282",
"l 	c #C3C3C3",
"m 	c #B2B2B1",
"n 	c #CCCBCB",
"o 	c #BBCCE2",
"p 	c #94AFCF",
"q 	c #7F9CC0",
"r 	c #8DA8C8",
"s 	c #A4BEDC",
"t 	c #CAD0D7",
"u 	c #C4C2BF",
"v 	c #C4C4C4",
"w 	c #818181",
"x 	c #E6E6E6",
"y 	c #AEADAD",
"z 	c #EBE9E7",
"A 	c #B0BFD1",
"B 	c #6188B9",
"C 	c #D5E0EC",
"D 	c #EBF0F5",
"E 	c #DDE6EE",
"F 	c #D4DFEB",
"G 	c #C6D4E4",
"H 	c #88A7CA",
"I 	c #5981B1",
"J 	c #E9E8E5",
"K 	c #CBCBCB",
"L 	c #D7D7D7",
"M 	c #B2B1B1",
"N 	c #EBEAE7",
"O 	c #3B6AA6",
"P 	c #C1D3E4",
"Q 	c #E3EBF2",
"R 	c #E2E9F1",
"S 	c #D8E2ED",
"T 	c #CFDBE9",
"U 	c #D1DDEA",
"V 	c #9EB8D4",
"W 	c #6189B9",
"X 	c #839FC1",
"Y 	c #D2CEC8",
"Z 	c #D2D2D2",
"` 	c #DADADA",
" .	c #BDBDBD",
"..	c #CBC7C1",
"+.	c #87A0C1",
"@.	c #5B85B5",
"#.	c #DBE5EF",
"$.	c #D9E2EC",
"%.	c #D0DCE8",
"&.	c #CBD8E6",
"*.	c #BCCDDF",
"=.	c #84A3C6",
"-.	c #83A3C6",
";.	c #5C83B3",
">.	c #BEBCBB",
",.	c #E8E8E8",
"'.	c #808080",
").	c #B2B2B3",
"!.	c #D0CBC4",
"~.	c #6589B4",
"{.	c #7999C2",
"].	c #E3EAF1",
"^.	c #D7E1EA",
"/.	c #D5DFEB",
"(.	c #CCDAE9",
"_.	c #C9D8E7",
":.	c #9EB9D7",
"<.	c #95B3D4",
"[.	c #93B0D3",
"}.	c #678CBA",
"|.	c #A8ABB1",
"1.	c #EAEAEA",
"2.	c #B1B1B2",
"3.	c #CFCAC4",
"4.	c #6A8BB5",
"5.	c #7798C0",
"6.	c #E2E8EE",
"7.	c #D4DEEA",
"8.	c #CFDAE7",
"9.	c #C2D1E3",
"0.	c #A3BCD7",
"a.	c #8EACCD",
"b.	c #8FADCD",
"c.	c #8DACCD",
"d.	c #6086B5",
"e.	c #A7A9AD",
"f.	c #D0D0D0",
"g.	c #E9E9E8",
"h.	c #EBEBEB",
"i.	c #808081",
"j.	c #C3C4C4",
"k.	c #C1BEBA",
"l.	c #ACBBCF",
"m.	c #4975AC",
"n.	c #D9E1E8",
"o.	c #C9D5E3",
"p.	c #BFCEDE",
"q.	c #93AECC",
"r.	c #89A8CA",
"s.	c #8CAACB",
"t.	c #8DAACB",
"u.	c #789AC2",
"v.	c #6084B4",
"w.	c #B6B1AD",
"x.	c #C8C8C8",
"y.	c #C7C7C7",
"z.	c #EDEDEE",
"A.	c #736D5E",
"B.	c #ABABAC",
"C.	c #FFF8EF",
"D.	c #5D82B2",
"E.	c #99B1CC",
"F.	c #BFCEDD",
"G.	c #A6BDD4",
"H.	c #92AFCE",
"I.	c #90AFD0",
"J.	c #94B1D1",
"K.	c #91AFD0",
"L.	c #5680B3",
"M.	c #AEBCCF",
"N.	c #ABA8A4",
"O.	c #DEDEDE",
"P.	c #EEEFEF",
"Q.	c #BDB8A8",
"R.	c #A56245",
"S.	c #8C4A22",
"T.	c #B4B4B4",
"U.	c #D5DFE9",
"V.	c #7293BC",
"W.	c #4371A9",
"X.	c #5E87B6",
"Y.	c #4B78AF",
"Z.	c #4773A9",
"`.	c #B5C6DB",
" +	c #DADCDD",
".+	c #777776",
"++	c #C0C0C0",
"@+	c #DBDADA",
"#+	c #DDDDDE",
"$+	c #DEDFE0",
"%+	c #93866E",
"&+	c #907B5D",
"*+	c #CAABA7",
"=+	c #F51F20",
"-+	c #D21211",
";+	c #6C380B",
">+	c #717171",
",+	c #C1C1C1",
"'+	c #C3C3C2",
")+	c #E2E4E5",
"!+	c #CDDBEC",
"~+	c #A2BADB",
"{+	c #B5C9E3",
"]+	c #EEF4F8",
"^+	c #B8B7B6",
"/+	c #7A7A79",
"(+	c #A7A7A7",
"_+	c #DADCDE",
":+	c #D4D4D5",
"<+	c #877656",
"[+	c #9E7C45",
"}+	c #CCC0B1",
"|+	c #B7C0C3",
"1+	c #C61215",
"2+	c #872409",
"3+	c #8E8E8E",
"4+	c #777777",
"5+	c #A1A1A1",
"6+	c #8D8D8D",
"7+	c #7D7D7D",
"8+	c #989999",
"9+	c #4C4B4B",
"0+	c #929292",
"a+	c #E9E9E9",
"b+	c #EDEEEF",
"c+	c #DFDEDB",
"d+	c #5F491E",
"e+	c #C29D59",
"f+	c #DDB977",
"g+	c #D2A34F",
"h+	c #BAA478",
"i+	c #7F3B1A",
"j+	c #5C3B05",
"k+	c #7B7B7B",
"l+	c #9E9E9E",
"m+	c #B3B3B3",
"n+	c #7A7A7A",
"o+	c #DDDDDD",
"p+	c #DFDDD9",
"q+	c #7C653A",
"r+	c #CCA662",
"s+	c #DCB76F",
"t+	c #D09F44",
"u+	c #C68714",
"v+	c #B69053",
"w+	c #564824",
"x+	c #999999",
"y+	c #BBBBBB",
"z+	c #EDEDED",
"A+	c #ECECEC",
"B+	c #F6F6F6",
"C+	c #F4F4F6",
"D+	c #846A36",
"E+	c #BE9A53",
"F+	c #DBB56D",
"G+	c #CF9B39",
"H+	c #CA8C1B",
"I+	c #A17116",
"J+	c #785921",
"K+	c #747579",
"L+	c #BEBEBE",
"M+	c #9B9B9B",
"N+	c #D6D6D6",
"O+	c #D5D5D5",
"P+	c #D4D4D4",
"Q+	c #CDCDCD",
"R+	c #D6D6D7",
"S+	c #DADBDC",
"T+	c #B7AFA0",
"U+	c #CBA65F",
"V+	c #DDB56A",
"W+	c #CD942B",
"X+	c #C58A1C",
"Y+	c #956813",
"Z+	c #6F5623",
"`+	c #BEB7A8",
" @	c #D9D9D9",
".@	c #C9C9C9",
"+@	c #CCCCCC",
"@@	c #CACACA",
"#@	c #B7B7B7",
"$@	c #B5B5B5",
"%@	c #BEBEBF",
"&@	c #908571",
"*@	c #896C33",
"=@	c #DAAF5E",
"-@	c #CF972D",
";@	c #BE861D",
">@	c #8A5D0B",
",@	c #796339",
"'@	c #C8C2B6",
")@	c #FFFFFF",
"!@	c #767676",
"~@	c #D8D8D8",
"{@	c #BEBDBD",
"]@	c #C2C2C3",
"^@	c #C7C9CD",
"/@	c #79653D",
"(@	c #A58343",
"_@	c #DBB670",
":@	c #D5A64D",
"<@	c #AF7B19",
"[@	c #6B4702",
"}@	c #8C8066",
"|@	c #CDCDCB",
"1@	c #E3E4E5",
"2@	c #F5F5F5",
"3@	c #E4E4E4",
"4@	c #D0D1D1",
"5@	c #C9C9C6",
"6@	c #7B6437",
"7@	c #B08C46",
"8@	c #DFB86F",
"9@	c #D19E40",
"0@	c #CC8F1F",
"a@	c #644408",
"b@	c #A29884",
"c@	c #D7D7D8",
"d@	c #DFE1E2",
"e@	c #968971",
"f@	c #BDAD7B",
"g@	c #E3D4A0",
"h@	c #D09F41",
"i@	c #C98D1D",
"j@	c #95660E",
"k@	c #BFB9AD",
"l@	c #DFE0E1",
"m@	c #DFDFDF",
"n@	c #D5D4D2",
"o@	c #8F7743",
"p@	c #DED09C",
"q@	c #E1D4A0",
"r@	c #D2B061",
"s@	c #946610",
"t@	c #685021",
"u@	c #F8F9FA",
"v@	c #F8F8F8",
"w@	c #7C694B",
"x@	c #B69B59",
"y@	c #DAC583",
"z@	c #D1B775",
"A@	c #947636",
"B@	c #765F38",
"C@	c #D5D2CB",
"D@	c #F7F7F7",
"E@	c #F2F4F7",
"F@	c #6D5D3D",
"G@	c #665736",
"H@	c #A28447",
"I@	c #745E31",
"J@	c #978B76",
"K@	c #E5E6E8",
"L@	c #E4E5E6",
"M@	c #EFEFEF",
"N@	c #EBEBEC",
"O@	c #DDDAD5",
"P@	c #58492D",
"Q@	c #82745C",
"R@	c #A39B92",
"S@	c #D6D7D9",
"T@	c #DEE1E6",
"U@	c #787878",
"V@	c #7E7E7E",
"W@	c #858585",
"X@	c #848484",
"Y@	c #848483",
"Z@	c #89898A",
"`@	c #878787",
"        . + @ @ # $ % & * = - ; > , ' ) ! ~ { ] ^       ",
"        / ( _ : : < [ } | 1 2 3 2 3 2 3 3 3 3 3 4 5     ",
"        6 7 8 9 0 a b c d e f g 6 h 6 6 h 6 6 i j k     ",
"        h h l m n o p q r s t u v j 6 i i i h j 1 w     ",
"        x y z A B C D E F G H I J 0 K K K K L 1 < w     ",
"        6 M N O P Q R S T U V W X Y Z g g g ` x < w     ",
"         ...+.@.R #.$.%.&.*.=.-.;.>.v v v v 9 ,.,.'.    ",
"        ).!.~.{.].^./.(._.:.<.[.}.|.6 j j j 1 < 1.'.    ",
"        2.3.4.5.6.7.8.9.0.a.b.c.d.e.f.Z Z Z 8 g.h.i.    ",
"        j.k.l.m.n.o.p.q.r.s.t.u.v.w.x.x.x.y.L h.z.A.    ",
"        x B.C.D.E.F.G.H.I.J.K.L.M.N.O.` ` 7 j P.Q.R.S.  ",
"        $ * T.4 U.V.W.X.Y.Z.`. +.+++7 @+#+$+%+&+*+=+-+;+",
"        * , >+,+'+)+!+~+{+]+^+/+(+8 9 _+:+<+[+}+|+1+2+  ",
"      3+3+4+(+5+(+6+7+8+'.9+0+Z h.a+b+c+d+e+f+g+h+i+j+  ",
"    ! - k+5+l+& 2 : m+n+3+o+g L _ / p+q+r+s+t+u+v+w+    ",
"  x+% ~ 5+; y+z+6 6 A+B+B+h./ _ / C+D+E+F+G+H+I+J+K+    ",
"  L+o+M+M+T.N+O+P+Z Q+K Q+f.9 R+S+T+U+V+W+X+Y+Z+`+4+    ",
"  m+ @L+v ++.@+@@@y.#@+ @ $@0 %@&@*@=@-@;@>@,@'@)@!@    ",
"        7 7 `  @` ~@x.{@]@^@/@(@_@:@<@[@}@|@1@2 2@4+    ",
"        h x 3@x < 1 ~@4@5@6@7@8@9@0@a@b@N+c@j 3 2@4+    ",
"        h ,.x a+1.1.i d@e@f@g@h@i@j@k@l@6 m@,.3 B+4+    ",
"        h ,.x a+1.1.6 n@o@p@q@r@s@t@u@4 4 v@B+2 B+4+    ",
"        6 ,.x a+1.1.j w@x@y@z@A@B@C@( D@D@2@3 2 B+4+    ",
"        h ,.x a+a+a+E@F@G@H@I@J@K@L@3@< h./ M@( B+4+    ",
"        h 1 1 ,.,.N@O@P@Q@R@S@T@Q+K Z L 8 6 < A+2 U@    ",
"        V@W@X@W@W@W@Y@Z@`@] ] ] ] `@`@] ] ] ] W@`@      ",
"                                                        ",
"                                                        "};
