/* XPM */
static char *geda_tools2_24x24[] = {
/* columns rows colors chars-per-pixel */
"24 24 229 2 ",
"   c #000100000005",
".  c #00B60000003C",
"X  c #01FE01FC0209",
"o  c #030F030F030F",
"O  c #039800000000",
"+  c #05AA01CB0000",
"@  c #0541054F0573",
"#  c #07C801C10000",
"$  c #0CC605BF0000",
"%  c #08B808D20901",
"&  c #0A3E0A460A49",
"*  c #0B110B2B0B16",
"=  c #13E50AF40000",
"-  c #122E0B960000",
";  c #0FC3100D0F72",
":  c #1125113D1148",
">  c #11B111BE11A9",
",  c #159215941592",
"<  c #188C18511839",
"1  c #190A196B18A4",
"2  c #197B199D19D2",
"3  c #1D211D211D21",
"4  c #1F2F1F201F33",
"5  c #2A0D18C80000",
"6  c #1E511FE11CC4",
"7  c #1C7E1E9F2263",
"8  c #213822B11FA8",
"9  c #23F32573226A",
"0  c #24EE265D2372",
"q  c #25F827672476",
"w  c #25D326322572",
"e  c #267527F124FA",
"r  c #2B3E2B3E2B38",
"t  c #2F4E2F702F28",
"y  c #2F70309F2E20",
"u  c #2FF22FF22FF2",
"i  c #338233FA331B",
"p  c #352F353C32B8",
"a  c #343F343F343D",
"s  c #35AE35AE35AE",
"d  c #42E82AAD0000",
"f  c #4A9B33CB0058",
"g  c #566A36780000",
"h  c #5BD03FE90DD6",
"j  c #70334B3A0043",
"k  c #73EF4F8100B8",
"l  c #7A08526A003C",
"z  c #4595455642BC",
"x  c #45E8460545BD",
"c  c #46DB46DF46DA",
"v  c #47BB485648A0",
"b  c #48A6492C49A8",
"n  c #49EA4A1649AD",
"m  c #50FF510850FF",
"M  c #525E52685240",
"N  c #54B654BB54B3",
"B  c #577A582D5689",
"V  c #590259BD584A",
"C  c #5AB25B2D5BF3",
"Z  c #5EC05EC35EBE",
"A  c #7C866EF255BA",
"S  c #609A611A61C7",
"D  c #618E61F26138",
"F  c #62116216620C",
"G  c #62E562E562E5",
"H  c #637C63AB6414",
"J  c #639A64F163EB",
"K  c #665C6745656D",
"L  c #666E66636677",
"P  c #671C67A56876",
"I  c #68B669116820",
"U  c #691A693C6909",
"Y  c #6ACB6A2168DF",
"T  c #695569E56A9E",
"R  c #69F46AFA6AB3",
"E  c #6B4A6C426C54",
"W  c #6F366F386C78",
"Q  c #6E536F2A6D85",
"!  c #6FFE6FFE6FFE",
"~  c #70B3717370FC",
"^  c #7317737D727D",
"/  c #738D73DF73E1",
"(  c #733173C17493",
")  c #750B750B750B",
"_  c #75AB764776FB",
"`  c #76BE76C076BD",
"'  c #785879157790",
"]  c #780A78037810",
"[  c #791979217910",
"{  c #7FE37FE57FE0",
"}  c #8F7C618F0000",
"|  c #8C4664BE0092",
" . c #97DA66870000",
".. c #962267C30000",
"X. c #97966E310104",
"o. c #A2486F7900B5",
"O. c #A2E3768C0187",
"+. c #A4FC74300000",
"@. c #AF30773A02D1",
"#. c #A7C07F8201FA",
"$. c #A462769D0B89",
"%. c #9BF474FD2652",
"&. c #ACC884990000",
"*. c #D9049BF41389",
"=. c #E2FEACAB0C62",
"-. c #E24CB3170000",
";. c #E853C03E077E",
":. c #F501B47901A7",
">. c #F243BCAB0118",
",. c #F567BE660000",
"<. c #F623BF1B0000",
"1. c #F606BF480000",
"2. c #F87DBE8A0000",
"3. c #EFC0C4FB0546",
"4. c #E65BC58E0EDD",
"5. c #E926C2070E1D",
"6. c #FD75C2C70237",
"7. c #FA3EC83F00B3",
"8. c #F9D4C61C019C",
"9. c #FDE3C7F00000",
"0. c #F381C9F30527",
"q. c #F49FCBFC0428",
"w. c #FACEDBDC0000",
"e. c #FB2FDCA7004B",
"r. c #FFFFDE0C025D",
"t. c #EADFC66916C2",
"y. c #F103D7311F43",
"u. c #FBAAE4D90207",
"i. c #F8EDE38013E5",
"p. c #FC9DE5F72631",
"a. c #FE26E99737FA",
"s. c #FD15E95947C1",
"d. c #FE00EC1E523E",
"f. c #FFFFED1E6189",
"g. c #80DD81838038",
"h. c #812181228119",
"j. c #821082338143",
"k. c #8632867785C6",
"l. c #85D88661866B",
"z. c #874487468742",
"x. c #883A88718811",
"c. c #8895892C88AF",
"v. c #89A689A689A6",
"b. c #8A018A928976",
"n. c #891589958A4E",
"m. c #8AE08CC88B21",
"M. c #8CCA8D848BEC",
"N. c #89EF8D569498",
"B. c #8ECE912D904A",
"V. c #90B590DA9085",
"C. c #908F917C918C",
"Z. c #915F9196913C",
"A. c #91FD928A9154",
"S. c #922B9206923B",
"D. c #92C392B692CE",
"F. c #95AB959C95B4",
"G. c #966B9692964A",
"H. c #97E197E197E1",
"J. c #98359A2B9657",
"K. c #99AD99ED99A0",
"L. c #9A129A1B9A41",
"P. c #9A639A829A46",
"I. c #9B089B659BC2",
"U. c #9B559B5B9B53",
"Y. c #9B7C9C309B6A",
"T. c #9D139D079D1E",
"R. c #9D699D6A9D68",
"E. c #9FA29F0E9E2E",
"W. c #8E789258A14E",
"Q. c #9A2E9D9BAA37",
"!. c #A125A0FEA13E",
"~. c #A15CA172A129",
"^. c #A34BA33AA353",
"/. c #A41FA40CA42F",
"(. c #A44BA48FA4E5",
"). c #A650A765A554",
"_. c #A8F8AA07A806",
"`. c #A91AA8F2A93B",
"'. c #A9C3A9D9A9A8",
"]. c #A9F1AC10A847",
"[. c #AA6FAA4BAA97",
"{. c #ADECAE1CAE5D",
"}. c #AEAFAEC2AEC3",
"|. c #B0CAB10BB164",
" X c #B307B35BB2B0",
".X c #B33FB319B365",
"XX c #B353B395B3FC",
"oX c #B43AB47DB41A",
"OX c #B66BB64AB68C",
"+X c #B813B883B783",
"@X c #B825B95EB905",
"#X c #B8CBB8B4B8E0",
"$X c #B90FBA6DB956",
"%X c #BA41BA9BBAE1",
"&X c #BBDEBCE7BD01",
"*X c #BC64BC5ABC6F",
"=X c #E078D5688D8D",
"-X c #C113C12DC105",
";X c #C336C38DC2C8",
":X c #C41CC4D7C364",
">X c #C496C4EBC51A",
",X c #C65CC719C759",
"<X c #CB4ACB8ECB16",
"1X c #CF8DCFEBCF3F",
"2X c #D134D1B0D08B",
"3X c #D1DCD1C6D1F7",
"4X c #D749D79ED6EE",
"5X c #DA13DA33DA3B",
"6X c #DEAADF54DDB7",
"7X c #DE4ADED8DF38",
"8X c #DEBADF1FDE68",
"9X c #E291E2AAE20C",
"0X c #E41EE49EE3D8",
"qX c #E736E79FE7F8",
"wX c #ECAAED15EC4A",
"eX c #EB61EC1CEC7C",
"rX c #EDE3EE08ECF6",
"tX c #EE9BEEFDEDDF",
"yX c #EFD7F011F007",
"uX c #F087F0DBF123",
"iX c #F0D2F134F17E",
"pX c #F4E1F556F5B9",
"aX c #F7D9F81AF7B2",
"sX c #F8A8F94AF9E5",
"dX c #F9D8FA04F98F",
"fX c #FA5BFB4FFB4B",
"gX c #FD22FED0FEC9",
"hX c gray100",
"jX c None",
/* pixels */
"jXjXjXjXjXjXjXjXjXjXjXjXjXjXjXjXjXjXjXjXjXjXjXjX",
"jXjX}.jXjXjXjXjXjXjXjXjXjXjXjXjXV.1X7XrX<XjXjXjX",
"jX5XfXC.jXjXjXjXjXjXjXjXjXjXjXT 0XaXyX[.M , jXjX",
"jXl.gX&Xb jXjXjXjXjXjXjXjXjXjXK.fXgXK.X jXjXjXjX",
"jX* v ,X7XC jXjXjXjXjXjXjXjX4 .XrXgXC.jXjXjXjXjX",
"jXjXjX2 ,XqXT jXjXjXjXjXjXjXx +X9XrX2XV jXjX~ jX",
"jXjXjXjX: %XyXS jXjXjXjXjXjXI 4X@X%X6X(.C.;XM jX",
"jXjXjXjXjX* .XuXP jXjXjXjXjXK.B.].K :X_.;XG.: jX",
"jXjXjXjXjXjX* }.iX( jXjXjXj.gX~ J.c.T.M.l.r jXjX",
"jXjXjXjXjXjXjX@ (.pX_ jXC.oX^.K.Q ~ b y : X jXjX",
"jXjXjXjXjXjXjXjXX K.eXn.G.y j.T 2 X X jXjXjXjXjX",
"jXjXjXjXjXjXjXjXjX* .XsXT W G X jXjXjXjXjXjXjXjX",
"jXjXjXjXjXjXjXjXjX^.S c.rXW.A %.jXjXjXjXjXjXjXjX",
"jXjXjXjXjXjXjXjX[.c.e p Q.=Xf.*.d jXjXjXjXjXjXjX",
"jXjXjXjXjXjXjX[.g.6 z N.h 7.8.6.&.jXjXjXjXjXjXjX",
"jXjXjXjXjXjX.X' 8 p E.7 5 @.:.e.w.4.$.jXjXjXjXjX",
"jXjXjXjXN oXQ 0 w ^.s jXjXX f -.u.d.=. .jXjXjXjX",
"jXjXjXS %XK e 2 ^.x jXjXjXjXX k 9.y.s.3.} jXjXjX",
"jXjX[ 3XV 0 ; T.Z X jXjXjXjXjX= o.,.t.a.0. .jXjX",
"jX~ T.] c.* C._ X jXjXjXjXjXjXjX$ O.,.5.p.q.+.jX",
"jXH.i X K *X{ X jXjXjXjXjXjXjXjXjX+ X.,.5.i.,.g ",
"jXc.S jXx.K.X jXjXjXjXjXjXjXjXjXjXjX+ | ,.r.#.X ",
"jXs E.G._ * jXjXjXjXjXjXjXjXjXjXjXjXjX+ j l - jX",
"jXjX4 t X jXjXjXjXjXjXjXjXjXjXjXjXjXjXjXX X jXjX"
};
