/* XPM */
static char * geda_box_32x32_xpm[] = {
"32 32 22 1",
" 	c None",
".	c #0055AA",
"+	c #083EAA",
"@	c #083FAA",
"#	c #083DAA",
"$	c #093DAA",
"%	c #0A3DAA",
"&	c #0D3DAA",
"*	c #0646AA",
"=	c #0840AA",
"-	c #053FAA",
";	c #073EAA",
">	c #093EAA",
",	c #0B3EAA",
"'	c #0B3DAA",
")	c #0C3EAA",
"!	c #0C3DAA",
"~	c #0940AA",
"{	c #0B40AA",
"]	c #0A40AA",
"^	c #0B3FAA",
"/	c #000000",
"                                ",
"                                ",
".                               ",
"+@+#$%%%%%%%%%%%%%%%%%%%%%%%%%$$",
"&&&&&&&&&&&&&&&&&&&&&&&&&&&&&&*@",
"&&                            .=",
"&&                            .@",
"&&                            .-",
"&&                            .;",
"&&                            .$",
"&&                            .>",
"&&                            .>",
"&&                            .,",
"&&                            .'",
"&&                            .'",
"&&                            .'",
"&&                            .'",
"&&                            .'",
"&&                            .,",
"&&                            .'",
"&&                            .,",
"&&                            .'",
"&&                            .,",
"&&                            .,",
"&&                            .'",
"&&                            .)",
"&&                           ..!",
"&~.............................{",
"&'''''''''''''''''''''''''''',]^",
"////////////////////////////////",
"                                ",
"                                "};
