/* XPM */
static char *geda_arc_26x26[] = {
/* columns rows colors chars-per-pixel */
"26 26 99 2 ",
"   c #FF0000",
".  c #FF0001",
"X  c #FF0101",
"o  c #FF0300",
"O  c #FF0002",
"+  c #FF0203",
"@  c #FF0303",
"#  c #FF0600",
"$  c #FF0601",
"%  c #FF0105",
"&  c #FF0006",
"*  c #FF0A00",
"=  c #FF0B00",
"-  c #FF0C00",
";  c #FF0D00",
":  c #FF0F00",
">  c #FE0A05",
",  c #FF0008",
"<  c #FF0009",
"1  c #FF0509",
"2  c #FF000C",
"3  c #FF040C",
"4  c #FE060C",
"5  c #FC050F",
"6  c #FF1100",
"7  c #FF1400",
"8  c #FF1107",
"9  c #FE1705",
"0  c #FF1A03",
"q  c #FF1E00",
"w  c #FE1F01",
"e  c #FF1806",
"r  c #FC100B",
"t  c #FC120F",
"y  c #FC1A0C",
"u  c #FC1A0D",
"i  c #FC1B0E",
"p  c #FC1D0D",
"a  c #FF0011",
"s  c #FF0013",
"d  c #FF0A11",
"f  c #FE0C17",
"g  c #F7051D",
"h  c #FE0F19",
"j  c #F8081C",
"k  c #F80A1D",
"l  c #FE091C",
"z  c #FE1D15",
"x  c #F8171C",
"c  c #FE1919",
"v  c #F81A1C",
"b  c #FE1A1D",
"n  c #FD1B1E",
"m  c #FF2101",
"M  c #FF2600",
"N  c #FD2703",
"B  c #FF2900",
"V  c #FC210B",
"C  c #FC2E0B",
"Z  c #FD3D06",
"A  c #FF2010",
"S  c #F92016",
"D  c #F92318",
"F  c #FE2319",
"G  c #F8261A",
"H  c #FB3211",
"J  c #FE1522",
"K  c #F51428",
"L  c #F31E2F",
"P  c #FD1F2F",
"I  c #EF063E",
"U  c #EF0D3D",
"Y  c #F20D33",
"T  c #F10B38",
"R  c #F00A3D",
"E  c #EF123D",
"W  c #EF133D",
"Q  c #F11637",
"!  c #F62121",
"~  c #FD2021",
"^  c #FD2633",
"/  c #FC2F37",
"(  c #FD2E3B",
")  c #FD2A3E",
"_  c #FC3637",
"`  c #ED0945",
"'  c #FC3E40",
"]  c #FC4747",
"[  c #FC4448",
"{  c #FB4D4F",
"}  c #FB4C56",
"|  c #FB575C",
" . c #FB545F",
".. c #FB5A59",
"X. c #FA6467",
"o. c #FA6567",
"O. c #FA6F71",
"+. c #F97576",
"@. c None",
/* pixels */
"@.@.@.@.@.@.@.@.@.@.@.@.@.@.@.@.@.@.@.@.Q T @     c ",
"@.@.@.@.@.@.@.@.@.@.@.@.@.@.@.@.@.@.! G B     n ~ O.",
"@.@.@.@.@.@.@.@.@.@.@.@.@.@.@.@.D v w =   [ [ @.@.@.",
"@.@.@.@.@.@.@.@.@.@.@.@.@.@.L H N M   _ @.@.@.@.@.@.",
"@.@.@.@.@.@.@.@.@.@.@.@.W Z w 6 A F +.@.@.@.@.@.@.@.",
"@.@.@.@.@.@.@.@.@.@.@.I C m z n X.@.@.@.@.@.@.@.@.@.",
"@.@.@.@.@.@.@.@.@.@.W y 6   ' @.@.@.@.@.@.@.@.@.@.@.",
"@.@.@.@.@.@.@.@.@.V p ; 4 ..@.@.@.@.@.@.@.@.@.@.@.@.",
"@.@.@.@.@.@.@.@.R e 8 l @.@.@.@.@.@.@.@.@.@.@.@.@.@.",
"@.@.@.@.@.@.@.U t 1    .@.@.@.@.@.@.@.@.@.@.@.@.@.@.",
"@.@.@.@.@.@.@.i = J { @.@.@.@.@.@.@.@.@.@.@.@.@.@.@.",
"@.@.@.@.@.@.x 7 a @.@.@.@.@.@.@.@.@.@.@.@.@.@.@.@.@.",
"@.@.@.@.@.Y 8 f @.@.@.@.@.@.@.@.@.@.@.@.@.@.@.@.@.@.",
"@.@.@.@.@.9   } @.@.@.@.@.@.@.@.@.@.@.@.@.@.@.@.@.@.",
"@.@.@.@.K = P @.@.@.@.@.@.@.@.@.@.@.@.@.@.@.@.@.@.@.",
"@.@.@.@.e < ) @.@.@.@.@.@.@.@.@.@.@.@.@.@.@.@.@.@.@.",
"@.@.@.S > ^ @.@.@.@.@.@.@.@.@.@.@.@.@.@.@.@.@.@.@.@.",
"@.@.` y $ s @.@.@.@.@.@.@.@.@.@.@.@.@.@.@.@.@.@.@.@.",
"@.@.; ; d ( @.@.@.@.@.@.@.@.@.@.@.@.@.@.@.@.@.@.@.@.",
"@.@.k   h @.@.@.@.@.@.@.@.@.@.@.@.@.@.@.@.@.@.@.@.@.",
"@.@.5 % 2 @.@.@.@.@.@.@.@.@.@.@.@.@.@.@.@.@.@.@.@.@.",
"@.@.  4 X.@.@.@.@.@.@.@.@.@.@.@.@.@.@.@.@.@.@.@.@.@.",
"@.g %   @.@.@.@.@.@.@.@.@.@.@.@.@.@.@.@.@.@.@.@.@.@.",
"@.k   / @.@.@.@.@.@.@.@.@.@.@.@.@.@.@.@.@.@.@.@.@.@.",
"@.$ %  .@.@.@.@.@.@.@.@.@.@.@.@.@.@.@.@.@.@.@.@.@.@.",
"@.% % @.@.@.@.@.@.@.@.@.@.@.@.@.@.@.@.@.@.@.@.@.@.@."
};
