/* XPM */
static char * emblem_photos_26_26_xpm[] = {
"26 26 242 2",
"  	c None",
". 	c #444444",
"+ 	c #494949",
"@ 	c #4E4E4E",
"# 	c #424242",
"$ 	c #434343",
"% 	c #414141",
"& 	c #575757",
"* 	c #555555",
"= 	c #858585",
"- 	c #6C6C6C",
"; 	c #8C8C8C",
"> 	c #535353",
", 	c #3F3F3F",
"' 	c #828282",
") 	c #7F7F7F",
"! 	c #666666",
"~ 	c #BDBDBD",
"{ 	c #6E6E6E",
"] 	c #8A8A8A",
"^ 	c #525252",
"/ 	c #4D4D4D",
"( 	c #646464",
"_ 	c #616161",
": 	c #515151",
"< 	c #474747",
"[ 	c #484848",
"} 	c #454545",
"| 	c #3F3F3E",
"1 	c #545454",
"2 	c #3C3C3C",
"3 	c #464646",
"4 	c #3E3E3E",
"5 	c #303030",
"6 	c #292929",
"7 	c #242319",
"8 	c #3C3C38",
"9 	c #404041",
"0 	c #383838",
"a 	c #4C4C4C",
"b 	c #4A4A4A",
"c 	c #4F4F4F",
"d 	c #626262",
"e 	c #323232",
"f 	c #282828",
"g 	c #24220F",
"h 	c #36362F",
"i 	c #414243",
"j 	c #5A5A5A",
"k 	c #272727",
"l 	c #585858",
"m 	c #6B6B6B",
"n 	c #373737",
"o 	c #312E18",
"p 	c #313029",
"q 	c #565656",
"r 	c #595959",
"s 	c #3D3D3D",
"t 	c #2F2F30",
"u 	c #38341F",
"v 	c #32312A",
"w 	c #3D3D3E",
"x 	c #606060",
"y 	c #363636",
"z 	c #333230",
"A 	c #4C482E",
"B 	c #44423B",
"C 	c #444446",
"D 	c #3B3B3B",
"E 	c #444545",
"F 	c #323127",
"G 	c #78734C",
"H 	c #6E6B5A",
"I 	c #626364",
"J 	c #636363",
"K 	c #505050",
"L 	c #404040",
"M 	c #2A2B2C",
"N 	c #121102",
"O 	c #88814F",
"P 	c #C1B97A",
"Q 	c #8F8D77",
"R 	c #68686B",
"S 	c #747475",
"T 	c #7E7E7E",
"U 	c #808080",
"V 	c #757676",
"W 	c #191919",
"X 	c #65624A",
"Y 	c #958E51",
"Z 	c #C6BE76",
"` 	c #EADE7D",
" .	c #A29C6A",
"..	c #6B695F",
"+.	c #5A5A54",
"@.	c #4E4C48",
"#.	c #42413D",
"$.	c #383733",
"%.	c #2C2B26",
"&.	c #242420",
"*.	c #595958",
"=.	c #B3B3B6",
"-.	c #A29E7F",
";.	c #A59C53",
">.	c #B8B06F",
",.	c #B5AD63",
"'.	c #DFD254",
").	c #E2D248",
"!.	c #C0B13B",
"~.	c #A3972D",
"{.	c #948722",
"].	c #93861A",
"^.	c #8B7D09",
"/.	c #797022",
"(.	c #C9C8BE",
"_.	c #CECFD4",
":.	c #A39F78",
"<.	c #A29A53",
"[.	c #E2D883",
"}.	c #DBD076",
"|.	c #A39A48",
"1.	c #B2A53A",
"2.	c #EDD92A",
"3.	c #F3DB0E",
"4.	c #DDC500",
"5.	c #DBC400",
"6.	c #C4AF00",
"7.	c #817721",
"8.	c #BCBBB4",
"9.	c #CACAD1",
"0.	c #A4A07A",
"a.	c #A39B53",
"b.	c #D7CE7E",
"c.	c #FFF684",
"d.	c #F1E361",
"e.	c #C8B941",
"f.	c #EBD72D",
"g.	c #B1A010",
"h.	c #7E7000",
"i.	c #867800",
"j.	c #A08F00",
"k.	c #867B21",
"l.	c #BCBCB5",
"m.	c #CACBD1",
"n.	c #A4A07B",
"o.	c #A39B55",
"p.	c #CAC279",
"q.	c #E6DB78",
"r.	c #F7E761",
"s.	c #FDE949",
"t.	c #F9E32F",
"u.	c #B6A610",
"v.	c #6E6200",
"w.	c #817300",
"x.	c #A69400",
"y.	c #867C21",
"z.	c #BDBDB6",
"A.	c #A39F7A",
"B.	c #99914D",
"C.	c #CBC278",
"D.	c #D0C670",
"E.	c #D6C957",
"F.	c #ECDB46",
"G.	c #F7E22E",
"H.	c #B3A310",
"I.	c #695E00",
"J.	c #796C00",
"K.	c #A49300",
"L.	c #877C22",
"M.	c #BEBDB6",
"N.	c #C9CAD0",
"O.	c #A19D79",
"P.	c #665A00",
"Q.	c #7B722A",
"R.	c #C9C178",
"S.	c #D4CA76",
"T.	c #CABD52",
"U.	c #CEC040",
"V.	c #EEDA2D",
"W.	c #C4B111",
"X.	c #635900",
"Y.	c #786B00",
"Z.	c #AF9C00",
"`.	c #877C23",
" +	c #BEBDB7",
".+	c #C9CAD1",
"++	c #A09C79",
"@+	c #5C5200",
"#+	c #413900",
"$+	c #C2B972",
"%+	c #E4D97E",
"&+	c #CCBF53",
"*+	c #CBBC3F",
"=+	c #F0DB2E",
"-+	c #B2A210",
";+	c #6A5F00",
">+	c #796B00",
",+	c #A49200",
"'+	c #8A7F24",
")+	c #BFBEB9",
"!+	c #CCCCCE",
"~+	c #9B966F",
"{+	c #3D3300",
"]+	c #8D843E",
"^+	c #E0D57B",
"/+	c #EDE06B",
"(+	c #D6C640",
"_+	c #EAD62A",
":+	c #DEC810",
"<+	c #CFB900",
"[+	c #CBB600",
"}+	c #B5A100",
"|+	c #857C25",
"1+	c #C8C7C4",
"2+	c #BDB99F",
"3+	c #766E35",
"4+	c #393303",
"5+	c #988F42",
"6+	c #D2C763",
"7+	c #EEE061",
"8+	c #F9E645",
"9+	c #F8E21E",
"0+	c #F6DC05",
"a+	c #EFD70D",
"b+	c #D0BD1D",
"c+	c #978E41",
"d+	c #AAA57E",
"e+	c #847C47",
"f+	c #736B29",
"g+	c #A0973C",
"h+	c #B8AB3B",
"i+	c #C7B835",
"j+	c #C9B92D",
"k+	c #BEAE2A",
"l+	c #A49729",
"m+	c #7D752C",
"n+	c #5D5521",
"o+	c #504914",
"p+	c #645C1E",
"q+	c #6A621E",
"r+	c #5E571A",
"s+	c #46400D",
"                                                    ",
"                          . . + @ #                 ",
"                  $ % & & * = - ; >                 ",
"                , * & ' ) ! ~ { ] ^                 ",
"              # / ( _ & ^ + : < [ }                 ",
"              | 1 } 2 3 $ 3 } 4 5 6                 ",
"            7 8 9 0 a b . c _ d < e f               ",
"            g h i . j k 6 % l m l . n k             ",
"            o p i $ & q , b r * s } . t             ",
"            u v w . + x d & < 5 y < $ z             ",
"            A B C # # b / 3 s D % } E F             ",
"            G H I J K , 4 L 4 , : x M N             ",
"            O P Q R S T ) U T V 1 W t X             ",
"            Y Z `  ...+.@.#.$.%.&.*.=.-.            ",
"            ;.>.,.'.).!.~.{.].^./.(._.:.            ",
"            <.[.}.|.1.2.3.4.5.6.7.8.9.0.            ",
"            a.b.c.d.e.f.g.h.i.j.k.l.m.n.            ",
"            o.p.q.r.s.t.u.v.w.x.y.z.9.A.            ",
"            B.C.D.E.F.G.H.I.J.K.L.M.N.O.P.          ",
"            Q.R.S.T.U.V.W.X.Y.Z.`. +.+++@+          ",
"            #+$+%+&+*+=+-+;+>+,+'+)+!+~+{+          ",
"              ]+^+/+(+_+:+<+[+}+|+1+2+3+            ",
"              4+5+6+7+8+9+0+a+b+c+d+e+              ",
"                  f+g+h+i+j+k+l+m+n+                ",
"                      o+p+q+r+s+                    ",
"                                                    "};
