/* XPM */
static char * geda_find_32x32_xpm[] = {
"32 32 628 2",
"  	c None",
". 	c #3A3534",
"+ 	c #323331",
"@ 	c #2A3232",
"# 	c #28231C",
"$ 	c #2F2720",
"% 	c #312B24",
"& 	c #232724",
"* 	c #162425",
"= 	c #0D191A",
"- 	c #1A2123",
"; 	c #1E1F1C",
"> 	c #29241C",
", 	c #322B22",
"' 	c #222925",
") 	c #152C32",
"! 	c #102026",
"~ 	c #253332",
"{ 	c #2A211A",
"] 	c #312824",
"^ 	c #2E2E2D",
"/ 	c #252F32",
"( 	c #1D3541",
"_ 	c #102832",
": 	c #243940",
"< 	c #20211D",
"[ 	c #342B21",
"} 	c #3A322C",
"| 	c #212827",
"1 	c #223037",
"2 	c #12272D",
"3 	c #1F3031",
"4 	c #2F2B26",
"5 	c #2D241D",
"6 	c #342B27",
"7 	c #35302C",
"8 	c #2C2F2D",
"9 	c #1D323C",
"0 	c #152A33",
"a 	c #0C181B",
"b 	c #201C18",
"c 	c #43382E",
"d 	c #3D352D",
"e 	c #20292B",
"f 	c #242F30",
"g 	c #12232A",
"h 	c #162525",
"i 	c #332E2C",
"j 	c #272319",
"k 	c #2C281F",
"l 	c #2C2A25",
"m 	c #1F2625",
"n 	c #10262E",
"o 	c #0D232B",
"p 	c #0B1615",
"q 	c #202522",
"r 	c #1F2B28",
"s 	c #192020",
"t 	c #141513",
"u 	c #28221E",
"v 	c #342C24",
"w 	c #1C211F",
"x 	c #191E1D",
"y 	c #0F1B1D",
"z 	c #151D1D",
"A 	c #1B363D",
"B 	c #3E3024",
"C 	c #232016",
"D 	c #3C2C22",
"E 	c #362B1F",
"F 	c #25221C",
"G 	c #332F28",
"H 	c #272520",
"I 	c #151612",
"J 	c #282414",
"K 	c #1D3338",
"L 	c #0A1314",
"M 	c #142A31",
"N 	c #131F20",
"O 	c #1D1D16",
"P 	c #17170F",
"Q 	c #111F1F",
"R 	c #0C1C21",
"S 	c #273331",
"T 	c #272B2B",
"U 	c #343A3E",
"V 	c #353331",
"W 	c #2B231C",
"X 	c #372E1F",
"Y 	c #1E1811",
"Z 	c #0C0E0B",
"` 	c #2A221C",
" .	c #243139",
"..	c #0B1B20",
"+.	c #070E0F",
"@.	c #091314",
"#.	c #1A1B14",
"$.	c #181810",
"%.	c #222823",
"&.	c #272D2B",
"*.	c #262F31",
"=.	c #1F3443",
"-.	c #1F3644",
";.	c #1D3037",
">.	c #261F1B",
",.	c #46372D",
"'.	c #5B4637",
").	c #23272F",
"!.	c #19303C",
"~.	c #142F3D",
"{.	c #112736",
"].	c #0D1D22",
"^.	c #040908",
"/.	c #070807",
"(.	c #27211A",
"_.	c #162F3B",
":.	c #0F3442",
"<.	c #000000",
"[.	c #121310",
"}.	c #1F1E18",
"|.	c #25211A",
"1.	c #221F17",
"2.	c #201C17",
"3.	c #151311",
"4.	c #0B0E0E",
"5.	c #090F0E",
"6.	c #0D1515",
"7.	c #131C1E",
"8.	c #27312F",
"9.	c #4F3E38",
"0.	c #1E1714",
"a.	c #1A1713",
"b.	c #312823",
"c.	c #2B261B",
"d.	c #151511",
"e.	c #0A0C0C",
"f.	c #0D100F",
"g.	c #121917",
"h.	c #1B211B",
"i.	c #1D1913",
"j.	c #1C1A13",
"k.	c #4B3925",
"l.	c #443421",
"m.	c #1A2B39",
"n.	c #060F10",
"o.	c #0C110E",
"p.	c #101210",
"q.	c #0E100D",
"r.	c #2B2419",
"s.	c #3C3224",
"t.	c #27271D",
"u.	c #13252A",
"v.	c #0F191A",
"w.	c #090F0B",
"x.	c #0B1212",
"y.	c #1A2A2E",
"z.	c #4F4235",
"A.	c #211D18",
"B.	c #191814",
"C.	c #322A21",
"D.	c #4E3C2F",
"E.	c #282D30",
"F.	c #1F2D32",
"G.	c #192325",
"H.	c #352B24",
"I.	c #725741",
"J.	c #9D7656",
"K.	c #5D4C36",
"L.	c #28281B",
"M.	c #221E16",
"N.	c #11272E",
"O.	c #13242A",
"P.	c #0F1617",
"Q.	c #101412",
"R.	c #453529",
"S.	c #3D322C",
"T.	c #262927",
"U.	c #182A31",
"V.	c #122125",
"W.	c #111C1C",
"X.	c #122122",
"Y.	c #2D251C",
"Z.	c #1E1C19",
"`.	c #372B26",
" +	c #4C3D2E",
".+	c #262C2E",
"++	c #1B262A",
"@+	c #151C1E",
"#+	c #1B1C17",
"$+	c #28211E",
"%+	c #332822",
"&+	c #1F1B16",
"*+	c #1D1A17",
"=+	c #181C1F",
"-+	c #101E25",
";+	c #061115",
">+	c #040504",
",+	c #0C0C09",
"'+	c #161411",
")+	c #332E23",
"!+	c #302C20",
"~+	c #21282A",
"{+	c #1B252C",
"]+	c #172020",
"^+	c #101D1E",
"/+	c #16242B",
"(+	c #1D2D34",
"_+	c #493E33",
":+	c #251F1A",
"<+	c #292320",
"[+	c #3A2F27",
"}+	c #513D2F",
"|+	c #202626",
"1+	c #1A2834",
"2+	c #1C282D",
"3+	c #0E1312",
"4+	c #030705",
"5+	c #131311",
"6+	c #342B20",
"7+	c #372E28",
"8+	c #303131",
"9+	c #1C2E36",
"0+	c #0E1E25",
"a+	c #050C0A",
"b+	c #0E0E0B",
"c+	c #221F1A",
"d+	c #2E2720",
"e+	c #2F2823",
"f+	c #252727",
"g+	c #19272D",
"h+	c #191D1E",
"i+	c #121B1C",
"j+	c #182223",
"k+	c #1B2E34",
"l+	c #44382D",
"m+	c #241F17",
"n+	c #2B2420",
"o+	c #362B28",
"p+	c #4F3D31",
"q+	c #212424",
"r+	c #182C32",
"s+	c #1D292F",
"t+	c #131615",
"u+	c #0D0E0B",
"v+	c #211D17",
"w+	c #332B22",
"x+	c #2E2827",
"y+	c #2B2D2D",
"z+	c #182B31",
"A+	c #060F0E",
"B+	c #0C0E09",
"C+	c #201F19",
"D+	c #2C271E",
"E+	c #302825",
"F+	c #262827",
"G+	c #19272B",
"H+	c #171E1E",
"I+	c #131B1C",
"J+	c #182323",
"K+	c #1A2B30",
"L+	c #32291E",
"M+	c #26221A",
"N+	c #2D261E",
"O+	c #372E25",
"P+	c #543D32",
"Q+	c #222225",
"R+	c #172831",
"S+	c #18252A",
"T+	c #121516",
"U+	c #0D0D0A",
"V+	c #1F1B18",
"W+	c #342720",
"X+	c #2C2922",
"Y+	c #272C2A",
"Z+	c #1A2730",
"`+	c #0E1E27",
" @	c #050F10",
".@	c #0E0E0A",
"+@	c #231F18",
"@@	c #2D271D",
"#@	c #2F2B24",
"$@	c #2A2622",
"%@	c #1A2227",
"&@	c #141E22",
"*@	c #0F1B1C",
"=@	c #182222",
"-@	c #16272D",
";@	c #29221C",
">@	c #2D241F",
",@	c #322921",
"'@	c #3A2F24",
")@	c #513F32",
"!@	c #222521",
"~@	c #172630",
"{@	c #1C292D",
"]@	c #111616",
"^@	c #10110D",
"/@	c #1E1B15",
"(@	c #29251C",
"_@	c #3B3025",
":@	c #1F2122",
"<@	c #101C22",
"[@	c #0C1518",
"}@	c #040B0A",
"|@	c #0D0F09",
"1@	c #1C1C16",
"2@	c #2D271F",
"3@	c #2E2A22",
"4@	c #262525",
"5@	c #192222",
"6@	c #161C1E",
"7@	c #101919",
"8@	c #192123",
"9@	c #142023",
"0@	c #241D1A",
"a@	c #352C25",
"b@	c #322723",
"c@	c #363021",
"d@	c #513E2F",
"e@	c #1B1C1C",
"f@	c #18282D",
"g@	c #14252E",
"h@	c #231D1A",
"i@	c #171412",
"j@	c #0B100F",
"k@	c #0B0F0E",
"l@	c #0A1312",
"m@	c #171919",
"n@	c #1D1919",
"o@	c #373122",
"p@	c #3B3125",
"q@	c #292829",
"r@	c #152326",
"s@	c #101B19",
"t@	c #132023",
"u@	c #0F1D1E",
"v@	c #281D19",
"w@	c #372B21",
"x@	c #2F251F",
"y@	c #4F4030",
"z@	c #2D2B29",
"A@	c #1A2127",
"B@	c #181C1C",
"C@	c #302B1F",
"D@	c #9B7F55",
"E@	c #907252",
"F@	c #4F3C30",
"G@	c #342420",
"H@	c #161A18",
"I@	c #0C1212",
"J@	c #0F0F0F",
"K@	c #0E1210",
"L@	c #232217",
"M@	c #3C3228",
"N@	c #4A352F",
"O@	c #2F2920",
"P@	c #182225",
"Q@	c #0E1B1F",
"R@	c #132128",
"S@	c #0F1C20",
"T@	c #203036",
"U@	c #26201D",
"V@	c #312A21",
"W@	c #27231B",
"X@	c #25211B",
"Y@	c #332C23",
"Z@	c #22292F",
"`@	c #1A3344",
" #	c #183040",
".#	c #1F2425",
"+#	c #3A2A1F",
"@#	c #4F3526",
"##	c #30281C",
"$#	c #48392A",
"%#	c #42332A",
"&#	c #0F1313",
"*#	c #070C0A",
"=#	c #070B08",
"-#	c #11120F",
";#	c #1E1C17",
">#	c #27231C",
",#	c #312920",
"'#	c #252526",
")#	c #162D34",
"!#	c #132B33",
"~#	c #10232D",
"{#	c #112632",
"]#	c #0E1F27",
"^#	c #192525",
"/#	c #392E24",
"(#	c #231F1B",
"_#	c #282520",
":#	c #322820",
"<#	c #362F25",
"[#	c #192B33",
"}#	c #152E3F",
"|#	c #0D1F27",
"1#	c #080C0B",
"2#	c #030604",
"3#	c #060808",
"4#	c #4F3C31",
"5#	c #322423",
"6#	c #191B1E",
"7#	c #13110E",
"8#	c #151610",
"9#	c #221F18",
"0#	c #261F1A",
"a#	c #2E2220",
"b#	c #2F261F",
"c#	c #221E19",
"d#	c #181919",
"e#	c #111716",
"f#	c #0A1010",
"g#	c #08100F",
"h#	c #080E0D",
"i#	c #3A2D20",
"j#	c #211E17",
"k#	c #33281F",
"l#	c #1E1A15",
"m#	c #100E0E",
"n#	c #0B0A07",
"o#	c #050603",
"p#	c #0E0C06",
"q#	c #181613",
"r#	c #1E1914",
"s#	c #2F241C",
"t#	c #221B14",
"u#	c #12110E",
"v#	c #0A0F0E",
"w#	c #0C1411",
"x#	c #47392D",
"y#	c #2B221A",
"z#	c #3D3124",
"A#	c #382D22",
"B#	c #221C16",
"C#	c #12120E",
"D#	c #080A07",
"E#	c #070906",
"F#	c #1F1F1E",
"G#	c #271F1C",
"H#	c #292218",
"I#	c #3B331F",
"J#	c #211E18",
"K#	c #191B1A",
"L#	c #141F1E",
"M#	c #131A19",
"N#	c #0F1818",
"O#	c #4A3C2A",
"P#	c #2E251B",
"Q#	c #383023",
"R#	c #24201B",
"S#	c #1C1A17",
"T#	c #0E1310",
"U#	c #0B0D0A",
"V#	c #1F201B",
"W#	c #442B25",
"X#	c #261F19",
"Y#	c #292219",
"Z#	c #3A2E21",
"`#	c #1E1F17",
" $	c #191E20",
".$	c #171D1E",
"+$	c #131B1D",
"@$	c #091313",
"#$	c #192528",
"$$	c #413225",
"%$	c #2E261D",
"&$	c #3B2E29",
"*$	c #392C26",
"=$	c #292521",
"-$	c #222320",
";$	c #0D1111",
">$	c #3A2A21",
",$	c #201C14",
"'$	c #362B23",
")$	c #1F1D1C",
"!$	c #171E1D",
"~$	c #141D1E",
"{$	c #111919",
"]$	c #0A100E",
"^$	c #1A2427",
"/$	c #3F2F29",
"($	c #30281B",
"_$	c #3D3628",
":$	c #372D2C",
"<$	c #2B2527",
"[$	c #212426",
"}$	c #151E20",
"|$	c #0D1517",
"1$	c #161515",
"2$	c #1D1E1E",
"3$	c #2D231D",
"4$	c #1A1812",
"5$	c #27201C",
"6$	c #352C1E",
"7$	c #161C19",
"8$	c #101A1A",
"9$	c #0E1718",
"0$	c #09100E",
"a$	c #162325",
"b$	c #312C1B",
"c$	c #2B2727",
"d$	c #282729",
"e$	c #122126",
"f$	c #0F1C22",
"g$	c #131614",
"h$	c #191518",
"i$	c #2C2319",
"j$	c #181610",
"k$	c #232317",
"l$	c #2C241F",
"m$	c #16171A",
"n$	c #121C1D",
"o$	c #101719",
"p$	c #0F1516",
"q$	c #0C1415",
"r$	c #312620",
"s$	c #352922",
"t$	c #3C3328",
"u$	c #352D29",
"v$	c #2C2929",
"w$	c #282826",
"x$	c #162024",
"y$	c #0E1C22",
"z$	c #131715",
"A$	c #191A18",
"B$	c #1F1D18",
"C$	c #151410",
"D$	c #1D1916",
"E$	c #211F18",
"F$	c #131817",
"G$	c #101819",
"H$	c #0E1416",
"I$	c #08110F",
"J$	c #10191A",
"K$	c #2C241A",
"L$	c #382C20",
"M$	c #3A3127",
"N$	c #332B29",
"O$	c #2E2923",
"P$	c #282928",
"Q$	c #151E1F",
"R$	c #0E1B20",
"S$	c #121819",
"T$	c #161511",
"U$	c #10120D",
"V$	c #161715",
"W$	c #1E1B17",
"X$	c #131413",
"Y$	c #111714",
"Z$	c #0D1516",
"`$	c #0C1413",
" %	c #091210",
".%	c #0B1112",
"+%	c #262018",
"@%	c #342B24",
"#%	c #3D3227",
"$%	c #362F28",
"%%	c #2C2927",
"&%	c #1F2427",
"*%	c #142022",
"=%	c #0E1C1C",
"-%	c #0F1716",
";%	c #161818",
">%	c #12100D",
",%	c #0C0D0C",
"'%	c #131411",
")%	c #191A14",
"!%	c #121511",
"~%	c #101616",
"{%	c #0D1616",
"]%	c #0B1414",
"^%	c #091114",
"/%	c #0A1111",
"(%	c #1B1914",
"_%	c #2D271E",
":%	c #3E342A",
"<%	c #372F29",
"[%	c #212124",
"}%	c #131B20",
"|%	c #0E191B",
"1%	c #0B1515",
"2%	c #091212",
"3%	c #121615",
"4%	c #0E0F0B",
"5%	c #0A0C09",
"6%	c #0F120E",
"7%	c #141612",
"8%	c #101313",
"9%	c #0B1213",
"0%	c #0A1213",
"a%	c #071012",
"b%	c #080E0E",
"c%	c #1A1B11",
"d%	c #342B1F",
"e%	c #423729",
"f%	c #342D22",
"g%	c #1C1C1C",
"h%	c #101316",
"i%	c #0C1312",
"j%	c #0A0D0D",
"k%	c #060C09",
"l%	c #0E100E",
"m%	c #0B0C09",
"n%	c #070907",
"o%	c #0F0F0E",
"p%	c #0A0D0B",
"q%	c #070C0B",
"r%	c #070D09",
"s%	c #070D0B",
"t%	c #060B0A",
"u%	c #050908",
"v%	c #191711",
"w%	c #2C251D",
"x%	c #382D25",
"y%	c #2B231E",
"z%	c #181717",
"A%	c #0D1110",
"B%	c #0B0F0F",
"C%	c #0C100F",
"D%	c #171816",
"E%	c #11110D",
"F%	c #090B07",
"G%	c #070908",
"H%	c #090B0A",
"I%	c #0A0E0C",
"J%	c #0E1413",
"K%	c #0D1313",
"                                      . + @                     ",
"              # $ % & * = -       ; > , ' ) ! ~                 ",
"              { ] ^ / ( _ :       < [ } | 1 2 3                 ",
"            4 5 6 7 8 9 0 a       b c d e f g h                 ",
"            i j k l m n o p q r s t u v w x y z A               ",
"            B C D E F G H I J K L M N O P Q R S                 ",
"              T U V W X Y Z `  ...+.@.#.$.%.&.*.=.-.;.          ",
"        >.,.'.).!.~.{.].^./.(._.:.<.[.}.|.1.2.3.4.5.6.7.8.      ",
"    9.0.a.b.c.d.e.f.g.h.i.j.k.l.m.n.o.p.q.r.s.t.u.v.w.x.y.      ",
"    z.A.B.C.D.E.F.G.H.I.J.K.L.M.N.O.P.Q.F R.S.T.U.V.W.X.        ",
"      Y.Z.`. +.+++@+#+$+%+&+*+=+-+;+>+,+'+)+!+~+{+]+^+/+(+      ",
"    _+:+<+[+}+|+1+2+3+4+5+6+7+8+9+0+a+b+c+d+e+f+g+h+i+j+k+      ",
"    l+m+n+o+p+q+r+s+t+u+v+w+x+y+z+0+A+B+C+D+E+F+G+H+I+J+K+      ",
"    L+M+N+O+P+Q+R+S+T+U+V+W+X+Y+Z+`+ @.@+@@@#@$@%@&@*@=@-@      ",
"    ;@>@,@'@)@!@~@{@]@^@/@(@_@:@<@[@}@|@1@2@3@4@5@6@7@8@9@      ",
"    0@a@b@c@d@e@f@g@^.<.<.<.h@i@j@k@l@m@n@o@p@q@r@s@= t@u@      ",
"    v@w@>@x@y@z@A@B@C@D@  E@F@G@H@I@J@K@L@M@N@O@P@Q@<@R@S@T@    ",
"    U@V@W@X@Y@Z@`@ #.#+#@###$#%#&#*#=#-#;#>#,#'#)#!#~#{#]#^#    ",
"  /#(#_#c+:#<#:@[#}#|#1#2#3#4#5#6#7#8#9#0#a#b#c#d#e#f#g#h#1#    ",
"  i#j#k###l#m#n#o#p#                        q#r#s#t#u#f.v#w#    ",
"  x#y#z#A#B#C#D#E#F#                        G#H#I#J#K#L#M#N#    ",
"  O#P#Q#w+R#S#T#U#V#                      W#X#Y#Z#`# $.$+$@$#$  ",
"  $$%$&$*$=$-$+$;$d.                      >$,$j '$)$!$~${$]$^$  ",
"  /$($_$:$<$[$}$|$1$2$                    3$4$5$6$O 7$8$9$0$a$  ",
"  a@b$%#:$c$d$e$f$g$h$                    i$j$k$l$m$n$o$p$0$q$  ",
"  r$s$t$u$v$w$x$y$z$A$                    B$C$D$E$g$F$G$H$I$J$  ",
"  K$L$M$N$O$P$Q$R$S$A$                    T$U$V$W$X$Y$Z$`$ %.%  ",
"  +%@%#%$%%%&%*%=%-%;%                    >%,%'%)%!%~%{%]%^%/%  ",
"  (%_%:%<%[%}%|%1%2%3%                    4%5%6%7%8%9%9%0%a%b%  ",
"  c%d%e%f%g%h%i%j%k%l%                    m%n%o%q.p%q%r%s%t%u%  ",
"  v%w%x%y%z%A%/%B%C%D%                    E%[.q.F%G%H%I%C%J%K%  ",
"                                                                "};
