/* XPM */
static char * geda_name_tag_22x22_xpm[] = {
"22 22 193 2",
"  	c None",
". 	c #858C8A",
"+ 	c #787E7C",
"@ 	c #7F9099",
"# 	c #7F8686",
"$ 	c #6B6D6C",
"% 	c #6F7F8A",
"& 	c #77A3CB",
"* 	c #9FBED8",
"= 	c #9FBCD3",
"- 	c #97B5CF",
"; 	c #95B4CF",
"> 	c #99B8D1",
", 	c #97B6CF",
"' 	c #97B2BF",
") 	c #6B6B6B",
"! 	c #5C646B",
"~ 	c #9FB3BF",
"{ 	c #BDD4E5",
"] 	c #C1D9E9",
"^ 	c #E7F1F8",
"/ 	c #ECF4FA",
"( 	c #E3EEF1",
"_ 	c #E9F1F4",
": 	c #C0D8E4",
"< 	c #7CA3BA",
"[ 	c #787D7E",
"} 	c #60656A",
"| 	c #828483",
"1 	c #708290",
"2 	c #7EA3BF",
"3 	c #EDF5F9",
"4 	c #FFFFFF",
"5 	c #ECF3F1",
"6 	c #C2CBCD",
"7 	c #E4EEF2",
"8 	c #BED6E2",
"9 	c #86A9BF",
"0 	c #7794A5",
"a 	c #A4B8C2",
"b 	c #B7C5CA",
"c 	c #C2D6E2",
"d 	c #FBFEFF",
"e 	c #DCE3E5",
"f 	c #E6EDEC",
"g 	c #DCE3E6",
"h 	c #ADBABF",
"i 	c #E2EFF3",
"j 	c #B3D1E3",
"k 	c #81A0B8",
"l 	c #7DA1B6",
"m 	c #BCD3E1",
"n 	c #EEF1F1",
"o 	c #E6EBEC",
"p 	c #E4EEF1",
"q 	c #ABB7B7",
"r 	c #E4E6E4",
"s 	c #CEDCDE",
"t 	c #A8B7BA",
"u 	c #CFE7F0",
"v 	c #A8C7D8",
"w 	c #90A7B7",
"x 	c #6698B9",
"y 	c #BBD3E1",
"z 	c #FDFDFC",
"A 	c #BDC4C4",
"B 	c #D4DEE0",
"C 	c #E0EBEE",
"D 	c #A0B0B4",
"E 	c #CEE1E5",
"F 	c #C8D8DC",
"G 	c #A8B6BA",
"H 	c #C4E0EA",
"I 	c #9CC2D7",
"J 	c #9BAEB8",
"K 	c #6398B9",
"L 	c #BED5E4",
"M 	c #EBEDEB",
"N 	c #D9E0E0",
"O 	c #F4F6F6",
"P 	c #A1AFB2",
"Q 	c #D7E2E8",
"R 	c #DDF0F1",
"S 	c #93ADB5",
"T 	c #C9E4EC",
"U 	c #B8CFD4",
"V 	c #A1B1B6",
"W 	c #C1E0EC",
"X 	c #98B7CA",
"Y 	c #AAB7BA",
"Z 	c #6096B6",
"` 	c #BAD2E0",
" .	c #F9FDFD",
"..	c #B2C1C7",
"+.	c #C7D6DA",
"@.	c #E4EDEF",
"#.	c #97A4A8",
"$.	c #CEDFE6",
"%.	c #C6DFE4",
"&.	c #8DA5AD",
"*.	c #BBDBE5",
"=.	c #9EB5BC",
"-.	c #9CAEB5",
";.	c #B1D3E2",
">.	c #93B1C3",
",.	c #B1BBBD",
"'.	c #6187AB",
").	c #749EC2",
"!.	c #CCE1EF",
"~.	c #F3FAFB",
"{.	c #AAB7BC",
"].	c #C3D3D7",
"^.	c #D1E4ED",
"/.	c #9CABAF",
"(.	c #BED5DB",
"_.	c #B3D2DC",
":.	c #96AFB8",
"<.	c #B1D2DD",
"[.	c #9AB3BA",
"}.	c #ACC6CD",
"|.	c #8CB7D3",
"1.	c #85A3B7",
"2.	c #A9B6B9",
"3.	c #FBEACA",
"4.	c #99ACB7",
"5.	c #6C99BD",
"6.	c #B3D4EA",
"7.	c #E3F5F9",
"8.	c #A6B3B8",
"9.	c #B8CCD3",
"0.	c #CBE5ED",
"a.	c #9CACB2",
"b.	c #B3CED7",
"c.	c #AFCAD3",
"d.	c #96ADB5",
"e.	c #B5D7E2",
"f.	c #97BED3",
"g.	c #5F92BE",
"h.	c #A4BBC7",
"i.	c #D7D6C9",
"j.	c #89A2B2",
"k.	c #6693BB",
"l.	c #ABD0E6",
"m.	c #D2EDF3",
"n.	c #9CADB2",
"o.	c #AABFC6",
"p.	c #BAD6DF",
"q.	c #95AAB3",
"r.	c #A6C5D0",
"s.	c #A7C4CF",
"t.	c #8FAEC1",
"u.	c #6692BA",
"v.	c #80A0BA",
"w.	c #EAEBDC",
"x.	c #819CB5",
"y.	c #5E8EB8",
"z.	c #A2CBE3",
"A.	c #C7E5EE",
"B.	c #9EB4BB",
"C.	c #A1B7BE",
"D.	c #ACCDDA",
"E.	c #A2C1CE",
"F.	c #97BFD6",
"G.	c #5C8BB7",
"H.	c #8EA9C0",
"I.	c #D3D5CF",
"J.	c #8DA4B8",
"K.	c #5A8BB7",
"L.	c #9FC7DE",
"M.	c #C0E2EB",
"N.	c #95ACB3",
"O.	c #A5BCC3",
"P.	c #A0CBE0",
"Q.	c #5E90BC",
"R.	c #92ACC1",
"S.	c #E8E3D2",
"T.	c #829EB6",
"U.	c #5C8CB8",
"V.	c #8BB8D4",
"W.	c #B9D9E2",
"X.	c #90B3C9",
"Y.	c #6293BE",
"Z.	c #7F9FBB",
"`.	c #E5E1D2",
" +	c #93A8B9",
".+	c #6390B9",
"++	c #72A4C9",
"@+	c #6897C0",
"#+	c #7394B4",
"$+	c #C7C8C3",
"%+	c #99ACBC",
"&+	c #2C6BAD",
"*+	c #6990B5",
"                                            ",
"                                            ",
"                                            ",
"    . + @                                   ",
"    # $ % & * = - ; > , '                   ",
"      ) ! ~ { ] ^ / ( _ : <                 ",
"      [ } | 1 2 3 4 5 6 7 8 9               ",
"        0 a b c d e f g h i j k             ",
"        l m 4 n o p q r s t u v w           ",
"        x y 4 z A B C D E F G H I J         ",
"        K L M N O P Q R S T U V W X Y       ",
"        Z `  ...+.@.#.$.%.&.*.=.-.;.>.,.    ",
"        '.).!.~.{.].^./.(._.:.<.[.}.|.1.2.  ",
"        3.4.5.6.7.8.9.0.a.b.c.d.e.f.g.h.i.  ",
"            j.k.l.m.n.o.p.q.r.s.t.u.v.w.    ",
"              x.y.z.A.B.C.D.E.F.G.H.I.      ",
"                J.K.L.M.N.O.P.Q.R.S.        ",
"                  T.U.V.W.X.Y.Z.`.          ",
"                     +.+++@+#+$+            ",
"                      %+&+*+                ",
"                                            ",
"                                            "};
