/* XPM */
static char * geda_redcross_26x26_xpm[] = {
"26 26 409 2",
"  	c None",
". 	c #BC383B",
"+ 	c #C64047",
"@ 	c #C4444A",
"# 	c #C54449",
"$ 	c #CD454D",
"% 	c #DB4755",
"& 	c #CD5057",
"* 	c #CB585E",
"= 	c #CD5766",
"- 	c #CB6062",
"; 	c #C83D3D",
"> 	c #C92B2F",
", 	c #CF2D35",
"' 	c #CC343B",
") 	c #D3373D",
"! 	c #DE3F46",
"~ 	c #D84449",
"{ 	c #D54B51",
"] 	c #D55058",
"^ 	c #D8565D",
"/ 	c #D25B60",
"( 	c #C56065",
"_ 	c #D43239",
": 	c #D82329",
"< 	c #DD1D27",
"[ 	c #DE2029",
"} 	c #DC232A",
"| 	c #D83B3F",
"1 	c #D84950",
"2 	c #DB4E54",
"3 	c #DF5054",
"4 	c #E15456",
"5 	c #DD575D",
"6 	c #D35C61",
"7 	c #DA323B",
"8 	c #DC212A",
"9 	c #E11D27",
"0 	c #E31F28",
"a 	c #E51720",
"b 	c #DD373D",
"c 	c #E44E55",
"d 	c #E04E54",
"e 	c #E15055",
"f 	c #E25257",
"g 	c #E15459",
"h 	c #DA595D",
"i 	c #D4313A",
"j 	c #D82029",
"k 	c #DD1C25",
"l 	c #E02027",
"m 	c #E61820",
"n 	c #DD363B",
"o 	c #E74C54",
"p 	c #E04B53",
"q 	c #E14D54",
"r 	c #E24F56",
"s 	c #DF5257",
"t 	c #D02F37",
"u 	c #D52128",
"v 	c #DB1D24",
"w 	c #DD1F25",
"x 	c #E31821",
"y 	c #D93736",
"z 	c #E94850",
"A 	c #DE4951",
"B 	c #E04B50",
"C 	c #E04C50",
"D 	c #DF5053",
"E 	c #DC555A",
"F 	c #D02E37",
"G 	c #DA1D24",
"H 	c #DC1F25",
"I 	c #D53534",
"J 	c #E5454D",
"K 	c #DD464E",
"L 	c #DF484E",
"M 	c #DF4A4F",
"N 	c #DD4D51",
"O 	c #D24C50",
"P 	c #CA3C40",
"Q 	c #D14047",
"R 	c #CC4650",
"S 	c #B74D53",
"T 	c #C55E59",
"U 	c #CD3037",
"V 	c #D32126",
"W 	c #D61D23",
"X 	c #D81F25",
"Y 	c #DB1923",
"Z 	c #DF2F33",
"` 	c #DB4448",
" .	c #DE4248",
"..	c #E1444B",
"+.	c #E5474D",
"@.	c #E44A4F",
"#.	c #D63E46",
"$.	c #CB3338",
"%.	c #CE3A3F",
"&.	c #D3404A",
"*.	c #D3474C",
"=.	c #D75253",
"-.	c #CC535A",
";.	c #C4545C",
">.	c #AB423D",
",.	c #B83735",
"'.	c #CD2C33",
").	c #CE2026",
"!.	c #D21D23",
"~.	c #D51D24",
"{.	c #DC1923",
"].	c #DC2D31",
"^.	c #DA4146",
"/.	c #E03F47",
"(.	c #E24248",
"_.	c #E5444B",
":.	c #E5464C",
"<.	c #D83C43",
"[.	c #CE363A",
"}.	c #D23F41",
"|.	c #D9454B",
"1.	c #DD4B4F",
"2.	c #E04D54",
"3.	c #DE5159",
"4.	c #CD5458",
"5.	c #975054",
"6.	c #B8323E",
"7.	c #C3262A",
"8.	c #C1282B",
"9.	c #CA242A",
"0.	c #D22228",
"a.	c #D31F25",
"b.	c #D31B23",
"c.	c #D51D26",
"d.	c #CE161E",
"e.	c #D02C2F",
"f.	c #DD3D45",
"g.	c #DF3C45",
"h.	c #DF3F44",
"i.	c #E04147",
"j.	c #DF4448",
"k.	c #DD4448",
"l.	c #E1474C",
"m.	c #E44A4E",
"n.	c #E54C52",
"o.	c #E54E54",
"p.	c #E55157",
"q.	c #D45357",
"r.	c #B04950",
"s.	c #BF1F2A",
"t.	c #C51F25",
"u.	c #C61B22",
"v.	c #C91C22",
"w.	c #CE1E25",
"x.	c #CE1B23",
"y.	c #CE1C23",
"z.	c #D01D24",
"A.	c #D32027",
"B.	c #D1232A",
"C.	c #D3282F",
"D.	c #D83136",
"E.	c #DC373D",
"F.	c #DD3942",
"G.	c #DC3B43",
"H.	c #DE3D44",
"I.	c #DE4045",
"J.	c #E04348",
"K.	c #E1444A",
"L.	c #E4464E",
"M.	c #E5484F",
"N.	c #E54A50",
"O.	c #E54C51",
"P.	c #E44E54",
"Q.	c #D75156",
"R.	c #C42932",
"S.	c #CE1D25",
"T.	c #CE2023",
"U.	c #CB1E23",
"V.	c #C61C21",
"W.	c #C51C21",
"X.	c #C91E23",
"Y.	c #CD2126",
"Z.	c #D1242B",
"`.	c #D1282D",
" +	c #D22B2F",
".+	c #D62D32",
"++	c #D93135",
"@+	c #DA3436",
"#+	c #D9353D",
"$+	c #D9393E",
"%+	c #DB3A40",
"&+	c #DD3D41",
"*+	c #DE3F45",
"=+	c #DE4346",
"-+	c #E24449",
";+	c #E6454C",
">+	c #E5474E",
",+	c #E04B4E",
"'+	c #E24D51",
")+	c #D64F53",
"!+	c #C81D27",
"~+	c #D11F24",
"{+	c #D01F25",
"]+	c #CE1F23",
"^+	c #C71A1F",
"/+	c #CC1A20",
"(+	c #CE1F24",
"_+	c #CF2128",
":+	c #D0242A",
"<+	c #D3272C",
"[+	c #D4282F",
"}+	c #D42C31",
"|+	c #D42D34",
"1+	c #D9333A",
"2+	c #D8343C",
"3+	c #DA373D",
"4+	c #DA383F",
"5+	c #DC3B42",
"6+	c #DB3D43",
"7+	c #DC3F47",
"8+	c #E04149",
"9+	c #E3434C",
"0+	c #DF474B",
"a+	c #E04950",
"b+	c #D64D53",
"c+	c #C71D27",
"d+	c #D12024",
"e+	c #D01E26",
"f+	c #C6181E",
"g+	c #C5161D",
"h+	c #C91920",
"i+	c #CC1C23",
"j+	c #CE1F26",
"k+	c #CF2129",
"l+	c #D2262C",
"m+	c #D32B30",
"n+	c #D53036",
"o+	c #D63339",
"p+	c #D5353B",
"q+	c #D7373F",
"r+	c #D83A40",
"s+	c #D73C42",
"t+	c #D83E45",
"u+	c #DA4148",
"v+	c #DD4349",
"w+	c #D54B59",
"x+	c #C71D28",
"y+	c #D02024",
"z+	c #CF1F25",
"A+	c #CF1D24",
"B+	c #C7181E",
"C+	c #C5141C",
"D+	c #C6161D",
"E+	c #C8181E",
"F+	c #CB1A21",
"G+	c #CC1D24",
"H+	c #CE2027",
"I+	c #CF252B",
"J+	c #CD262A",
"K+	c #CE2A2D",
"L+	c #CF2B30",
"M+	c #CF2F34",
"N+	c #CF3137",
"O+	c #D1343C",
"P+	c #CE383F",
"Q+	c #D13C42",
"R+	c #D53F44",
"S+	c #CF4346",
"T+	c #CE4248",
"U+	c #D14D4D",
"V+	c #BE5151",
"W+	c #C81D29",
"X+	c #CF1D22",
"Y+	c #CF1E24",
"Z+	c #CC1D23",
"`+	c #C3181F",
" @	c #BF141C",
".@	c #C0141B",
"+@	c #C1151C",
"@@	c #C4151E",
"#@	c #C91720",
"$@	c #CC1B23",
"%@	c #CA2128",
"&@	c #C62529",
"*@	c #CB272C",
"=@	c #CC2A2F",
"-@	c #CD2E32",
";@	c #C3333B",
">@	c #B54248",
",@	c #C1494B",
"'@	c #C84347",
")@	c #CF4554",
"!@	c #BE232C",
"~@	c #C72127",
"{@	c #C82025",
"]@	c #C91E24",
"^@	c #C81C22",
"/@	c #C10F15",
"(@	c #BC0C12",
"_@	c #B81218",
":@	c #B8151A",
"<@	c #BA161C",
"[@	c #BE161D",
"}@	c #B91A21",
"|@	c #C21B25",
"1@	c #CA1C24",
"2@	c #C42125",
"3@	c #CA2329",
"4@	c #CB262A",
"5@	c #CA2B2F",
"6@	c #C1313A",
"7@	c #A33439",
"8@	c #AE3F44",
"9@	c #C04046",
"0@	c #C5252B",
"a@	c #C1262F",
"b@	c #B43833",
"c@	c #AD362F",
"d@	c #AE1F25",
"e@	c #AB1D20",
"f@	c #A82024",
"g@	c #A62126",
"h@	c #9F262A",
"i@	c #B31D26",
"j@	c #C8171E",
"k@	c #C11C21",
"l@	c #C61E24",
"m@	c #C82126",
"n@	c #C7262B",
"o@	c #BF2F37",
"p@	c #AD575F",
"q@	c #94947B",
"r@	c #8D9879",
"s@	c #A23A41",
"t@	c #A2282D",
"u@	c #A0262A",
"v@	c #A1272A",
"w@	c #9C292D",
"x@	c #B01A24",
"y@	c #C4121A",
"z@	c #BB171C",
"A@	c #C01A1F",
"B@	c #C21D22",
"C@	c #C42228",
"D@	c #BC2C32",
"E@	c #93ADA5",
"F@	c #A1333B",
"G@	c #A12A31",
"H@	c #A1252B",
"I@	c #A2262B",
"J@	c #9B262C",
"K@	c #AE1A21",
"L@	c #BE1018",
"M@	c #B71419",
"N@	c #BC151C",
"O@	c #BD181E",
"P@	c #C11E24",
"Q@	c #BC2A32",
"R@	c #A03739",
"S@	c #A02A2E",
"T@	c #A1262B",
"U@	c #A2262C",
"V@	c #9D272D",
"W@	c #AC191F",
"X@	c #BD1118",
"Y@	c #B61319",
"Z@	c #BA131A",
"`@	c #BC141A",
" #	c #BC1A20",
".#	c #BA2A30",
"+#	c #9E3437",
"@#	c #9F282D",
"##	c #9C282B",
"$#	c #A91920",
"%#	c #BC1118",
"&#	c #B5141A",
"*#	c #B7141A",
"=#	c #BA1319",
"-#	c #BD161D",
";#	c #BC222B",
">#	c #9C272D",
",#	c #9D2429",
"'#	c #9A2428",
")#	c #962628",
"!#	c #A4191F",
"~#	c #BB0E15",
"{#	c #B51217",
"]#	c #B81017",
"^#	c #B80E16",
"/#	c #B0141A",
"(#	c #B32B33",
"_#	c #96565A",
":#	c #8D3C3F",
"<#	c #942F33",
"[#	c #962C30",
"}#	c #91292A",
"|#	c #9E1920",
"1#	c #AC1519",
"2#	c #A71D1F",
"3#	c #A62226",
"4#	c #9A2B2E",
"5#	c #984746",
"6#	c #AF5657",
"7#	c #933D3E",
"8#	c #8A2F30",
"9#	c #921B23",
"0#	c #963632",
"a#	c #9D2E33",
"b#	c #903B3A",
"                                                    ",
"                . + @ # $ % & * = -                 ",
"              ; > , ' ) ! ~ { ] ^ / (               ",
"              _ : < [ } | 1 2 3 4 5 6               ",
"              7 8 9 0 a b c d e f g h               ",
"              i j k l m n o p q r s ^               ",
"              t u v w x y z A B C D E               ",
"              F u G H x I J K L M N O P Q R S T     ",
"              U V W X Y Z `  ...+.@.#.$.%.&.*.=.-.;.",
"          >.,.'.).!.~.{.].^./.(._.:.<.[.}.|.1.2.3.4.",
"  5.6.7.8.9.).0.a.b.c.d.e.f.g.h.i.j. .k.l.m.n.o.p.q.",
"r.s.t.u.v.w.x.y.z.A.B.C.D.E.F.G.H.I.J.K.L.M.N.O.P.Q.",
"R.S.T.U.V.W.X.Y.Z.`. +.+++@+#+$+%+&+*+=+-+;+>+,+'+)+",
"!+w.~+{+]+^+/+(+_+:+<+[+}+|+1+2+3+4+5+6+7+8+9+0+a+b+",
"c+w.d+e+y.f+g+h+i+j+k+l+C.m+|+n+o+p+q+r+s+t+u+v+K w+",
"x+w.y+z+A+B+C+D+E+F+G+H+I+J+K+L+M+N+O+P+Q+R+S+T+U+V+",
"W+A+X+Y+Z+`+ @.@+@@@#@$@j+%@&@*@=@-@;@>@,@'@)@      ",
"!@~@{@]@^@/@(@_@:@<@[@}@|@1@2@3@4@5@6@              ",
"7@8@9@0@a@b@c@d@e@f@g@h@i@j@k@l@m@n@o@              ",
"        p@q@r@s@t@u@v@w@x@y@z@A@B@C@D@              ",
"            E@F@G@H@I@J@K@L@M@N@O@P@Q@              ",
"              R@S@T@U@V@W@X@Y@Z@`@ #.#              ",
"              +#@#h@T@##$#%#&#*#=#-#;#              ",
"              >#,#'#'#)#!#~#{#]#^#/#(#              ",
"              _#:#<#[#}#|#1#2#3#4#5#6#              ",
"                    7#8#9#0#a#b#                    "};
