/* XPM */
static char * geda_name_value_36x36_xpm[] = {
"36 36 687 2",
"  	c None",
". 	c #FFFFFF",
"+ 	c #98BD72",
"@ 	c #929A69",
"# 	c #AACB1D",
"$ 	c #7EA151",
"% 	c #F1F6E4",
"& 	c #659A72",
"* 	c #71A54A",
"= 	c #A4C233",
"- 	c #EAF102",
"; 	c #9CBF21",
"> 	c #69A241",
", 	c #579859",
"' 	c #698F8C",
") 	c #ACC68F",
"! 	c #6BA331",
"~ 	c #7AAF1E",
"{ 	c #83B513",
"] 	c #99C210",
"^ 	c #CADF0B",
"/ 	c #E4EC0C",
"( 	c #BAD60E",
"_ 	c #86B90E",
": 	c #75AE14",
"< 	c #64A41F",
"[ 	c #4A9433",
"} 	c #458E54",
"| 	c #6E8C82",
"1 	c #D0E3A7",
"2 	c #84A85F",
"3 	c #4D9720",
"4 	c #5CA016",
"5 	c #6EAD12",
"6 	c #ADCC0F",
"7 	c #D5E30C",
"8 	c #E3EB0C",
"9 	c #D3E40C",
"0 	c #D1E20D",
"a 	c #C3D90E",
"b 	c #A4C70E",
"c 	c #72AC11",
"d 	c #449414",
"e 	c #2B861A",
"f 	c #067224",
"g 	c #488E6B",
"h 	c #9EBB72",
"i 	c #268117",
"j 	c #419215",
"k 	c #94BF12",
"l 	c #EAEE0C",
"m 	c #E2EB0C",
"n 	c #D6E50C",
"o 	c #CCE00F",
"p 	c #CBE00D",
"q 	c #C7DC0E",
"r 	c #BED80D",
"s 	c #BAD80E",
"t 	c #C7DC0D",
"u 	c #B9D20E",
"v 	c #71AC11",
"w 	c #318917",
"x 	c #2E814D",
"y 	c #BDD782",
"z 	c #368928",
"A 	c #429415",
"B 	c #C3D90D",
"C 	c #EBF109",
"D 	c #D1E40C",
"E 	c #C7D920",
"F 	c #569248",
"G 	c #577951",
"H 	c #C9E404",
"I 	c #5C962F",
"J 	c #5F9D33",
"K 	c #B1CF21",
"L 	c #A4CA0F",
"M 	c #ADCE0F",
"N 	c #9EC50E",
"O 	c #B0CE09",
"P 	c #6AA238",
"Q 	c #4E5652",
"R 	c #727277",
"S 	c #72A06A",
"T 	c #278415",
"U 	c #D3E20D",
"V 	c #E6EE0B",
"W 	c #DDEA08",
"X 	c #8FB62E",
"Y 	c #717991",
"Z 	c #9BA763",
"` 	c #B4D600",
" .	c #88A941",
"..	c #7378A6",
"+.	c #727A9C",
"@.	c #72A742",
"#.	c #9FC516",
"$.	c #A2CA0E",
"%.	c #9FC70C",
"&.	c #70A43A",
"*.	c #4B5859",
"=.	c #35363A",
"-.	c #5B6565",
";.	c #6D94B6",
">.	c #648CB5",
",.	c #668EB1",
"'.	c #678DB1",
").	c #668EB3",
"!.	c #668CB3",
"~.	c #6A8CA4",
"{.	c #157753",
"].	c #AECF0E",
"^.	c #E9F00B",
"/.	c #D7E60C",
"(.	c #C7DE08",
"_.	c #649642",
":.	c #98A763",
"<.	c #AED300",
"[.	c #84A741",
"}.	c #83AC62",
"|.	c #86B80F",
"1.	c #9BC70B",
"2.	c #69A13A",
"3.	c #6E7878",
"4.	c #3A383B",
"5.	c #454A4A",
"6.	c #416786",
"7.	c #538BBB",
"8.	c #6392B7",
"9.	c #5F91B5",
"0.	c #628EB4",
"a.	c #5F8CB5",
"b.	c #6691B8",
"c.	c #6792B6",
"d.	c #7199BE",
"e.	c #628FBA",
"f.	c #5788A7",
"g.	c #6A8E9A",
"h.	c #278035",
"i.	c #E9F009",
"j.	c #D5E50C",
"k.	c #D0E30C",
"l.	c #C9DE0C",
"m.	c #6DAA15",
"n.	c #71A640",
"o.	c #717994",
"p.	c #98A063",
"q.	c #A7CF00",
"r.	c #7FA642",
"s.	c #8EB556",
"t.	c #8EBE06",
"u.	c #67A03A",
"v.	c #3E4547",
"w.	c #373537",
"x.	c #41525D",
"y.	c #6E8077",
"z.	c #669BC1",
"A.	c #558BBC",
"B.	c #6CA3BF",
"C.	c #87AEC1",
"D.	c #79B02A",
"E.	c #DDEA0B",
"F.	c #CEDF0C",
"G.	c #C9DF0C",
"H.	c #C7DF0C",
"I.	c #A9CC0F",
"J.	c #78B10F",
"K.	c #9BC12D",
"L.	c #4E8740",
"M.	c #A9CF05",
"N.	c #7DA442",
"O.	c #8EB18C",
"P.	c #76AE1A",
"Q.	c #66A03A",
"R.	c #737D7D",
"S.	c #3C4344",
"T.	c #4A4844",
"U.	c #3E4451",
"V.	c #456C8D",
"W.	c #4E82AE",
"X.	c #8BA1A5",
"Y.	c #98A6A8",
"Z.	c #598DA8",
"`.	c #85B62A",
" +	c #D5E40C",
".+	c #C8DE0D",
"++	c #C2DB0D",
"@+	c #BDD80C",
"#+	c #BAD50D",
"$+	c #C1D80D",
"%+	c #9CC511",
"&+	c #B3D111",
"*+	c #A7CC0B",
"=+	c #749B43",
"-+	c #8AB745",
";+	c #599C35",
">+	c #607D91",
",+	c #566265",
"'+	c #52514A",
")+	c #3E658B",
"!+	c #558DB5",
"~+	c #627E8B",
"{+	c #5E7983",
"]+	c #BDDFE9",
"^+	c #5684AD",
"/+	c #4B8633",
"(+	c #CFE30C",
"_+	c #C1D90D",
":+	c #BDD80D",
"<+	c #BAD70C",
"[+	c #B2D10D",
"}+	c #C4D90C",
"|+	c #C9DE0D",
"1+	c #9CC50F",
"2+	c #93BF15",
"3+	c #679851",
"4+	c #77A087",
"5+	c #6D9880",
"6+	c #6292B1",
"7+	c #6D9BB4",
"8+	c #6E99A2",
"9+	c #629BB6",
"0+	c #8AAAB4",
"a+	c #75878A",
"b+	c #5D7178",
"c+	c #5E767D",
"d+	c #B2D3E3",
"e+	c #356789",
"f+	c #B6D60C",
"g+	c #BCD80E",
"h+	c #B5D30E",
"i+	c #B0D10C",
"j+	c #AECE0C",
"k+	c #B0D00C",
"l+	c #A8CD0F",
"m+	c #A0C710",
"n+	c #96C30F",
"o+	c #B0CF0E",
"p+	c #ABCD07",
"q+	c #629F24",
"r+	c #749167",
"s+	c #538199",
"t+	c #6EA9CA",
"u+	c #738B93",
"v+	c #6F7C78",
"w+	c #F5F8FA",
"x+	c #5B7076",
"y+	c #6C848B",
"z+	c #AED2DE",
"A+	c #669833",
"B+	c #AFD208",
"C+	c #B1D10F",
"D+	c #B0CF0D",
"E+	c #AFCF0C",
"F+	c #A5CA0C",
"G+	c #ABCE0B",
"H+	c #B2D20C",
"I+	c #A6CB0D",
"J+	c #9EC40D",
"K+	c #87B70D",
"L+	c #93BE0D",
"M+	c #66A80C",
"N+	c #4B8C4E",
"O+	c #749171",
"P+	c #6498B7",
"Q+	c #6DA6C4",
"R+	c #DADFDE",
"S+	c #627171",
"T+	c #BED1D6",
"U+	c #6E8B90",
"V+	c #6C7A77",
"W+	c #DDE8EA",
"X+	c #D1E2E8",
"Y+	c #5B7074",
"Z+	c #607A81",
"`+	c #BFDAE4",
" @	c #8EB1C5",
".@	c #659F2C",
"+@	c #9CC40C",
"@@	c #A9CD0D",
"#@	c #ABCF0E",
"$@	c #AFD00C",
"%@	c #B1D10B",
"&@	c #B4D30B",
"*@	c #B8D60B",
"=@	c #AED00B",
"-@	c #94C00B",
";@	c #98C00C",
">@	c #84B50E",
",@	c #5FA40E",
"'@	c #3E8B33",
")@	c #698F71",
"!@	c #6395B6",
"~@	c #7CAEC9",
"{@	c #909A98",
"]@	c #5D7076",
"^@	c #BDD2DB",
"/@	c #5E7E87",
"(@	c #587A80",
"_@	c #CFE6ED",
":@	c #CFE0E6",
"<@	c #586C74",
"[@	c #5D767F",
"}@	c #CAE2E9",
"|@	c #79A6B4",
"1@	c #538D3A",
"2@	c #8DBB0F",
"3@	c #9DC50E",
"4@	c #9DC610",
"5@	c #A8CB0B",
"6@	c #AFD10B",
"7@	c #BDD80B",
"8@	c #BFDA0B",
"9@	c #B8D50B",
"0@	c #8DBB0C",
"a@	c #8AB90C",
"b@	c #7FB30E",
"c@	c #49960F",
"d@	c #217F2E",
"e@	c #6B9176",
"f@	c #6398B7",
"g@	c #7CABC7",
"h@	c #9DA5A3",
"i@	c #F6F7F8",
"j@	c #637881",
"k@	c #587076",
"l@	c #D1E1E7",
"m@	c #E8F5F9",
"n@	c #59808D",
"o@	c #597D86",
"p@	c #CEE0E5",
"q@	c #536970",
"r@	c #5C777D",
"s@	c #D2E6ED",
"t@	c #699BAC",
"u@	c #3B705B",
"v@	c #6CA619",
"w@	c #90BF0D",
"x@	c #99C40F",
"y@	c #A4CA0D",
"z@	c #A8CC0B",
"A@	c #BCD70B",
"B@	c #BED90B",
"C@	c #AFD00B",
"D@	c #97C10B",
"E@	c #88B90E",
"F@	c #7DB20E",
"G@	c #398F10",
"H@	c #278044",
"I@	c #6498B3",
"J@	c #70A7C2",
"K@	c #88A4AD",
"L@	c #5C767F",
"M@	c #F0F3F6",
"N@	c #60767E",
"O@	c #5B6E73",
"P@	c #D0E1E7",
"Q@	c #E7F3F8",
"R@	c #587A86",
"S@	c #577884",
"T@	c #CFE7ED",
"U@	c #CDDFE5",
"V@	c #51666D",
"W@	c #58747E",
"X@	c #D1E6ED",
"Y@	c #76A3BB",
"Z@	c #446A7D",
"`@	c #3D7A36",
" #	c #83B90B",
".#	c #93BF0E",
"+#	c #A1C80D",
"@#	c #ACCE0B",
"##	c #ABCD0B",
"$#	c #B5D20B",
"%#	c #B7D40B",
"&#	c #99C20B",
"*#	c #84B60C",
"=#	c #79B00F",
"-#	c #037117",
";#	c #678B79",
">#	c #5B8DB6",
",#	c #629CC1",
"'#	c #849DA6",
")#	c #586D74",
"!#	c #EDF2F3",
"~#	c #F6FAFB",
"{#	c #5D747D",
"]#	c #5B6D73",
"^#	c #D4E4EA",
"/#	c #E1EEF3",
"(#	c #557680",
"_#	c #577D88",
":#	c #CFE6EF",
"<#	c #DBE7EA",
"[#	c #576A70",
"}#	c #597681",
"|#	c #E3EFF2",
"1#	c #6896AE",
"2#	c #4A7391",
"3#	c #516C53",
"4#	c #4C952C",
"5#	c #75B00F",
"6#	c #96C30E",
"7#	c #A8CD0C",
"8#	c #AFCF0B",
"9#	c #92BF0B",
"0#	c #68A70E",
"a#	c #499711",
"b#	c #338458",
"c#	c #5E86AC",
"d#	c #3A77AA",
"e#	c #65A4C3",
"f#	c #627A84",
"g#	c #586D76",
"h#	c #EDF2F4",
"i#	c #F1F7F9",
"j#	c #5C767D",
"k#	c #D3E6EC",
"l#	c #E1EDF2",
"m#	c #53727B",
"n#	c #567B87",
"o#	c #DDEAE8",
"p#	c #B2C9CD",
"q#	c #577784",
"r#	c #64A0B3",
"s#	c #5D9DBB",
"t#	c #3B71A1",
"u#	c #52748B",
"v#	c #889C66",
"w#	c #59A209",
"x#	c #62A615",
"y#	c #7CB311",
"z#	c #92C00E",
"A#	c #9BC40B",
"B#	c #9CC60B",
"C#	c #85B60D",
"D#	c #5EA30F",
"E#	c #0C733C",
"F#	c #4E7494",
"G#	c #5D98BE",
"H#	c #DEEDF3",
"I#	c #CAE3EC",
"J#	c #5E777F",
"K#	c #596D76",
"L#	c #EDF3F6",
"M#	c #F6F9FA",
"N#	c #5B737D",
"O#	c #587279",
"P#	c #DBEBEF",
"Q#	c #E7F0F3",
"R#	c #5E6770",
"S#	c #00661D",
"T#	c #3C886E",
"U#	c #64A2BF",
"V#	c #5B91AD",
"W#	c #3C7AAE",
"X#	c #3E7EB0",
"Y#	c #6E7767",
"Z#	c #7B9A64",
"`#	c #57A208",
" $	c #36852D",
".$	c #488F2F",
"+$	c #73AE11",
"@$	c #92C10F",
"#$	c #89B90D",
"$$	c #A2C90B",
"%$	c #97C20B",
"&$	c #69A80F",
"*$	c #288527",
"=$	c #4E7491",
"-$	c #2F70A8",
";$	c #6BA0C5",
">$	c #D4E8F1",
",$	c #CDE4EB",
"'$	c #5D7A80",
")$	c #E8EFF1",
"!$	c #F1F6F8",
"~$	c #81969D",
"{$	c #5F7A84",
"]$	c #EAF2F4",
"^$	c #F1F3F6",
"/$	c #228318",
"($	c #2A7E44",
"_$	c #5884AD",
":$	c #3A70A1",
"<$	c #3B6E9D",
"[$	c #6E9CA9",
"}$	c #9C9472",
"|$	c #789564",
"1$	c #4B9B06",
"2$	c #578E44",
"3$	c #697F91",
"4$	c #5A973E",
"5$	c #63A60F",
"6$	c #87BA10",
"7$	c #87B90D",
"8$	c #7FB50B",
"9$	c #60A10F",
"0$	c #248027",
"a$	c #51728B",
"b$	c #3170AA",
"c$	c #5E97BF",
"d$	c #CEE6EC",
"e$	c #CCE5EB",
"f$	c #59767E",
"g$	c #53696E",
"h$	c #E7EFF3",
"i$	c #F4F8F9",
"j$	c #527689",
"k$	c #748E96",
"l$	c #DCE6ED",
"m$	c #9DC75A",
"n$	c #388921",
"o$	c #2E6A7E",
"p$	c #356BA4",
"q$	c #6B8FA3",
"r$	c #749363",
"s$	c #449606",
"t$	c #518D44",
"u$	c #9FA6B5",
"v$	c #509829",
"w$	c #77B10F",
"x$	c #8DBD0C",
"y$	c #80B60D",
"z$	c #5A9F10",
"A$	c #23802F",
"B$	c #487093",
"C$	c #2F70AD",
"D$	c #5E9ABD",
"E$	c #DAECF1",
"F$	c #C7E1EA",
"G$	c #628087",
"H$	c #566B71",
"I$	c #D6E4E9",
"J$	c #F3F8F9",
"K$	c #84A2B4",
"L$	c #5B87A1",
"M$	c #60A60F",
"N$	c #5BA115",
"O$	c #156C3E",
"P$	c #576E74",
"Q$	c #729263",
"R$	c #3D9407",
"S$	c #4E8C44",
"T$	c #458550",
"U$	c #5EA50F",
"V$	c #91BF0D",
"W$	c #84B80C",
"X$	c #4A960F",
"Y$	c #368750",
"Z$	c #477095",
"`$	c #3070AC",
" %	c #5696BC",
".%	c #CBE3EB",
"+%	c #D7E9EF",
"@%	c #567780",
"#%	c #52696E",
"$%	c #DEEAED",
"%%	c #F7F9FB",
"&%	c #9AB4C7",
"*%	c #5CA311",
"=%	c #6CAA14",
"-%	c #529C15",
";%	c #418B33",
">%	c #6A867B",
",%	c #7E9770",
"'%	c #359108",
")%	c #4B8B43",
"!%	c #839D9D",
"~%	c #47951A",
"{%	c #70AD11",
"]%	c #8DBC0D",
"^%	c #5CA210",
"/%	c #1D800C",
"(%	c #6A8872",
"_%	c #436E9B",
":%	c #5796B8",
"<%	c #CDE4EA",
"[%	c #BDD8E1",
"}%	c #53727D",
"|%	c #58767F",
"1%	c #A8CBD8",
"2%	c #88A9C6",
"3%	c #59A112",
"4%	c #7CB412",
"5%	c #74AD11",
"6%	c #599F14",
"7%	c #7BB315",
"8%	c #60A31F",
"9%	c #5A9359",
"0%	c #4B7B54",
"a%	c #3A940F",
"b%	c #2A7D3B",
"c%	c #428D2C",
"d%	c #6EA917",
"e%	c #66A713",
"f%	c #91C00D",
"g%	c #7FB50E",
"h%	c #3F9210",
"i%	c #278038",
"j%	c #777A72",
"k%	c #3E709F",
"l%	c #3371AC",
"m%	c #5692B6",
"n%	c #E3EEF1",
"o%	c #E3EFF3",
"p%	c #5EA0BB",
"q%	c #417FB0",
"r%	c #275892",
"s%	c #529F12",
"t%	c #93C00F",
"u%	c #96C20E",
"v%	c #A1C70D",
"w%	c #8EBD0F",
"x%	c #A1C80B",
"y%	c #C2DC0B",
"z%	c #C4DD0B",
"A%	c #338917",
"B%	c #85B812",
"C%	c #A4CA1F",
"D%	c #96C10D",
"E%	c #9DC60C",
"F%	c #6FAD0F",
"G%	c #409013",
"H%	c #1E7D27",
"I%	c #6C8F74",
"J%	c #767E72",
"K%	c #3E6EA0",
"L%	c #3171AD",
"M%	c #74A6C2",
"N%	c #7AAAC1",
"O%	c #4380B3",
"P%	c #2E6AA3",
"Q%	c #5D7088",
"R%	c #489819",
"S%	c #559D15",
"T%	c #74AF0E",
"U%	c #9BC60D",
"V%	c #A6CB0C",
"W%	c #A3CA0B",
"X%	c #B5D10B",
"Y%	c #3B8F14",
"Z%	c #88B90F",
"`%	c #A1C60E",
" &	c #7EB50D",
".&	c #4B9813",
"+&	c #24801A",
"@&	c #2B8239",
"#&	c #669378",
"$&	c #727E72",
"%&	c #3E709C",
"&&	c #2F70A9",
"*&	c #3878AF",
"=&	c #306CA2",
"-&	c #608096",
";&	c #569656",
">&	c #67A245",
",&	c #569938",
"'&	c #408F22",
")&	c #398E14",
"!&	c #3D910F",
"~&	c #388D10",
"{&	c #3D9112",
"]&	c #4F9B14",
"^&	c #419314",
"/&	c #218119",
"(&	c #2C8429",
"_&	c #3B8842",
":&	c #4E925C",
"<&	c #719489",
"[&	c #727A7A",
"}&	c #5E8DBF",
"|&	c #5B8DC1",
"1&	c #698BA8",
"2&	c #738694",
"3&	c #639B78",
"4&	c #589A5D",
"5&	c #5D9A54",
"6&	c #5E9951",
"7&	c #46893F",
"8&	c #197F0D",
"9&	c #2A7E2F",
"0&	c #509361",
"a&	c #639A7D",
"b&	c #6A8772",
"c&	c #2A8134",
"d&	c #518C62",
"                                                                        ",
"                                                                        ",
"                                                  . +                   ",
"                                                  @ # $                 ",
"                                          % % & * = - ; > , '           ",
"                                        ) ! ~ { ] ^ / ( _ : < [ } |     ",
"                                    1 2 3 4 5 6 7 8 9 0 a b c d e f g   ",
"                                    h i j k l m n o p q r s t u v w x   ",
"                                  y z A B C D E F G H I J K L M N O P   ",
"Q R                               S T U V W X Y   Z `  ...+.@.#.$.%.&.  ",
"*.=.-.;.>.,.'.,.).,.,.,.!.~.      {.].^./.(._.    :.<.[.    . }.|.1.2.  ",
"3.4.5.6.7.8.9.0.a.b.c.d.e.f.g.    h.i.j.k.l.m.n.o.p.q.r.      . s.t.u.  ",
"  v.w.x.y.z.A.B.. . . . . . C.    D.E.F.G.H.I.J.K.L.M.N.        O.P.Q.  ",
"  R.S.4.T.U.V.W.. . . X.Y.. . Z.  `. +.+++@+#+$+%+&+*+=+        . -+;+  ",
"      >+,+'+)+!+. . . . ~+{+. ]+^+/+(+_+:+#+<+[+}+|+1+2+3+      . 4+5+  ",
"      6+7+8+9+. . 0+a+. . b+c+. d+e+f+g+h+i+j+k+l+m+n+o+p+q+r+          ",
"      s+t+. . . . . u+v+. w+x+y+z+. A+B+C+D+E+F+G+H+I+J+K+L+M+N+O+      ",
"      P+Q+. . R+S+T+. U+V+W+X+Y+Z+`+ @.@+@@@#@$@%@&@*@=@-@;@>@,@'@)@    ",
"      !@~@. . . {@]@^@. /@(@_@:@<@[@}@|@1@2@3@4@5@6@7@8@9@0@a@b@c@d@e@  ",
"      f@g@. h@i@. j@k@l@m@n@o@_@p@q@r@s@t@u@v@w@x@y@z@A@B@C@D@E@F@G@H@  ",
"      I@J@. K@L@M@. N@O@P@Q@R@S@T@U@V@W@X@Y@Z@`@ #.#+#@###$#%#&#*#=#-#;#",
"      >#,#. . '#)#!#~#{#]#^#/#(#_#:#<#[#}#|#1#2#3#4#5#6#7#z@8#&@9#0#a#b#",
"      c#d#e#. . f#g#h#i#j#k@k#l#m#n#o#p#q#r#s#t#u#v#w#x#y#z#A#B#5@C#D#E#",
"        F#d#G#H#I#J#K#L#M#N#O#P#Q#R#S#T#U#V#W#X#Y#Z#`# $.$+$@$#$$$%$&$*$",
"          =$-$;$>$,$'$)#)$!$~${$]$^$/$($_$:$<$[$}$|$1$2$3$4$5$6$7$8$9$0$",
"            a$b$c$d$e$f$g$h$i$j$k$l$m$n$o$p$q$  . r$s$t$  u$v$w$x$y$z$A$",
"              B$C$D$E$F$G$H$I$J$K$L$M$N$O$P$    . Q$R$S$  . T$U$V$W$X$Y$",
"                Z$`$ %.%+%@%#%$%%%&%*%=%-%;%>%  . ,%'%)%  !%~%{%]%^%/%(%",
"                  _%b$:%<%[%}%|%1%2%3%4%5%6%7%8%9%0%a%b%c%d%e%f%g%h%i%  ",
"                  j%k%l%m%n%o%p%q%r%s%t%u%v%w%x%y%z%A%B%C%D%E%F%G%H%I%  ",
"                    J%K%L%M%N%O%P%Q%R%S%T%U%V%W%X%X%Y%Z%`% &.&+&@&#&    ",
"                      $&%&&&*&=&-&  ;&>&,&'&)&!&~&{&]&^&/&(&_&:&<&      ",
"                        [&}&|&1&        2&3&4&5&6&7&8&9&0&a&            ",
"                                                  b&c&d&                ",
"                                                                        ",
"                                                                        "};
