/* XPM */
static char *geda_tools2_32x32[] = {
/* columns rows colors chars-per-pixel */
"32 32 124 2 ",
"   c #00AF00970082",
".  c #0F1308DE0000",
"X  c #05DD07BC0AB4",
"o  c #0AC20AFA0A95",
"O  c #16480D29006B",
"+  c #0FD3108A0F39",
"@  c #13AD13C21392",
"#  c #17FC196416AA",
"$  c #1D981DF11D2C",
"%  c #212513FB0000",
"&  c #2996197F0006",
"*  c #2419248123D9",
"=  c #27A727DD2837",
"-  c #2AB52ABA2AD0",
";  c #3485350E33E3",
":  c #376438463693",
">  c #38F33A703786",
",  c #3B823C823A96",
"<  c #45252C750199",
"1  c #47F72E900004",
"2  c #5C0239A50000",
"3  c #62B23D7D0000",
"4  c #3F0B40833D91",
"5  c #6BD144BE0000",
"6  c #76784CBD0000",
"7  c #753A512D0000",
"8  c #406A41883F28",
"9  c #432943764334",
"0  c #48A34A5847BE",
"q  c #4B6A4BD04B99",
"w  c #43454801541C",
"e  c #4C6B4F9A58DB",
"r  c #533D53565323",
"t  c #5A895B315B17",
"y  c #712D618141A6",
"u  c #661166326610",
"i  c #670969CE67DD",
"p  c #66A767786847",
"a  c #6B826BEC6BA9",
"s  c #759775F275C9",
"d  c #7CD67D207D0C",
"f  c #83A855660000",
"g  c #84545C600000",
"h  c #8DA85BD400E0",
"j  c #8D4B65D60088",
"k  c #93AF61DA0183",
"l  c #9F486B6300C2",
"z  c #9DC570F60000",
"x  c #A77071950069",
"c  c #B04E7707042C",
"v  c #A47F7BEA1001",
"b  c #925A722A3730",
"n  c #B44C82C0006F",
"m  c #D25D98050000",
"M  c #DCD99FCA12F8",
"N  c #DD71A02D0000",
"B  c #DE29BFB2109F",
"V  c #E26DA2660132",
"C  c #E21FAE780000",
"Z  c #EDC1AD8A00D3",
"A  c #F082A8F60126",
"S  c #E49DB2B9001A",
"D  c #EC9BB7880050",
"F  c #EB8DBD8A00E0",
"G  c #F446BDD10120",
"H  c #FB14BE0E0002",
"J  c #FFFFBA3115D4",
"K  c #EC31C23C0658",
"L  c #F007CB7600D7",
"P  c #ED81C5980AFC",
"I  c #F22EC5E30025",
"U  c #F572CD360000",
"Y  c #F74CDA270080",
"T  c #FBDADE4D01D3",
"R  c #FA2ED4B108F5",
"E  c #EE96C74E1CCA",
"W  c #F678D797114F",
"Q  c #F6FAD9D014BB",
"!  c #F71FD9551C75",
"~  c #FDFBEA350DE8",
"^  c #F9FBE31F145E",
"/  c #FFFFEAF216D9",
"(  c #F38FD6972A0C",
")  c #FC06E64626F7",
"_  c #FC96E8DE38D4",
"`  c #82CB82347FFB",
"'  c #C17FAE656F49",
"]  c #FCA8E4BD46CE",
"[  c #FD34EB5F4B66",
"{  c #FD44ED655E62",
"}  c #F96AE8186AA9",
"|  c #83F5846F8432",
" . c #898188BC8750",
".. c #8D508D8F8D75",
"X. c #871E8ABF907B",
"o. c #946494B194A4",
"O. c #98C999B097D8",
"+. c #9C0E9C5F9BDD",
"@. c #A4EDA54CA4A3",
"#. c #A8DFA890A764",
"$. c #ABDCABE4ABE3",
"%. c #B07AB04FB019",
"&. c #B4ECB516B4D7",
"*. c #B899B905B81C",
"=. c #BB94BC1CBBC9",
"-. c #C1C5B9CA9975",
";. c #C01EC125BF53",
":. c #FCCFEB7A9D87",
">. c #C44AC4B8C3E4",
",. c #CAC9CB08CADB",
"<. c #D3BAD3F5D37E",
"1. c #D954DA0DD826",
"2. c #DC8CDCC8DC80",
"3. c #E0DAE13DE030",
"4. c #D9CFDCADE599",
"5. c #DF0CE09CE087",
"6. c #E3FEE48EE497",
"7. c #E867E8C3E929",
"8. c #EB7FEBDCEBA4",
"9. c #F025F0B0F101",
"0. c #F343F3AFF38E",
"q. c #F71EF881F881",
"w. c #FE2EFE80FE65",
"e. c None",
/* pixels */
"e.e.e.e.e.e.e.e.e.e.e.e.e.e.e.e.e.e.e.e.e.e.e.e.e.e.e.e.e.e.e.e.",
"e.e.e.e.e.e.e.e.e.e.e.e.e.e.e.e.e.e.e.e.e.e.d &.>.>.*.e.e.e.e.e.",
"e.a 2.>.a e.e.e.e.e.e.e.e.e.e.e.e.e.e.e.e.| 6.9.0.w.w.,.9 e.e.e.",
"e.$.w.q.&.e.e.e.e.e.e.e.e.e.e.e.e.e.e.e.r 3.8.9.9.=.u $ o e.e.e.",
"e.9 w.4.,.t e.e.e.e.e.e.e.e.e.e.e.e.e.e.d q.8.w.<.X     e.e.e.e.",
"e.  t =.,.7.p e.e.e.e.e.e.e.e.e.e.e.e.+ @.0.8.w.$.  e.e.e.e.e.e.",
"e.e.  o s 7.9.s e.e.e.e.e.e.e.e.e.e.e.- &.1.8.9.,.* e.e.e.e.e.e.",
"e.e.e.e.  u 8.0.| e.e.e.e.e.e.e.e.e.e.r =.,.8.6.7.o.* e.e. .r e.",
"e.e.e.e.e.  t 8.q.d e.e.e.e.e.e.e.e.e.s <.2.;.<.<.,.` o.;.O.$ e.",
"e.e.e.e.e.e.  q 8.w.| e.e.e.e.e.e.e.* +.@.*.i | 1.;.#.,.*.t   e.",
"e.e.e.e.e.e.e.  0 8.q. .e.e.e.e.e.e.r 6.t @.>.9 =.#.O.&...# e.e.",
"e.e.e.e.e.e.e.e.  8 9.9.o.e.e.e.e.9 <.w.O.0 >.a +...d ` =   e.e.",
"e.e.e.e.e.e.e.e.e.  , 8.9.o.* e.9 <.*.=.O.t  ...a q : +   e.e.e.",
"e.e.e.e.e.e.e.e.e.e.  - 6.q.o.9 <.o.# d @.p ; @       e.e.e.e.e.",
"e.e.e.e.e.e.e.e.e.e.e.  = <.7.=.s $ u $.:     e.e.e.e.e.e.e.e.e.",
"e.e.e.e.e.e.e.e.e.e.e.e.  q 7.6.o.r @.;   e.e.e.e.e.e.e.e.e.e.e.",
"e.e.e.e.e.e.e.e.e.e.e.e.d $.9 <.6.&.e y b e.e.e.e.e.e.e.e.e.e.e.",
"e.e.e.e.e.e.e.e.e.e.e. .,.t * $ <.4.-.:.M 2 e.e.e.e.e.e.e.e.e.e.",
"e.e.e.e.e.e.e.e.e.e.o.,.q : * ` w ' / ( J z e.e.e.e.e.e.e.e.e.e.",
"e.e.e.e.e.e.e.e.e.o.>.9 > @  .X.< N L H H I j e.e.e.e.e.e.e.e.e.",
"e.e.e.e.e.e.e.e.$.=.9 , + s #.X % c A H Y Y U B v e.e.e.e.e.e.e.",
"e.e.e.e.e.e.* =.&., , + p &.#   e.. 1 n I T ~ ] V h e.e.e.e.e.e.",
"e.e.e.e.e.= *.$.> 4 o r >.*   e.e.e.  . n L ^ } E S k e.e.e.e.e.",
"e.e.e.e.8 ,.@.: 4 o 9 ,.>   e.e.e.e.e.  < Z F Q { ! F h e.e.e.e.",
"e.e.e.9 ,...; , o : ,.r   e.e.e.e.e.e.e.  h Z S P [ ! I k e.e.e.",
"e.e.r >.2.o.> X * ,.p   e.e.e.e.e.e.e.e.e.  7 G C K _ ! I l e.e.",
"e.e.=.t    ...# >. .  e.e.e.e.e.e.e.e.e.e.e.  6 I S F ) Q I x e.",
"e.a @.    + @.>.O.  e.e.e.e.e.e.e.e.e.e.e.e.e.  5 D S F ^ R m O ",
"e.t @.o e.$ =.#.o e.e.e.e.e.e.e.e.e.e.e.e.e.e.e.  3 D S L T 7 e.",
"e.@ %.o.r @.O.+ e.e.e.e.e.e.e.e.e.e.e.e.e.e.e.e.e.  2 V A g   e.",
"e.e.- +.@.a o e.e.e.e.e.e.e.e.e.e.e.e.e.e.e.e.e.e.e.  & &   e.e.",
"e.e.    X   e.e.e.e.e.e.e.e.e.e.e.e.e.e.e.e.e.e.e.e.e.e.e.e.e.e."
};
