/* XPM */
static char * geda_man_28x28_xpm[] = {
"28 28 309 2",
"  	c None",
". 	c #B0B3B6",
"+ 	c #B8BCC0",
"@ 	c #A1A7AB",
"# 	c #92979C",
"$ 	c #A5A8AC",
"% 	c #BABEC2",
"& 	c #C0C6CC",
"* 	c #A0A6AC",
"= 	c #818990",
"- 	c #747D83",
"; 	c #687077",
"> 	c #B7BBC0",
", 	c #BDC1C6",
"' 	c #939AA1",
") 	c #6B727B",
"! 	c #5F6870",
"~ 	c #565D67",
"{ 	c #505862",
"] 	c #666E75",
"^ 	c #6C727B",
"/ 	c #767B83",
"( 	c #9298A4",
"_ 	c #6B707B",
": 	c #3D414B",
"< 	c #2E323C",
"[ 	c #333642",
"} 	c #414751",
"| 	c #6A717B",
"1 	c #8C939B",
"2 	c #575F6B",
"3 	c #3C3F45",
"4 	c #1E2330",
"5 	c #141A26",
"6 	c #191E29",
"7 	c #1F252F",
"8 	c #2C313D",
"9 	c #3B3F48",
"0 	c #9DA3AB",
"a 	c #67717A",
"b 	c #3F4954",
"c 	c #343E48",
"d 	c #88796D",
"e 	c #7B695F",
"f 	c #6B5B53",
"g 	c #544946",
"h 	c #4E4442",
"i 	c #6E6865",
"j 	c #7C858E",
"k 	c #545E69",
"l 	c #3B454F",
"m 	c #38424C",
"n 	c #D5CABC",
"o 	c #DFD5CC",
"p 	c #CEC3B8",
"q 	c #B4A798",
"r 	c #B1A18F",
"s 	c #8F8171",
"t 	c #525C6B",
"u 	c #444C54",
"v 	c #3B4550",
"w 	c #D4C8BA",
"x 	c #E7DCD3",
"y 	c #E3DACF",
"z 	c #DACEC2",
"A 	c #CCBDAC",
"B 	c #938679",
"C 	c #484A4D",
"D 	c #6A6A66",
"E 	c #1F2632",
"F 	c #CCC1B2",
"G 	c #DDD3CA",
"H 	c #DBD1C7",
"I 	c #D5C9BC",
"J 	c #CCBCAC",
"K 	c #AA9C85",
"L 	c #867B70",
"M 	c #6F6258",
"N 	c #050610",
"O 	c #C5BCAC",
"P 	c #D3C7B8",
"Q 	c #D0C1B2",
"R 	c #C1B09D",
"S 	c #AB957E",
"T 	c #AB9983",
"U 	c #47403D",
"V 	c #111217",
"W 	c #C4B8AB",
"X 	c #C7B8A5",
"Y 	c #CABBAA",
"Z 	c #C9B8A6",
"` 	c #B49F8B",
" .	c #A69077",
"..	c #A18F78",
"+.	c #72665B",
"@.	c #BDAD9A",
"#.	c #C0B09D",
"$.	c #BDAC99",
"%.	c #A6907C",
"&.	c #A08A71",
"*.	c #99856E",
"=.	c #AE9D88",
"-.	c #C0AC99",
";.	c #B9A491",
">.	c #AC9884",
",.	c #967C64",
"'.	c #87735C",
").	c #B7A692",
"!.	c #AEA192",
"~.	c #929196",
"{.	c #595C61",
"].	c #97897E",
"^.	c #7F654D",
"/.	c #7E664D",
"(.	c #B7A491",
"_.	c #BAAEA3",
":.	c #C7C4C2",
"<.	c #898C93",
"[.	c #3D444D",
"}.	c #636D74",
"|.	c #656E77",
"1.	c #515A67",
"2.	c #68747B",
"3.	c #B4B5B1",
"4.	c #B7A694",
"5.	c #B9AC9D",
"6.	c #BCAFA3",
"7.	c #D7D6D3",
"8.	c #C6C8CA",
"9.	c #9B9FA4",
"0.	c #39424C",
"a.	c #333943",
"b.	c #4C4F58",
"c.	c #7F8991",
"d.	c #6D7780",
"e.	c #636B76",
"f.	c #999EA7",
"g.	c #C0BFC6",
"h.	c #C3BBB2",
"i.	c #E2E5E6",
"j.	c #DCDDDC",
"k.	c #CACACB",
"l.	c #7B8187",
"m.	c #58636D",
"n.	c #2C3540",
"o.	c #262E38",
"p.	c #454C55",
"q.	c #70767D",
"r.	c #7F8891",
"s.	c #646D77",
"t.	c #68717B",
"u.	c #848D93",
"v.	c #95999F",
"w.	c #767D86",
"x.	c #6F7984",
"y.	c #3D4751",
"z.	c #39434C",
"A.	c #343D47",
"B.	c #303A43",
"C.	c #777C84",
"D.	c #656F79",
"E.	c #434C56",
"F.	c #515A64",
"G.	c #696B71",
"H.	c #6598BA",
"I.	c #4E779B",
"J.	c #99A5AA",
"K.	c #5F646D",
"L.	c #878E98",
"M.	c #9199A4",
"N.	c #767F8A",
"O.	c #555F69",
"P.	c #5F6972",
"Q.	c #3A434D",
"R.	c #1B242E",
"S.	c #595F67",
"T.	c #404A55",
"U.	c #2E3741",
"V.	c #353E47",
"W.	c #4D5E63",
"X.	c #5DBAE3",
"Y.	c #437CAE",
"Z.	c #BBC8CE",
"`.	c #798186",
" +	c #777E87",
".+	c #7D8690",
"++	c #7C8690",
"@+	c #626B75",
"#+	c #5E6771",
"$+	c #515A63",
"%+	c #28323C",
"&+	c #18212B",
"*+	c #323D46",
"=+	c #374049",
"-+	c #26303A",
";+	c #27313B",
">+	c #2D343D",
",+	c #3D576B",
"'+	c #3EA2D6",
")+	c #5383AD",
"!+	c #6D737E",
"~+	c #545E66",
"{+	c #454F5A",
"]+	c #4E5863",
"^+	c #414A54",
"/+	c #424B55",
"(+	c #4C5660",
"_+	c #454F59",
":+	c #353E48",
"<+	c #1A242D",
"[+	c #242E36",
"}+	c #28353D",
"|+	c #202933",
"1+	c #242E38",
"2+	c #2A323C",
"3+	c #26455C",
"4+	c #24689D",
"5+	c #425B7C",
"6+	c #474F58",
"7+	c #323B45",
"8+	c #2C353F",
"9+	c #1F2731",
"0+	c #313A44",
"a+	c #333D47",
"b+	c #3E4751",
"c+	c #515B65",
"d+	c #2B353F",
"e+	c #1D2631",
"f+	c #25313A",
"g+	c #1D2731",
"h+	c #263039",
"i+	c #203249",
"j+	c #24416B",
"k+	c #364257",
"l+	c #36424A",
"m+	c #2E3842",
"n+	c #1B232E",
"o+	c #2D3641",
"p+	c #29323C",
"q+	c #424C56",
"r+	c #212B35",
"s+	c #28313A",
"t+	c #272F38",
"u+	c #1C2631",
"v+	c #252E38",
"w+	c #222D3F",
"x+	c #2C3751",
"y+	c #3A454E",
"z+	c #2D3741",
"A+	c #242D37",
"B+	c #38414B",
"C+	c #3B454E",
"D+	c #252F38",
"E+	c #243039",
"F+	c #222E37",
"G+	c #41444E",
"H+	c #29303B",
"I+	c #27323C",
"J+	c #222D37",
"K+	c #2B3340",
"L+	c #2F3949",
"M+	c #2F3943",
"N+	c #37404B",
"O+	c #2B343E",
"P+	c #303A44",
"Q+	c #3B444E",
"R+	c #323C46",
"S+	c #2A343E",
"T+	c #29343D",
"U+	c #364048",
"V+	c #5F656A",
"W+	c #222C35",
"X+	c #1D2934",
"Y+	c #2B333D",
"Z+	c #2C3640",
"`+	c #3D4750",
" @	c #37404A",
".@	c #2F3843",
"+@	c #1E2832",
"@@	c #37414B",
"#@	c #27323B",
"$@	c #454C52",
"%@	c #595F64",
"&@	c #363E46",
"*@	c #1C2530",
"=@	c #252F39",
"-@	c #313A45",
";@	c #323B46",
">@	c #2A333E",
",@	c #1E2732",
"'@	c #333C46",
")@	c #2D3842",
"!@	c #62686E",
"~@	c #CFCECC",
"{@	c #6C7278",
"]@	c #52595F",
"^@	c #374149",
"/@	c #28323B",
"(@	c #28333C",
"_@	c #29323D",
":@	c #212A33",
"<@	c #232D36",
"[@	c #3A444D",
"}@	c #4F5861",
"|@	c #5F6467",
"1@	c #73797E",
"2@	c #767C81",
"3@	c #757A80",
"4@	c #72767C",
"                      . + @ #                           ",
"                  $ % & * = - ;                         ",
"                > , ' ) ! ~ { ] ^                       ",
"              / ( _ : < [ } | 1 2                       ",
"              3 4 5 6 7 8 9 0 a b c                     ",
"                d e f g h i j k l m                     ",
"                n o p q r s t u v                       ",
"                w x y z A B C D E                       ",
"                F G H I J K L M N                       ",
"                O w P Q R S T U V                       ",
"                W X Y Z `  ...+.                        ",
"                  @.#.$.%.&.*.=.                        ",
"                  -.;.>.,.'.).!.~.                      ",
"                  {.].^./.(._.:.<.[.                    ",
"            }.|.1.2.3.4.5.6.7.8.9.0.a.b.                ",
"            c.d.e.f.g.h.  i.j.k.l.m.n.o.p.              ",
"          q.r.s.t.u.          v.w.x.y.z.A.B.            ",
"          C.D.E.F.G.H.I.J.  K.L.M.N.O.P.Q.R.            ",
"          S.T.U.V.W.X.Y.Z.`. +.+++@+#+$+%+&+*+          ",
"          =+-+;+>+,+'+)+!+~+{+]+^+/+(+_+:+<+[+          ",
"          }+|+1+2+3+4+5+6+7+8+9+0+a+b+c+d+e+[+          ",
"          f+g+-+h+i+j+k+l+m+n+o+:+p+b+q+-+r+s+          ",
"          t+u+p+v+w+x+y+z+r+U.a+0+A+B+C+d+D+E+F+        ",
"          G+H+I+J+K+L+M+c N+N+A.O+r+P+Q+R+S+T+U+        ",
"            V+W+X+Y+n.Z+`+b+ @.@S++@S+@@@@M+#@$@        ",
"              %@&@*@=@n.-@;@.@.@>@,@1+'@Q+*+)@!@~@      ",
"                  {@]@^@/@I+(@_@o.:@<@z+[@}@|@          ",
"                          1@2@3@4@                      "};
