/* XPM */
static char * geda_box_28x28_xpm[] = {
"28 28 48 1",
" 	c None",
".	c #0642AA",
"+	c #0640A9",
"@	c #0640AA",
"#	c #073EA9",
"$	c #093CAA",
"%	c #093CA9",
"&	c #093DA9",
"*	c #093BA9",
"=	c #0A3DA9",
"-	c #0A3CA9",
";	c #0B3DA9",
">	c #0B3DAA",
",	c #0B3CA9",
"'	c #083FA9",
")	c #083DA9",
"!	c #0D3CAA",
"~	c #0D3CA9",
"{	c #0D3DAA",
"]	c #1037AA",
"^	c #0250A9",
"/	c #0740AA",
"(	c #0C3CA9",
"_	c #0057AA",
":	c #0740A9",
"<	c #0056A9",
"[	c #0440A9",
"}	c #063EA9",
"|	c #083EA9",
"1	c #093FA9",
"2	c #0A3EA9",
"3	c #0A3FA9",
"4	c #0B3EA9",
"5	c #0C3DAA",
"6	c #005FAA",
"7	c #0058AA",
"8	c #0057A9",
"9	c #0B3EAA",
"0	c #0D40B4",
"a	c #0944B4",
"b	c #054EB3",
"c	c #054DB3",
"d	c #054DB4",
"e	c #054FB4",
"f	c #0B44B4",
"g	c #031233",
"h	c #031133",
"i	c #000000",
"                            ",
"                            ",
".+@#$%%%%%%%%%%%%%%%%%%%%&*%",
"===-;>>>>>>>>>>>>>>>>>>>>,')",
"!~!{{{{{{{{{{{{{{{{{{{{{{]^/",
"((                        _:",
"((                        <[",
"((                        <}",
"((                        <|",
"((                        <'",
"((                        <1",
"((                        <2",
"((                        <2",
"((                        <2",
"((                        <2",
"((                        <2",
"((                        <2",
"((                        <2",
"((                        <2",
"((                        <2",
"((                        <3",
"((                        <2",
"~!                        <4",
"53677777777777777777777778_9",
"0abccccccccccccccccccccccdef",
"gghhhhhhhhhhhhhhhhhhhhhhhhgg",
"iiiiiiiiiiiiiiiiiiiiiiiiiiii",
"                            "};
