/* XPM */
static char * geda_redcross_22x22_xpm[] = {
"22 22 303 2",
"  	c None",
". 	c #C33E3C",
"+ 	c #C53136",
"@ 	c #C73A41",
"# 	c #C83F44",
"$ 	c #D1434A",
"% 	c #D94651",
"& 	c #CE5056",
"* 	c #D0555E",
"= 	c #D05A61",
"- 	c #C36165",
"; 	c #CE3337",
"> 	c #D2252B",
", 	c #D42831",
"' 	c #D52D33",
") 	c #DB3C41",
"! 	c #D7464B",
"~ 	c #D74D53",
"{ 	c #DA5257",
"] 	c #D9575C",
"^ 	c #CE5D62",
"/ 	c #D92E36",
"( 	c #DD1F27",
"_ 	c #E11D27",
": 	c #E21821",
"< 	c #DB353B",
"[ 	c #DF4D54",
"} 	c #DE4E54",
"| 	c #E15155",
"1 	c #E15459",
"2 	c #D9595D",
"3 	c #D52D36",
"4 	c #DA1D27",
"5 	c #DF1E26",
"6 	c #E5171F",
"7 	c #DD3338",
"8 	c #E64D55",
"9 	c #DF4B53",
"0 	c #E14E55",
"a 	c #E05157",
"b 	c #D9555C",
"c 	c #D02C34",
"d 	c #D71F26",
"e 	c #DC1E24",
"f 	c #E21720",
"g 	c #D83433",
"h 	c #E84851",
"i 	c #DD4950",
"j 	c #E04B4F",
"k 	c #DF4E51",
"l 	c #DC5458",
"m 	c #D02B34",
"n 	c #D61F25",
"o 	c #DA1E24",
"p 	c #E11720",
"q 	c #D63131",
"r 	c #E3454D",
"s 	c #DD454D",
"t 	c #DF484D",
"u 	c #DF4B50",
"v 	c #D44A4F",
"w 	c #CA393D",
"x 	c #D03F46",
"y 	c #C9464F",
"z 	c #C45153",
"A 	c #C2595A",
"B 	c #CD2C32",
"C 	c #D21E24",
"D 	c #D51D23",
"E 	c #DA1822",
"F 	c #DF2B30",
"G 	c #D94347",
"H 	c #DF4147",
"I 	c #E3444B",
"J 	c #E6484E",
"K 	c #D93E46",
"L 	c #CB3337",
"M 	c #CF3C40",
"N 	c #D5434B",
"O 	c #D94C50",
"P 	c #D55158",
"Q 	c #CA535A",
"R 	c #8D5D62",
"S 	c #BD2E38",
"T 	c #BB2D30",
"U 	c #C4292E",
"V 	c #CA2428",
"W 	c #D0252B",
"X 	c #D11D24",
"Y 	c #D41C24",
"Z 	c #D4161F",
"` 	c #D42A2D",
" .	c #DC3F46",
"..	c #E03D45",
"+.	c #E14147",
"@.	c #E24449",
"#.	c #DC4046",
"$.	c #D63D41",
"%.	c #DB4448",
"&.	c #E0494E",
"*.	c #E24C52",
"=.	c #E35057",
"-.	c #D35357",
";.	c #B1454D",
">.	c #BB222C",
",.	c #C41E25",
"'.	c #C61D22",
").	c #CD1F26",
"!.	c #CE1B23",
"~.	c #CF1C23",
"{.	c #D21F27",
"].	c #D12229",
"^.	c #D52E33",
"/.	c #DC383F",
"(.	c #DD3A43",
"_.	c #DD3C44",
":.	c #DE3F45",
"<.	c #DF4247",
"[.	c #E0444A",
"}.	c #E4464E",
"|.	c #E5494F",
"1.	c #E54B51",
"2.	c #E54E54",
"3.	c #D85156",
"4.	c #C42831",
"5.	c #CD1D24",
"6.	c #CC1F22",
"7.	c #C71C21",
"8.	c #C51B21",
"9.	c #C91D23",
"0.	c #CD2126",
"a.	c #D1252B",
"b.	c #D1292D",
"c.	c #D42C31",
"d.	c #D83035",
"e.	c #DA3436",
"f.	c #D9363E",
"g.	c #D9393F",
"h.	c #DC3C40",
"i.	c #DE3E44",
"j.	c #DE4346",
"k.	c #E34449",
"l.	c #E6454D",
"m.	c #E2494E",
"n.	c #E14C50",
"o.	c #D74E52",
"p.	c #C91C26",
"q.	c #CE1E24",
"r.	c #D11F24",
"s.	c #CF1F24",
"t.	c #C71A1F",
"u.	c #CB191F",
"v.	c #CE1F24",
"w.	c #CF2128",
"x.	c #D1252A",
"y.	c #D3272D",
"z.	c #D32B30",
"A.	c #D42D34",
"B.	c #D8333A",
"C.	c #D8343C",
"D.	c #D9373D",
"E.	c #DB3A41",
"F.	c #DA3C42",
"G.	c #DC3F47",
"H.	c #E04149",
"I.	c #E0444B",
"J.	c #DF484E",
"K.	c #D74C52",
"L.	c #C81D26",
"M.	c #D01F24",
"N.	c #CF1C24",
"O.	c #C7181E",
"P.	c #C4151C",
"Q.	c #C8181F",
"R.	c #CC1B22",
"S.	c #CD1E26",
"T.	c #D02329",
"U.	c #D2262D",
"V.	c #D12A2E",
"W.	c #D22C32",
"X.	c #D33035",
"Y.	c #D33339",
"Z.	c #D5353D",
"`.	c #D5393F",
" +	c #D53C42",
".+	c #D63F45",
"++	c #D84147",
"@+	c #DB454C",
"#+	c #D34A56",
"$+	c #C91C27",
"%+	c #CF1D23",
"&+	c #CF1E23",
"*+	c #CF1D24",
"=+	c #C6191F",
"-+	c #C2141C",
";+	c #C3151C",
">+	c #C6161D",
",+	c #C91820",
"'+	c #CD1C24",
")+	c #CF2228",
"!+	c #CB2429",
"~+	c #CA282B",
"{+	c #CD2A2F",
"]+	c #CD2E33",
"^+	c #CB323A",
"/+	c #C53A41",
"(+	c #CD3F44",
"_+	c #D14145",
":+	c #C84348",
"<+	c #CB4B4C",
"[+	c #C32029",
"}+	c #CA1E24",
"|+	c #CA1D22",
"1+	c #CA1D23",
"2+	c #C31017",
"3+	c #BD0B13",
"4+	c #BA1218",
"5+	c #BC141A",
"6+	c #C1141C",
"7+	c #C1181F",
"8+	c #C61B24",
"9+	c #C91E25",
"0+	c #C52327",
"a+	c #CB252A",
"b+	c #CB2A2E",
"c+	c #C33038",
"d+	c #A54B51",
"e+	c #BD4D4D",
"f+	c #AC3137",
"g+	c #B6393E",
"h+	c #C42F35",
"i+	c #C4212A",
"j+	c #B82E2D",
"k+	c #AF2E29",
"l+	c #AF1A20",
"m+	c #AC1C1F",
"n+	c #AA1E23",
"o+	c #A22327",
"p+	c #B31D26",
"q+	c #C8181E",
"r+	c #C21D22",
"s+	c #C82025",
"t+	c #C82529",
"u+	c #C12D35",
"v+	c #BB4051",
"w+	c #959079",
"x+	c #8C9879",
"y+	c #A2333B",
"z+	c #A1262B",
"A+	c #A02629",
"B+	c #9B292C",
"C+	c #AE1B24",
"D+	c #C41119",
"E+	c #BB171C",
"F+	c #C11B20",
"G+	c #C32025",
"H+	c #BD2A30",
"I+	c #A03037",
"J+	c #A0282E",
"K+	c #A2252A",
"L+	c #9B262C",
"M+	c #AB1A21",
"N+	c #BD0F17",
"O+	c #B71419",
"P+	c #BC151C",
"Q+	c #BF1A20",
"R+	c #BC272E",
"S+	c #9F3336",
"T+	c #9F272C",
"U+	c #A1252B",
"V+	c #9D282D",
"W+	c #A91A20",
"X+	c #BC1117",
"Y+	c #B51319",
"Z+	c #BA1319",
"`+	c #BC161C",
" @	c #BB242A",
".@	c #9D292E",
"+@	c #9D2429",
"@@	c #9D2428",
"#@	c #982729",
"$@	c #A41A20",
"%@	c #BC0E15",
"&@	c #B51217",
"*@	c #B90F16",
"=@	c #B71017",
"-@	c #B6222A",
";@	c #964247",
">@	c #923134",
",@	c #962A2E",
"'@	c #92292B",
")@	c #9D1A20",
"!@	c #AF1217",
"~@	c #AA1B1E",
"{@	c #A71F23",
"]@	c #9F2F31",
"^@	c #AC4043",
"/@	c #94383A",
"(@	c #8C3131",
"_@	c #931A22",
":@	c #9A302D",
"<@	c #9F282D",
"[@	c #933434",
"                                            ",
"            . + @ # $ % & * = -             ",
"            ; > , ' ) ! ~ { ] ^             ",
"            / ( _ : < [ } | 1 2             ",
"            3 4 5 6 7 8 9 0 a b             ",
"            c d e f g h i j k l             ",
"            m n o p q r s t u v w x y z A   ",
"            B C D E F G H I J K L M N O P Q ",
"  R S T U V W X Y Z `  ...+.@.#.$.%.&.*.=.-.",
";.>.,.'.).!.~.X {.].^./.(._.:.<.[.}.|.1.2.3.",
"4.5.6.7.8.9.0.a.b.c.d.e.f.g.h.i.j.k.l.m.n.o.",
"p.q.r.s.t.u.v.w.x.y.z.A.B.C.D.E.F.G.H.I.J.K.",
"L.q.M.N.O.P.Q.R.S.T.U.V.W.X.Y.Z.`. +.+++@+#+",
"$+%+&+*+=+-+;+>+,+'+)+!+~+{+]+^+/+(+_+:+<+  ",
"[+}+|+1+2+3+4+5+6+7+8+9+0+a+b+c+d+e+        ",
"f+g+h+i+j+k+l+m+n+o+p+q+r+s+t+u+            ",
"      v+w+x+y+z+A+B+C+D+E+F+G+H+            ",
"            I+J+K+L+M+N+O+P+Q+R+            ",
"            S+T+U+V+W+X+Y+Z+`+ @            ",
"            .@+@@@#@$@%@&@*@=@-@            ",
"            ;@>@,@'@)@!@~@{@]@^@            ",
"                /@(@_@:@<@[@                "};
