/* XPM */
static char * geda_man_32x32_xpm[] = {
"32 32 398 2",
"  	c None",
". 	c #B5B9BC",
"+ 	c #BBBEC2",
"@ 	c #A3A8AC",
"# 	c #94989D",
"$ 	c #A5A8AA",
"% 	c #D1D5D9",
"& 	c #CAD1D6",
"* 	c #A0A6AC",
"= 	c #848C94",
"- 	c #7C858C",
"; 	c #6E777D",
"> 	c #BABDC0",
", 	c #CCD2D8",
"' 	c #888F97",
") 	c #7F8890",
"! 	c #6F7880",
"~ 	c #616973",
"{ 	c #575F69",
"] 	c #4D555D",
"^ 	c #646A71",
"/ 	c #C4C9D2",
"( 	c #C9CDD4",
"_ 	c #686D76",
": 	c #585E69",
"< 	c #393F49",
"[ 	c #434953",
"} 	c #454C56",
"| 	c #49505A",
"1 	c #949BA2",
"2 	c #7B828C",
"3 	c #535A62",
"4 	c #636870",
"5 	c #606776",
"6 	c #333A4A",
"7 	c #262833",
"8 	c #252631",
"9 	c #1A1C28",
"0 	c #2D2E3B",
"a 	c #424953",
"b 	c #878E98",
"c 	c #899198",
"d 	c #4C5463",
"e 	c #3A434D",
"f 	c #2D2E31",
"g 	c #0E0F17",
"h 	c #10151F",
"i 	c #151A25",
"j 	c #252C35",
"k 	c #283039",
"l 	c #353D46",
"m 	c #3A3B43",
"n 	c #ACB2B8",
"o 	c #616D76",
"p 	c #48515B",
"q 	c #343E48",
"r 	c #AB9988",
"s 	c #9E8779",
"t 	c #8B7665",
"u 	c #78655B",
"v 	c #5B4D47",
"w 	c #5A4B45",
"x 	c #7E7670",
"y 	c #737D88",
"z 	c #5A626D",
"A 	c #3D4751",
"B 	c #3A444D",
"C 	c #D4C9BA",
"D 	c #E3DAD3",
"E 	c #E2D8D0",
"F 	c #C5BAAE",
"G 	c #B4A696",
"H 	c #B4A593",
"I 	c #8D7F6D",
"J 	c #515B6C",
"K 	c #464D55",
"L 	c #37414D",
"M 	c #47515A",
"N 	c #D1C4B5",
"O 	c #E4DAD1",
"P 	c #E7DDD3",
"Q 	c #DED5CA",
"R 	c #D7CBBC",
"S 	c #C6B7A6",
"T 	c #908376",
"U 	c #3C3F44",
"V 	c #7C7B74",
"W 	c #1E2631",
"X 	c #394048",
"Y 	c #C9BDAD",
"Z 	c #DDD3CA",
"` 	c #DFD4CC",
" .	c #D9CFC4",
"..	c #D4C7B8",
"+.	c #CBBAAA",
"@.	c #AA9F87",
"#.	c #766D68",
"$.	c #918070",
"%.	c #00000B",
"&.	c #C3BAAB",
"*.	c #D7CDBF",
"=.	c #D7CCBF",
"-.	c #D4C9BB",
";.	c #CFC1B1",
">.	c #C0B09E",
",.	c #AA937C",
"'.	c #AF9D86",
").	c #625A52",
"!.	c #090B0D",
"~.	c #BDB3A5",
"{.	c #CDBFB0",
"].	c #CEC0B0",
"^.	c #CCBEAD",
"/.	c #CAB9A7",
"(.	c #B6A28D",
"_.	c #A69179",
":.	c #AA9781",
"<.	c #50443F",
"[.	c #39363D",
"}.	c #BEAD97",
"|.	c #C5B7A4",
"1.	c #C5B4A2",
"2.	c #C3B29F",
"3.	c #A7917B",
"4.	c #A48D73",
"5.	c #9F8C74",
"6.	c #A0927E",
"7.	c #B9AC9A",
"8.	c #BEAD99",
"9.	c #BAAB99",
"0.	c #B5A38F",
"a.	c #9D8670",
"b.	c #9E886F",
"c.	c #95826B",
"d.	c #B29F88",
"e.	c #ACA199",
"f.	c #B99F89",
"g.	c #B3A191",
"h.	c #A08A73",
"i.	c #91775D",
"j.	c #816E57",
"k.	c #C1B19D",
"l.	c #B0A290",
"m.	c #A19FA3",
"n.	c #5E6370",
"o.	c #3B444F",
"p.	c #7F7975",
"q.	c #9F8B79",
"r.	c #694D31",
"s.	c #816C55",
"t.	c #C3AF9D",
"u.	c #B6AA9F",
"v.	c #CCC9C6",
"w.	c #B9BABE",
"x.	c #2F3741",
"y.	c #5B6064",
"z.	c #5E676F",
"A.	c #656E77",
"B.	c #565E6C",
"C.	c #45565E",
"D.	c #A4ABAC",
"E.	c #BFB7AA",
"F.	c #B5A28F",
"G.	c #BAAEA1",
"H.	c #B8A99B",
"I.	c #DBD9D5",
"J.	c #C4C6C8",
"K.	c #CBCDD0",
"L.	c #444C55",
"M.	c #333B46",
"N.	c #383C44",
"O.	c #7C868E",
"P.	c #6E7780",
"Q.	c #535B67",
"R.	c #959AA3",
"S.	c #A6A5B3",
"T.	c #E3E1DE",
"U.	c #B4AA9E",
"V.	c #D1CDC6",
"W.	c #E0E3E5",
"X.	c #DBDBDA",
"Y.	c #D6D6D5",
"Z.	c #989CA0",
"`.	c #4C5562",
" +	c #1A232F",
".+	c #282E39",
"++	c #515760",
"@+	c #6C7279",
"#+	c #8B949E",
"$+	c #6D7781",
"%+	c #626C76",
"&+	c #909CA2",
"*+	c #E3E3E4",
"=+	c #CACCCF",
"-+	c #656B71",
";+	c #768089",
">+	c #606A74",
",+	c #212A35",
"'+	c #2E3741",
")+	c #2A333E",
"!+	c #323B45",
"~+	c #7A7E86",
"{+	c #6B757F",
"]+	c #515B65",
"^+	c #58626D",
"/+	c #5F6772",
"(+	c #C7C2BE",
"_+	c #3477A7",
":+	c #587087",
"<+	c #656D75",
"[+	c #9EA3AE",
"}+	c #737B89",
"|+	c #6F7983",
"1+	c #3B444E",
"2+	c #555F69",
"3+	c #4B545E",
"4+	c #222C36",
"5+	c #363535",
"6+	c #6E757D",
"7+	c #59636E",
"8+	c #47505B",
"9+	c #3A3D44",
"0+	c #ACB1B8",
"a+	c #308DC5",
"b+	c #6F7E98",
"c+	c #ABB6B3",
"d+	c #62666E",
"e+	c #9FA6B0",
"f+	c #8C96A0",
"g+	c #87909A",
"h+	c #68717C",
"i+	c #5C656E",
"j+	c #666F79",
"k+	c #202933",
"l+	c #141E28",
"m+	c #38444E",
"n+	c #444B53",
"o+	c #303A45",
"p+	c #2C353F",
"q+	c #313B44",
"r+	c #192228",
"s+	c #9BD7E3",
"t+	c #1DA5EC",
"u+	c #586891",
"v+	c #626A70",
"w+	c #808892",
"x+	c #67707A",
"y+	c #727B85",
"z+	c #6B747E",
"A+	c #454D58",
"B+	c #646D78",
"C+	c #3C444F",
"D+	c #2A343E",
"E+	c #18222C",
"F+	c #2F3A42",
"G+	c #2B353E",
"H+	c #252F39",
"I+	c #2D3741",
"J+	c #292330",
"K+	c #53ADDB",
"L+	c #277FB8",
"M+	c #7788A1",
"N+	c #4D5057",
"O+	c #505A63",
"P+	c #353F4A",
"Q+	c #4A535F",
"R+	c #3A444E",
"S+	c #313943",
"T+	c #454F59",
"U+	c #353E48",
"V+	c #1B242E",
"W+	c #18222B",
"X+	c #25323C",
"Y+	c #1F2832",
"Z+	c #232D37",
"`+	c #2B343F",
" @	c #222933",
".@	c #2875A4",
"+@	c #225286",
"@@	c #505D71",
"#@	c #424951",
"$@	c #2D3641",
"%@	c #2D3740",
"&@	c #181F2A",
"*@	c #2B343E",
"=@	c #39434D",
"-@	c #525B65",
";@	c #27313B",
">@	c #1D2631",
",@	c #1E2932",
"'@	c #1D252F",
")@	c #26303A",
"!@	c #202731",
"~@	c #224977",
"{@	c #28385D",
"]@	c #3D4756",
"^@	c #334047",
"/@	c #303944",
"(@	c #161E29",
"_@	c #2B353F",
":@	c #313A44",
"<@	c #242E38",
"[@	c #4B555E",
"}@	c #3E4751",
"|@	c #242D37",
"1@	c #212A34",
"2@	c #222D37",
"3@	c #4F5458",
"4@	c #5F6568",
"5@	c #1E2830",
"6@	c #1C2631",
"7@	c #29323C",
"8@	c #242E39",
"9@	c #232F34",
"0@	c #202A55",
"a@	c #374550",
"b@	c #3B454F",
"c@	c #2C3640",
"d@	c #1D2731",
"e@	c #353F49",
"f@	c #2A333D",
"g@	c #212B35",
"h@	c #464F59",
"i@	c #37414B",
"j@	c #29333D",
"k@	c #242E37",
"l@	c #243039",
"m@	c #1D2932",
"n@	c #7C7F86",
"o@	c #181D29",
"p@	c #1F2735",
"q@	c #202A34",
"r@	c #31383F",
"s@	c #1D2542",
"t@	c #404C55",
"u@	c #2E3842",
"v@	c #38424B",
"w@	c #2C3540",
"x@	c #2A343D",
"y@	c #3B434E",
"z@	c #303943",
"A@	c #28323C",
"B@	c #38434B",
"C@	c #3E444B",
"D@	c #26313B",
"E@	c #1E2B36",
"F@	c #2D343E",
"G@	c #313948",
"H@	c #29343C",
"I@	c #2F3842",
"J@	c #434C56",
"K@	c #27303A",
"L@	c #1B242F",
"M@	c #38424C",
"N@	c #37424B",
"O@	c #2D3640",
"P@	c #212B33",
"Q@	c #878C90",
"R@	c #1E282F",
"S@	c #1D2934",
"T@	c #343D47",
"U@	c #36404A",
"V@	c #333C46",
"W@	c #1C2530",
"X@	c #313A45",
"Y@	c #2E3942",
"Z@	c #152028",
"`@	c #C5C3C3",
" #	c #DEDEDE",
".#	c #4F5459",
"+#	c #151E29",
"@#	c #252E39",
"##	c #2E3641",
"$#	c #2F3742",
"%#	c #2F3843",
"&#	c #202934",
"*#	c #263039",
"=#	c #3C454F",
"-#	c #364049",
";#	c #2E3A44",
">#	c #444E58",
",#	c #BCBBBA",
"'#	c #A8AEB3",
")#	c #676C70",
"!#	c #565D64",
"~#	c #222D36",
"{#	c #25313A",
"]#	c #1E2630",
"^#	c #202B33",
"/#	c #232D36",
"(#	c #2E3841",
"_#	c #535E67",
":#	c #6A6A6B",
"<#	c #7D8388",
"[#	c #7D8387",
"}#	c #7C8085",
"|#	c #7F8187",
"1#	c #7C8086",
"                          . + @ #                               ",
"                      $ % & * = - ;                             ",
"                    > , ' ) ! ~ { ] ^                           ",
"                  / ( _ : < [ } | 1 2 3                         ",
"                4 5 6 7 8 9 0 a b c d e                         ",
"                f g h i j k l m n o p q                         ",
"                  r s t u v w x y z A B                         ",
"                  C D E F G H I J K L M                         ",
"                  N O P Q R S T U V W X                         ",
"                  Y Z `  ...+.@.#.$.%.                          ",
"                  &.*.=.-.;.>.,.'.).!.                          ",
"                  ~.{.].^./.(._.:.<.[.                          ",
"                    }.|.1.2.3.4.5.6.                            ",
"                    7.8.9.0.a.b.c.d.e.                          ",
"                      f.g.h.i.j.k.l.m.n.                        ",
"                    o.p.q.r.s.t.u.v.w.x.y.                      ",
"              z.A.B.C.D.E.F.G.H.I.J.K.L.M.N.                    ",
"              O.P.Q.R.S.T.U.V.W.X.Y.Z.z.`. +.+++                ",
"            @+#+$+%+&+          *+=+-+;+>+,+'+)+!+              ",
"            ~+{+]+^+/+(+_+:+      <+[+}+|+1+2+3+4+5+            ",
"            6+7+!+8+9+0+a+b+c+  d+e+f+g+h+i+j+k+l+m+            ",
"            n+o+p+q+r+s+t+u+  v+w+x+y+z+A+B+C+D+E+F+            ",
"            G+4+H+I+J+K+L+M+N+O+P+Q+R+S+3+M T+U+V+W+            ",
"            X+Y+Z+`+ @.@+@@@#@$@%@&@*@=@*@p -@;@>@,@            ",
"            X+'@)@;@!@~@{@]@^@/@(@_@q :@<@[@}@|@1@2@3@          ",
"          4@5@6@7@8@9@0@a@b@c@d@*@:@e@f@g@h@i@j@k@l@m@          ",
"          n@o@p@j@q@r@s@t@f@_@u@q v@w@x@>@}@y@z@A@;@B@          ",
"              C@D@E@F@G@H@I@3+J@R+/@p+K@L@M@N@e@O@D+P@          ",
"              Q@R@S@|@A@_@I@T@U@V@/@I@k+W@$@i@=@X@Y@Z@`@ #      ",
"                  .#+#@#)+I@/@/@##$#%#&#&#*#T@=#-#;#>#,#        ",
"                    '#)#!#H@~#{#D+*@7@]#^#/#(#v@_#:#            ",
"                              <#[#}#|#1#                        "};
