/* XPM */
static char *geda_display_color_32x32[] = {
/* columns rows colors chars-per-pixel */
"32 32 175 2 ",
"   c #0270015F02DD",
".  c #0636001609BB",
"X  c #090E00150D0D",
"o  c #0DE00DE00DE0",
"O  c #0BEA03CD13C2",
"+  c #0F150C0214FA",
"@  c #0F3F0B281C8D",
"#  c #0823154816B0",
"$  c #0230166919B8",
"%  c #038D18F31D03",
"&  c #1B281B071AF7",
"*  c #31D403470C8E",
"=  c #1FC51F951F81",
"-  c #38BC154C199A",
";  c #36DD19471DA8",
":  c #01CA2ED90309",
">  c #0000358A0B51",
",  c #05971D4521F5",
"<  c #0D301F37247F",
"1  c #136911122417",
"2  c #15D21EEB23F6",
"3  c #1C6A1F4326E3",
"4  c #15D31D492A2D",
"5  c #06EA21DF278A",
"6  c #099224372A8F",
"7  c #0BA927AA2E9E",
"8  c #18A421CF2771",
"9  c #1E9E251C2CD3",
"0  c #1075372D2F42",
"q  c #0DBF2BD6338A",
"w  c #17502E043732",
"e  c #1753313D31C3",
"r  c #14343A9C3497",
"t  c #15ED3E5F387C",
"y  c #237323472333",
"u  c #2BA62BB12B65",
"i  c #39E02400227F",
"p  c #30F62E4B2E82",
"a  c #2EF7322B2F15",
"s  c #30542FE12FA1",
"d  c #22AF2B38341F",
"f  c #268D31683B9A",
"g  c #330F3325324E",
"h  c #3890362A3657",
"j  c #350C389C35B2",
"k  c #3C013C1B3B21",
"l  c #5B9504480C1D",
"z  c #5C4309740E4B",
"x  c #5A64162006F0",
"c  c #54E516CC0B62",
"v  c #55B6186F0D3C",
"b  c #5C47181F0B09",
"n  c #5F1D0E98135E",
"m  c #631C034F0984",
"M  c #65B20B130E94",
"N  c #60CE01A91315",
"B  c #6BB8040E16AD",
"V  c #64070EB91347",
"C  c #61FF10DE15E8",
"Z  c #620412F117D8",
"A  c #6C74149E1928",
"S  c #41083E173E29",
"D  c #009A572E00B3",
"F  c #01B659BF0259",
"G  c #0C895F390A48",
"H  c #0D4E44DA1EB7",
"J  c #10D241AA1A46",
"K  c #022F61F80347",
"L  c #025662CA0B47",
"P  c #0B7B636A0A71",
"I  c #0000669E11CE",
"U  c #09076E101175",
"Y  c #000071DD1617",
"T  c #184642083CF3",
"R  c #3D8F411C3DD2",
"E  c #291034DA3FE0",
"W  c #2C623A3F4640",
"Q  c #26B53E8649E3",
"!  c #2B223E364A8C",
"~  c #43E91B7154F9",
"^  c #41663E93431C",
"/  c #7D6C10E47DFC",
"(  c #46ED261E6180",
")  c #57EF2FC46E0A",
"_  c #54AC34DC716D",
"`  c #0B9243ED49FD",
"'  c #1B1446EF42CD",
"]  c #1C13481D43E5",
"[  c #11B641674F86",
"{  c #2029440846E1",
"}  c #228F45B94975",
"|  c #3E28416F41AC",
" . c #09C35A026EF3",
".. c #0A4E5F627598",
"X. c #1FD85EAB69A6",
"o. c #00006E4666C6",
"O. c #188060496379",
"+. c #015B73FC6C28",
"@. c #0C425FEA77EF",
"#. c #0CA46D10747E",
"$. c #0F676FE778C3",
"%. c #04427D95767A",
"&. c #12D773BF7D07",
"*. c #428242E2446B",
"=. c #457645EC48B6",
"-. c #4636480748E9",
";. c #48E349054917",
":. c #4E344F4050CC",
">. c #4EA552715364",
",. c #53D553AD5637",
"<. c #5537563558EF",
"1. c #593756E25B65",
"2. c #56335A845B75",
"3. c #5B195C025DFC",
"4. c #5E315B9C605D",
"5. c #6B8F6B946B95",
"6. c #7A417A417A41",
"7. c #C7A601700000",
"8. c #CD13005B005A",
"9. c #D3A500950089",
"0. c #DC28000F0000",
"q. c #E45700000000",
"w. c #E97D00000000",
"e. c #0065CD0C0032",
"r. c #0075D4C4005E",
"t. c #000BD8A10011",
"y. c #0000E6F50000",
"u. c #0000EAF10000",
"i. c #6CCF1980858F",
"p. c #73EF17488D74",
"a. c #757919638F4B",
"s. c #7D1C1DCD8B1A",
"d. c #7FD322DE9097",
"f. c #142976A08090",
"g. c #133D79EA840B",
"h. c #84E80C84802C",
"j. c #80B015CA83D4",
"k. c #84FD1A918E85",
"l. c #8AF818678DBD",
"z. c #800E20478F30",
"x. c #81E3232592D7",
"c. c #89362167990A",
"v. c #D6E501F2F633",
"b. c #DA6800F9FA40",
"n. c #E70D0062F260",
"m. c #EB96001BF3E8",
"M. c #EDD20000FFF4",
"N. c #F3400000FEEF",
"B. c #FC3B0000FD79",
"V. c #0109A6A0C6C3",
"C. c #008EA91CCA67",
"Z. c #002AB271C6B7",
"A. c #006AB568C964",
"S. c #0036BA4DCE10",
"D. c #0000AAAAE4B5",
"F. c #00E1C17DD299",
"G. c #84AB84AB84AB",
"H. c #88F388F388F3",
"J. c #96B5969C9691",
"K. c #9CFD9CE99CE1",
"L. c #A01FA024A027",
"P. c #A2CAA2D4A2D8",
"I. c #AC53AC64AC6C",
"U. c #B362B375B37E",
"Y. c #BD34BD35BD36",
"T. c #C481C469C45B",
"R. c #C8A2C81AC7D3",
"E. c #C8F9C872C82B",
"W. c #CA72CA06C9CE",
"Q. c #D50ED50ED50E",
"!. c #DCC4DCC4DCC4",
"~. c #E313E313E313",
"^. c #EAE4EAE4EAE4",
"/. c #FE38FE38FE38",
"(. c None",
/* pixels */
"(.(.(.(.(.(.(.(.(.(.(.(.(.(.(.(.(.(.(.(.(.(.(.(.(.(.(.(.(.(.(.(.",
"(.!.W.T.W.W.E.E.W.W.W.W.W.W.W.W.W.W.W.W.E.E.W.E.E.E.E.T.T.W.!.(.",
"(.T.k ;.:.:.>.<.<.<.1.3.3.3.3.4.4.4.3.4.3.1.1.<.,.,.:.:.;.k Y.(.",
"(.U.s =.Q Q W W W W W W W W ! } } ] ] ] ] ' ' ' ] ' { Q ;.g U.(.",
"(.U.a -.! X.g.f.f.f.f.f.f.f.f.O.) c.d.x.x.x.x.x.x.c._ { =.g U.(.",
"(.U.a | f g.S.Z.Z.Z.Z.Z.Z.Z.S.%.l.B.n.m.m.m.m.m.n.B.c.' =.s U.(.",
"(.U.s =.f $.Z.V.C.C.C.C.C.V.C.%.j.n.v.b.b.b.b.b.v.n.x.' *.s U.(.",
"(.I.u =.d $.Z.C.D.D.D.D.D.C.Z.+.j.m.b.M.M.M.M.M.b.m.x.t *.s I.(.",
"(.I.u | d #.Z.C.D.D.D.D.D.C.Z.+./ m.b.M.M.N.M.M.b.m.s.t *.u I.(.",
"(.I.u | 9 #.Z.V.C.C.C.C.C.V.Z.o./ m.b.b.b.b.b.b.v.n.s.r ^ u I.(.",
"(.I.y | 3 #.F.A.A.A.A.A.A.A.F.+.h.B.m.m.m.m.m.m.n.B.k.0 ^ y I.(.",
"(.I.u | 8 [ .. . . . . . . ...` ~ p.i.i.i.i.i.i.i.a.( e ^ u I.(.",
"(.I.h -.4 J P G P G G G G G P H ; x c c v c v v v b i w *.u P.(.",
"(.P.y R 1 U r.e.e.e.e.e.e.e.r.Y B 0.8.8.9.8.8.8.8.0.A q h y P.(.",
"(.P.= j 1 P e.e.r.r.r.r.r.e.e.I N 7.8.9.9.9.8.9.8.7.C q h y P.(.",
"(.P.& j @ L e.r.y.u.y.y.y.r.e.I N 8.8.0.q.q.q.0.8.8.C 7 h = P.(.",
"(.L.& g O L e.r.u.u.u.u.y.r.e.I N 8.8.0.w.w.w.0.8.8.C 6 g = P.(.",
"(.P.& a O F e.e.t.t.t.t.t.e.e.L l 7.8.0.9.9.9.0.8.7.n 6 g & P.(.",
"(.L.& a X K t.e.r.e.e.e.e.e.t.L m 9.8.8.8.8.9.8.8.9.V 5 p & K.(.",
"(.L.& s . : K F F F F F F F K > * l l l l l z z z M - < s & P.(.",
"(.L.& a     . . . . . X X O O + # $ $ % % % % , , , < 2 s & K.(.",
"(.P.& y u u a a a j j h k k R R S S S k k h h g s s s u y & P.(.",
"(.T.P.K.K.K.K.K.K.K.K.K.K.K.J.J.J.J.J.K.K.K.K.K.K.K.K.K.K.P.T.(.",
"(.(.(.(.(.(.(.(.(.(.(.(.(.5.U.U.U.U.5.(.(.(.(.(.(.(.(.(.(.(.(.(.",
"(.(.(.(.(.(.(.(.(.(.(.(.5.U.!.W.T.U.G.<.(.(.(.(.(.(.(.(.(.(.(.(.",
"(.(.(.(.(.(.(.(.(.P.Y.Y.W.T.I.U.I.P.U.T.Y.Y.P.(.(.(.(.(.(.(.(.(.",
"(.(.(.(.(.(.(.(.T.~.~.~.~.!.Q.Q.Q.Q.!.~.~.~.~.T.(.(.(.(.(.(.(.(.",
"(.(.(.(.(.(.(.6./.!.!.!.~.~.Q.!.!.!.~.!.!.!.!./.6.(.(.(.(.(.(.(.",
"(.(.(.(.(.(.(.o 6.!.^.^.~.!.Q.Q.Q.Q.!.~.^.^.!.6.o (.(.(.(.(.(.(.",
"(.(.(.(.(.(.(.(.  y 3.H.I.T.!.~.~.!.T.I.H.1.y   (.(.(.(.(.(.(.(.",
"(.(.(.(.(.(.(.(.(.(.(.    o & u u & o     (.(.(.(.(.(.(.(.(.(.(.",
"(.(.(.(.(.(.(.(.(.(.(.(.(.(.(.(.(.(.(.(.(.(.(.(.(.(.(.(.(.(.(.(."
};
