/* XPM */
static char * geda_find_22x22_xpm[] = {
"22 22 304 2",
"  	c None",
". 	c #342F2A",
"+ 	c #282C2A",
"@ 	c #35322F",
"# 	c #282F2E",
"$ 	c #1F2C2E",
"% 	c #2C241E",
"& 	c #2D2A26",
"* 	c #1F2D31",
"= 	c #102328",
"- 	c #1F2E32",
"; 	c #26231C",
"> 	c #332D26",
", 	c #192729",
"' 	c #172A2F",
") 	c #213131",
"! 	c #2B251E",
"~ 	c #2F2620",
"{ 	c #322C28",
"] 	c #223136",
"^ 	c #132831",
"/ 	c #132024",
"( 	c #252B2C",
"_ 	c #2F2720",
": 	c #39332C",
"< 	c #1A262A",
"[ 	c #162426",
"} 	c #1A2D31",
"| 	c #27251E",
"1 	c #2B271D",
"2 	c #2D2821",
"3 	c #212725",
"4 	c #152123",
"5 	c #171914",
"6 	c #202C2C",
"7 	c #101617",
"8 	c #161B1B",
"9 	c #26221B",
"0 	c #141A18",
"a 	c #141E1F",
"b 	c #1B2A2E",
"c 	c #39312A",
"d 	c #2B2F31",
"e 	c #2A2F32",
"f 	c #2A2A26",
"g 	c #181511",
"h 	c #17120B",
"i 	c #1C2F38",
"j 	c #071B21",
"k 	c #0A1213",
"l 	c #1A1B13",
"m 	c #1B1C15",
"n 	c #1D2424",
"o 	c #1C2427",
"p 	c #101D24",
"q 	c #172429",
"r 	c #2B221E",
"s 	c #2A221B",
"t 	c #372E26",
"u 	c #161E22",
"v 	c #0F1E26",
"w 	c #142123",
"x 	c #11120F",
"y 	c #231C13",
"z 	c #30302A",
"A 	c #0F2936",
"B 	c #070806",
"C 	c #171814",
"D 	c #211D16",
"E 	c #2A2319",
"F 	c #161B19",
"G 	c #0A1415",
"H 	c #0B1213",
"I 	c #1D292A",
"J 	c #221C17",
"K 	c #221E18",
"L 	c #352E26",
"M 	c #1A2022",
"N 	c #141818",
"O 	c #352D24",
"P 	c #584333",
"Q 	c #342D20",
"R 	c #2B2216",
"S 	c #0F212A",
"T 	c #091112",
"U 	c #0E0F0D",
"V 	c #262119",
"W 	c #383126",
"X 	c #1E282A",
"Y 	c #111E21",
"Z 	c #0E191B",
"` 	c #17272B",
" .	c #26211B",
"..	c #2F2721",
"+.	c #3F352B",
"@.	c #20292F",
"#.	c #182227",
"$.	c #171613",
"%.	c #29221C",
"&.	c #312A20",
"*.	c #282726",
"=.	c #14262E",
"-.	c #071011",
";.	c #0F0F0B",
">.	c #2A231D",
",.	c #302A24",
"'.	c #1E262A",
").	c #141F22",
"!.	c #141E20",
"~.	c #1A2C31",
"{.	c #43372C",
"].	c #262019",
"^.	c #342925",
"/.	c #3C3029",
"(.	c #1D282B",
"_.	c #17252A",
":.	c #0B0F0E",
"<.	c #1B1813",
"[.	c #302722",
"}.	c #2D2D2B",
"|.	c #15292F",
"1.	c #071215",
"2.	c #0E0E0A",
"3.	c #27231D",
"4.	c #2D2823",
"5.	c #1F2629",
"6.	c #151E1E",
"7.	c #19292E",
"8.	c #342B21",
"9.	c #28211B",
"0.	c #382D23",
"a.	c #3F3129",
"b.	c #1D262A",
"c.	c #162329",
"d.	c #0F1210",
"e.	c #1F1B16",
"f.	c #352C22",
"g.	c #272927",
"h.	c #12212A",
"i.	c #061014",
"j.	c #0D0E09",
"k.	c #27231B",
"l.	c #202323",
"m.	c #121B1E",
"n.	c #151D1E",
"o.	c #152428",
"p.	c #312823",
"q.	c #302822",
"r.	c #392D24",
"s.	c #3A2F23",
"t.	c #1A2326",
"u.	c #101F26",
"v.	c #010406",
"w.	c #000000",
"x.	c #0E0B0A",
"y.	c #181514",
"z.	c #091010",
"A.	c #09100F",
"B.	c #161716",
"C.	c #27211B",
"D.	c #362F25",
"E.	c #1E2426",
"F.	c #0E1B1A",
"G.	c #111D1D",
"H.	c #101E1F",
"I.	c #34281F",
"J.	c #31271E",
"K.	c #2F261E",
"L.	c #3B3128",
"M.	c #23272A",
"N.	c #151B1F",
"O.	c #614F38",
"P.	c #E8D187",
"Q.	c #765C44",
"R.	c #3F2B25",
"S.	c #111715",
"T.	c #0B0E0E",
"U.	c #10130F",
"V.	c #30291F",
"W.	c #3F3028",
"X.	c #222523",
"Y.	c #0F1D23",
"Z.	c #101F27",
"`.	c #0F1D22",
" +	c #2E2620",
".+	c #28241E",
"++	c #26221A",
"@+	c #2A2520",
"#+	c #1B2932",
"$+	c #142E3C",
"%+	c #13181B",
"&+	c #140C0A",
"*+	c #282119",
"=+	c #3F2F28",
"-+	c #0F1314",
";+	c #0C0E0A",
">+	c #251F1A",
",+	c #29221D",
"'+	c #1C2122",
")+	c #111E22",
"!+	c #0C1A1F",
"~+	c #0A1518",
"{+	c #141D1D",
"]+	c #2A231A",
"^+	c #30271D",
"/+	c #282118",
"(+	c #110F0D",
"_+	c #070704",
":+	c #0C0C08",
"<+	c #231D1A",
"[+	c #261E16",
"}+	c #221B13",
"|+	c #10100E",
"1+	c #0A0E0C",
"2+	c #151F1E",
"3+	c #372B20",
"4+	c #392E22",
"5+	c #2E251D",
"6+	c #131410",
"7+	c #090B09",
"8+	c #141512",
"9+	c #2F241E",
"0+	c #31291B",
"a+	c #27241C",
"b+	c #161E1E",
"c+	c #121B1A",
"d+	c #111B1C",
"e+	c #372C20",
"f+	c #372E25",
"g+	c #2F2723",
"h+	c #1D1F1E",
"i+	c #0F1414",
"j+	c #151614",
"k+	c #261F18",
"l+	c #2E251C",
"m+	c #24221B",
"n+	c #141B1B",
"o+	c #0F1718",
"p+	c #0E1717",
"q+	c #332A20",
"r+	c #3D3228",
"s+	c #30292A",
"t+	c #1F2325",
"u+	c #101B1F",
"v+	c #131617",
"w+	c #1F1C14",
"x+	c #29231B",
"y+	c #1F1E1A",
"z+	c #101819",
"A+	c #0D1515",
"B+	c #0B1413",
"C+	c #32281E",
"D+	c #3B3027",
"E+	c #302928",
"F+	c #232525",
"G+	c #111D22",
"H+	c #111719",
"I+	c #171711",
"J+	c #1F1C17",
"K+	c #171917",
"L+	c #0F1617",
"M+	c #0D1314",
"N+	c #091210",
"O+	c #3A3026",
"P+	c #302B27",
"Q+	c #222525",
"R+	c #101D1F",
"S+	c #101818",
"T+	c #221D19",
"U+	c #0F100E",
"V+	c #171713",
"W+	c #151713",
"X+	c #0E1615",
"Y+	c #0B1313",
"Z+	c #091111",
"`+	c #242019",
" @	c #3D3329",
".@	c #2C2826",
"+@	c #141B1F",
"@@	c #0B1717",
"#@	c #0A1311",
"$@	c #17140E",
"%@	c #0A0D09",
"&@	c #11130F",
"*@	c #101312",
"=@	c #0B1212",
"-@	c #060D0D",
";@	c #162025",
">@	c #28241B",
",@	c #242017",
"'@	c #3B3025",
")@	c #231E1A",
"!@	c #0D1113",
"~@	c #090E0E",
"{@	c #090D0B",
"]@	c #191B19",
"^@	c #16120D",
"/@	c #0B0D0A",
"(@	c #0C0E0B",
"_@	c #080B09",
":@	c #070B09",
"<@	c #080D0B",
"[@	c #070C0B",
"}@	c #151F21",
"            . +           @ # $             ",
"          % & * = -     ; > , ' )           ",
"        ! ~ { ] ^ /   ( _ : < [ }           ",
"        | 1 2 3 4 5 6 7 8 9 0 a b           ",
"        c d e f g h i j k l m n o p q       ",
"    r s t u v w x y z A B C D E F G H I     ",
"    J K L M N O P Q R S T U V W X Y Z `     ",
"     ...+.@.#.$.%.&.*.=.-.;.>.,.'.).!.~.    ",
"  {.].^./.(._.:.<.[.}.|.1.2.3.4.5.!.6.7.    ",
"  8.9.0.a.b.c.d.e.f.g.h.i.j.k.2 l.m.n.o.    ",
"  p.q.r.s.t.u.v.w.x.y.z.A.B.C.D.E.F.G.H.    ",
"  I.J.K.L.M.N.O.P.Q.R.S.T.U.V.W.X.Y.Z.`.    ",
"   +.+++@+#+$+%+&+*+=+-+;+<.>+,+'+)+!+~+{+  ",
"  ]+^+/+(+_+:+                <+[+}+|+1+2+  ",
"  3+4+5+6+7+8+                9+0+a+b+c+d+  ",
"  e+f+g+h+i+j+                k+l+m+n+o+p+  ",
"  q+r+s+t+u+v+                w+x+y+z+A+B+  ",
"  C+D+E+F+G+H+                I+J+K+L+M+N+  ",
"  K.O+P+Q+R+S+              T+U+V+W+X+Y+Z+  ",
"  `+ @.@+@@@#@              $@%@&@*@=@T -@;@",
">@,@'@)@!@~@{@]@            ^@/@(@_@:@<@[@}@",
"                                            "};
