/* XPM */
static char * geda_name_tag_36x36_xpm[] = {
"36 36 379 2",
"  	c None",
". 	c #898E8B",
"+ 	c #828C8C",
"@ 	c #5B5C5E",
"# 	c #747A79",
"$ 	c #8C9596",
"% 	c #5D5D60",
"& 	c #727B7F",
"* 	c #ACB7B7",
"= 	c #5987B3",
"- 	c #5F89B4",
"; 	c #6B91B5",
"> 	c #6C92B6",
", 	c #6A91B5",
"' 	c #698FB5",
") 	c #678EB5",
"! 	c #7396B5",
"~ 	c #B6BFBD",
"{ 	c #636262",
"] 	c #5E5F62",
"^ 	c #646466",
"/ 	c #6D9ABA",
"( 	c #D6ECFE",
"_ 	c #ECFBFF",
": 	c #D5ECF8",
"< 	c #E6F6FF",
"[ 	c #EDF9FF",
"} 	c #EAF7FF",
"| 	c #EBF8FF",
"1 	c #EDFAFF",
"2 	c #F1FDFF",
"3 	c #CEE6F3",
"4 	c #95BACB",
"5 	c #868D8E",
"6 	c #595B5D",
"7 	c #555355",
"8 	c #7F8E94",
"9 	c #DEDED5",
"0 	c #A3C1D8",
"a 	c #79A2CA",
"b 	c #B1D0E2",
"c 	c #FEFFFF",
"d 	c #FFFFFF",
"e 	c #EEF2ED",
"f 	c #FDFBF6",
"g 	c #D5EBF4",
"h 	c #8FB1C5",
"i 	c #848C8C",
"j 	c #59595D",
"k 	c #5F5E5E",
"l 	c #6D6C6B",
"m 	c #5B606A",
"n 	c #6E8BA2",
"o 	c #6693B8",
"p 	c #D5E7F6",
"q 	c #C9D6D8",
"r 	c #A7B4B7",
"s 	c #EDF6F8",
"t 	c #C9E4EE",
"u 	c #91B3C5",
"v 	c #73899B",
"w 	c #9FA2A1",
"x 	c #7A7A76",
"y 	c #60809D",
"z 	c #7AA6C5",
"A 	c #E6F6FE",
"B 	c #F0FEFF",
"C 	c #B7C7CE",
"D 	c #9FAFB6",
"E 	c #DEEBEE",
"F 	c #CCE6F0",
"G 	c #8CB0C8",
"H 	c #A2B1BF",
"I 	c #85ADC7",
"J 	c #EAF3F7",
"K 	c #C9DBDE",
"L 	c #A4C7D8",
"M 	c #DCF0F9",
"N 	c #D8E3E6",
"O 	c #CED7D7",
"P 	c #F9FFFF",
"Q 	c #F6FFFF",
"R 	c #AFBBBE",
"S 	c #95A2A6",
"T 	c #E3F1F6",
"U 	c #FBFFFF",
"V 	c #B1D3E6",
"W 	c #77A1C1",
"X 	c #AAB5B5",
"Y 	c #85AFC9",
"Z 	c #F3FFFF",
"` 	c #E0F1F8",
" .	c #A6B3B5",
"..	c #BFC7C3",
"+.	c #E9F8FE",
"@.	c #A3B1B6",
"#.	c #9CA8AA",
"$.	c #D9EAF1",
"%.	c #E4FAFF",
"&.	c #AFD1E4",
"*.	c #81A7C1",
"=.	c #BABFBD",
"-.	c #F2F9F7",
";.	c #B7C1C2",
">.	c #E0ECF0",
",.	c #D8E9EE",
"'.	c #9DAAAC",
").	c #BBC1BD",
"!.	c #FAFFFF",
"~.	c #E5F6FB",
"{.	c #A4B3B6",
"].	c #99A6A9",
"^.	c #D5E7EE",
"/.	c #E3F9FF",
"(.	c #A4CBDF",
"_.	c #F1FFFF",
":.	c #C4CAC7",
"<.	c #AAB3B3",
"[.	c #DBE9EE",
"}.	c #CEE2E9",
"|.	c #95A3A6",
"1.	c #B4C4C5",
"2.	c #E9FFFF",
"3.	c #DDEEF6",
"4.	c #9BA7AA",
"5.	c #D0E4EC",
"6.	c #D2F1FA",
"7.	c #A6CBE0",
"8.	c #81A8C2",
"9.	c #BCC3BF",
"0.	c #F2FFFF",
"a.	c #EEF1ED",
"b.	c #B5BEBF",
"c.	c #96A4A9",
"d.	c #D7E6EC",
"e.	c #C7DDE4",
"f.	c #8CA2A9",
"g.	c #A8C1C9",
"h.	c #E4FEFF",
"i.	c #DBEDF4",
"j.	c #9BACB0",
"k.	c #929FA3",
"l.	c #CBE3EA",
"m.	c #D2F2FB",
"n.	c #9DC4D9",
"o.	c #7B9BB3",
"p.	c #BDC4C1",
"q.	c #BEC7C7",
"r.	c #BDCACC",
"s.	c #FDFFFF",
"t.	c #F2FEFF",
"u.	c #A7B4B8",
"v.	c #99A7AA",
"w.	c #D9E7ED",
"x.	c #B8D2DC",
"y.	c #8CA2A7",
"z.	c #D8F6FF",
"A.	c #C8E3EA",
"B.	c #92A3A8",
"C.	c #93A0A3",
"D.	c #C1DBE3",
"E.	c #C5E7F3",
"F.	c #9ABBCF",
"G.	c #7B9CB5",
"H.	c #BFC5C1",
"I.	c #89B3CA",
"J.	c #F7FFFF",
"K.	c #A1B1B8",
"L.	c #B5C5CB",
"M.	c #F4FFFF",
"N.	c #F0FDFF",
"O.	c #A9B5B8",
"P.	c #9BA8AC",
"Q.	c #D2E3EA",
"R.	c #B5CFD8",
"S.	c #869AA1",
"T.	c #A2BBC4",
"U.	c #CEF0FB",
"V.	c #BDDCE6",
"W.	c #8C9DA3",
"X.	c #8D9BA0",
"Y.	c #BCD7E2",
"Z.	c #C2E5F1",
"`.	c #94B7CA",
" +	c #C1C5C1",
".+	c #6092BB",
"++	c #D2EBF8",
"@+	c #DDEBF0",
"#+	c #95A3A8",
"$+	c #B4C2C7",
"%+	c #E3F4FA",
"&+	c #9DA9AD",
"*+	c #D0E3E9",
"=+	c #DCF8FF",
"-+	c #ADC9D2",
";+	c #889CA2",
">+	c #A0BBC4",
",+	c #C7EBF7",
"'+	c #B8D8E3",
")+	c #88999F",
"!+	c #8D9A9F",
"~+	c #B3CFD8",
"{+	c #BCDFEA",
"]+	c #93B4C8",
"^+	c #81A2B8",
"/+	c #5C87B0",
"(+	c #6A9DC7",
"_+	c #CEEAF4",
":+	c #C8D6DB",
"<+	c #95A1A4",
"[+	c #ADBDC3",
"}+	c #E0F4FD",
"|+	c #D8EDF6",
"1+	c #A1B0B5",
"2+	c #99A7A9",
"3+	c #C2DCE3",
"4+	c #CFF1FD",
"5+	c #A9C8D2",
"6+	c #889BA2",
"7+	c #A2BEC8",
"8+	c #C3E7F4",
"9+	c #AFD0DB",
"0+	c #8EA1A7",
"a+	c #A9C2CB",
"b+	c #BEE3ED",
"c+	c #A0C7D9",
"d+	c #5C88B0",
"e+	c #89A4B5",
"f+	c #C3C8C2",
"g+	c #5382AE",
"h+	c #679CC4",
"i+	c #BDDCEC",
"j+	c #E4F7FF",
"k+	c #EEFFFF",
"l+	c #C4D3D9",
"m+	c #919CA0",
"n+	c #AFBEC4",
"o+	c #D9F2FA",
"p+	c #CEE7F0",
"q+	c #A1AFB4",
"r+	c #93A1A6",
"s+	c #BBD7DF",
"t+	c #C9EDFA",
"u+	c #AAC5CF",
"v+	c #869295",
"w+	c #A3BEC8",
"x+	c #BBE0EC",
"y+	c #B4D8E5",
"z+	c #B4D7E3",
"A+	c #A0C3D5",
"B+	c #5D94C2",
"C+	c #538BBC",
"D+	c #BBC4C2",
"E+	c #5685B0",
"F+	c #4E87B8",
"G+	c #A8CCE3",
"H+	c #E2F6FE",
"I+	c #EBFFFF",
"J+	c #BDD0D6",
"K+	c #95A1A3",
"L+	c #AABDC3",
"M+	c #D1EDF6",
"N+	c #C8E3EC",
"O+	c #99A9AF",
"P+	c #BBD8E0",
"Q+	c #C4E4ED",
"R+	c #A1B6BE",
"S+	c #7E939D",
"T+	c #A8C3CC",
"U+	c #B6D9E5",
"V+	c #98BACC",
"W+	c #5785AE",
"X+	c #4E81B3",
"Y+	c #B5D0D9",
"Z+	c #E2DFD1",
"`+	c #C3C8C1",
" @	c #5987B1",
".@	c #5189BA",
"+@	c #AACEE4",
"@@	c #D5F0F7",
"#@	c #D9F8FF",
"$@	c #B8CFD3",
"%@	c #8D999C",
"&@	c #A3B6BC",
"*@	c #CBEAF3",
"=@	c #BFDEE9",
"-@	c #96A8B0",
";@	c #8B9CA4",
">@	c #B4D2D9",
",@	c #B3DBEB",
"'@	c #99BDD0",
")@	c #9FAFB3",
"!@	c #A1C5D7",
"~@	c #5685AF",
"{@	c #437BB3",
"]@	c #ADBFC7",
"^@	c #5282B1",
"/@	c #4E87BA",
"(@	c #A2C9DE",
"_@	c #AEC5CC",
":@	c #879498",
"<@	c #A3B7BE",
"[@	c #C7E6F1",
"}@	c #B5D9EA",
"|@	c #85A0B1",
"1@	c #8EA1A9",
"2@	c #B7DBE7",
"3@	c #BDDFEA",
"4@	c #5684AE",
"5@	c #4079B3",
"6@	c #98B1C7",
"7@	c #B0BCC1",
"8@	c #497DB1",
"9@	c #5088BA",
"0@	c #A3CADF",
"a@	c #C9E7F2",
"b@	c #CCEEFA",
"c@	c #B1CAD1",
"d@	c #8C989B",
"e@	c #A1B4BC",
"f@	c #C3E4ED",
"g@	c #AED2E0",
"h@	c #96B8CC",
"i@	c #B5D7E3",
"j@	c #9ABED2",
"k@	c #5784AE",
"l@	c #EBE5D3",
"m@	c #B3BDC2",
"n@	c #9DC7DD",
"o@	c #C4E5F0",
"p@	c #C7EAF6",
"q@	c #A2BEC7",
"r@	c #818E92",
"s@	c #9FB3BA",
"t@	c #BCDEE7",
"u@	c #BDE0EB",
"v@	c #9CC3D8",
"w@	c #5F94C1",
"x@	c #4078B0",
"y@	c #ECE6D3",
"z@	c #B3BDC1",
"A@	c #5188BB",
"B@	c #9AC3D9",
"C@	c #BBDEE9",
"D@	c #BCE0ED",
"E@	c #9FBAC3",
"F@	c #87959A",
"G@	c #ACC4CC",
"H@	c #A6CFE2",
"I@	c #5E93C1",
"J@	c #3E77AF",
"K@	c #96B1C7",
"L@	c #B4BDC1",
"M@	c #487DB1",
"N@	c #96BED6",
"O@	c #B6D8E4",
"P@	c #BADDE9",
"Q@	c #B5D8E5",
"R@	c #9FC7DB",
"S@	c #5E93BF",
"T@	c #4076AE",
"U@	c #99B0C3",
"V@	c #E9E5D3",
"W@	c #B1BDC1",
"X@	c #5088BB",
"Y@	c #98C1D7",
"Z@	c #B3D5E0",
"`@	c #9FC5D9",
" #	c #9CAFBE",
".#	c #B3BEC1",
"+#	c #5189BB",
"@#	c #8BB6D2",
"##	c #6095C1",
"$#	c #9DB0BD",
"%#	c #B5BEC1",
"&#	c #4E80B4",
"*#	c #2A6AAC",
"=#	c #427AB1",
"-#	c #9FB1BE",
"                                                                        ",
"                                                                        ",
"                                                                        ",
"                                                                        ",
"                                                                        ",
"        .                                                               ",
"        + @ #                                                           ",
"        $ % & * = - ; > , ' , , , , ) ! ~                               ",
"          { ] ^ / ( _ : < [ } } | 1 2 3 4                               ",
"          5 6 7 8 9 0 a b c d d d e f d g h                             ",
"            i j k l m n o p d d d q r s d t u                           ",
"                v w x y z A d d d B C D E d F G H                       ",
"                I J K L M c d N O P Q R S T U V W                       ",
"              X Y Z d U d d d `  ...c +.@.#.$.%.&.*.=.                  ",
"                Y B d d -.;.>.d ,.'.).!.~.{.].^./.(.*.                  ",
"                Y _.d d d :.<.[.d }.|.1.2.3.r 4.5.6.7.8.9.              ",
"                Y 0.d a.d d b.c.d.U e.f.g.h.i.j.k.l.m.n.o.p.            ",
"                Y 0.d q.r.s.t.u.v.w._.x.y.g.z.A.B.C.D.E.F.G.H.          ",
"                I.J.d d.K.L.M.N.O.P.Q.2.R.S.T.U.V.W.X.Y.Z.`.G. +        ",
"                .+++d d @+#+$+Z %+@.&+*+=+-+;+>+,+'+)+!+~+{+]+^+ +      ",
"                /+(+_+s.d :+<+[+}+|+1+2+3+4+5+6+7+8+9+0+a+b+c+d+e+      ",
"                f+g+h+i+j+k+l+m+n+o+p+q+r+s+t+u+v+w+x+y+z+A+B+C+D+      ",
"                  f+E+F+G+H+I+J+K+L+M+N+O+S P+Q+R+S+T+U+V+W+X+Y+Z+      ",
"                    `+ @.@+@@@#@$@%@&@*@=@-@;@>@,@'@)@!@~@{@]@          ",
"                      `+^@/@(@M+#@_@:@<@[@}@|@1@2@3@!@4@5@6@            ",
"                        7@8@9@0@a@b@c@d@e@f@g@h@i@j@k@5@6@l@            ",
"                          m@8@9@n@o@p@q@r@s@t@u@v@w@x@6@y@              ",
"                            z@8@A@B@C@D@E@F@G@H@I@J@K@l@                ",
"                              L@M@A@N@O@P@Q@R@S@T@U@V@                  ",
"                                W@8@X@Y@Z@`@I@J@ #                      ",
"                                  .#M@+#@###J@$#                        ",
"                                    %#&#*#=#-#                          ",
"                                                                        ",
"                                                                        ",
"                                                                        ",
"                                                                        "};
