/* XPM */
static char *geda_line_32x32[] = {
/* columns rows colors chars-per-pixel */
"32 32 51 1 ",
"  c #058700",
". c #058800",
"X c #058900",
"o c #068800",
"O c #068A00",
"+ c #068B00",
"@ c #078B00",
"# c #078D00",
"$ c #078E00",
"% c #078F00",
"& c #089100",
"* c #089200",
"= c #089300",
"- c #089400",
"; c #099500",
": c #099700",
"> c #099800",
", c #0A9B00",
"< c #0EC700",
"1 c #0FC900",
"2 c #0FCA00",
"3 c #0FCC00",
"4 c #0ECD00",
"5 c #0FCD00",
"6 c #0ECF00",
"7 c #0ED100",
"8 c #0ED200",
"9 c #0ED300",
"0 c #0ED600",
"q c #0ED700",
"w c #0DD800",
"e c #0DD900",
"r c #0DDB00",
"t c #0EDA00",
"y c #0DDC00",
"u c #0DDD00",
"i c #0DDF00",
"p c #0BE000",
"a c #0CE000",
"s c #0CE100",
"d c #04FB00",
"f c #03FC00",
"g c #02FD00",
"h c #03FD00",
"j c #01FE00",
"k c #00FF00",
"l c #01FF00",
"z c #02FE00",
"x c #04FC00",
"c c #04FD00",
"v c None",
/* pixels */
"vvvvvvvvvvvvvvvvvvvvvvvvvvvvvvvv",
"vvvvvvvvvvvvvvvvvvvvvvvvvvvvvvvv",
"vvvvvvvvvvvvvvvvvvvvvvvvvvvvvvvv",
"vvvvvvvvvvvvvvvvvvvvvvvvvvvzpvvv",
"vvvvvvvvvvvvvvvvvvvvvvvvvvzs,vvv",
"vvvvvvvvvvvvvvvvvvvvvvvvvzs>vvvv",
"vvvvvvvvvvvvvvvvvvvvvvvvzs>vvvvv",
"vvvvvvvvvvvvvvvvvvvvvvvzi:vvvvvv",
"vvvvvvvvvvvvvvvvvvvvvvgi:vvvvvvv",
"vvvvvvvvvvvvvvvvvvvvvzr:vvvvvvvv",
"vvvvvvvvvvvvvvvvvvvvzi:vvvvvvvvv",
"vvvvvvvvvvvvvvvvvvvzr=vvvvvvvvvv",
"vvvvvvvvvvvvvvvvvvzr=vvvvvvvvvvv",
"vvvvvvvvvvvvvvvvvzr=vvvvvvvvvvvv",
"vvvvvvvvvvvvvvvvzq%vvvvvvvvvvvvv",
"vvvvvvvvvvvvvvvzq=vvvvvvvvvvvvvv",
"vvvvvvvvvvvvvvzq$vvvvvvvvvvvvvvv",
"vvvvvvvvvvvvvzq$vvvvvvvvvvvvvvvv",
"vvvvvvvvvvvvz9$vvvvvvvvvvvvvvvvv",
"vvvvvvvvvvvz9%vvvvvvvvvvvvvvvvvv",
"vvvvvvvvvvc9$vvvvvvvvvvvvvvvvvvv",
"vvvvvvvvvz9Ovvvvvvvvvvvvvvvvvvvv",
"vvvvvvvvd9Ovvvvvvvvvvvvvvvvvvvvv",
"vvvvvvvz6Ovvvvvvvvvvvvvvvvvvvvvv",
"vvvvvvc6Ovvvvvvvvvvvvvvvvvvvvvvv",
"vvvvvc6 vvvvvvvvvvvvvvvvvvvvvvvv",
"vvvvc2 vvvvvvvvvvvvvvvvvvvvvvvvv",
"vvvd2Ovvvvvvvvvvvvvvvvvvvvvvvvvv",
"vvc2 vvvvvvvvvvvvvvvvvvvvvvvvvvv",
"vv< vvvvvvvvvvvvvvvvvvvvvvvvvvvv",
"vvvvvvvvvvvvvvvvvvvvvvvvvvvvvvvv",
"vvvvvvvvvvvvvvvvvvvvvvvvvvvvvvvv"
};
