/* XPM */
static char * geda_man_22x22_xpm[] = {
"22 22 203 2",
"  	c None",
". 	c #B6B9BD",
"+ 	c #9EA4A9",
"@ 	c #8C9196",
"# 	c #ADB1B5",
"$ 	c #B1B6BC",
"% 	c #969DA3",
"& 	c #747C83",
"* 	c #666F77",
"= 	c #686E75",
"- 	c #969AA3",
"; 	c #868C95",
"> 	c #505760",
", 	c #3C444D",
"' 	c #414852",
") 	c #5D656E",
"! 	c #727981",
"~ 	c #555D67",
"{ 	c #50525A",
"] 	c #34353D",
"^ 	c #22232B",
"/ 	c #252630",
"( 	c #3B3E45",
"_ 	c #8D959D",
": 	c #636D77",
"< 	c #353F4A",
"[ 	c #7F756E",
"} 	c #81756F",
"| 	c #716863",
"1 	c #665D58",
"2 	c #6D655E",
"3 	c #737D8A",
"4 	c #404B55",
"5 	c #353F49",
"6 	c #DED1C3",
"7 	c #E0D4C9",
"8 	c #D0C4B7",
"9 	c #C3B3A2",
"0 	c #9A8B7B",
"a 	c #484F59",
"b 	c #505456",
"c 	c #242D3A",
"d 	c #D4C9BC",
"e 	c #DED4CA",
"f 	c #DDD3C8",
"g 	c #D7C7B8",
"h 	c #A89984",
"i 	c #726A63",
"j 	c #4D4845",
"k 	c #C7BCAE",
"l 	c #CFC4B5",
"m 	c #D2C5B7",
"n 	c #C6B5A4",
"o 	c #AA977F",
"p 	c #9C8C78",
"q 	c #3C3433",
"r 	c #C2B3A1",
"s 	c #C7B8A6",
"t 	c #B5A28F",
"u 	c #A79178",
"v 	c #96846C",
"w 	c #897A6D",
"x 	c #CAB39E",
"y 	c #BEAD99",
"z 	c #A68F78",
"A 	c #857058",
"B 	c #AF9D88",
"C 	c #A49889",
"D 	c #777474",
"E 	c #877262",
"F 	c #755B41",
"G 	c #AE9985",
"H 	c #B7ABA0",
"I 	c #B4B3B4",
"J 	c #5F656E",
"K 	c #616A73",
"L 	c #55606B",
"M 	c #7A858C",
"N 	c #B1AAA0",
"O 	c #BCAEA0",
"P 	c #BCAFA3",
"Q 	c #D7D9D6",
"R 	c #B4B7BB",
"S 	c #636971",
"T 	c #29303B",
"U 	c #40434D",
"V 	c #7C858D",
"W 	c #707A84",
"X 	c #6F7781",
"Y 	c #9297A3",
"Z 	c #A5ABB3",
"` 	c #D5D6D6",
" .	c #A6A8AC",
"..	c #5D6670",
"+.	c #3B4651",
"@.	c #2C343E",
"#.	c #3F4650",
"$.	c #6E767E",
"%.	c #5F6872",
"&.	c #5B6169",
"*.	c #687B86",
"=.	c #4B7699",
"-.	c #838993",
";.	c #777F8A",
">.	c #57626B",
",.	c #3E4851",
"'.	c #2E3740",
").	c #30383F",
"!.	c #525A63",
"~.	c #3A434E",
"{.	c #36373D",
"].	c #51788B",
"^.	c #4686B3",
"/.	c #89A3B7",
"(.	c #798288",
"_.	c #626973",
":.	c #79828E",
"<.	c #6F7983",
"[.	c #59636D",
"}.	c #49535D",
"|.	c #262F39",
"1.	c #202933",
"2.	c #303942",
"3.	c #242D36",
"4.	c #282C33",
"5.	c #326683",
"6.	c #3C7EAE",
"7.	c #62788D",
"8.	c #515A62",
"9.	c #454E59",
"0.	c #424B56",
"a.	c #414B54",
"b.	c #465059",
"c.	c #404A53",
"d.	c #232E37",
"e.	c #232D36",
"f.	c #222C35",
"g.	c #252D36",
"h.	c #1F4161",
"i.	c #315377",
"j.	c #3C4957",
"k.	c #2E3841",
"l.	c #1F2833",
"m.	c #27303A",
"n.	c #303943",
"o.	c #38424C",
"p.	c #3D4650",
"q.	c #242E38",
"r.	c #242E36",
"s.	c #272F39",
"t.	c #1F2933",
"u.	c #232D37",
"v.	c #223047",
"w.	c #2F3C51",
"x.	c #313C46",
"y.	c #26303A",
"z.	c #28313B",
"A.	c #2B343E",
"B.	c #313A44",
"C.	c #37414B",
"D.	c #26313A",
"E.	c #263039",
"F.	c #434851",
"G.	c #29323C",
"H.	c #29323F",
"I.	c #2D3742",
"J.	c #343E47",
"K.	c #353E49",
"L.	c #353E48",
"M.	c #2F3842",
"N.	c #252E38",
"O.	c #2A343E",
"P.	c #36404A",
"Q.	c #2D3841",
"R.	c #253039",
"S.	c #3E464E",
"T.	c #4C545A",
"U.	c #2C353E",
"V.	c #1C2530",
"W.	c #212B36",
"X.	c #333C47",
"Y.	c #38414C",
"Z.	c #323B46",
"`.	c #2C3641",
" +	c #232D38",
".+	c #353F48",
"++	c #2F3943",
"@+	c #25303A",
"#+	c #6F7478",
"$+	c #50575E",
"%+	c #3D464E",
"&+	c #27313A",
"*+	c #232E38",
"=+	c #202935",
"-+	c #1D252F",
";+	c #1E2831",
">+	c #2C3640",
",+	c #3C464F",
"'+	c #4D555C",
")+	c #6A7075",
"!+	c #6D7379",
"~+	c #6C7177",
"{+	c #686C73",
"                  . + @                     ",
"              # $ % & * =                   ",
"            - ; > , ' ) ! ~                 ",
"            { ] ^ / ( _ : <                 ",
"            [ } | 1 2 3 4 5                 ",
"            6 7 8 9 0 a b c                 ",
"            d e f g h i j                   ",
"            k l m n o p q                   ",
"              r s t u v w                   ",
"              x y z A B C                   ",
"              D E F G H I J                 ",
"          K L M N O P Q R S T U             ",
"        V W X Y Z     `  ...+.@.#.          ",
"        $.%.&.*.=.      -.;.>.,.'.).        ",
"        !.~.{.].^./.(._.:.<.[.}.|.1.        ",
"        2.3.4.5.6.7.8.9.0.a.b.c.d.e.        ",
"        f.1.g.h.i.j.k.l.m.n.o.p.q.r.        ",
"        s.t.u.v.w.x.y.z.n.A.B.C.D.E.        ",
"        F.G.t.H.I.J.K.L.M.N.O.P.Q.R.S.      ",
"          T.U.V.W.X.Y.Z.`. +q..+++@+#+      ",
"              $+%+&+*+W.=+-+;+>+,+'+        ",
"                    )+!+~+{+                "};
