/* XPM */
static char * geda_name_tag_16x16_xpm[] = {
"16 16 107 2",
"  	c None",
". 	c #878E8C",
"+ 	c #797F7D",
"@ 	c #889192",
"# 	c #6A6B6A",
"$ 	c #6E8393",
"% 	c #A4C3DD",
"& 	c #AEC9DC",
"* 	c #B3CADD",
"= 	c #B2CADC",
"- 	c #B3CADB",
"; 	c #99B6C5",
"> 	c #737576",
", 	c #696E71",
"' 	c #83929C",
") 	c #90B2CB",
"! 	c #FBFEFF",
"~ 	c #F0F6F5",
"{ 	c #CED7D9",
"] 	c #CADEE9",
"^ 	c #7EA1B8",
"/ 	c #8BA5B4",
"( 	c #B5C4C9",
"_ 	c #C7DAE5",
": 	c #F0F4F5",
"< 	c #E2E9E8",
"[ 	c #D5DCE0",
"} 	c #CBD7DA",
"| 	c #B7D4E5",
"1 	c #819CB1",
"2 	c #92B5CA",
"3 	c #F2F7FB",
"4 	c #F7F7F6",
"5 	c #D6DEDF",
"6 	c #C2CECF",
"7 	c #C7CFD0",
"8 	c #BFCFD1",
"9 	c #BFD1D7",
"0 	c #AECEDE",
"a 	c #94ACBA",
"b 	c #8EB5CE",
"c 	c #E1E8EB",
"d 	c #E0E6E5",
"e 	c #CCD3D4",
"f 	c #D4DFE5",
"g 	c #CADEE0",
"h 	c #B5CFD7",
"i 	c #B6CBD0",
"j 	c #ADC2CA",
"k 	c #A1C1D3",
"l 	c #AEB8B8",
"m 	c #83ACC6",
"n 	c #E6F1F7",
"o 	c #B8C6CB",
"p 	c #D3E0E3",
"q 	c #A3B0B4",
"r 	c #C9DBE1",
"s 	c #A4BDC3",
"t 	c #B4D4DE",
"u 	c #9CB2B9",
"v 	c #ADCAD5",
"w 	c #91B1C4",
"x 	c #ACB6B9",
"y 	c #8CA4B6",
"z 	c #87ABC8",
"A 	c #D8ECF7",
"B 	c #BDCBCE",
"C 	c #C4D7DF",
"D 	c #B3C8CE",
"E 	c #B1C9D1",
"F 	c #A3BDC6",
"G 	c #A4C0C9",
"H 	c #A9C8D2",
"I 	c #6FA0C7",
"J 	c #9DB3BE",
"K 	c #91A7B2",
"L 	c #6A97BE",
"M 	c #C5E5F2",
"N 	c #A2B4B9",
"O 	c #AFC5CC",
"P 	c #A4BBC4",
"Q 	c #A5C4CF",
"R 	c #A2BECA",
"S 	c #7099BC",
"T 	c #7FA0BA",
"U 	c #FFFFE6",
"V 	c #88A0B5",
"W 	c #6E9BC1",
"X 	c #BBDFEE",
"Y 	c #A4BCC2",
"Z 	c #A4BFC8",
"` 	c #A4C6D4",
" .	c #78A5C8",
"..	c #8EA8BF",
"+.	c #88A1B6",
"@.	c #6795BE",
"#.	c #A4CCDE",
"$.	c #A7C3CD",
"%.	c #73A3C8",
"&.	c #84A3BC",
"*.	c #E7E3D2",
"=.	c #9CADB9",
"-.	c #6291BA",
";.	c #6A9BC4",
">.	c #7394B4",
",.	c #95A8B9",
"'.	c #3E72AA",
"                                ",
"                                ",
"  . +                           ",
"  @ # $ % & * = - ;             ",
"    > , ' ) ! ~ { ] ^           ",
"      / ( _ : < [ } | 1         ",
"      2 3 4 5 6 7 8 9 0 a       ",
"      b c d e f g h i j k l     ",
"      m n o p q r s t u v w x   ",
"      y z A B C D E F G H I J   ",
"        K L M N O P Q R S T U   ",
"          V W X Y Z `  ...      ",
"            +.@.#.$.%.&.*.      ",
"              =.-.;.>.          ",
"                ,.'.            ",
"                                "};
