/* XPM */
static char * geda_find_36x36_xpm[] = {
"36 36 807 2",
"  	c None",
". 	c #383535",
"+ 	c #303331",
"@ 	c #2A3233",
"# 	c #29241D",
"$ 	c #2F2720",
"% 	c #342C24",
"& 	c #282723",
"* 	c #1A2423",
"= 	c #121E1F",
"- 	c #0D1513",
"; 	c #1C1F22",
"> 	c #1E1F1D",
", 	c #24221C",
"' 	c #332B21",
") 	c #2C2A22",
"! 	c #1C2A2A",
"~ 	c #122C32",
"{ 	c #121F24",
"] 	c #263332",
"^ 	c #292019",
"/ 	c #302822",
"( 	c #2E2D2C",
"_ 	c #262E2F",
": 	c #1E343D",
"< 	c #1A3340",
"[ 	c #0C2229",
"} 	c #395057",
"| 	c #202320",
"1 	c #27231A",
"2 	c #41332C",
"3 	c #2A2A29",
"4 	c #1E2A29",
"5 	c #21333D",
"6 	c #12282D",
"7 	c #253839",
"8 	c #2D2822",
"9 	c #2E251E",
"0 	c #342A27",
"a 	c #36312D",
"b 	c #312D2B",
"c 	c #203035",
"d 	c #1A3241",
"e 	c #112227",
"f 	c #101A20",
"g 	c #1D1B1A",
"h 	c #3B3228",
"i 	c #473B2E",
"j 	c #2A2C27",
"k 	c #1E272B",
"l 	c #242F31",
"m 	c #0F1F25",
"n 	c #182525",
"o 	c #332E2A",
"p 	c #2C241C",
"q 	c #332C25",
"r 	c #342F2B",
"s 	c #2F302C",
"t 	c #1F2F33",
"u 	c #1A3442",
"v 	c #102125",
"w 	c #0E1A19",
"x 	c #2B373B",
"y 	c #2E3A3C",
"z 	c #1B1915",
"A 	c #372F2A",
"B 	c #47392F",
"C 	c #2A2A2D",
"D 	c #1C2C2D",
"E 	c #252F2F",
"F 	c #12242C",
"G 	c #182727",
"H 	c #1B363B",
"I 	c #322D29",
"J 	c #242318",
"K 	c #2B271C",
"L 	c #2B2821",
"M 	c #1F2120",
"N 	c #0F1E20",
"O 	c #0D222B",
"P 	c #0D1C1E",
"Q 	c #0E1310",
"R 	c #22221B",
"S 	c #15231F",
"T 	c #0F1414",
"U 	c #0E1616",
"V 	c #121313",
"W 	c #2A241C",
"X 	c #29261B",
"Y 	c #101312",
"Z 	c #131514",
"` 	c #0C1514",
" .	c #171B1A",
"..	c #1E3741",
"+.	c #3F3021",
"@.	c #242118",
"#.	c #412F28",
"$.	c #3F3023",
"%.	c #262119",
"&.	c #3D3127",
"*.	c #403528",
"=.	c #231C17",
"-.	c #171811",
";.	c #2F2A19",
">.	c #203943",
",.	c #0A1517",
"'.	c #162E37",
").	c #12272B",
"!.	c #161916",
"~.	c #1C1E15",
"{.	c #13140E",
"].	c #142B2E",
"^.	c #112128",
"/.	c #2E3E3B",
"(.	c #282D2F",
"_.	c #303B41",
":.	c #343739",
"<.	c #272221",
"[.	c #332E1F",
"}.	c #2B231A",
"|.	c #0E0D09",
"1.	c #0E100E",
"2.	c #2E2522",
"3.	c #233038",
"4.	c #0D2026",
"5.	c #050909",
"6.	c #060F10",
"7.	c #141713",
"8.	c #222017",
"9.	c #151710",
"0.	c #2B2F2A",
"a.	c #2A2D2A",
"b.	c #232B2E",
"c.	c #1E303D",
"d.	c #1E3341",
"e.	c #1B2E34",
"f.	c #1F3038",
"g.	c #362822",
"h.	c #241F1C",
"i.	c #554135",
"j.	c #574436",
"k.	c #21262F",
"l.	c #192F3B",
"m.	c #142F3D",
"n.	c #12293A",
"o.	c #0E232C",
"p.	c #0B1315",
"q.	c #020503",
"r.	c #0E0D0C",
"s.	c #2B261F",
"t.	c #16303C",
"u.	c #113746",
"v.	c #000000",
"w.	c #0F0F0D",
"x.	c #1B1B16",
"y.	c #23211B",
"z.	c #211E16",
"A.	c #201C17",
"B.	c #151311",
"C.	c #0C0E0E",
"D.	c #090E0D",
"E.	c #0B1212",
"F.	c #111A1B",
"G.	c #162021",
"H.	c #38423D",
"I.	c #69534C",
"J.	c #241C19",
"K.	c #1E1814",
"L.	c #1C1A16",
"M.	c #392D28",
"N.	c #282419",
"O.	c #141411",
"P.	c #0A0C0C",
"Q.	c #0D100F",
"R.	c #0F1515",
"S.	c #16211E",
"T.	c #191A14",
"U.	c #191510",
"V.	c #1E1C14",
"W.	c #533E28",
"X.	c #423423",
"Y.	c #1C2D3B",
"Z.	c #071012",
"`.	c #0A100D",
" +	c #131413",
".+	c #0E110D",
"++	c #131310",
"@+	c #332B1D",
"#+	c #3B3224",
"$+	c #26261D",
"%+	c #142529",
"&+	c #101B1D",
"*+	c #09100D",
"=+	c #0B100E",
"-+	c #0D181B",
";+	c #2C4146",
">+	c #6A5848",
",+	c #26211B",
"'+	c #1C1B15",
")+	c #3C3226",
"!+	c #4C3B30",
"~+	c #252B2E",
"{+	c #1F2D32",
"]+	c #182528",
"^+	c #292320",
"/+	c #5A4736",
"(+	c #916D4F",
"_+	c #9A7554",
":+	c #4E432E",
"<+	c #2A291C",
"[+	c #272118",
"}+	c #142A31",
"|+	c #15282F",
"1+	c #121B1D",
"2+	c #111615",
"3+	c #161915",
"4+	c #362D25",
"5+	c #49372A",
"6+	c #3C312E",
"7+	c #262926",
"8+	c #182B32",
"9+	c #122227",
"0+	c #121C1C",
"a+	c #0F1D1C",
"b+	c #162526",
"c+	c #382C20",
"d+	c #1F1C16",
"e+	c #1F1D1B",
"f+	c #40302B",
"g+	c #4B3E2E",
"h+	c #272D30",
"i+	c #1D2727",
"j+	c #141B1D",
"k+	c #1C1D18",
"l+	c #342C28",
"m+	c #46352C",
"n+	c #44362C",
"o+	c #141310",
"p+	c #171614",
"q+	c #12171A",
"r+	c #0C1B21",
"s+	c #061216",
"t+	c #040505",
"u+	c #0A0B09",
"v+	c #0F100C",
"w+	c #1A1814",
"x+	c #3F3929",
"y+	c #2E2C20",
"z+	c #21282B",
"A+	c #1C262C",
"B+	c #182224",
"C+	c #0E1C1B",
"D+	c #18262E",
"E+	c #142229",
"F+	c #2D261E",
"G+	c #251F1C",
"H+	c #2D2722",
"I+	c #423528",
"J+	c #4D3C30",
"K+	c #1F2729",
"L+	c #1A2836",
"M+	c #1C282D",
"N+	c #151A18",
"O+	c #020603",
"P+	c #0B0D0D",
"Q+	c #171613",
"R+	c #392F22",
"S+	c #362E2A",
"T+	c #2F2F30",
"U+	c #1F2E37",
"V+	c #102129",
"W+	c #071010",
"X+	c #040604",
"Y+	c #201C19",
"Z+	c #251F1B",
"`+	c #342C25",
" @	c #2F2924",
".@	c #242828",
"+@	c #192830",
"@@	c #1B2021",
"#@	c #0F1818",
"$@	c #1B2628",
"%@	c #121E22",
"&@	c #605143",
"*@	c #261F18",
"=@	c #28221D",
"-@	c #2D2625",
";@	c #3E312C",
">@	c #533F30",
",@	c #1F2424",
"'@	c #1B2930",
")@	c #1E2B33",
"!@	c #181D1E",
"~@	c #060B09",
"{@	c #1A1714",
"]@	c #27221B",
"^@	c #3A2F25",
"/@	c #2F2A25",
"(@	c #2B3031",
"_@	c #192C32",
":@	c #102028",
"<@	c #0A1412",
"[@	c #1C1D16",
"}@	c #222119",
"|@	c #312820",
"1@	c #2E2724",
"2@	c #262728",
"3@	c #1A282A",
"4@	c #1A1F21",
"5@	c #10191B",
"6@	c #202626",
"7@	c #101F21",
"8@	c #1F3841",
"9@	c #45362C",
"0@	c #242218",
"a@	c #2D251C",
"b@	c #2E2622",
"c@	c #3B2F2A",
"d@	c #4D3D32",
"e@	c #202325",
"f@	c #172D34",
"g@	c #1C2B31",
"h@	c #1B1C1C",
"i@	c #070A08",
"j@	c #1B1814",
"k@	c #232019",
"l@	c #352D26",
"m@	c #2B272A",
"n@	c #2B2C2B",
"o@	c #1A2B32",
"p@	c #030804",
"q@	c #1D1A16",
"r@	c #23211D",
"s@	c #302A21",
"t@	c #302A28",
"u@	c #262927",
"v@	c #19272D",
"w@	c #182121",
"x@	c #0E1717",
"y@	c #1D2828",
"z@	c #101D1F",
"A@	c #27383E",
"B@	c #332A1C",
"C@	c #24211B",
"D@	c #2F271E",
"E@	c #2E2820",
"F@	c #3F3427",
"G@	c #563E33",
"H@	c #212225",
"I@	c #182630",
"J@	c #18262C",
"K@	c #171B1F",
"L@	c #060A07",
"M@	c #1D1715",
"N@	c #221E1A",
"O@	c #392921",
"P@	c #2C2B21",
"Q@	c #252C2A",
"R@	c #1A262E",
"S@	c #101F29",
"T@	c #081316",
"U@	c #040806",
"V@	c #1F1B15",
"W@	c #252119",
"X@	c #30291F",
"Y@	c #2E2B24",
"Z@	c #2B2522",
"`@	c #1B2125",
" #	c #162025",
".#	c #0A181A",
"+#	c #1F2525",
"@#	c #1A2C34",
"##	c #2C241E",
"$#	c #29221F",
"%#	c #362A22",
"&#	c #312A22",
"*#	c #403326",
"=#	c #504033",
"-#	c #202420",
";#	c #182730",
">#	c #1D2C31",
",#	c #171D1D",
"'#	c #060B08",
")#	c #1A1912",
"!#	c #2B281E",
"~#	c #3C3026",
"{#	c #1D1E20",
"]#	c #0F1B20",
"^#	c #0D1518",
"/#	c #060D0E",
"(#	c #060A05",
"_#	c #1E1D19",
":#	c #332C23",
"<#	c #2E2A23",
"[#	c #252626",
"}#	c #192323",
"|#	c #191E1F",
"1#	c #0D1615",
"2#	c #1B2325",
"3#	c #141D20",
"4#	c #162324",
"5#	c #241B19",
"6#	c #3F2E28",
"7#	c #2A2420",
"8#	c #3D3624",
"9#	c #503D30",
"0#	c #1A1C1C",
"a#	c #19282C",
"b#	c #162833",
"c#	c #09100E",
"d#	c #000004",
"e#	c #020403",
"f#	c #28211E",
"g#	c #171412",
"h#	c #0C110F",
"i#	c #0C100E",
"j#	c #091110",
"k#	c #13191A",
"l#	c #1C1A19",
"m#	c #211D1B",
"n#	c #403926",
"o#	c #3A3026",
"p#	c #292829",
"q#	c #162427",
"r#	c #121D1B",
"s#	c #0B1718",
"t#	c #152123",
"u#	c #101F22",
"v#	c #111D1E",
"w#	c #291E1B",
"x#	c #2D2318",
"y#	c #42342C",
"z#	c #201B17",
"A#	c #3A2D25",
"B#	c #514332",
"C#	c #2C2A28",
"D#	c #1B2227",
"E#	c #211F17",
"F#	c #61533B",
"G#	c #FDCB81",
"H#	c #FFD58C",
"I#	c #725843",
"J#	c #48372D",
"K#	c #32221F",
"L#	c #181B19",
"M#	c #0D1413",
"N#	c #101010",
"O#	c #0E1110",
"P#	c #141814",
"Q#	c #302B1C",
"R#	c #42352E",
"S#	c #4A352F",
"T#	c #2E2920",
"U#	c #192225",
"V#	c #0F1C1F",
"W#	c #0F1A1F",
"X#	c #132229",
"Y#	c #121F23",
"Z#	c #0F1C20",
"`#	c #27211E",
" $	c #2D251E",
".$	c #382F24",
"+$	c #1E1C16",
"@$	c #27231D",
"#$	c #332D24",
"$$	c #222930",
"%$	c #1A3141",
"&$	c #182F3E",
"*$	c #1E2427",
"=$	c #372C22",
"-$	c #604230",
";$	c #634531",
">$	c #362F22",
",$	c #4A3A2C",
"'$	c #42342B",
")$	c #111514",
"!$	c #090F0D",
"~$	c #060A08",
"{$	c #0E100D",
"]$	c #141412",
"^$	c #25231C",
"/$	c #29261D",
"($	c #322A21",
"_$	c #252628",
":$	c #172F37",
"<$	c #152E37",
"[$	c #122731",
"}$	c #122530",
"|$	c #132B3A",
"1$	c #223130",
"2$	c #3F3329",
"3$	c #251E1C",
"4$	c #2A2A22",
"5$	c #272420",
"6$	c #23201A",
"7$	c #403227",
"8$	c #3E382C",
"9$	c #23282C",
"0$	c #1F3742",
"a$	c #1A3A52",
"b$	c #0D2937",
"c$	c #0C1212",
"d$	c #060805",
"e$	c #040502",
"f$	c #090908",
"g$	c #5E4636",
"h$	c #312320",
"i$	c #141818",
"j$	c #0B0B0A",
"k$	c #090B07",
"l$	c #191A11",
"m$	c #201A15",
"n$	c #261E1A",
"o$	c #2F2220",
"p$	c #392F25",
"q$	c #26221D",
"r$	c #161B1D",
"s$	c #0F1A1B",
"t$	c #0C1518",
"u$	c #081312",
"v$	c #0C1719",
"w$	c #090F0E",
"x$	c #0B1011",
"y$	c #423225",
"z$	c #1F1D17",
"A$	c #29201D",
"B$	c #2B221E",
"C$	c #231E16",
"D$	c #1E1918",
"E$	c #100F0C",
"F$	c #0A0A09",
"G$	c #0F0E0A",
"H$	c #171815",
"I$	c #181A19",
"J$	c #161814",
"K$	c #1B1C1A",
"L$	c #2E2B27",
"M$	c #3C362F",
"N$	c #363430",
"O$	c #34312D",
"P$	c #342E29",
"Q$	c #352D2B",
"R$	c #12110D",
"S$	c #1A1613",
"T$	c #251E19",
"U$	c #211B14",
"V$	c #11100C",
"W$	c #0C0D0B",
"X$	c #090A08",
"Y$	c #070C0A",
"Z$	c #0E140F",
"`$	c #231E18",
" %	c #372D1F",
".%	c #433626",
"+%	c #332C1D",
"@%	c #191712",
"#%	c #0B0C0B",
"$%	c #080807",
"%%	c #040805",
"&%	c #101311",
"*%	c #211D19",
"=%	c #28211A",
"-%	c #3C2E22",
";%	c #1C1917",
">%	c #121917",
",%	c #141C1D",
"'%	c #0D1515",
")%	c #111C1E",
"!%	c #574639",
"~%	c #2A2119",
"{%	c #413128",
"]%	c #2F2920",
"^%	c #1D1914",
"/%	c #171712",
"(%	c #0A0D09",
"_%	c #22211F",
":%	c #4B342D",
"<%	c #231C18",
"[%	c #2A2418",
"}%	c #3A351E",
"|%	c #201F17",
"1%	c #1C1D1B",
"2%	c #1B221D",
"3%	c #0F1618",
"4%	c #101816",
"5%	c #4E402A",
"6%	c #2B2319",
"7%	c #3E3525",
"8%	c #372E24",
"9%	c #1E1D1B",
"0%	c #1E1C1A",
"a%	c #0F1614",
"b%	c #0B0E0B",
"c%	c #1B1C17",
"d%	c #3D2721",
"e%	c #221F17",
"f%	c #2A221B",
"g%	c #3B2C23",
"h%	c #222118",
"i%	c #1B2122",
"j%	c #161B1C",
"k%	c #1A1E21",
"l%	c #0D191A",
"m%	c #081212",
"n%	c #212D31",
"o%	c #453428",
"p%	c #2A231A",
"q%	c #42322A",
"r%	c #322928",
"s%	c #3E2E26",
"t%	c #232321",
"u%	c #222422",
"v%	c #131C1F",
"w%	c #0E1313",
"x%	c #12120F",
"y%	c #2B2B2A",
"z%	c #35281F",
"A%	c #1C1A13",
"B%	c #28241A",
"C%	c #362C23",
"D%	c #211E1D",
"E%	c #1A1E1C",
"F%	c #131E1E",
"G%	c #151D1D",
"H%	c #0E1515",
"I%	c #1E292E",
"J%	c #43332D",
"K%	c #433A29",
"L%	c #332F27",
"M%	c #3A2D30",
"N%	c #252325",
"O%	c #212427",
"P%	c #151E20",
"Q%	c #0D1618",
"R%	c #151515",
"S%	c #1C1D1D",
"T%	c #271F19",
"U%	c #191812",
"V%	c #28211D",
"W%	c #362D1F",
"X%	c #1F1E17",
"Y%	c #191D19",
"Z%	c #111B19",
"`%	c #111A1C",
" &	c #0A110F",
".&	c #19272A",
"+&	c #392E28",
"@&	c #2A2818",
"#&	c #49382A",
"$&	c #342B29",
"%&	c #392F2F",
"&&	c #262525",
"*&	c #27282A",
"=&	c #122126",
"-&	c #0F1D23",
";&	c #121715",
">&	c #191618",
",&	c #221C12",
"'&	c #181711",
")&	c #242418",
"!&	c #2E2520",
"~&	c #19181A",
"{&	c #141D1F",
"]&	c #10191A",
"^&	c #0D1414",
"/&	c #0E1617",
"(&	c #342922",
"_&	c #2E231F",
":&	c #47392B",
"<&	c #2E2A25",
"[&	c #3B312C",
"}&	c #262729",
"|&	c #282826",
"1&	c #152125",
"2&	c #131816",
"3&	c #161715",
"4&	c #171512",
"5&	c #1F1B17",
"6&	c #232119",
"7&	c #141714",
"8&	c #111919",
"9&	c #10171A",
"0&	c #0D1314",
"a&	c #08120F",
"b&	c #131C1E",
"c&	c #2C251B",
"d&	c #32271C",
"e&	c #45382A",
"f&	c #2C2626",
"g&	c #3A2F2E",
"h&	c #292722",
"i&	c #282929",
"j&	c #0F1C22",
"k&	c #131A1C",
"l&	c #151614",
"m&	c #12130E",
"n&	c #12140F",
"o&	c #181816",
"p&	c #1F1B19",
"q&	c #151516",
"r&	c #131814",
"s&	c #0F1617",
"t&	c #0E1718",
"u&	c #0E1315",
"v&	c #2C2419",
"w&	c #302621",
"x&	c #463928",
"y&	c #2A2720",
"z&	c #3B332B",
"A&	c #272721",
"B&	c #242728",
"C&	c #151F20",
"D&	c #0F1C1C",
"E&	c #111716",
"F&	c #141514",
"G&	c #0D0C08",
"H&	c #0F100E",
"I&	c #161614",
"J&	c #1D1D15",
"K&	c #11140E",
"L&	c #111714",
"M&	c #0E1513",
"N&	c #0D1415",
"O&	c #0A0F0F",
"P&	c #0A1010",
"Q&	c #2A251F",
"R&	c #41342B",
"S&	c #3D312B",
"T&	c #372F2B",
"U&	c #23232A",
"V&	c #112023",
"W&	c #0E1C1D",
"X&	c #0C1819",
"Y&	c #121717",
"Z&	c #302923",
"`&	c #0A0C0B",
" *	c #0C0D0C",
".*	c #11140F",
"+*	c #151715",
"@*	c #111617",
"#*	c #0E171A",
"$*	c #0E1819",
"%*	c #0B161A",
"&*	c #09141A",
"**	c #0C1413",
"=*	c #191814",
"-*	c #272217",
";*	c #393228",
">*	c #3B3628",
",*	c #2C2725",
"'*	c #171B1D",
")*	c #11171B",
"!*	c #0C1515",
"~*	c #0A1110",
"{*	c #080F0E",
"]*	c #090E0C",
"^*	c #2D2D2C",
"/*	c #19140C",
"(*	c #080A07",
"_*	c #0B0D09",
":*	c #10110F",
"<*	c #141611",
"[*	c #0E1111",
"}*	c #090F0F",
"|*	c #080F0F",
"1*	c #0A0F0E",
"2*	c #080E0E",
"3*	c #060C0B",
"4*	c #080B0B",
"5*	c #191B10",
"6*	c #2F281C",
"7*	c #42342A",
"8*	c #3F3626",
"9*	c #2A241D",
"0*	c #18191A",
"a*	c #0F1214",
"b*	c #0C1312",
"c*	c #0B0D0E",
"d*	c #070D0A",
"e*	c #232423",
"f*	c #1E1210",
"g*	c #070B09",
"h*	c #0F0F0E",
"i*	c #0D0E0C",
"j*	c #0A0D0A",
"k*	c #080C0B",
"l*	c #070C08",
"m*	c #080E0B",
"n*	c #070D0B",
"o*	c #070C0B",
"p*	c #060B0A",
"q*	c #191612",
"r*	c #362C26",
"s*	c #332922",
"t*	c #221D1B",
"u*	c #141616",
"v*	c #0D1110",
"w*	c #0A1111",
"x*	c #0C1010",
"y*	c #0E0E0B",
"z*	c #151613",
"A*	c #070908",
"B*	c #090B09",
"C*	c #0A0E0D",
"D*	c #0D100E",
"E*	c #0E1312",
"F*	c #0F1616",
"                                            . + @                       ",
"                # $ % & * = - ;       > , ' ) ! ~ { ]                   ",
"                ^ / ( _ : < [ }       | 1 2 3 4 5 6 7                   ",
"              8 9 0 a b c d e f       g h i j k l m n                   ",
"              o p q r s t u v w x   y z A B C D E F G H                 ",
"              I J K L M N O P Q R S T U V W X Y Z `  ...                ",
"              +.@.#.$.%.&.*.=.-.;.>.,.'.).!.~.{.].^./.                  ",
"                (._.:.<.[.}.|.1.2.3.4.5.6.7.8.9.0.a.b.c.d.e.f.          ",
"        g.h.i.j.k.l.m.n.o.p.q.r.s.t.u.v.w.x.y.%.z.A.B.C.D.E.F.G.H.      ",
"    I.J.K.L.M.N.O.P.Q.R.S.T.U.V.W.X.Y.Z.`. +.+++@+#+$+%+&+*+=+-+;+      ",
"    >+,+L.'+)+!+~+{+]+^+/+(+_+:+<+[+}+|+1+2+3+4+5+6+7+8+9+0+a+b+        ",
"      c+d+e+f+g+h+i+j+k+l+m+n+o+p+q+r+s+t+u+v+w+x+y+z+A+B+C+D+E+        ",
"      F+G+H+I+J+K+L+M+N+O+P+Q+R+S+T+U+V+W+X+Y+Z+`+ @.@+@@@#@$@%@        ",
"    &@*@=@-@;@>@,@'@)@!@~@{@]@^@/@(@_@:@<@O+[@}@|@1@2@3@4@5@6@7@8@      ",
"    9@0@a@b@c@d@e@f@g@h@i@j@k@l@m@n@o@V+,.p@q@r@s@t@u@v@w@x@y@z@A@      ",
"    B@C@D@E@F@G@H@I@J@K@L@M@N@O@P@Q@R@S@T@U@V@W@X@Y@Z@`@ #.#+#N @#      ",
"    ##$#%#&#*#=#-#;#>#,#'#d+)#!#~#{#]#^#/#(#T._#:#<#[#}#|#1#2#3#4#      ",
"    5#) 6#7#8#9#0#a#b#c#d#v.v.e#f#g#h#i#j#k#l#m#n#o#p#q#r#s#t#u#v#      ",
"    w#x#y#z#A#B#C#D#!@E#F#G#H#I#J#K#L#M#N#O#P#Q#R#S#T#U#V#W#X#Y#Z#      ",
"    `# $.$+$@$#$$$%$&$*$=$-$;$>$,$'$)$!$~${$]$^$/$($_$:$<$[$}$|$Z#1$    ",
"  2$3$4$5$6$7$8$9$0$a$b$c$d$e$f$g$h$i$j$k$l$m$n$o$p$q$r$s$t$u$v$w$x$    ",
"  y$z$A$B$C$D$g#E$F$G$H$I$J$K$L$        M$N$O$P$Q$R$S$T$U$V$W$X$Y$Z$    ",
"    `$ %.%+%@%#%$%%%&%                            *%=%-%=%;%>%,%'%)%    ",
"  !%~%{%]%g.^%/%(%X$_%                          :%<%[%}%|%1%%@2%3%4%    ",
"  5%6%7%T#8%9%0%a%b%c%                          d%e%f%g%h%i%j%k%l%m%n%  ",
"  o%p%q%r%s%t%u%v%w%x%y%                        z%A%B%C%D%E%F%G%H%=+I%  ",
"  J%6%K%L%M%N%O%P%Q%R%S%                        T%U%V%W%X%Y%Z%`%'% &.&  ",
"  +&@&#&$&%&&&*&=&-&;&>&                        ,&'&)&!&~&{&]&q+^&c#/&  ",
"  (&_&:&<&[&}&|&1&-&2&3&                        '&4&5&6&7&i$8&9&0&a&b&  ",
"  c&d&e&f&g&h&i&P%j&k&l&                        m&n&o&p&q&r&s&t&- u$u&  ",
"  v&w&x&y&z&A&B&C&D&E&F&                        G&H&I&J&K&L&M&N&c#O&P&  ",
"  d+Q&R&S&T&U& #V&W&X&Y&                      Z&`& *.*I&+*@*#*$*%*&***  ",
"  =*-*;*>*,*'*)*!*~*{*]*^*                    /*(*_*:*<*[*}*|*1*2*3*4*  ",
"  5*6*7*8*9*0*a*b*c*d*X$e*                    f*g*X$h*i*j*k*l*m*n*o*p*  ",
"  q*%.r*s*t*u*v*w*x*v*7&                        y*z*.+k$A*B*C*D*E*E&F*  ",
"                                                                        "};
