/* XPM */
static char * geda_name_value_28x28_xpm[] = {
"28 28 501 2",
"  	c None",
". 	c #99BD7B",
"+ 	c #6B8D4F",
"@ 	c #A1BDDC",
"# 	c #72AC8F",
"$ 	c #B3B8A6",
"% 	c #A9C845",
"& 	c #779B51",
"* 	c #509657",
"= 	c #5F8C93",
"- 	c #7C86D2",
"; 	c #A2C073",
"> 	c #8AB470",
", 	c #78AB67",
"' 	c #8DAF3C",
") 	c #DBE704",
"! 	c #91B72B",
"~ 	c #5C9C42",
"{ 	c #5F936C",
"] 	c #5B8F70",
"^ 	c #669275",
"/ 	c #DAEAB5",
"( 	c #87AB5E",
"_ 	c #6DA73D",
": 	c #6BA820",
"< 	c #93BD16",
"[ 	c #C6DB0E",
"} 	c #E0EA09",
"| 	c #BED70D",
"1 	c #91BD14",
"2 	c #6AA51D",
"3 	c #3D8E29",
"4 	c #338146",
"5 	c #3E8660",
"6 	c #AEC682",
"7 	c #338520",
"8 	c #5FA213",
"9 	c #BBD40D",
"0 	c #DDE806",
"a 	c #E3F003",
"b 	c #CEE10D",
"c 	c #D6E508",
"d 	c #C1DA07",
"e 	c #AFCF0B",
"f 	c #93BD0F",
"g 	c #3A8E11",
"h 	c #267D46",
"i 	c #D3E58E",
"j 	c #378829",
"k 	c #5EA20F",
"l 	c #DDE809",
"m 	c #E4EE08",
"n 	c #9DC425",
"o 	c #517B4F",
"p 	c #C6E008",
"q 	c #5B972C",
"r 	c #7DB323",
"s 	c #B9D60F",
"t 	c #A5CA0C",
"u 	c #A9CB06",
"v 	c #75AA2C",
"w 	c #505854",
"x 	c #717076",
"y 	c #699A6C",
"z 	c #3C900D",
"A 	c #F5F40A",
"B 	c #DAE907",
"C 	c #93B03B",
"D 	c #5556B8",
"E 	c #909383",
"F 	c #B2D303",
"G 	c #85A24E",
"H 	c #6E6FB5",
"I 	c #73926C",
"J 	c #94C11E",
"K 	c #A4CB06",
"L 	c #7CAD2C",
"M 	c #525E5F",
"N 	c #35373A",
"O 	c #5E798B",
"P 	c #628FB8",
"Q 	c #648EB3",
"R 	c #648DB1",
"S 	c #668EB4",
"T 	c #6890B3",
"U 	c #6991B3",
"V 	c #6A91B5",
"W 	c #668BA7",
"X 	c #678B9D",
"Y 	c #056E4A",
"Z 	c #DCE807",
"` 	c #E2EC0A",
" .	c #BFD70E",
"..	c #72A72A",
"+.	c #4D982B",
"@.	c #909A74",
"#.	c #ABCF03",
"$.	c #7EA343",
"%.	c #DAE6E5",
"&.	c #A1C089",
"*.	c #90BD18",
"=.	c #73A92B",
"-.	c #6E7677",
";.	c #3B3D3F",
">.	c #3B4952",
",.	c #557990",
"'.	c #5B8CB2",
").	c #568DB3",
"!.	c #ABC4D9",
"~.	c #B6CADD",
"{.	c #B5C9DB",
"].	c #AFC5D8",
"^.	c #AAC3D3",
"/.	c #789CAB",
"(.	c #51982B",
"_.	c #EDF307",
":.	c #C9DE0C",
"<.	c #C4DC0A",
"[.	c #98C40C",
"}.	c #80A73F",
"|.	c #739159",
"1.	c #A5CB04",
"2.	c #789F47",
"3.	c #AFC5B7",
"4.	c #96BC59",
"5.	c #6BA42C",
"6.	c #5D6666",
"7.	c #3B3E40",
"8.	c #50514E",
"9.	c #485D73",
"0.	c #316D9B",
"a.	c #F9FBFC",
"b.	c #FFFFFF",
"c.	c #FCFCFA",
"d.	c #AFBBBB",
"e.	c #E0E4E4",
"f.	c #B2CEDB",
"g.	c #5584CA",
"h.	c #76AB29",
"i.	c #D9E70A",
"j.	c #C3DA0C",
"k.	c #C0D90C",
"l.	c #B8D40B",
"m.	c #AED009",
"n.	c #A0C515",
"o.	c #A7CC08",
"p.	c #769F3C",
"q.	c #4A8273",
"r.	c #C0D2EF",
"s.	c #98BB7B",
"t.	c #6AA14B",
"u.	c #6C8189",
"v.	c #5D819A",
"w.	c #5A717B",
"x.	c #396072",
"y.	c #729BB8",
"z.	c #B5C8CE",
"A.	c #D2D6D6",
"B.	c #C3CED2",
"C.	c #75888F",
"D.	c #CAD7D8",
"E.	c #A2C1E2",
"F.	c #2A6757",
"G.	c #D5EA04",
"H.	c #BBD60E",
"I.	c #B5D30C",
"J.	c #B4D20B",
"K.	c #B4D10C",
"L.	c #B9D50C",
"M.	c #9AC40E",
"N.	c #9CC117",
"O.	c #77A538",
"P.	c #638B5B",
"Q.	c #85798B",
"R.	c #88B09A",
"S.	c #709B83",
"T.	c #4F809C",
"U.	c #52829E",
"V.	c #7DA8BF",
"W.	c #C1D6DF",
"X.	c #EFF4F7",
"Y.	c #D6DFE2",
"Z.	c #697E83",
"`.	c #D9DAD6",
" +	c #B9C2C6",
".+	c #75868A",
"++	c #A8C9D6",
"@+	c #CAD7E8",
"#+	c #7AA807",
"$+	c #C1DD06",
"%+	c #B1D00E",
"&+	c #ACCD0B",
"*+	c #A8CC0B",
"=+	c #ADCF0C",
"-+	c #9FC70D",
";+	c #9FC40C",
">+	c #88B70E",
",+	c #6DA424",
"'+	c #5B8E56",
")+	c #7C917E",
"!+	c #7C9687",
"~+	c #6193B2",
"{+	c #5C92B2",
"]+	c #8AB5CD",
"^+	c #EFF6FA",
"/+	c #F3F5F4",
"(+	c #6F7C7C",
"_+	c #D0E1E5",
":+	c #CDD4D4",
"<+	c #6A7F80",
"[+	c #D0DADB",
"}+	c #9AABAF",
"|+	c #567076",
"1+	c #C4DDE6",
"2+	c #80A7A7",
"3+	c #77AC07",
"4+	c #ADCF09",
"5+	c #ACCE0C",
"6+	c #B2D10B",
"7+	c #B6D40B",
"8+	c #8FBC0B",
"9+	c #8AB80B",
"0+	c #589E16",
"a+	c #578D54",
"b+	c #658C6E",
"c+	c #5E90B2",
"d+	c #5D91B3",
"e+	c #94BAD1",
"f+	c #EEF3F5",
"g+	c #A6AEAB",
"h+	c #5B6F76",
"i+	c #D1E1E8",
"j+	c #ADBDC1",
"k+	c #62858D",
"l+	c #CEE5EB",
"m+	c #8698A0",
"n+	c #506972",
"o+	c #C4DDE4",
"p+	c #6A9B95",
"q+	c #689E1B",
"r+	c #97C10C",
"s+	c #9EC60D",
"t+	c #B9D60A",
"u+	c #BFDA0A",
"v+	c #ABCD0A",
"w+	c #88B80B",
"x+	c #7BB10A",
"y+	c #348D0F",
"z+	c #518A5D",
"A+	c #5F95B3",
"B+	c #5D94B3",
"C+	c #9AC0D6",
"D+	c #B7C2C5",
"E+	c #AFBABD",
"F+	c #FDFEFF",
"G+	c #86969D",
"H+	c #667C82",
"I+	c #D1E1E7",
"J+	c #8FAAB4",
"K+	c #6E909A",
"L+	c #D3EAF0",
"M+	c #83979D",
"N+	c #526B72",
"O+	c #B2CBD9",
"P+	c #5E8F9D",
"Q+	c #54893D",
"R+	c #7DB014",
"S+	c #96C10C",
"T+	c #A0C70B",
"U+	c #B7D40A",
"V+	c #B7D50A",
"W+	c #A8CA0A",
"X+	c #93BE0C",
"Y+	c #73AD08",
"Z+	c #20811F",
"`+	c #57876B",
" @	c #5F8EB0",
".@	c #5A8DB0",
"+@	c #84B0CB",
"@@	c #DEEAEF",
"#@	c #859BA3",
"$@	c #8C9CA3",
"%@	c #F4F6F7",
"&@	c #94A4A8",
"*@	c #71848B",
"=@	c #CBD9DF",
"-@	c #859FA8",
";@	c #6C8E98",
">@	c #CDE5EE",
",@	c #9DA8AF",
"'@	c #617981",
")@	c #A7C1D1",
"!@	c #608BAD",
"~@	c #48755A",
"{@	c #679C2C",
"]@	c #82B60F",
"^@	c #9DC60B",
"/@	c #A9CC0A",
"(@	c #B2D00A",
"_@	c #A6CA09",
":@	c #8FBC0C",
"<@	c #3A9102",
"[@	c #44845E",
"}@	c #5580AA",
"|@	c #4F84AD",
"1@	c #A2C4DA",
"2@	c #F1F8FA",
"3@	c #728A94",
"4@	c #798A91",
"5@	c #E4E9EC",
"6@	c #9DACB2",
"7@	c #758B92",
"8@	c #C8D9DE",
"9@	c #89A2A9",
"0@	c #627E8B",
"a@	c #B2D4C4",
"b@	c #6F9298",
"c@	c #6795A6",
"d@	c #629CC1",
"e@	c #416A98",
"f@	c #69866E",
"g@	c #5DA20F",
"h@	c #60A316",
"i@	c #81B70B",
"j@	c #9BC50A",
"k@	c #A4C90A",
"l@	c #98C10B",
"m@	c #75AF08",
"n@	c #1D7D36",
"o@	c #457296",
"p@	c #3C77A3",
"q@	c #96BDD8",
"r@	c #D5E8EF",
"s@	c #7E97A0",
"t@	c #70848A",
"u@	c #DBE2E5",
"v@	c #A1B1B6",
"w@	c #7D949B",
"x@	c #DEE9EB",
"y@	c #A8ACB7",
"z@	c #0E7421",
"A@	c #4F908A",
"B@	c #5487B4",
"C@	c #3C7BAB",
"D@	c #5D7D8B",
"E@	c #818F73",
"F@	c #559F0B",
"G@	c #46883A",
"H@	c #598D44",
"I@	c #72B108",
"J@	c #8DBD0C",
"K@	c #94C00A",
"L@	c #78B009",
"M@	c #278324",
"N@	c #496E8B",
"O@	c #3A74A5",
"P@	c #7DADCD",
"Q@	c #D9EBED",
"R@	c #839FA6",
"S@	c #6B7E85",
"T@	c #E4E9E9",
"U@	c #91A6B1",
"V@	c #759098",
"W@	c #EEEFFA",
"X@	c #6DAB3F",
"Y@	c #297648",
"Z@	c #3D6FAB",
"`@	c #4C7DA1",
" #	c #C3C7CB",
".#	c #95A386",
"+#	c #499709",
"@#	c #568D4D",
"##	c #9FA6C0",
"$#	c #6E9F4A",
"%#	c #74B107",
"&#	c #89BB0B",
"*#	c #6FAA0B",
"=#	c #258125",
"-#	c #486E8F",
";#	c #2F70AB",
">#	c #76ABC6",
",#	c #E1F0F1",
"'#	c #7C99A1",
")#	c #73888D",
"!#	c #E4ECEE",
"~#	c #A0B8C4",
"{#	c #638CAE",
"]#	c #63A90B",
"^#	c #418B26",
"/#	c #33646B",
"(#	c #4F5A78",
"_#	c #96A88F",
":#	c #40940A",
"<#	c #4E8B47",
"[#	c #7DA981",
"}#	c #5D9F16",
"|#	c #8FBF09",
"1#	c #63A406",
"2#	c #338745",
"3#	c #497091",
"4#	c #2F6FAB",
"5#	c #74ABC8",
"6#	c #D4E7EC",
"7#	c #6C8890",
"8#	c #7E9499",
"9#	c #F3F7F7",
"0#	c #A6BCD8",
"a#	c #58A106",
"b#	c #68A812",
"c#	c #4D9426",
"d#	c #547F5A",
"e#	c #D1DAD4",
"f#	c #A0AC99",
"g#	c #39910D",
"h#	c #4D8B4A",
"i#	c #A9B7BF",
"j#	c #609749",
"k#	c #6EAD06",
"l#	c #7BB20F",
"m#	c #258803",
"n#	c #66866B",
"o#	c #53708C",
"p#	c #3271A9",
"q#	c #80B1CC",
"r#	c #C2D8DF",
"s#	c #698993",
"t#	c #6F9EB3",
"u#	c #6B8FC0",
"v#	c #58A207",
"w#	c #87B90F",
"x#	c #7BB20C",
"y#	c #7BB608",
"z#	c #71AA1D",
"A#	c #719A3C",
"B#	c #3B9113",
"C#	c #458E2D",
"D#	c #64A313",
"E#	c #7EB506",
"F#	c #81B60D",
"G#	c #529D0C",
"H#	c #3C8641",
"I#	c #7C7A6C",
"J#	c #51738C",
"K#	c #3975AB",
"L#	c #93BAD2",
"M#	c #8BBBD4",
"N#	c #387BAD",
"O#	c #3A5A8E",
"P#	c #519F14",
"Q#	c #7DB312",
"R#	c #91C00A",
"S#	c #96C209",
"T#	c #A8CD03",
"U#	c #CDE400",
"V#	c #409015",
"W#	c #92C00A",
"X#	c #9AC410",
"Y#	c #74AE0E",
"Z#	c #49951B",
"`#	c #378540",
" $	c #628C6D",
".$	c #737B72",
"+$	c #54748B",
"@$	c #407BAD",
"#$	c #407BAE",
"$$	c #4E799C",
"%$	c #677290",
"&$	c #52964A",
"*$	c #609B41",
"=$	c #5E9A38",
"-$	c #5AA023",
";$	c #5C9F1F",
">$	c #5A9E19",
",$	c #3E920E",
"'$	c #489416",
")$	c #48932C",
"!$	c #3E8C3A",
"~$	c #458957",
"{$	c #609078",
"]$	c #6D7D82",
"^$	c #5F85AD",
"/$	c #5E8AB6",
"($	c #64859E",
"_$	c #5A9661",
":$	c #6D9470",
"<$	c #668E85",
"[$	c #55985E",
"}$	c #589B4E",
"|$	c #578A57",
"1$	c #288221",
"2$	c #3C8548",
"3$	c #559570",
"4$	c #5E977C",
"5$	c #568F68",
"6$	c #698BAD",
"7$	c #6991B9",
"8$	c #6F9092",
"9$	c #609D6C",
"0$	c #75877E",
"a$	c #2D8038",
"b$	c #558C67",
"                                                        ",
"                                        . +             ",
"                                  @ # $ % & * = -       ",
"                                ; > , ' ) ! ~ { ] ^     ",
"                            / ( _ : < [ } | 1 2 3 4 5   ",
"                            6 7 8 9 0 a b c d e f g h   ",
"                          i j k l m n o p q r s t u v   ",
"w x                       y z A B C D E F G H I J K L   ",
"M N O P Q R S T U V W X   Y Z `  ...+.@.#.$.  %.&.*.=.  ",
"-.;.>.,.'.).!.~.{.].^./.  (._.:.<.[.}.|.1.2.    3.4.5.  ",
"  6.7.8.9.0.a.b.c.d.e.f.g.h.i.j.k.l.m.n.o.p.q.  r.s.t.  ",
"  u.v.w.x.y.a.z.A.B.C.D.E.F.G.H.I.J.K.L.M.N.O.P.Q.R.S.  ",
"  T.U.V.W.X.b.Y.Z.`. +.+++@+#+$+%+&+*+=+-+;+>+,+'+)+!+  ",
"  ~+{+]+^+/+(+_+:+<+[+}+|+1+2+3+4+5+e 6+7+*+8+9+0+a+b+  ",
"  c+d+e+f+b.g+h+i+j+k+l+m+n+o+p+q+r+s+*+t+u+v+w+x+y+z+  ",
"  A+B+C+D+E+F+G+H+I+J+K+L+M+N+O+P+Q+R+S+T+U+V+W+X+Y+Z+`+",
"   @.@+@@@#@$@%@&@*@=@-@;@>@,@'@)@!@~@{@]@^@/@(@_@:@<@[@",
"    }@|@1@2@3@4@5@6@7@8@9@0@a@b@c@d@e@f@g@h@i@j@k@l@m@n@",
"      o@p@q@r@s@t@u@v@w@x@y@z@A@B@C@D@E@F@G@H@I@J@K@L@M@",
"        N@O@P@Q@R@S@T@U@V@W@X@Y@Z@`@ #.#+#@###$#%#&#*#=#",
"          -#;#>#,#'#)#!#~#{#]#^#/#(#b._#:#<#  [#}#|#1#2#",
"            3#4#5#6#7#8#9#0#a#b#c#d#e#f#g#h#i#j#k#l#m#n#",
"              o#p#q#r#s#t#u#v#w#x#y#z#A#B#C#D#E#F#G#H#  ",
"              I#J#K#L#M#N#O#P#Q#R#S#T#U#V#W#X#Y#Z#`# $  ",
"                .$+$@$#$$$%$&$*$=$-$;$>$,$'$)$!$~${$    ",
"                  ]$^$/$($  _$:$<$[$}$|$1$2$3$4$5$      ",
"                    6$7$        8$9$  0$a$b$            ",
"                                                        "};
