/* XPM */
static char * geda_film_roll_32x32_xpm[] = {
"32 32 263 2",
"  	c None",
". 	c #3B3B3B",
"+ 	c #434343",
"@ 	c #494949",
"# 	c #424242",
"$ 	c #3F3F3F",
"% 	c #404040",
"& 	c #4F4F4F",
"* 	c #505050",
"= 	c #515151",
"- 	c #777777",
"; 	c #636363",
"> 	c #909090",
", 	c #5A5A5A",
"' 	c #414141",
") 	c #525252",
"! 	c #535353",
"~ 	c #868686",
"{ 	c #818181",
"] 	c #676767",
"^ 	c #CECECE",
"/ 	c #717171",
"( 	c #A5A5A5",
"_ 	c #606060",
": 	c #4A4A4A",
"< 	c #6F6F6F",
"[ 	c #6A6A6A",
"} 	c #6D6D6D",
"| 	c #646464",
"1 	c #6C6C6C",
"2 	c #565656",
"3 	c #484848",
"4 	c #474747",
"5 	c #626262",
"6 	c #4E4E4E",
"7 	c #323232",
"8 	c #363636",
"9 	c #3C3C3C",
"0 	c #373737",
"a 	c #333333",
"b 	c #343434",
"c 	c #3E3E3E",
"d 	c #2C2B26",
"e 	c #595959",
"f 	c #585858",
"g 	c #5D5D5D",
"h 	c #282828",
"i 	c #212121",
"j 	c #262418",
"k 	c #4A4A4B",
"l 	c #383838",
"m 	c #464646",
"n 	c #5C5C5C",
"o 	c #272727",
"p 	c #2D2D2D",
"q 	c #696969",
"r 	c #5E5E5E",
"s 	c #242424",
"t 	c #2B2916",
"u 	c #3B3C3D",
"v 	c #2E2E2E",
"w 	c #2F2F2F",
"x 	c #575757",
"y 	c #313131",
"z 	c #35321F",
"A 	c #323233",
"B 	c #5B5B5B",
"C 	c #656565",
"D 	c #202020",
"E 	c #3A3724",
"F 	c #333435",
"G 	c #666666",
"H 	c #3D3D3D",
"I 	c #25241A",
"J 	c #514D35",
"K 	c #454548",
"L 	c #444444",
"M 	c #4B4B4B",
"N 	c #2A2507",
"O 	c #7B7651",
"P 	c #6F6E67",
"Q 	c #646566",
"R 	c #4C4C4C",
"S 	c #090A0A",
"T 	c #342E06",
"U 	c #928B57",
"V 	c #DBD492",
"W 	c #6D6D69",
"X 	c #6D6D6F",
"Y 	c #808080",
"Z 	c #7F7F7F",
"` 	c #797979",
" .	c #2C2C2C",
"..	c #080808",
"+.	c #70706E",
"@.	c #494106",
"#.	c #9E9758",
"$.	c #E6DC8C",
"%.	c #DFD374",
"&.	c #8B8768",
"*.	c #64635F",
"=.	c #585854",
"-.	c #4D4C4A",
";.	c #434240",
">.	c #393836",
",.	c #2F2E2B",
"'.	c #21211E",
").	c #3B3B3A",
"!.	c #919191",
"~.	c #C7C7C7",
"{.	c #5D5405",
"].	c #A89F58",
"^.	c #BFB97B",
"/.	c #B7AD57",
"(.	c #EDDF57",
"_.	c #DACB48",
":.	c #B4A73D",
"<.	c #988D31",
"[.	c #8A7F27",
"}.	c #887D1F",
"|.	c #897C12",
"1.	c #655B01",
"2.	c #B9B6A0",
"3.	c #CCCDCE",
"4.	c #C6C6C6",
"5.	c #716708",
"6.	c #ADA45B",
"7.	c #FFF499",
"8.	c #B7AD5B",
"9.	c #9B9241",
"0.	c #BEB039",
"a.	c #EFDA29",
"b.	c #F7DF10",
"c.	c #E5CC00",
"d.	c #E3CB00",
"e.	c #D4BE00",
"f.	c #7B6E00",
"g.	c #B2B09A",
"h.	c #C8C8CA",
"i.	c #C5C5C7",
"j.	c #766B0C",
"k.	c #ADA55B",
"l.	c #FFF599",
"m.	c #FDEF75",
"n.	c #DFD257",
"o.	c #B8AA3A",
"p.	c #EAD62B",
"q.	c #B2A110",
"r.	c #8B7C00",
"s.	c #8C7D00",
"t.	c #A69500",
"u.	c #7E7000",
"v.	c #B2B09B",
"w.	c #C4C5C6",
"x.	c #786D11",
"y.	c #ACA45B",
"z.	c #E4DB8C",
"A.	c #F6E872",
"B.	c #F9E85D",
"C.	c #F8E444",
"D.	c #F5DF2C",
"E.	c #BAA910",
"F.	c #726600",
"G.	c #817300",
"H.	c #AF9C00",
"I.	c #7E7100",
"J.	c #B3B19C",
"K.	c #C4C4C6",
"L.	c #796F16",
"M.	c #AEA65E",
"N.	c #CABF60",
"O.	c #F5E55C",
"P.	c #F5E244",
"Q.	c #F5E02C",
"R.	c #A8990F",
"S.	c #6E6300",
"T.	c #776B00",
"U.	c #A29100",
"V.	c #807200",
"W.	c #B4B19C",
"X.	c #C3C4C5",
"Y.	c #786E1A",
"Z.	c #A69D50",
"`.	c #DCD38C",
" +	c #CFC364",
".+	c #BFB34C",
"++	c #E4D340",
"@+	c #F3DE2C",
"#+	c #C1AF11",
"$+	c #675C00",
"%+	c #746700",
"&+	c #B3A000",
"*+	c #7F7201",
"=+	c #B4B29E",
"-+	c #C2C2C4",
";+	c #796F1E",
">+	c #817725",
",+	c #F4EDA6",
"'+	c #C4B85C",
")+	c #DDCF54",
"!+	c #C3B53B",
"~+	c #EBD72B",
"{+	c #BDAB10",
"]+	c #665C00",
"^+	c #736700",
"/+	c #B09D00",
"(+	c #817302",
"_+	c #B5B29E",
":+	c #736919",
"<+	c #564E07",
"[+	c #DBD189",
"}+	c #EBDF75",
"|+	c #C0B44C",
"1+	c #D9C83E",
"2+	c #B0A010",
"3+	c #7D7000",
"4+	c #837400",
"5+	c #A69400",
"6+	c #827504",
"7+	c #B5B29F",
"8+	c #CCCDD0",
"9+	c #BEBBA5",
"0+	c #504600",
"a+	c #948A3A",
"b+	c #EFE488",
"c+	c #F7E867",
"d+	c #D6C63D",
"e+	c #EAD629",
"f+	c #F3DB12",
"g+	c #F4DA00",
"h+	c #ECD400",
"i+	c #CFB900",
"j+	c #7E7204",
"k+	c #BBBAA9",
"l+	c #CDCABB",
"m+	c #827933",
"n+	c #3B3501",
"o+	c #958C3E",
"p+	c #CFC462",
"q+	c #F3E464",
"r+	c #F8E547",
"s+	c #F3DE22",
"t+	c #EFD70B",
"u+	c #EAD312",
"v+	c #D9C623",
"w+	c #9C9237",
"x+	c #A59F70",
"y+	c #867E40",
"z+	c #2A2300",
"A+	c #696220",
"B+	c #948B34",
"C+	c #AEA138",
"D+	c #BEB037",
"E+	c #C1B232",
"F+	c #B7A82E",
"G+	c #A09329",
"H+	c #7E7629",
"I+	c #574F11",
"J+	c #3C370D",
"K+	c #514B19",
"L+	c #59521A",
"M+	c #4D4716",
"N+	c #363108",
"                                                                ",
"                                  . + @ @ #                     ",
"                      $ $ % & * = - ; > > ,                     ",
"                    ' ) ) ! ~ { ] ^ / ( ( _                     ",
"                    ' ) ) ! ~ { ] ^ / ( ( _                     ",
"                  + : < < [ } | ! 1 2 , , 3                     ",
"                  4 5 6 6 # 7 8 9 0 a b b c                     ",
"                d @ # 7 7 ' ] e f | g 9 9 h i                   ",
"                j k l m m n o p + 2 q r r 4 b s                 ",
"                t u 3 m m 2 v w + x q x x m 3 y                 ",
"                z A m + + B C : 6 x 6 b b ' @ c D               ",
"                E F + m m 4 g G e m p b b m m H I               ",
"                E F + m m 4 g G e m p b b m m H I               ",
"                J K @ + + L 3 3 + H c L L L M 0 N               ",
"                O P Q C C & ' ' + # ' R R | m S T               ",
"                U V W X X - Y Y { Z ` _ _  ...+.@.              ",
"                #.$.%.&.&.*.=.-.;.>.,.'.'.).!.~.{.              ",
"                ].^./.(.(._.:.<.[.}.|.1.1.2.3.4.5.              ",
"                6.7.8.9.9.0.a.b.c.d.e.f.f.g.h.i.j.              ",
"                k.l.m.n.n.o.p.q.r.s.t.u.u.v.h.w.x.              ",
"                k.l.m.n.n.o.p.q.r.s.t.u.u.v.h.w.x.              ",
"                y.z.A.B.B.C.D.E.F.G.H.I.I.J.h.K.L.              ",
"                M.z.N.O.O.P.Q.R.S.T.U.V.V.W.h.X.Y.              ",
"                Z.`. +.+.+++@+#+$+%+&+*+*+=+h.-+;+              ",
"                >+,+'+)+)+!+~+{+]+^+/+(+(+_+h.X.:+              ",
"                <+[+}+|+|+1+@+2+3+4+5+6+6+7+8+9+0+              ",
"                  a+b+c+c+d+e+f+g+h+i+j+j+k+l+m+                ",
"                  n+o+p+p+q+r+s+t+u+v+w+w+x+y+z+                ",
"                  n+o+p+p+q+r+s+t+u+v+w+w+x+y+z+                ",
"                      A+A+B+C+D+E+F+G+H+H+I+                    ",
"                            J+K+L+M+N+                          ",
"                                                                "};
