/* XPM */
static char * geda_name_value_32x32_xpm[] = {
"32 32 614 2",
"  	c None",
". 	c #99BD7E",
"+ 	c #C9C6BF",
"@ 	c #9BBF5E",
"# 	c #769956",
"$ 	c #96B9B2",
"% 	c #76AA75",
"& 	c #90A458",
"* 	c #C6DB0C",
"= 	c #86AA40",
"- 	c #5C9B4C",
"; 	c #589174",
"> 	c #6F8AAC",
", 	c #A3C07F",
"' 	c #85B445",
") 	c #7DAE42",
"! 	c #79AC2F",
"~ 	c #AECD1C",
"{ 	c #EBF006",
"] 	c #A9CA14",
"^ 	c #6FA927",
"/ 	c #639F3D",
"( 	c #5D974A",
"_ 	c #449048",
": 	c #6D9081",
"< 	c #D8E8B2",
"[ 	c #89AC63",
"} 	c #599D29",
"| 	c #5DA018",
"1 	c #84B70F",
"2 	c #BBD40B",
"3 	c #DCE70A",
"4 	c #D8E60C",
"5 	c #CBDF0C",
"6 	c #AECE0C",
"7 	c #89B80E",
"8 	c #539B16",
"9 	c #338925",
"0 	c #1B7832",
"a 	c #3E8862",
"b 	c #A3BE77",
"c 	c #2D831C",
"d 	c #4C9814",
"e 	c #AECD10",
"f 	c #E0E90B",
"g 	c #DEE908",
"h 	c #D8E809",
"i 	c #CCE00D",
"j 	c #CFE10B",
"k 	c #C2DB0A",
"l 	c #B9D60C",
"m 	c #B9D30D",
"n 	c #84B60F",
"o 	c #308913",
"p 	c #2A7F49",
"q 	c #CCE08A",
"r 	c #378929",
"s 	c #4E9A12",
"t 	c #D3E20B",
"u 	c #E3ED08",
"v 	c #D5E412",
"w 	c #78A93A",
"x 	c #517752",
"y 	c #C8E206",
"z 	c #5B962E",
"A 	c #6DA72C",
"B 	c #B5D317",
"C 	c #A9CD0D",
"D 	c #A3C80E",
"E 	c #ACCC07",
"F 	c #70A632",
"G 	c #4F5753",
"H 	c #727177",
"I 	c #6F9E6C",
"J 	c #308912",
"K 	c #E4EB0C",
"L 	c #E7EF08",
"M 	c #BAD513",
"N 	c #768C6D",
"O 	c #564FC9",
"P 	c #9CA56A",
"Q 	c #B3D401",
"R 	c #87A647",
"S 	c #7173AF",
"T 	c #6F8387",
"U 	c #85B62D",
"V 	c #A1C810",
"W 	c #A2CA08",
"X 	c #76A833",
"Y 	c #4E5B5C",
"Z 	c #353638",
"` 	c #5F7179",
" .	c #6590B8",
"..	c #638DB4",
"+.	c #668DB1",
"@.	c #658DB1",
"#.	c #638CB2",
"$.	c #648CB0",
"%.	c #648DB0",
"&.	c #658DB2",
"*.	c #648AAC",
"=.	c #65899F",
"-.	c #0C724F",
";.	c #C5DB0A",
">.	c #E7EF0B",
",.	c #D3E409",
"'.	c #97BC20",
").	c #57943B",
"!.	c #96A16C",
"~.	c #ADD101",
"{.	c #81A542",
"].	c #BBCFB7",
"^.	c #83B13B",
"/.	c #97C407",
"(.	c #6FA533",
"_.	c #6E7778",
":.	c #383739",
"<.	c #3E484F",
"[.	c #497290",
"}.	c #6294B8",
"|.	c #5E92BA",
"1.	c #6192B6",
"2.	c #85A8C7",
"3.	c #8FAECB",
"4.	c #90AFCA",
"5.	c #96B4D2",
"6.	c #87ABC9",
"7.	c #759AAC",
"8.	c #6E929E",
"9.	c #398A30",
"0.	c #EEF308",
"a.	c #CFE10C",
"b.	c #CEE20B",
"c.	c #A9CD0B",
"d.	c #71AC20",
"e.	c #77916A",
"f.	c #7D9066",
"g.	c #A6CD02",
"h.	c #7DA443",
"i.	c #A7C393",
"j.	c #88B720",
"k.	c #6AA332",
"l.	c #525A5B",
"m.	c #35383B",
"n.	c #4C504D",
"o.	c #5B707A",
"p.	c #4D7AA3",
"q.	c #538CB1",
"r.	c #FFFFFF",
"s.	c #FFFFFD",
"t.	c #CCD4D3",
"u.	c #FBF9F5",
"v.	c #E2EDF3",
"w.	c #729DB5",
"x.	c #84B729",
"y.	c #DAE80A",
"z.	c #C9DD0C",
"A.	c #C5DD0C",
"B.	c #BED80C",
"C.	c #A2C80B",
"D.	c #9DC714",
"E.	c #74A62A",
"F.	c #A8CD07",
"G.	c #769C46",
"H.	c #ADC4BF",
"I.	c #8AB748",
"J.	c #63A031",
"K.	c #727C7B",
"L.	c #424D54",
"M.	c #4F595F",
"N.	c #494440",
"O.	c #3E5770",
"P.	c #3974A3",
"Q.	c #F7F9FB",
"R.	c #A4B4B8",
"S.	c #748B94",
"T.	c #ECEDED",
"U.	c #AFD0DD",
"V.	c #5584BA",
"W.	c #61992C",
"X.	c #D5E50B",
"Y.	c #C2DA0D",
"Z.	c #BDD80C",
"`.	c #BBD60C",
" +	c #BCD60C",
".+	c #B5D10C",
"++	c #C7DD0B",
"@+	c #A3C90C",
"#+	c #81AC2A",
"$+	c #598D61",
"%+	c #90B480",
"&+	c #679B63",
"*+	c #6798B9",
"=+	c #658EA8",
"-+	c #62838B",
";+	c #477C96",
">+	c #B7CFDE",
",+	c #9DB7BF",
"'+	c #A9B3B4",
")+	c #8E9FA5",
"!+	c #60767D",
"~+	c #E5EDED",
"{+	c #ACCBE1",
"]+	c #29626F",
"^+	c #C6E106",
"/+	c #BCD70E",
"(+	c #B5D30D",
"_+	c #B1D10C",
":+	c #B0D00B",
"<+	c #B1D10D",
"[+	c #ACCE0F",
"}+	c #96C20F",
"|+	c #AACC0E",
"1+	c #91BA1D",
"2+	c #5E943D",
"3+	c #7B8C7C",
"4+	c #7FA69A",
"5+	c #6F9889",
"6+	c #507D95",
"7+	c #588DAB",
"8+	c #B4D2E2",
"9+	c #EBF2F5",
"0+	c #E9EEF0",
"a+	c #637B82",
"b+	c #A7ADA9",
"c+	c #89989D",
"d+	c #6C8086",
"e+	c #ABCEDB",
"f+	c #E7EDF6",
"g+	c #6D9E1D",
"h+	c #B9D805",
"i+	c #B1D10F",
"j+	c #B0CF0C",
"k+	c #A9CC0B",
"l+	c #A8CC0B",
"m+	c #AED00C",
"n+	c #A3C90D",
"o+	c #9FC40D",
"p+	c #8BB90B",
"q+	c #81B311",
"r+	c #56982E",
"s+	c #638C6B",
"t+	c #83917A",
"u+	c #6295B4",
"v+	c #5F98B8",
"w+	c #C0D9E6",
"x+	c #E6EAE9",
"y+	c #687676",
"z+	c #C7D9DE",
"A+	c #E8ECEC",
"B+	c #5F797C",
"C+	c #A2ACAA",
"D+	c #E3F1F5",
"E+	c #768A8E",
"F+	c #59737A",
"G+	c #C2DCE5",
"H+	c #87ACB8",
"I+	c #6CA419",
"J+	c #A5CA09",
"K+	c #ABCE0D",
"L+	c #ADCF0C",
"M+	c #B3D20B",
"N+	c #B7D50B",
"O+	c #ABCE0B",
"P+	c #91BE0B",
"Q+	c #94BD0C",
"R+	c #73AD0D",
"S+	c #479322",
"T+	c #5E8D64",
"U+	c #5F91B3",
"V+	c #669BBB",
"W+	c #C7DDE8",
"X+	c #FFFEFD",
"Y+	c #9AA3A1",
"Z+	c #5C6F76",
"`+	c #C9DBE3",
" @	c #D9E0E2",
".@	c #4C7078",
"+@	c #97B4BA",
"@@	c #DCEFF5",
"#@	c #6C7F87",
"$@	c #566F78",
"%@	c #C7E0E7",
"&@	c #71A0A6",
"*@	c #5C9529",
"=@	c #94BF0C",
"-@	c #9BC50F",
";@	c #A3C80C",
">@	c #ACCF0B",
",@	c #BBD70A",
"'@	c #BFDA0A",
")@	c #B2D10B",
"!@	c #8AB90B",
"~@	c #88B80C",
"{@	c #64A40C",
"]@	c #24831D",
"^@	c #5E8D6B",
"/@	c #6096B4",
"(@	c #669BBA",
"_@	c #CBE0EC",
":@	c #ABB2B1",
"<@	c #D0D6D8",
"[@	c #72858D",
"}@	c #5D747A",
"|@	c #D7E6EB",
"1@	c #BDD2DA",
"2@	c #4D737F",
"3@	c #9DB9C2",
"4@	c #DCEFF4",
"5@	c #687D83",
"6@	c #556F76",
"7@	c #C3DAE4",
"8@	c #6294A7",
"9@	c #467D4A",
"0@	c #76AB16",
"a@	c #90BF0D",
"b@	c #A0C70C",
"c@	c #A5CA0B",
"d@	c #BAD60A",
"e@	c #BAD70A",
"f@	c #ACCD0A",
"g@	c #93BF0C",
"h@	c #88B80D",
"i@	c #569E0A",
"j@	c #207E34",
"k@	c #5A886E",
"l@	c #6093B2",
"m@	c #5F97B6",
"n@	c #C6DDE9",
"o@	c #C8D5D9",
"p@	c #5A7781",
"q@	c #BFC8CD",
"r@	c #788B91",
"s@	c #61757C",
"t@	c #D7E4E9",
"u@	c #B5C9D0",
"v@	c #4B6D79",
"w@	c #9CBAC3",
"x@	c #DBEEF5",
"y@	c #718389",
"z@	c #58727B",
"A@	c #BBD3DD",
"B@	c #799CBA",
"C@	c #396A6C",
"D@	c #639429",
"E@	c #7AB015",
"F@	c #94C00E",
"G@	c #A7CB0B",
"H@	c #ABCD0B",
"I@	c #B5D20A",
"J@	c #B0D00A",
"K@	c #92BE0B",
"L@	c #82B50D",
"M@	c #1B800B",
"N@	c #58896E",
"O@	c #5D88B0",
"P@	c #5186B2",
"Q@	c #88B5D0",
"R@	c #CBD6DA",
"S@	c #4C646D",
"T@	c #B3BEC2",
"U@	c #FCFFFF",
"V@	c #7B8E95",
"W@	c #647A81",
"X@	c #D5E4E9",
"Y@	c #B1C5CB",
"Z@	c #486C77",
"`@	c #95B5C0",
" #	c #EFF6FA",
".#	c #74878E",
"+#	c #698791",
"@#	c #9DC6D4",
"##	c #4E81A9",
"$#	c #47677F",
"%#	c #5E8D4F",
"&#	c #65A70E",
"*#	c #82B80F",
"=#	c #9AC50C",
"-#	c #A1C80B",
";#	c #AACD0A",
">#	c #A6CB0A",
",#	c #7FB30C",
"'#	c #5CA20B",
")#	c #1F7C48",
"!#	c #4E789F",
"~#	c #3D79A5",
"{#	c #7DADCB",
"]#	c #F4FCFF",
"^#	c #A3BBC5",
"/#	c #4C636C",
"(#	c #ABB6BB",
"_#	c #F8FDFF",
":#	c #7F9298",
"<#	c #607A82",
"[#	c #D9E8EC",
"}#	c #B9C9CE",
"|#	c #4C616D",
"1#	c #5C9E74",
"2#	c #72A6A1",
"3#	c #5C91A9",
"4#	c #5391B1",
"5#	c #3C7EB3",
"6#	c #517187",
"7#	c #82956F",
"8#	c #59A20B",
"9#	c #439022",
"0#	c #5FA119",
"a#	c #8ABC0B",
"b#	c #94C10C",
"c#	c #9EC60B",
"d#	c #9CC40B",
"e#	c #70AC0C",
"f#	c #1D7E2D",
"g#	c #4A7393",
"h#	c #3372A4",
"i#	c #7CABCC",
"j#	c #DBEFF6",
"k#	c #A9C1C9",
"l#	c #4D686F",
"m#	c #A7B3B7",
"n#	c #F4F9FB",
"o#	c #8D9FA5",
"p#	c #6F8890",
"q#	c #E9F2F4",
"r#	c #D1D1D8",
"s#	c #046F0A",
"t#	c #338161",
"u#	c #5B8BB9",
"v#	c #3970A0",
"w#	c #4C85AB",
"x#	c #858D7D",
"y#	c #7F9469",
"z#	c #509D08",
"A#	c #4D8942",
"B#	c #5E8371",
"C#	c #5FA21B",
"D#	c #7BB40C",
"E#	c #8DBC0D",
"F#	c #8ABB0A",
"G#	c #6BA80C",
"H#	c #288324",
"I#	c #4E708B",
"J#	c #3572A7",
"K#	c #6CA1C5",
"L#	c #D8EDF0",
"M#	c #AAC5CB",
"N#	c #49636B",
"O#	c #A4B1B5",
"P#	c #FEFFFF",
"Q#	c #6E8B9A",
"R#	c #728D95",
"S#	c #8ABC4F",
"T#	c #2E7E30",
"U#	c #336997",
"V#	c #4979A6",
"W#	c #668DA0",
"X#	c #FBEEEA",
"Y#	c #7D976F",
"Z#	c #469607",
"`#	c #538D46",
" $	c #ADADD1",
".$	c #829F84",
"+$	c #5EA311",
"@$	c #87BA0C",
"#$	c #85B90C",
"$$	c #64A40D",
"%$	c #23802A",
"&$	c #486F91",
"*$	c #2F70AC",
"=$	c #69A2C1",
"-$	c #E2F2F5",
";$	c #A5C1CA",
">$	c #4E696F",
",$	c #A3B3B9",
"'$	c #F4FAFC",
")$	c #91ACBB",
"!$	c #5E89A7",
"~$	c #62A80D",
"{$	c #4E971B",
"]$	c #226754",
"^$	c #5E6D7F",
"/$	c #7B966F",
"($	c #3E9408",
"_$	c #4E8C46",
":$	c #96B8A2",
"<$	c #498E32",
"[$	c #7DB60A",
"}$	c #8EBD0B",
"|$	c #559C0A",
"1$	c #34874B",
"2$	c #487093",
"3$	c #2F6FAC",
"4$	c #639FC1",
"5$	c #D9ECF2",
"6$	c #A5BEC5",
"7$	c #425F66",
"8$	c #B0C0C4",
"9$	c #FAFDFE",
"0$	c #A0B8CF",
"a$	c #5AA20C",
"b$	c #6AA913",
"c$	c #4C9818",
"d$	c #528952",
"e$	c #678274",
"f$	c #879B7D",
"g$	c #37910A",
"h$	c #4A8A44",
"i$	c #B0BCCA",
"j$	c #719977",
"k$	c #549E0C",
"l$	c #86B90E",
"m$	c #6DAB0F",
"n$	c #1F8307",
"o$	c #68876F",
"p$	c #4B6F94",
"q$	c #3070AA",
"r$	c #6BA2C0",
"s$	c #CFE6ED",
"t$	c #94ADB6",
"u$	c #4F707B",
"v$	c #8CB5C6",
"w$	c #7A9DC4",
"x$	c #58A10D",
"y$	c #83B711",
"z$	c #73AD10",
"A$	c #6FAD0E",
"B$	c #73AF13",
"C$	c #669F3F",
"D$	c #5C894C",
"E$	c #3A9211",
"F$	c #358435",
"G$	c #549825",
"H$	c #73AE0C",
"I$	c #7EB50F",
"J$	c #86B90D",
"K$	c #48970D",
"L$	c #32833D",
"M$	c #7A7A6F",
"N$	c #497295",
"O$	c #2F6FAB",
"P$	c #7CAAC7",
"Q$	c #DFEDF1",
"R$	c #7CB3CC",
"S$	c #3679AD",
"T$	c #2F588F",
"U$	c #519F0E",
"V$	c #87B90E",
"W$	c #98C30B",
"X$	c #A2C80C",
"Y$	c #9FC70B",
"Z$	c #C1DB06",
"`$	c #D6E804",
" %	c #378B16",
".%	c #92C00E",
"+%	c #ADCE17",
"@%	c #92BF0A",
"#%	c #76B00C",
"$%	c #3F9113",
"%%	c #2D8234",
"&%	c #678D70",
"*%	c #757D72",
"=%	c #4A7192",
"-%	c #3978AE",
";%	c #558FB5",
">%	c #3D7BAE",
",%	c #40729E",
"'%	c #62718C",
")%	c #4D9733",
"!%	c #5A9E28",
"~%	c #68A817",
"{%	c #75B00E",
"]%	c #76B109",
"^%	c #7BB209",
"/%	c #84B70A",
"(%	c #489613",
"_%	c #6CAA0F",
":%	c #65A60E",
"<%	c #4F9919",
"[%	c #36882E",
"}%	c #3D864F",
"|%	c #619176",
"1%	c #6D7A75",
"2%	c #547999",
"3%	c #4781BB",
"4%	c #4F7EAA",
"5%	c #608198",
"6%	c #58965D",
"7%	c #699C56",
"8%	c #608D6C",
"9%	c #4A934C",
"0%	c #48933B",
"a%	c #4A9238",
"b%	c #3C8A2C",
"c%	c #308B0D",
"d%	c #2D8322",
"e%	c #3A894A",
"f%	c #488E5C",
"g%	c #3F8A4E",
"h%	c #6B9682",
"i%	c #708393",
"j%	c #5E91C8",
"k%	c #6B8EAF",
"l%	c #728A98",
"m%	c #619D75",
"n%	c #5E9B5F",
"o%	c #62A154",
"p%	c #65886A",
"q%	c #257F2B",
"r%	c #478857",
"s%	c #5D9A75",
"t%	c #6E9E8E",
"u%	c #72867C",
"v%	c #2D8139",
"w%	c #568D68",
"                                                                ",
"                                              .                 ",
"                                            + @ #               ",
"                                        $ % & * = - ; >         ",
"                                    , ' ) ! ~ { ] ^ / ( _ :     ",
"                                < [ } | 1 2 3 4 5 6 7 8 9 0 a   ",
"                                b c d e f g h i j k l m n o p   ",
"                              q r s t u v w x y z A B C D E F   ",
"G H                           I J K L M N O P Q R S T U V W X   ",
"Y Z `  ...+.@.#.$.%.&.*.=.    -.;.>.,.'.).  !.~.{.    ].^./.(.  ",
"_.:.<.[.}.|.1.2.3.4.5.6.7.8.  9.0.a.b.c.d.e.f.g.h.      i.j.k.  ",
"  l.m.n.o.p.q.r.r.s.t.u.v.w.  x.y.z.A.B.C.D.E.F.G.      H.I.J.  ",
"  K.L.M.N.O.P.Q.r.r.R.S.T.U.V.W.X.Y.Z.`. +.+++@+#+$+      %+&+  ",
"    *+=+-+;+>+r.,+'+r.)+!+~+{+]+^+/+(+_+:+<+[+}+|+1+2+3+  4+5+  ",
"    6+7+8+9+r.r.0+a+b+r.c+d+e+f+g+h+i+j+k+l+m+n+o+p+q+r+s+t+    ",
"    u+v+w+r.x+y+z+A+B+C+D+E+F+G+H+I+J+K+L+:+M+N+O+P+Q+R+S+T+    ",
"    U+V+W+X+r.Y+Z+`+ @.@+@@@#@$@%@&@*@=@-@;@>@,@'@)@!@~@{@]@^@  ",
"    /@(@_@:@<@r.[@}@|@1@2@3@4@5@6@7@8@9@0@a@b@c@d@e@f@g@h@i@j@k@",
"    l@m@n@o@p@q@r.r@s@t@u@v@w@x@y@z@A@B@C@D@E@F@G@H@I@J@K@L@M@N@",
"    O@P@Q@r.R@S@T@U@V@W@X@Y@Z@`@ #.#+#@###$#%#&#*#=#-#;#>#,#'#)#",
"      !#~#{#]#^#/#(#_#:#<#[#}#|#1#2#3#4#5#6#7#8#9#0#a#b#c#d#e#f#",
"        g#h#i#j#k#l#m#n#o#p#q#r#s#t#u#v#w#x#y#z#A#B#C#D#E#F#G#H#",
"          I#J#K#L#M#N#O#P#Q#R#f+S#T#U#V#W#X#Y#Z#`# $.$+$@$#$$$%$",
"            &$*$=$-$;$>$,$'$)$!$~${$]$^$  r./$($_$  :$<$[$}$|$1$",
"              2$3$4$5$6$7$8$9$0$a$b$c$d$e$r.f$g$h$i$j$k$l$m$n$o$",
"                p$q$r$s$t$u$v$w$x$y$z$A$B$C$D$E$F$G$H$I$J$K$L$  ",
"                M$N$O$P$Q$R$S$T$U$V$W$X$Y$Z$`$ %.%+%@%#%$%%%&%  ",
"                  *%=%-%;%>%,%'%)%!%~%{%]%^%/%(%_%:%<%[%}%|%    ",
"                    1%2%3%4%5%  6%7%8%9%0%a%b%c%d%e%f%g%h%      ",
"                      i%j%k%        l%m%n%o%p%q%r%s%t%          ",
"                                            u%v%w%              ",
"                                                                "};
