/* XPM */
static char * geda_value_16x16_xpm[] = {
"16 16 117 2",
"  	c None",
". 	c #8FAD21",
"+ 	c #85A622",
"@ 	c #508B29",
"# 	c #89AD25",
"$ 	c #CBD620",
"% 	c #BECF22",
"& 	c #73A327",
"* 	c #3B822B",
"= 	c #0C642E",
"- 	c #42872D",
"; 	c #A5C224",
"> 	c #C1CF20",
", 	c #BBCC21",
"' 	c #B7CC23",
") 	c #A9C122",
"! 	c #9EBD26",
"~ 	c #478D2E",
"{ 	c #105E2D",
"] 	c #387C2E",
"^ 	c #B6CC22",
"/ 	c #BFCE20",
"( 	c #95B624",
"_ 	c #A0BA22",
": 	c #406B22",
"< 	c #8EB123",
"[ 	c #A4C124",
"} 	c #4B8427",
"| 	c #93B326",
"1 	c #CFDA1F",
"2 	c #A5C123",
"3 	c #4E8225",
"4 	c #8CB124",
"5 	c #A2BB23",
"6 	c #7CA826",
"7 	c #4D8627",
"8 	c #A6C222",
"9 	c #BECF20",
"0 	c #B5CB22",
"a 	c #A8C123",
"b 	c #A1BF23",
"c 	c #91B124",
"d 	c #649926",
"e 	c #3F7D26",
"f 	c #91AB22",
"g 	c #B0CA23",
"h 	c #AAC423",
"i 	c #9EBE24",
"j 	c #98BA24",
"k 	c #84A924",
"l 	c #80A724",
"m 	c #A0C024",
"n 	c #96BA24",
"o 	c #8EB525",
"p 	c #89B325",
"q 	c #8FB526",
"r 	c #72A428",
"s 	c #226929",
"t 	c #77A126",
"u 	c #88B127",
"v 	c #81AD26",
"w 	c #7BAB29",
"x 	c #6FA52A",
"y 	c #73A629",
"z 	c #4D912D",
"A 	c #115828",
"B 	c #4C7B23",
"C 	c #6DA028",
"D 	c #71A629",
"E 	c #68A12A",
"F 	c #5F9C2B",
"G 	c #5B992B",
"H 	c #317C2F",
"I 	c #126D31",
"J 	c #0C612C",
"K 	c #5E992B",
"L 	c #5D9929",
"M 	c #4F8F2B",
"N 	c #54962B",
"O 	c #4C912C",
"P 	c #39852E",
"Q 	c #57972C",
"R 	c #3C842D",
"S 	c #54952B",
"T 	c #558F29",
"U 	c #1D4F22",
"V 	c #468C2C",
"W 	c #428B2D",
"X 	c #32812E",
"Y 	c #69A029",
"Z 	c #5F992A",
"` 	c #448128",
" .	c #41862C",
"..	c #47892B",
"+.	c #326923",
"@.	c #408A2D",
"#.	c #36852F",
"$.	c #25762D",
"%.	c #5E9C2A",
"&.	c #67A02A",
"*.	c #76A728",
"=.	c #A9C022",
"-.	c #72A529",
";.	c #5A982A",
">.	c #82AC26",
",.	c #38872F",
"'.	c #25772F",
").	c #40842B",
"!.	c #4E8C29",
"~.	c #4B8E2B",
"{.	c #629929",
"].	c #50932C",
"^.	c #418A2D",
"/.	c #3D852C",
"(.	c #21722E",
"_.	c #24712D",
":.	c #236F2C",
"              . +               ",
"          @ # $ % & * =         ",
"        - ; > , ' ) ! ~ {       ",
"      ] ^ /   ( _ : < [ }       ",
"      | 1 2 3 4 5     6 7       ",
"      8 9 0 a b c     d e       ",
"      f g h ; i j k             ",
"        l m n o p q r s         ",
"          t u v w x y z A       ",
"            B C D E F G H       ",
"      I J     K L M N O P       ",
"      Q R     S T U V W X       ",
"      Y Z `    ...+.@.#.$.      ",
"      %.&.*.=.-.;.>.,.'.        ",
"      ).!.~.{.].^./.(.          ",
"              _.:.              "};
