/* XPM */
static char *geda_line_22x22[] = {
/* columns rows colors chars-per-pixel */
"22 22 32 1 ",
"  c #057E00",
". c #057F00",
"X c #058000",
"o c #058200",
"O c #068200",
"+ c #068300",
"@ c #068500",
"# c #058600",
"$ c #068600",
"% c #068800",
"& c #078A00",
"* c #068B00",
"= c #078B00",
"- c #078D00",
"; c #079100",
": c #0AC400",
"> c #0AC600",
", c #0AC700",
"< c #0AC800",
"1 c #0ACA00",
"2 c #0ACB00",
"3 c #0ACC00",
"4 c #0ACD00",
"5 c #0ACF00",
"6 c #0AD000",
"7 c #0AD100",
"8 c #0AD300",
"9 c #0AD400",
"0 c #0AD500",
"q c #09D600",
"w c #0AD600",
"e c None",
/* pixels */
"eeeeeeeeeeeeeeeeeeeeee",
"eeeeeeeeeeeeeeeeeeeeee",
"eeeeeeeeeeeeeeeeeee9ee",
"eeeeeeeeeeeeeeeeeew;ee",
"eeeeeeeeeeeeeeeee9-eee",
"eeeeeeeeeeeeeeee9-eeee",
"eeeeeeeeeeeeeee8=eeeee",
"eeeeeeeeeeeeee8*eeeeee",
"eeeeeeeeeeeee8*eeeeeee",
"eeeeeeeeeeee8$eeeeeeee",
"eeeeeeeeeee8*eeeeeeeee",
"eeeeeeeeee5$eeeeeeeeee",
"eeeeeeeee5$eeeeeeeeeee",
"eeeeeeee5$eeeeeeeeeeee",
"eeeeeee2Oeeeeeeeeeeeee",
"eeeeee2Oeeeeeeeeeeeeee",
"eeeee2Oeeeeeeeeeeeeeee",
"eeee2 eeeeeeeeeeeeeeee",
"eee> eeeeeeeeeeeeeeeee",
"ee> eeeeeeeeeeeeeeeeee",
"e:$eeeeeeeeeeeeeeeeeee",
"eeeeeeeeeeeeeeeeeeeeee"
};
