/* XPM */
static char * geda_name_value_24x24_xpm[] = {
"24 24 369 2",
"  	c None",
". 	c #9ABD71",
"+ 	c #94B8BD",
"@ 	c #839F70",
"# 	c #BCD21C",
"$ 	c #7DA347",
"% 	c #4D8F6D",
"& 	c #6D87B8",
"* 	c #9BBB7B",
"= 	c #7EB041",
"- 	c #7CAE37",
"; 	c #97BF1F",
"> 	c #E8EE07",
", 	c #A4C813",
"' 	c #6CA62D",
") 	c #5C9840",
"! 	c #3F8C46",
"~ 	c #5A8975",
"{ 	c #A8C27E",
"] 	c #49912C",
"^ 	c #76AD14",
"/ 	c #BAD408",
"( 	c #E1EC03",
"_ 	c #D3E30C",
": 	c #D4E408",
"< 	c #B3D107",
"[ 	c #8BBA0D",
"} 	c #4D971A",
"| 	c #1E7A39",
"1 	c #FFFFAA",
"2 	c #3D8C2C",
"3 	c #7EB40D",
"4 	c #DDE908",
"5 	c #D2E310",
"6 	c #659143",
"7 	c #C1DA0D",
"8 	c #629B29",
"9 	c #9AC517",
"0 	c #B1D10B",
"a 	c #9FC50C",
"b 	c #80B11F",
"c 	c #609C39",
"d 	c #515956",
"e 	c #6C6C72",
"f 	c #6893BB",
"g 	c #638BB2",
"h 	c #668CB0",
"i 	c #618AB0",
"j 	c #6089AD",
"k 	c #618AAF",
"l 	c #6288AA",
"m 	c #60966E",
"n 	c #549D0B",
"o 	c #F7F708",
"p 	c #BCD70E",
"q 	c #677F79",
"r 	c #989295",
"s 	c #B1D008",
"t 	c #849E58",
"u 	c #6A6EB1",
"v 	c #82AF45",
"w 	c #9EC610",
"x 	c #89B71D",
"y 	c #70A338",
"z 	c #566061",
"A 	c #3E4245",
"B 	c #567EA0",
"C 	c #6393BA",
"D 	c #638FB4",
"E 	c #6A93B8",
"F 	c #7297B9",
"G 	c #769BBD",
"H 	c #6F96B9",
"I 	c #668C9F",
"J 	c #0A7042",
"K 	c #EEF205",
"L 	c #D8E70A",
"M 	c #A4C714",
"N 	c #5E9E2D",
"O 	c #7E8A7E",
"P 	c #A7CA0A",
"Q 	c #7CA245",
"R 	c #DDE2F8",
"S 	c #8FB755",
"T 	c #7CB01E",
"U 	c #68A037",
"V 	c #5D6465",
"W 	c #414648",
"X 	c #474D4D",
"Y 	c #5C798B",
"Z 	c #4981AB",
"` 	c #DCE7EF",
" .	c #F2F6F9",
"..	c #DAE1E3",
"+.	c #F1F2F2",
"@.	c #C9DBE4",
"#.	c #3E70CA",
"$.	c #77B029",
"%.	c #E0EB08",
"&.	c #C7DD0C",
"*.	c #BFD80B",
"=.	c #98C20F",
"-.	c #7FAC2D",
";.	c #A3CA08",
">.	c #72984B",
",.	c #A5C19F",
"'.	c #74AB33",
").	c #5F9E2D",
"!.	c #5B676B",
"~.	c #51606A",
"{.	c #474847",
"].	c #35648A",
"^.	c #E1EAF1",
"/.	c #F3F6F6",
"(.	c #D5DCDE",
"_.	c #6F8790",
":.	c #DCE1E2",
"<.	c #96BADF",
"[.	c #4E8840",
"}.	c #D8E808",
"|.	c #BDD70C",
"1.	c #B9D50C",
"2.	c #BBD50B",
"3.	c #C1D90A",
"4.	c #A7CC0A",
"5.	c #82AD2A",
"6.	c #5B9059",
"7.	c #D4E3C9",
"8.	c #79A574",
"9.	c #649865",
"0.	c #5C8EAC",
"a.	c #8DAFBB",
"b.	c #BBD1DC",
"c.	c #FFFFFF",
"d.	c #AFC1C7",
"e.	c #A4AEAF",
"f.	c #D6DCDE",
"g.	c #697C82",
"h.	c #B6CCD6",
"i.	c #8BA9C7",
"j.	c #9CC300",
"k.	c #BBD80B",
"l.	c #B0D00C",
"m.	c #ABCD0A",
"n.	c #ACCE0C",
"o.	c #9BC50E",
"p.	c #A4C80C",
"q.	c #7FAF1A",
"r.	c #609442",
"s.	c #668879",
"t.	c #5792B3",
"u.	c #CCE1EC",
"v.	c #FEFEFC",
"w.	c #7F8A8A",
"x.	c #D9E8EC",
"y.	c #92A3A4",
"z.	c #A4AEAB",
"A.	c #D2E0E4",
"B.	c #597278",
"C.	c #C6DCE6",
"D.	c #78A28C",
"E.	c #8FBC01",
"F.	c #ADCF0C",
"G.	c #ADCF0B",
"H.	c #B1D00A",
"I.	c #B5D30B",
"J.	c #A4C90B",
"K.	c #91BC0B",
"L.	c #74AD0E",
"M.	c #498F34",
"N.	c #678D72",
"O.	c #6096B8",
"P.	c #D3E4EC",
"Q.	c #FFFEFD",
"R.	c #B7BDBB",
"S.	c #5D7179",
"T.	c #DCE8ED",
"U.	c #61828A",
"V.	c #96B4BA",
"W.	c #B3C5CC",
"X.	c #4E666E",
"Y.	c #BBD6DF",
"Z.	c #629778",
"`.	c #81B015",
" +	c #98C30E",
".+	c #A5CA0B",
"++	c #B6D40A",
"@+	c #BFD90A",
"#+	c #A0C60A",
"$+	c #8CBA0B",
"%+	c #5FA20B",
"&+	c #3C8641",
"*+	c #5E8C6E",
"=+	c #5D95B5",
"-+	c #D0E1EA",
";+	c #96A5A9",
">+	c #E1E6E9",
",+	c #ACB7BC",
"'+	c #71868C",
")+	c #D7E5EC",
"!+	c #71909B",
"~+	c #9AB6BF",
"{+	c #B0C4CA",
"]+	c #566D74",
"^+	c #99B7C9",
"/+	c #5F8B91",
"(+	c #578B34",
"_+	c #85B60E",
":+	c #9BC40C",
"<+	c #B3D20A",
"[+	c #B5D20A",
"}+	c #A5C90A",
"|+	c #8AB90B",
"1+	c #3C9110",
"2+	c #4F8662",
"3+	c #4F85B1",
"4+	c #A4C8DC",
"5+	c #EAEDEC",
"6+	c #586E77",
"7+	c #D0D8DA",
"8+	c #B2BEC2",
"9+	c #687E85",
"0+	c #D9E8ED",
"a+	c #6D8B94",
"b+	c #93B4BF",
"c+	c #DEE2E9",
"d+	c #677E87",
"e+	c #9DC2D0",
"f+	c #46769A",
"g+	c #537B5E",
"h+	c #68A614",
"i+	c #8EBE0D",
"j+	c #A2C90A",
"k+	c #ABCE09",
"l+	c #9FC60A",
"m+	c #69A807",
"n+	c #2B8146",
"o+	c #50779C",
"p+	c #3D79A4",
"q+	c #AFCFE3",
"r+	c #BDD2DB",
"s+	c #526972",
"t+	c #D3DADE",
"u+	c #9FAEB3",
"v+	c #688189",
"w+	c #D8E6EA",
"x+	c #657381",
"y+	c #4A9664",
"z+	c #669BA7",
"A+	c #4E8BAC",
"B+	c #3E7CAD",
"C+	c #72837E",
"D+	c #5EA114",
"E+	c #418C28",
"F+	c #6FA918",
"G+	c #8EBE0B",
"H+	c #9CC50B",
"I+	c #8BBA09",
"J+	c #278326",
"K+	c #477090",
"L+	c #3F77A4",
"M+	c #9EC5DD",
"N+	c #C4D8DC",
"O+	c #637C83",
"P+	c #CCD4D7",
"Q+	c #BFC9CD",
"R+	c #7C959E",
"S+	c #F0ECF9",
"T+	c #368B20",
"U+	c #38797B",
"V+	c #3F72A5",
"W+	c #608CA5",
"X+	c #939B80",
"Y+	c #50990F",
"Z+	c #538950",
"`+	c #719573",
" @	c #6AA914",
".@	c #8BBB0C",
"+@	c #7AB10A",
"@@	c #2C8521",
"#@	c #486E8E",
"$@	c #3170AA",
"%@	c #8BBACF",
"&@	c #C7DBDF",
"*@	c #536E74",
"=@	c #C1CDD2",
"-@	c #BBCDD5",
";@	c #6D92B6",
">@	c #65AA0D",
",@	c #30793D",
"'@	c #506A84",
")@	c #94A58E",
"!@	c #459410",
"~@	c #508B4A",
"{@	c #CFD3EF",
"]@	c #4C8F3A",
"^@	c #83B907",
"/@	c #78AF07",
"(@	c #33883E",
"_@	c #4C708F",
":@	c #306FAA",
"<@	c #96C1D8",
"[@	c #BBD2D9",
"}@	c #49656C",
"|@	c #D4DFE0",
"1@	c #AFC2E1",
"2@	c #58A101",
"3@	c #61A60F",
"4@	c #538F41",
"5@	c #719066",
"6@	c #99A994",
"7@	c #3E9214",
"8@	c #488848",
"9@	c #7A9F7C",
"0@	c #5A9F16",
"a@	c #86B90E",
"b@	c #3B9308",
"c@	c #5F8563",
"d@	c #5C7284",
"e@	c #3573A8",
"f@	c #9EC4D9",
"g@	c #BCCFD4",
"h@	c #588EA9",
"i@	c #5078B3",
"j@	c #5BA602",
"k@	c #8DBC0D",
"l@	c #8DBD08",
"m@	c #8BBD0F",
"n@	c #9EBE25",
"o@	c #419115",
"p@	c #6AA621",
"q@	c #86B810",
"r@	c #83B70A",
"s@	c #5BA10D",
"t@	c #3E873D",
"u@	c #797C6E",
"v@	c #577486",
"w@	c #3C79AD",
"x@	c #659ABC",
"y@	c #3D78A9",
"z@	c #536897",
"A@	c #4E9A29",
"B@	c #66A719",
"C@	c #7BB40A",
"D@	c #7FB605",
"E@	c #92BF04",
"F@	c #4D9912",
"G@	c #77B10C",
"H@	c #65A60E",
"I@	c #408E25",
"J@	c #3E864C",
"K@	c #609074",
"L@	c #777B68",
"M@	c #597992",
"N@	c #4780BB",
"O@	c #5880A1",
"P@	c #5C9662",
"Q@	c #668F6E",
"R@	c #4B9056",
"S@	c #46913E",
"T@	c #438B3A",
"U@	c #2F8813",
"V@	c #2D812F",
"W@	c #418B5B",
"X@	c #408A55",
"Y@	c #75998E",
"Z@	c #758C7B",
"`@	c #2B7E35",
" #	c #4F8A62",
"                                                ",
"                                  .             ",
"                              + @ # $ % &       ",
"                          * = - ; > , ' ) ! ~   ",
"                        { ] ^ / ( _ : < [ } |   ",
"                      1 2 3 4 5 6 7 8 9 0 a b c ",
"d e f g h i j k l     m n o p q r s t u v w x y ",
"z A B C D E F G H I   J K L M N O P Q   R S T U ",
"V W X Y Z `  ...+.@.#.$.%.&.*.=.-.;.>.    ,.'.).",
"  !.~.{.].^./.(._.:.<.[.}.|.1.2.3.4.5.6.  7.8.9.",
"    0.a.b.c.d.e.f.g.h.i.j.k.l.m.n.o.p.q.r.s.    ",
"    t.u.v.w.x.y.z.A.B.C.D.E.F.G.H.I.J.K.L.M.N.  ",
"    O.P.Q.R.S.T.U.V.W.X.Y.Z.`. +.+++@+#+$+%+&+*+",
"    =+-+;+>+,+'+)+!+~+{+]+^+/+(+_+:+<+[+}+|+1+2+",
"    3+4+5+6+7+8+9+0+a+b+c+d+e+f+g+h+i+j+k+l+m+n+",
"    o+p+q+r+s+t+u+v+w+x+y+z+A+B+C+D+E+F+G+H+I+J+",
"      K+L+M+N+O+P+Q+R+S+T+U+V+W+X+Y+Z+`+ @.@+@@@",
"        #@$@%@&@*@=@-@;@>@,@'@  )@!@~@{@]@^@/@(@",
"          _@:@<@[@}@|@1@2@3@4@5@6@7@8@9@0@a@b@c@",
"            d@e@f@g@h@i@j@k@l@m@n@o@p@q@r@s@t@  ",
"            u@v@w@x@y@z@A@B@C@D@E@F@G@H@I@J@K@  ",
"              L@M@N@O@  P@Q@R@S@T@U@V@W@X@Y@    ",
"                                Z@`@ #          ",
"                                                "};
