/* XPM */
static char *geda_tools2_22x22[] = {
/* columns rows colors chars-per-pixel */
"22 22 191 2 ",
"   c #000600080010",
".  c #018A00000000",
"X  c #02F80312033A",
"o  c #06E506C706C7",
"O  c #08D008DB08E6",
"+  c #1A8E10210000",
"@  c #0D270E8C10AA",
"#  c #1216125F11BE",
"$  c #179E17A0179E",
"%  c #19581937197E",
"&  c #1A7E1A841A82",
"*  c #1BB91D3D1A3A",
"=  c #1CA51E171B21",
"-  c #1DD51F4E1C5D",
";  c #1CFE1D5A1DA5",
":  c #294617F40000",
">  c #304D1FC6012C",
",  c #337B23570000",
"<  c #20ED225A1F7B",
"1  c #209D20A22099",
"2  c #235723A32306",
"3  c #2612260F2615",
"4  c #2820296D2636",
"5  c #2B2C2B2D2B2B",
"6  c #2DA72DA72DA7",
"7  c #309130933091",
"8  c #30CA30E8309A",
"9  c #3277334F31A0",
"0  c #3214326531B9",
"q  c #34D534D534D5",
"w  c #364F365F366D",
"e  c #3D953D9A3D98",
"r  c #3E0E3E123E0A",
"t  c #601E3EA9014F",
"y  c #3F1840263DE1",
"u  c #3F6140163F50",
"i  c #5F8940F50058",
"p  c #6B3D43DB0000",
"a  c #6B784C2E00B9",
"s  c #77B14E1A0000",
"d  c #76054F5100CE",
"f  c #74984C450313",
"g  c #776055550136",
"h  c #7D79520B0011",
"j  c #7D80576C0132",
"k  c #41B342114157",
"l  c #4288428C4285",
"z  c #4C7B4CAA4E77",
"x  c #5290522A4F6F",
"c  c #4EA94F494FED",
"v  c #507350B3501C",
"b  c #531F53F35246",
"n  c #5429544B5404",
"m  c #562656265626",
"M  c #573557355735",
"N  c #589D58AC589B",
"B  c #5933596E58B5",
"V  c #5AF75A5D5955",
"C  c #5DB35E395EFF",
"Z  c #5E0F5E8C5F53",
"A  c #606160D46172",
"S  c #64D764D664C4",
"D  c #657065FB6603",
"F  c #66AD678766A7",
"G  c #688368856881",
"H  c #69E56A976AB5",
"J  c #6B356B966AF2",
"K  c #6B256BBE6C83",
"L  c #6DDD6FA86D70",
"P  c #6E9E6F726DC0",
"I  c #6FCC6FE26D45",
"U  c #71B7724372F5",
"Y  c #7500753374AC",
"T  c #74E4755874FF",
"R  c #7753779B76AA",
"E  c #78AF792A787E",
"W  c #798079787938",
"Q  c #7B307BF17A74",
"!  c #7B2D7BA37C4E",
"~  c #823B4EAF0000",
"^  c #884F5B770000",
"/  c #A4B07307003B",
"(  c #B5307C2D032B",
")  c #90117AD24CFE",
"_  c #A646802B0000",
"`  c #D63CAB2103F1",
"'  c #DB44A94D00AC",
"]  c #DDDFA92A01E2",
"[  c #DF38B281020F",
"{  c #DD3EB22B1BC2",
"}  c #E215B0C10000",
"|  c #E8B7B6DA00C3",
" . c #E4D6B8F20219",
".. c #F352B90F0000",
"X. c #F5CFBD8A0000",
"o. c #F6D4BD950000",
"O. c #EAB1C3490AFC",
"+. c #F310C4CD0026",
"@. c #FA68C07A0000",
"#. c #FE19C47F0098",
"$. c #FFFFC8D90000",
"%. c #FFFFDEB9045C",
"&. c #EB17C58813B7",
"*. c #EEE4D0B81E9F",
"=. c #FCE8E0D50000",
"-. c #FEC5E9120F3C",
";. c #FA7CE3C216EB",
":. c #FB98E5A71DE2",
">. c #FFFFE9B828B7",
",. c #FFFFEB3B395D",
"<. c #FFFFE41B448D",
"1. c #FAD9E0714A1B",
"2. c #EA35DC846E11",
"3. c #78AF7C8184FD",
"4. c #8059803A8071",
"5. c #8018814F80A8",
"6. c #83588340836E",
"7. c #824A845D82A4",
"8. c #8380847C8388",
"9. c #8837888288DE",
"0. c #89BE89A88893",
"q. c #8AD78B5F8A3F",
"w. c #8B918B918B91",
"e. c #8D778E458D84",
"r. c #8F538EF08E86",
"t. c #8A1D8DAD9CA6",
"y. c #914E91CD90D6",
"u. c #917891B191F4",
"i. c #92C491C394B1",
"p. c #948994899489",
"a. c #95D695D695D6",
"s. c #97A597E9975C",
"d. c #99799964998C",
"f. c #9AB29AF09B3D",
"g. c #9B369B0B9B57",
"h. c #9BE59BDD9BEA",
"j. c #9D2A9D039D51",
"k. c #9F079F499F9D",
"l. c #9F559F2D9F82",
"z. c #A039A044A01A",
"x. c #A0A5A102A059",
"c. c #A10CA17BA0A5",
"v. c #A1B7A1AFA1BC",
"b. c #A407A5FFA1FB",
"n. c #A540A52DA555",
"m. c #A998A973A9BD",
"M. c #AA48AB0EA959",
"N. c #A9B7AA1BAA4F",
"B. c #AB04AAF6AB14",
"V. c #ABFBABD2AC26",
"C. c #AD5FAE2FAD2A",
"Z. c #AE81AE84AE7D",
"A. c #AF80AF89AF81",
"S. c #AFB0B064AEF1",
"D. c #B077B145AF83",
"F. c #B03EB03BB03F",
"G. c #B1ADB1EAB1ED",
"H. c #B5AAB5BCB5BA",
"J. c #B6C5B72FB763",
"K. c #BC72BCBFBC2C",
"L. c #BCDFBD0BBCD8",
"P. c #BCE9BDBABDF8",
"I. c #BD11BEDFBD92",
"U. c #C623C60CC5F9",
"Y. c #C66BC772C566",
"T. c #CD50CDCDCCDA",
"R. c #CD9BCDCCCD63",
"E. c #D6C6D726D69A",
"W. c #D99EDB0FDB26",
"Q. c #DADEDB29DAA0",
"!. c #DAE7DB4CDB79",
"~. c #DF34DF99DEE6",
"^. c #E044E0A0DFE9",
"/. c #DFB3E011E068",
"(. c #E132E159E160",
"). c #E5A2E5BCE592",
"_. c #E5DDE683E531",
"`. c #E844E901E967",
"'. c #E9EAEABEEC12",
"]. c #EBE4EC59ECA5",
"[. c #EC99ED1CED62",
"{. c #ED51EDB4EE09",
"}. c #F01AF05EEFA2",
"|. c #F0C3F142F1C0",
" X c #F2C9F32DF26F",
".X c #F23BF381F378",
"XX c #FA52FA63FA38",
"oX c #FABEFB64FC26",
"OX c #FBEAFC48FBAF",
"+X c #FEC2FEDAFE89",
"@X c None",
/* pixels */
"@X@X@X@X@X@X@X@X@X@X@X@X@X@X@X@X@X@X@X@X@X@X",
"@XH.G.@X@X@X@X@X@X@X@X@X@X@XN P.~..XW.@X@X@X",
"w (..XH @X@X@X@X@X@X@X@X@X@Xc.OXOXj.e $ @X@X",
"@XD W.P.c @X@X@X@X@X@X@X@X7 R.+X).* @X@X@X@X",
"@X@X; H.(.Z @X@X@X@X@X@X@Xn R.[.^.B @X@X@X@X",
"@X@X@XO N.[.A @X@X@X@X@X@XR E.E._.D.b z.R @X",
"@X@X@X@XX k.].Z @X@X@X@X@Xe.I.8.C.Y.A.U.e @X",
"@X@X@X@X@X  g.[.K @X@X@XW !.I b.5.N.z.D   @X",
"@X@X@X@X@X@X  y..XU @X5.P.U.W 8.R v 8 O @X@X",
"@X@X@X@X@X@X@X  9.`.! s.y 0.N % o   @X@X@X@X",
"@X@X@X@X@X@X@X@X  g.OXD I z   @X@X@X@X@X@X@X",
"@X@X@X@X@X@X@X@Xg.H W '.t.) @X@X@X@X@X@X@X@X",
"@X@X@X@X@X@X@Xz.y.4 y i.2.<.( @X@X@X@X@X@X@X",
"@X@X@X@X@X@Xj.q.* b 3.t $.#.+._ @X@X@X@X@X@X",
"@X@X@X@X@XV.8.* k e.@ + f ] =.-.{ ~ @X@X@X@X",
"@X@X@X@XN.Q - 7 g.1 @X@X  > } :.1.] h @X@X@X",
"@X@X@XN.I 2 2 c.7 @X@X@X@X@Xf @.*.,.[ f @X@X",
"@X@XF.F.7 # n.k @X@X@X@X@X@X  ^ X.&.>. .^ @X",
"@Xp.5 3 5.h.N @X@X@X@X@X@X@X@X  g X.O.;.| p ",
"@Xw.@X@XF.H   @X@X@X@X@X@X@X@X@X  a ..%.` : ",
"@Xn c.p.M   @X@X@X@X@X@X@X@X@X@X@X  i / , @X",
"@X  w 6   @X@X@X@X@X@X@X@X@X@X@X@X@X@X  @X@X"
};
