/* XPM */
static char * geda_name_value_22x22_xpm[] = {
"22 22 318 2",
"  	c None",
". 	c #A8C47A",
"+ 	c #96B860",
"@ 	c #84B367",
"# 	c #82AA7E",
"$ 	c #A5BE37",
"% 	c #AAC424",
"& 	c #699D49",
"* 	c #5B8E75",
"= 	c #4A8A62",
"- 	c #C0CF93",
"; 	c #6AA24C",
"> 	c #7AAE2F",
", 	c #94BD20",
"' 	c #C9DD0B",
") 	c #D5E407",
"! 	c #94BF18",
"~ 	c #6EA52C",
"{ 	c #489234",
"] 	c #337E51",
"^ 	c #6DA353",
"/ 	c #5A9D1B",
"( 	c #ABCC09",
"_ 	c #C7DB09",
": 	c #BCD116",
"< 	c #BBD50F",
"[ 	c #ADCF09",
"} 	c #A7CC04",
"| 	c #77AF0E",
"1 	c #45902B",
"2 	c #428C47",
"3 	c #505855",
"4 	c #7D7C84",
"5 	c #92B485",
"6 	c #3D8E18",
"7 	c #C8DE07",
"8 	c #CEDE13",
"9 	c #8FA452",
"0 	c #8FAE34",
"a 	c #95B921",
"b 	c #73935D",
"c 	c #93B539",
"d 	c #A4C90B",
"e 	c #8DB91A",
"f 	c #6FA433",
"g 	c #535C5C",
"h 	c #4A5057",
"i 	c #5C8CB6",
"j 	c #6595BC",
"k 	c #628DB2",
"l 	c #5F8AB0",
"m 	c #6890B5",
"n 	c #648EB5",
"o 	c #59829B",
"p 	c #1C7655",
"q 	c #B8D404",
"r 	c #E8EF09",
"s 	c #99BF1C",
"t 	c #537878",
"u 	c #A1AF47",
"v 	c #98BB23",
"w 	c #6F8085",
"x 	c #8DA5A2",
"y 	c #96BD40",
"z 	c #83B41D",
"A 	c #575F61",
"B 	c #3F4447",
"C 	c #4F636F",
"D 	c #5A85A5",
"E 	c #76A0C2",
"F 	c #C9D8E5",
"G 	c #C0D0DC",
"H 	c #CDD9E3",
"I 	c #B6CBD7",
"J 	c #539D2E",
"K 	c #EBF106",
"L 	c #C8DD0B",
"M 	c #AECE0D",
"N 	c #7FAF22",
"O 	c #8BB12A",
"P 	c #8EB425",
"Q 	c #6A924C",
"R 	c #A1BE95",
"S 	c #78AD2E",
"T 	c #63A02A",
"U 	c #515B5F",
"V 	c #4C5559",
"W 	c #394A57",
"X 	c #6D94B4",
"Y 	c #FBFDFE",
"Z 	c #EFF2F2",
"` 	c #91A3A9",
" .	c #D2D9DA",
"..	c #9DBEEC",
"+.	c #508B36",
"@.	c #DFEC07",
"#.	c #BCD60C",
"$.	c #BAD50B",
"%.	c #B6D20C",
"&.	c #B2D10B",
"*.	c #91B91C",
"=.	c #6B9A46",
"-.	c #79A76A",
";.	c #669A5C",
">.	c #5987A4",
",.	c #618DA6",
"'.	c #8DABB5",
").	c #D3E1EA",
"!.	c #E1E8EB",
"~.	c #A6B3B6",
"{.	c #CAD1D3",
"].	c #79898E",
"^.	c #B3C9D4",
"/.	c #83A3BE",
"(.	c #A4C900",
"_.	c #BDD90C",
":.	c #AFCF0B",
"<.	c #ADCE0A",
"[.	c #A6CB0C",
"}.	c #9EC60D",
"|.	c #8DB815",
"1.	c #669A36",
"2.	c #678A75",
"3.	c #829F9B",
"4.	c #568CAC",
"5.	c #6A9FBC",
"6.	c #E4F1F7",
"7.	c #CBCECC",
"8.	c #A9B7B9",
"9.	c #B0C1C4",
"0.	c #9BA6A3",
"a.	c #D1DDE0",
"b.	c #5F777D",
"c.	c #C5DBE6",
"d.	c #76A181",
"e.	c #95C000",
"f.	c #AFD00C",
"g.	c #AECF0A",
"h.	c #B3D10A",
"i.	c #ADCE0B",
"j.	c #98C10A",
"k.	c #7DB20B",
"l.	c #4E932D",
"m.	c #628D69",
"n.	c #578CB0",
"o.	c #73A3C0",
"p.	c #E9F2F6",
"q.	c #E9E9E7",
"r.	c #7E8C8F",
"s.	c #ACBAC1",
"t.	c #839FA6",
"u.	c #86A6AD",
"v.	c #B6C9D0",
"w.	c #4E666E",
"x.	c #B9D4DD",
"y.	c #60966E",
"z.	c #84B30F",
"A.	c #9AC40D",
"B.	c #ABCD0A",
"C.	c #BDD809",
"D.	c #AECE09",
"E.	c #94BF0A",
"F.	c #6AA806",
"G.	c #3E883A",
"H.	c #588A67",
"I.	c #588FAF",
"J.	c #6FA1BE",
"K.	c #C3D2D8",
"L.	c #ADB8BC",
"M.	c #CDD4D8",
"N.	c #829398",
"O.	c #BBCAD0",
"P.	c #89A4AE",
"Q.	c #8EACB5",
"R.	c #B3C8CF",
"S.	c #5E737A",
"T.	c #95B2C7",
"U.	c #5C898A",
"V.	c #5C902C",
"W.	c #88B80F",
"X.	c #A3C90A",
"Y.	c #B4D209",
"Z.	c #ACCD09",
"`.	c #97C00A",
" +	c #469709",
".+	c #49855B",
"++	c #5582AC",
"@+	c #588BB3",
"#+	c #ADCDDF",
"$+	c #B2BDC1",
"%+	c #85969D",
"&+	c #C6CFD2",
"*+	c #7A8C92",
"=+	c #BCCCD1",
"-+	c #86A0A7",
";+	c #84A3AF",
">+	c #CBDBD9",
",+	c #64818B",
"'+	c #87B3CC",
")+	c #416F93",
"!+	c #5A8844",
"~+	c #6FAD0E",
"{+	c #8DBD0D",
"]+	c #A3CA09",
"^+	c #A4C90A",
"/+	c #7AB104",
"(+	c #2A823D",
"_+	c #447097",
":+	c #4B82AA",
"<+	c #A7C9DF",
"[+	c #93AAB3",
"}+	c #92A2A8",
"|+	c #BAC5C9",
"1+	c #7D9198",
"2+	c #BFD0D5",
"3+	c #9094A3",
"4+	c #368C48",
"5+	c #5992A4",
"6+	c #417EAA",
"7+	c #5682A4",
"8+	c #73934F",
"9+	c #48921D",
"0+	c #579436",
"a+	c #7CB115",
"b+	c #95C10B",
"c+	c #8FBC08",
"d+	c #2A8420",
"e+	c #3C698E",
"f+	c #4B80AC",
"g+	c #9AC3DB",
"h+	c #9BB4B9",
"i+	c #8FA0A5",
"j+	c #C7D0D4",
"k+	c #90A6AE",
"l+	c #C5CFE8",
"m+	c #449412",
"n+	c #2F716B",
"o+	c #466DA5",
"p+	c #839BA4",
"q+	c #739D46",
"r+	c #4A8F27",
"s+	c #6C9080",
"t+	c #5F9A3B",
"u+	c #7FB40D",
"v+	c #80B407",
"w+	c #2F8729",
"x+	c #386691",
"y+	c #3F79AA",
"z+	c #99C3DB",
"A+	c #94AEB5",
"B+	c #778D93",
"C+	c #CEDADB",
"D+	c #8EAACE",
"E+	c #5FA602",
"F+	c #448B28",
"G+	c #4F7A63",
"H+	c #A29DB7",
"I+	c #679C50",
"J+	c #408C25",
"K+	c #6D9689",
"L+	c #52943F",
"M+	c #7EB40F",
"N+	c #5EA500",
"O+	c #49874F",
"P+	c #486A8A",
"Q+	c #497CA7",
"R+	c #9EC5DC",
"S+	c #98ADB1",
"T+	c #8CAFBB",
"U+	c #7897CB",
"V+	c #5AA500",
"W+	c #82B70C",
"X+	c #78AC1E",
"Y+	c #91B631",
"Z+	c #74A731",
"`+	c #45921F",
" @	c #76A833",
".@	c #7DB213",
"+@	c #73AF06",
"@@	c #3C8C23",
"#@	c #5E8562",
"$@	c #78776F",
"%@	c #4F6F85",
"&@	c #4D82AD",
"*@	c #7FACC7",
"=@	c #4480AA",
"-@	c #4D69A2",
";@	c #529E1A",
">@	c #75B00F",
",@	c #86BB01",
"'@	c #8FBE03",
")@	c #7BB10C",
"!@	c #5EA211",
"~@	c #78B208",
"{@	c #5CA014",
"]@	c #448E33",
"^@	c #4F8B5A",
"/@	c #757866",
"(@	c #55768E",
"_@	c #4B81B5",
":@	c #507EA5",
"<@	c #52659A",
"[@	c #57974F",
"}@	c #639458",
"|@	c #519643",
"1@	c #509631",
"2@	c #449021",
"3@	c #348918",
"4@	c #418D3E",
"5@	c #408C47",
"6@	c #598F6F",
"7@	c #727F85",
"8@	c #5C8ABC",
"9@	c #599773",
"0@	c #639367",
"a@	c #47844B",
"b@	c #378241",
"c@	c #528D6A",
"                                            ",
"                              . +           ",
"                          @ # $ % & * =     ",
"                      - ; > , ' ) ! ~ { ]   ",
"                      ^ / ( _ : < [ } | 1 2 ",
"3 4                 5 6 7 8 9 0 a b c d e f ",
"g h i j k l m n o   p q r s t u v w x y z f ",
"A B C D E F G H I   J K L M N O P Q   R S T ",
"  U V W X Y Z `  ...+.@.#.$.%.&.*.=.    -.;.",
"  >.,.'.).!.~.{.].^./.(._.:.<.[.}.|.1.2.3.  ",
"  4.5.6.7.8.9.0.a.b.c.d.e.f.g.h.i.j.k.l.m.  ",
"  n.o.p.q.r.s.t.u.v.w.x.y.z.A.B.C.D.E.F.G.H.",
"  I.J.K.L.M.N.O.P.Q.R.S.T.U.V.W.X.Y.Z.`. +.+",
"  ++@+#+$+%+&+*+=+-+;+>+,+'+)+!+~+{+]+^+/+(+",
"    _+:+<+[+}+|+1+2+3+4+5+6+7+8+9+0+a+b+c+d+",
"      e+f+g+h+i+j+k+l+m+n+o+p+q+r+s+t+u+v+w+",
"        x+y+z+A+B+C+D+E+F+G+H+I+J+K+L+M+N+O+",
"          P+Q+R+S+T+U+V+W+X+Y+Z+`+ @.@+@@@#@",
"          $@%@&@*@=@-@;@>@,@'@)@!@~@{@]@^@  ",
"            /@(@_@:@<@[@}@|@1@2@3@4@5@6@    ",
"              7@8@        9@0@a@b@c@        ",
"                                            "};
