/* XPM */
static char * emblem_photos_24_24_xpm[] = {
"24 24 212 2",
"  	c None",
". 	c #484848",
"+ 	c #474747",
"@ 	c #4D4D4D",
"# 	c #4F4F4F",
"$ 	c #525252",
"% 	c #404040",
"& 	c #434343",
"* 	c #5D5D5D",
"= 	c #5E5E5E",
"- 	c #595959",
"; 	c #909090",
"> 	c #727272",
", 	c #848484",
"' 	c #3F3F3F",
") 	c #555555",
"! 	c #787878",
"~ 	c #777777",
"{ 	c #616161",
"] 	c #A4A4A4",
"^ 	c #646464",
"/ 	c #737373",
"( 	c #3B3B3A",
"_ 	c #4B4B4B",
": 	c #4E4E4E",
"< 	c #494949",
"[ 	c #454545",
"} 	c #3E3E3E",
"| 	c #393939",
"1 	c #3D3D3D",
"2 	c #353531",
"3 	c #484847",
"4 	c #4A4A4A",
"5 	c #515151",
"6 	c #343434",
"7 	c #272727",
"8 	c #313027",
"9 	c #3D3E3C",
"0 	c #3C3D3D",
"a 	c #535353",
"b 	c #363636",
"c 	c #333333",
"d 	c #5F5F5F",
"e 	c #676767",
"f 	c #4C4C4C",
"g 	c #373737",
"h 	c #2C2C2C",
"i 	c #2F2D21",
"j 	c #3B3C3A",
"k 	c #424242",
"l 	c #575757",
"m 	c #464646",
"n 	c #5B5B5B",
"o 	c #5C5C5C",
"p 	c #383838",
"q 	c #252526",
"r 	c #302E22",
"s 	c #383836",
"t 	c #545454",
"u 	c #353535",
"v 	c #3A3A3A",
"w 	c #3C3B3B",
"x 	c #2A2927",
"y 	c #403D31",
"z 	c #3F3F3E",
"A 	c #404041",
"B 	c #3E3E3B",
"C 	c #2D2B1D",
"D 	c #6B6751",
"E 	c #60605D",
"F 	c #606061",
"G 	c #3B3B3B",
"H 	c #565656",
"I 	c #505151",
"J 	c #1C1C17",
"K 	c #171500",
"L 	c #B1A96C",
"M 	c #A29E79",
"N 	c #6D6D6C",
"O 	c #707072",
"P 	c #7C7C7C",
"Q 	c #7E7E7E",
"R 	c #7F7F7F",
"S 	c #7D7D7D",
"T 	c #707171",
"U 	c #19191B",
"V 	c #44433A",
"W 	c #5F5937",
"X 	c #B3AC69",
"Y 	c #E3D87C",
"Z 	c #BBB26F",
"` 	c #767360",
" .	c #5D5D54",
"..	c #4F4D46",
"+.	c #42403A",
"@.	c #37352F",
"#.	c #292821",
"$.	c #2F2F2A",
"%.	c #808182",
"&.	c #B5B4A9",
"*.	c #878157",
"=.	c #B4AC68",
"-.	c #B5AD69",
";.	c #D1C656",
">.	c #E4D448",
",.	c #CCBB3A",
"'.	c #AFA129",
").	c #9E8F1D",
"!.	c #9D8E14",
"~.	c #8E8007",
"{.	c #8F884B",
"].	c #D5D5D7",
"^.	c #BDBCB0",
"/.	c #8B854C",
"(.	c #CEC575",
"_.	c #E8DE81",
":.	c #B8AF57",
"<.	c #AB9F3D",
"[.	c #EAD62C",
"}.	c #EED60D",
"|.	c #D2BB00",
"1.	c #D1BB00",
"2.	c #B5A202",
"3.	c #8B8446",
"4.	c #C5C6CB",
"5.	c #BBBAAF",
"6.	c #8E874E",
"7.	c #C0B86F",
"8.	c #EEE583",
"9.	c #FDF06D",
"0.	c #DBCB49",
"a.	c #EFDA30",
"b.	c #B09F11",
"c.	c #726500",
"d.	c #827400",
"e.	c #9C8B02",
"f.	c #918947",
"g.	c #C6C7CD",
"h.	c #BAB26C",
"i.	c #D5CB78",
"j.	c #E7DA64",
"k.	c #FAE74D",
"l.	c #FDE732",
"m.	c #B7A710",
"n.	c #6A5E00",
"o.	c #A19102",
"p.	c #918A47",
"q.	c #C7C7CD",
"r.	c #BAB8AE",
"s.	c #8D864C",
"t.	c #B5AD65",
"u.	c #CFC577",
"v.	c #CDC15C",
"w.	c #D9CB46",
"x.	c #F3DF30",
"y.	c #BEAC11",
"z.	c #645900",
"A.	c #7D6F00",
"B.	c #A69402",
"C.	c #918948",
"D.	c #B8B7AD",
"E.	c #89824A",
"F.	c #A69D58",
"G.	c #D9CF7E",
"H.	c #C6B942",
"I.	c #EEDA30",
"J.	c #BBA911",
"K.	c #5E5400",
"L.	c #786A00",
"M.	c #A59403",
"N.	c #938B4A",
"O.	c #C8C8CF",
"P.	c #BAB9AD",
"Q.	c #7F7846",
"R.	c #7C743A",
"S.	c #D3C875",
"T.	c #E7DA6E",
"U.	c #D1C244",
"V.	c #CDB90F",
"W.	c #A89700",
"X.	c #AC9900",
"Y.	c #A59300",
"Z.	c #938C4E",
"`.	c #CCCCCD",
" +	c #AEA98B",
".+	c #605929",
"++	c #968D43",
"@+	c #D2C765",
"#+	c #EADC5F",
"$+	c #F9E543",
"%+	c #F6E01A",
"&+	c #F2D800",
"*+	c #E9D108",
"=+	c #C1AF1A",
"-+	c #989155",
";+	c #AFAA8B",
">+	c #7C7545",
",+	c #7C7430",
"'+	c #AAA143",
")+	c #C2B43E",
"!+	c #D1C132",
"~+	c #D3C127",
"{+	c #C6B426",
"]+	c #A59829",
"^+	c #7C7533",
"/+	c #655D32",
"(+	c #403C11",
"_+	c #61591A",
":+	c #746B22",
"<+	c #797021",
"[+	c #6C641C",
"}+	c #534C11",
"                                                ",
"                      . + @ # $ %               ",
"                + & * = - ; > , .               ",
"              ' ) - ! ~ { ] ^ / +               ",
"            ( _ - ) : < [ & } | 1               ",
"            2 3 % } . & 4 5 < 6 7               ",
"            8 9 0 a b c . d e f g h             ",
"            i j k l m c m n o [ & p q           ",
"            r s k 4 d n t 4 u v + w x           ",
"            y z A % @ $ . 1 p ' [ B C           ",
"            D E F 5 } G 1 v ' H I J K           ",
"            L M N O P Q R S T & U V W           ",
"            X Y Z `  ...+.@.#.$.%.&.*.          ",
"            =.-.;.>.,.'.).!.~.{.].^./.          ",
"            (._.:.<.[.}.|.1.2.3.4.5.6.          ",
"            7.8.9.0.a.b.c.d.e.f.g.5.6.          ",
"            h.i.j.k.l.m.n.d.o.p.q.r.s.          ",
"            t.u.v.w.x.y.z.A.B.C.q.D.E.          ",
"            F.G.v.H.I.J.K.L.M.N.O.P.Q.          ",
"            R.S.T.U.[.V.W.X.Y.Z.`. +.+          ",
"              ++@+#+$+%+&+*+=+-+;+>+            ",
"                ,+'+)+!+~+{+]+^+/+              ",
"                  (+_+:+<+[+}+                  ",
"                                                "};
