/* XPM */
static char * geda_locate_reference_22x22_xpm[] = {
"22 22 83 1",
" 	c None",
".	c #101010",
"+	c #030303",
"@	c #020202",
"#	c #030404",
"$	c #020304",
"%	c #0F0F0F",
"&	c #000000",
"*	c #F3F3F3",
"=	c #1F2020",
"-	c #4E5257",
";	c #88929B",
">	c #AFBBC7",
",	c #BABABA",
"'	c #F7F7F7",
")	c #F5F5F5",
"!	c #1C1D1D",
"~	c #D4E2F1",
"{	c #273543",
"]	c #A0AAB5",
"^	c #161718",
"/	c #212121",
"(	c #FFFFFF",
"_	c #040404",
":	c #000101",
"<	c #565B61",
"[	c #22303F",
"}	c #AEBCCA",
"|	c #13181D",
"1	c #535353",
"2	c #060606",
"3	c #666666",
"4	c #323232",
"5	c #090909",
"6	c #97A1AC",
"7	c #D7E6F5",
"8	c #3D3D3E",
"9	c #070707",
"0	c #F6F6F6",
"a	c #CECECE",
"b	c #010102",
"c	c #C4D1DF",
"d	c #0D0D0E",
"e	c #C3C3C3",
"f	c #121212",
"g	c #C4D2E0",
"h	c #BFCDDB",
"i	c #5F5F5F",
"j	c #777878",
"k	c #292929",
"l	c #1A242F",
"m	c #F0F0F0",
"n	c #808A94",
"o	c #19232E",
"p	c #0C0C0C",
"q	c #050606",
"r	c #363B40",
"s	c #818A94",
"t	c #B4BFCC",
"u	c #16202A",
"v	c #505459",
"w	c #8C8C8C",
"x	c #545555",
"y	c #181818",
"z	c #0D0E0E",
"A	c #F4F4F4",
"B	c #FBFBFB",
"C	c #FDFDFD",
"D	c #FEFEFE",
"E	c #EEEEEE",
"F	c #050505",
"G	c #3C3C3C",
"H	c #C0C0C0",
"I	c #1F1F1F",
"J	c #898989",
"K	c #D1D1D1",
"L	c #D6D6D6",
"M	c #919191",
"N	c #141414",
"O	c #151515",
"P	c #7C7C7C",
"Q	c #ADADAD",
"R	c #DBDBDB",
"                      ",
" .++@##$#@+++++%      ",
" &*=-;;>;-=,'')+      ",
" &!~~{{~{~~]^/(_      ",
" :<~~[[~[~~}|1(23345% ",
" $6~{[[~[~{[78(900(a2 ",
" $6~{[[~[~{[78(900(a2 ",
" bc7[[[~[~[[cd(900(ef ",
" $67g77~h~gh68(900(i  ",
" :<~{{{~{~[[<j(900(k  ",
" &!~[[[~[~[l!m(900(2  ",
" &,n[[[~[~o$,((900(p  ",
" &(qrsstuv=&(((900(f  ",
" &((wxxyzwA((((900(_  ",
" &(''''&&(((B'(900(   ",
" &C((((&&(((((D9''E   ",
" %+F222&&222222G((H   ",
" %+F222&&222222G((H   ",
"   IiJJ&&KKKKKL)((M   ",
"       && pN9OPQRR/   ",
"       &&     2O%%.   ",
"                      "};
