/* XPM */
static char * icon_glasses__xpm[] = {
"36 24 2 1",
" 	c None",
".	c #000000",
"                                    ",
"                                    ",
"                                    ",
"                                    ",
"                    ........        ",
"                  .............     ",
" .               .....    .......   ",
" .                ...      ........ ",
" ..                          ...... ",
" ...                       ........ ",
" ....                   .....    .. ",
"  .....    ................      .. ",
"   ......................        .. ",
"     ........       .....        .  ",
"       ....         ..  .       ..  ",
"        ...         ..  ..      ..  ",
"         ..         ..  ..    ...   ",
"         ..        ..    .......    ",
"         ..       ...     ....      ",
"          ..     ...                ",
"          .........                 ",
"           ......                   ",
"                                    ",
"                                    "};
