/* XPM */
static char *geda_line_24x24[] = {
/* columns rows colors chars-per-pixel */
"24 24 38 1 ",
"  c #057F00",
". c #058100",
"X c #058300",
"o c #068300",
"O c #068400",
"+ c #068500",
"@ c #068600",
"# c #058800",
"$ c #068800",
"% c #068900",
"& c #078B00",
"* c #068C00",
"= c #078C00",
"- c #078D00",
"; c #078E00",
": c #078F00",
"> c #079500",
", c #0BC600",
"< c #0BC800",
"1 c #0BC900",
"2 c #0BCA00",
"3 c #0BCC00",
"4 c #0BCD00",
"5 c #0BCE00",
"6 c #0BCF00",
"7 c #0BD100",
"8 c #0BD200",
"9 c #0BD300",
"0 c #0AD400",
"q c #0AD500",
"w c #0BD600",
"e c #0AD800",
"r c #0BD800",
"t c #0AD900",
"y c #09DC00",
"u c #04FC00",
"i c #04FF00",
"p c None",
/* pixels */
"pppppppppppppppppppppppp",
"pppppppppppppppppppppppp",
"pppppppppppppppppppppypp",
"ppppppppppppppppppppr>pp",
"pppppppppppppppppppr*ppp",
"ppppppppppppppppppr*pppp",
"pppppppppppppppppr:ppppp",
"pppppppppppppppp0*pppppp",
"ppppppppppppppp0*ppppppp",
"pppppppppppppp9&pppppppp",
"ppppppppppppp9&ppppppppp",
"pppppppppppp9&pppppppppp",
"ppppppppppp6@ppppppppppp",
"pppppppppp6&pppppppppppp",
"ppppppppp6@ppppppppppppp",
"pppppppp6@pppppppppppppp",
"ppppppp6@ppppppppppppppp",
"pppppp3.pppppppppppppppp",
"ppppp2.ppppppppppppppppp",
"pppi2.pppppppppppppppppp",
"ppi,.ppppppppppppppppppp",
"pi, pppppppppppppppppppp",
"pp&ppppppppppppppppppppp",
"pppppppppppppppppppppppp"
};
