/* XPM */
static char * geda_man_24x24_xpm[] = {
"24 24 237 2",
"  	c None",
". 	c #ACAFB2",
"+ 	c #B7BABE",
"@ 	c #9FA5AA",
"# 	c #8E9398",
"$ 	c #B1B5B9",
"% 	c #B7BCC2",
"& 	c #9BA1A7",
"* 	c #798188",
"= 	c #6A737B",
"- 	c #676E75",
"; 	c #AAAEB6",
"> 	c #8E949C",
", 	c #596069",
"' 	c #49515A",
") 	c #49505A",
"! 	c #555D67",
"~ 	c #717880",
"{ 	c #606771",
"] 	c #60656E",
"^ 	c #515661",
"/ 	c #2E323D",
"( 	c #1E222C",
"_ 	c #252834",
": 	c #383D47",
"< 	c #868D95",
"[ 	c #757E87",
"} 	c #3F4954",
"| 	c #565252",
"1 	c #544D4B",
"2 	c #504847",
"3 	c #464041",
"4 	c #433F41",
"5 	c #585554",
"6 	c #8A939D",
"7 	c #4A5560",
"8 	c #36404A",
"9 	c #CEC0B2",
"0 	c #C8BAAF",
"a 	c #ADA094",
"b 	c #A09082",
"c 	c #8C7E71",
"d 	c #515B69",
"e 	c #475057",
"f 	c #363F4A",
"g 	c #DFD4C9",
"h 	c #E6DDD4",
"i 	c #DDD2C6",
"j 	c #D5C5B4",
"k 	c #9E907F",
"l 	c #525255",
"m 	c #5E5C59",
"n 	c #141B29",
"o 	c #D1C6B9",
"p 	c #D9CFC4",
"q 	c #D7CBC0",
"r 	c #CEBEAE",
"s 	c #AA9A83",
"t 	c #8C7F71",
"u 	c #4C4440",
"v 	c #000007",
"w 	c #C8BCAD",
"x 	c #CEC1B1",
"y 	c #CFC0B0",
"z 	c #BFAD9A",
"A 	c #A9947C",
"B 	c #A2917B",
"C 	c #4A413E",
"D 	c #BFB09F",
"E 	c #C1B29F",
"F 	c #C4B5A2",
"G 	c #AF9B88",
"H 	c #A48E75",
"I 	c #97846C",
"J 	c #9B8B7A",
"K 	c #C3AD99",
"L 	c #B8A692",
"M 	c #9F8770",
"N 	c #857059",
"O 	c #B2A08C",
"P 	c #A89B8C",
"Q 	c #4D545C",
"R 	c #817A77",
"S 	c #866F5B",
"T 	c #775E44",
"U 	c #B19D89",
"V 	c #B8ACA1",
"W 	c #BCBABA",
"X 	c #6C717A",
"Y 	c #677178",
"Z 	c #5D6670",
"` 	c #56616C",
" .	c #8D969A",
"..	c #B7AC9E",
"+.	c #BBAD9E",
"@.	c #BCAFA3",
"#.	c #D7D8D5",
"$.	c #BCBFC2",
"%.	c #767C83",
"&.	c #2B333E",
"*.	c #3B3F49",
"=.	c #7B858D",
"-.	c #69737D",
";.	c #777E88",
">.	c #A3A7B2",
",.	c #B2B3B5",
"'.	c #E6EAED",
").	c #D9DADA",
"!.	c #B3B4B7",
"~.	c #666E77",
"{.	c #444F5A",
"].	c #272F39",
"^.	c #3A414B",
"/.	c #6F7780",
"(.	c #5D6772",
"_.	c #686F76",
":.	c #6E8493",
"<.	c #4D7495",
"[.	c #878C95",
"}.	c #79808B",
"|.	c #5D6872",
"1.	c #404A53",
"2.	c #353F48",
"3.	c #2F373F",
"4.	c #676E76",
"5.	c #525A64",
"6.	c #39424D",
"7.	c #46484D",
"8.	c #5F8DA4",
"9.	c #4882AE",
"0.	c #93A8B6",
"a.	c #666C76",
"b.	c #838B97",
"c.	c #808A94",
"d.	c #616B75",
"e.	c #57616B",
"f.	c #37414A",
"g.	c #1E2731",
"h.	c #444C54",
"i.	c #2F3942",
"j.	c #262E38",
"k.	c #32383F",
"l.	c #4289AA",
"m.	c #4389BB",
"n.	c #8093A5",
"o.	c #5F686F",
"p.	c #59626C",
"q.	c #59626D",
"r.	c #505A64",
"s.	c #4D5660",
"t.	c #4C565F",
"u.	c #1D2731",
"v.	c #2C363E",
"w.	c #2D373F",
"x.	c #212B35",
"y.	c #232B34",
"z.	c #293440",
"A.	c #245D87",
"B.	c #3B6790",
"C.	c #475361",
"D.	c #3A434C",
"E.	c #28313D",
"F.	c #29323C",
"G.	c #323B45",
"H.	c #39434D",
"I.	c #464F59",
"J.	c #323C46",
"K.	c #2E363E",
"L.	c #263038",
"M.	c #1E2933",
"N.	c #242D36",
"O.	c #232F3B",
"P.	c #1F395B",
"Q.	c #32445E",
"R.	c #36414B",
"S.	c #27313B",
"T.	c #202833",
"U.	c #2B343E",
"V.	c #303943",
"W.	c #404953",
"X.	c #2D3740",
"Y.	c #1F2A33",
"Z.	c #2B343C",
"`.	c #393F48",
" +	c #212935",
".+	c #232D37",
"++	c #242E39",
"@+	c #283248",
"#+	c #323C4B",
"$+	c #303A44",
"%+	c #29333D",
"&+	c #2F3842",
"*+	c #333C46",
"=+	c #2A333D",
"-+	c #253039",
";+	c #28333C",
">+	c #40464F",
",+	c #222D37",
"'+	c #2D3541",
")+	c #2C3640",
"!+	c #3A434E",
"~+	c #37404A",
"{+	c #252F39",
"]+	c #242E38",
"^+	c #353F49",
"/+	c #2A343E",
"(+	c #28323B",
"_+	c #696F74",
":+	c #444C53",
"<+	c #252E38",
"[+	c #1D2631",
"}+	c #252E3A",
"|+	c #333C47",
"1+	c #313A45",
"2+	c #2D3642",
"3+	c #252F3A",
"4+	c #202934",
"5+	c #303A43",
"6+	c #38414B",
"7+	c #29343E",
"8+	c #333C45",
"9+	c #909395",
"0+	c #5A6067",
"a+	c #535A61",
"b+	c #3B454C",
"c+	c #27313A",
"d+	c #242F39",
"e+	c #232D38",
"f+	c #232C37",
"g+	c #202832",
"h+	c #1E2730",
"i+	c #475058",
"j+	c #5D6369",
"k+	c #6D7378",
"l+	c #70767C",
"m+	c #6F747A",
"n+	c #6C7076",
"                  . + @ #                       ",
"                $ % & * = -                     ",
"              ; > , ' ) ! ~ {                   ",
"            ] ^ / ( _ : < [ }                   ",
"            | 1 2 3 4 5 6 7 8                   ",
"              9 0 a b c d e f                   ",
"              g h i j k l m n                   ",
"              o p q r s t u v                   ",
"              w x y z A B C                     ",
"              D E F G H I J                     ",
"                K L M N O P                     ",
"              Q R S T U V W X                   ",
"          Y Z `  ...+.@.#.$.%.&.*.              ",
"          =.-.;.>.,.  '.).!.~.{.].^.            ",
"          /.(._.:.<.      [.}.|.1.2.3.          ",
"        4.5.6.7.8.9.0.  a.b.c.d.e.f.g.          ",
"        h.i.j.k.l.m.n.o.p.q.r.s.t.i.u.v.        ",
"        w.x.y.z.A.B.C.D.E.F.G.H.I.J.u.K.        ",
"        L.M.N.O.P.Q.R.S.T.U.V.V.W.X.Y.Z.        ",
"        `. +.+++@+#+$+%+&+*+=+=+H.i.-+;+        ",
"          >+,+x.'+)+f.!+~+&+{+]+^+^+/+(+_+      ",
"            :+<+[+}+|+f 1+2+3+4+5+6+7+8+9+      ",
"              0+a+b+c+d+e+f+g+h+S.f.i+j+        ",
"                      k+l+m+n+                  "};
