/* XPM */
static char *geda_display_color_28x28[] = {
/* columns rows colors chars-per-pixel */
"28 28 161 2 ",
"   c #01AC01EB01AC",
".  c #07FD07B40787",
"X  c #0BBF08A30AB7",
"o  c #17B00ABA0E35",
"O  c #008E132B023E",
"+  c #0279130D0B0A",
"@  c #02E218AA07C8",
"#  c #16CA0C50115E",
"$  c #18520E8114B5",
"%  c #142011921477",
"&  c #197D108516C4",
"*  c #1AEE14EE1A23",
"=  c #1C961BC41BC6",
"-  c #2E2D160F1BE6",
";  c #210B1B4D1DB4",
":  c #2EB617A01E93",
">  c #009E25B604AB",
",  c #03462AA309E3",
"<  c #1E9E1FB41DAD",
"1  c #06C53081113E",
"2  c #09523519163F",
"3  c #0B0D37591AA4",
"4  c #221720F11F8A",
"5  c #114E1A38201D",
"6  c #1BBF1BD82144",
"7  c #20A71CE923CD",
"8  c #31611B6F22B0",
"9  c #3D921F663A67",
"0  c #1AF5238C2510",
"q  c #10F527322A84",
"w  c #1EC226E22812",
"e  c #1F8A2DF230E1",
"r  c #0EFB3DE13109",
"t  c #117E36FB3130",
"y  c #0FE43E6231DD",
"u  c #24B423EC24BF",
"i  c #27A227E7275E",
"p  c #24C021F62BA5",
"a  c #29AC263328DB",
"s  c #22A72A052B1A",
"d  c #2C642BB42BEB",
"f  c #32E1209F2734",
"g  c #30D62C812D8B",
"h  c #2F572FE82DB6",
"j  c #2A93239832D7",
"k  c #22192CE9336A",
"l  c #2EF02E5E3926",
"z  c #3AEE21913B22",
"x  c #235532DA3634",
"c  c #25E2367A3A76",
"v  c #2F7E35263965",
"b  c #297E3BFE3C3A",
"n  c #346E33D2340B",
"m  c #325434C23941",
"M  c #328A3A2D3E49",
"N  c #678D00000B2F",
"B  c #6A2700000C49",
"V  c #6C14025B127F",
"C  c #00006C990ACB",
"Z  c #0000706B0EB9",
"A  c #000073131339",
"S  c #112D418E33EB",
"D  c #2BD541543DE2",
"F  c #0FAC3E1C46B1",
"G  c #345B3D414239",
"H  c #38D23E96441E",
"J  c #3F19275E5771",
"K  c #318B3DE6569A",
"L  c #397C3C245C8C",
"P  c #400924723FC5",
"I  c #43CA2C3F5D3E",
"U  c #46F3317C6380",
"Y  c #49DD35BC68E9",
"T  c #113B44034B2D",
"R  c #151D49E152A1",
"E  c #1B5B52935CD3",
"W  c #2DE644484112",
"Q  c #336F459044EE",
"!  c #3C5D422D4623",
"~  c #318A49CA4772",
"^  c #3D4B43BB495C",
"/  c #330B4AED48B7",
"(  c #3AFA4AFF4B6B",
")  c #24C2431C5229",
"_  c #229D4934543C",
"`  c #21F54D6C58F1",
"'  c #3AC2498B4FF6",
"]  c #000070746BFF",
"[  c #000E79A2730A",
"{  c #019D7F257963",
"}  c #464746474647",
"|  c #40C9473B4C83",
" . c #420F48F74E44",
".. c #55EF55EF55EF",
"X. c #65E36600660D",
"o. c #71D171D171D1",
"O. c #7CB47CCD7CD7",
"+. c #AF6201EC0026",
"@. c #B45B01290177",
"#. c #BA1B01C80000",
"$. c #C1D0009F0013",
"%. c #CE400090003F",
"&. c #D31000480056",
"*. c #DDD3001D002B",
"=. c #E5710013001D",
"-. c #01E9AF8D00AD",
";. c #01B4B3CB00A8",
":. c #014CBE2E0000",
">. c #01B4C295000C",
",. c #01D3CF2A0000",
"<. c #0046D434004C",
"1. c #0048DA8E0081",
"2. c #0012E7800020",
"3. c #0007EA700007",
"4. c #066480627B3D",
"5. c #82B40B92837B",
"6. c #8AD20D448983",
"7. c #8C6C10FB8D3C",
"8. c #8F2D1357917E",
"9. c #8E9F17F892A3",
"0. c #CF700373D9D6",
"q. c #D56F0301DC96",
"w. c #DCD20146DD4D",
"e. c #E00301AFEAE4",
"r. c #DE0B0058FAC6",
"t. c #E0DE0000E672",
"y. c #E4260000E952",
"u. c #EC2F0020FE87",
"i. c #0139A4E6B632",
"p. c #0196AA8EB6C5",
"a. c #0000ADABBE99",
"s. c #0176ADDAC12E",
"d. c #0027AB98CA48",
"f. c #00D0B239CCF8",
"g. c #0096A858D249",
"h. c #0159B548D06D",
"j. c #0014AA40E32D",
"k. c #844B841083A9",
"l. c #879D87ED8810",
"z. c #8B5C8BBC8BE8",
"x. c #8F9290049039",
"c. c #8FC790349067",
"v. c #92A392F89320",
"b. c #99C599C599C5",
"n. c #A614A622A62A",
"m. c #AE11ACD0AC62",
"M. c #B1B9AED3AEEB",
"N. c #B18AB091AFA8",
"B. c #B36BB004B06A",
"V. c #B028B038B040",
"C. c #B3C7B314B2C8",
"Z. c #B832B846B84F",
"A. c #BB61BB67BB6A",
"S. c #C7E3C7E3C7E3",
"D. c #CADFCADECADD",
"F. c #D33AD33AD33A",
"G. c #DC8BDC8BDC8B",
"H. c #E3D4E3D4E3D4",
"J. c #EABEEABEEABE",
"K. c #F324F324F324",
"L. c None",
/* pixels */
"L.L.L.L.L.L.L.L.L.L.L.L.L.L.L.L.L.L.L.L.L.L.L.L.L.L.L.L.",
"L.D.n.m.m.m.m.m.N.N.N.N.N.N.B.B.B.N.B.B.B.m.m.m.m.n.D.L.",
"L.v.u ! G ! ! ! ^ ^ | |  . .( ( ( ( ( / Q Q Q G ! i v.L.",
"L.c.n ' ) ` ` ` ` ` ` ` ` _ ' L L L L L L L L ) ' n c.L.",
"L.c.h ! E p.i.i.p.i.p.i.d.{ 9.y.q.w.w.q.q.q.w.Y / g x.L.",
"L.x.d H E s.d.d.d.d.d.d.f.{ 8.u.r.r.r.r.r.r.y.Y / h x.L.",
"L.z.d H R a.d.j.j.j.j.g.f.[ 7.u.r.u.u.u.u.r.t.U Q d z.L.",
"L.z.d m R a.d.j.j.j.j.g.f.[ 6.u.r.u.u.u.u.r.t.U D d z.L.",
"L.l.i m T s.d.d.d.d.d.d.f.[ 6.u.r.r.r.r.r.r.y.I D d l.L.",
"L.k.i v F i.i.i.i.i.i.i.s.] 5.t.0.0.0.0.q.q.q.J b a k.L.",
"L.z.n v q S y y r r r S S t j 9 9 z z z z P P k M h k.L.",
"L.k.h l 3 ;.;.-.-.-.-.-.:.A V #.+.+.+.+.+.+.+.f b u k.L.",
"L.O.u j 2 >.,.,.<.,.<.,.,.A V &.&.&.&.%.&.&.$.8 c 4 O.L.",
"L.O.u s 1 :.<.3.3.2.3.1.,.Z V %.&.=.=.=.*.&.$.8 x ; k.L.",
"L.O.= p , >.,.3.3.3.3.1.,.C B %.&.=.=.=.*.%.#.- x ; O.L.",
"L.O.= 7 , >.<.1.<.1.1.<.<.C B %.&.&.*.&.&.%.$.- k = O.L.",
"L.O.= 6 > :.-.;.;.;.:.;.>.C B $.@.@.@.@.@.#.@.- e = O.L.",
"L.O.= =   O O O O O O O @ + X # # $ $ % * * ; 5 s = O.L.",
"L.O.. = % % * * 6 7 u p a j d s s s s u 0 0 6 6 u . O.L.",
"L.m.O.O.k.k.k.k.k.k.k.l.k.k.k.O.l.k.k.k.k.O.k.k.O.O.m.L.",
"L.L.L.L.L.L.L.L.L.L.L.X.V.Z.Z.m.X.L.L.L.L.L.L.L.L.L.L.L.",
"L.L.L.L.L.L.L.L.L.L.L.b.F.S.A.n.o.L.L.L.L.L.L.L.L.L.L.L.",
"L.L.L.L.L.L.L.k.A.S.S.F.Z.C.N.N.D.D.S.A.z.L.L.L.L.L.L.L.",
"L.L.L.L.L.L.O.G.H.H.H.H.G.G.G.G.H.H.H.H.G.O.L.L.L.L.L.L.",
"L.L.L.L.L.L.} F.K.J.G.G.F.F.F.F.G.G.J.K.D.} L.L.L.L.L.L.",
"L.L.L.L.L.L.L.u o.n.S.G.J.K.J.J.G.D.n.o.u L.L.L.L.L.L.L.",
"L.L.L.L.L.L.L.L.L.  = n } ....} n =   L.L.L.L.L.L.L.L.L.",
"L.L.L.L.L.L.L.L.L.L.L.L.L.L.L.L.L.L.L.L.L.L.L.L.L.L.L.L."
};
