/* XPM */
static char * geda_find_and_replace_32x32_xpm[] = {
"32 32 472 2",
"  	c None",
". 	c #AAAAAA",
"+ 	c #AFAFAF",
"@ 	c #B2B2B2",
"# 	c #B1B1B1",
"$ 	c #B0B0B0",
"% 	c #ACACAC",
"& 	c #A9A9A9",
"* 	c #A6A6A6",
"= 	c #A4A4A4",
"- 	c #A3A3A3",
"; 	c #A0A0A0",
"> 	c #9D9D9D",
", 	c #9A9A9A",
"' 	c #989898",
") 	c #959595",
"! 	c #939393",
"~ 	c #909090",
"{ 	c #8C8C8C",
"] 	c #8A8A8A",
"^ 	c #888888",
"/ 	c #868686",
"( 	c #838383",
"_ 	c #797979",
": 	c #BCBCBC",
"< 	c #EEEEEE",
"[ 	c #F1F1F1",
"} 	c #F0F0F0",
"| 	c #F2F2F2",
"1 	c #E7E7E7",
"2 	c #CECECD",
"3 	c #C5C5C4",
"4 	c #C7C6C6",
"5 	c #CCCCCB",
"6 	c #E5E5E5",
"7 	c #F3F3F3",
"8 	c #F4F4F4",
"9 	c #F9F9F9",
"0 	c #ECECEC",
"a 	c #7F7F7F",
"b 	c #C3C3C3",
"c 	c #E1E1E1",
"d 	c #DBDBDB",
"e 	c #DCDCDC",
"f 	c #D3D3D3",
"g 	c #BABABA",
"h 	c #A8A8A7",
"i 	c #C3C4C5",
"j 	c #D9DDE2",
"k 	c #DFE4EA",
"l 	c #CCCFD1",
"m 	c #ABABAB",
"n 	c #BDBCBB",
"o 	c #D1D1D1",
"p 	c #E2E2E2",
"q 	c #E0E0E0",
"r 	c #E3E3E3",
"s 	c #828282",
"t 	c #C1C1C1",
"u 	c #B2B2B1",
"v 	c #CCCBCB",
"w 	c #BBCCE2",
"x 	c #94AFCF",
"y 	c #84A0C3",
"z 	c #7F9CC0",
"A 	c #8DA8C8",
"B 	c #A4BEDC",
"C 	c #CAD0D7",
"D 	c #C4C2BF",
"E 	c #C4C4C4",
"F 	c #818181",
"G 	c #C0C0C0",
"H 	c #E4E4E4",
"I 	c #CECECE",
"J 	c #8FA9CA",
"K 	c #6D90BC",
"L 	c #9DB5D3",
"M 	c #B6C9DF",
"N 	c #B5C8DE",
"O 	c #9CB5D2",
"P 	c #6C91BB",
"Q 	c #6D90BB",
"R 	c #C4CEDA",
"S 	c #C6C6C3",
"T 	c #D6D6D6",
"U 	c #D4D4D4",
"V 	c #E6E6E6",
"W 	c #BEBEBE",
"X 	c #AEADAD",
"Y 	c #EBE9E7",
"Z 	c #B0BFD1",
"` 	c #6188B9",
" .	c #D5E0EC",
"..	c #EBF0F5",
"+.	c #E6EBF2",
"@.	c #DDE6EE",
"#.	c #D4DFEB",
"$.	c #C6D4E4",
"%.	c #88A7CA",
"&.	c #5981B1",
"*.	c #E9E8E5",
"=.	c #CBCBCB",
"-.	c #D7D7D7",
";.	c #BDBDBD",
">.	c #B2B1B1",
",.	c #EBEAE7",
"'.	c #3B6AA6",
").	c #C1D3E4",
"!.	c #E3EBF2",
"~.	c #E2E9F1",
"{.	c #DFE7F0",
"].	c #D8E2ED",
"^.	c #CFDBE9",
"/.	c #D1DDEA",
"(.	c #9EB8D4",
"_.	c #6189B9",
":.	c #839FC1",
"<.	c #D2CEC8",
"[.	c #D2D2D2",
"}.	c #DADADA",
"|.	c #C5C5C5",
"1.	c #CBC7C1",
"2.	c #87A0C1",
"3.	c #5B85B5",
"4.	c #DBE5EF",
"5.	c #D9E2EC",
"6.	c #D4DFEA",
"7.	c #D0DCE8",
"8.	c #CBD8E6",
"9.	c #BCCDDF",
"0.	c #84A3C6",
"a.	c #83A3C6",
"b.	c #5C83B3",
"c.	c #BEBCBB",
"d.	c #9D9D9C",
"e.	c #E8E8E8",
"f.	c #808080",
"g.	c #C7C7C7",
"h.	c #B2B2B3",
"i.	c #D0CBC4",
"j.	c #6589B4",
"k.	c #7999C2",
"l.	c #E3EAF1",
"m.	c #D7E1EA",
"n.	c #D5DFEB",
"o.	c #D0DDEA",
"p.	c #CCDAE9",
"q.	c #C9D8E7",
"r.	c #9EB9D7",
"s.	c #95B3D4",
"t.	c #93B0D3",
"u.	c #678CBA",
"v.	c #A8ABB1",
"w.	c #AFADAC",
"x.	c #EAEAEA",
"y.	c #B1B1B2",
"z.	c #CFCAC4",
"A.	c #6A8BB5",
"B.	c #7798C0",
"C.	c #E2E8EE",
"D.	c #D4DEEA",
"E.	c #CFDAE7",
"F.	c #C8D6E3",
"G.	c #C2D1E3",
"H.	c #A3BCD7",
"I.	c #8EACCD",
"J.	c #8FADCD",
"K.	c #8DACCD",
"L.	c #6086B5",
"M.	c #A7A9AD",
"N.	c #9F9F9D",
"O.	c #D0D0D0",
"P.	c #E9E9E8",
"Q.	c #EBEBEB",
"R.	c #E9E9EA",
"S.	c #808081",
"T.	c #C3C4C4",
"U.	c #C1BEBA",
"V.	c #ACBBCF",
"W.	c #4975AC",
"X.	c #D9E1E8",
"Y.	c #C9D5E3",
"Z.	c #BFCEDE",
"`.	c #B0C3D6",
" +	c #93AECC",
".+	c #89A8CA",
"++	c #8CAACB",
"@+	c #8DAACB",
"#+	c #789AC2",
"$+	c #6084B4",
"%+	c #B6B1AD",
"&+	c #C8C8C8",
"*+	c #EDEDEE",
"=+	c #D8D6D0",
"-+	c #736D5E",
";+	c #B5B5B5",
">+	c #ABABAC",
",+	c #FFF8EF",
"'+	c #5D82B2",
")+	c #99B1CC",
"!+	c #BFCEDD",
"~+	c #A6BDD4",
"{+	c #97B1CE",
"]+	c #92AFCE",
"^+	c #90AFD0",
"/+	c #94B1D1",
"(+	c #91AFD0",
"_+	c #5680B3",
":+	c #AEBCCF",
"<+	c #ABA8A4",
"[+	c #ADAEAE",
"}+	c #DEDEDE",
"|+	c #EEEFEF",
"1+	c #BDB8A8",
"2+	c #A18263",
"3+	c #A56245",
"4+	c #8C4A22",
"5+	c #EDEDED",
"6+	c #A2A2A2",
"7+	c #D2D1D0",
"8+	c #DBE1EA",
"9+	c #6086B4",
"0+	c #84A3C7",
"a+	c #B1C4D7",
"b+	c #9FB7CF",
"c+	c #98B3D0",
"d+	c #99B4D1",
"e+	c #89A9CC",
"f+	c #4B78AF",
"g+	c #96AFCD",
"h+	c #D7D4D1",
"i+	c #7D7D7D",
"j+	c #C6C6C6",
"k+	c #CCCCCC",
"l+	c #E0E1E3",
"m+	c #A99C87",
"n+	c #A36E49",
"o+	c #E47C71",
"p+	c #FF6062",
"q+	c #D83426",
"r+	c #6C3C0B",
"s+	c #B6B6B6",
"t+	c #B4B4B4",
"u+	c #D5DFE9",
"v+	c #7293BC",
"w+	c #4371A9",
"x+	c #5D85B4",
"y+	c #5E87B6",
"z+	c #4773A9",
"A+	c #B5C6DB",
"B+	c #DADCDD",
"C+	c #777776",
"D+	c #DFDFDF",
"E+	c #DBDADA",
"F+	c #DDDDDE",
"G+	c #DEDFE0",
"H+	c #93866E",
"I+	c #907B5D",
"J+	c #CAABA7",
"K+	c #F46364",
"L+	c #F51F20",
"M+	c #D21211",
"N+	c #6C380B",
"O+	c #898989",
"P+	c #717171",
"Q+	c #C3C3C2",
"R+	c #E2E4E5",
"S+	c #CDDBEC",
"T+	c #A3BDDB",
"U+	c #A2BADB",
"V+	c #B5C9E3",
"W+	c #EEF4F8",
"X+	c #B8B7B6",
"Y+	c #7A7A79",
"Z+	c #A7A7A7",
"`+	c #DADCDE",
" @	c #D4D4D5",
".@	c #877656",
"+@	c #9E7C45",
"@@	c #CCC0B1",
"#@	c #B7C0C3",
"$@	c #C37B7C",
"%@	c #C61215",
"&@	c #872409",
"*@	c #8E8E8E",
"=@	c #777777",
"-@	c #A1A1A1",
";@	c #8D8D8D",
">@	c #9C9C9D",
",@	c #989999",
"'@	c #4C4B4B",
")@	c #929292",
"!@	c #E9E9E9",
"~@	c #EDEEEF",
"{@	c #DFDEDB",
"]@	c #5F491E",
"^@	c #C29D59",
"/@	c #DDB977",
"(@	c #D2A34F",
"_@	c #BAA478",
":@	c #B2939D",
"<@	c #7F3B1A",
"[@	c #5C3B05",
"}@	c #8F8F8F",
"|@	c #7B7B7B",
"1@	c #9E9E9E",
"2@	c #B3B3B3",
"3@	c #7A7A7A",
"4@	c #DDDDDD",
"5@	c #F2F2F3",
"6@	c #DFDDD9",
"7@	c #7C653A",
"8@	c #CCA662",
"9@	c #DCB76F",
"0@	c #D09F44",
"a@	c #C68714",
"b@	c #B69053",
"c@	c #837358",
"d@	c #564824",
"e@	c #999999",
"f@	c #BBBBBB",
"g@	c #F6F6F6",
"h@	c #F4F4F6",
"i@	c #C6C0B5",
"j@	c #846A36",
"k@	c #BE9A53",
"l@	c #DBB56D",
"m@	c #CF9B39",
"n@	c #CA8C1B",
"o@	c #A17116",
"p@	c #785921",
"q@	c #ABA08D",
"r@	c #747579",
"s@	c #9B9B9B",
"t@	c #9F9F9F",
"u@	c #D5D5D5",
"v@	c #CDCDCD",
"w@	c #D6D6D7",
"x@	c #DADBDC",
"y@	c #B7AFA0",
"z@	c #886D38",
"A@	c #CBA65F",
"B@	c #DDB56A",
"C@	c #CD942B",
"D@	c #C58A1C",
"E@	c #956813",
"F@	c #6F5623",
"G@	c #BEB7A8",
"H@	c #F2F3F7",
"I@	c #D9D9D9",
"J@	c #C9C9C9",
"K@	c #CACACA",
"L@	c #B7B7B7",
"M@	c #BEBEBF",
"N@	c #908571",
"O@	c #896C33",
"P@	c #CBA660",
"Q@	c #DAAF5E",
"R@	c #CF972D",
"S@	c #BE861D",
"T@	c #8A5D0B",
"U@	c #796339",
"V@	c #C8C2B6",
"W@	c #FFFFFF",
"X@	c #767676",
"Y@	c #9C9C9C",
"Z@	c #CFCFD2",
"`@	c #8B7C60",
" #	c #9F7F43",
".#	c #D0AB64",
"+#	c #D8AB55",
"@#	c #D09627",
"##	c #B9811B",
"$#	c #704700",
"%#	c #927F5C",
"&#	c #D7D5CF",
"*#	c #FAFBFE",
"=#	c #D8D8D8",
"-#	c #BEBDBD",
";#	c #C2C2C3",
">#	c #C7C9CD",
",#	c #79653D",
"'#	c #A58343",
")#	c #DBB670",
"!#	c #D5A64D",
"~#	c #D19323",
"{#	c #AF7B19",
"]#	c #6B4702",
"^#	c #8C8066",
"/#	c #CDCDCB",
"(#	c #E3E4E5",
"_#	c #F5F5F5",
":#	c #D0D1D1",
"<#	c #C9C9C6",
"[#	c #7B6437",
"}#	c #B08C46",
"|#	c #DFB86F",
"1#	c #D19E40",
"2#	c #CC8F1F",
"3#	c #9E6C0E",
"4#	c #644408",
"5#	c #A29884",
"6#	c #D7D7D8",
"7#	c #DFE1E2",
"8#	c #968971",
"9#	c #BDAD7B",
"0#	c #E3D4A0",
"a#	c #D09F41",
"b#	c #C98D1D",
"c#	c #95660E",
"d#	c #725722",
"e#	c #BFB9AD",
"f#	c #DFE0E1",
"g#	c #D5D4D2",
"h#	c #8F7743",
"i#	c #DED09C",
"j#	c #E1D4A0",
"k#	c #D2B061",
"l#	c #946610",
"m#	c #685021",
"n#	c #BDB7AD",
"o#	c #F8F9FA",
"p#	c #F8F8F8",
"q#	c #E7E9EB",
"r#	c #7C694B",
"s#	c #B69B59",
"t#	c #DAC583",
"u#	c #D1B775",
"v#	c #947636",
"w#	c #765F38",
"x#	c #D5D2CB",
"y#	c #ECEDF1",
"z#	c #F7F7F7",
"A#	c #F2F4F7",
"B#	c #BDB4A1",
"C#	c #6D5D3D",
"D#	c #665736",
"E#	c #A28447",
"F#	c #745E31",
"G#	c #978B76",
"H#	c #E5E6E8",
"I#	c #E4E5E6",
"J#	c #EFEFEF",
"K#	c #EBEBEC",
"L#	c #DDDAD5",
"M#	c #86724F",
"N#	c #58492D",
"O#	c #82745C",
"P#	c #A39B92",
"Q#	c #D6D7D9",
"R#	c #DEE1E6",
"S#	c #787878",
"T#	c #FBFBFB",
"U#	c #FCFCFC",
"V#	c #FEFEFF",
"W#	c #E9E5DE",
"X#	c #C9BFAF",
"Y#	c #E9E4DA",
"Z#	c #FFFFFE",
"`#	c #F8F8F9",
" $	c #FAFAFA",
".$	c #FDFDFD",
"+$	c #FEFEFE",
"@$	c #757575",
"#$	c #5E5E5E",
"$$	c #7E7E7E",
"%$	c #858585",
"&$	c #848484",
"*$	c #848483",
"=$	c #868687",
"-$	c #89898A",
";$	c #878787",
"          . + @ @ # $ % & * = - ; > , ' ) ! ~ { ] ^ / ( _       ",
"        : < [ } | | 1 2 3 4 5 6 7 8 7 8 7 7 8 8 8 8 8 9 0 a     ",
"        b c d e f g h i j k l m n o c p c c c p c c q r 6 s     ",
"        t p p b u v w x y z A B C D E r c c q q q p r 6 6 F     ",
"        G H I . c J K L M N O P Q R S g T U U U U d H V 6 F     ",
"        W V X Y Z `  ...+.@.#.$.%.&.*.g E =.=.=.=.-.6 1 V F     ",
"        ;.c >.,.'.).!.~.{.].^./.(._.:.<.$ [.o o o }.V 1 V F     ",
"        |.;.1.2.3.~.4.5.6.7.8.9.0.a.b.c.d.E E E E f e.e.1 f.    ",
"        g.h.i.j.k.l.m.n.o.p.q.r.s.t.u.v.w.c r r r 6 1 x.e.f.    ",
"        |.y.z.A.B.C.D.E.F.G.H.I.J.K.L.M.N.O.[.[.[.e P.Q.R.S.    ",
"        G T.U.V.W.X.Y.Z.`. +.+++@+#+$+%+! &+&+&+g.-.Q.*+=+-+    ",
"        ;+V >+,+'+)+!+~+{+]+^+/+(+_+:+<+[+}+}.}.d r |+1+2+3+4+  ",
"        ;+5+6+7+8+9+0+a+b+c+d+e+f+g+h+i+j+k+=.=.k+l+m+n+o+p+q+r+",
"        s+$ = t+9 u+v+w+x+y+f+z+A+B+C+G D+d E+F+G+H+I+J+K+L+M+N+",
"        O+= ' P+t Q+R+S+T+U+V+W+X+Y+Z+e U f `+ @.@+@@@#@$@%@&@  ",
"      *@* *@=@Z+-@Z+;@i+>@,@f.'@)@[.Q.!@!@~@{@]@^@/@(@_@:@<@[@  ",
"    { ; }@|@-@1@* 7 | 2@_ 3@*@4@o -.} < 5@6@7@8@9@0@a@b@c@d@    ",
"  e@% ] f.-@> f@5+c c 0 8 g@g@Q.< } < h@i@j@k@l@m@n@o@p@q@r@    ",
"  W 4@s@t@s@t+T u@U [.v@&+=.v@O.f w@x@y@z@A@B@C@D@E@F@G@H@=@    ",
"  2@I@W e@E G J@k+K@g.L@m + @ ;+g M@N@O@P@Q@R@S@T@U@V@W@x.X@    ",
"    @ O+Y@T f O.I v@K@|.t |.&+k+Z@`@ #.#+#@###$#%#&#*#8 Q.=@    ",
"        ; d d }.I@}.=#&+g -#;#>#,#'#)#!#~#{#]#^#/#(#7 _#Q.=@    ",
"        - p V H V 1 6 =#k+:#<#[#}#|#1#2#3#4#5#T 6#r 8 _#Q.=@    ",
"        -@p e.V !@x.x.q I@7#8#9#0#a#b#c#d#e#f#c D+e.8 g@Q.=@    ",
"        ; p e.V !@x.x.c 4@g#h#i#j#k#l#m#n#o#9 9 p#g@7 g@Q.=@    ",
"        1@c e.V !@x.x.r q#r#s#t#u#v#w#x#y#[ z#z#_#8 7 g@Q.=@    ",
"        Y@p e.V !@!@!@A#B#C#D#E#F#G#H#I#p H 1 Q.< J#[ g@Q.=@    ",
"        Y@p 6 6 e.e.K#L#M#N#O#P#Q#R#v@=.I [.-.e c 1 0 7 0 S#    ",
"        ) J#T#T#U#U#V#W#X#Y#Z#W@`#_#_#_#_#z#9  $.$+$W@W@7 @$    ",
"        #$$$%$&$%$%$%$*$=$-$;$/ / / / ;$;$;$/ / / / %$;$_       ",
"                                                                ",
"                                                                "};
