/* XPM */
static char * geda_value_32x32_xpm[] = {
"32 32 372 2",
"  	c None",
". 	c #709924",
"+ 	c #6F9924",
"@ 	c #142910",
"# 	c #C7D523",
"$ 	c #C5D522",
"% 	c #094026",
"& 	c #4A711F",
"* 	c #437724",
"= 	c #639828",
"- 	c #94BA27",
"; 	c #D9DE20",
"> 	c #D1DA22",
", 	c #84B129",
"' 	c #5E992B",
") 	c #3B7D2A",
"! 	c #2E6824",
"~ 	c #2A6424",
"{ 	c #246A29",
"] 	c #42852C",
"^ 	c #68A12C",
"/ 	c #92BA28",
"( 	c #B9CD24",
"_ 	c #CDD921",
": 	c #C9D622",
"< 	c #B5CB24",
"[ 	c #A1C026",
"} 	c #83B02A",
"| 	c #55972E",
"1 	c #348331",
"2 	c #1B702F",
"3 	c #0A5E2D",
"4 	c #1A6A2D",
"5 	c #38842F",
"6 	c #6CA32C",
"7 	c #A5C226",
"8 	c #C2D223",
"9 	c #CFDA21",
"0 	c #D5DF22",
"a 	c #C8D622",
"b 	c #C2D323",
"c 	c #CDD922",
"d 	c #B9CD23",
"e 	c #AAC525",
"f 	c #9EBE26",
"g 	c #76A72B",
"h 	c #3A8831",
"i 	c #036A36",
"j 	c #00542E",
"k 	c #0D602C",
"l 	c #217A32",
"m 	c #7FAD2A",
"n 	c #C4D322",
"o 	c #D4DC21",
"p 	c #D3DD21",
"q 	c #90B425",
"r 	c #4B7023",
"s 	c #B3CB24",
"t 	c #BED123",
"u 	c #45852A",
"v 	c #9ABE27",
"w 	c #B8CE24",
"x 	c #A9C426",
"y 	c #8BB428",
"z 	c #8CB429",
"A 	c #16642D",
"B 	c #006736",
"C 	c #93B828",
"D 	c #D2DC20",
"E 	c #D5DD21",
"F 	c #B6CC23",
"G 	c #799920",
"H 	c #A8C525",
"I 	c #B9CE23",
"J 	c #002625",
"K 	c #5E8A23",
"L 	c #93B927",
"M 	c #A7C425",
"N 	c #9FC026",
"O 	c #A5C325",
"P 	c #3D7A29",
"Q 	c #005431",
"R 	c #679F2D",
"S 	c #DBE020",
"T 	c #CBD921",
"U 	c #94AD22",
"V 	c #A4C225",
"W 	c #B3CA23",
"X 	c #001C27",
"Y 	c #3A6E23",
"Z 	c #91B526",
"` 	c #9BBD26",
" .	c #9ABE26",
"..	c #3D7A28",
"+.	c #005836",
"@.	c #CED921",
"#.	c #C9D721",
"$.	c #BFD123",
"%.	c #7CAA29",
"&.	c #356B26",
"*.	c #AEC825",
"=.	c #001E28",
"-.	c #3B7929",
";.	c #8AB228",
">.	c #95BA27",
",.	c #3A7828",
"'.	c #4C8D2C",
").	c #C7D622",
"!.	c #C4D422",
"~.	c #C3D321",
"{.	c #A7C325",
"].	c #71A72B",
"^.	c #598522",
"/.	c #000309",
"(.	c #9ABD26",
"_.	c #001F27",
":.	c #70A127",
"<.	c #8FB728",
"[.	c #387729",
"}.	c #7AA827",
"|.	c #C3D323",
"1.	c #BED122",
"2.	c #BACF23",
"3.	c #B5CC23",
"4.	c #A3C026",
"5.	c #A0C127",
"6.	c #5F9226",
"7.	c #A2C125",
"8.	c #000F26",
"9.	c #024B27",
"0.	c #86B228",
"a.	c #37792A",
"b.	c #669B29",
"c.	c #C3D322",
"d.	c #BDD023",
"e.	c #B5CB23",
"f.	c #B1C924",
"g.	c #ACC625",
"h.	c #C6D523",
"i.	c #9DBE27",
"j.	c #3D6A25",
"k.	c #609729",
"l.	c #2F7127",
"m.	c #1A5426",
"n.	c #B7CD24",
"o.	c #B0C824",
"p.	c #ABC625",
"q.	c #A6C325",
"r.	c #B0C825",
"s.	c #9EBF26",
"t.	c #96BA27",
"u.	c #A8C324",
"v.	c #759F25",
"w.	c #165322",
"x.	c #8CB125",
"y.	c #B8CE23",
"z.	c #AAC624",
"A.	c #A2C126",
"B.	c #9DBE26",
"C.	c #98BC26",
"D.	c #96BB27",
"E.	c #91B827",
"F.	c #D3DB22",
"G.	c #A1C025",
"H.	c #75A529",
"I.	c #3C7A28",
"J.	c #86B328",
"K.	c #AEC824",
"L.	c #9CBE26",
"M.	c #94B927",
"N.	c #90B727",
"O.	c #8CB527",
"P.	c #91B728",
"Q.	c #9FBE27",
"R.	c #A0BF27",
"S.	c #69A12B",
"T.	c #448A2E",
"U.	c #1D4719",
"V.	c #75A629",
"W.	c #93B827",
"X.	c #8FB727",
"Y.	c #87B328",
"Z.	c #82AF28",
"`.	c #7FAD29",
" +	c #8BB429",
".+	c #94B828",
"++	c #629D2D",
"@+	c #398630",
"#+	c #084220",
"$+	c #649928",
"%+	c #92B827",
"&+	c #8EB628",
"*+	c #89B327",
"=+	c #84B028",
"-+	c #81AF29",
";+	c #7CAD29",
">+	c #78AA2A",
",+	c #73A72B",
"'+	c #75A82A",
")+	c #86B029",
"!+	c #4E922E",
"~+	c #257D33",
"{+	c #3B7627",
"]+	c #7BAA29",
"^+	c #86B128",
"/+	c #84B128",
"(+	c #80AE29",
"_+	c #7BAC29",
":+	c #78AA2B",
"<+	c #73A72A",
"[+	c #6FA52B",
"}+	c #6BA32C",
"|+	c #609D2C",
"1+	c #95B828",
"2+	c #418B30",
"3+	c #0F6B32",
"4+	c #639628",
"5+	c #6FA229",
"6+	c #7AAA29",
"7+	c #76A92A",
"8+	c #71A62A",
"9+	c #6EA42A",
"0+	c #6AA22B",
"a+	c #669F2C",
"b+	c #619E2D",
"c+	c #58982C",
"d+	c #7CAB2A",
"e+	c #1E7833",
"f+	c #003620",
"g+	c #195622",
"h+	c #6EA42B",
"i+	c #72A72B",
"j+	c #649F2B",
"k+	c #609C2C",
"l+	c #5C9B2C",
"m+	c #50932E",
"n+	c #59982E",
"o+	c #005833",
"p+	c #0B6932",
"q+	c #065128",
"r+	c #649F2C",
"s+	c #6CA42A",
"t+	c #42892D",
"u+	c #65A12C",
"v+	c #5A9A2C",
"w+	c #57972D",
"x+	c #52952E",
"y+	c #4E922D",
"z+	c #4E932E",
"A+	c #166F32",
"B+	c #076C36",
"C+	c #10662E",
"D+	c #5F9C2C",
"E+	c #66A12C",
"F+	c #004126",
"G+	c #3F7C28",
"H+	c #599A2D",
"I+	c #56972D",
"J+	c #51942D",
"K+	c #4D922E",
"L+	c #49902F",
"M+	c #448D2E",
"N+	c #2C7C2F",
"O+	c #6EA52C",
"P+	c #307F31",
"Q+	c #5A9A2D",
"R+	c #619D2C",
"S+	c #002722",
"T+	c #387A2A",
"U+	c #4D932F",
"V+	c #4C912D",
"W+	c #478F2F",
"X+	c #448D2F",
"Y+	c #3F8A2F",
"Z+	c #257930",
"`+	c #6DA42B",
" @	c #5F9C2D",
".@	c #15682D",
"+@	c #55972D",
"@@	c #5C9A2C",
"#@	c #002E25",
"$@	c #195623",
"%@	c #3E842D",
"&@	c #428C2F",
"*@	c #3E8A2F",
"=@	c #3A8730",
"-@	c #1A7130",
";@	c #68A12B",
">@	c #77A92B",
",@	c #318130",
"'@	c #165523",
")@	c #50942E",
"!@	c #002E24",
"~@	c #1A5220",
"{@	c #3B822D",
"]@	c #418D30",
"^@	c #3D8930",
"/@	c #388630",
"(@	c #358530",
"_@	c #05552A",
":@	c #71A52B",
"<@	c #4D912E",
"[@	c #316F26",
"}@	c #4B912E",
"|@	c #50952D",
"1@	c #003122",
"2@	c #295019",
"3@	c #498429",
"4@	c #4B932F",
"5@	c #378531",
"6@	c #348531",
"7@	c #267B31",
"8@	c #6CA32B",
"9@	c #6DA32B",
"0@	c #6AA12C",
"a@	c #80AF2A",
"b@	c #79AB2A",
"c@	c #649828",
"d@	c #547821",
"e@	c #4C922F",
"f@	c #4A912F",
"g@	c #3D7D2A",
"h@	c #79AB2B",
"i@	c #348431",
"j@	c #328431",
"k@	c #2B7F31",
"l@	c #105E2B",
"m@	c #5C9C2D",
"n@	c #67A12B",
"o@	c #639E2B",
"p@	c #71A62B",
"q@	c #84B029",
"r@	c #E9EA20",
"s@	c #59992D",
"t@	c #C7D623",
"u@	c #8FB628",
"v@	c #639E2C",
"w@	c #3B8830",
"x@	c #318432",
"y@	c #287C31",
"z@	c #15652C",
"A@	c #43892E",
"B@	c #5A982C",
"C@	c #599B2D",
"D@	c #74A72A",
"E@	c #90B628",
"F@	c #7AAB2B",
"G@	c #56972E",
"H@	c #3A8931",
"I@	c #2A7F32",
"J@	c #21732F",
"K@	c #14612B",
"L@	c #3C6D21",
"M@	c #326522",
"N@	c #29742C",
"O@	c #35832F",
"P@	c #3B8930",
"Q@	c #3E8930",
"R@	c #408C30",
"S@	c #3F8B30",
"T@	c #3A872F",
"U@	c #287E32",
"V@	c #1B7330",
"W@	c #17632B",
"X@	c #1C5924",
"Y@	c #23531E",
"Z@	c #112C13",
"`@	c #358531",
" #	c #368631",
".#	c #034525",
"+#	c #1C6A2D",
"@#	c #1D6B2D",
"                              . +                               ",
"                            @ # $ %                             ",
"                      & * = - ; > , ' ) ! ~                     ",
"                  { ] ^ / ( > _ : < [ } | 1 2 3                 ",
"                4 5 6 7 8 9 0 a b c d e f g h i j               ",
"              k l m n o p q r s t u v w ( x y z A               ",
"              B C D E F G     H I J   K L M N O P               ",
"            Q R S 9 T U       V W X     Y Z `  ...              ",
"            +.a @.#.$.%.&.    N *.=.      -.;.>.,.              ",
"            '.@.).!.~.{.].^./.(.H _.        :.<.[.              ",
"            }.).|.1.2.3.4.5.6.(.7.8.        9.0.a.              ",
"            b.c.d.I e.f.< g.h.V i.j.          k.l.              ",
"            m.2.n.s o.p.q.p.r.s.t.u.v.w.                        ",
"              x.y.*.z.q.A.B.C.D.E.F.G.H.I.                      ",
"                J.K.V [ L.C.M.N.O.P.Q.R.S.T.                    ",
"                U.V.M ` t.W.X.y Y.Z.`. +.+++@+#+                ",
"                    $+M.%+&+*+=+-+;+>+,+'+)+!+~+                ",
"                      {+]+^+/+(+_+:+<+[+}+|+1+2+3+              ",
"                          4+5+6+7+8+9+0+a+b+c+d+e+f+            ",
"                            g+h+8+i+^ j+k+l+c+m+n+o+            ",
"              p+q+            r+s+t+u+k+v+w+x+y+z+A+            ",
"              B+C+            D+E+F+G+H+I+J+K+L+M+N+            ",
"              O+P+            Q+R+S+  T+U+V+W+X+Y+Z+            ",
"              `+ @.@          +@@@#@  $@%@W+&@*@=@-@            ",
"              ;@>@,@'@        )@I+!@  ~@{@]@^@/@(@_@            ",
"              r+i+:@<@[@      }@|@1@2@3@4@=@5@6@7@              ",
"              D+8@9@0@a@b@c@d@e@f@g@`+h@}@i@j@k@l@              ",
"              m@n@o@p@q@t.d.r@s@X+t@u@v@w@x@y@z@                ",
"              A@B@C@Q+ @h+D@E@}@Y+F@G@H@I@J@K@                  ",
"                L@M@N@O@P@Q@R@S@T@U@V@W@X@                      ",
"                          Y@Z@`@ #.#                            ",
"                              +#@#                              "};
