/* XPM */
static char * geda_demote_28x28_xpm[] = {
"28 28 121 2",
"  	c None",
". 	c #00042F",
"+ 	c #000548",
"@ 	c #00084A",
"# 	c #000C2A",
"$ 	c #00051F",
"% 	c #000624",
"& 	c #000933",
"* 	c #000A37",
"= 	c #000925",
"- 	c #000A26",
"; 	c #000A22",
"> 	c #000E2F",
", 	c #000D36",
"' 	c #000A2F",
") 	c #000B29",
"! 	c #001034",
"~ 	c #001337",
"{ 	c #000622",
"] 	c #00052D",
"^ 	c #000D34",
"/ 	c #001230",
"( 	c #000A2E",
"_ 	c #000522",
": 	c #00062D",
"< 	c #000A2D",
"[ 	c #000724",
"} 	c #00072F",
"| 	c #000E37",
"1 	c #001530",
"2 	c #000D2C",
"3 	c #000924",
"4 	c #000930",
"5 	c #001038",
"6 	c #001631",
"7 	c #000219",
"8 	c #00032B",
"9 	c #000A35",
"0 	c #000F30",
"a 	c #000630",
"b 	c #00061E",
"c 	c #00042C",
"d 	c #000A34",
"e 	c #000621",
"f 	c #001C3B",
"g 	c #00356D",
"h 	c #00336B",
"i 	c #003D67",
"j 	c #001F40",
"k 	c #000B32",
"l 	c #00122C",
"m 	c #000C2C",
"n 	c #00246E",
"o 	c #001846",
"p 	c #00296B",
"q 	c #03114C",
"r 	c #0B0029",
"s 	c #000B1F",
"t 	c #00061A",
"u 	c #000B25",
"v 	c #000C22",
"w 	c #000D35",
"x 	c #001236",
"y 	c #00112E",
"z 	c #000834",
"A 	c #000723",
"B 	c #00092E",
"C 	c #00031C",
"D 	c #040016",
"E 	c #000E38",
"F 	c #000F37",
"G 	c #000F36",
"H 	c #000E33",
"I 	c #000D32",
"J 	c #000C33",
"K 	c #000931",
"L 	c #001537",
"M 	c #00051D",
"N 	c #000A27",
"O 	c #000B2B",
"P 	c #000E32",
"Q 	c #000C31",
"R 	c #000A32",
"S 	c #001033",
"T 	c #00102E",
"U 	c #000B2D",
"V 	c #000C29",
"W 	c #000D2F",
"X 	c #000F34",
"Y 	c #000C32",
"Z 	c #000E34",
"` 	c #000D29",
" .	c #000A21",
"..	c #000D2E",
"+.	c #051428",
"@.	c #000927",
"#.	c #000C2E",
"$.	c #001039",
"%.	c #000F33",
"&.	c #000E30",
"*.	c #000D39",
"=.	c #000829",
"-.	c #000623",
";.	c #001037",
">.	c #001235",
",.	c #000C37",
"'.	c #000011",
").	c #000821",
"!.	c #000F35",
"~.	c #000929",
"{.	c #000422",
"].	c #000B1E",
"^.	c #00081E",
"/.	c #000619",
"(.	c #00081F",
"_.	c #000B31",
":.	c #000F39",
"<.	c #000708",
"[.	c #00092C",
"}.	c #000007",
"|.	c #020018",
"                                                        ",
"                        . + @ #                         ",
"                      $ % & * =                         ",
"                      - ; > , '                         ",
"                      - ) ! ~ ,                         ",
"                      { ] ^ / (                         ",
"                      _ : ^ / (                         ",
"                      _ : ^ / (                         ",
"                      _ : ^ / <                         ",
"                      [ } | 1 2                         ",
"                      3 4 5 6 >                         ",
"                      7 8 9 0 a                         ",
"                      b c d # e                         ",
"              f g h i j k , l m n o p q r               ",
"              s t u s v w x y z [ A B C D               ",
"                ) E F G H I J K x L G M                 ",
"                N O P H P H Q R S T N U                 ",
"                  V W H H X Q Y Z `  .                  ",
"                  S I H I H I Y , ..+.                  ",
"                    @.#.$.%.&.*.=.-.                    ",
"                    e O ;.>.Q ,.-.'.                    ",
"                      ).# P !.~.{.                      ",
"                      ].^.J | /.                        ",
"                        (._.:.<.                        ",
"                          M [.                          ",
"                          }.|.                          ",
"                                                        ",
"                                                        "};
