/* XPM */
static char * geda_circle_22x22_xpm[] = {
"22 22 2 1",
" 	c None",
".	c #716DDE",
"                      ",
"          ...         ",
"      ...........     ",
"     ..............   ",
"    ....       .....  ",
"   ...           ...  ",
"  ...             ... ",
"  ...             ... ",
" ...               .. ",
" ...               .. ",
" ...               ...",
" ...               ...",
" ...               ...",
" ...               .. ",
" ...               .. ",
"  ...             ... ",
"  ...             ... ",
"   ...           .... ",
"    ....       .....  ",
"     ..............   ",
"      ...........     ",
"          ...         "};
