/* XPM */
static char * geda_circle_26x26_xpm[] = {
"26 26 2 1",
" 	c None",
".	c #716DDE",
"                          ",
"            ...           ",
"        ...........       ",
"       .............      ",
"      ....       ....     ",
"     ...           ...    ",
"    ...             ...   ",
"  ....               ...  ",
"  ...                 ... ",
"  ...                 ... ",
" ...                   .. ",
" ...                   .. ",
" ...                   ...",
" ...                   ...",
" ...                   ...",
" ...                   .. ",
" ...                   .. ",
"  ...                 ... ",
"  ...                 ... ",
"  ....               ...  ",
"    ...             ...   ",
"     ...           ...    ",
"      ....       ....     ",
"       .............      ",
"        ...........       ",
"            ...           "};
