/* XPM */
static char * geda_find_24x24_xpm[] = {
"24 24 349 2",
"  	c None",
". 	c #34312D",
"+ 	c #37322F",
"@ 	c #2D312F",
"# 	c #202C2E",
"$ 	c #28221B",
"% 	c #302822",
"& 	c #292B29",
"* 	c #1A2C32",
"= 	c #0F2126",
"- 	c #243236",
"; 	c #24221C",
"> 	c #352D25",
", 	c #1F2827",
"' 	c #13272F",
") 	c #203031",
"! 	c #2C231C",
"~ 	c #342B28",
"{ 	c #312F2C",
"] 	c #1F333C",
"^ 	c #132730",
"/ 	c #152328",
"( 	c #2B3233",
"_ 	c #302821",
": 	c #40362D",
"< 	c #1F292C",
"[ 	c #1B2A2F",
"} 	c #152525",
"| 	c #262319",
"1 	c #2E281F",
"2 	c #262723",
"3 	c #14262B",
"4 	c #0E2126",
"5 	c #161B17",
"6 	c #1F2B29",
"7 	c #151B1B",
"8 	c #1A1A19",
"9 	c #302921",
"0 	c #191E1C",
"a 	c #111B1C",
"b 	c #151D1D",
"c 	c #24251F",
"d 	c #3B3430",
"e 	c #2F271F",
"f 	c #392F22",
"g 	c #211C16",
"h 	c #1C1810",
"i 	c #233237",
"j 	c #081416",
"k 	c #0C1B1F",
"l 	c #181A14",
"m 	c #16170F",
"n 	c #182425",
"o 	c #273232",
"p 	c #29211C",
"q 	c #574334",
"r 	c #2A2B30",
"s 	c #1C3340",
"t 	c #162C3A",
"u 	c #112025",
"v 	c #040706",
"w 	c #16120D",
"x 	c #172D38",
"y 	c #0B2B36",
"z 	c #060504",
"A 	c #1D1D17",
"B 	c #242019",
"C 	c #211E18",
"D 	c #171614",
"E 	c #0B0F10",
"F 	c #0B1414",
"G 	c #131C1F",
"H 	c #2A3432",
"I 	c #221A17",
"J 	c #1B1814",
"K 	c #312920",
"L 	c #191914",
"M 	c #0B0D0D",
"N 	c #111412",
"O 	c #23261E",
"P 	c #2B231A",
"Q 	c #362C1E",
"R 	c #46331D",
"S 	c #152634",
"T 	c #08100F",
"U 	c #0E110F",
"V 	c #13130F",
"W 	c #392E21",
"X 	c #2B291F",
"Y 	c #12252B",
"Z 	c #0C1412",
"` 	c #0A1111",
" .	c #1B2C31",
"..	c #2A241C",
"+.	c #1C1A17",
"@.	c #45362A",
"#.	c #2D3031",
"$.	c #1C292E",
"%.	c #1E201E",
"&.	c #4D3B2F",
"*.	c #69503D",
"=.	c #2C281D",
"-.	c #1A1A17",
";.	c #0E2127",
">.	c #0A1316",
",.	c #0C0E0C",
"'.	c #221E19",
").	c #3D3327",
"!.	c #252928",
"~.	c #18262D",
"{.	c #121E1F",
"].	c #132226",
"^.	c #28221C",
"/.	c #292320",
"(.	c #49382B",
"_.	c #262927",
":.	c #1A2732",
"<.	c #151D1E",
"[.	c #060907",
"}.	c #191714",
"|.	c #342B22",
"1.	c #2F2E2D",
"2.	c #182A32",
"3.	c #071214",
"4.	c #0B0C09",
"5.	c #231F1A",
"6.	c #262726",
"7.	c #18252B",
"8.	c #141B1B",
"9.	c #162022",
"0.	c #1C3036",
"a.	c #46392E",
"b.	c #272119",
"c.	c #2C2521",
"d.	c #46352D",
"e.	c #272624",
"f.	c #172C32",
"g.	c #181F22",
"h.	c #0C0E0B",
"i.	c #241F19",
"j.	c #312924",
"k.	c #2B2C2B",
"l.	c #15292F",
"m.	c #081519",
"n.	c #0A0C08",
"o.	c #22201A",
"p.	c #2F2821",
"q.	c #282726",
"r.	c #182529",
"s.	c #141B1C",
"t.	c #172121",
"u.	c #1A2B31",
"v.	c #352C22",
"w.	c #29221C",
"x.	c #30281F",
"y.	c #49382C",
"z.	c #292624",
"A.	c #162730",
"B.	c #161E21",
"C.	c #0E0F0C",
"D.	c #231E19",
"E.	c #262826",
"F.	c #132029",
"G.	c #071216",
"H.	c #221F18",
"I.	c #2E2920",
"J.	c #292622",
"K.	c #182023",
"L.	c #111A1C",
"M.	c #172021",
"N.	c #152429",
"O.	c #322824",
"P.	c #312923",
"Q.	c #322822",
"R.	c #473929",
"S.	c #211F1D",
"T.	c #17282F",
"U.	c #0C171C",
"V.	c #000000",
"W.	c #110E0C",
"X.	c #191614",
"Y.	c #0A1010",
"Z.	c #09100F",
"`.	c #141716",
" +	c #1F1B19",
".+	c #393122",
"++	c #2B2828",
"@+	c #132123",
"#+	c #0E1917",
"$+	c #131F21",
"%+	c #101E1F",
"&+	c #352820",
"*+	c #34291F",
"=+	c #2B231D",
"-+	c #3E3126",
";+	c #312E2B",
">+	c #182128",
",+	c #1F201D",
"'+	c #876D4A",
")+	c #F2DD90",
"!+	c #6B523E",
"~+	c #3C2A24",
"{+	c #121816",
"]+	c #0C0F0F",
"^+	c #0C100E",
"/+	c #262419",
"(+	c #43332C",
"_+	c #322A21",
":+	c #152226",
"<+	c #0E1C22",
"[+	c #122129",
"}+	c #101D22",
"|+	c #302721",
"1+	c #2A2620",
"2+	c #23201A",
"3+	c #232628",
"4+	c #193342",
"5+	c #142A36",
"6+	c #191613",
"7+	c #1D130E",
"8+	c #2E261D",
"9+	c #3F2F28",
"0+	c #0F1314",
"a+	c #0A0D09",
"b+	c #171611",
"c+	c #221D18",
"d+	c #2D241E",
"e+	c #25221F",
"f+	c #142327",
"g+	c #0E1D22",
"h+	c #0C1B21",
"i+	c #0B1619",
"j+	c #161F1F",
"k+	c #29231A",
"l+	c #2E251D",
"m+	c #2C251A",
"n+	c #0E0D0A",
"o+	c #070A08",
"p+	c #121512",
"q+	c #141715",
"r+	c #151714",
"s+	c #282220",
"t+	c #1C1813",
"u+	c #2B211A",
"v+	c #17140F",
"w+	c #0C0E0D",
"x+	c #090E0C",
"y+	c #182321",
"z+	c #352A20",
"A+	c #3A2F22",
"B+	c #1A1712",
"C+	c #090B08",
"D+	c #392A26",
"E+	c #282118",
"F+	c #39311E",
"G+	c #1B1B19",
"H+	c #151F1E",
"I+	c #121A19",
"J+	c #131E1F",
"K+	c #382D20",
"L+	c #372D24",
"M+	c #332A22",
"N+	c #23201C",
"O+	c #121817",
"P+	c #0D0F0D",
"Q+	c #20201B",
"R+	c #2E221B",
"S+	c #262117",
"T+	c #352A21",
"U+	c #191D1B",
"V+	c #161D1E",
"W+	c #101819",
"X+	c #0F1818",
"Y+	c #362A21",
"Z+	c #3B3326",
"`+	c #352B2A",
" @	c #252425",
".@	c #161E20",
"+@	c #0D1314",
"@@	c #1A1918",
"#@	c #221D16",
"$@	c #241E1A",
"%@	c #332B1D",
"&@	c #181B17",
"*@	c #111A1A",
"=@	c #0D1616",
"-@	c #312A1F",
";@	c #403227",
">@	c #342B2B",
",@	c #2A2727",
"'@	c #0F1B20",
")@	c #151514",
"!@	c #1E1A12",
"~@	c #202015",
"{@	c #28211E",
"]@	c #12181A",
"^@	c #101719",
"/@	c #0E1414",
"(@	c #091110",
"_@	c #32261E",
":@	c #3A3126",
"<@	c #322B28",
"[@	c #2B2926",
"}@	c #182021",
"|@	c #0E1A20",
"1@	c #151816",
"2@	c #141510",
"3@	c #181614",
"4@	c #1E1C16",
"5@	c #111513",
"6@	c #0F1617",
"7@	c #0C1313",
"8@	c #0A1312",
"9@	c #2C251D",
"0@	c #3C3126",
"a@	c #342D27",
"b@	c #272727",
"c@	c #0D1B1B",
"d@	c #121716",
"e@	c #0E0E0C",
"f@	c #121310",
"g@	c #0A1313",
"h@	c #091011",
"i@	c #211E17",
"j@	c #3D3328",
"k@	c #332C27",
"l@	c #171B20",
"m@	c #0D181A",
"n@	c #0B1211",
"o@	c #1F1912",
"p@	c #0D100C",
"q@	c #121411",
"r@	c #0C1112",
"s@	c #091111",
"t@	c #060D0D",
"u@	c #172227",
"v@	c #29251C",
"w@	c #221F16",
"x@	c #2B241D",
"y@	c #121314",
"z@	c #0B1111",
"A@	c #090C0C",
"B@	c #0C0F0D",
"C@	c #0C0D0A",
"D@	c #0E0F0D",
"E@	c #0A0C09",
"F@	c #070A09",
"G@	c #080C09",
"H@	c #080D0C",
"              .             + @ #               ",
"          $ % & * = -     ; > , ' )             ",
"          ! ~ { ] ^ /   ( _ : < [ }             ",
"          | 1 2 3 4 5 6 7 8 9 0 a b             ",
"          c d e f g h i j k l m n o             ",
"      p q r s t u v w x y z A B C D E F G H     ",
"    I J K L M N O P Q R S T U V W X Y Z `  .    ",
"    ..+.@.#.$.%.&.*.=.-.;.>.,.'.).!.~.{.].      ",
"    ^./.(._.:.<.[.}.|.1.2.3.4.5._ 6.7.8.9.0.    ",
"  a.b.c.d.e.f.g.h.i.j.k.l.m.n.o.p.q.r.s.t.u.    ",
"  v.w.x.y.z.A.B.C.D.v.E.F.G.n.H.I.J.K.L.M.N.    ",
"  O.P.Q.R.S.T.U.V.V.W.X.Y.Z.`. +.+++@+#+$+%+    ",
"  &+*+=+-+;+>+,+'+)+!+~+{+]+^+/+(+_+:+<+[+}+    ",
"  |+1+2+_+3+4+5+6+7+8+9+0+a+b+c+d+e+f+g+h+i+j+  ",
"  k+l+m+6+n+o+p+q+r+            s+t+u+v+w+x+y+  ",
"  z+A+z+B+C+C+                  D+E+F+G+H+I+J+  ",
"  K+L+M+N+O+P+Q+                R+S+T+U+V+W+X+  ",
"  Y+Z+`+ @.@+@@@                #@$@%@&@*@=@X+  ",
"  -@;@>@,@:+'@)@                !@~@{@]@^@/@(@  ",
"  _@:@<@[@}@|@1@                2@3@4@5@6@7@8@  ",
"  9@0@a@b@9.c@d@                e@f@L 5@=@g@h@  ",
"  i@j@k@l@m@8@n@              o@n.p@q@r@` s@t@u@",
"v@w@0@x@y@z@A@B@                C@D@E@F@G@x+H@  ",
"                                                "};
