/* XPM */
static char *geda_arc_22x22[] = {
/* columns rows colors chars-per-pixel */
"22 22 71 1 ",
"  c red",
". c #FF0002",
"X c #FF0102",
"o c #FF0103",
"O c #FF0600",
"+ c #FF0004",
"@ c #FF0005",
"# c #FE0304",
"$ c #FF0006",
"% c #FE0206",
"& c #FE0706",
"* c #FF0706",
"= c #FF0900",
"- c #FF0A00",
"; c #FF0B00",
": c #FF0905",
"> c #FF0C05",
", c #FF050C",
"< c #FF060C",
"1 c #FF1300",
"2 c #FF1400",
"3 c #FF1500",
"4 c #FF1D03",
"5 c #FC1009",
"6 c #FD150B",
"7 c #FB1E0A",
"8 c #FC1F09",
"9 c #FC1F0D",
"0 c #FF0011",
"q c #F90517",
"w c #FA0913",
"e c #FB0F12",
"r c #FE0E12",
"t c #FF0F14",
"y c #F8021B",
"u c #FE0F19",
"i c #FE0F1A",
"p c #F90F1E",
"a c #FE0D1D",
"s c #FF1712",
"d c #FA1314",
"f c #F8161B",
"g c #F91919",
"h c #F81A1B",
"j c #FF2200",
"k c #FF2800",
"l c #FD2907",
"z c #F9251B",
"x c #F8261B",
"c c #F93119",
"v c #FE1727",
"b c #F61A23",
"n c #FE1A23",
"m c #FD1826",
"M c #F4172B",
"N c #FD192B",
"B c #F00D38",
"V c #F21932",
"C c #F52125",
"Z c #FD2021",
"A c #FD2629",
"S c #FD2534",
"D c #FC3A39",
"F c #FC383D",
"G c #FC403F",
"H c #FC384F",
"J c #FB525D",
"K c #FB5D64",
"L c #FA6263",
"P c #F97374",
"I c None",
/* pixels */
"IIIIIIIIIIIIIIIIIVy  Z",
"IIIIIIIIIIIIIIIz83*tHI",
"IIIIIIIIIIIIICl;smPIII",
"IIIIIIIIIIIc8j4DIIIIII",
"IIIIIIIIIIzksAIIIIIIII",
"IIIIIIIIIg3 IIIIIIIIII",
"IIIIIIII9;,LIIIIIIIIII",
"IIIIIIIp;NIIIIIIIIIIII",
"IIIIIIf>iIIIIIIIIIIIII",
"IIIIIg30KIIIIIIIIIIIII",
"IIIIBeiIIIIIIIIIIIIIII",
"IIII6#JIIIIIIIIIIIIIII",
"IIIb#SIIIIIIIIIIIIIIII",
"IIIdtHIIIIIIIIIIIIIIII",
"IIM1aIIIIIIIIIIIIIIIII",
"II5:vIIIIIIIIIIIIIIIII",
"II*#IIIIIIIIIIIIIIIIII",
"Iw#iIIIIIIIIIIIIIIIIII",
"IO FIIIIIIIIIIIIIIIIII",
"Iq,IIIIIIIIIIIIIIIIIII",
"I#mIIIIIIIIIIIIIIIIIII",
"I##IIIIIIIIIIIIIIIIIII"
};
