/* XPM */
static char * geda_man_26x26_xpm[] = {
"26 26 275 2",
"  	c None",
". 	c #AEB1B4",
"+ 	c #B8BBBF",
"@ 	c #A0A6AB",
"# 	c #90959A",
"$ 	c #B5B9BD",
"% 	c #BCC2C8",
"& 	c #9EA4AA",
"* 	c #7D858C",
"= 	c #6F787F",
"- 	c #676F76",
"; 	c #B7BBC1",
"> 	c #92989F",
", 	c #626972",
"' 	c #555D66",
") 	c #505761",
"! 	c #515963",
"~ 	c #6C747B",
"{ 	c #686E77",
"] 	c #707681",
"^ 	c #5D6470",
"/ 	c #333843",
"( 	c #242933",
"_ 	c #2B2F3B",
": 	c #3B414B",
"< 	c #798089",
"[ 	c #838B93",
"} 	c #4B5460",
"| 	c #3A393E",
"1 	c #2C2A2F",
"2 	c #2B292E",
"3 	c #2A2A31",
"4 	c #303139",
"5 	c #47484D",
"6 	c #989FA7",
"7 	c #59646E",
"8 	c #38434D",
"9 	c #AC9F92",
"0 	c #AD9D90",
"a 	c #9D8D83",
"b 	c #80736A",
"c 	c #76695F",
"d 	c #7E746A",
"e 	c #68727F",
"f 	c #47515B",
"g 	c #3B454F",
"h 	c #D8CDBF",
"i 	c #E5DAD0",
"j 	c #E3D9CF",
"k 	c #D0C4B6",
"l 	c #C7B7A5",
"m 	c #948576",
"n 	c #454C57",
"o 	c #53585A",
"p 	c #2D3642",
"q 	c #CEC3B4",
"r 	c #DBD1C6",
"s 	c #E1D7CE",
"t 	c #DACFC4",
"u 	c #D1C1B1",
"v 	c #A29582",
"w 	c #69635E",
"x 	c #6B635B",
"y 	c #070C18",
"z 	c #C5BBAB",
"A 	c #D2C7BA",
"B 	c #D6CBBF",
"C 	c #D3C5B8",
"D 	c #AC9981",
"E 	c #A0907D",
"F 	c #49403D",
"G 	c #02040C",
"H 	c #C8BBAA",
"I 	c #CCBEAD",
"J 	c #CCBCAB",
"K 	c #B9A692",
"L 	c #A79179",
"M 	c #A3917A",
"N 	c #5D534C",
"O 	c #BEAE9C",
"P 	c #C0B19E",
"Q 	c #C1B19E",
"R 	c #AA9582",
"S 	c #A28C73",
"T 	c #98846D",
"U 	c #A79683",
"V 	c #BDA895",
"W 	c #B29F8B",
"X 	c #9A8169",
"Y 	c #86715A",
"Z 	c #B5A38F",
"` 	c #AB9E8F",
" .	c #8F8F96",
"..	c #51565D",
"+.	c #8C827B",
"@.	c #836A54",
"#.	c #7A6248",
"$.	c #B4A18D",
"%.	c #B9ADA2",
"&.	c #C2C0BF",
"*.	c #7A7E86",
"=.	c #384048",
"-.	c #666F77",
";.	c #57606C",
">.	c #5C6871",
",.	c #A1A7A7",
"'.	c #B9AA9A",
").	c #BAAC9D",
"!.	c #BCAFA3",
"~.	c #D7D7D4",
"{.	c #C2C4C7",
"].	c #898E94",
"^.	c #303943",
"/.	c #373C46",
"(.	c #7E878F",
"_.	c #77818A",
":.	c #636C76",
"<.	c #868C96",
"[.	c #B3B5BE",
"}.	c #BCB8B4",
"|.	c #E4E7E9",
"1.	c #DBDCDC",
"2.	c #BFC0C2",
"3.	c #70777F",
"4.	c #4E5964",
"5.	c #262F39",
"6.	c #323943",
"7.	c #48505A",
"8.	c #777F87",
"9.	c #6D7680",
"0.	c #5F6973",
"a.	c #777E85",
"b.	c #6F8899",
"c.	c #517392",
"d.	c #8D9199",
"e.	c #787F89",
"f.	c #66707B",
"g.	c #3D4751",
"h.	c #3B454E",
"i.	c #2E3841",
"j.	c #3C4349",
"k.	c #69717A",
"l.	c #4A535E",
"m.	c #404A54",
"n.	c #595B60",
"o.	c #6597B4",
"p.	c #4A7BA4",
"q.	c #98A8B1",
"r.	c #656A74",
"s.	c #878E99",
"t.	c #8C95A0",
"u.	c #6A747E",
"v.	c #5A646E",
"w.	c #505963",
"x.	c #232C36",
"y.	c #242C35",
"z.	c #434B54",
"A.	c #2E3842",
"B.	c #2B333D",
"C.	c #3F4A50",
"D.	c #52A7CB",
"E.	c #4587BA",
"F.	c #A0B0BD",
"G.	c #6D767C",
"H.	c #69717B",
"I.	c #6F7883",
"J.	c #656F79",
"K.	c #565F69",
"L.	c #566069",
"M.	c #3E4851",
"N.	c #1E2831",
"O.	c #222C36",
"P.	c #28323B",
"Q.	c #282F38",
"R.	c #304252",
"S.	c #3080B0",
"T.	c #4879A3",
"U.	c #565F6C",
"V.	c #454E57",
"W.	c #37414C",
"X.	c #363F4A",
"Y.	c #363F49",
"Z.	c #3C4650",
"`.	c #48525C",
" +	c #414B55",
".+	c #242E38",
"++	c #1D2730",
"@+	c #222D36",
"#+	c #202A34",
"$+	c #272F38",
"%+	c #233647",
"&+	c #1F4D79",
"*+	c #374D6D",
"=+	c #3E4852",
"-+	c #2F3842",
";+	c #202833",
">+	c #323B45",
",+	c #444D57",
"'+	c #212B34",
")+	c #3C4249",
"!+	c #1F2933",
"~+	c #212B35",
"{+	c #273039",
"]+	c #212D3D",
"^+	c #253555",
"/+	c #364252",
"(+	c #303B44",
"_+	c #252D38",
":+	c #323B46",
"<+	c #313A44",
"[+	c #29323C",
"}+	c #3E4751",
"|+	c #353F48",
"1+	c #242E37",
"2+	c #232E37",
"3+	c #2C353E",
"4+	c #2B313C",
"5+	c #232D38",
"6+	c #252F39",
"7+	c #262F3B",
"8+	c #2D3649",
"9+	c #323C47",
"0+	c #313B45",
"a+	c #2F3843",
"b+	c #353E48",
"c+	c #333D46",
"d+	c #2A333D",
"e+	c #36404A",
"f+	c #37404A",
"g+	c #2B353F",
"h+	c #27323B",
"i+	c #2B363F",
"j+	c #65696F",
"k+	c #1A2630",
"l+	c #27303A",
"m+	c #2D3641",
"n+	c #3A444D",
"o+	c #3D4651",
"p+	c #27313B",
"q+	c #303A44",
"r+	c #38424C",
"s+	c #323C46",
"t+	c #27323C",
"u+	c #323B43",
"v+	c #646B6F",
"w+	c #3C444C",
"x+	c #202933",
"y+	c #202934",
"z+	c #29323D",
"A+	c #343D48",
"B+	c #303944",
"C+	c #2E3742",
"D+	c #28313C",
"E+	c #1E2732",
"F+	c #29333D",
"G+	c #38414B",
"H+	c #353F49",
"I+	c #28333D",
"J+	c #485058",
"K+	c #B0B1B1",
"L+	c #636970",
"M+	c #545B61",
"N+	c #39434A",
"O+	c #27313A",
"P+	c #25303A",
"Q+	c #262F3A",
"R+	c #232B35",
"S+	c #1F2831",
"T+	c #313B44",
"U+	c #424C55",
"V+	c #535A60",
"W+	c #70767B",
"X+	c #73797F",
"Y+	c #72777D",
"Z+	c #6F7379",
"                    . + @ #                         ",
"                  $ % & * = -                       ",
"                ; > , ' ) ! ~ {                     ",
"              ] ^ / ( _ : < [ }                     ",
"              | 1 2 3 4 5 6 7 8                     ",
"              9 0 a b c d e f g                     ",
"              h i j k l m n o p                     ",
"              q r s t u v w x y                     ",
"              z A B C l D E F G                     ",
"                H I J K L M N                       ",
"                O P Q R S T U                       ",
"                  V W X Y Z `  .                    ",
"                ..+.@.#.$.%.&.*.=.                  ",
"            -.;.>.,.'.).!.~.{.].^./.                ",
"          (._.:.<.[.}.  |.1.2.3.4.5.6.7.            ",
"          8.9.0.a.b.c.      d.e.f.g.h.i.j.          ",
"          k.l.m.n.o.p.q.  r.s.t.u.v.w.x.y.          ",
"          z.A.B.C.D.E.F.G.H.I.J.K.L.M.N.O.          ",
"          P.O.Q.R.S.T.U.V.W.X.Y.Z.`. +.+++          ",
"          @+#+$+%+&+*+=+-+;+x.>+^.,+g.#+'+)+        ",
"          !+~+{+]+^+/+(+.+_+:+<+[+}+|+1+2+3+        ",
"          4+5+6+7+8+9+0+a+b+c+d+.+e+f+g+h+i+        ",
"          j+=.k+l+m+g+n+o+f+a+p+#+q+r+s+t+u+        ",
"            v+w+x+y+z+:+A+B+C+D+E+F+G+H+I+J+K+      ",
"                L+M+N+O+P+P+Q+R+S+.+T+U+V+          ",
"                        W+X+Y+Z+                    "};
