/* XPM */
static char * geda_locate_reference_32x32_xpm[] = {
"32 32 108 2",
"  	c None",
". 	c #101010",
"+ 	c #030303",
"@ 	c #020202",
"# 	c #030404",
"$ 	c #020304",
"% 	c #0F0F0F",
"& 	c #000000",
"* 	c #F3F3F3",
"= 	c #BABABA",
"- 	c #1F2020",
"; 	c #4E5257",
"> 	c #88929B",
", 	c #AFBBC7",
"' 	c #F7F7F7",
") 	c #F5F5F5",
"! 	c #18191A",
"~ 	c #9BA6B1",
"{ 	c #D4E2F1",
"] 	c #F9F9F9",
"^ 	c #FFFFFF",
"/ 	c #040404",
"( 	c #1C1D1D",
"_ 	c #A0AAB5",
": 	c #273543",
"< 	c #161718",
"[ 	c #212121",
"} 	c #000101",
"| 	c #565B61",
"1 	c #22303F",
"2 	c #AEBCCA",
"3 	c #13181D",
"4 	c #535353",
"5 	c #060606",
"6 	c #666666",
"7 	c #323232",
"8 	c #090909",
"9 	c #97A1AC",
"0 	c #D7E6F5",
"a 	c #3D3D3E",
"b 	c #070707",
"c 	c #F6F6F6",
"d 	c #CECECE",
"e 	c #010102",
"f 	c #C4D1DF",
"g 	c #0D0D0E",
"h 	c #FEFEFE",
"i 	c #C3C3C3",
"j 	c #121212",
"k 	c #949494",
"l 	c #0E0E0E",
"m 	c #C4D2E0",
"n 	c #BFCDDB",
"o 	c #5F5F5F",
"p 	c #777878",
"q 	c #292929",
"r 	c #1A242F",
"s 	c #F0F0F0",
"t 	c #FDFDFD",
"u 	c #808A94",
"v 	c #19232E",
"w 	c #D9D9D9",
"x 	c #0C0C0C",
"y 	c #B9B9B9",
"z 	c #050606",
"A 	c #363B40",
"B 	c #818A94",
"C 	c #B4BFCC",
"D 	c #A6B2BE",
"E 	c #16202A",
"F 	c #505459",
"G 	c #AAAAAA",
"H 	c #8C8C8C",
"I 	c #545555",
"J 	c #181818",
"K 	c #090A0A",
"L 	c #0D0E0E",
"M 	c #F4F4F4",
"N 	c #797979",
"O 	c #B7B7B7",
"P 	c #414141",
"Q 	c #FBFBFB",
"R 	c #131313",
"S 	c #EEEEEE",
"T 	c #050505",
"U 	c #3C3C3C",
"V 	c #C0C0C0",
"W 	c #0A0A0A",
"X 	c #1F1F1F",
"Y 	c #898989",
"Z 	c #D1D1D1",
"` 	c #D2D2D2",
" .	c #D6D6D6",
"..	c #919191",
"+.	c #0B0B0B",
"@.	c #111111",
"#.	c #595959",
"$.	c #8F8F8F",
"%.	c #BDBDBD",
"&.	c #EBEBEB",
"*.	c #FAFAFA",
"=.	c #5A5A5A",
"-.	c #141414",
";.	c #151515",
">.	c #444444",
",.	c #7C7C7C",
"'.	c #ADADAD",
").	c #DBDBDB",
"                                                                ",
"  . . + + + + @ # $ $ $ # @ @ + + + + + + + + %                 ",
"  . . + + + + @ # $ $ $ # @ @ + + + + + + + + %                 ",
"  & & * = - - ; > , , , > ; ; - = ' ' ' ' ) ) +                 ",
"  & & = ! ~ ~ { { { { { { { { ~ ! = = ] ^ ^ ^ /                 ",
"  & & ( _ { { { : { { { : { { { _ < < [ * ^ ^ /                 ",
"  & & ( _ { { { : { { { : { { { _ < < [ * ^ ^ /                 ",
"  } } | { { { { 1 { { { 1 { { { 2 3 3 4 ^ ^ ^ 5 6 7 7 8 8 % %   ",
"  $ $ 9 { { { : 1 { { : 1 { { : 1 0 0 a ^ ^ ^ b c ^ ^ ^ d 5 5   ",
"  e e f { 0 0 1 1 { { 1 1 { { 1 1 f f g h ^ ^ b c ^ ^ ^ i j j   ",
"  e e f { 0 0 1 1 { { 1 1 { { 1 1 f f g h ^ ^ b c ^ ^ ^ i j j   ",
"  e e f { { { 1 1 { { 1 1 { { 1 1 f f g h ^ ^ b c ^ ^ ^ k l l   ",
"  $ $ 9 { 0 0 m 0 { { m n { { m n 9 9 a ^ ^ ^ b c ^ ^ ^ o       ",
"  } } | { { { : : { { : : { { 1 1 | | p ^ ^ ^ b c ^ ^ ^ q       ",
"  } } | { { { : : { { : : { { 1 1 | | p ^ ^ ^ b c ^ ^ ^ q       ",
"  & & ( _ { { 1 1 { { 1 1 { { 1 r ( ( s ^ ^ ^ b c ^ ^ t 5       ",
"  & & = ! u u 1 1 { { 1 1 { { v $ = = ^ ^ ^ ^ b c ^ ^ w x       ",
"  & & ^ y z z A B C C D E F F - & ^ ^ ^ ^ ^ ^ b c ^ ^ G j       ",
"  & & ^ y z z A B C C D E F F - & ^ ^ ^ ^ ^ ^ b c ^ ^ G j       ",
"  & & ^ ^ ^ ^ H I J J K L H H M ^ ^ ^ ^ ^ ^ ^ b c ^ ^ N /       ",
"  & & ^ ^ b b b b & & & @ ^ ^ ^ O x x b ^ ^ ^ b c ^ ^ P         ",
"  & & ^ ^ ' ' ' ' & & & & ^ ^ ^ ^ Q Q ' ^ ^ ^ b c ^ ^ R         ",
"  & & ^ ^ ' ' ' ' & & & & ^ ^ ^ ^ Q Q ' ^ ^ ^ b c ^ ^ R         ",
"  & & t ^ ^ ^ ^ ^ & & & & ^ ^ ^ ^ ^ ^ ^ ^ h h b ' S S 5         ",
"  % % + / T T 5 5 & & & & 5 5 5 5 5 5 5 5 5 5 U ^ V V j         ",
"        W X X o Y & & & & Z Z Z Z Z Z Z `  . .) ^ ....+.        ",
"        W X X o Y & & & & Z Z Z Z Z Z Z `  . .) ^ ....+.        ",
"                @.& & & & #.#.$.%.&.&.*.*.Q Q h ^ =.=.          ",
"                  & & & &     x -.b b ;.>.,.,.'.).[ [           ",
"                  & & & &                 5 5 ;.% . .           ",
"                  & & & &                 5 5 ;.% . .           ",
"                                                                "};
