/* XPM */
static char * geda_redcross_36x36_xpm[] = {
"36 36 725 2",
"  	c None",
". 	c #9D5C58",
"+ 	c #B54A55",
"@ 	c #DD4B63",
"# 	c #C75062",
"$ 	c #C96C67",
"% 	c #DD6F5F",
"& 	c #AC434D",
"* 	c #BA414C",
"= 	c #D3555A",
"- 	c #B4363D",
"; 	c #DD3D48",
"> 	c #E5444C",
", 	c #DD4549",
"' 	c #D94B4E",
") 	c #D05156",
"! 	c #C35560",
"~ 	c #D26176",
"{ 	c #B85959",
"] 	c #F07F73",
"^ 	c #BF3E40",
"/ 	c #C62930",
"( 	c #C8262C",
"_ 	c #D02E33",
": 	c #D42E35",
"< 	c #DA393E",
"[ 	c #D83F43",
"} 	c #D94148",
"| 	c #DC464E",
"1 	c #D74A52",
"2 	c #DA4C55",
"3 	c #E35056",
"4 	c #E0545B",
"5 	c #D3585C",
"6 	c #CD5C5F",
"7 	c #BA6469",
"8 	c #DC363D",
"9 	c #DF2022",
"0 	c #E21E29",
"a 	c #E31F2C",
"b 	c #DA222B",
"c 	c #D6272D",
"d 	c #D92E32",
"e 	c #D94143",
"f 	c #D0454A",
"g 	c #D74C53",
"h 	c #D74E53",
"i 	c #DE5357",
"j 	c #E15757",
"k 	c #E3575D",
"l 	c #EB5763",
"m 	c #D25E62",
"n 	c #DA3741",
"o 	c #DB2227",
"p 	c #E0202A",
"q 	c #E32029",
"r 	c #E32128",
"s 	c #E6202A",
"t 	c #E31E27",
"u 	c #DF3E41",
"v 	c #E55055",
"w 	c #E25157",
"x 	c #E15357",
"y 	c #E25357",
"z 	c #E15557",
"A 	c #E25759",
"B 	c #E1575A",
"C 	c #DA5C5F",
"D 	c #D93742",
"E 	c #DA2127",
"F 	c #E0202B",
"G 	c #E52129",
"H 	c #E5212A",
"I 	c #E51D26",
"J 	c #DE3D44",
"K 	c #E84D55",
"L 	c #E24E54",
"M 	c #E35055",
"N 	c #E35156",
"O 	c #E45359",
"P 	c #E35359",
"Q 	c #E25658",
"R 	c #DB5B61",
"S 	c #D7373F",
"T 	c #DA1F27",
"U 	c #DE1F28",
"V 	c #E01E27",
"W 	c #E32027",
"X 	c #E52228",
"Y 	c #E71D25",
"Z 	c #DE3C43",
"` 	c #E84C55",
" .	c #E14C53",
"..	c #E24E55",
"+.	c #E34F55",
"@.	c #E35059",
"#.	c #E15159",
"$.	c #D6595E",
"%.	c #D0343C",
"&.	c #D72026",
"*.	c #DB1F27",
"=.	c #DD1F26",
"-.	c #DE2025",
";.	c #E22228",
">.	c #E51D25",
",.	c #DD3C3D",
"'.	c #EC4A51",
").	c #E34B53",
"!.	c #E14D52",
"~.	c #E14E52",
"{.	c #E45054",
"].	c #E15254",
"^.	c #DD5560",
"/.	c #CF343C",
"(.	c #D62127",
"_.	c #DB2027",
":.	c #DC2027",
"<.	c #DE1F26",
"[.	c #E01F25",
"}.	c #E31D26",
"|.	c #D93C3B",
"1.	c #EA474E",
"2.	c #DF484F",
"3.	c #E14A50",
"4.	c #E14B50",
"5.	c #E04C51",
"6.	c #E04E51",
"7.	c #DF4F53",
"8.	c #DE5857",
"9.	c #D2333C",
"0.	c #D72127",
"a.	c #DA2027",
"b.	c #DC2025",
"c.	c #E22027",
"d.	c #D43A38",
"e.	c #E6444E",
"f.	c #DF4750",
"g.	c #DF4850",
"h.	c #DF4A51",
"i.	c #DF4B52",
"j.	c #DE4D52",
"k.	c #DF4D52",
"l.	c #CF5157",
"m.	c #BE4246",
"n.	c #D64042",
"o.	c #CD444B",
"p.	c #D94A56",
"q.	c #AF4E55",
"r.	c #6A6364",
"s.	c #CA333A",
"t.	c #D52024",
"u.	c #D71E25",
"v.	c #D71F25",
"w.	c #D91F27",
"x.	c #DB2026",
"y.	c #DE1C28",
"z.	c #E33438",
"A.	c #DC4647",
"B.	c #E04348",
"C.	c #E24549",
"D.	c #E4454B",
"E.	c #E8484D",
"F.	c #E74A4F",
"G.	c #E84B4E",
"H.	c #DA444A",
"I.	c #D0313A",
"J.	c #CE393D",
"K.	c #D43A42",
"L.	c #D6404A",
"M.	c #DE454D",
"N.	c #DB4A4F",
"O.	c #D85354",
"P.	c #D66F64",
"Q.	c #834F5B",
"R.	c #D2333D",
"S.	c #D32126",
"T.	c #D72025",
"U.	c #DD1D27",
"V.	c #DF3437",
"W.	c #DB4346",
"X.	c #DE4249",
"Y.	c #DF4349",
"Z.	c #E1454B",
"`.	c #E6464E",
" +	c #E7484E",
".+	c #E74B4D",
"++	c #DF424B",
"@+	c #D3313A",
"#+	c #CE3839",
"$+	c #CF3B40",
"%+	c #D14049",
"&+	c #D14649",
"*+	c #D2494D",
"=+	c #D54A52",
"-+	c #D94B54",
";+	c #D5505E",
">+	c #C7565D",
",+	c #B5464A",
"'+	c #CE3536",
")+	c #CE2024",
"!+	c #D31F24",
"~+	c #D52025",
"{+	c #DA1F26",
"]+	c #DA1C26",
"^+	c #DB3136",
"/+	c #DB4045",
"(+	c #E14049",
"_+	c #E14149",
":+	c #E5434A",
"<+	c #E6444B",
"[+	c #E6454C",
"}+	c #E5474C",
"|+	c #D64047",
"1+	c #C83037",
"2+	c #CC3F3D",
"3+	c #D34143",
"4+	c #DD4A4E",
"5+	c #E44E52",
"6+	c #E54E54",
"7+	c #E9525C",
"8+	c #E7535B",
"9+	c #E5575A",
"0+	c #C95956",
"a+	c #57FFFF",
"b+	c #B4665F",
"c+	c #B54246",
"d+	c #AF2D37",
"e+	c #C53236",
"f+	c #C42727",
"g+	c #CF2128",
"h+	c #D3212A",
"i+	c #D11F28",
"j+	c #D01E27",
"k+	c #CC1D24",
"l+	c #CE1C22",
"m+	c #D71D26",
"n+	c #DB1D26",
"o+	c #D63134",
"p+	c #DE3D46",
"q+	c #E13D46",
"r+	c #E04045",
"s+	c #E04146",
"t+	c #E14247",
"u+	c #E14448",
"v+	c #E04548",
"w+	c #E4464C",
"x+	c #E3474B",
"y+	c #E54B4F",
"z+	c #E84B50",
"A+	c #E64C50",
"B+	c #E84E52",
"C+	c #E84E55",
"D+	c #E75054",
"E+	c #E85156",
"F+	c #E45258",
"G+	c #CF5457",
"H+	c #CA5863",
"I+	c #A54044",
"J+	c #BF2C37",
"K+	c #BA262F",
"L+	c #D01C27",
"M+	c #C52421",
"N+	c #CE1D21",
"O+	c #D61C23",
"P+	c #D81C26",
"Q+	c #D31D25",
"R+	c #D32226",
"S+	c #D91E26",
"T+	c #DA1F24",
"U+	c #D81E27",
"V+	c #D8222B",
"W+	c #D3242C",
"X+	c #BF1C1F",
"Y+	c #D03134",
"Z+	c #DD3A40",
"`+	c #DF3B44",
" @	c #DE3C44",
".@	c #DE3E44",
"+@	c #E04046",
"@@	c #DF4147",
"#@	c #E04346",
"$@	c #E2444B",
"%@	c #E3464C",
"&@	c #E3484D",
"*@	c #E6484F",
"=@	c #E54C4E",
"-@	c #E84B52",
";@	c #E84D54",
">@	c #E74F55",
",@	c #E45257",
"'@	c #D45459",
")@	c #AB5459",
"!@	c #C91928",
"~@	c #CB1B20",
"{@	c #CC1E23",
"]@	c #C71C23",
"^@	c #CA1B23",
"/@	c #CA1C24",
"(@	c #CC2027",
"_@	c #CD1E24",
":@	c #CD1F25",
"<@	c #CC1E25",
"[@	c #D2242A",
"}@	c #D3272D",
"|@	c #CF272E",
"1@	c #D32B31",
"2@	c #E0363C",
"3@	c #DE353A",
"4@	c #DC363A",
"5@	c #DD3840",
"6@	c #DC3A43",
"7@	c #DD3C42",
"8@	c #E03D44",
"9@	c #DF3F45",
"0@	c #DF4145",
"a@	c #E2424A",
"b@	c #E14449",
"c@	c #E2454B",
"d@	c #E7464F",
"e@	c #E5474E",
"f@	c #E74950",
"g@	c #E64B52",
"h@	c #E74C51",
"i@	c #E44E53",
"j@	c #E44F56",
"k@	c #D45358",
"l@	c #C42B33",
"m@	c #CF1F28",
"n@	c #D12024",
"o@	c #D02126",
"p@	c #CF2025",
"q@	c #CB1F24",
"r@	c #C61D22",
"s@	c #C51D21",
"t@	c #CA1F23",
"u@	c #D02329",
"v@	c #D2262D",
"w@	c #D3282E",
"x@	c #D22A30",
"y@	c #D42D31",
"z@	c #D62E32",
"A@	c #D83035",
"B@	c #D93235",
"C@	c #DA3436",
"D@	c #DA353D",
"E@	c #DA383E",
"F@	c #D93A3F",
"G@	c #DD3B40",
"H@	c #DE3C42",
"I@	c #DE3F42",
"J@	c #DF4046",
"K@	c #DF4246",
"L@	c #DF4447",
"M@	c #E4444B",
"N@	c #E7464C",
"O@	c #E6474F",
"P@	c #E4494F",
"Q@	c #E64B50",
"R@	c #DD4F4F",
"S@	c #E44E54",
"T@	c #D25256",
"U@	c #C6202A",
"V@	c #CE1E28",
"W@	c #D12124",
"X@	c #D22127",
"Y@	c #D12025",
"Z@	c #D01F24",
"`@	c #D12227",
" #	c #C61B20",
".#	c #CB1A20",
"+#	c #D11E23",
"@#	c #D02026",
"##	c #D1222A",
"$#	c #D1242B",
"%#	c #D2272C",
"&#	c #D4292E",
"*#	c #D72B30",
"=#	c #D72B32",
"-#	c #D72F34",
";#	c #D53034",
">#	c #DA333A",
",#	c #D9343C",
"'#	c #D9363D",
")#	c #DC383F",
"!#	c #DC3A3F",
"~#	c #DB3A40",
"{#	c #DF3D45",
"]#	c #DE3F44",
"^#	c #DD4046",
"/#	c #DF414A",
"(#	c #E5434C",
"_#	c #E4464E",
":#	c #DB4B4D",
"<#	c #E34C53",
"[#	c #D25054",
"}#	c #C61F2A",
"|#	c #D12026",
"1#	c #D11E26",
"2#	c #CF1E24",
"3#	c #C81B20",
"4#	c #C7181F",
"5#	c #CA1B22",
"6#	c #CD1D24",
"7#	c #CF1F27",
"8#	c #D02128",
"9#	c #D0242A",
"0#	c #D2252C",
"a#	c #D4272E",
"b#	c #D52A30",
"c#	c #D62B32",
"d#	c #D62E33",
"e#	c #D72F37",
"f#	c #D83239",
"g#	c #D9343A",
"h#	c #D9373D",
"i#	c #D9393E",
"j#	c #DB3A43",
"k#	c #DC3C42",
"l#	c #DA3E43",
"m#	c #DB3F44",
"n#	c #D84146",
"o#	c #DE424B",
"p#	c #E2434C",
"q#	c #E6454D",
"r#	c #D94A4C",
"s#	c #E54954",
"t#	c #DA4E5E",
"u#	c #D01F26",
"v#	c #D31E26",
"w#	c #C61B1F",
"x#	c #C7161E",
"y#	c #C8171F",
"z#	c #CA1A20",
"A#	c #CC1C22",
"B#	c #CD1D23",
"C#	c #CF2026",
"D#	c #CF2229",
"E#	c #D2282F",
"F#	c #D22B2F",
"G#	c #D42F32",
"H#	c #D53035",
"I#	c #D53139",
"J#	c #D4343A",
"K#	c #D3353A",
"L#	c #D83740",
"M#	c #D83940",
"N#	c #D53B43",
"O#	c #D93D47",
"P#	c #D54345",
"Q#	c #D44444",
"R#	c #DA4345",
"S#	c #E6424B",
"T#	c #D54A4B",
"U#	c #C25157",
"V#	c #C5202A",
"W#	c #CF1E28",
"X#	c #C7151E",
"Y#	c #C7171E",
"Z#	c #C91A20",
"`#	c #CB1B21",
" $	c #CC1C24",
".$	c #CE1E26",
"+$	c #CD2027",
"@$	c #D0272C",
"#$	c #CD272B",
"$$	c #CF292E",
"%$	c #CF2C2F",
"&$	c #CF2D32",
"*$	c #D02F37",
"=$	c #D03237",
"-$	c #D03439",
";$	c #D7353F",
">$	c #D9383E",
",$	c #D2363C",
"'$	c #D53A3F",
")$	c #D5403F",
"!$	c #D84048",
"~$	c #CF454F",
"{$	c #C54A4F",
"]$	c #AA4E56",
"^$	c #D37369",
"/$	c #C91D2E",
"($	c #D01E2A",
"_$	c #D11F26",
":$	c #D01E26",
"<$	c #C61B21",
"[$	c #C4161E",
"}$	c #C4161D",
"|$	c #C6161D",
"1$	c #CB1822",
"2$	c #CE1A25",
"3$	c #CD1D26",
"4$	c #CC242A",
"5$	c #C9272B",
"6$	c #CB282D",
"7$	c #CD2A2E",
"8$	c #CD2C31",
"9$	c #CD2F34",
"0$	c #CD3034",
"a$	c #CA333D",
"b$	c #AE3A42",
"c$	c #BB5153",
"d$	c #BB4F54",
"e$	c #BB4859",
"f$	c #BA626C",
"g$	c #C51E2C",
"h$	c #CE2123",
"i$	c #CF1F25",
"j$	c #CE1F26",
"k$	c #C81D24",
"l$	c #C0181E",
"m$	c #BC141B",
"n$	c #BC161C",
"o$	c #BD151C",
"p$	c #BF161D",
"q$	c #BD151D",
"r$	c #C0161D",
"s$	c #C3181E",
"t$	c #CA1A22",
"u$	c #CD1D25",
"v$	c #D11D28",
"w$	c #CE2028",
"x$	c #C52428",
"y$	c #CA262A",
"z$	c #CC262B",
"A$	c #CD292D",
"B$	c #CE2C2F",
"C$	c #CD2E31",
"D$	c #C3363C",
"E$	c #6B4953",
"F$	c #B82731",
"G$	c #CC2029",
"H$	c #C31A1E",
"I$	c #C71D22",
"J$	c #C81D22",
"K$	c #CA1E24",
"L$	c #C92025",
"M$	c #BE1A1F",
"N$	c #B9161B",
"O$	c #BA151A",
"P$	c #B8161B",
"Q$	c #B7191B",
"R$	c #B6181B",
"S$	c #BC171D",
"T$	c #C1171F",
"U$	c #BE171F",
"V$	c #B41B24",
"W$	c #C11C25",
"X$	c #C62125",
"Y$	c #C92228",
"Z$	c #CA2329",
"`$	c #CB262B",
" %	c #CC292C",
".%	c #CB2B2E",
"+%	c #C9323F",
"@%	c #983E41",
"#%	c #963A3A",
"$%	c #BA6369",
"%%	c #C72B31",
"&%	c #C52E34",
"*%	c #C3242C",
"=%	c #C72028",
"-%	c #C50E16",
";%	c #C0040F",
">%	c #B8111D",
",%	c #B0171B",
"'%	c #B21921",
")%	c #AE1D21",
"!%	c #AA2126",
"~%	c #A42228",
"{%	c #A02527",
"]%	c #A0292C",
"^%	c #B61E27",
"/%	c #CA181F",
"(%	c #C31C21",
"_%	c #C61D24",
":%	c #C92328",
"<%	c #CA252A",
"[%	c #CA272C",
"}%	c #BE333D",
"|%	c #74FFFF",
"1%	c #C7736D",
"2%	c #B45B59",
"3%	c #BC313D",
"4%	c #998A7C",
"5%	c #8FA374",
"6%	c #92746C",
"7%	c #AD393B",
"8%	c #A02A2B",
"9%	c #A0292A",
"0%	c #A2282B",
"a%	c #A3282D",
"b%	c #A5292D",
"c%	c #A12A2E",
"d%	c #B61B24",
"e%	c #C6151D",
"f%	c #BF191E",
"g%	c #C31C22",
"h%	c #C41C23",
"i%	c #C52025",
"j%	c #C72227",
"k%	c #CA242A",
"l%	c #BC3137",
"m%	c #A03B46",
"n%	c #A42630",
"o%	c #A62630",
"p%	c #A4272C",
"q%	c #A2272B",
"r%	c #A1262A",
"s%	c #9F272B",
"t%	c #B41A24",
"u%	c #C4121B",
"v%	c #BB161A",
"w%	c #BE171D",
"x%	c #C11920",
"y%	c #BF1C22",
"z%	c #C31F25",
"A%	c #C72127",
"B%	c #BB2E36",
"C%	c #8F9D83",
"D%	c #A23E40",
"E%	c #A32930",
"F%	c #A0282D",
"G%	c #A1282C",
"H%	c #A3272C",
"I%	c #A3262C",
"J%	c #9E262B",
"K%	c #B21A1F",
"L%	c #BF141B",
"M%	c #B9151A",
"N%	c #BD161C",
"O%	c #BD171D",
"P%	c #BE181F",
"Q%	c #C11B21",
"R%	c #C41E24",
"S%	c #BD2F36",
"T%	c #A13E3F",
"U%	c #A3282F",
"V%	c #A3272D",
"W%	c #A3262D",
"X%	c #A3252D",
"Y%	c #9E252C",
"Z%	c #AF191E",
"`%	c #BE1319",
" &	c #B8141A",
".&	c #B9141A",
"+&	c #B91319",
"@&	c #BC151C",
"#&	c #BF181E",
"$&	c #C01921",
"%&	c #BC2F34",
"&&	c #A23A3D",
"*&	c #A1272B",
"=&	c #A2282D",
"-&	c #A0272D",
";&	c #B0191F",
">&	c #BF131A",
",&	c #B71419",
"'&	c #BA161C",
")&	c #BB151B",
"!&	c #BC151B",
"~&	c #BD161E",
"{&	c #B82C32",
"]&	c #9D3639",
"^&	c #9F272C",
"/&	c #9E282D",
"(&	c #A2282C",
"_&	c #A1272C",
":&	c #9F272A",
"<&	c #AC1921",
"[&	c #BD121A",
"}&	c #B6151B",
"|&	c #B7151B",
"1&	c #BD1518",
"2&	c #BA151B",
"3&	c #B9151D",
"4&	c #BD2935",
"5&	c #9F3338",
"6&	c #A2272D",
"7&	c #A0262B",
"8&	c #9D262B",
"9&	c #9A262A",
"0&	c #9A2529",
"a&	c #992627",
"b&	c #A7191F",
"c&	c #B91118",
"d&	c #B6161A",
"e&	c #B7141A",
"f&	c #B6141A",
"g&	c #B2141F",
"h&	c #BE111B",
"i&	c #BD1519",
"j&	c #C1212C",
"k&	c #78AF89",
"l&	c #982F33",
"m&	c #9B292B",
"n&	c #98282B",
"o&	c #97272A",
"p&	c #972527",
"q&	c #A5191E",
"r&	c #B61118",
"s&	c #B41319",
"t&	c #B5151A",
"u&	c #BB121B",
"v&	c #AB151C",
"w&	c #8D1F1B",
"x&	c #AF5057",
"y&	c #9D9E9F",
"z&	c #735C5F",
"A&	c #843C3D",
"B&	c #993B3F",
"C&	c #973437",
"D&	c #942E2E",
"E&	c #922729",
"F&	c #A01920",
"G&	c #A71A1E",
"H&	c #A62021",
"I&	c #9B2929",
"J&	c #A53135",
"K&	c #863939",
"L&	c #655C54",
"M&	c #BECACA",
"N&	c #822C30",
"O&	c #8C2128",
"P&	c #8D463E",
"                                                                        ",
"                                . + @ # $                               ",
"                      % & * = - ; > , ' ) ! ~ { ]                       ",
"                    ^ / ( _ : < [ } | 1 2 3 4 5 6 7                     ",
"                    8 9 0 a b c d e f g h i j k l m                     ",
"                    n o p q r s t u v w x y z A B C                     ",
"                    D E F q G H I J K L M N O P Q R                     ",
"                    S T U V W X Y Z `  ...+.@.#.#.$.                    ",
"                    %.&.*.=.-.;.>.,.'.).!.~.L {.].^.                    ",
"                    /.(._.:.<.[.}.|.1.2.3.4.5.6.7.8.                    ",
"                    9.0.a.b.-.c.>.d.e.f.g.h.i.j.k.l.m.n.o.p.q.r.        ",
"                    s.t.u.v.w.x.y.z.A.B.C.D.E.F.G.H.I.J.K.L.M.N.O.P.Q.  ",
"                    R.S.T.&.T x.U.V.W.X.Y.Z.`. +.+++@+#+$+%+&+*+=+-+;+>+",
"                  ,+'+)+!+~+{+{+]+^+/+(+_+:+<+[+}+|+1+2+3+4+5+6+7+8+9+0+",
"    a+  b+c+d+e+f+g+h+i+j+k+l+m+n+o+p+q+r+s+t+u+v+w+x+y+z+A+B+C+D+E+F+G+",
"H+I+J+K+L+M+N+O+P+Q+R+S+T+U+V+W+X+Y+Z+`+ @.@+@@@#@$@%@&@*@=@-@;@5+>@,@'@",
")@!@~@{@]@^@/@(@_@l+:@<@[@}@|@1@2@3@4@5@6@7@8@9@0@a@b@c@d@e@f@g@h@i@j@k@",
"l@m@n@o@p@q@r@s@t@q@u@v@w@x@y@z@A@B@C@D@E@F@G@H@I@J@K@L@M@N@O@P@Q@R@S@T@",
"U@V@W@X@Y@Z@`@ #.#+#@###$#%#&#*#=#-#;#>#,#'#)#!#~#{#]#^#/#a@(#_#*@:#<#[#",
"}#V@W@X@|#1#2#3#4#5#6#7#8#9#0#a#b#c#d#e#f#g#D@h#i#j#k#l#m#n#o#p#q#r#s#t#",
"}#V@W@X@o@u#v#w#x#y#z#A#B#C#D#9#}@E#F#y@G#H#I#J#K#L#M#N#O#; P#Q#R#S#T#U#",
"V#W#W@X@o@u#v#w#X#x#Y#Z#`# $.$+$9#@$#$$$%$&$*$=$-$;$>$,$'$)$!$~${$]$^$  ",
"/$($n@|#Y@_$:$<$[$[$}$|$Y#1$2$3$+$u@4$5$6$7$8$9$0$a$b$c$d$e$f$          ",
"g$h$|#o@i$j$k$l$m$n$o$p$q$r$s$t$u$v$w$x$y$z$A$B$C$D$E$                  ",
"F$G$H$I$J$K$L$M$N$O$P$Q$R$S$T$U$V$W$ $X$Y$Z$`$ %.%+%                    ",
"@%#%$%%%&%*%=%-%;%>%,%'%)%!%~%{%]%^%/%(%_%L$:%<%[%}%                    ",
"    |%  1%2%3%4%5%6%7%8%9%0%a%b%c%d%e%f%g%h%i%j%k%l%                    ",
"                    m%n%o%p%q%r%s%t%u%v%w%x%y%z%A%B%                    ",
"                C%  D%E%F%G%H%I%J%K%L%M%N%O%P%Q%R%S%                    ",
"                    T%U%a%V%W%X%Y%Z%`% &.&+&@&#&$&%&                    ",
"                    &&*&=&a%=&=&-&;&>&,&'&)&n$!&~&{&                    ",
"                    ]&^&/&F%(&_&:&<&[&}&|& &1&2&3&4&                    ",
"                    5&6&7&8&9&0&a&b&c&d&e&f&g&h&i&j&                    ",
"                k&  l&m&n&n&o&n&p&q&r&s&}&t&u&v&w&x&                    ",
"                    y&z&A&B&C&D&E&F&G&H&I&J&K&L&M&                      ",
"                                N&O&P&                                  "};
