/* XPM */
static char *geda_display_color_26x26[] = {
/* columns rows colors chars-per-pixel */
"26 26 157 2 ",
"   c #01130099029E",
".  c #04D904880938",
"X  c #08D108D50AB3",
"o  c #09A30C711049",
"O  c #11870D311380",
"+  c #16280CAF1C61",
"@  c #069410D2151B",
"#  c #08C81008126F",
"$  c #071912E11847",
"%  c #089415531AB1",
"&  c #0ABB18211D83",
"*  c #172A16BD168E",
"=  c #178717A617A3",
"-  c #1D5C1D291C74",
";  c #22031E241DBE",
":  c #1E6121471DF4",
">  c #1AA714452468",
",  c #1F551A7D2C97",
"<  c #1B58239F27D9",
"1  c #1424290A2D87",
"2  c #13C12C223136",
"3  c #16E4302235D2",
"4  c #1BC13E0A3485",
"5  c #1B4934C53B91",
"6  c #24A8247F2331",
"7  c #2BD32AF62C2B",
"8  c #30F62D4D2F51",
"9  c #23A223BD3390",
"0  c #24962BCA30CB",
"q  c #2AC92E48345B",
"w  c #33A22E483178",
"e  c #2F3830BB3058",
"r  c #2D1B34E93C45",
"t  c #243A3AB43B66",
"y  c #3439344E33BC",
"u  c #30EE366A3E11",
"i  c #3C053CAA3CB6",
"p  c #5BC3000009C8",
"a  c #55E70EF412C9",
"s  c #5C580BEB1436",
"d  c #546B18EF1772",
"f  c #6EFE00000C7A",
"g  c #71C900000C99",
"h  c #651C0E1812E2",
"j  c #68720C121059",
"k  c #78B1005411B3",
"l  c #6CB410C3157E",
"z  c #00004F21019F",
"x  c #00005EB808C4",
"c  c #09585A051039",
"v  c #019D641C04F9",
"b  c #03FE65BA09F3",
"n  c #05736DA90D1F",
"m  c #000074A70B7F",
"M  c #03D866D11412",
"N  c #00007D3F10B9",
"B  c #1F6A41F13A14",
"V  c #232143DC3D51",
"C  c #3F2B1CEE4DCC",
"Z  c #0FD93A644323",
"A  c #34A03BB94306",
"S  c #3C2725D353BA",
"D  c #563A1BCE66A1",
"F  c #57761D15689D",
"G  c #59FC1C216B23",
"H  c #5EA21DBE7012",
"J  c #4CD4332D6943",
"K  c #4599386A690C",
"L  c #64562D0B7D99",
"P  c #0DB0412E4492",
"I  c #0C404D315714",
"U  c #0DA451CE5C7A",
"Y  c #2707464D4064",
"T  c #2B5F4797446B",
"R  c #24F74B144459",
"E  c #2845488F4199",
"W  c #2E0B4A5B4E8F",
"Q  c #37AA400F486C",
"!  c #344545AD4FD4",
"~  c #1F3D572563D6",
"^  c #1A3759DB60C4",
"/  c #0A426DD776DB",
"(  c #18B5663C716B",
")  c #186969367485",
"_  c #00007CA87625",
"`  c #0B8371DD7B89",
"'  c #00747F127A16",
"]  c #43EE449B448D",
"[  c #49F44A0A4A18",
"{  c #5E7E5E7E5E7E",
"}  c #6641664B6650",
"|  c #6CDF6CF16CF9",
" . c #75267542754F",
".. c #77C477F47807",
"X. c #77E2780A781C",
"o. c #7BA37BC97BD9",
"O. c #8D6609C5004F",
"+. c #969E025404B2",
"@. c #974908AF0000",
"#. c #A2AA02D002D5",
"$. c #CEB500A40000",
"%. c #D5DB006E008D",
"&. c #D9A2002F0000",
"*. c #E3DA003D0057",
"=. c #031894780048",
"-. c #05A59CAC0000",
";. c #01A8A20D0043",
":. c #006CD4030051",
">. c #0075DADA0037",
",. c #0034E702005C",
"<. c #000AEA690007",
"1. c #697F2B7E821D",
"2. c #10147AFB854E",
"3. c #8E790C2B8D8E",
"4. c #80A61A758F40",
"5. c #94040B7E91F3",
"6. c #85061BC39411",
"7. c #91BF115793AC",
"8. c #9D2612F99D94",
"9. c #8D3220099DAA",
"0. c #DD63011DFC1C",
"q. c #E6F7006DF324",
"w. c #E8B50000F3FF",
"e. c #E4FC007BFD06",
"r. c #E92E0000FB5E",
"t. c #F5BB0001FEB0",
"y. c #F8EF0000FE0E",
"u. c #02178842828F",
"i. c #00A4AFC5C407",
"p. c #00F5A731CD4A",
"a. c #012EB026CD74",
"s. c #001AB24AC5CD",
"d. c #0077B20ACB98",
"f. c #0028B955CE82",
"g. c #007AA90CD2F6",
"h. c #007FA8C2D9E3",
"j. c #00CFBD43D2D5",
"k. c #0001AAA5EB75",
"l. c #80B180F08107",
"z. c #93F3940D93F5",
"x. c #9840985F9810",
"c. c #9DE19CB39C4D",
"v. c #A2EC9D729F97",
"b. c #A091A0BA9FD2",
"n. c #A4C89F66A174",
"m. c #A418A2D7A2EC",
"M. c #AD2FAD0DACEE",
"N. c #B38AB36FB353",
"B. c #BCF3BCF3BCF3",
"V. c #C3C6C3CCC3CE",
"C. c #CE9ACE9ACE9A",
"Z. c #D4EAD4EAD4EA",
"A. c #DD6ADD6ADD6A",
"S. c #E34AE34AE34A",
"D. c #EC44EC44EC44",
"F. c #FD6BFD6BFD6B",
"G. c None",
/* pixels */
"G.G.G.G.G.G.G.G.G.G.G.G.G.G.G.G.G.G.G.G.G.G.G.G.G.G.",
"G.B.z.c.c.b.b.m.m.m.m.m.m.m.m.m.m.m.n.v.v.v.v.z.B.G.",
"G.l.6 A u u u u A A A Q Q T T T E Y V V V t A 6 o.G.",
"G.l.y ! ~ ) ) ( ( ( ( ( ^ J L L L L L L L K W y l.G.",
"G.o.e A 2.f.i.s.s.s.i.f.u.8.y.q.w.q.q.q.y.9.R w o.G.",
"G.o.e u ` d.p.g.g.g.p.a.' 7.r.0.0.0.0.0.w.6.E 8 o.G.",
"G.o.e r ` d.h.k.k.k.h.d.' 7.r.e.t.t.t.0.r.6.V 8 o.G.",
"G.X.7 q / d.p.g.g.g.p.d._ 3.e.0.e.0.0.0.w.4.t 7 X.G.",
"G. .7 7 ` j.s.s.s.s.s.j.' 5.y.w.w.w.w.q.y.6.4 7 ..G.",
"G...e 0 Z U I I I I I U P C H F F F F F H S t 8 ..G.",
"G...y 9 c -.=.=.=.=.=.-.M s @.O.O.O.O.O.@.d 5 7 | G.",
"G.| 6 , n >.:.:.:.:.:.>.N k &.%.%.%.%.%.&.l 5 6 | G.",
"G.| 6 > b :.>.,.,.,.>.:.m g $.%.*.*.*.%.$.h 3 6 | G.",
"G.| 6 > v :.>.<.<.<.>.:.m f $.%.*.*.*.%.$.j 2 ; | G.",
"G.| : + v >.>.>.>.:.:.>.m g %.%.&.%.%.%.&.j 2 ; | G.",
"G.| - O z ;.=.=.=.=.=.;.v p #.+.+.+.+.+.#.a 1 - | G.",
"G.} = O             . X o @ $ $ $ $ $ % & & < * | G.",
"G.X.6 i y i i i ] ] [ ] ] ] ] ] ] ] ] i i i i 6 X.G.",
"G.B.M.M.M.M.M.M.M.N.x.x.m.m.c.c.N.M.M.M.M.M.M.M.B.G.",
"G.G.G.G.G.G.G.G.G.G.G.B.V.V.b.G.G.G.G.G.G.G.G.G.G.G.",
"G.G.G.G.G.G.G.G.M.N.B.V.B.M.M.M.M.M.G.G.G.G.G.G.G.G.",
"G.G.G.G.G.G.m.Z.A.S.S.C.C.C.Z.S.S.S.Z.m.G.G.G.G.G.G.",
"G.G.G.G.G.G.M.F.D.A.A.Z.Z.Z.Z.A.S.S.F.m.G.G.G.G.G.G.",
"G.G.G.G.G.G.- ..N.C.S.D.D.D.D.S.Z.N...- G.G.G.G.G.G.",
"G.G.G.G.G.G.G.G.X 7 [ { | | { [ 7 X G.G.G.G.G.G.G.G.",
"G.G.G.G.G.G.G.G.G.G.G.G.G.G.G.G.G.G.G.G.G.G.G.G.G.G."
};
