/* XPM */
static char *geda_tools2_26x26[] = {
/* columns rows colors chars-per-pixel */
"26 26 102 2 ",
"   c #019701AC01D8",
".  c #0A160A2B0A19",
"X  c #1086075A0000",
"o  c #15730BAC0000",
"O  c #1D060FDF0000",
"+  c #14E814F114DD",
"@  c #1B2C1B4D1B2B",
"#  c #21281343006E",
"$  c #3B9523E20000",
"%  c #23DD24852346",
"&  c #2720282B261C",
"*  c #2B092B9F29D4",
"=  c #300E31852E92",
"-  c #330E333A3373",
";  c #39533953371A",
":  c #31B034ED3AB8",
">  c #3A0A3A1E39E8",
",  c #4BCB314B003B",
"<  c #4FEC3DF51EF5",
"1  c #6D534B94010E",
"2  c #71E949A20018",
"3  c #72CC536000B7",
"4  c #78E754100031",
"5  c #475247524751",
"6  c #4C6E4C894C8E",
"7  c #555455C75505",
"8  c #57AC58AD56AA",
"9  c #5C4A5CA45C4C",
"0  c #64855E3456F4",
"q  c #6097617E5FAA",
"w  c #6385639A6382",
"e  c #6A126A1B67D1",
"r  c #679C682368EE",
"t  c #6B8B6C046B7D",
"y  c #700B70886F80",
"u  c #73C7745A741F",
"i  c #7BD57C137BD4",
"p  c #A8FA6F1D0000",
"a  c #AD347C360025",
"s  c #A01D7DD4383A",
"d  c #B623853E0068",
"f  c #BE3183F500D1",
"g  c #BE9289CB0000",
"h  c #B72796D310D2",
"j  c #C3A78FBC0179",
"k  c #C35794B50000",
"l  c #DB419A340267",
"z  c #DCCEB5FD00C5",
"x  c #EA02B2E800F3",
"c  c #E6F0BFC304D4",
"v  c #ECA9BB2C00D5",
"b  c #E95FBFB80A74",
"n  c #F226BDD50000",
"m  c #FDB2B93C015B",
"M  c #FFFFBDDA0866",
"N  c #F414BCF43046",
"B  c #FA2AC45E001B",
"V  c #F41EC96F0975",
"C  c #FBB6D2E1020B",
"Z  c #FA18DC020000",
"A  c #FB00D580092D",
"S  c #EA00C2C3101A",
"D  c #EF48CED81963",
"F  c #FD6BE5DD1058",
"G  c #F1D8C6B12B8F",
"H  c #F5F9DF9E2077",
"J  c #FA9EE2F122CB",
"K  c #FFFFF2E32985",
"L  c #FBC1E7123513",
"P  c #800D80B17F70",
"I  c #FC86E9CA46D4",
"U  c #F83AE31154AE",
"Y  c #F602E9317897",
"T  c #83AE83F183D9",
"R  c #87A488CC884A",
"E  c #8C898D1F8C95",
"W  c #931F934192FA",
"Q  c #9403966F9B03",
"!  c #97DE98699930",
"~  c #9B729BC29B67",
"^  c #A0AFA2B99EAB",
"/  c #99349C14A60B",
"(  c #A4A3A481A428",
")  c #A86CA968A772",
"_  c #A817A7F3A82B",
"`  c #AD03AD6DAD20",
"'  c #A886ACDEB9D4",
"]  c #B48BB4ABB47F",
"[  c #BC29BCA9BC22",
"{  c #C03EC060C023",
"}  c #D8FBD18DAC3D",
"|  c #C4AFC505C4BA",
" . c #CBC5CC8DCC49",
".. c #D472D4E2D4E3",
"X. c #DAEEDB3BDAA4",
"o. c #E095E14BE025",
"O. c #E47DE4CAE481",
"+. c #ECE4ED31EC75",
"@. c #F029F084F0BA",
"#. c #F3E2F43CF423",
"$. c #FEB8FEE1FEE1",
"%. c None",
/* pixels */
"%.%.%.%.%.%.%.%.%.%.%.%.%.%.%.%.%.%.%.%.%.%.%.%.%.%.",
"%.%.( %.%.%.%.%.%.%.%.%.%.%.%.%.%.9 ] ..X.X.] %.%.%.",
"%. .$.` %.%.%.%.%.%.%.%.%.%.%.%.- ] #.#.@.| 9 %.%.%.",
"%.^ $. .6 %.%.%.%.%.%.%.%.%.%.%.q @.@.$.8     %.%.%.",
"%.@ T  ...9 %.%.%.%.%.%.%.%.%.%.T #.#.+.* %.%.%.%.%.",
"%.%.  - X.O.r %.%.%.%.%.%.%.%.+ ! X.+.+.i %.%.%.%.%.",
"%.%.%.  %  .@.t %.%.%.%.%.%.%.> ] X.o.O.| 9 t ( 9 %.",
"%.%.%.%.%.@  .#.r %.%.%.%.%.%.w [ [ u |  .) | ` % %.",
"%.%.%.%.%.%.+ | #.y %.%.%.%.%.] R ( E i ] ~ [ 7   %.",
"%.%.%.%.%.%.%.+ | #.i %.%.%.W $.` 8 ` R W u 7 . %.%.",
"%.%.%.%.%.%.%.%.. ] #.i   ( ` y ` y w 5 & +   %.%.%.",
"%.%.%.%.%.%.%.%.%.. ] +.! W % i i @     %.%.%.%.%.%.",
"%.%.%.%.%.%.%.%.%.%.+ | #.y t i   %.%.%.%.%.%.%.%.%.",
"%.%.%.%.%.%.%.%.%.%.` 8 ! @./ 0 s %.%.%.%.%.%.%.%.%.",
"%.%.%.%.%.%.%.%.%.] P % * ' } Y N 2 %.%.%.%.%.%.%.%.",
"%.%.%.%.%.%.%.6 [ y % ; Q < b C M k %.%.%.%.%.%.%.%.",
"%.%.%.%.%.%.t [ t & % ( : $ l m C Z z h %.%.%.%.%.%.",
"%.%.%.%.%.t | 9 * @ ( 6     # 4 v Z K G p %.%.%.%.%.",
"%.%.%.%.u [ 8 * + ~ w   %.%.%.  1 B H U V a %.%.%.%.",
"%.%.%.i ] 7 = . E i   %.%.%.%.%.o f B D I A a %.%.%.",
"%.%.R O.T %   T W   %.%.%.%.%.%.%.# j v S L A d %.%.",
"%.u ! @ E 8 r ` . %.%.%.%.%.%.%.%.%.O j n b J A g %.",
"%.~ 5 %.% [ ] + %.%.%.%.%.%.%.%.%.%.%.o d n c F x $ ",
"%.u E %.y ] @ %.%.%.%.%.%.%.%.%.%.%.%.%.X a m C 3 %.",
"%.@ W ~ E @ %.%.%.%.%.%.%.%.%.%.%.%.%.%.%.o 2 ,   %.",
"%.%.. & . %.%.%.%.%.%.%.%.%.%.%.%.%.%.%.%.%.  %.%.%."
};
