/* XPM */
static char * geda_demote_64x64_xpm[] = {
"64 64 343 2",
"  	c None",
". 	c #000A29",
"+ 	c #000A37",
"@ 	c #000F49",
"# 	c #001051",
"$ 	c #001260",
"% 	c #001261",
"& 	c #001955",
"* 	c #001547",
"= 	c #000C2E",
"- 	c #00071D",
"; 	c #000518",
"> 	c #000620",
", 	c #000724",
"' 	c #000628",
") 	c #00072B",
"! 	c #000B25",
"~ 	c #00081D",
"{ 	c #000617",
"] 	c #00134D",
"^ 	c #000924",
"/ 	c #00071E",
"( 	c #00092A",
"_ 	c #000B30",
": 	c #000C35",
"< 	c #000C39",
"[ 	c #000C30",
"} 	c #000B2A",
"| 	c #00081E",
"1 	c #002276",
"2 	c #000A22",
"3 	c #000E33",
"4 	c #000F37",
"5 	c #000F3B",
"6 	c #000E38",
"7 	c #000D33",
"8 	c #00298B",
"9 	c #000E2B",
"0 	c #000C23",
"a 	c #000F2D",
"b 	c #001034",
"c 	c #001339",
"d 	c #00123C",
"e 	c #00103D",
"f 	c #000E39",
"g 	c #002C99",
"h 	c #000D23",
"i 	c #00112E",
"j 	c #001335",
"k 	c #001537",
"l 	c #00163B",
"m 	c #00113F",
"n 	c #00103F",
"o 	c #002FA9",
"p 	c #00122D",
"q 	c #000F23",
"r 	c #001431",
"s 	c #001637",
"t 	c #00183B",
"u 	c #001444",
"v 	c #000F40",
"w 	c #003DB9",
"x 	c #000828",
"y 	c #00072A",
"z 	c #000937",
"A 	c #000D39",
"B 	c #001136",
"C 	c #001632",
"D 	c #001135",
"E 	c #000A24",
"F 	c #002987",
"G 	c #000A25",
"H 	c #001036",
"I 	c #002788",
"J 	c #000D2F",
"K 	c #000C2C",
"L 	c #00103B",
"M 	c #00133D",
"N 	c #00173A",
"O 	c #001B34",
"P 	c #001832",
"Q 	c #00152E",
"R 	c #001121",
"S 	c #00477C",
"T 	c #000D2D",
"U 	c #000B2C",
"V 	c #000F3A",
"W 	c #001739",
"X 	c #001A35",
"Y 	c #001933",
"Z 	c #001530",
"` 	c #001024",
" .	c #00498B",
"..	c #000B2B",
"+.	c #00082A",
"@.	c #000F3C",
"#.	c #001437",
"$.	c #001833",
"%.	c #001436",
"&.	c #000F34",
"*.	c #000D28",
"=.	c #0033A2",
"-.	c #000925",
";.	c #000629",
">.	c #000D3B",
",.	c #001037",
"'.	c #001533",
").	c #001038",
"!.	c #00092B",
"~.	c #0021BD",
"{.	c #000420",
"].	c #000526",
"^.	c #000737",
"/.	c #000B39",
"(.	c #000D36",
"_.	c #001232",
":.	c #000D37",
"<.	c #000936",
"[.	c #000528",
"}.	c #001BAD",
"|.	c #00041F",
"1.	c #000326",
"2.	c #000535",
"3.	c #000838",
"4.	c #000D35",
"5.	c #000E31",
"6.	c #000A30",
"7.	c #00092E",
"8.	c #000621",
"9.	c #00138A",
"0.	c #000A28",
"a.	c #000527",
"b.	c #000939",
"c.	c #000E2F",
"d.	c #000A27",
"e.	c #00071C",
"f.	c #001C66",
"g.	c #000D34",
"h.	c #001130",
"i.	c #000F2A",
"j.	c #000C25",
"k.	c #000719",
"l.	c #002D6E",
"m.	c #0A0034",
"n.	c #001337",
"o.	c #000A2D",
"p.	c #00122E",
"q.	c #000A1F",
"r.	c #0039A6",
"s.	c #001A38",
"t.	c #00142A",
"u.	c #00193F",
"v.	c #001F46",
"w.	c #002146",
"x.	c #00224F",
"y.	c #001840",
"z.	c #001C3A",
"A.	c #001D31",
"B.	c #002033",
"C.	c #002346",
"D.	c #001435",
"E.	c #000D32",
"F.	c #001039",
"G.	c #001234",
"H.	c #00162E",
"I.	c #000E34",
"J.	c #000D2C",
"K.	c #001445",
"L.	c #00133E",
"M.	c #001035",
"N.	c #000F33",
"O.	c #001137",
"P.	c #00143E",
"Q.	c #00174A",
"R.	c #001D54",
"S.	c #030F42",
"T.	c #070026",
"U.	c #04001E",
"V.	c #001A39",
"W.	c #000311",
"X.	c #000A1A",
"Y.	c #000B20",
"Z.	c #000D22",
"`.	c #000F27",
" +	c #000D1E",
".+	c #000D1B",
"++	c #000F1B",
"@+	c #001020",
"#+	c #00102A",
"$+	c #00103E",
"%+	c #00123A",
"&+	c #001634",
"*+	c #00172C",
"=+	c #000E3A",
"-+	c #000B34",
";+	c #000725",
">+	c #000520",
",+	c #000623",
"'+	c #000727",
")+	c #000C32",
"!+	c #010626",
"~+	c #020014",
"{+	c #030017",
"]+	c #000918",
"^+	c #00081B",
"/+	c #00113A",
"(+	c #000F31",
"_+	c #000F2F",
":+	c #000F2E",
"<+	c #00102F",
"[+	c #001033",
"}+	c #001134",
"|+	c #000A35",
"1+	c #000C36",
"2+	c #001231",
"3+	c #001132",
"4+	c #001133",
"5+	c #000F3D",
"6+	c #000006",
"7+	c #020012",
"8+	c #001235",
"9+	c #000718",
"0+	c #000B28",
"a+	c #00103A",
"b+	c #000B32",
"c+	c #000932",
"d+	c #000C34",
"e+	c #001635",
"f+	c #001736",
"g+	c #001538",
"h+	c #00061D",
"i+	c #000000",
"j+	c #000D31",
"k+	c #000A23",
"l+	c #000F32",
"m+	c #000B33",
"n+	c #001336",
"o+	c #001536",
"p+	c #000F39",
"q+	c #000216",
"r+	c #001535",
"s+	c #000C2D",
"t+	c #00113E",
"u+	c #000E2C",
"v+	c #000C33",
"w+	c #000E35",
"x+	c #000E36",
"y+	c #001236",
"z+	c #001233",
"A+	c #001230",
"B+	c #000E2A",
"C+	c #00021D",
"D+	c #003EC1",
"E+	c #00091F",
"F+	c #000D24",
"G+	c #000F35",
"H+	c #001237",
"I+	c #000D26",
"J+	c #000519",
"K+	c #001B50",
"L+	c #003098",
"M+	c #000716",
"N+	c #001030",
"O+	c #001131",
"P+	c #000F2B",
"Q+	c #000C22",
"R+	c #000E1C",
"S+	c #001032",
"T+	c #000E37",
"U+	c #001238",
"V+	c #001031",
"W+	c #000E28",
"X+	c #000A1C",
"Y+	c #001930",
"Z+	c #002F27",
"`+	c #000121",
" @	c #00123B",
".@	c #000E32",
"+@	c #001239",
"@@	c #000B21",
"#@	c #000B1F",
"$@	c #001F61",
"%@	c #000627",
"&@	c #001138",
"*@	c #000E30",
"=@	c #000920",
"-@	c #005283",
";@	c #000F36",
">@	c #000D2E",
",@	c #001866",
"'@	c #000820",
")@	c #000C2B",
"!@	c #00113C",
"~@	c #000F38",
"{@	c #000929",
"]@	c #000413",
"^@	c #00143D",
"/@	c #00112D",
"(@	c #00123F",
"_@	c #001143",
":@	c #000314",
"<@	c #00001C",
"[@	c #00071B",
"}@	c #000D2B",
"|@	c #00133C",
"1@	c #00143C",
"2@	c #001338",
"3@	c #00123D",
"4@	c #00021B",
"5@	c #000C26",
"6@	c #000B2E",
"7@	c #00051D",
"8@	c #00031C",
"9@	c #000D2A",
"0@	c #000F30",
"a@	c #000626",
"b@	c #00091D",
"c@	c #000D29",
"d@	c #0023AA",
"e@	c #000B29",
"f@	c #001139",
"g@	c #000A26",
"h@	c #001A48",
"i@	c #001342",
"j@	c #000921",
"k@	c #001241",
"l@	c #000815",
"m@	c #001428",
"n@	c #001F47",
"o@	c #001345",
"p@	c #000B22",
"q@	c #000919",
"r@	c #00144A",
"s@	c #000A2B",
"t@	c #000B2F",
"u@	c #000E3B",
"v@	c #09002D",
"w@	c #04000B",
"x@	c #010006",
"y@	c #010009",
"z@	c #01000A",
"A@	c #030013",
"B@	c #070017",
"                                                                                                                                ",
"                                                                                                                                ",
"                                                                                                                                ",
"                                                                                                                                ",
"                                                      . + @ # $ % & * =                                                         ",
"                                                      - ; > , ' ) ! ~ { ]                                                       ",
"                                                      ^ / ( _ : < [ } | 1                                                       ",
"                                                      } 2 = 3 4 5 6 7 ^ 8                                                       ",
"                                                      9 0 a b c d e f } g                                                       ",
"                                                      9 h i j k l m n = o                                                       ",
"                                                      p q p r s t u v [ w                                                       ",
"                                                      x y z A B C D 7 E F                                                       ",
"                                                      x y z A B C B 7 G F                                                       ",
"                                                      x y z A B C B 7 G F                                                       ",
"                                                      x y z A B C B 7 G F                                                       ",
"                                                      x y z A B C B 7 G F                                                       ",
"                                                      x y z A B C B 7 G F                                                       ",
"                                                      x y z A B C B 7 G F                                                       ",
"                                                      x y z A B C B 7 G F                                                       ",
"                                                      x y z A B C B 7 G F                                                       ",
"                                                      x y z A B C B 7 G F                                                       ",
"                                                      x y z A H C H 7 G I                                                       ",
"                                                      J K L M N O P Q R S                                                       ",
"                                                      T U V M W X Y Z `  .                                                      ",
"                                                      ..+.A @.#.$.%.&.*.=.                                                      ",
"                                                      -.;.z >.,.'.).< !.~.                                                      ",
"                                                      {.].^./.(._.:.<.[.}.                                                      ",
"                                                      |.1.2.3.4.5.6.7.8.9.                                                      ",
"                                                      0.a.^.b.4.c...d.e.f.                                                      ",
"                                                      ..y z + g.h.i.j.k.l.                m.                                    ",
"                                                      n.o.A f D p.a *.q.r.                                                      ",
"                                s.t.u.v.w.x.y.z.A.B.C.D.E.>.F.G.H._.I.J.K.L.M.N.O.P.Q.R.S.T.U.                                  ",
"                                V.W.X.Y.Z.`.Y. +.+++@+#+).$+%+&+*+,.=+-+( ;+>+>+,+'+7.)+!+~+{+                                  ",
"                                  ]+^+i.M./+(+_+:+<+<+[+H 4 B }+_.:.|+1+3 [+2+3+4+H 6 5+, 6+7+                                  ",
"                                  8+9+0+a+m H M.M.M.M.M.M.M.M.M.M.b+c+d+&.j e+f+g+#.).7 h+i+                                    ",
"                                    j+k+l+F.M.M.M.M.M.M.M.M.M.M.M.b+m+d+&.n+D.o+%.8+3 p+q+i+                                    ",
"                                      G [ 3 M.M.M.M.M.M.M.M.M.M.M.b+m+d+&.n+k r+_.[+_+s+0+                                      ",
"                                      t+j.u+N.M.M.M.M.M.M.M.M.M.M.v+m+w+x+y+k z+A+i B+C+D+                                      ",
"                                        E+F+N.&.&.M.M.G+M.M.M.M.M.)+m+w+w+H+y+_.i I+J+K+                                        ",
"                                        L+M+N+B M.&.b M.G+M.M.M.M.v+I.w+w+H+y+O+P+Q+0                                           ",
"                                          R+S+N.[+M.M.&.M.M.M.M.M.I.g.w+T+U+M.V+W+X+Y+                                          ",
"                                          Z+`+ @&.B [+D G+M.M.M.M..@I.G+T++@M._+@@#@                                            ",
"                                            $@%@b M.b }+G+M.M.M.M..@&.G+T+&@x+*@=@-@                                            ",
"                                               @N.N.M.&.&.&.&.G+M..@M.G+T+&@;@>@*                                               ",
"                                              ,@'@)@S+H %+%+B 4+V+).!@~@4.[ {@>                                                 ",
"                                                ]@'@s+ @P.^@c 2+/@(@_@e _ , :@<@                                                ",
"                                                y+[@}@B |@1@2@z+/@3@m f _ 8.4@                                                  ",
"                                                  4.5@_+O.H+y+8+(+F.5 g.6@7@,.                                                  ",
"                                                    8@9@0@D D y+y+O.4 J , a@                                                    ",
"                                                    2+b@c@0@b B U+b s+d.- d@                                                    ",
"                                                      b@q.e@N.f@L 0@g@- m                                                       ",
"                                                      h@k.0 5.p+i@)@E+'@                                                        ",
"                                                        j@| j+L k@} l@m@                                                        ",
"                                                        n@e.K e o@p@q@                                                          ",
"                                                          I.e@5+r@p@                                                            ",
"                                                            s@t@u@&.                                                            ",
"                                                          v@w@x@y@                                                              ",
"                                                              z@A@                                                              ",
"                                                              B@                                                                ",
"                                                                                                                                ",
"                                                                                                                                ",
"                                                                                                                                ",
"                                                                                                                                ",
"                                                                                                                                "};
