/* XPM */
static char *geda_arc_32x32[] = {
/* columns rows colors chars-per-pixel */
"32 32 90 1 ",
"  c red",
". c #FF0001",
"X c #FF0300",
"o c #FF0002",
"O c #FF0102",
"+ c #FF0003",
"@ c #FF0103",
"# c #FF0302",
"$ c #FF0400",
"% c #FF0401",
"& c #FF0503",
"* c #FF0702",
"= c #FF0005",
"- c #FF0204",
"; c #FF0006",
": c #FF0007",
"> c #FF0207",
", c #FF0307",
"< c #FF0405",
"1 c #FF0606",
"2 c #FF0800",
"3 c #FF0801",
"4 c #FF0B00",
"5 c #FF0B01",
"6 c #FF0802",
"7 c #FF0902",
"8 c #FF0C01",
"9 c #FF0E01",
"0 c #FF0806",
"q c #FF0A07",
"w c #FF0008",
"e c #FF0009",
"r c #FF000A",
"t c #FF000B",
"y c #FF000D",
"u c #FF000E",
"i c #FF000F",
"p c #FF040C",
"a c #FF070E",
"s c #FF060F",
"d c #FF0908",
"f c #FF0B0B",
"g c #FF090D",
"h c #FF0D0C",
"j c #FF1000",
"k c #FF1200",
"l c #FF1300",
"z c #FF1202",
"x c #FF1302",
"c c #FF1400",
"v c #FF1500",
"b c #FF1105",
"n c #FF1304",
"m c #FF1107",
"M c #FF1404",
"N c #FF1405",
"B c #FF1407",
"V c #FF1800",
"C c #FF1900",
"Z c #FF1C00",
"A c #FF1D00",
"S c #FF1E01",
"D c #FF1F01",
"F c #FF0011",
"G c #FF0212",
"H c #FF0410",
"J c #FF0014",
"K c #FF0114",
"L c #FF0314",
"P c #FF0315",
"I c #FF0016",
"U c #FF0118",
"Y c #FF0019",
"T c #FF011B",
"R c #FF2100",
"E c #FF2200",
"W c #FF2301",
"Q c #FF2400",
"! c #FF2500",
"~ c #FF2501",
"^ c #FF2800",
"/ c #FF2C00",
"( c #FF2E00",
") c #FF3C00",
"_ c #FF3E00",
"` c #FF0020",
"' c #FF4300",
"] c #ED0A45",
"[ c #F97D7D",
"{ c None",
/* pixels */
"{{{{{{{{{{{{{{{{{{{{{{{{{]]#####",
"{{{{{{{{{{{{{{{{{{{{{{{])W####=[",
"{{{{{{{{{{{{{{{{{{{{{](!V3===[{{",
"{{{{{{{{{{{{{{{{{{{](Wx31i[[{{{{",
"{{{{{{{{{{{{{{{{{])((Wx3[{{{{{{{",
"{{{{{{{{{{{{{{{]'(Vvv3[{{{{{{{{{",
"{{{{{{{{{{{{{{])(x&#[{{{{{{{{{{{",
"{{{{{{{{{{{{{]xS8&[{{{{{{{{{{{{{",
"{{{{{{{{{{{{]^v3#{{{{{{{{{{{{{{{",
"{{{{{{{{{{{W!m1w[{{{{{{{{{{{{{{{",
"{{{{{{{{{{]BBsI{{{{{{{{{{{{{{{{{",
"{{{{{{{{{]maHU[{{{{{{{{{{{{{{{{{",
"{{{{{{{{]Smga{{{{{{{{{{{{{{{{{{{",
"{{{{{{{{!BgU[{{{{{{{{{{{{{{{{{{{",
"{{{{{{{]BhL{{{{{{{{{{{{{{{{{{{{{",
"{{{{{{]xfG{{{{{{{{{{{{{{{{{{{{{{",
"{{{{{{VfG[{{{{{{{{{{{{{{{{{{{{{{",
"{{{{{]xwU{{{{{{{{{{{{{{{{{{{{{{{",
"{{{{{SfG[{{{{{{{{{{{{{{{{{{{{{{{",
"{{{{]mH`{{{{{{{{{{{{{{{{{{{{{{{{",
"{{{{!ma[{{{{{{{{{{{{{{{{{{{{{{{{",
"{{{]S0I{{{{{{{{{{{{{{{{{{{{{{{{{",
"{{{xxwI{{{{{{{{{{{{{{{{{{{{{{{{{",
"{{{33w[{{{{{{{{{{{{{{{{{{{{{{{{{",
"{{]1=i{{{{{{{{{{{{{{{{{{{{{{{{{{",
"{{3==G{{{{{{{{{{{{{{{{{{{{{{{{{{",
"{{&==[{{{{{{{{{{{{{{{{{{{{{{{{{{",
"{{#ww{{{{{{{{{{{{{{{{{{{{{{{{{{{",
"{]#wi{{{{{{{{{{{{{{{{{{{{{{{{{{{",
"{3=w[{{{{{{{{{{{{{{{{{{{{{{{{{{{",
"{&=i{{{{{{{{{{{{{{{{{{{{{{{{{{{{",
"{##w{{{{{{{{{{{{{{{{{{{{{{{{{{{{"
};
