/* XPM */
static char * geda_promote_28x28_xpm[] = {
"28 28 121 2",
"  	c None",
". 	c #020018",
"+ 	c #000007",
"@ 	c #00092C",
"# 	c #00051D",
"$ 	c #000708",
"% 	c #000F39",
"& 	c #000B31",
"* 	c #00081F",
"= 	c #000619",
"- 	c #000E37",
"; 	c #000C33",
"> 	c #00081E",
", 	c #000B1E",
"' 	c #000422",
") 	c #000929",
"! 	c #000F35",
"~ 	c #000E32",
"{ 	c #000C2A",
"] 	c #000821",
"^ 	c #000011",
"/ 	c #000623",
"( 	c #000C37",
"_ 	c #000C31",
": 	c #001235",
"< 	c #001037",
"[ 	c #000B2B",
"} 	c #000621",
"| 	c #000829",
"1 	c #000D39",
"2 	c #000E30",
"3 	c #000F33",
"4 	c #001039",
"5 	c #000C2E",
"6 	c #000927",
"7 	c #051428",
"8 	c #000D2E",
"9 	c #000D36",
"0 	c #000C32",
"a 	c #000D32",
"b 	c #000E33",
"c 	c #001033",
"d 	c #000A21",
"e 	c #000D29",
"f 	c #000E34",
"g 	c #000F34",
"h 	c #000D2F",
"i 	c #000C29",
"j 	c #000B2D",
"k 	c #000A27",
"l 	c #00102E",
"m 	c #000A32",
"n 	c #000F36",
"o 	c #001537",
"p 	c #001236",
"q 	c #000931",
"r 	c #000F37",
"s 	c #000E38",
"t 	c #000B29",
"u 	c #040016",
"v 	c #00031C",
"w 	c #00092E",
"x 	c #000723",
"y 	c #000724",
"z 	c #000834",
"A 	c #00112E",
"B 	c #000D35",
"C 	c #000C22",
"D 	c #000B1F",
"E 	c #000B25",
"F 	c #00061A",
"G 	c #0B0029",
"H 	c #03114C",
"I 	c #00296B",
"J 	c #001846",
"K 	c #00246E",
"L 	c #000C2C",
"M 	c #00122C",
"N 	c #000B32",
"O 	c #001F40",
"P 	c #003D67",
"Q 	c #00336B",
"R 	c #00356D",
"S 	c #001C3B",
"T 	c #000A34",
"U 	c #00042C",
"V 	c #00061E",
"W 	c #000630",
"X 	c #000F30",
"Y 	c #000A35",
"Z 	c #00032B",
"` 	c #000219",
" .	c #000E2F",
"..	c #001631",
"+.	c #001038",
"@.	c #000930",
"#.	c #000924",
"$.	c #000D2C",
"%.	c #001530",
"&.	c #00072F",
"*.	c #000A2D",
"=.	c #001230",
"-.	c #000D34",
";.	c #00062D",
">.	c #000522",
",.	c #000A2E",
"'.	c #00052D",
").	c #000622",
"!.	c #001337",
"~.	c #001034",
"{.	c #000A26",
"].	c #000A2F",
"^.	c #000A22",
"/.	c #000925",
"(.	c #000A37",
"_.	c #000933",
":.	c #000624",
"<.	c #00051F",
"[.	c #00084A",
"}.	c #000548",
"|.	c #00042F",
"                                                        ",
"                                                        ",
"                          . +                           ",
"                          @ #                           ",
"                        $ % & *                         ",
"                        = - ; > ,                       ",
"                      ' ) ! ~ { ]                       ",
"                    ^ / ( _ : < [ }                     ",
"                    / | 1 2 3 4 5 6                     ",
"                  7 8 9 0 a b a b a c                   ",
"                  d e f 0 _ g b b h i                   ",
"                j k l c m _ b ~ b ~ [ k                 ",
"                # n o p q ; a b n r s t                 ",
"              u v w x y z A p B C D E F D               ",
"              G H I J K L M 9 N O P Q R S               ",
"                        } { T U V                       ",
"                        W X Y Z `                       ",
"                         ...+.@.#.                      ",
"                        $.%.- &.y                       ",
"                        *.=.-.;.>.                      ",
"                        ,.=.-.;.>.                      ",
"                        ,.=.-.;.>.                      ",
"                        ,.=.-.'.).                      ",
"                        9 !.~.t {.                      ",
"                        ].9  .^.{.                      ",
"                        /.(._.:.<.                      ",
"                        { [.}.|.                        ",
"                                                        "};
