/* XPM */
static char * geda_promote_24x24_xpm[] = {
"24 24 116 2",
"  	c None",
". 	c #020013",
"+ 	c #000001",
"@ 	c #000320",
"# 	c #00010E",
"$ 	c #000607",
"% 	c #000C32",
"& 	c #000728",
"* 	c #00071D",
"= 	c #000511",
"- 	c #000D34",
"; 	c #000A31",
"> 	c #00081D",
", 	c #000A1D",
"' 	c #000321",
") 	c #000625",
"! 	c #000E34",
"~ 	c #000D30",
"{ 	c #000925",
"] 	c #00071F",
"^ 	c #00000E",
"/ 	c #000219",
"( 	c #000A32",
"_ 	c #000B31",
": 	c #001134",
"< 	c #000725",
"[ 	c #00041E",
"} 	c #091E2A",
"| 	c #010A26",
"1 	c #000729",
"2 	c #000B34",
"3 	c #000E33",
"4 	c #000A2C",
"5 	c #000B2B",
"6 	c #00153A",
"7 	c #020F21",
"8 	c #010D26",
"9 	c #000C31",
"0 	c #000B33",
"a 	c #000B30",
"b 	c #000D32",
"c 	c #000D2E",
"d 	c #000F2E",
"e 	c #000927",
"f 	c #000A25",
"g 	c #000E2F",
"h 	c #000B32",
"i 	c #000B2F",
"j 	c #000E32",
"k 	c #000D31",
"l 	c #000926",
"m 	c #00051D",
"n 	c #000F33",
"o 	c #001234",
"p 	c #000D33",
"q 	c #000C33",
"r 	c #000A2A",
"s 	c #000821",
"t 	c #030015",
"u 	c #000420",
"v 	c #000622",
"w 	c #00072E",
"x 	c #001135",
"y 	c #000C2F",
"z 	c #000A1F",
"A 	c #000922",
"B 	c #00071C",
"C 	c #00091D",
"D 	c #09012B",
"E 	c #011959",
"F 	c #002057",
"G 	c #001D5A",
"H 	c #001341",
"I 	c #001029",
"J 	c #002D50",
"K 	c #003B6E",
"L 	c #00346D",
"M 	c #001D3E",
"N 	c #000425",
"O 	c #000B2A",
"P 	c #000833",
"Q 	c #000225",
"R 	c #00041A",
"S 	c #00082F",
"T 	c #001130",
"U 	c #000C35",
"V 	c #000427",
"W 	c #00041C",
"X 	c #000D2C",
"Y 	c #00152F",
"Z 	c #000E36",
"` 	c #00072B",
" .	c #000723",
"..	c #000A2B",
"+.	c #00112F",
"@.	c #000C34",
"#.	c #000529",
"$.	c #000421",
"%.	c #00092D",
"&.	c #000528",
"*.	c #000428",
"=.	c #000A30",
"-.	c #001131",
";.	c #000628",
">.	c #000F35",
",.	c #000828",
"'.	c #000A34",
").	c #000A2E",
"!.	c #000621",
"~.	c #000A26",
"{.	c #000841",
"].	c #00043F",
"^.	c #000329",
"/.	c #00031C",
"(.	c #000749",
"_.	c #000348",
"                                                ",
"                      . +                       ",
"                      @ #                       ",
"                    $ % & *                     ",
"                    = - ; > ,                   ",
"                  ' ) ! ~ { ]                   ",
"                ^ / ( _ : ! < [                 ",
"              } | 1 2 ~ 3 - 4 5 6               ",
"              7 8 9 0 a b % % c d               ",
"              e f g h i j j k 5 l               ",
"            m < n o ; ; 9 p ! q r s             ",
"            t u & v w d x y z A B C             ",
"            D E F G H I 2 b J K L M             ",
"                    N O P Q R                   ",
"                    S T U V W                   ",
"                    X Y Z `  .                  ",
"                    ..+.@.#.$.                  ",
"                    %.+.0 &.u                   ",
"                    %.+.0 *.u                   ",
"                    =.-.q ;.v                   ",
"                    0 >.g f {                   ",
"                    ,.'.).!.!.                  ",
"                    ~.{.].^./.                  ",
"                      (._.                      "};
