/* XPM */
static char *geda_display_color_22x22[] = {
/* columns rows colors chars-per-pixel */
"22 22 141 2 ",
"   c #003C10CF0142",
".  c #17171436181F",
"X  c #1B80119A1CF0",
"o  c #1B0D1AC61B68",
"O  c #324E02C70A13",
"+  c #39CF18D81E3B",
"@  c #02DD34B90950",
"#  c #07D433AE0EF7",
"$  c #0ABF38C7152A",
"%  c #1E35158C204F",
"&  c #1F2F1A2C21D8",
"*  c #223117432388",
"=  c #24CF1A43269A",
"-  c #28621DD62B2B",
";  c #36A01A372078",
":  c #38781D1723C3",
">  c #153C22922437",
",  c #187822812449",
"<  c #1B922B732D78",
"1  c #1253308F2630",
"2  c #252D1FC62A9E",
"3  c #292624C22A2A",
"4  c #20FB2ADE2C5B",
"5  c #2C942A502CFD",
"6  c #3DB820832725",
"7  c #224132C42C07",
"8  c #200E2F52310A",
"9  c #2A292D57325D",
"0  c #30792F0C3239",
"q  c #24E13720307D",
"w  c #27EB30CC3300",
"e  c #26CC3A153369",
"r  c #2B5F3D3A3812",
"t  c #343334E93877",
"y  c #47AE057909A9",
"u  c #4BEA066009ED",
"i  c #4B8909AB0E75",
"p  c #51D70CD810D2",
"a  c #5CE916E01AFC",
"s  c #571C17981CF3",
"d  c #58B218B21E1F",
"f  c #7A2C00000BFC",
"g  c #432718082386",
"h  c #5DCB19E61FE3",
"j  c #000345BD0009",
"k  c #00AE4B890133",
"l  c #0D5640771A93",
"z  c #0B8B5D8B18F9",
"x  c #00007E170B2B",
"c  c #0C966264191F",
"v  c #0C324D5F2271",
"b  c #236F3B19464E",
"n  c #25253CA14855",
"m  c #41BB2A465BBD",
"M  c #4DF32C946434",
"N  c #4E2130DF6790",
"B  c #4DD239F96E44",
"V  c #52F334CD6E71",
"C  c #138840434AD7",
"Z  c #14E04CD853C9",
"A  c #199D52E45C04",
"S  c #2110594E64B5",
"D  c #00C26E0F73B5",
"F  c #4DD84DA84D76",
"G  c #51554E914E40",
"H  c #518050FD4FC5",
"J  c #53F1532651EA",
"K  c #56F5582C55E3",
"L  c #5D0F5BE15BE6",
"P  c #60C45D135E91",
"I  c #63125F2B60AD",
"U  c #646263D763A4",
"Y  c #7176719371A5",
"T  c #7DF67EF47F51",
"R  c #8471000A0C12",
"E  c #C42200000000",
"W  c #CF2D00200026",
"Q  c #D35F0084004F",
"!  c #DC8800D000B3",
"~  c #E2B9007000AA",
"^  c #00008641080E",
"/  c #00008A210F11",
"(  c #0033C495001E",
")  c #0014CEC60024",
"_  c #0115D53B0073",
"`  c #0120DC32005D",
"'  c #003AE4E200AE",
"]  c #82080DDB8C08",
"[  c #9B120C2D9C2C",
"{  c #918D183199A5",
"}  c #A0DB08D89E23",
"|  c #A2790E05A3EF",
" . c #B634093DCCE8",
".. c #BDF0085AD1BA",
"X. c #C4440A99CF86",
"o. c #CBDB08CBD2C5",
"O. c #CF5A077CD9B3",
"+. c #C1BE07A4D963",
"@. c #DF480000EC09",
"#. c #EA5D0000F39D",
"$. c #E51C0094FF30",
"%. c #ECF20057FF65",
"&. c #F2A60000FFFF",
"*. c #0282844F8165",
"=. c #000089FA8767",
"-. c #036C8CC8A729",
";. c #03028DD2A885",
":. c #03589239ACF8",
">. c #05D09DA8AC5D",
",. c #049894C7B463",
"<. c #054FA1FCAFD8",
"1. c #054EA325B56A",
"2. c #0000ACE2BFDD",
"3. c #7F2E81338127",
"4. c #0000B3B5C75D",
"5. c #006CAD41D285",
"6. c #002CB1F5D363",
"7. c #011EB909D6B6",
"8. c #00D5A73AE172",
"9. c #005CA8E9E7D6",
"0. c #0064A8D3E86B",
"q. c #834F844D84AD",
"w. c #88108ACD8777",
"e. c #8AFA8A548A4A",
"r. c #94568F6A8EE3",
"t. c #936F90248FA5",
"y. c #93DE93FD927B",
"u. c #9A5595B7954E",
"i. c #965099AE95F2",
"p. c #9C5D9C619C60",
"a. c #A32AA32AA32A",
"s. c #A827A839A841",
"d. c #B51FB51FB51F",
"f. c #BC99BC9FBCA2",
"g. c #C2C6C2C6C2C6",
"h. c #CA38CA4CCA55",
"j. c #D41DD41DD41D",
"k. c #DBB8DBB8DBB8",
"l. c #E201E201E201",
"z. c #EA41EA41EA41",
"x. c None",
/* pixels */
"x.x.x.x.x.x.x.x.x.x.x.x.x.x.x.x.x.x.x.x.x.x.",
"x.y.Y T T 3.q.q.q.q.e.q.q.q.q.q.T T T Y y.x.",
"x.L w b b b b b n n b n n n b b b b b w L x.",
"x.U t S <.>.>.>.>.1.*.{ O.X.X.X.X.o.B r U x.",
"x.U 0 A 4.5.5.5.5.7.=.| &.$.$.$.$.#.V e I x.",
"x.L 5 A 2.5.0.0.8.5.*.[ $.%.%.%.$.@.N q P x.",
"x.L 5 Z 4.6.6.6.5.7.*.[ &.$.%.%.$.#.M 7 L x.",
"x.L 3 C :.;.;.;.-.,.D ] .. . . . ...m 7 L x.",
"x.U 9 1 c z z z z c v g a s d d d h 9 w L x.",
"x.K 2 l ) ) _ _ ) _ / R ! W W W Q W 6 < J x.",
"x.J & $ ( ` ' ' ' _ x f Q ! ~ ! Q E : < J x.",
"x.J % # ( ` ' ' ' _ x f Q ! ~ ~ Q E ; > J x.",
"x.J X @ _ _ _ _ _ ' ^ R ! Q Q Q Q W + > J x.",
"x.F .   k j j j j k @ O u u u i i p o & F x.",
"x.H o o X % * = - - 2 4 < 8 < 8 < < 4 o F x.",
"x.p.e.t.y.y.i.i.t.w.t.y.r.r.u.y.t.t.t.e.a.x.",
"x.x.x.x.x.x.x.x.x.s.h.f.e.x.x.x.x.x.x.x.x.x.",
"x.x.x.x.x.x.a.f.g.g.f.d.d.f.f.a.x.x.x.x.x.x.",
"x.x.x.x.x.f.z.l.l.j.j.j.k.l.l.z.d.x.x.x.x.x.",
"x.x.x.x.x.U g.l.z.z.z.z.z.l.l.g.U x.x.x.x.x.",
"x.x.x.x.x.x.o F Y e.i.i.e.Y F o x.x.x.x.x.x.",
"x.x.x.x.x.x.x.x.x.x.x.x.x.x.x.x.x.x.x.x.x.x."
};
