/* XPM */
static char * geda_find_and_replace_26x26_xpm[] = {
"26 26 324 2",
"  	c None",
". 	c #AAAAAA",
"+ 	c #AFAFAF",
"@ 	c #B2B2B2",
"# 	c #B1B1B1",
"$ 	c #B0B0B0",
"% 	c #ACACAC",
"& 	c #A6A6A6",
"* 	c #A4A4A4",
"= 	c #A3A3A3",
"- 	c #A0A0A0",
"; 	c #9D9D9D",
"> 	c #9A9A9A",
", 	c #989898",
"' 	c #939393",
") 	c #909090",
"! 	c #8C8C8C",
"~ 	c #888888",
"{ 	c #868686",
"] 	c #838383",
"^ 	c #EEEEEE",
"/ 	c #F1F1F1",
"( 	c #F0F0F0",
"_ 	c #F2F2F2",
": 	c #E7E7E7",
"< 	c #CECECD",
"[ 	c #C7C6C6",
"} 	c #CCCCCB",
"| 	c #E5E5E5",
"1 	c #F3F3F3",
"2 	c #F4F4F4",
"3 	c #F9F9F9",
"4 	c #7F7F7F",
"5 	c #E1E1E1",
"6 	c #DBDBDB",
"7 	c #DCDCDC",
"8 	c #BABABA",
"9 	c #A8A8A7",
"0 	c #C3C4C5",
"a 	c #DFE4EA",
"b 	c #CCCFD1",
"c 	c #ABABAB",
"d 	c #BDBCBB",
"e 	c #D1D1D1",
"f 	c #E2E2E2",
"g 	c #E0E0E0",
"h 	c #E3E3E3",
"i 	c #828282",
"j 	c #C3C3C3",
"k 	c #CCCBCB",
"l 	c #BBCCE2",
"m 	c #94AFCF",
"n 	c #7F9CC0",
"o 	c #8DA8C8",
"p 	c #A4BEDC",
"q 	c #CAD0D7",
"r 	c #C4C2BF",
"s 	c #C4C4C4",
"t 	c #818181",
"u 	c #E6E6E6",
"v 	c #AEADAD",
"w 	c #EBE9E7",
"x 	c #6188B9",
"y 	c #D5E0EC",
"z 	c #EBF0F5",
"A 	c #DDE6EE",
"B 	c #D4DFEB",
"C 	c #C6D4E4",
"D 	c #88A7CA",
"E 	c #5981B1",
"F 	c #E9E8E5",
"G 	c #CBCBCB",
"H 	c #D7D7D7",
"I 	c #B2B1B1",
"J 	c #EBEAE7",
"K 	c #C1D3E4",
"L 	c #E3EBF2",
"M 	c #E2E9F1",
"N 	c #D8E2ED",
"O 	c #CFDBE9",
"P 	c #D1DDEA",
"Q 	c #9EB8D4",
"R 	c #6189B9",
"S 	c #839FC1",
"T 	c #D2CEC8",
"U 	c #D2D2D2",
"V 	c #DADADA",
"W 	c #BDBDBD",
"X 	c #CBC7C1",
"Y 	c #87A0C1",
"Z 	c #DBE5EF",
"` 	c #D9E2EC",
" .	c #D0DCE8",
"..	c #CBD8E6",
"+.	c #BCCDDF",
"@.	c #84A3C6",
"#.	c #83A3C6",
"$.	c #5C83B3",
"%.	c #BEBCBB",
"&.	c #D3D3D3",
"*.	c #E8E8E8",
"=.	c #808080",
"-.	c #B1B1B2",
";.	c #CFCAC4",
">.	c #6A8BB5",
",.	c #E2E8EE",
"'.	c #D4DEEA",
").	c #CFDAE7",
"!.	c #C2D1E3",
"~.	c #A3BCD7",
"{.	c #8EACCD",
"].	c #8FADCD",
"^.	c #8DACCD",
"/.	c #6086B5",
"(.	c #A7A9AD",
"_.	c #D0D0D0",
":.	c #E9E9E8",
"<.	c #EBEBEB",
"[.	c #808081",
"}.	c #C3C4C4",
"|.	c #C1BEBA",
"1.	c #ACBBCF",
"2.	c #D9E1E8",
"3.	c #C9D5E3",
"4.	c #BFCEDE",
"5.	c #93AECC",
"6.	c #89A8CA",
"7.	c #8CAACB",
"8.	c #8DAACB",
"9.	c #789AC2",
"0.	c #6084B4",
"a.	c #B6B1AD",
"b.	c #C8C8C8",
"c.	c #EDEDEE",
"d.	c #736D5E",
"e.	c #ABABAC",
"f.	c #FFF8EF",
"g.	c #99B1CC",
"h.	c #BFCEDD",
"i.	c #A6BDD4",
"j.	c #92AFCE",
"k.	c #90AFD0",
"l.	c #94B1D1",
"m.	c #91AFD0",
"n.	c #5680B3",
"o.	c #AEBCCF",
"p.	c #ABA8A4",
"q.	c #DEDEDE",
"r.	c #EEEFEF",
"s.	c #BDB8A8",
"t.	c #A56245",
"u.	c #8C4A22",
"v.	c #B4B4B4",
"w.	c #D5DFE9",
"x.	c #7293BC",
"y.	c #4371A9",
"z.	c #5E87B6",
"A.	c #4B78AF",
"B.	c #4773A9",
"C.	c #B5C6DB",
"D.	c #DADCDD",
"E.	c #777776",
"F.	c #C0C0C0",
"G.	c #DBDADA",
"H.	c #DDDDDE",
"I.	c #93866E",
"J.	c #907B5D",
"K.	c #CAABA7",
"L.	c #F51F20",
"M.	c #D21211",
"N.	c #6C380B",
"O.	c #717171",
"P.	c #C3C3C2",
"Q.	c #E2E4E5",
"R.	c #CDDBEC",
"S.	c #A2BADB",
"T.	c #B5C9E3",
"U.	c #EEF4F8",
"V.	c #B8B7B6",
"W.	c #7A7A79",
"X.	c #A7A7A7",
"Y.	c #DADCDE",
"Z.	c #D4D4D5",
"`.	c #9E7C45",
" +	c #CCC0B1",
".+	c #B7C0C3",
"++	c #C61215",
"@+	c #872409",
"#+	c #8E8E8E",
"$+	c #777777",
"%+	c #8D8D8D",
"&+	c #7D7D7D",
"*+	c #989999",
"=+	c #4C4B4B",
"-+	c #929292",
";+	c #E9E9E9",
">+	c #EDEEEF",
",+	c #DFDEDB",
"'+	c #5F491E",
")+	c #DDB977",
"!+	c #D2A34F",
"~+	c #BAA478",
"{+	c #7F3B1A",
"]+	c #5C3B05",
"^+	c #7B7B7B",
"/+	c #A1A1A1",
"(+	c #9E9E9E",
"_+	c #B3B3B3",
":+	c #7A7A7A",
"<+	c #DDDDDD",
"[+	c #DFDDD9",
"}+	c #7C653A",
"|+	c #CCA662",
"1+	c #D09F44",
"2+	c #C68714",
"3+	c #B69053",
"4+	c #564824",
"5+	c #999999",
"6+	c #8A8A8A",
"7+	c #BBBBBB",
"8+	c #ECECEC",
"9+	c #F6F6F6",
"0+	c #F4F4F6",
"a+	c #846A36",
"b+	c #BE9A53",
"c+	c #DBB56D",
"d+	c #CA8C1B",
"e+	c #A17116",
"f+	c #785921",
"g+	c #747579",
"h+	c #BEBEBE",
"i+	c #9B9B9B",
"j+	c #D6D6D6",
"k+	c #D4D4D4",
"l+	c #CDCDCD",
"m+	c #D6D6D7",
"n+	c #DADBDC",
"o+	c #B7AFA0",
"p+	c #CBA65F",
"q+	c #DDB56A",
"r+	c #CD942B",
"s+	c #956813",
"t+	c #6F5623",
"u+	c #BEB7A8",
"v+	c #D9D9D9",
"w+	c #C9C9C9",
"x+	c #CACACA",
"y+	c #C7C7C7",
"z+	c #B7B7B7",
"A+	c #B5B5B5",
"B+	c #BEBEBF",
"C+	c #908571",
"D+	c #896C33",
"E+	c #DAAF5E",
"F+	c #CF972D",
"G+	c #BE861D",
"H+	c #796339",
"I+	c #C8C2B6",
"J+	c #FFFFFF",
"K+	c #767676",
"L+	c #D8D8D8",
"M+	c #BEBDBD",
"N+	c #C2C2C3",
"O+	c #C7C9CD",
"P+	c #79653D",
"Q+	c #A58343",
"R+	c #DBB670",
"S+	c #D5A64D",
"T+	c #AF7B19",
"U+	c #6B4702",
"V+	c #8C8066",
"W+	c #E3E4E5",
"X+	c #F5F5F5",
"Y+	c #E4E4E4",
"Z+	c #D0D1D1",
"`+	c #C9C9C6",
" @	c #7B6437",
".@	c #B08C46",
"+@	c #DFB86F",
"@@	c #D19E40",
"#@	c #CC8F1F",
"$@	c #644408",
"%@	c #A29884",
"&@	c #EAEAEA",
"*@	c #DFE1E2",
"=@	c #968971",
"-@	c #BDAD7B",
";@	c #E3D4A0",
">@	c #D09F41",
",@	c #C98D1D",
"'@	c #95660E",
")@	c #BFB9AD",
"!@	c #DFE0E1",
"~@	c #7C694B",
"{@	c #B69B59",
"]@	c #DAC583",
"^@	c #D1B775",
"/@	c #947636",
"(@	c #765F38",
"_@	c #D5D2CB",
":@	c #F7F7F7",
"<@	c #F2F4F7",
"[@	c #6D5D3D",
"}@	c #665736",
"|@	c #A28447",
"1@	c #745E31",
"2@	c #978B76",
"3@	c #E5E6E8",
"4@	c #E4E5E6",
"5@	c #EFEFEF",
"6@	c #EBEBEC",
"7@	c #DDDAD5",
"8@	c #58492D",
"9@	c #82745C",
"0@	c #A39B92",
"a@	c #D6D7D9",
"b@	c #DEE1E6",
"c@	c #787878",
"d@	c #7E7E7E",
"e@	c #858585",
"f@	c #848484",
"g@	c #848483",
"h@	c #89898A",
"i@	c #878787",
"        . + @ # $ % & * = - ; > , ' ) ! ~ { ]       ",
"        ^ / ( _ : < [ } | 1 2 1 2 1 2 2 2 2 3 4     ",
"        5 6 7 8 9 0 a b c d e 5 f 5 5 f 5 g h i     ",
"        f f j k l m n o p q r s h 5 g g f h | t     ",
"        u v w x y z A B C D E F 8 G G G H | : t     ",
"        5 I J K L M N O P Q R S T U e e V u : t     ",
"        W X Y M Z `  ...+.@.#.$.%.s s s &.*.*.=.    ",
"        -.;.>.,.'.).!.~.{.].^./.(._.U U 7 :.<.[.    ",
"        }.|.1.2.3.4.5.6.7.8.9.0.a.b.b.b.H <.c.d.    ",
"        u e.f.g.h.i.j.k.l.m.n.o.p.q.V V h r.s.t.u.  ",
"        $ * v.w.x.y.z.A.B.C.D.E.F.6 G.H.I.J.K.L.M.N.",
"        * , O.P.Q.R.S.T.U.V.W.X.7 &.Y.Z.`. +.+++@+  ",
"      #+#+$+X.X.%+&+*+=.=+-+U <.;+>+,+'+)+!+~+{+]+  ",
"    ! - ^+/+(+1 _ _+:+#+<+e H ( ^ [+}+|+1+2+3+4+    ",
"  5+% 6+/+; 7+5 5 8+9+9+<.^ ( ^ 0+a+b+c+d+e+f+g+    ",
"  h+<+i+i+v.j+k+U l+G l+_.&.m+n+o+p+q+r+s+t+u+$+    ",
"  _+v+h+s F.w+x+y+z++ @ A+8 B+C+D+E+F+G+H+I+J+K+    ",
"        6 6 V V L+b.M+N+O+P+Q+R+S+T+U+V+W+1 X+$+    ",
"        f u Y+: | L+Z+`+ @.@+@@@#@$@%@j+h 2 X+$+    ",
"        f *.u &@&@g *@=@-@;@>@,@'@)@!@5 *.2 9+$+    ",
"        5 *.u &@&@h ~@{@]@^@/@(@_@/ :@:@2 1 9+$+    ",
"        f *.u ;+;+<@[@}@|@1@2@3@4@Y+: <.5@/ 9+$+    ",
"        f | | *.6@7@8@9@0@a@b@l+G U H 7 : 8+1 c@    ",
"        d@e@f@e@e@g@h@i@{ { { { i@i@{ { { e@i@      ",
"                                                    ",
"                                                    "};
