/* XPM */
static char *geda_display_color_24x24[] = {
/* columns rows colors chars-per-pixel */
"24 24 149 2 ",
"   c #03570001044F",
".  c #0686000B0822",
"X  c #09E100510C7A",
"o  c #0A2D0ADB0B6D",
"O  c #0D21037110E0",
"+  c #10DB06C715D3",
"@  c #14300F5618CA",
"#  c #0DE40FF21192",
"$  c #04D718641C0D",
"%  c #0C8C197D1AB1",
"&  c #11C711C711C7",
"*  c #0FA014F01890",
"=  c #132C1AE61F3D",
"-  c #1D911DE01E25",
";  c #16401F7D2553",
":  c #1EE41FFE2060",
">  c #16FE233B28E5",
",  c #189625742BC8",
"<  c #1A0228A62FA4",
"1  c #1D432CDA33A4",
"2  c #1A533E9C3A0B",
"3  c #23122410246B",
"4  c #27A2292029DA",
"5  c #2B1B2C5D2D1F",
"6  c #2DA82F182FD5",
"7  c #2EBA30433145",
"8  c #215033403AD1",
"9  c #29E8345A3DA2",
"0  c #317733133403",
"q  c #357A376E387D",
"w  c #3CA93CA93CA9",
"e  c #48C700000941",
"r  c #4C5B12DB1621",
"t  c #6F7403C706EC",
"y  c #7922043204B1",
"u  c #7326034C0ACE",
"i  c #7D0000000994",
"p  c #793407D70AF8",
"a  c #6B8B11EF0652",
"s  c #607F177C0F2F",
"d  c #6BB612FA0795",
"f  c #717311E10400",
"g  c #660A0CA60FFE",
"h  c #00004BEC07D2",
"j  c #00005F65006B",
"k  c #08EC584C1757",
"l  c #000D6EC1004D",
"z  c #0AAD678E0B08",
"x  c #000071930001",
"c  c #094D7490055B",
"v  c #015778F700DF",
"b  c #0A4D7AD80332",
"n  c #0000774F0A8B",
"m  c #00007CD20AFE",
"M  c #1D3142593CEA",
"N  c #2D2237224047",
"B  c #26493B0842C4",
"V  c #2B3D3AFB44B6",
"C  c #29513FAB48BA",
"Z  c #5EC815D56D4A",
"A  c #073A55C85C58",
"S  c #239442B44338",
"D  c #2BB744174D15",
"F  c #2D1346A95262",
"G  c #2CC047F152CF",
"H  c #0A826244759E",
"J  c #10686EB37120",
"K  c #00007F267AE6",
"L  c #54745465545C",
"P  c #5DCE5DA35D74",
"I  c #60805FD55FB3",
"U  c #65BF657D655C",
"Y  c #6919660365B3",
"T  c #6646687B662D",
"R  c #67F06AAC67CA",
"E  c #6BDC6B956AF7",
"W  c #72D86FC36F7F",
"Q  c #737473B47331",
"!  c #9CA704A206AE",
"~  c #818800001062",
"^  c #A9AB0479062B",
"/  c #CF96016C0000",
"(  c #D6260023002D",
")  c #DB7C0093006C",
"_  c #E31A00710093",
"`  c #01509BCA02B1",
"'  c #000085B90FD9",
"]  c #00CEA7F2012B",
"[  c #01F2AA5B043C",
"{  c #0086D549001A",
"}  c #00D2DC65005C",
"|  c #004DE3DF008C",
" . c #0010E8CC0014",
".. c #000083837DF8",
"X. c #77FC18EC8F89",
"o. c #6FEF25778188",
"O. c #072D6C038253",
"+. c #07E26CE58357",
"@. c #097571E28B6C",
"#. c #13087B6786DF",
"$. c #95950D6D9612",
"%. c #9ED608919A21",
"&. c #866313759C7A",
"*. c #870521F49A86",
"=. c #8D0F1297A48F",
"-. c #97141B0FA66C",
";. c #984B1A8AA785",
":. c #9E3A18D7AD51",
">. c #A245104EA267",
",. c #BCBC0A41C5AD",
"<. c #CBC2083BCFA7",
"1. c #CB450A97D211",
"2. c #E4CE00A2FD54",
"3. c #EA5B0093FDF8",
"4. c #F3D80000FFFF",
"5. c #FB030000FFFF",
"6. c #00838A8D8619",
"7. c #0EAC83728F76",
"8. c #0E2785BB925D",
"9. c #040D9638A393",
"0. c #03C39FB2AC58",
"q. c #009FAE7CCDF6",
"w. c #002EB375CC13",
"e. c #00B9A6BDD800",
"r. c #00D1A7ADDB87",
"t. c #0042A889E035",
"y. c #0000B608D0E5",
"u. c #0039BA2ED491",
"i. c #017ABED9D8DD",
"p. c #007FA8E4E0D3",
"a. c #82898281827A",
"s. c #8CDB8CA18C6D",
"d. c #90E78CAE8EF5",
"f. c #93A58EEC91B6",
"g. c #8FF7911A90BD",
"h. c #94F793CF9486",
"j. c #986693839677",
"k. c #9AA79AAE9AB2",
"l. c #A402A406A409",
"z. c #A9A8A9AAA9AD",
"x. c #B718B719B719",
"c. c #BD52BD56BD57",
"v. c #C5EEC5EFC5EF",
"b. c #CCC8CCC8CCC8",
"n. c #D513D513D513",
"m. c #DA2FDA2FDA2F",
"M. c #E373E373E373",
"N. c #EC0CEC0CEC0C",
"B. c None",
/* pixels */
"B.B.B.B.B.B.B.B.B.B.B.B.B.B.B.B.B.B.B.B.B.B.B.B.",
"B.z.a.d.d.g.g.h.h.h.h.k.j.j.j.h.f.f.f.d.d.a.z.B.",
"B.E 4 B 9 9 9 9 N 9 9 V S M M M M M 2 2 B 4 E B.",
"B.W q F #.8.7.7.8.8.8.J o.:.;.;.;.;.;.*.G q W B.",
"B.W 0 C 0.y.w.w.w.q.y.6.>.4.2.3.2.3.4.1.F 0 W B.",
"B.E 0 B 9.q.t.t.r.r.w...$.3.2.3.3.2.2.,.D 7 E B.",
"B.E 6 8 9.q.r.t.p.r.w...$.3.2.3.3.2.2.,.B 6 E B.",
"B.T 5 1 0.u.w.y.y.w.i...%.5.2.3.3.2.4.<.B 5 T B.",
"B.R 6 < H +.O.O.O.H @.A Z =.&.=.&.&.=.X.8 7 R B.",
"B.E 0 , z c c c c c c k r f d d d d f s 8 6 T B.",
"B.U 3 ; [ } { { } { } ' ~ ) ( ( ( ) ) ^ 1 3 I B.",
"B.P 3 ; ` { | | | } { m u / ) ) _ ) ( ! < 3 I B.",
"B.P : * ` {  . . .| { n u / ) _ _ ) / ! , 3 P B.",
"B.P - # ] | { } } { | m i _ ( ) ( ( ) ^ > - P B.",
"B.P - o j x l l l l v h e y t u u u p g > - P B.",
"B.L o o   . . X X O + @ % $ $ $ $ $ $ $ = # L B.",
"B.s.L T T E E E W W R R E E W W E R Y Y T L s.B.",
"B.B.B.B.B.B.B.B.B.B.l.c.c.k.B.B.B.B.B.B.B.B.B.B.",
"B.B.B.B.B.B.B.B.B.g.c.v.x.h.Q B.B.B.B.B.B.B.B.B.",
"B.B.B.B.B.B.l.b.n.m.v.c.c.v.m.b.b.z.B.B.B.B.B.B.",
"B.B.B.B.B.E N.N.M.M.m.n.n.m.M.M.N.N.E B.B.B.B.B.",
"B.B.B.B.B.B.W v.m.M.N.N.N.N.M.m.c.W B.B.B.B.B.B.",
"B.B.B.B.B.B.B.& w U Q a.a.Q P w # B.B.B.B.B.B.B.",
"B.B.B.B.B.B.B.B.B.B.B.B.B.B.B.B.B.B.B.B.B.B.B.B."
};
