/* XPM */
static char * find_attribute_xpm[] = {
"22 22 225 2",
"  	c None",
". 	c #8F5902",
"+ 	c #F5EFE4",
"@ 	c #E1CBA6",
"# 	c #D7BE97",
"$ 	c #D7BE96",
"% 	c #D9BF96",
"& 	c #DBC197",
"* 	c #DEC297",
"= 	c #DFC398",
"- 	c #E0C599",
"; 	c #E1CCAA",
"> 	c #E1C9A4",
", 	c #E7D6BB",
"' 	c #F1E5D2",
") 	c #ECD6B3",
"! 	c #B78639",
"~ 	c #A36D18",
"{ 	c #A66F18",
"] 	c #B98634",
"^ 	c #BE8935",
"/ 	c #C28C36",
"( 	c #CF9C4C",
"_ 	c #D39F4D",
": 	c #DCAB5E",
"< 	c #F3E3C9",
"[ 	c #F9F3EA",
"} 	c #ECCE9F",
"| 	c #D8BC8E",
"1 	c #F0E5D3",
"2 	c #F3E9D8",
"3 	c #D8B57D",
"4 	c #B38032",
"5 	c #B07C29",
"6 	c #B37E2A",
"7 	c #B57F2A",
"8 	c #BE8A38",
"9 	c #C18D39",
"0 	c #C79445",
"a 	c #D6B98B",
"b 	c #E1CEB1",
"c 	c #EFE9DA",
"d 	c #CBA162",
"e 	c #EACD9D",
"f 	c #EEE3D1",
"g 	c #F1E7D8",
"h 	c #C59F63",
"i 	c #F3E4CB",
"j 	c #F2E2C7",
"k 	c #F1E1C5",
"l 	c #F3E7D0",
"m 	c #A09D93",
"n 	c #74746F",
"o 	c #70716D",
"p 	c #6E706B",
"q 	c #72746E",
"r 	c #ACA99F",
"s 	c #F2E2C6",
"t 	c #CAA66C",
"u 	c #D4B684",
"v 	c #D5BF9C",
"w 	c #F0E0C8",
"x 	c #F1D09D",
"y 	c #F1CF9B",
"z 	c #F0CE99",
"A 	c #F0CD97",
"B 	c #D1B78C",
"C 	c #CBCBC9",
"D 	c #DADBDC",
"E 	c #D4D5D8",
"F 	c #D1D5D9",
"G 	c #D7D8DA",
"H 	c #CAC9C8",
"I 	c #70706B",
"J 	c #D2B280",
"K 	c #EDDBBC",
"L 	c #BE9D69",
"M 	c #F2DFC1",
"N 	c #D8BD91",
"O 	c #6F716C",
"P 	c #DADBDB",
"Q 	c #98A9BF",
"R 	c #7499C1",
"S 	c #77A1CD",
"T 	c #729FCE",
"U 	c #6F95BE",
"V 	c #9CADC0",
"W 	c #DEDEDE",
"X 	c #D8CAB0",
"Y 	c #EFDFC6",
"Z 	c #F1E4CE",
"` 	c #71726D",
" .	c #DADADA",
"..	c #8CA7C5",
"+.	c #C9D8E8",
"@.	c #E3EAF1",
"#.	c #DFE8F2",
"$.	c #B6CBE0",
"%.	c #729FCD",
"&.	c #90A9C5",
"*.	c #DBDBDB",
"=.	c #866A39",
"-.	c #A6A6A2",
";.	c #9DACBF",
">.	c #729ECD",
",.	c #CFD5DA",
"'.	c #E0E2E3",
").	c #E6E9E9",
"!.	c #E2E9F2",
"~.	c #C7CDCF",
"{.	c #95A1A7",
"].	c #719DCD",
"^.	c #ACB7C5",
"/.	c #A2A19C",
"(.	c #85714E",
"_.	c #D7B074",
":.	c #C78C33",
"<.	c #696B66",
"[.	c #DADAD9",
"}.	c #6690BF",
"|.	c #ACC4DD",
"1.	c #D8E2EE",
"2.	c #DFE7F0",
"3.	c #E2E9F0",
"4.	c #E0E9F3",
"5.	c #CDD8E2",
"6.	c #8BA2BA",
"7.	c #7A9CBF",
"8.	c #81A3CA",
"9.	c #D9D9D8",
"0.	c #DDB77E",
"a.	c #D29A46",
"b.	c #6E706A",
"c.	c #D8DADB",
"d.	c #719ECE",
"e.	c #BAC1C5",
"f.	c #CCCECB",
"g.	c #D2D1CA",
"h.	c #D5D1C6",
"i.	c #D4DADE",
"j.	c #AB9D81",
"k.	c #A49C87",
"l.	c #9D9B90",
"m.	c #E2E2E2",
"n.	c #E3BE87",
"o.	c #DDA858",
"p.	c #6E6F68",
"q.	c #DFDFDF",
"r.	c #76A0CC",
"s.	c #A6AEB2",
"t.	c #C1C2BC",
"u.	c #CDCABF",
"v.	c #CBC1AF",
"w.	c #B7B6AE",
"x.	c #B6A482",
"y.	c #B0A38A",
"z.	c #A6A394",
"A.	c #6F9AC8",
"B.	c #6C6E69",
"C.	c #E8C792",
"D.	c #E7B66A",
"E.	c #988F7B",
"F.	c #C4C3C2",
"G.	c #86A6C8",
"H.	c #859BB0",
"I.	c #A7A8A1",
"J.	c #B0AB98",
"K.	c #BBAD8F",
"L.	c #B3AB97",
"M.	c #C3AE89",
"N.	c #B9AC92",
"O.	c #8295A5",
"P.	c #89A9CA",
"Q.	c #C7C5C2",
"R.	c #7F807D",
"S.	c #EED5AC",
"T.	c #ECCD9E",
"U.	c #C5B294",
"V.	c #8E8C84",
"W.	c #D1D9E1",
"X.	c #A1AFBA",
"Y.	c #B2B7B5",
"Z.	c #BDBBB1",
"`.	c #AEB5B6",
" +	c #C3BDAE",
".+	c #AEB2B1",
"++	c #D2D9E0",
"@+	c #6A675C",
"#+	c #696B67",
"$+	c #8F5D0C",
"%+	c #6D6A5E",
"&+	c #A6A39B",
"*+	c #B9CADC",
"=+	c #657C92",
"-+	c #80775E",
";+	c #7A8381",
">+	c #63788B",
",+	c #739FCE",
"'+	c #C5CCD2",
")+	c #686966",
"!+	c #6B6D68",
"~+	c #8D8E8D",
"{+	c #DBE2E9",
"]+	c #96B3D2",
"^+	c #78A1CD",
"/+	c #97B4D3",
"(+	c #D5DCE4",
"_+	c #6A6B68",
":+	c #B8B8B7",
"<+	c #858784",
"[+	c #747672",
"}+	c #666864",
"|+	c #6A6C68",
"1+	c #8F908F",
"2+	c #C2C2C2",
"3+	c #646662",
"4+	c #6D6E6B",
"5+	c #B7B7B5",
"6+	c #898B88",
"7+	c #C7C7C7",
"8+	c #6C6D6A",
"9+	c #888A85",
"0+	c #6B6B6B",
"a+	c #CBCBCA",
"b+	c #D6D6D6",
"                                            ",
"                                            ",
"                                            ",
"        . . . . . . . . . . . . . .         ",
"      . + @ # $ $ % & & * = - ; > , .       ",
"    . ' ) ! ~ ~ { ] ^ / ( _ : < [ } | .     ",
"  . 1 2 3 4 ~ ~ ~ 5 6 7 8 9 0 a b c d e .   ",
". f g h i j k l l l m n o p q r l s t u | . ",
". v v w x y z A B o C D E F G H I J K L L . ",
". . . M x y z N O P Q R S T U V W p X . . . ",
"    . Y Z Z Z `  ...T +.@.#.$.%.&.*.` .     ",
"      . . . =.-.;.>.,.'.).!.~.{.].^./.(.    ",
"      . _.:.<.[.}.|.1.2.3.4.5.6.7.8.9.<.    ",
"      . 0.a.b.c.d.e.f.g.h.i.j.k.l.d.m.p     ",
"      . n.o.p.q.r.s.t.u.v.w.x.y.z.A.*.B.    ",
"      . C.D.E.F.G.H.I.J.K.L.M.N.O.P.Q.R.    ",
"      . S.T.U.V.W.T X.Y.Z.`. +.+T ++@+#+    ",
"      $+. . . %+&+*+T =+-+;+>+,+'+R.R.)+    ",
"                !+~+{+]+^+T /+(+_+:+<+[+}+  ",
"                  |+R.1+2+q.R.3+  4+5+6+7+8+",
"                      R.B.B.9+    0+8+a+b+8+",
"                                      8+8+)+"};
