/* XPM */
static char * geda_circle_28x28_xpm[] = {
"28 28 2 1",
" 	c None",
".	c #716DDE",
"                            ",
"             ...            ",
"         ...........        ",
"       ...............      ",
"      .....       .....     ",
"     ....           ....    ",
"    ....             ....   ",
"   ....               ....  ",
"  ....                 ...  ",
"  ...                   ... ",
"  ...                   ... ",
" ...                     .. ",
" ...                     .. ",
" ...                     ...",
" ...                     ...",
" ...                     ...",
" ...                     .. ",
" ...                     .. ",
"  ...                   ... ",
"  ...                   ... ",
"  ....                 ...  ",
"   ....               ....  ",
"    ....             ....   ",
"     ....           ....    ",
"      .....       .....     ",
"       ...............      ",
"         ...........        ",
"             ...            "};
