/* XPM */
static char * geda_redcross_32x32_xpm[] = {
"32 32 596 2",
"  	c None",
". 	c #CF575D",
"+ 	c #C05258",
"@ 	c #B84E51",
"# 	c #C24852",
"$ 	c #DD495C",
"% 	c #CB505C",
"& 	c #C96160",
"* 	c #C0576A",
"= 	c #BD4E46",
"- 	c #C5363A",
"; 	c #BC323A",
"> 	c #D0464C",
", 	c #C23C42",
"' 	c #D73C45",
") 	c #E3424A",
"! 	c #DC4549",
"~ 	c #D74B4F",
"{ 	c #D05057",
"] 	c #D05662",
"^ 	c #D15963",
"/ 	c #D06160",
"( 	c #BD6568",
"_ 	c #CB363A",
": 	c #D02228",
"< 	c #D5242C",
"[ 	c #D7262F",
"} 	c #D82E34",
"| 	c #D7373A",
"1 	c #D74045",
"2 	c #D5454C",
"3 	c #D64B53",
"4 	c #DB4D54",
"5 	c #E25256",
"6 	c #DC565A",
"7 	c #DA585F",
"8 	c #C76065",
"9 	c #DC323A",
"0 	c #DF1F24",
"a 	c #E31E2A",
"b 	c #E11F29",
"c 	c #DF2129",
"d 	c #DE2129",
"e 	c #DC3D40",
"f 	c #DB4B50",
"g 	c #DD4F55",
"h 	c #DD5155",
"i 	c #E05456",
"j 	c #E25658",
"k 	c #E6565D",
"l 	c #DA5B5F",
"m 	c #C55E65",
"n 	c #D9333D",
"o 	c #DB1F26",
"p 	c #E1202A",
"q 	c #E42028",
"r 	c #E52029",
"s 	c #E51B24",
"t 	c #DE3B41",
"u 	c #E74E55",
"v 	c #E24F55",
"w 	c #E25155",
"x 	c #E35257",
"y 	c #E35358",
"z 	c #E25557",
"A 	c #DC5A5F",
"B 	c #C76066",
"C 	c #D8323B",
"D 	c #DB1D26",
"E 	c #DF1E28",
"F 	c #E21F27",
"G 	c #E42128",
"H 	c #E71B23",
"I 	c #DE3A41",
"J 	c #E74C55",
"K 	c #E04C53",
"L 	c #E24E55",
"M 	c #E34F57",
"N 	c #E25159",
"O 	c #E15158",
"P 	c #D8585D",
"Q 	c #C86066",
"R 	c #D13038",
"S 	c #D81E25",
"T 	c #DC1E26",
"U 	c #DD1F25",
"V 	c #E02127",
"W 	c #E51B23",
"X 	c #DD3A3B",
"Y 	c #EB4A51",
"Z 	c #E24B53",
"` 	c #E04D52",
" .	c #E14E53",
"..	c #E34F54",
"+.	c #E25153",
"@.	c #DD545E",
"#.	c #CA5D64",
"$.	c #D03038",
"%.	c #D71F25",
"&.	c #DB2027",
"*.	c #DD1F26",
"=.	c #DF1F25",
"-.	c #E31B24",
";.	c #D83A39",
">.	c #E9474E",
",.	c #DE484F",
"'.	c #E14A50",
").	c #E04B50",
"!.	c #DF4D50",
"~.	c #DF4E52",
"{.	c #DD5656",
"].	c #CD5E60",
"^.	c #D12F37",
"/.	c #DA1F25",
"(.	c #DC1F24",
"_.	c #DF2026",
":.	c #E41B24",
"<.	c #D53736",
"[.	c #E4444D",
"}.	c #DE464F",
"|.	c #DF474F",
"1.	c #DF4950",
"2.	c #DF4B51",
"3.	c #E04C51",
"4.	c #D24E55",
"5.	c #C23E43",
"6.	c #D43E41",
"7.	c #CF424A",
"8.	c #D24853",
"9.	c #AE4F55",
"0.	c #B15758",
"a.	c #DE6A60",
"b.	c #CD2F36",
"c.	c #D51E23",
"d.	c #D61E24",
"e.	c #D71F26",
"f.	c #D92026",
"g.	c #DC1B26",
"h.	c #E33236",
"i.	c #DA4546",
"j.	c #DF4247",
"k.	c #E14449",
"l.	c #E5454B",
"m.	c #E8484E",
"n.	c #E94B4E",
"o.	c #DE454B",
"p.	c #D2303A",
"q.	c #CD383B",
"r.	c #D33A42",
"s.	c #D6414A",
"t.	c #DB464C",
"u.	c #D74C50",
"v.	c #D75C5A",
"w.	c #BE535D",
"x.	c #C1565F",
"y.	c #D03137",
"z.	c #D11F23",
"A.	c #D61F24",
"B.	c #D91F26",
"C.	c #DA1F26",
"D.	c #DB1B25",
"E.	c #DD3135",
"F.	c #DA4246",
"G.	c #DF4149",
"H.	c #E04249",
"I.	c #E4444B",
"J.	c #E6454D",
"K.	c #E7494D",
"L.	c #DD434A",
"M.	c #CD2F38",
"N.	c #CB3A39",
"O.	c #D03E42",
"P.	c #D6464C",
"Q.	c #D84A4D",
"R.	c #DB4C53",
"S.	c #DE4C56",
"T.	c #DD525B",
"U.	c #CA565A",
"V.	c #A96968",
"W.	c #A63440",
"X.	c #C0373B",
"Y.	c #BE2C29",
"Z.	c #CC252C",
"`.	c #D0272D",
" +	c #CF1E25",
".+	c #D01D23",
"++	c #D61D24",
"@+	c #DC1B25",
"#+	c #D82F33",
"$+	c #DD3E46",
"%+	c #E13E47",
"&+	c #E14146",
"*+	c #E24248",
"=+	c #E34349",
"-+	c #E24549",
";+	c #DE444A",
">+	c #D73D42",
",+	c #DA4648",
"'+	c #E0474B",
")+	c #E44C50",
"!+	c #E74E53",
"~+	c #E85056",
"{+	c #E85258",
"]+	c #E65458",
"^+	c #CF5656",
"/+	c #C85560",
"(+	c #A24448",
"_+	c #B73641",
":+	c #C3212C",
"<+	c #C82527",
"[+	c #C52225",
"}+	c #D02127",
"|+	c #D31E26",
"1+	c #D21E25",
"2+	c #D42126",
"3+	c #D81E26",
"4+	c #D51E27",
"5+	c #D5212A",
"6+	c #C51A1F",
"7+	c #CF2F32",
"8+	c #DD3B42",
"9+	c #DF3B44",
"0+	c #DE3D44",
"a+	c #DF3F45",
"b+	c #DF4147",
"c+	c #DF4346",
"d+	c #E2444A",
"e+	c #E4474C",
"f+	c #E4494E",
"g+	c #E7494F",
"h+	c #E64C4F",
"i+	c #E84C53",
"j+	c #E54E53",
"k+	c #E64F54",
"l+	c #E45157",
"m+	c #D45358",
"n+	c #C51C29",
"o+	c #C91D22",
"p+	c #C81D24",
"q+	c #C81B22",
"r+	c #CA1B22",
"s+	c #CD1E26",
"t+	c #CE1D24",
"u+	c #CE1B22",
"v+	c #CD1F24",
"w+	c #D4242A",
"x+	c #D1252C",
"y+	c #D1282F",
"z+	c #DA3137",
"A+	c #DC3439",
"B+	c #DC363B",
"C+	c #DD3841",
"D+	c #DC3A43",
"E+	c #DE3C43",
"F+	c #DF3E45",
"G+	c #DE4044",
"H+	c #E14249",
"I+	c #E2454B",
"J+	c #E6464F",
"K+	c #E5484E",
"L+	c #E74A51",
"M+	c #E64B51",
"N+	c #E54D52",
"O+	c #E44F55",
"P+	c #D65258",
"Q+	c #C42B33",
"R+	c #CF1E27",
"S+	c #D02024",
"T+	c #CF2025",
"U+	c #CC1F24",
"V+	c #C71D22",
"W+	c #C41C21",
"X+	c #C91F23",
"Y+	c #CB1F24",
"Z+	c #D02329",
"`+	c #D2262D",
" @	c #D2282E",
".@	c #D22B30",
"+@	c #D52D31",
"@@	c #D82F34",
"#@	c #D93235",
"$@	c #DA3436",
"%@	c #DA353D",
"&@	c #D9383E",
"*@	c #DA3A3F",
"=@	c #DD3B41",
"-@	c #DE3E41",
";@	c #DE3F45",
">@	c #DF4246",
",@	c #DF4447",
"'@	c #E7464D",
")@	c #E5474F",
"!@	c #E54A4F",
"~@	c #DF4E4F",
"{@	c #E34E53",
"]@	c #D45155",
"^@	c #C71F29",
"/@	c #CE1E27",
"(@	c #D12124",
"_@	c #D12026",
":@	c #D01F24",
"<@	c #D12126",
"[@	c #C71C21",
"}@	c #CA191F",
"|@	c #D11E23",
"1@	c #CF2026",
"2@	c #D0222A",
"3@	c #D1252B",
"4@	c #D2272C",
"5@	c #D62A2F",
"6@	c #D62A31",
"7@	c #D62E33",
"8@	c #D52F34",
"9@	c #DA333A",
"0@	c #D8343C",
"a@	c #DA363D",
"b@	c #DC393E",
"c@	c #DA393F",
"d@	c #DE3C44",
"e@	c #DD3E43",
"f@	c #DC3F46",
"g@	c #E2424A",
"h@	c #E4444C",
"i@	c #E5464E",
"j@	c #DD4A4D",
"k@	c #E24B52",
"l@	c #D44F54",
"m@	c #C71E29",
"n@	c #D01E26",
"o@	c #D01D24",
"p@	c #C81B20",
"q@	c #C6171E",
"r@	c #C91A21",
"s@	c #CC1C23",
"t@	c #CE1E26",
"u@	c #CF2128",
"v@	c #D0232A",
"w@	c #D2252C",
"x@	c #D4292F",
"y@	c #D52A31",
"z@	c #D52D32",
"A@	c #D62E36",
"B@	c #D73238",
"C@	c #D8333A",
"D@	c #D8353C",
"E@	c #D7373C",
"F@	c #D93941",
"G@	c #DB3B41",
"H@	c #D93D42",
"I@	c #DA3E44",
"J@	c #D94047",
"K@	c #DD424A",
"L@	c #E3434B",
"M@	c #DD474B",
"N@	c #E14851",
"O@	c #D84D5C",
"P@	c #C61F29",
"Q@	c #C71B1F",
"R@	c #C7151D",
"S@	c #C7161E",
"T@	c #C9191F",
"U@	c #CB1B21",
"V@	c #CD1D23",
"W@	c #CE1F26",
"X@	c #CE2228",
"Y@	c #D1272E",
"Z@	c #D0292D",
"`@	c #D22C30",
" #	c #D22E31",
".#	c #D32F35",
"+#	c #D33238",
"@#	c #D13439",
"##	c #D6353E",
"$#	c #D9383F",
"%#	c #D43840",
"&#	c #D83C44",
"*#	c #DA3E45",
"=#	c #D34345",
"-#	c #D24446",
";#	c #DC424A",
">#	c #D54C4C",
",#	c #C15155",
"'#	c #C81E2B",
")#	c #CF1E28",
"!#	c #D12024",
"~#	c #D01F25",
"{#	c #D21E26",
"]#	c #C6151E",
"^#	c #C6161D",
"/#	c #C8181E",
"(#	c #CA1921",
"_#	c #CD1B24",
":#	c #CD1D26",
"<#	c #CE2128",
"[#	c #CF252A",
"}#	c #CC252A",
"|#	c #CC282C",
"1#	c #CD2A2E",
"2#	c #CE2C32",
"3#	c #CE2F35",
"4#	c #CE3136",
"5#	c #D1333D",
"6#	c #C8383F",
"7#	c #C93F43",
"8#	c #CD3F43",
"9#	c #D24143",
"0#	c #D2444E",
"a#	c #C74951",
"b#	c #A34E55",
"c#	c #C08478",
"d#	c #C81D2B",
"e#	c #CF1F25",
"f#	c #D12025",
"g#	c #D02025",
"h#	c #CC1E25",
"i#	c #C41920",
"j#	c #BF141C",
"k#	c #BF161C",
"l#	c #C0151C",
"m#	c #C2151D",
"n#	c #C2151E",
"o#	c #C6171F",
"p#	c #CA1A22",
"q#	c #CE1D25",
"r#	c #D11F28",
"s#	c #CC2129",
"t#	c #C62529",
"u#	c #CB272B",
"v#	c #CC282D",
"w#	c #CD2C30",
"x#	c #CD2E31",
"y#	c #C7333A",
"z#	c #9F3B44",
"A#	c #B55F5F",
"B#	c #B1545A",
"C#	c #BF232D",
"D#	c #CD1E25",
"E#	c #C7191D",
"F#	c #CB1D22",
"G#	c #CA1F24",
"H#	c #BF1B20",
"I#	c #B9161B",
"J#	c #BA151A",
"K#	c #B8181B",
"L#	c #BA161B",
"M#	c #C1161D",
"N#	c #C4161E",
"O#	c #BC1922",
"P#	c #C51B25",
"Q#	c #CC1D25",
"R#	c #C52226",
"S#	c #C92329",
"T#	c #CB252A",
"U#	c #CC2B2D",
"V#	c #C8313B",
"W#	c #A0363B",
"X#	c #A8393C",
"Y#	c #C0494F",
"Z#	c #C6272D",
"`#	c #C4262D",
" $	c #C62129",
".$	c #C60C15",
"+$	c #C2000A",
"@$	c #B90E19",
"#$	c #B1151A",
"$$	c #B2191F",
"%$	c #AE1D21",
"&$	c #AA1F25",
"*$	c #A42125",
"=$	c #A1262A",
"-$	c #B61E27",
";$	c #CA181F",
">$	c #C31D22",
",$	c #C71E25",
"'$	c #C92126",
")$	c #CA2429",
"!$	c #CA262A",
"~$	c #C1303A",
"{$	c #86D5D8",
"]$	c #D64142",
"^$	c #BA5E5B",
"/$	c #C32231",
"($	c #9D7E75",
"_$	c #919D70",
":$	c #956964",
"<$	c #AC3235",
"[$	c #9F2829",
"}$	c #A12829",
"|$	c #A2272C",
"1$	c #A4282C",
"2$	c #A02A2E",
"3$	c #B41B24",
"4$	c #C6151C",
"5$	c #BF191E",
"6$	c #C31C22",
"7$	c #C41D23",
"8$	c #C62126",
"9$	c #CA2328",
"0$	c #BE2E34",
"a$	c #A03742",
"b$	c #A4242E",
"c$	c #A5262E",
"d$	c #A2272B",
"e$	c #9D272B",
"f$	c #B21A24",
"g$	c #C3111A",
"h$	c #BA161A",
"i$	c #BE171D",
"j$	c #BF1A20",
"k$	c #C01D23",
"l$	c #C61F25",
"m$	c #BD2B33",
"n$	c #8E9E83",
"o$	c #A23A3D",
"p$	c #A2272E",
"q$	c #A0282C",
"r$	c #A3262C",
"s$	c #9D262C",
"t$	c #B01A1F",
"u$	c #BE131A",
"v$	c #B8141A",
"w$	c #BC151B",
"x$	c #BC161D",
"y$	c #BF181F",
"z$	c #C31B21",
"A$	c #BE2B32",
"B$	c #9D554F",
"C$	c #A1393B",
"D$	c #A2262C",
"E$	c #A3272C",
"F$	c #A2262D",
"G$	c #A3252D",
"H$	c #9E262D",
"I$	c #AE191E",
"J$	c #BE1219",
"K$	c #B71419",
"L$	c #B9141A",
"M$	c #BA131A",
"N$	c #BD161C",
"O$	c #BF161E",
"P$	c #BB2A2F",
"Q$	c #9F3538",
"R$	c #9F262A",
"S$	c #A0282D",
"T$	c #A2282C",
"U$	c #9F282C",
"V$	c #AD1920",
"W$	c #B6141A",
"X$	c #B9151B",
"Y$	c #BB151A",
"Z$	c #BA141B",
"`$	c #B9272F",
" %	c #9E3136",
".%	c #A0262B",
"+%	c #9E262B",
"@%	c #9D262B",
"#%	c #9D252A",
"$%	c #9A2728",
"%%	c #A81920",
"&%	c #BB1118",
"*%	c #B5151A",
"=%	c #BA131B",
"-%	c #C01F2A",
";%	c #77AE88",
">%	c #9A2B2F",
",%	c #9D262A",
"'%	c #99262A",
")%	c #982629",
"!%	c #98262A",
"~%	c #962627",
"{%	c #A4191E",
"]%	c #B81017",
"^%	c #B51319",
"/%	c #B71319",
"(%	c #B71219",
"_%	c #B7101A",
":%	c #9E1515",
"<%	c #AE393F",
"[%	c #967678",
"}%	c #804345",
"|%	c #913538",
"1%	c #983337",
"2%	c #952E2F",
"3%	c #922829",
"4%	c #A01920",
"5%	c #A9181C",
"6%	c #A61F20",
"7%	c #A12729",
"8%	c #A12C30",
"9%	c #803A39",
"0%	c #977471",
"a%	c #B07F7B",
"b%	c #862D30",
"c%	c #8F1E26",
"d%	c #913F39",
"e%	c #9A3B40",
"                                                                ",
"                        . + @ # $ % & *                         ",
"                  = - ; > , ' ) ! ~ { ] ^ / (                   ",
"                  _ : < [ } | 1 2 3 4 5 6 7 8                   ",
"                  9 0 a b c d e f g h i j k l m                 ",
"                  n o p q r s t u v w x y z A B                 ",
"                  C D E F G H I J K L M N O P Q                 ",
"                  R S T U V W X Y Z `  ...+.@.#.                ",
"                  $.%.&.*.=.-.;.>.,.'.).!.~.{.].                ",
"                  ^.%./.(._.:.<.[.}.|.1.2.3.4.5.6.7.8.9.0.a.    ",
"                  b.c.d.e.f.g.h.i.j.k.l.m.n.o.p.q.r.s.t.u.v.w.x.",
"                  y.z.A.B.C.D.E.F.G.H.I.J.K.L.M.N.O.P.Q.R.S.T.U.",
"        V.W.X.Y.Z.`. + +.+++@+#+$+%+&+*+=+-+;+>+,+'+)+!+~+{+]+^+",
"/+(+_+:+<+[+}+|+1+2+3+++4+5+6+7+8+9+0+a+b+c+d+e+f+g+h+i+j+k+l+m+",
"9.n+o+p+q+r+s+t+u+v+ +w+x+y+z+A+B+C+D+E+F+G+H+k.I+J+K+L+M+N+O+P+",
"Q+R+S+T+U+V+W+X+Y+Z+`+ @.@+@@@#@$@%@&@*@=@-@;@>@,@I.'@)@!@~@{@]@",
"^@/@(@_@:@<@[@}@|@1@2@3@4@5@6@7@8@9@0@a@b@c@d@e@f@G.g@h@i@j@k@l@",
"m@/@(@_@n@o@p@q@r@s@t@u@v@w@x@y@z@A@B@C@D@E@F@G@H@I@J@K@L@M@N@O@",
"P@/@(@<@T+|+Q@R@S@T@U@V@W@X@3@Y@Z@`@ #.#+#@###$#%#&#*#=#-#;#>#,#",
"'#)#!#_@~#{#p@]#]#^#/#(#_#:#<#[#}#|#1#2#3#4#5#6#7#8#9#0#a#b#c#  ",
"d#e#f#g#~#h#i#j#k#l#m#n#o#p#q#r#s#t#u#v#w#x#y#z#A#B#            ",
"C#D#E#o+F#G#H#I#J#I#K#L#M#N#O#P#Q#R#S#T#|#U#V#                  ",
"W#X#Y#Z#`# $.$+$@$#$$$%$&$*$=$-$;$>$,$'$)$!$~$                  ",
"    {$]$^$/$($_$:$<$[$}$|$1$2$3$4$5$6$7$8$9$0$                  ",
"                  a$b$c$d$=$e$f$g$h$i$j$k$l$m$                  ",
"              n$  o$p$q$|$r$s$t$u$v$w$x$y$z$A$                  ",
"                B$C$D$E$F$G$H$I$J$K$L$M$N$O$P$                  ",
"                  Q$R$S$T$T$U$V$J$W$X$Y$Y$Z$`$                  ",
"                   %.%+%@%#%$%%%&%*%W$W$=%J$-%                  ",
"              ;%  >%,%'%)%!%~%{%]%^%/%(%_%:%<%                  ",
"                  [%}%|%1%2%3%4%5%6%7%8%9%0%a%                  ",
"                            b%c%d%e%                            "};
