/* XPM */
static char * geda_demote_32x32_xpm[] = {
"32 32 148 2",
"  	c None",
". 	c #000621",
"+ 	c #00072A",
"@ 	c #000A3C",
"# 	c #000C3F",
"$ 	c #000A28",
"% 	c #000722",
"& 	c #000721",
"* 	c #000A2D",
"= 	c #000A31",
"- 	c #000824",
"; 	c #00207A",
"> 	c #000D2A",
", 	c #000E27",
"' 	c #001335",
") 	c #00123D",
"! 	c #000D37",
"~ 	c #003BC1",
"{ 	c #000926",
"] 	c #000A2C",
"^ 	c #000F35",
"/ 	c #001434",
"( 	c #000C30",
"_ 	c #0033A7",
": 	c #000625",
"< 	c #00062F",
"[ 	c #000E35",
"} 	c #001331",
"| 	c #002B92",
"1 	c #00072F",
"2 	c #002B94",
"3 	c #000626",
"4 	c #000730",
"5 	c #000E36",
"6 	c #001431",
"7 	c #000B2B",
"8 	c #003191",
"9 	c #000A2A",
"0 	c #000B32",
"a 	c #001239",
"b 	c #001831",
"c 	c #00102A",
"d 	c #004896",
"e 	c #000830",
"f 	c #000E37",
"g 	c #001532",
"h 	c #000B30",
"i 	c #0034BC",
"j 	c #00021C",
"k 	c #00032C",
"l 	c #000A35",
"m 	c #000E30",
"n 	c #00052B",
"o 	c #0013A7",
"p 	c #000B34",
"q 	c #000D2B",
"r 	c #00071F",
"s 	c #001B38",
"t 	c #002B5A",
"u 	c #003065",
"v 	c #002754",
"w 	c #003854",
"x 	c #001739",
"y 	c #000B33",
"z 	c #00132D",
"A 	c #000C2B",
"B 	c #001B56",
"C 	c #001540",
"D 	c #001848",
"E 	c #002768",
"F 	c #040B3E",
"G 	c #0C0027",
"H 	c #000C21",
"I 	c #000619",
"J 	c #000C25",
"K 	c #000B22",
"L 	c #000D1D",
"M 	c #000D26",
"N 	c #000E39",
"O 	c #001336",
"P 	c #00122E",
"Q 	c #000936",
"R 	c #000727",
"S 	c #000726",
"T 	c #000A30",
"U 	c #000219",
"V 	c #050017",
"W 	c #000A25",
"X 	c #000F38",
"Y 	c #000E33",
"Z 	c #000D33",
"` 	c #000931",
" .	c #001035",
"..	c #001537",
"+.	c #001337",
"@.	c #000214",
"#.	c #000A26",
"$.	c #000B2C",
"%.	c #000F34",
"&.	c #000F33",
"*.	c #000D32",
"=.	c #000932",
"-.	c #001334",
";.	c #000F2E",
">.	c #000C26",
",.	c #000D2C",
"'.	c #000E34",
").	c #001133",
"!.	c #000C24",
"~.	c #000823",
"{.	c #001438",
"].	c #000E2F",
"^.	c #001124",
"/.	c #000D2F",
"(.	c #000E32",
"_.	c #00113B",
":.	c #001033",
"<.	c #000F30",
"[.	c #000F3D",
"}.	c #00092C",
"|.	c #00041F",
"1.	c #010B27",
"2.	c #000D2E",
"3.	c #001138",
"4.	c #001235",
"5.	c #000D31",
"6.	c #000D39",
"7.	c #000828",
"8.	c #000117",
"9.	c #000923",
"0.	c #000D2D",
"a.	c #001036",
"b.	c #000B2D",
"c.	c #000522",
"d.	c #000A20",
"e.	c #000921",
"f.	c #000D34",
"g.	c #00071E",
"h.	c #000B27",
"i.	c #000820",
"j.	c #000D35",
"k.	c #00103B",
"l.	c #000815",
"m.	c #00092A",
"n.	c #001317",
"o.	c #00020F",
"p.	c #00041B",
"q.	c #010004",
"                                                                ",
"                                                                ",
"                          . + @ # $                             ",
"                          % & * = - ;                           ",
"                          > , ' ) ! ~                           ",
"                          { ] ^ / ( _                           ",
"                          : < [ } ] |                           ",
"                          : 1 [ } ] 2                           ",
"                          : 1 [ } ] 2                           ",
"                          : 1 [ } ] 2                           ",
"                          3 4 5 6 7 8                           ",
"                          9 0 a b c d                           ",
"                          - e f g h i                           ",
"                          j k l m n o                           ",
"                          { < p q r                             ",
"                s t u v w x y 5 z A B C D E F G                 ",
"                H I J K L M N O P Q R % S T U V                 ",
"                  W X X ^ ^ Y Y Z `  ...+.5 @.                  ",
"                  #.$.Y %.&.Y Y *.=.&.-.;.9 $.                  ",
"                    >.,.%.Y Y %.*.0 '.).!.~.                    ",
"                    {.$.Y &.'. .*.*.5 ].!.^.                    ",
"                      ^ Y Y *.Y Y *.! Y /.                      ",
"                      $ - (._.:.<.[.}.|.1.                      ",
"                        - 2.3.4.5.6.7.8.                        ",
"                        >.9.0.&.a.b.c.                          ",
"                          d.e.f.X g.h.                          ",
"                            i.j.k.l.                            ",
"                            ;.m.j.n.                            ",
"                              o.p.                              ",
"                              q.                                ",
"                                                                ",
"                                                                "};
