/* XPM */
static char *geda_line_26x26[] = {
/* columns rows colors chars-per-pixel */
"26 26 42 1 ",
"  c #058000",
". c #058200",
"X c #058300",
"o c #058500",
"O c #068500",
"+ c #068600",
"@ c #068700",
"# c #058900",
"$ c #068800",
"% c #068900",
"& c #068B00",
"* c #078B00",
"= c #078C00",
"- c #078D00",
"; c #078E00",
": c #089000",
"> c #089100",
", c #089800",
"< c #0CC700",
"1 c #0CC800",
"2 c #0CCA00",
"3 c #0CCC00",
"4 c #0CCD00",
"5 c #0CCE00",
"6 c #0CCF00",
"7 c #0BD300",
"8 c #0CD000",
"9 c #0CD100",
"0 c #0CD200",
"q c #0BD400",
"w c #0BD600",
"e c #0BD700",
"r c #0CD500",
"t c #0BD800",
"y c #0BD900",
"u c #0BDA00",
"i c #0BDB00",
"p c #05F800",
"a c #02FF00",
"s c #03FF00",
"d c #04FF00",
"f c None",
/* pixels */
"ffffffffffffffffffffffffff",
"ffffffffffffffffffffffffff",
"ffffffffffffffffffffffffff",
"ffffffffffffffffffffffi,ff",
"fffffffffffffffffffffi>fff",
"ffffffffffffffffffffy>ffff",
"fffffffffffffffffffy>fffff",
"ffffffffffffffffffy=ffffff",
"fffffffffffffffffy=fffffff",
"ffffffffffffffffq=ffffffff",
"fffffffffffffffr=fffffffff",
"ffffffffffffffq*ffffffffff",
"fffffffffffff0*fffffffffff",
"ffffffffffff0*ffffffffffff",
"fffffffffff0*fffffffffffff",
"fffffffffs0@ffffffffffffff",
"ffffffffs6@fffffffffffffff",
"fffffffs4@ffffffffffffffff",
"ffffffs4@fffffffffffffffff",
"fffffs2@ffffffffffffffffff",
"ffffd2Xfffffffffffffffffff",
"fffd2Xffffffffffffffffffff",
"ffs<Xfffffffffffffffffffff",
"fp<Xffffffffffffffffffffff",
"ff*fffffffffffffffffffffff",
"ffffffffffffffffffffffffff"
};
