/* XPM */
static char * geda_demote_36x36_xpm[] = {
"36 36 163 2",
"  	c None",
". 	c #000827",
"+ 	c #000B3B",
"@ 	c #000E51",
"# 	c #001054",
"$ 	c #000E34",
"% 	c #00061F",
"& 	c #00082B",
"* 	c #00092E",
"= 	c #00071E",
"- 	c #00134B",
"; 	c #000B29",
"> 	c #001036",
", 	c #000F3B",
"' 	c #000B2E",
") 	c #002070",
"! 	c #000F2A",
"~ 	c #001028",
"{ 	c #001435",
"] 	c #00153D",
"^ 	c #000D37",
"/ 	c #002B8C",
"( 	c #000830",
"_ 	c #000E36",
": 	c #001432",
"< 	c #000B2B",
"[ 	c #00206A",
"} 	c #000727",
"| 	c #000731",
"1 	c #000F36",
"2 	c #000A2B",
"3 	c #001E66",
"4 	c #000831",
"5 	c #001E67",
"6 	c #000627",
"7 	c #000B33",
"8 	c #001139",
"9 	c #001832",
"0 	c #000F28",
"a 	c #002D63",
"b 	c #000C33",
"c 	c #001339",
"d 	c #001833",
"e 	c #00102A",
"f 	c #003173",
"g 	c #000623",
"h 	c #000C37",
"i 	c #001332",
"j 	c #00082F",
"k 	c #001785",
"l 	c #00031F",
"m 	c #00042E",
"n 	c #000B35",
"o 	c #000D30",
"p 	c #000626",
"q 	c #000E66",
"r 	c #000C35",
"s 	c #000E2C",
"t 	c #00081E",
"u 	c #002054",
"v 	c #001A37",
"w 	c #00254F",
"x 	c #002D5B",
"y 	c #00265B",
"z 	c #002440",
"A 	c #003150",
"B 	c #001336",
"C 	c #000B34",
"D 	c #00142E",
"E 	c #000C2A",
"F 	c #00174B",
"G 	c #001541",
"H 	c #00133C",
"I 	c #001A4D",
"J 	c #002463",
"K 	c #050634",
"L 	c #0D0026",
"M 	c #000D23",
"N 	c #000618",
"O 	c #000C24",
"P 	c #000C25",
"Q 	c #000C1E",
"R 	c #000E1E",
"S 	c #000E2B",
"T 	c #001436",
"U 	c #00132E",
"V 	c #000B38",
"W 	c #00082A",
"X 	c #000723",
"Y 	c #000A30",
"Z 	c #000116",
"` 	c #070018",
" .	c #000921",
"..	c #001039",
"+.	c #000F34",
"@.	c #000F35",
"#.	c #000E33",
"$.	c #000932",
"%.	c #001537",
"&.	c #001136",
"*.	c #000D36",
"=.	c #00000C",
"-.	c #000A24",
";.	c #000C2F",
">.	c #001035",
",.	c #001034",
"'.	c #001233",
").	c #000F31",
"!.	c #000A26",
"~.	c #000A21",
"{.	c #000D2D",
"].	c #000B32",
"^.	c #000D34",
"/.	c #001235",
"(.	c #001130",
"_.	c #000B22",
":.	c #000728",
"<.	c #00316F",
"[.	c #000B23",
"}.	c #000F33",
"|.	c #000D35",
"1.	c #001135",
"2.	c #000A1F",
"3.	c #000B31",
"4.	c #000C31",
"5.	c #000E35",
"6.	c #000E32",
"7.	c #000B26",
"8.	c #00152C",
"9.	c #000722",
"0.	c #000924",
"a.	c #001138",
"b.	c #00123C",
"c.	c #001133",
"d.	c #001030",
"e.	c #00103F",
"f.	c #00041E",
"g.	c #000017",
"h.	c #000A27",
"i.	c #001239",
"j.	c #000E31",
"k.	c #000E3A",
"l.	c #000A2D",
"m.	c #00031B",
"n.	c #000A25",
"o.	c #000F30",
"p.	c #000D31",
"q.	c #000622",
"r.	c #000B40",
"s.	c #000822",
"t.	c #000923",
"u.	c #000821",
"v.	c #00103A",
"w.	c #000819",
"x.	c #000D29",
"y.	c #000C36",
"z.	c #001140",
"A.	c #000D1E",
"B.	c #020B3C",
"C.	c #00051A",
"D.	c #000724",
"E.	c #010009",
"F.	c #01000C",
"                                                                        ",
"                                                                        ",
"                              . + @ # $                                 ",
"                              % % & * = -                               ",
"                              ; ; > , ' )                               ",
"                              ! ~ { ] ^ /                               ",
"                              . ( _ : < [                               ",
"                              } | 1 : 2 3                               ",
"                              } 4 1 : 2 5                               ",
"                              } 4 1 : 2 5                               ",
"                              } 4 1 : 2 5                               ",
"                              6 | _ : 2 5                               ",
"                              2 7 8 9 0 a                               ",
"                              < b c d e f                               ",
"                              g | h i j k                               ",
"                              l m n o p q                               ",
"                              < | r s t u                               ",
"                  v w x y z A B C 1 D E F G H I J K L                   ",
"                  M N O P Q R S , T U V W X X W Y Z `                   ",
"                     .1 ..+.@.@.+.+.#.$.$ { %.&.*.=.                    ",
"                    -.;.$ >.+.,.#.+.#.$.#.{ '.).2 !.                    ",
"                      ~.{.+.+.+.+.+.#.].^./.(._.:.                      ",
"                      <.[.+.}.#.+.>.#.b |.1.s 2.                        ",
"                        3.4.+.,.5.>.#.6.*.> 7.8.                        ",
"                          +.6.$ #.#.}.#.*.5.#.                          ",
"                          9.0.a.b.c.d.e.].f.g.                          ",
"                            h.).i./.j.k.l.m.                            ",
"                            7.n.o.,.&.p.q.r.                            ",
"                              ~.-.5...s.t.                              ",
"                              7.u.5.v.w.                                ",
"                                x.y.z.A.                                ",
"                                B.C.D.                                  ",
"                                  E.F.                                  ",
"                                                                        ",
"                                                                        ",
"                                                                        "};
