/* XPM */
static char * icon_glasses_32_21_xpm[] = {
"32 21 2 1",
" 	c None",
".	c #000000",
"                                ",
"                                ",
"                                ",
"                   ......       ",
"                ...........     ",
"                ....   ......   ",
" .              ...     ....... ",
" ..                       ..... ",
" ...                   ........ ",
" .....       .....   .....   .. ",
"  ......................     .. ",
"   ....................      .. ",
"     .....        .. ..      .. ",
"       ...        .. ..     ..  ",
"        ..       ..   ..   ...  ",
"        ..       ..   ......    ",
"        ..      ..      ..      ",
"         ........               ",
"         .......                ",
"                                ",
"                                "};
