/* XPM */
static char * geda_find_and_replace_24x24_xpm[] = {
"24 24 320 2",
"  	c None",
". 	c #A3A3A3",
"+ 	c #B5B5B5",
"@ 	c #B9B9B9",
"# 	c #BABABA",
"$ 	c #B8B8B8",
"% 	c #B1B1B1",
"& 	c #ABABAB",
"* 	c #A8A8A8",
"= 	c #AAAAAA",
"- 	c #A6A6A6",
"; 	c #A0A0A0",
"> 	c #9D9D9D",
", 	c #999999",
"' 	c #969696",
") 	c #949494",
"! 	c #929292",
"~ 	c #848484",
"{ 	c #C7C7C7",
"] 	c #ECECEC",
"^ 	c #EBEBEB",
"/ 	c #E6E6E6",
"( 	c #D0CFCE",
"_ 	c #CCCBC9",
": 	c #D7D7D8",
"< 	c #D7D7D7",
"[ 	c #CCCAC8",
"} 	c #DEDDDD",
"| 	c #EDEEEE",
"1 	c #F0F0F0",
"2 	c #EFEFEF",
"3 	c #F1F1F1",
"4 	c #F5F5F5",
"5 	c #E3E3E3",
"6 	c #E4E4E4",
"7 	c #CBCBCB",
"8 	c #B5B4B3",
"9 	c #C8CDD4",
"0 	c #9DB4CF",
"a 	c #8AA4C4",
"b 	c #8CA5C5",
"c 	c #A2BAD5",
"d 	c #CED0D1",
"e 	c #C3C2C0",
"f 	c #E1E1E1",
"g 	c #E0E0E0",
"h 	c #E2E2E2",
"i 	c #DADADA",
"j 	c #C6C6C6",
"k 	c #DAD9DA",
"l 	c #B0AFAF",
"m 	c #D7DCE2",
"n 	c #7495C0",
"o 	c #9FB6D3",
"p 	c #C0D0E3",
"q 	c #B3C6DD",
"r 	c #799AC0",
"s 	c #7394BE",
"t 	c #C7CCD1",
"u 	c #B8B8B7",
"v 	c #D4D4D4",
"w 	c #D2D2D2",
"x 	c #DFDFDF",
"y 	c #C4C4C4",
"z 	c #C6C6C7",
"A 	c #F3EEE7",
"B 	c #6B8DB8",
"C 	c #B8CBE0",
"D 	c #ECF0F5",
"E 	c #E4EAF1",
"F 	c #D9E2ED",
"G 	c #D6E0EB",
"H 	c #89A8CB",
"I 	c #829FC3",
"J 	c #C7C6C5",
"K 	c #BBBBBC",
"L 	c #CFCFCF",
"M 	c #CECECE",
"N 	c #E7E7E7",
"O 	c #DBDBDB",
"P 	c #C7C4BF",
"Q 	c #9EAFC6",
"R 	c #6189B8",
"S 	c #E6EDF3",
"T 	c #DAE3ED",
"U 	c #D4DFEA",
"V 	c #CEDAE7",
"W 	c #C5D3E2",
"X 	c #82A1C5",
"Y 	c #678EBB",
"Z 	c #B7B9BD",
"` 	c #C3C3C3",
" .	c #C5C5C5",
"..	c #DEDEDE",
"+.	c #E8E8E8",
"@.	c #DCDCDC",
"#.	c #C6C1BB",
"$.	c #6F8EB4",
"%.	c #89A5C9",
"&.	c #E3EAF0",
"*.	c #D4DEEA",
"=.	c #CEDBE9",
"-.	c #CAD8E7",
";.	c #9FBAD7",
">.	c #95B3D4",
",.	c #799CC7",
"'.	c #9DA5B1",
").	c #B4B2B1",
"!.	c #E4E5E5",
"~.	c #E6E6E5",
"{.	c #E9E9E9",
"].	c #DDDDDD",
"^.	c #C2C2C2",
"/.	c #C4C0BB",
"(.	c #90A5C0",
"_.	c #6C90BB",
":.	c #E0E6ED",
"<.	c #C9D5E3",
"[.	c #BACBDB",
"}.	c #9DB6D2",
"|.	c #8CAACB",
"1.	c #698FBD",
"2.	c #A5A9AF",
"3.	c #9B9B9A",
"4.	c #CDCDCD",
"5.	c #CACACA",
"6.	c #EFEFF0",
"7.	c #D7D8D7",
"8.	c #BEBEBE",
"9.	c #C5C5C6",
"0.	c #F8F1E8",
"a.	c #527AAE",
"b.	c #BACADA",
"c.	c #ACC1D6",
"d.	c #97B1CE",
"e.	c #8EADCE",
"f.	c #92B0D0",
"g.	c #8CABCD",
"h.	c #7797BF",
"i.	c #AEADAB",
"j.	c #AEAFAF",
"k.	c #D8D8D8",
"l.	c #EDEEEF",
"m.	c #CBCBC1",
"n.	c #A08466",
"o.	c #8F5532",
"p.	c #BFBFBF",
"q.	c #C5C4C3",
"r.	c #D8E0EB",
"s.	c #698EBA",
"t.	c #9FB6CF",
"u.	c #95AFCB",
"v.	c #90ADCC",
"w.	c #82A3C8",
"x.	c #5A83B5",
"y.	c #C1C9D1",
"z.	c #878686",
"A.	c #CFCECE",
"B.	c #CCCCCC",
"C.	c #D0D0D1",
"D.	c #BBB6AB",
"E.	c #A17350",
"F.	c #F17570",
"G.	c #F5403E",
"H.	c #7D380E",
"I.	c #9E9E9E",
"J.	c #A5A5A5",
"K.	c #8A8A8A",
"L.	c #C3CDD7",
"M.	c #8BA9CF",
"N.	c #7B9FC9",
"O.	c #7B9ECB",
"P.	c #9AB7D8",
"Q.	c #BEC3C8",
"R.	c #90908E",
"S.	c #D9D9D9",
"T.	c #E3E4E9",
"U.	c #A89F8D",
"V.	c #9A8564",
"W.	c #BEBCBE",
"X.	c #E05C5E",
"Y.	c #C90E0B",
"Z.	c #72330A",
"`.	c #818181",
" +	c #9A9A9A",
".+	c #A4A4A4",
"++	c #9D9C9C",
"@+	c #848687",
"#+	c #A0A4A8",
"$+	c #93969A",
"%+	c #5A5A5A",
"&+	c #9C9B9B",
"*+	c #EFF1F4",
"=+	c #706143",
"-+	c #C09D5B",
";+	c #D7AF68",
">+	c #BCA97D",
",+	c #B0858E",
"'+	c #742F07",
")+	c #888888",
"!+	c #8F8F8F",
"~+	c #FDFDFD",
"{+	c #838382",
"]+	c #8D8D8D",
"^+	c #E5E5E5",
"/+	c #EBEAEA",
"(+	c #A19275",
"_+	c #C8A35F",
":+	c #DBB265",
"<+	c #C88D20",
"[+	c #B28740",
"}+	c #7C6F55",
"|+	c #BDBDBD",
"1+	c #959595",
"2+	c #909090",
"3+	c #A1A1A1",
"4+	c #EAEAEA",
"5+	c #E8E9EA",
"6+	c #DDDCDB",
"7+	c #9C8964",
"8+	c #B99550",
"9+	c #D6A852",
"0+	c #C98F23",
"a+	c #95660C",
"b+	c #8C764D",
"c+	c #CCC9C5",
"d+	c #C9C9C9",
"e+	c #9C9C9C",
"f+	c #C8C8C8",
"g+	c #ACACAC",
"h+	c #B2B2B2",
"i+	c #AFACA8",
"j+	c #877041",
"k+	c #C7A25D",
"l+	c #D8A84D",
"m+	c #C88F23",
"n+	c #895C09",
"o+	c #928262",
"p+	c #F2F1EE",
"q+	c #DEDFDF",
"r+	c #838383",
"s+	c #C1C1C1",
"t+	c #CDCECF",
"u+	c #BDB9B3",
"v+	c #927745",
"w+	c #CFA962",
"x+	c #D7A648",
"y+	c #C08619",
"z+	c #724A04",
"A+	c #A39780",
"B+	c #F1F3F5",
"C+	c #F5F5F6",
"D+	c #C9CBCC",
"E+	c #A29A8B",
"F+	c #917132",
"G+	c #D3AB60",
"H+	c #D6A03C",
"I+	c #B1780F",
"J+	c #795719",
"K+	c #A9A394",
"L+	c #D8DADC",
"M+	c #D8D8D9",
"N+	c #BCB8B1",
"O+	c #AC9B6D",
"P+	c #DEC98E",
"Q+	c #D1992F",
"R+	c #A6710F",
"S+	c #765B26",
"T+	c #C6C3BC",
"U+	c #DEDEDF",
"V+	c #EDEDED",
"W+	c #F6F6F6",
"X+	c #DCDDDD",
"Y+	c #A8997A",
"Z+	c #D6C68F",
"`+	c #DECD94",
" @	c #AB8331",
".@	c #6F5729",
"+@	c #D2CFCC",
"@@	c #FDFEFF",
"#@	c #FAFAFA",
"$@	c #F8F8F8",
"%@	c #F4F4F4",
"&@	c #ECEEF0",
"*@	c #C8C3B8",
"=@	c #766137",
"-@	c #BA9F5D",
";@	c #977D44",
">@	c #98886B",
",@	c #DEDDDB",
"'@	c #EBECEF",
")@	c #F2F2F2",
"!@	c #E8E9E9",
"~@	c #E5E4E2",
"{@	c #7C6844",
"]@	c #5E4F33",
"^@	c #968A78",
"/@	c #CBCAC8",
"(@	c #D2D3D5",
"_@	c #CBCCCC",
":@	c #EEEEEE",
"<@	c #F0F0F1",
"[@	c #E0DDD8",
"}@	c #C7BFB2",
"|@	c #F0EFEC",
"1@	c #F6F7F7",
"2@	c #E9E8E8",
"3@	c #6B6B6B",
"4@	c #6C6C6C",
"5@	c #676767",
"6@	c #646464",
"7@	c #646568",
"8@	c #5E5E5F",
"9@	c #595959",
"0@	c #5B5B5B",
"a@	c #5D5D5D",
"b@	c #606060",
"c@	c #696969",
"d@	c #6F6F6F",
"e@	c #616161",
"      . + @ # $ % & * & = - . ; > , ' ) ! ~     ",
"      { ] ^ / ( _ : < [ } | 1 2 1 3 3 1 4 5     ",
"      { 6 7 8 9 0 a b c d e f f f g g h 6 i     ",
"      j k l m n o p q r s t u v w w w x / i     ",
"      y z A B C D E F G H I J K L M L x N O     ",
"      y P Q R S T U V W X Y Z ; j `  ...+.@.    ",
"      y #.$.%.&.*.=.-.;.>.,.'.).!.h 5 ~.{.].    ",
"      ^./.(._.:.<.[.}.|.|.1.2.3.4.5.7 f 6.7.    ",
"      8.9.0.a.b.c.d.e.f.g.h.i.j.].k.i l.m.n.o.  ",
"      p.y q.r.s.t.u.v.w.x.y.z.A.B.B.C.D.E.F.G.H.",
"      I.J.K.6 L.M.N.O.P.Q.R.{ S.k.T.U.V.W.X.Y.Z.",
"      . `. +.+++@+#+$+%+&+< N / *+=+-+;+>+,+'+  ",
"    > )+!+; $ ~+{ {+]+x < ^+1 /+(+_+:+<+[+}+    ",
"  |+1+2+3+ ./ k.g +.4+g 6 5+6+7+8+9+0+a+b+c+    ",
"  d+^.e+p.f+B.5.# g+h++ |+i+j+k+l+m+n+o+p+q+    ",
"    r+- S.w L 4.j s+j t+u+v+w+x+y+z+A+B+C+..    ",
"      g+h x g f w s+D+E+F+G+H+I+J+K+L+] 4 ..    ",
"      g+N / {.4+g M+N+O+P+Q+R+S+T+U+].V+W+..    ",
"      = N / {.4+h X+Y+Z+`+ @.@+@@@#@$@%@W+..    ",
"      * N / {.{.&@*@=@-@;@>@,@'@V+3 )@3 W+..    ",
"      * ^+5 N !@~@{@]@^@/@(@_@M v O f +.)@x     ",
"      e+4+V+:@<@[@}@|@1@^ 2@{.{.] V+2 1 3 <     ",
"        3@4@3@5@6@7@8@%+9@9@0@a@b@6@c@3@d@e@    ",
"                                                "};
