/* XPM */
static char * geda_redcross_28x28_xpm[] = {
"28 28 483 2",
"  	c None",
". 	c #C64950",
"+ 	c #C3484E",
"@ 	c #C3464B",
"# 	c #CB464F",
"$ 	c #DC4857",
"% 	c #CD5058",
"& 	c #CA5A5E",
"* 	c #C95769",
"= 	c #C53C3C",
"- 	c #C8292F",
"; 	c #CE343B",
"> 	c #CA383F",
", 	c #D43A40",
"' 	c #DF4048",
") 	c #D94449",
"! 	c #D54B51",
"~ 	c #D45058",
"{ 	c #D6565E",
"] 	c #D55A5F",
"^ 	c #C56165",
"/ 	c #D84B53",
"( 	c #D32F35",
"_ 	c #D91F25",
": 	c #DC202A",
"< 	c #DC242C",
"[ 	c #DA2A2F",
"} 	c #D83D41",
"| 	c #D6484E",
"1 	c #D94D54",
"2 	c #DE5054",
"3 	c #E05456",
"4 	c #E0565C",
"5 	c #D35C61",
"6 	c #C85E67",
"7 	c #DE4955",
"8 	c #DB2E37",
"9 	c #DE1D25",
"0 	c #E31F29",
"a 	c #E31F28",
"b 	c #E31A23",
"c 	c #DD393E",
"d 	c #E34E54",
"e 	c #E04F55",
"f 	c #E05155",
"g 	c #E25357",
"h 	c #E45458",
"i 	c #DD595D",
"j 	c #CD5D63",
"k 	c #DC4A53",
"l 	c #D82E37",
"m 	c #DC1C25",
"n 	c #E11E27",
"o 	c #E32028",
"p 	c #E71921",
"q 	c #DE383F",
"r 	c #E64D55",
"s 	c #E04C53",
"t 	c #E24E55",
"u 	c #E25058",
"v 	c #E15158",
"w 	c #D9575C",
"x 	c #CC5D63",
"y 	c #D0444E",
"z 	c #D22C34",
"A 	c #D91C24",
"B 	c #DC1E25",
"C 	c #DE2026",
"D 	c #E41922",
"E 	c #DD3839",
"F 	c #EA4A52",
"G 	c #E14B53",
"H 	c #E04D52",
"I 	c #E24E53",
"J 	c #E25052",
"K 	c #DD535C",
"L 	c #CF5A62",
"M 	c #CF434D",
"N 	c #D12C34",
"O 	c #D81E24",
"P 	c #DC1F26",
"Q 	c #DE1F25",
"R 	c #E31922",
"S 	c #D73837",
"T 	c #E8474E",
"U 	c #DD484F",
"V 	c #E04A4F",
"W 	c #DF4B4F",
"X 	c #DF4D51",
"Y 	c #DD5455",
"Z 	c #CE5758",
"` 	c #D1434D",
" .	c #D12B33",
"..	c #D71D23",
"+.	c #DA1E24",
"@.	c #DC2025",
"#.	c #E21A23",
"$.	c #D73434",
"%.	c #E2444C",
"&.	c #DE454D",
"*.	c #DF464E",
"=.	c #E0494F",
"-.	c #E24B50",
";.	c #D64C53",
">.	c #C63B41",
",.	c #D23C40",
"'.	c #D0414A",
").	c #CC4851",
"!.	c #BC4E52",
"~.	c #D25C59",
"{.	c #B75A5E",
"].	c #CE2C32",
"^.	c #D41D21",
"/.	c #D61E25",
"(.	c #D81F26",
"_.	c #DA1A24",
":.	c #E22F34",
"<.	c #D94446",
"[.	c #DF4147",
"}.	c #E24349",
"|.	c #E6454C",
"1.	c #E9494E",
"2.	c #E1464B",
"3.	c #D12F39",
"4.	c #CB3839",
"5.	c #D23B43",
"6.	c #D7434B",
"7.	c #D9494D",
"8.	c #D95255",
"9.	c #CF535B",
"0.	c #C6555C",
"a.	c #B73E44",
"b.	c #B8302A",
"c.	c #CA2C34",
"d.	c #CF292F",
"e.	c #CF1D23",
"f.	c #D31E24",
"g.	c #D61D24",
"h.	c #DC1A24",
"i.	c #DA2E32",
"j.	c #DB4046",
"k.	c #E03F48",
"l.	c #E14248",
"m.	c #E4434A",
"n.	c #E5464B",
"o.	c #DF444B",
"p.	c #D1353C",
"q.	c #D24040",
"r.	c #D84347",
"s.	c #DD4A4F",
"t.	c #E34D56",
"u.	c #E25259",
"v.	c #CE5558",
"w.	c #9D4A4E",
"x.	c #B7333F",
"y.	c #C5252B",
"z.	c #C02729",
"A.	c #CA252B",
"B.	c #CE2127",
"C.	c #D11F26",
"D.	c #D32227",
"E.	c #D51D25",
"F.	c #D31C24",
"G.	c #D51E27",
"H.	c #CC181F",
"I.	c #D02D30",
"J.	c #DD3C44",
"K.	c #DF3C45",
"L.	c #DF3F44",
"M.	c #E04046",
"N.	c #DF4347",
"O.	c #E04449",
"P.	c #E1484D",
"Q.	c #E5494E",
"R.	c #E64C50",
"S.	c #E74D53",
"T.	c #E64F55",
"U.	c #E55157",
"V.	c #D45357",
"W.	c #B04B52",
"X.	c #C11F2A",
"Y.	c #C61F25",
"Z.	c #C71C23",
"`.	c #C81B21",
" +	c #CD1E25",
".+	c #CF1D24",
"++	c #CE1B22",
"@+	c #CE1E24",
"#+	c #D21E25",
"$+	c #D32329",
"%+	c #D1252C",
"&+	c #D52B32",
"*+	c #D93237",
"=+	c #DC373C",
"-+	c #DD3942",
";+	c #DC3B43",
">+	c #DE3D44",
",+	c #DE3F44",
"'+	c #E04248",
")+	c #E14449",
"!+	c #E2454C",
"~+	c #E6474F",
"{+	c #E5494F",
"]+	c #E64B51",
"^+	c #E54C51",
"/+	c #E44E54",
"(+	c #D75157",
"_+	c #C42A33",
":+	c #CF1D26",
"<+	c #CF2024",
"[+	c #CD1F24",
"}+	c #C81D22",
"|+	c #C41B21",
"1+	c #C81E23",
"2+	c #CB1F24",
"3+	c #D02329",
"4+	c #D2262D",
"5+	c #D1292E",
"6+	c #D32C30",
"7+	c #D72E33",
"8+	c #D93235",
"9+	c #DA3436",
"0+	c #D9353D",
"a+	c #D9393E",
"b+	c #DB3A40",
"c+	c #DD3D40",
"d+	c #DE3E44",
"e+	c #DF4246",
"f+	c #DF4447",
"g+	c #E5444B",
"h+	c #E6464D",
"i+	c #E5484F",
"j+	c #E04C4E",
"k+	c #E24E52",
"l+	c #D65054",
"m+	c #C81E28",
"n+	c #CE1E26",
"o+	c #D12024",
"p+	c #D01F25",
"q+	c #D12025",
"r+	c #C81D21",
"s+	c #C9181E",
"t+	c #D01E23",
"u+	c #CE2026",
"v+	c #D0222A",
"w+	c #D1252B",
"x+	c #D4282D",
"y+	c #D52930",
"z+	c #D52D32",
"A+	c #D52E34",
"B+	c #D9333A",
"C+	c #D8343C",
"D+	c #DB373D",
"E+	c #DA383E",
"F+	c #DD3B43",
"G+	c #DC3D42",
"H+	c #DB3E46",
"I+	c #DF4149",
"J+	c #E2424A",
"K+	c #E4444D",
"L+	c #DF484C",
"M+	c #E14A51",
"N+	c #D64E54",
"O+	c #C71E28",
"P+	c #D12124",
"Q+	c #D01F26",
"R+	c #D01D25",
"S+	c #C91B20",
"T+	c #C5161D",
"U+	c #C81920",
"V+	c #CB1B22",
"W+	c #CF2128",
"X+	c #D0232A",
"Y+	c #D3272D",
"Z+	c #D42930",
"`+	c #D42C31",
" @	c #D52E35",
".@	c #D63137",
"+@	c #D7333A",
"@@	c #D6353B",
"#@	c #D7373F",
"$@	c #DA3A40",
"%@	c #D83C41",
"&@	c #D93D44",
"*@	c #D94047",
"=@	c #DD4249",
"-@	c #DE444A",
";@	c #DE474F",
">@	c #D64C5A",
",@	c #C71E29",
"'@	c #CF2025",
")@	c #D21E26",
"!@	c #C7151D",
"~@	c #C6151D",
"{@	c #C8181E",
"]@	c #CA1A20",
"^@	c #CD1C23",
"/@	c #CD1F26",
"(@	c #CF2229",
"_@	c #D0262C",
":@	c #CE272B",
"<@	c #D02B2E",
"[@	c #D02C30",
"}@	c #D12F35",
"|@	c #CF3237",
"1@	c #D3333C",
"2@	c #D4373E",
"3@	c #D03940",
"4@	c #D53D43",
"5@	c #D64045",
"6@	c #CF4447",
"7@	c #D24349",
"8@	c #D34D4D",
"9@	c #C05153",
"0@	c #C91D2A",
"a@	c #CF1E26",
"b@	c #D01E25",
"c@	c #C81A21",
"d@	c #C2141D",
"e@	c #C2151D",
"f@	c #C3151C",
"g@	c #C5161E",
"h@	c #C71720",
"i@	c #CB1A23",
"j@	c #CE1E25",
"k@	c #D02128",
"l@	c #CB2329",
"m@	c #C8262A",
"n@	c #CC282D",
"o@	c #CD2B31",
"p@	c #CD2E32",
"q@	c #CD3239",
"r@	c #B93840",
"s@	c #C2484B",
"t@	c #C74246",
"u@	c #CF4349",
"v@	c #CD4652",
"w@	c #9E4F57",
"x@	c #C4202A",
"y@	c #CE1C22",
"z@	c #CA191E",
"A@	c #CC1D22",
"B@	c #CC1E23",
"C@	c #C21C21",
"D@	c #BA171C",
"E@	c #BB151A",
"F@	c #BB151B",
"G@	c #BB161B",
"H@	c #C0151C",
"I@	c #C41821",
"J@	c #C91B25",
"K@	c #CB1E26",
"L@	c #C52327",
"M@	c #CA252A",
"N@	c #CC272C",
"O@	c #CC2B2D",
"P@	c #C93038",
"Q@	c #9A3C46",
"R@	c #A93036",
"S@	c #B43439",
"T@	c #C4363C",
"U@	c #C52329",
"V@	c #C6232A",
"W@	c #C70D16",
"X@	c #C40005",
"Y@	c #B90C16",
"Z@	c #B21419",
"`@	c #B3191E",
" #	c #AF1C21",
".#	c #AB1D23",
"+#	c #A42327",
"@#	c #B71E27",
"##	c #CA1920",
"$#	c #C31E23",
"%#	c #C81F26",
"&#	c #CA2328",
"*#	c #CA2529",
"=#	c #C32E37",
"-#	c #B43A46",
";#	c #A29A9E",
">#	c #C44B49",
",#	c #C91F2D",
"'#	c #A26F6C",
")#	c #93966C",
"!#	c #985E5C",
"~#	c #AB2C2F",
"{#	c #9F2627",
"]#	c #A1272A",
"^#	c #A3272B",
"/#	c #9F2A2E",
"(#	c #B21B24",
"_#	c #C6151C",
":#	c #BF191F",
"<#	c #C31C22",
"[#	c #C51F24",
"}#	c #C92226",
"|#	c #C02C31",
"1#	c #B03940",
"2#	c #A0343E",
"3#	c #A4232C",
"4#	c #A3262C",
"5#	c #A1262A",
"6#	c #9C272B",
"7#	c #B01A24",
"8#	c #C21019",
"9#	c #B9161A",
"0#	c #BE171D",
"a#	c #BE1B21",
"b#	c #C41D23",
"c#	c #BE2830",
"d#	c #B03840",
"e#	c #8D9F83",
"f#	c #AF3142",
"g#	c #A13639",
"h#	c #A1262C",
"i#	c #A0272B",
"j#	c #9C262D",
"k#	c #AE1A1F",
"l#	c #BD1219",
"m#	c #B71419",
"n#	c #BB141B",
"o#	c #BC161D",
"p#	c #C1181E",
"q#	c #BE272E",
"r#	c #B93E44",
"s#	c #9D4C48",
"t#	c #A03437",
"u#	c #A1252A",
"v#	c #A2272C",
"w#	c #A2262C",
"x#	c #9E272D",
"y#	c #AC191F",
"z#	c #BE1118",
"A#	c #B61419",
"B#	c #B9131A",
"C#	c #BB141A",
"D#	c #BC141B",
"E#	c #BA252B",
"F#	c #9B4344",
"G#	c #9E3034",
"H#	c #9F252A",
"I#	c #9F272B",
"J#	c #A0262B",
"K#	c #9C282A",
"L#	c #A91920",
"M#	c #BC1118",
"N#	c #B5141A",
"O#	c #B7141A",
"P#	c #B9141A",
"Q#	c #BC1219",
"R#	c #BD1E27",
"S#	c #BB3943",
"T#	c #75AF88",
"U#	c #A1263F",
"V#	c #9C292D",
"W#	c #9D2429",
"X#	c #992529",
"Y#	c #962628",
"Z#	c #A4191F",
"`#	c #BA0F16",
" $	c #B51318",
".$	c #B71118",
"+$	c #B91019",
"@$	c #AD0E13",
"#$	c #B12930",
"$$	c #BC424B",
"%$	c #93595B",
"&$	c #8A3538",
"*$	c #963034",
"=$	c #962D30",
"-$	c #92292A",
";$	c #9F1920",
">$	c #AB161A",
",$	c #A71E1F",
"'$	c #A62427",
")$	c #9A282C",
"!$	c #924847",
"~$	c #A85C5B",
"{$	c #923E3F",
"]$	c #892E30",
"^$	c #911C24",
"/$	c #953934",
"($	c #9C3237",
"                                                        ",
"                    . + @ # $ % & *                     ",
"                = - ; > , ' ) ! ~ { ] ^                 ",
"              / ( _ : < [ } | 1 2 3 4 5 6               ",
"              7 8 9 0 a b c d e f g h i j               ",
"              k l m n o p q r s t u v w x               ",
"              y z A B C D E F G H I J K L               ",
"              M N O P Q R S T U V W X Y Z               ",
"              `  ...+.@.#.$.%.&.*.=.-.;.>.,.'.).!.~.{.  ",
"                ].^./.(._.:.<.[.}.|.1.2.3.4.5.6.7.8.9.0.",
"          a.b.c.d.e.f.g.h.i.j.k.l.m.n.o.p.q.r.s.H t.u.v.",
"  w.x.y.z.A.B.C.D.E.F.G.H.I.J.K.L.M.N.O.O.P.Q.R.S.T.U.V.",
"W.X.Y.Z.`. +.+++@+#+$+%+&+*+=+-+;+>+,+'+)+!+~+{+]+^+/+(+",
"_+:+<+[+}+|+1+2+3+4+5+6+7+8+9+0+a+b+c+d+e+f+g+h+i+j+k+l+",
"m+n+o+p+q+r+s+t+u+v+w+x+y+z+A+B+C+D+E+F+G+H+I+J+K+L+M+N+",
"O+n+P+Q+R+S+T+U+V+ +W+X+Y+Z+`+ @.@+@@@#@$@%@&@*@=@-@;@>@",
",@n+o+'@)@S+!@~@{@]@^@/@(@_@:@<@[@}@|@1@2@3@4@5@6@7@8@9@",
"0@a@q+p+b@c@d@e@f@g@h@i@j@k@l@m@n@o@p@q@r@s@t@u@v@w@    ",
"x@y@z@A@B@C@D@E@F@G@H@!@I@J@K@L@M@N@O@P@Q@              ",
"R@S@T@U@V@W@X@Y@Z@`@ #.#+#@###$#%#&#*#=#-#              ",
"    ;#>#,#'#)#!#~#{#]#^#/#(#_#:#<#[#}#|#1#              ",
"                2#3#4#5#6#7#8#9#0#a#b#c#d#              ",
"            e#f#g#h#i#4#j#k#l#m#n#o#p#q#r#              ",
"              s#t#u#v#w#x#y#z#A#B#C#D#E#r#              ",
"              F#G#H#I#J#K#L#M#N#O#P#Q#R#S#              ",
"            T#U#V#W#X#X#Y#Z#`# $.$+$@$#$$$              ",
"                %$&$*$=$-$;$>$,$'$)$!$~$                ",
"                      {$]$^$/$($                        "};
