/* XPM */
static char * geda_demote_26x26_xpm[] = {
"26 26 118 2",
"  	c None",
". 	c #00032A",
"+ 	c #000540",
"@ 	c #000743",
"# 	c #000B26",
"$ 	c #00051F",
"% 	c #000622",
"& 	c #000931",
"* 	c #000A36",
"= 	c #000925",
"- 	c #000A27",
"; 	c #000A22",
"> 	c #000E2F",
", 	c #000E36",
"' 	c #000A31",
") 	c #000822",
"! 	c #00082A",
"~ 	c #000F34",
"{ 	c #001334",
"] 	c #000C34",
"^ 	c #00051D",
"/ 	c #00042C",
"( 	c #000C33",
"_ 	c #00112F",
": 	c #00092D",
"< 	c #00041E",
"[ 	c #00052C",
"} 	c #00092E",
"| 	c #00061F",
"1 	c #00062D",
"2 	c #000D35",
"3 	c #00132F",
"4 	c #000B2B",
"5 	c #000921",
"6 	c #00082F",
"7 	c #000F38",
"8 	c #001630",
"9 	c #000E2E",
"0 	c #000214",
"a 	c #000A35",
"b 	c #001030",
"c 	c #000630",
"d 	c #000314",
"e 	c #000933",
"f 	c #000B2A",
"g 	c #000521",
"h 	c #001A37",
"i 	c #002B58",
"j 	c #003A79",
"k 	c #004A7F",
"l 	c #002748",
"m 	c #000B32",
"n 	c #000C36",
"o 	c #00112B",
"p 	c #000C2C",
"q 	c #00359C",
"r 	c #001F53",
"s 	c #012469",
"t 	c #050B42",
"u 	c #000C20",
"v 	c #00061A",
"w 	c #000B20",
"x 	c #001136",
"y 	c #00102E",
"z 	c #000733",
"A 	c #000722",
"B 	c #000726",
"C 	c #000728",
"D 	c #000119",
"E 	c #050011",
"F 	c #000D33",
"G 	c #000E38",
"H 	c #000F37",
"I 	c #000E33",
"J 	c #000C31",
"K 	c #000B33",
"L 	c #001337",
"M 	c #001437",
"N 	c #000C2F",
"O 	c #000317",
"P 	c #000924",
"Q 	c #000A28",
"R 	c #000D2F",
"S 	c #000D32",
"T 	c #000E32",
"U 	c #000B30",
"V 	c #000A32",
"W 	c #000F32",
"X 	c #000E2A",
"Y 	c #000C28",
"Z 	c #000C2E",
"` 	c #000C32",
" .	c #000C27",
"..	c #000A1D",
"+.	c #000D31",
"@.	c #000D34",
"#.	c #000B31",
"$.	c #000C2B",
"%.	c #000621",
"&.	c #000A2B",
"*.	c #001038",
"=.	c #001034",
"-.	c #000D30",
";.	c #000C38",
">.	c #000623",
",.	c #00021A",
"'.	c #001033",
").	c #000A2F",
"!.	c #00041F",
"~.	c #00081D",
"{.	c #000E35",
"].	c #00061E",
"^.	c #000427",
"/.	c #00071B",
"(.	c #00050A",
"_.	c #000A30",
":.	c #00010C",
"<.	c #010320",
"                                                    ",
"                      . + @ #                       ",
"                    $ % & * =                       ",
"                    - ; > , '                       ",
"                    ) ! ~ { ]                       ",
"                    ^ / ( _ :                       ",
"                    < [ ( _ }                       ",
"                    < [ ( _ :                       ",
"                    | 1 2 3 4                       ",
"                    5 6 7 8 9                       ",
"                    0 . a b c                       ",
"                    d . e f g                       ",
"            h i j k l m n o p q r s t               ",
"            u v 5 w w ( x y z A B C D E             ",
"              - F G H I J K & L M N O               ",
"              P Q R S T I U V W X =                 ",
"                Y Z S S I J ` F  ...                ",
"                  N +.@.T +.] #.$.                  ",
"                  %.&.*.=.-.;.>.,.                  ",
"                    = -.'.S ).!.                    ",
"                    ~.5 ` {.].^.                    ",
"                      /.m G (.                      ",
"                        % _.                        ",
"                        :.<.                        ",
"                                                    ",
"                                                    "};
