/* XPM */
static char * geda_value_22x22_xpm[] = {
"22 22 200 2",
"  	c None",
". 	c #80A322",
"+ 	c #7A9F22",
"@ 	c #3F7022",
"# 	c #598A24",
"$ 	c #CDD620",
"% 	c #C3D222",
"& 	c #4A8529",
"* 	c #367627",
"= 	c #286E29",
"- 	c #5A952A",
"; 	c #90B727",
"> 	c #C0D123",
", 	c #CDD820",
"' 	c #C5D322",
") 	c #A7C424",
"! 	c #80AD29",
"~ 	c #488E2D",
"{ 	c #1F732F",
"] 	c #02572C",
"^ 	c #196B2E",
"/ 	c #58962C",
"( 	c #A6C325",
"_ 	c #C6D421",
": 	c #B5C520",
"< 	c #BBCD22",
"[ 	c #BACE23",
"} 	c #A4BD23",
"| 	c #ADC523",
"1 	c #9FBE26",
"2 	c #5E9C2D",
"3 	c #26762F",
"4 	c #035932",
"5 	c #55922C",
"6 	c #C0D222",
"7 	c #CAD520",
"8 	c #A6B71E",
"9 	c #9EBC24",
"0 	c #AAC222",
"a 	c #1E5226",
"b 	c #8FAD22",
"c 	c #99B924",
"d 	c #ADC824",
"e 	c #7CA626",
"f 	c #48802E",
"g 	c #B0C823",
"h 	c #DAE01F",
"i 	c #A2BE23",
"j 	c #386322",
"k 	c #9DBC24",
"l 	c #A7BF23",
"m 	c #659425",
"n 	c #91B626",
"o 	c #77A426",
"p 	c #88AC27",
"q 	c #C8D621",
"r 	c #C6D520",
"s 	c #ADC723",
"t 	c #7AA827",
"u 	c #48731F",
"v 	c #90B525",
"w 	c #A0BC24",
"x 	c #76A427",
"y 	c #6F9F27",
"z 	c #97BA24",
"A 	c #C1D121",
"B 	c #BCCF21",
"C 	c #B6CC22",
"D 	c #ABC524",
"E 	c #A2BC23",
"F 	c #A0BF24",
"G 	c #95B625",
"H 	c #6DA027",
"I 	c #599127",
"J 	c #8AA323",
"K 	c #B4CC23",
"L 	c #A8C324",
"M 	c #AFC824",
"N 	c #A2C025",
"O 	c #97BA25",
"P 	c #8DAD23",
"Q 	c #93B423",
"R 	c #ADC924",
"S 	c #A0BF25",
"T 	c #99BC25",
"U 	c #94B925",
"V 	c #AFC724",
"W 	c #81AC27",
"X 	c #3A7B29",
"Y 	c #82AA25",
"Z 	c #9DBF25",
"` 	c #98BB25",
" .	c #91B825",
"..	c #8CB426",
"+.	c #87B226",
"@.	c #84AF27",
"#.	c #8EB627",
"$.	c #75A729",
"%.	c #347B2B",
"&.	c #7BA526",
"*.	c #8DB427",
"=.	c #8AB427",
"-.	c #82AE26",
";.	c #7EAD29",
">.	c #77AA29",
",.	c #70A52B",
"'.	c #57982D",
").	c #1E6D2D",
"!.	c #538426",
"~.	c #73A327",
"{.	c #7BAA28",
"].	c #76A929",
"^.	c #70A52A",
"/.	c #6AA12A",
"(.	c #659F2B",
"_.	c #6FA42A",
":.	c #3E882E",
"<.	c #066232",
"[.	c #669D2A",
"}.	c #68A12B",
"|.	c #629D2A",
"1.	c #5C9A2B",
"2.	c #55962B",
"3.	c #51932D",
"4.	c #31772F",
"5.	c #167333",
"6.	c #126A2F",
"7.	c #5E9A2B",
"8.	c #619C2A",
"9.	c #3E7F2A",
"0.	c #5A992C",
"a.	c #54962C",
"b.	c #4E922D",
"c.	c #478F2D",
"d.	c #31812F",
"e.	c #53962E",
"f.	c #41892E",
"g.	c #24752E",
"h.	c #57962B",
"i.	c #42852A",
"j.	c #4B902D",
"k.	c #478E2D",
"l.	c #3F892E",
"m.	c #30802E",
"n.	c #6FA329",
"o.	c #40852C",
"p.	c #50922C",
"q.	c #54922B",
"r.	c #1B5D23",
"s.	c #3F882D",
"t.	c #408B2F",
"u.	c #37852F",
"v.	c #25762E",
"w.	c #5E9A2A",
"x.	c #6BA22A",
"y.	c #609A2B",
"z.	c #518C29",
"A.	c #5D8F25",
"B.	c #468A2D",
"C.	c #498D2C",
"D.	c #1B5124",
"E.	c #579028",
"F.	c #408B2E",
"G.	c #368530",
"H.	c #2C7E2F",
"I.	c #1B6B2C",
"J.	c #5C9B2B",
"K.	c #649F2A",
"L.	c #6AA22A",
"M.	c #76A729",
"N.	c #8CB226",
"O.	c #C6CF1E",
"P.	c #649E2B",
"Q.	c #51942C",
"R.	c #9DB923",
"S.	c #669E2A",
"T.	c #378730",
"U.	c #297C30",
"V.	c #1D6E2D",
"W.	c #3F862D",
"X.	c #50912B",
"Y.	c #5A992B",
"Z.	c #5C9B2C",
"`.	c #6DA32A",
" +	c #8DB528",
".+	c #58982C",
"++	c #70A62B",
"@+	c #3A882F",
"#+	c #247830",
"$+	c #1A672B",
"%+	c #2C6623",
"&+	c #2D762A",
"*+	c #367F2C",
"=+	c #367829",
"-+	c #3A872F",
";+	c #36842E",
">+	c #17682C",
",+	c #155E28",
"'+	c #1F6C2D",
")+	c #206D2D",
"                    . +                     ",
"                @ # $ % & *                 ",
"            = - ; > , ' ) ! ~ { ]           ",
"          ^ / ( _ : < [ } | 1 2 3           ",
"        4 5 6 7 8   9 0 a b c d e           ",
"        f g h i j   k l     m n o           ",
"        p q r s t u v w       x y           ",
"        z A B C D E F G       H I           ",
"        J C K s L M N O P                   ",
"          Q R L S T U U V W X               ",
"            Y Z `  ...+.@.#.$.%.            ",
"              &.*.=.-.;.>.,.$.'.).          ",
"                !.~.{.].^./.(._.:.<.        ",
"                    [._.}.|.1.2.3.4.        ",
"        5.6.        7.8.9.0.a.b.c.d.        ",
"        e.f.g.      h.-   i.j.k.l.m.        ",
"        n./.o.      p.q.  r.s.t.u.v.        ",
"        w.x.y.z.A.  B.C.D.E.F.G.H.I.        ",
"        J.K.L.M.N.O.P.Q.R.S.T.U.V.          ",
"        W.X.Y.Z.`. +.+k.++@+#+$+            ",
"            %+&+*+=+-+;+>+,+                ",
"                    '+)+                    "};
