/* XPM */
static char * geda_demote_22x22_xpm[] = {
"22 22 96 2",
"  	c None",
". 	c #000322",
"+ 	c #000537",
"@ 	c #00073B",
"# 	c #000921",
"$ 	c #00061F",
"% 	c #00092E",
"& 	c #000A34",
"* 	c #000927",
"= 	c #000724",
"- 	c #000D2F",
"; 	c #001034",
"> 	c #000932",
", 	c #00032A",
"' 	c #000B32",
") 	c #001130",
"! 	c #00082E",
"~ 	c #00022A",
"{ 	c #000A31",
"] 	c #000F2D",
"^ 	c #00072C",
"/ 	c #000429",
"( 	c #00102D",
"_ 	c #00072B",
": 	c #00062C",
"< 	c #000D36",
"[ 	c #00142E",
"} 	c #000B2B",
"| 	c #000328",
"1 	c #000A35",
"2 	c #001230",
"3 	c #000630",
"4 	c #000126",
"5 	c #000731",
"6 	c #000B2A",
"7 	c #000321",
"8 	c #002245",
"9 	c #00376F",
"0 	c #000A36",
"a 	c #000F29",
"b 	c #000C2C",
"c 	c #00266B",
"d 	c #041861",
"e 	c #000619",
"f 	c #00061C",
"g 	c #00091F",
"h 	c #00091E",
"i 	c #000A2F",
"j 	c #000F34",
"k 	c #000E2E",
"l 	c #00052F",
"m 	c #000721",
"n 	c #000626",
"o 	c #00031F",
"p 	c #00000F",
"q 	c #000B2E",
"r 	c #000C35",
"s 	c #000D38",
"t 	c #000E33",
"u 	c #000C30",
"v 	c #000931",
"w 	c #001438",
"x 	c #001031",
"y 	c #000625",
"z 	c #000720",
"A 	c #000B29",
"B 	c #000B2F",
"C 	c #000D33",
"D 	c #000A32",
"E 	c #000D2D",
"F 	c #000A23",
"G 	c #000621",
"H 	c #000A2C",
"I 	c #000C32",
"J 	c #000D31",
"K 	c #000A22",
"L 	c #000726",
"M 	c #00092A",
"N 	c #000D34",
"O 	c #000F32",
"P 	c #000C2F",
"Q 	c #000624",
"R 	c #000620",
"S 	c #000B2C",
"T 	c #000E32",
"U 	c #000C31",
"V 	c #00082B",
"W 	c #000016",
"X 	c #00071D",
"Y 	c #000D35",
"Z 	c #000416",
"` 	c #000715",
" .	c #000829",
"..	c #000C33",
"+.	c #000316",
"@.	c #00072A",
"                                            ",
"                  . + @ #                   ",
"                  $ % & *                   ",
"                  = - ; >                   ",
"                  , ' ) !                   ",
"                  ~ { ] ^                   ",
"                  / ' ( _                   ",
"                  : < [ }                   ",
"                  | 1 2 3                   ",
"                  4 5 6 7                   ",
"          8 9     ' 0 a b   c d             ",
"          e f g h i j k l m n o p           ",
"            q r s t u v { w x y             ",
"            z A B u C B D E F G             ",
"              H B I J u ' q K               ",
"              L M N O P & Q                 ",
"                R S T U V W                 ",
"                  X ' Y Z                   ",
"                  `  ...                    ",
"                    +.@.                    ",
"                                            ",
"                                            "};
