/* XPM */
static char * geda_find_and_replace_48x48_xpm[] = {
"48 48 768 2",
"  	c None",
". 	c #979797",
"+ 	c #A1A1A1",
"@ 	c #A3A3A3",
"# 	c #A5A5A5",
"$ 	c #A7A7A7",
"% 	c #A4A4A4",
"& 	c #A0A0A0",
"* 	c #9E9E9E",
"= 	c #9C9C9C",
"- 	c #9A9A9A",
"; 	c #989898",
"> 	c #969696",
", 	c #949494",
"' 	c #929292",
") 	c #909090",
"! 	c #8E8E8E",
"~ 	c #8C8C8C",
"{ 	c #8A8A8A",
"] 	c #878787",
"^ 	c #848484",
"/ 	c #838383",
"( 	c #808080",
"_ 	c #7E7E7E",
": 	c #7B7B7B",
"< 	c #7A7A7A",
"[ 	c #787878",
"} 	c #767676",
"| 	c #747474",
"1 	c #727272",
"2 	c #707070",
"3 	c #6D6D6D",
"4 	c #616161",
"5 	c #C9C9C9",
"6 	c #F6F6F6",
"7 	c #F4F4F4",
"8 	c #F5F5F5",
"9 	c #F8F8F8",
"0 	c #F3F3F3",
"a 	c #F7F7F7",
"b 	c #F1F1F1",
"c 	c #F2F2F2",
"d 	c #F0F0F0",
"e 	c #EFEFEF",
"f 	c #EEEEEE",
"g 	c #EDEDED",
"h 	c #B5B5B5",
"i 	c #5B5B5B",
"j 	c #959595",
"k 	c #DEDEDE",
"l 	c #EAEAEA",
"m 	c #E0E0E0",
"n 	c #E1E1E1",
"o 	c #E5E5E5",
"p 	c #E4E4E4",
"q 	c #E8E8E8",
"r 	c #B7B7B7",
"s 	c #868686",
"t 	c #8B8B8B",
"u 	c #ACACAC",
"v 	c #ECECEC",
"w 	c #D4D4D4",
"x 	c #5F5F5F",
"y 	c #E6E6E6",
"z 	c #DBDBDB",
"A 	c #DCDCDC",
"B 	c #DADADA",
"C 	c #B9B9B9",
"D 	c #858686",
"E 	c #CBCBCA",
"F 	c #F4F3F2",
"G 	c #FFFFFF",
"H 	c #E3E3E2",
"I 	c #B6B6B6",
"J 	c #A9A9A9",
"K 	c #E2E2E2",
"L 	c #E3E3E3",
"M 	c #D3D3D3",
"N 	c #939393",
"O 	c #DDDDDD",
"P 	c #E7E7E7",
"Q 	c #919191",
"R 	c #FAF9F9",
"S 	c #FCFBFA",
"T 	c #E2E5EA",
"U 	c #B5C3D3",
"V 	c #9EB0C8",
"W 	c #A7B7CC",
"X 	c #C5CFDB",
"Y 	c #ECEEF1",
"Z 	c #DFDFDF",
"` 	c #9F9F9F",
" .	c #BABABA",
"..	c #FFFCF9",
"+.	c #CED3DB",
"@.	c #5079AD",
"#.	c #295B9C",
"$.	c #3E6EA9",
"%.	c #4D7AB1",
"&.	c #4A77AF",
"*.	c #3668A4",
"=.	c #3867A2",
"-.	c #678BB6",
";.	c #F1EFEB",
">.	c #FFFEFD",
",.	c #ACACAD",
"'.	c #EBEBEB",
").	c #CDCDCD",
"!.	c #DAD9D9",
"~.	c #FAFAFA",
"{.	c #93A8C3",
"].	c #134E99",
"^.	c #5A83B6",
"/.	c #ACC3DC",
"(.	c #C9D9E9",
"_.	c #D2DFEB",
":.	c #C6D6E7",
"<.	c #B6CADF",
"[.	c #7EA0C6",
"}.	c #3E6FA8",
"|.	c #2F61A0",
"1.	c #C5CED9",
"2.	c #AAAAAA",
"3.	c #5E5E5E",
"4.	c #D9D9D9",
"5.	c #D5D5D5",
"6.	c #FEFEFD",
"7.	c #7C98BB",
"8.	c #3365A5",
"9.	c #9DB7D5",
"0.	c #E1E9F3",
"a.	c #E8ECF3",
"b.	c #E5ECF3",
"c.	c #DFE7F0",
"d.	c #DAE4ED",
"e.	c #D5E0EC",
"f.	c #CDDAE8",
"g.	c #A8BFD8",
"h.	c #6A91BE",
"i.	c #3365A2",
"j.	c #C6CFD9",
"k.	c #FDFDFC",
"l.	c #C1C1C1",
"m.	c #CECECE",
"n.	c #CFCFCF",
"o.	c #8F8F8F",
"p.	c #E9E9E9",
"q.	c #C3C3C3",
"r.	c #9F9E9E",
"s.	c #FDFDFD",
"t.	c #B7C2D0",
"u.	c #3163A3",
"v.	c #A7BFD9",
"w.	c #E2E9F2",
"x.	c #E6EDF3",
"y.	c #E8EEF4",
"z.	c #E6EBF3",
"A.	c #DFE7EF",
"B.	c #DAE4EE",
"C.	c #D3DFEB",
"D.	c #CEDAE8",
"E.	c #CAD7E6",
"F.	c #ABC1DA",
"G.	c #658CBA",
"H.	c #2F62A0",
"I.	c #F9F5F0",
"J.	c #CCCCCC",
"K.	c #D3D4D4",
"L.	c #F9F5EF",
"M.	c #4671A8",
"N.	c #759AC3",
"O.	c #D9E3EE",
"P.	c #E0E8F1",
"Q.	c #E3EAF2",
"R.	c #E3E9F1",
"S.	c #E2E9F1",
"T.	c #DCE5EF",
"U.	c #D7E1EC",
"V.	c #D1DCEA",
"W.	c #CCD9E7",
"X.	c #C8D6E6",
"Y.	c #AAC0D8",
"Z.	c #8BA9CB",
"`.	c #6D8FB7",
" +	c #FFFFFD",
".+	c #7C7C7C",
"++	c #BBBBBB",
"@+	c #C7C7C7",
"#+	c #C5C5C5",
"$+	c #C4C4C4",
"%+	c #888888",
"&+	c #F3F1EE",
"*+	c #A5B6CB",
"=+	c #2E62A3",
"-+	c #B9CCE0",
";+	c #DBE5EF",
">+	c #DDE6F0",
",+	c #DEE7F0",
"'+	c #DAE4EF",
")+	c #D6E1ED",
"!+	c #D2DEEC",
"~+	c #CCDAE9",
"{+	c #CEDBEA",
"]+	c #98B4D3",
"^+	c #96B3D3",
"/+	c #7498C2",
"(+	c #3B6AA5",
"_+	c #F1F2F4",
":+	c #D2D2D2",
"<+	c #F3F1EF",
"[+	c #6488B5",
"}+	c #537EB2",
"|+	c #CFDCE9",
"1+	c #DAE3ED",
"2+	c #D7E0EA",
"3+	c #D5DFEA",
"4+	c #D2DDEA",
"5+	c #CFDBE8",
"6+	c #CAD8E6",
"7+	c #C8D5E5",
"8+	c #B0C4DA",
"9+	c #87A5C8",
"0+	c #8AA9CA",
"a+	c #96B1CE",
"b+	c #3264A2",
"c+	c #D0D8E3",
"d+	c #ADADAC",
"e+	c #666666",
"f+	c #C6C6C6",
"g+	c #5C5C5C",
"h+	c #898989",
"i+	c #ADADAD",
"j+	c #A2A2A2",
"k+	c #ECECEA",
"l+	c #537CAE",
"m+	c #648AB9",
"n+	c #D7E2EC",
"o+	c #D8E1EC",
"p+	c #D9E3EC",
"q+	c #D8E2EC",
"r+	c #D7E1ED",
"s+	c #D4E0ED",
"t+	c #D0DEEB",
"u+	c #CEDCEB",
"v+	c #CBDAEA",
"w+	c #C7D6E7",
"x+	c #9DB9D8",
"y+	c #97B5D6",
"z+	c #96B4D5",
"A+	c #A0BCDA",
"B+	c #4876AD",
"C+	c #B2C0D3",
"D+	c #CDCCCB",
"E+	c #545454",
"F+	c #A8A8A8",
"G+	c #A6A6A6",
"H+	c #E9E8E7",
"I+	c #4E78AC",
"J+	c #6C90BB",
"K+	c #D8E1EB",
"L+	c #D7E1EB",
"M+	c #D7E0EC",
"N+	c #D5DFEB",
"O+	c #CCD7E4",
"P+	c #CAD6E3",
"Q+	c #C6D4E3",
"R+	c #C3D2E2",
"S+	c #C0D1E1",
"T+	c #9FB8D2",
"U+	c #8AA8C9",
"V+	c #91ADCC",
"W+	c #4D79AE",
"X+	c #A7B9CE",
"Y+	c #D5D4D3",
"Z+	c #464646",
"`+	c #C0C0C0",
" @	c #AEAEAE",
".@	c #EDECE9",
"+@	c #5A80B1",
"@@	c #6187B7",
"#@	c #D2DDE7",
"$@	c #D7E1EA",
"%@	c #D6DFEB",
"&@	c #D3DEEB",
"*@	c #D1DEEB",
"=@	c #CEDAE9",
"-@	c #CBDAE9",
";@	c #C9D8EA",
">@	c #A2BEDB",
",@	c #97B5D7",
"'@	c #A8C3DF",
")@	c #3A6AA6",
"!@	c #BDC8D6",
"~@	c #AEAEAD",
"{@	c #585858",
"]@	c #F3F0ED",
"^@	c #7F9BBE",
"/@	c #4673AC",
"(@	c #CAD6E2",
"_@	c #D1DBE6",
":@	c #D0DBE7",
"<@	c #CDD9E6",
"[@	c #BECCDA",
"}@	c #B8C8D9",
"|@	c #ABC0D4",
"1@	c #89A6C7",
"2@	c #88A7C8",
"3@	c #89A7C8",
"4@	c #8AA7C8",
"5@	c #84A3C6",
"6@	c #2D609F",
"7@	c #DFE2E7",
"8@	c #BFBFBF",
"9@	c #BCBCBC",
"0@	c #F1F1F2",
"a@	c #D1D0CF",
"b@	c #595855",
"c@	c #828282",
"d@	c #818181",
"e@	c #E4E3E3",
"f@	c #265B9E",
"g@	c #AFC1D5",
"h@	c #C2D0DE",
"i@	c #BBCADC",
"j@	c #B5C8DC",
"k@	c #ADC2D9",
"l@	c #A4BDD7",
"m@	c #9BB6D4",
"n@	c #96B4D3",
"o@	c #95B3D4",
"p@	c #9BB7D7",
"q@	c #4F7CB2",
"r@	c #567DAF",
"s@	c #F1EFEE",
"t@	c #676767",
"u@	c #8D8D8D",
"v@	c #EEEFF0",
"w@	c #C2BBAD",
"x@	c #79663E",
"y@	c #584213",
"z@	c #523E04",
"A@	c #D7D7D7",
"B@	c #FEFCFA",
"C@	c #90A7C2",
"D@	c #4C78AE",
"E@	c #BDCDDD",
"F@	c #B8C9DC",
"G@	c #B1C4D9",
"H@	c #9AAFC7",
"I@	c #94AEC7",
"J@	c #90ABC8",
"K@	c #8BA8C8",
"L@	c #89A8C9",
"M@	c #8CA9C9",
"N@	c #7F9FC4",
"O@	c #D6D8DE",
"P@	c #E5E4E3",
"Q@	c #3A3A3A",
"R@	c #C2C2C2",
"S@	c #F2F4F7",
"T@	c #8E7D5B",
"U@	c #624612",
"V@	c #D2907E",
"W@	c #E07F75",
"X@	c #BB5B41",
"Y@	c #553F08",
"Z@	c #D1D1D1",
"`@	c #ECEEF2",
" #	c #4772A9",
".#	c #799AC0",
"+#	c #B6C8DB",
"@#	c #B2C6DB",
"##	c #A3BAD2",
"$#	c #9DB6D2",
"%#	c #97B3D1",
"&#	c #92B0D1",
"*#	c #94B2D2",
"=#	c #85A6CB",
"-#	c #3567A5",
";#	c #9BAEC6",
">#	c #FFFDFB",
",#	c #878788",
"'#	c #DADAD9",
")#	c #E8E7E5",
"!#	c #8C7B58",
"~#	c #6B4A16",
"{#	c #F2A798",
"]#	c #FF8B8E",
"^#	c #FF6262",
"/#	c #FF3F3F",
"(#	c #9A4015",
"_#	c #7D7D7D",
":#	c #D8D8D8",
"<#	c #C8C8C8",
"[#	c #F9F8F8",
"}#	c #DFE4EA",
"|#	c #4773A9",
"1#	c #4876AE",
"2#	c #9AB3D1",
"3#	c #9EB5CE",
"4#	c #9CB6D0",
"5#	c #97B3D0",
"6#	c #94B1D0",
"7#	c #93B0CF",
"8#	c #8EACCE",
"9#	c #6D94C1",
"0#	c #3366A5",
"a#	c #809DBF",
"b#	c #FEFEFE",
"c#	c #4B4B4B",
"d#	c #BEBEBE",
"e#	c #D2D3D4",
"f#	c #DFDCD8",
"g#	c #766140",
"h#	c #845C2D",
"i#	c #F89E97",
"j#	c #FF7B7E",
"k#	c #FE5858",
"l#	c #FF3232",
"m#	c #F5191A",
"n#	c #C62413",
"o#	c #5F400A",
"p#	c #9B9B9B",
"q#	c #F8F8F7",
"r#	c #EEF2F5",
"s#	c #91A8C4",
"t#	c #245A9D",
"u#	c #3D6DA7",
"v#	c #527DB0",
"w#	c #5C85B5",
"x#	c #5681B4",
"y#	c #4B77AE",
"z#	c #2B61A1",
"A#	c #426EA3",
"B#	c #C0CBD9",
"C#	c #4E4E4E",
"D#	c #E3E4E5",
"E#	c #CBC7C0",
"F#	c #553E12",
"G#	c #947750",
"H#	c #C6BDBC",
"I#	c #C6B6B6",
"J#	c #E37878",
"K#	c #FF2424",
"L#	c #EB1818",
"M#	c #CE1011",
"N#	c #AB1E0E",
"O#	c #5F3F0B",
"P#	c #858585",
"Q#	c #6C6C6C",
"R#	c #E8E9EA",
"S#	c #7F9DC1",
"T#	c #5C83B2",
"U#	c #4F79AD",
"V#	c #547CAF",
"W#	c #6489B7",
"X#	c #A2B6CE",
"Y#	c #FFFFFB",
"Z#	c #494949",
"`#	c #E1E1E3",
" $	c #C6C0B6",
".$	c #5D420D",
"+$	c #A8865B",
"@$	c #CACCD3",
"#$	c #BBBCBC",
"$$	c #B8B8B8",
"%$	c #B6ADAD",
"&$	c #DD2A2A",
"*$	c #C60E0E",
"=$	c #AA0D0B",
"-$	c #73300A",
";$	c #777777",
">$	c #EBEBEA",
",$	c #FAF9F6",
"'$	c #555555",
")$	c #D6D6D6",
"!$	c #D0D0D0",
"~$	c #D7D8DA",
"{$	c #9B917E",
"]$	c #583C05",
"^$	c #AC8844",
"/$	c #DDB978",
"($	c #DAB67A",
"_$	c #C5AE97",
":$	c #B5B4B5",
"<$	c #B1B3B3",
"[$	c #B45657",
"}$	c #A40A06",
"|$	c #76390B",
"1$	c #58420B",
"2$	c #AFAFAF",
"3$	c #B4B4B4",
"4$	c #646464",
"5$	c #757575",
"6$	c #565656",
"7$	c #424242",
"8$	c #F3F4F5",
"9$	c #9D8F74",
"0$	c #5B3E04",
"a$	c #C9A45F",
"b$	c #DEB771",
"c$	c #DEBC7C",
"d$	c #D4A348",
"e$	c #C98D29",
"f$	c #B4AA9E",
"g$	c #ADB0B2",
"h$	c #A3645D",
"i$	c #693706",
"j$	c #58420A",
"k$	c #B2B2B2",
"l$	c #9D9D9D",
"m$	c #999999",
"n$	c #CACACA",
"o$	c #A5977D",
"p$	c #614106",
"q$	c #D4AD68",
"r$	c #DCB771",
"s$	c #DBB670",
"t$	c #D09D3E",
"u$	c #C88A18",
"v$	c #CA8D1C",
"w$	c #B39D87",
"x$	c #A19891",
"y$	c #674C1D",
"z$	c #54421B",
"A$	c #797979",
"B$	c #F1F2F2",
"C$	c #EAE9E7",
"D$	c #7B6841",
"E$	c #6F4F12",
"F$	c #D1AC65",
"G$	c #DDB974",
"H$	c #DBB56C",
"I$	c #CE9937",
"J$	c #C88D1E",
"K$	c #CC9122",
"L$	c #AE7A19",
"M$	c #8A6C49",
"N$	c #60420F",
"O$	c #918572",
"P$	c #525255",
"Q$	c #EAE9E6",
"R$	c #6B5529",
"S$	c #927031",
"T$	c #D8B36C",
"U$	c #DDB975",
"V$	c #D9B065",
"W$	c #CB9329",
"X$	c #C98E1F",
"Y$	c #D79723",
"Z$	c #9E7019",
"`$	c #704F0E",
" %	c #513400",
".%	c #D9D4CB",
"+%	c #D1D1D2",
"@%	c #515151",
"#%	c #ABABAB",
"$%	c #E7E7E8",
"%%	c #DBD7D2",
"&%	c #6A5223",
"*%	c #886726",
"=%	c #DDB871",
"-%	c #DBB671",
";%	c #D9AF61",
">%	c #CA9024",
",%	c #CB9021",
"'%	c #C88D20",
")%	c #936818",
"!%	c #6B4B0C",
"~%	c #685021",
"{%	c #E6E3DF",
"]%	c #F4F4F5",
"^%	c #505050",
"/%	c #B3B3B3",
"(%	c #B0B0B0",
"_%	c #B7B7B6",
":%	c #BEBFC1",
"<%	c #9F9889",
"[%	c #5B410F",
"}%	c #9E7B38",
"|%	c #E1BB75",
"1%	c #DDB874",
"2%	c #D6AA58",
"3%	c #C98F22",
"4%	c #CC9121",
"5%	c #C38A1F",
"6%	c #8F6517",
"7%	c #5E3E02",
"8%	c #79653B",
"9%	c #E4E2DE",
"0%	c #F3F3F4",
"a%	c #BDBDBD",
"b%	c #CBCBCB",
"c%	c #DCDCDB",
"d%	c #EAEDF3",
"e%	c #AAA18D",
"f%	c #583D08",
"g%	c #BA9753",
"h%	c #DEB972",
"i%	c #DCB975",
"j%	c #D1A043",
"k%	c #C98F21",
"l%	c #CD9121",
"m%	c #B57F1E",
"n%	c #845D15",
"o%	c #5A3B00",
"p%	c #A29377",
"q%	c #EDECEB",
"r%	c #B3B4B4",
"s%	c #85785F",
"t%	c #533300",
"u%	c #C39F59",
"v%	c #DFBA74",
"w%	c #DBB56F",
"x%	c #D1A044",
"y%	c #C98D1E",
"z%	c #CA8F21",
"A%	c #B7811D",
"B%	c #7C5812",
"C%	c #63440C",
"D%	c #88795D",
"E%	c #ECECED",
"F%	c #F3F2F2",
"G%	c #D6D6D7",
"H%	c #7F6E4E",
"I%	c #6D4F14",
"J%	c #D0AB65",
"K%	c #E0BB75",
"L%	c #DAB56E",
"M%	c #CF9936",
"N%	c #C98D1D",
"O%	c #AC791C",
"P%	c #73500E",
"Q%	c #5C400A",
"R%	c #B9AE9B",
"S%	c #606060",
"T%	c #BEBEBF",
"U%	c #C2C3C4",
"V%	c #6B5427",
"W%	c #7F6023",
"X%	c #D6B16A",
"Y%	c #DEB873",
"Z%	c #DAB368",
"`%	c #CC932B",
" &	c #CD9021",
".&	c #9C6E19",
"+&	c #6F4D0D",
"@&	c #5C4312",
"#&	c #AEAAA0",
"$&	c #CECFD0",
"%&	c #626262",
"&&	c #C8C6C2",
"*&	c #624817",
"=&	c #846528",
"-&	c #E1BC75",
";&	c #DCB772",
">&	c #D8AF62",
",&	c #CA8F23",
"'&	c #CB8F20",
")&	c #C58C20",
"!&	c #956918",
"~&	c #664609",
"{&	c #6C582D",
"]&	c #D2CFCB",
"^&	c #DFE0E1",
"/&	c #D2D2D1",
"(&	c #D2D3D2",
"_&	c #7D6A44",
":&	c #9C8144",
"<&	c #E1BF7A",
"[&	c #DCB66F",
"}&	c #D4A753",
"|&	c #C98E20",
"1&	c #CC9020",
"2&	c #C0891F",
"3&	c #886014",
"4&	c #5C3D02",
"5&	c #756341",
"6&	c #D1D0D0",
"7&	c #DADADB",
"8&	c #5D5D5D",
"9&	c #C0BCB2",
"0&	c #684C13",
"a&	c #DCD1A0",
"b&	c #E4DBAE",
"c&	c #DBBF7B",
"d&	c #B6801D",
"e&	c #7F5B14",
"f&	c #5A3D05",
"g&	c #A4967B",
"h&	c #E4E5E5",
"i&	c #E8EAED",
"j&	c #776135",
"k&	c #AE975C",
"l&	c #E6DBA9",
"m&	c #E2D7A6",
"n&	c #E0D39E",
"o&	c #CE9D3A",
"p&	c #B27D1C",
"q&	c #755210",
"r&	c #5C400C",
"s&	c #95886B",
"t&	c #F0F2F5",
"u&	c #F9F9F9",
"v&	c #5A5A5A",
"w&	c #D3D4D6",
"x&	c #8B7D5F",
"y&	c #694B0F",
"z&	c #DFCC8F",
"A&	c #DECD93",
"B&	c #DECC92",
"C&	c #E6D295",
"D&	c #C09B4B",
"E&	c #6C4A09",
"F&	c #634815",
"G&	c #B7B1A3",
"H&	c #D9DADD",
"I&	c #E3E2DC",
"J&	c #4C330C",
"K&	c #E1BF6D",
"L&	c #DFC682",
"M&	c #DDC683",
"N&	c #E6CB85",
"O&	c #A1823F",
"P&	c #684B0D",
"Q&	c #604512",
"R&	c #DFDCD5",
"S&	c #F7F7F8",
"T&	c #EEEFEF",
"U&	c #938161",
"V&	c #8E7C57",
"W&	c #323438",
"X&	c #BA9B54",
"Y&	c #A98741",
"Z&	c #604208",
"`&	c #665027",
" *	c #97876C",
".*	c #F0F3F5",
"+*	c #E8E8E9",
"@*	c #535353",
"#*	c #D3CFC7",
"$*	c #5D4312",
"%*	c #281D08",
"&*	c #311D00",
"**	c #634916",
"=*	c #807057",
"-*	c #B8B3A7",
";*	c #D7D9DC",
">*	c #CECDCD",
",*	c #786239",
"'*	c #482A00",
")*	c #6E572D",
"!*	c #BAB2A3",
"~*	c #CDCAC5",
"{*	c #F0F1F3",
"]*	c #C1B9AA",
"^*	c #6E5628",
"/*	c #C1B8A8",
"(*	c #F8FBFF",
"_*	c #EBECEB",
":*	c #F2F2F3",
"<*	c #E6E4E0",
"[*	c #F6F7F9",
"}*	c #F8F9FB",
"|*	c #F3F3F2",
"1*	c #4C4C4C",
"2*	c #636363",
"3*	c #656565",
"              . + @ # $ $ $ # % + & * = - ; > , ' ) ! ~ { ] ] ^ / ( _ : < [ } | 1 2 3 4         ",
"            ' 5 6 7 7 8 8 8 8 8 9 6 8 0 8 6 a 0 b c b b b d d d d d e f f f f f g g e h i       ",
"            j k l m m n n o p q r = ! s t j u m g p p p p p p p p p p p p p p p p p v w x       ",
"            j k y z A A m B C D @ E F G G H I ! J w K K K L L L L L L L L L L L L K l M x       ",
"            N O P A O n 5 Q r R S T U V W X Y G Z `  .y L L L L p L L L L p L p L K l M x       ",
"            N O P A K r ! n ..+.@.#.$.%.&.*.=.-.;.>.,.& P o o o p p p p p p p p p L '.M x       ",
"            ' A P k ).t !.~.{.].^./.(._.:.<.[.}.|.1.G 2.I w M M w w w w w w m o p L '.M 3.      ",
"            Q A q 4.' 5.6.7.8.9.0.a.b.c.d.e.f.g.h.i.j.k.; l.m.m.n.n.n.n.n.m.Z o o p '.M 3.      ",
"            o.z p.q.r.s.t.u.v.w.x.y.z.A.B.C.D.E.F.G.H.I.4.` w J.).).).).).).m y o o v M 3.      ",
"            ! z 0 Q K.L.M.N.O.P.Q.R.S.T.U.V.W.X.Y.Z.$.`. +.+++@+#+#+#+#+#+$+O P y o v M 3.      ",
"            ~ A z %+&+*+=+-+;+>+P.c.,+'+)+!+~+{+]+^+/+(+_+j ) K O O O O O O p P y y g :+3.      ",
"            { k h = <+[+}+|+1+;+;+2+3+4+5+6+7+8+9+0+a+b+c+d+e+f+$+$+$+$+$+q.k q P y g :+g+      ",
"            h+k i+j+k+l+m+n+o+p+q+r+s+t+u+v+w+x+y+z+A+B+C+D+E+p.P P P P P P q q q P f M g+      ",
"            %+O F+G+H+I+J+K+L+M+N+O+P+Q+R+S+T+U+U+U+V+W+X+Y+Z+`+l.l.l.l.l.`+k p.q q f M g+      ",
"            ^ O  @+ .@+@@@#@$@%@&@*@=@-@;@>@y+y+y+,@'@)@!@~@{@e g g g g g g l p.p.q f M i       ",
"            ^ A  .> ]@^@/@(@_@:@<@[@}@|@1@2@3@3@3@4@5@6@7@{ x 8@9@9@9@9@9@++Z l l l 0@a@b@      ",
"            c@4.'.d@e@o f@g@h@i@j@k@l@m@n@o@o@o@o@p@q@r@s@t@u@g o o o o o o p.'.'.v@w@x@y@z@    ",
"            ( A@d J h B@C@D@E@F@G@H@I@J@K@L@U+U+M@N@].O@P@Q@q.q.R@R@R@R@R@l.n v S@T@U@V@W@X@Y@  ",
"            _ A@v Z@~ q `@ #.#+#@###$#%#&#&#&#*#=#-#;#>#,#~ K B B B B B B '#p.)#!#~#{#]#^#/#(#  ",
"            _#:#'.% ! <#[#}#|#1#2#3#4#5#6#7#8#9#0#a#b#).c#d#n.n.n.n.n.n.n.e#f#g#h#i#j#k#l#m#n#o#",
"            : m.> p# .++8 q#r#s#t#u#v#w#x#y#z#A#B#G M C#h m Z Z Z Z Z Z D#E#F#G#H#I#J#K#L#M#N#O#",
"            < P#@ h t Q# @:+l G R#S#T#U#V#W#X#Y#k.#+Z#P#K O O O O O O `# $.$+$@$#$$$%$&$*$=$-$  ",
"            %+F+i+c@;$^ 9@p#u@$$>$G G G G G ,$w ;$'$ @)$!$!$!$!$!$Z@~${$]$^$/$($_$:$<$[$}$|$1$  ",
"          { 2$G+_ < %+3$+ ' n.j 4$.+s { c@5$6$7$o.f+y e e e d d d 8$9$0$a$b$c$d$e$f$g$h$i$j$    ",
"        u@k$% < : t h l$o.k p.c w s 2 e+Q#5$m$)$n$q.Z d f d e b v o$p$q$r$s$t$u$v$w$x$y$z$      ",
"    c@! k$; < A$> h N * p v y P '.f f g e c c g f e e e d e B$C$D$E$F$G$H$I$J$K$L$M$N$O$P$      ",
"  c@J <#~ .+< * h ~ J k m n Z m m m n K L p y P p.l g g e d Q$R$S$T$U$V$W$X$Y$Z$`$ %.%+%@%      ",
"  ~ m o #%_#p#k$t G+B :#:#4.)$)$)$M w 5.)$:#:#B A k m L $%%%&%*%=%-%;%>%,%'%)%!%~%{%]%n.^%      ",
"  ' P :#B /%2$u@C f+G+m.!$Z@m.m.n$ @u u  @2$(%k$h I _%:%<%[%}%|%1%2%3%4%5%6%7%8%9%0%7 n.^%      ",
"  P#5.c c i+t a%4.<#b%Z@J.J.<#f+#+f+<#b%m.Z@M )$B c%d%e%f%g%h%i%j%k%l%m%n%o%p%q%0%c 7 !$@%      ",
"    A$2.p#P#Q#R@z Z@!$m.).m.n$n$f+$ # $ F+#%u  @(%r%s%t%u%v%w%x%y%z%A%B%C%D%E%F%0 c 8 !$@%      ",
"            i f+Z )$5.w w )$M M :+).).m.n.Z@M G%w H%I%J%K%L%M%N%4%O%P%Q%R%_+B$7 0 0 8 !$@%      ",
"            S%b%y A A O A k z A 4. .$$C  .++T%U%V%W%X%Y%Z%`%y% &.&+&@&#&$&<#l 7 0 c 6 !$@%      ",
"            %&n.g o o p o q o o p M :+M w )$&&*&=&-&;&>&,&'&)&!&~&{&]&^&A A e 8 7 0 6 !$@%      ",
"            x m.v P P q p.v p.v p.:+Z@:+/&(&_&:&<&[&}&|&1&2&3&4&5&6&7&A@A@)$g 8 7 0 6 !$@%      ",
"            8&m.v P q q p.v p.v p.A A O k 9&0&a&b&c&3%,%d&e&f&g&p h&o o p L b 8 7 7 6 !$@%      ",
"            i ).v P q q p.v p.v p.k Z Z i&j&k&l&m&n&o&p&q&r&s&t&a 9 u&9 9 a 6 7 7 7 6 !$@%      ",
"            v&).v P q q p.v p.v q n.m.w&x&y&z&A&B&C&D&E&F&G&H&)$7 a 9 9 6 6 8 8 7 7 6 !$@%      ",
"            {@J.v P q q p.v p.v '.'.f I&J&K&L&M&N&O&P&Q&R&S&a a 9 9 9 a a 6 6 7 7 0 6 !$@%      ",
"            6$b%g P q q p.'.p.l '.'.T&U&V&W&X&Y&Z&`& *.*+*y P q l g e b 0 0 0 7 7 7 6 !$@%      ",
"            @*b%g y P q p.'.p.'.'.q #*$*%*&***=*-*M ;*n.>*m.!$:+5.4.A Z K y p.v e c 6 !$@%      ",
"            @%b%g o P P p.'.p.'.p.G ,*'*)*!*~*:#G%:+n.m.J.J.n.Z@M A@B O n o P '.d c 8 !$@%      ",
"            ^%b%f P q p.'.g '.'.{*]*^*/*(*_*q y o o o p p L p o P p.l v e d 0 7 7 c 8 Z@@%      ",
"            c#/%7 b b c c c c c :*<*[*}*c 0 |*0 0 0 0 0 0 0 0 0 0 0 7 0 7 0 0 0 0 0 8  .1*      ",
"              @*%&%&%&%&2*2*4$4$3*e+3*3*e+e+e+e+e+t@e+e+e+t@t@e+e+3*3*3*3*4$4$2*%&2*%&@*        ",
"                                                                                                ",
"                                                                                                ",
"                                                                                                "};
