/* XPM */
static char * geda_promote_26x26_xpm[] = {
"26 26 118 2",
"  	c None",
". 	c #010320",
"+ 	c #00010C",
"@ 	c #000A30",
"# 	c #000622",
"$ 	c #00050A",
"% 	c #000E38",
"& 	c #000B32",
"* 	c #00071B",
"= 	c #000427",
"- 	c #00061E",
"; 	c #000E35",
"> 	c #000C32",
", 	c #000921",
"' 	c #00081D",
") 	c #00041F",
"! 	c #000A2F",
"~ 	c #000D32",
"{ 	c #001033",
"] 	c #000D30",
"^ 	c #000925",
"/ 	c #00021A",
"( 	c #000623",
"_ 	c #000C38",
": 	c #001034",
"< 	c #001038",
"[ 	c #000A2B",
"} 	c #000621",
"| 	c #000C2B",
"1 	c #000B31",
"2 	c #000C34",
"3 	c #000D31",
"4 	c #000E32",
"5 	c #000D34",
"6 	c #000C2F",
"7 	c #000A1D",
"8 	c #000C27",
"9 	c #000D33",
"0 	c #000C31",
"a 	c #000E33",
"b 	c #000C2E",
"c 	c #000C28",
"d 	c #000E2A",
"e 	c #000F32",
"f 	c #000A32",
"g 	c #000B30",
"h 	c #000D2F",
"i 	c #000A28",
"j 	c #000924",
"k 	c #000317",
"l 	c #001437",
"m 	c #001337",
"n 	c #000931",
"o 	c #000B33",
"p 	c #000F37",
"q 	c #000A27",
"r 	c #050011",
"s 	c #000119",
"t 	c #000728",
"u 	c #000726",
"v 	c #000722",
"w 	c #000733",
"x 	c #00102E",
"y 	c #001136",
"z 	c #000C33",
"A 	c #000B20",
"B 	c #00061A",
"C 	c #000C20",
"D 	c #050B42",
"E 	c #012469",
"F 	c #001F53",
"G 	c #00359C",
"H 	c #000C2C",
"I 	c #00112B",
"J 	c #000C36",
"K 	c #002748",
"L 	c #004A7F",
"M 	c #003A79",
"N 	c #002B58",
"O 	c #001A37",
"P 	c #000521",
"Q 	c #000B2A",
"R 	c #000933",
"S 	c #00032A",
"T 	c #000314",
"U 	c #000630",
"V 	c #001030",
"W 	c #000A35",
"X 	c #000214",
"Y 	c #000E2E",
"Z 	c #001630",
"` 	c #000F38",
" .	c #00082F",
"..	c #000B2B",
"+.	c #00132F",
"@.	c #000D35",
"#.	c #00062D",
"$.	c #00061F",
"%.	c #00092D",
"&.	c #00112F",
"*.	c #00052C",
"=.	c #00041E",
"-.	c #00092E",
";.	c #00042C",
">.	c #00051D",
",.	c #001334",
"'.	c #000F34",
").	c #00082A",
"!.	c #000822",
"~.	c #000A31",
"{.	c #000E36",
"].	c #000E2F",
"^.	c #000A22",
"/.	c #000A36",
"(.	c #00051F",
"_.	c #000B26",
":.	c #000743",
"<.	c #000540",
"                                                    ",
"                                                    ",
"                        . +                         ",
"                        @ #                         ",
"                      $ % & *                       ",
"                    = - ; > , '                     ",
"                    ) ! ~ { ] ^                     ",
"                  / ( _ ] : < [ }                   ",
"                  | 1 2 3 4 5 3 6                   ",
"                7 8 9 > 0 a ~ ~ b c                 ",
"                ^ d e f g a 4 ~ h i j               ",
"              k 6 l m n o 0 a p % 9 q               ",
"            r s t u v w x y z A A , B C             ",
"              D E F G H I J & K L M N O             ",
"                      P Q R S T                     ",
"                      U V W S X                     ",
"                      Y Z `  .,                     ",
"                      ..+.@.#.$.                    ",
"                      %.&.z *.=.                    ",
"                      -.&.z *.=.                    ",
"                      %.&.z ;.>.                    ",
"                      2 ,.'.).!.                    ",
"                      ~.{.].^.q                     ",
"                      ^ /.n # (.                    ",
"                      _.:.<.S                       ",
"                                                    "};
