/* XPM */
static char * geda_redcross_24x24_xpm[] = {
"24 24 375 2",
"  	c None",
". 	c #BC3638",
"+ 	c #C43C42",
"@ 	c #C44248",
"# 	c #C54348",
"$ 	c #CD444C",
"% 	c #DA4654",
"& 	c #CC5057",
"* 	c #CB575F",
"= 	c #CD5964",
"- 	c #CA6061",
"; 	c #C93D3E",
"> 	c #CA3032",
", 	c #D0282F",
"' 	c #CF2E36",
") 	c #D43238",
"! 	c #DD3D44",
"~ 	c #D74449",
"{ 	c #D64B51",
"] 	c #D75057",
"^ 	c #D9575C",
"/ 	c #CE5C61",
"( 	c #C56065",
"_ 	c #D6333B",
": 	c #D8282F",
"< 	c #DD1C26",
"[ 	c #E01D27",
"} 	c #DF1D25",
"| 	c #D8383D",
"1 	c #DA4B52",
"2 	c #DD4E54",
"3 	c #E05054",
"4 	c #E15457",
"5 	c #DB585D",
"6 	c #D45B60",
"7 	c #D8333D",
"8 	c #D92730",
"9 	c #DE1C26",
"0 	c #E11F27",
"a 	c #E6151E",
"b 	c #DD353B",
"c 	c #E54E55",
"d 	c #E04D53",
"e 	c #E14F55",
"f 	c #E25157",
"g 	c #DD555A",
"h 	c #D8585D",
"i 	c #D1323A",
"j 	c #D4262E",
"k 	c #DA1C24",
"l 	c #DD1F26",
"m 	c #E4171F",
"n 	c #DB3537",
"o 	c #E84A52",
"p 	c #DE4A52",
"q 	c #E04C52",
"r 	c #E04E53",
"s 	c #DD5357",
"t 	c #DA575E",
"u 	c #CF2F38",
"v 	c #D2262D",
"w 	c #D91D24",
"x 	c #DB1F24",
"y 	c #E31720",
"z 	c #D53533",
"A 	c #E7464E",
"B 	c #DC474F",
"C 	c #DF494E",
"D 	c #DE4B4F",
"E 	c #DB5053",
"F 	c #D14A4E",
"G 	c #CD3C42",
"H 	c #CF444D",
"I 	c #B84A52",
"J 	c #C05C58",
"K 	c #CE3139",
"L 	c #D1262D",
"M 	c #D61D23",
"N 	c #D91F24",
"O 	c #DD1821",
"P 	c #DB3032",
"Q 	c #DE444A",
"R 	c #DD434A",
"S 	c #E0454C",
"T 	c #E3494E",
"U 	c #DD494E",
"V 	c #CE3B41",
"W 	c #CC383D",
"X 	c #D03F48",
"Y 	c #C9464D",
"Z 	c #CE5453",
"` 	c #CB5359",
" .	c #C3535C",
"..	c #A04D44",
"+.	c #AC403B",
"@.	c #C43236",
"#.	c #CE242B",
"$.	c #D11D23",
"%.	c #D41D23",
"&.	c #DB1822",
"*.	c #DD2C30",
"=.	c #D94246",
"-.	c #E03F47",
";.	c #E24349",
">.	c #E6454C",
",.	c #E0434A",
"'.	c #D1363D",
").	c #CD383A",
"!.	c #D44046",
"~.	c #D9484C",
"{.	c #DD4D52",
"].	c #D95158",
"^.	c #CA5459",
"/.	c #965155",
"(.	c #BB2F3A",
"_.	c #C22629",
":.	c #C1292C",
"<.	c #C6272B",
"[.	c #CE2429",
"}.	c #D22127",
"|.	c #D21B23",
"1.	c #D51C25",
"2.	c #D0141D",
"3.	c #D12A2D",
"4.	c #DC3E46",
"5.	c #DF3C45",
"6.	c #DF4045",
"7.	c #E04248",
"8.	c #DF4348",
"9.	c #DB4046",
"0.	c #DC4347",
"a.	c #E1484C",
"b.	c #E34B50",
"c.	c #E44D53",
"d.	c #E55057",
"e.	c #D35357",
"f.	c #AF4950",
"g.	c #BB212B",
"h.	c #C41F26",
"i.	c #C61B22",
"j.	c #CA1D23",
"k.	c #CE1C24",
"l.	c #CE1B23",
"m.	c #CF1C23",
"n.	c #D21E25",
"o.	c #D12128",
"p.	c #D2252C",
"q.	c #D63035",
"r.	c #DC373E",
"s.	c #DD3942",
"t.	c #DC3B43",
"u.	c #DE3E44",
"v.	c #DE4146",
"w.	c #E04349",
"x.	c #E2454C",
"y.	c #E4474E",
"z.	c #E5494F",
"A.	c #E54B51",
"B.	c #E44D54",
"C.	c #D75156",
"D.	c #C32932",
"E.	c #CD1F22",
"F.	c #C91D22",
"G.	c #C51B20",
"H.	c #C61C21",
"I.	c #CB1F24",
"J.	c #CF2229",
"K.	c #D1262C",
"L.	c #D12A2E",
"M.	c #D52C31",
"N.	c #D83035",
"O.	c #DA3436",
"P.	c #D9353D",
"Q.	c #D9393E",
"R.	c #DB3A40",
"S.	c #DD3D42",
"T.	c #DD4145",
"U.	c #E04347",
"V.	c #E4444B",
"W.	c #E5464D",
"X.	c #E04A4D",
"Y.	c #E24C50",
"Z.	c #D64F53",
"`.	c #C81C26",
" +	c #CE1E24",
".+	c #D11F24",
"++	c #CF1F24",
"@+	c #CB1D21",
"#+	c #C8191E",
"$+	c #CD1C21",
"%+	c #CE2026",
"&+	c #D2262B",
"*+	c #D3272E",
"=+	c #D32B30",
"-+	c #D32C34",
";+	c #D9333A",
">+	c #D8343C",
",+	c #D9373D",
"'+	c #DA3840",
")+	c #DB3B42",
"!+	c #DB3D44",
"~+	c #DE4048",
"{+	c #E2424B",
"]+	c #DF464A",
"^+	c #E0484F",
"/+	c #D64C53",
"(+	c #C71D27",
"_+	c #D01F24",
":+	c #CF1D25",
"<+	c #CB1A21",
"[+	c #C4161C",
"}+	c #C6161E",
"|+	c #CA1A21",
"1+	c #CD1D24",
"2+	c #CE1F27",
"3+	c #D1242B",
"4+	c #D2272E",
"5+	c #D22A2F",
"6+	c #D32C33",
"7+	c #D43035",
"8+	c #D53339",
"9+	c #D4353C",
"0+	c #D6373F",
"a+	c #D63A40",
"b+	c #D63D43",
"c+	c #D84046",
"d+	c #DB4248",
"e+	c #DC454C",
"f+	c #D34B58",
"g+	c #C71C28",
"h+	c #CE1D24",
"i+	c #CF1F23",
"j+	c #CF1E24",
"k+	c #CB1B22",
"l+	c #C4151C",
"m+	c #C4141C",
"n+	c #C5161C",
"o+	c #C9181F",
"p+	c #CD1E25",
"q+	c #CE2329",
"r+	c #CC2529",
"s+	c #CC292C",
"t+	c #CE2A2F",
"u+	c #CE2E33",
"v+	c #CE3137",
"w+	c #CB363E",
"x+	c #CB3C42",
"y+	c #D13F44",
"z+	c #CF4247",
"A+	c #CC4147",
"B+	c #D04C4C",
"C+	c #BC5150",
"D+	c #C61D29",
"E+	c #CE1C23",
"F+	c #CD1D23",
"G+	c #C81920",
"H+	c #C01219",
"I+	c #BD1118",
"J+	c #BE141A",
"K+	c #C0141C",
"L+	c #C5151E",
"M+	c #C71921",
"N+	c #CB1D25",
"O+	c #C91F27",
"P+	c #C52428",
"Q+	c #CB262B",
"R+	c #CC292E",
"S+	c #C82E34",
"T+	c #BA3840",
"U+	c #B8484B",
"V+	c #C44547",
"W+	c #CD4451",
"X+	c #B32931",
"Y+	c #BE2C32",
"Z+	c #C52A2F",
"`+	c #C71F25",
" @	c #C31B21",
".@	c #BA1619",
"+@	c #B51519",
"@@	c #B3161B",
"#@	c #B3181D",
"$@	c #B5191F",
"%@	c #AE1D23",
"&@	c #BB1B25",
"*@	c #C91A21",
"=@	c #C31F23",
"-@	c #C92127",
";@	c #CA2529",
">@	c #C52C32",
",@	c #BF3039",
"'@	c #9F363A",
")@	c #AD4348",
"!@	c #C13E44",
"~@	c #C02B33",
"{@	c #B04C4D",
"]@	c #9F6B56",
"^@	c #A24540",
"/@	c #A72329",
"(@	c #A32226",
"_@	c #A22427",
":@	c #9B282C",
"<@	c #AF1C25",
"[@	c #C6141B",
"}@	c #BE1A1F",
"|@	c #C31C22",
"1@	c #C52025",
"2@	c #C2282E",
"3@	c #BC2E35",
"4@	c #A36E6B",
"5@	c #8CB198",
"6@	c #986F6A",
"7@	c #A12931",
"8@	c #A0262B",
"9@	c #A1262A",
"0@	c #9A282C",
"a@	c #AE1A22",
"b@	c #C01018",
"c@	c #B8151A",
"d@	c #BE171D",
"e@	c #C01B21",
"f@	c #C0242A",
"g@	c #BB2C33",
"h@	c #8CFFFA",
"i@	c #9D5455",
"j@	c #A02C31",
"k@	c #A2252B",
"l@	c #9C272D",
"m@	c #AC191F",
"n@	c #BD1017",
"o@	c #B61318",
"p@	c #BB131A",
"q@	c #BC161C",
"r@	c #BC2127",
"s@	c #BA2C32",
"t@	c #9E3436",
"u@	c #9F2D31",
"v@	c #9F262A",
"w@	c #A1252B",
"x@	c #9C282C",
"y@	c #A91920",
"z@	c #BC1118",
"A@	c #B5141A",
"B@	c #B81319",
"C@	c #BB1319",
"D@	c #BD1B23",
"E@	c #BB242D",
"F@	c #9C262C",
"G@	c #9D2429",
"H@	c #9B2327",
"I@	c #962628",
"J@	c #A4191F",
"K@	c #BC0D15",
"L@	c #B51117",
"M@	c #B90E16",
"N@	c #B80D14",
"O@	c #B31920",
"P@	c #B42932",
"Q@	c #975559",
"R@	c #904347",
"S@	c #923034",
"T@	c #962B2F",
"U@	c #91292A",
"V@	c #9E1920",
"W@	c #AE1217",
"X@	c #A81B1E",
"Y@	c #A62025",
"Z@	c #9A2F31",
"`@	c #A14A4A",
" #	c #B15456",
".#	c #933D3E",
"+#	c #8A3131",
"@#	c #911A22",
"##	c #963531",
"$#	c #9C2E33",
"%#	c #8F3B3A",
"                                                ",
"              . + @ # $ % & * = -               ",
"            ; > , ' ) ! ~ { ] ^ / (             ",
"            _ : < [ } | 1 2 3 4 5 6             ",
"            7 8 9 0 a b c d e f g h             ",
"            i j k l m n o p q r s t             ",
"            u v w x y z A B C D E F G H I J     ",
"            K L M N O P Q R S T U V W X Y Z `  .",
"        ..+.@.#.$.%.&.*.=.-.;.>.,.'.).!.~.{.].^.",
"  /.(._.:.<.[.}.|.1.2.3.4.5.6.7.8.9.0.a.b.c.d.e.",
"f.g.h.i.j.k.l.m.n.o.p.q.r.s.t.u.v.w.x.y.z.A.B.C.",
"D.k.E.F.G.H.I.J.K.L.M.N.O.P.Q.R.S.T.U.V.W.X.Y.Z.",
"`. +.+++@+#+$+%+J.&+*+=+-+;+>+,+'+)+!+~+{+]+^+/+",
"(+ +_+:+<+[+}+|+1+2+3+4+5+6+7+8+9+0+a+b+c+d+e+f+",
"g+h+i+j+k+l+m+n+o+k+p+q+r+s+t+u+v+w+x+y+z+A+B+C+",
"D+E+$+F+G+H+I+J+K+L+M+N+O+P+Q+R+S+T+U+V+W+      ",
"X+Y+Z+`+ @.@+@@@#@$@%@&@*@=@-@;@>@,@            ",
"'@)@!@~@{@]@^@/@(@_@:@<@[@}@|@1@2@3@            ",
"        4@5@6@7@8@9@0@a@b@c@d@e@f@g@            ",
"          h@i@j@8@k@l@m@n@o@p@q@r@s@            ",
"            t@u@v@w@x@y@z@A@B@C@D@E@            ",
"            F@G@H@H@I@J@K@L@M@N@O@P@            ",
"            Q@R@S@T@U@V@W@X@Y@Z@`@ #            ",
"                  .#+#@###$#%#                  "};
