/* XPM */
static char * geda_box_22x22_xpm[] = {
"22 22 44 1",
" 	c None",
".	c #0642AA",
"+	c #0640A9",
"@	c #0640AA",
"#	c #073EA9",
"$	c #093CAA",
"%	c #093CA9",
"&	c #093DA9",
"*	c #093BA9",
"=	c #0A3DA9",
"-	c #0A3CA9",
";	c #0B3DA9",
">	c #0B3DAA",
",	c #0B3CA9",
"'	c #083FA9",
")	c #083DA9",
"!	c #0D3CAA",
"~	c #0D3CA9",
"{	c #0D3DAA",
"]	c #1037AA",
"^	c #0250A9",
"/	c #0740AA",
"(	c #0C3CA9",
"_	c #0057AA",
":	c #0740A9",
"<	c #0056A9",
"[	c #093FA9",
"}	c #0A3EA9",
"|	c #0C3DAA",
"1	c #0A3FA9",
"2	c #005FAA",
"3	c #0058AA",
"4	c #0057A9",
"5	c #0B3EAA",
"6	c #0D40B4",
"7	c #0944B4",
"8	c #054EB3",
"9	c #054DB3",
"0	c #054DB4",
"a	c #054FB4",
"b	c #0B44B4",
"c	c #031233",
"d	c #031133",
"e	c #000000",
"                      ",
"                      ",
".+@#$%%%%%%%%%%%%%%&*%",
"===-;>>>>>>>>>>>>>>,')",
"!~!{{{{{{{{{{{{{{{{]^/",
"((                  _:",
"((                  <'",
"((                  <[",
"((                  <}",
"((                  <}",
"((                  <}",
"((                  <}",
"((                  <}",
"((                  <}",
"((                  <}",
"((                  <}",
"((                  <}",
"|1233333333333333334_5",
"67899999999999999990ab",
"ccddddddddddddddddddcc",
"eeeeeeeeeeeeeeeeeeeeee",
"                      "};
