/* XPM */
static char * ghost_invisible_32x32_xpm[] = {
"32 32 270 2",
"  	c None",
". 	c #A4AABC",
"+ 	c #A2A8BA",
"@ 	c #A8AEC0",
"# 	c #A2A8BB",
"$ 	c #A5ABBD",
"% 	c #BEC4D4",
"& 	c #D4D9E9",
"* 	c #DFE2F2",
"= 	c #DFE3F3",
"- 	c #DDE2F0",
"; 	c #BBC0D1",
"> 	c #A3A9BC",
", 	c #A3A9BB",
"' 	c #D9DEEE",
") 	c #DADEEF",
"! 	c #DBDEEE",
"~ 	c #DBE0F0",
"{ 	c #DDE1EF",
"] 	c #DEE2F1",
"^ 	c #E1E5F4",
"/ 	c #B0B6C7",
"( 	c #C6CBDC",
"_ 	c #D9DEED",
": 	c #DADDEF",
"< 	c #DADFEE",
"[ 	c #DDE0EF",
"} 	c #DDE1F1",
"| 	c #C9CEDE",
"1 	c #D9DDEE",
"2 	c #D8DCEE",
"3 	c #DADEED",
"4 	c #B3B6C3",
"5 	c #C2C5D3",
"6 	c #D5DAE9",
"7 	c #DBDFEF",
"8 	c #D8DCED",
"9 	c #A9ACB9",
"0 	c #DBDFF0",
"a 	c #DADEEE",
"b 	c #E1E5F5",
"c 	c #686A72",
"d 	c #161618",
"e 	c #C1C4D2",
"f 	c #E1E5F3",
"g 	c #D6DBEB",
"h 	c #DEE2F3",
"i 	c #070708",
"j 	c #4D4E54",
"k 	c #D4D7E7",
"l 	c #DBDFEE",
"m 	c #DCE0F0",
"n 	c #E8ECFC",
"o 	c #91949D",
"p 	c #E1E4F4",
"q 	c #B4BACB",
"r 	c #979AA5",
"s 	c #888A94",
"t 	c #EEF0FA",
"u 	c #EEF0F8",
"v 	c #E3E6F3",
"w 	c #DCDFEE",
"x 	c #DFE3F2",
"y 	c #E0E3F2",
"z 	c #CCD1E1",
"A 	c #DADDED",
"B 	c #AAADBA",
"C 	c #FCFDFF",
"D 	c #FFFFFF",
"E 	c #ECEEF7",
"F 	c #DCE0EF",
"G 	c #EAEDF6",
"H 	c #FEFEFE",
"I 	c #E0E3F1",
"J 	c #E0E4F3",
"K 	c #E4E7F5",
"L 	c #A7ADBE",
"M 	c #B5BACB",
"N 	c #DDE0F0",
"O 	c #DBE9FC",
"P 	c #F8F9FD",
"Q 	c #F9F9FB",
"R 	c #D1E3FD",
"S 	c #F6F9FD",
"T 	c #E9EBF5",
"U 	c #E1E5F2",
"V 	c #E2E6F4",
"W 	c #C7CCDC",
"X 	c #CFD4E3",
"Y 	c #DDE1F0",
"Z 	c #BCD5FC",
"` 	c #3D5FA0",
" .	c #3E71AA",
"..	c #E5E5F1",
"+.	c #A7BEE5",
"@.	c #1F3256",
"#.	c #4A95EC",
"$.	c #FAF8FA",
"%.	c #E0E4F1",
"&.	c #E5E8F6",
"*.	c #A9AFC1",
"=.	c #E2E5F4",
"-.	c #DFE3F1",
";.	c #B1D1F8",
">.	c #15457E",
",.	c #316697",
"'.	c #E6E6F2",
").	c #AEC7E5",
"!.	c #022953",
"~.	c #4997E6",
"{.	c #FCFAFC",
"].	c #E2E6F3",
"^.	c #D2D7E5",
"/.	c #F5F5F9",
"(.	c #CFE2F6",
"_.	c #E1E6F4",
":.	c #E3E5F1",
"<.	c #D4E1F4",
"[.	c #F4F5F9",
"}.	c #E9ECF5",
"|.	c #DFE2F1",
"1.	c #E8EBF8",
"2.	c #B6BCCC",
"3.	c #DEE1F0",
"4.	c #E0E4F2",
"5.	c #E3E7F4",
"6.	c #E6E9F6",
"7.	c #E5E9F5",
"8.	c #AEB4C5",
"9.	c #E2E5F3",
"0.	c #DEE2F0",
"a.	c #A6A9B4",
"b.	c #868992",
"c.	c #868890",
"d.	c #9A9CA6",
"e.	c #BABEC9",
"f.	c #E3E7F6",
"g.	c #E2E5F2",
"h.	c #E8EBF7",
"i.	c #D6D9E7",
"j.	c #DDE2F1",
"k.	c #C1C5D1",
"l.	c #D1D5E3",
"m.	c #D8DCEB",
"n.	c #37383A",
"o.	c #2A2A29",
"p.	c #4B4C4D",
"q.	c #E3E7F7",
"r.	c #DFE4F1",
"s.	c #EBEFFA",
"t.	c #C0C4D4",
"u.	c #D7DBE9",
"v.	c #E4E7F4",
"w.	c #7E8188",
"x.	c #3F4041",
"y.	c #77797F",
"z.	c #DDE2EF",
"A.	c #E9EDF8",
"B.	c #EDF0FB",
"C.	c #E7EAF7",
"D.	c #E4E8F5",
"E.	c #E2E7F4",
"F.	c #DBE0EF",
"G.	c #DCE1F0",
"H.	c #E7EBF6",
"I.	c #EBEFF9",
"J.	c #E7EBF5",
"K.	c #AEB3C4",
"L.	c #E5E8F4",
"M.	c #DCE1EF",
"N.	c #D8DDEC",
"O.	c #D8DCEC",
"P.	c #D7DCEC",
"Q.	c #D9DDED",
"R.	c #E3E7F3",
"S.	c #EAEDF8",
"T.	c #DBDFEA",
"U.	c #B9BFCE",
"V.	c #E9ECF7",
"W.	c #D6DAEB",
"X.	c #D5DAEA",
"Y.	c #D7DBEB",
"Z.	c #D9DDEC",
"`.	c #ECEFF9",
" +	c #F0F3FD",
".+	c #C8CDDA",
"++	c #A3AABC",
"@+	c #C2C6D6",
"#+	c #E8ECF7",
"$+	c #E5E8F5",
"%+	c #D4D9EA",
"&+	c #D3D8EA",
"*+	c #D5D9EA",
"=+	c #D6DAEA",
"-+	c #D6DCEB",
";+	c #EEF1FB",
">+	c #F3F6FF",
",+	c #B4B9C9",
"'+	c #C6CBD9",
")+	c #D2D8E9",
"!+	c #D2D7E8",
"~+	c #D1D7E8",
"{+	c #D3D7E8",
"]+	c #D3D8E9",
"^+	c #EAEEF8",
"/+	c #F0F3FC",
"(+	c #EEF1FA",
"_+	c #A6ABBD",
":+	c #C5CAD8",
"<+	c #E9EDF7",
"[+	c #E1E6F3",
"}+	c #DEE3F1",
"|+	c #D7DCEB",
"1+	c #D0D5E6",
"2+	c #CFD5E7",
"3+	c #CFD4E6",
"4+	c #CFD5E6",
"5+	c #D1D6E7",
"6+	c #E4E8F4",
"7+	c #EDF0FA",
"8+	c #F1F4FD",
"9+	c #D8DCE7",
"0+	c #BDC2D2",
"a+	c #E6E9F5",
"b+	c #CED3E5",
"c+	c #CDD3E5",
"d+	c #F6F9FF",
"e+	c #ABB1C3",
"f+	c #EFF1FC",
"g+	c #B2B8C8",
"h+	c #C3C8D7",
"i+	c #EBEEF8",
"j+	c #CCD2E4",
"k+	c #CBD1E3",
"l+	c #ECF0FA",
"m+	c #EBEEF9",
"n+	c #DCE0EE",
"o+	c #E2E7F2",
"p+	c #F2F5FD",
"q+	c #CED3DF",
"r+	c #EAEEF9",
"s+	c #EFF2FC",
"t+	c #ACB2C3",
"u+	c #D2D8E8",
"v+	c #CED4E6",
"w+	c #F0F4FD",
"x+	c #D6DBE7",
"y+	c #E2E6F0",
"z+	c #F1F5FD",
"A+	c #E6EAF5",
"B+	c #B1B7C7",
"C+	c #F2F6FE",
"D+	c #EEF2FB",
"E+	c #EFF3FC",
"F+	c #BABECE",
"G+	c #ECEFFA",
"H+	c #C4C9D7",
"I+	c #F4F7FF",
"J+	c #EDF1FA",
"K+	c #CDD2DE",
"L+	c #C3C7D6",
"M+	c #F3F6FE",
"N+	c #EEF1F9",
"O+	c #A5ABBE",
"P+	c #AAB0C1",
"Q+	c #E2E5F0",
"R+	c #B5BBCB",
"S+	c #B6BBCB",
"T+	c #D9DDE8",
"U+	c #A7ADBF",
"                                                                ",
"                      . +   @ # .                               ",
"                  . $ % & * = - ; >                             ",
"                ,   ' ) ! ~ { ] ^ / $                           ",
"              , ( ) _ : < ~ [ } ] | .                           ",
"            ,   1 2 3 : ~ 4 5 ] ] 6 #                           ",
"              7 8 9 0 a b c d e ] f ,                           ",
"          , g h i j k l 7 m n o p f q $                         ",
"            7 r s t a 7 7 u v w x y z ,                         ",
"        # A ~ B C D E F G D H ] I J K L $                       ",
"        M ] N m D O P ) Q R S T y U V W .                       ",
"        X Y } Y Z `  ...+.@.#.$.%.U V &.@ $                     ",
"      *.=.-.] Y ;.>.,.'.).!.~.{.-.J ].K ^.                      ",
"        J I x ] /.(._.Y :.<.[.}.|.I ].K 1.2.$                   ",
"    + { U y %.x 3.Y Y F m N Y } |.-.4.5.6.7.$ $                 ",
"    8.&.9.U y |.0.- = a.b.c.d.e.f.3.-.g.7.h.i.                  ",
"      5.].f 4.x 0.j.* k.l.m.n.o.p.q.Y r.5.h.s.t..               ",
"    u.v.V U 4.x 0.Y F 7 < j.w.x.y.= F z.-.7.A.B.8.$             ",
"  + C.D.E.f %.] Y F 7 3 _ _ F.b G.3 < l { U H.I.J.  $           ",
"  K.A.L.5.U x 0.M.7 3 _ N.O.O.P.P.N.Q._ < { R.S.B.T.            ",
"  U.V.D.5.U -.- F.< Q.O.g g W.X.g g Y.P.Z.3 0.7.`. +.+++        ",
"  @+#+$+R.U -.{ l _ O.g X.& & %+&+& *+=+-+O.l -.H.;+>+,+$       ",
"  '+V.D.].%.0.M.F.l _ g *+)+!+~+!+!+{+]+*+-+N.F.U ^+/+(+_+$     ",
"  :+<+7.].%.-.r.[+5.].}+|+{+1+2+3+4+5+!+& g P._ { 6+7+8+9+,     ",
"  0+s.a+].U R.H.^+B.s.V.].|+4+b+c+b+5+_ 0.{ _ _ l -.H./+d+K.$   ",
"  e+ +#+D.7.A.f+  g+h+7+i+].]+j+k+c+N.H.l+m+a+r.n+z.o+m+p+q+.   ",
"      `.r+m+s+  ,     t+  ^+%.u+v+& 6+w+x+y+z+I.A+o+].#+8+T.,   ",
"    B+C+D+E+  #         F+8+G+L.%.7. +      H+I+/+(+I.J+p+K+.   ",
"      L+/+  +               /+s+s+>+          K.  d+C+M+N+O+    ",
"                          P+  E+Q+R+              S+  T+U+      ",
"                                                                ",
"                                                                "};
