/* XPM */
static char * ghost_invisible_24x24_xpm[] = {
"24 24 303 2",
"  	c None",
". 	c #A1A7B9",
"+ 	c #A2A8BA",
"@ 	c #A4AABB",
"# 	c #ABB1C3",
"$ 	c #A3A9BC",
"% 	c #A3A9BB",
"& 	c #979DAF",
"* 	c #ADB3C4",
"= 	c #B9BFCF",
"- 	c #BEC3D4",
"; 	c #B6BCCC",
"> 	c #ABB0C2",
", 	c #99A0B4",
"' 	c #A9AEC0",
") 	c #BABFD0",
"! 	c #CED3E3",
"~ 	c #DCE0F0",
"{ 	c #E2E6F5",
"] 	c #E4E8F6",
"^ 	c #CFD4E4",
"/ 	c #A5ABBD",
"( 	c #A0A6B8",
"_ 	c #8B92A5",
": 	c #C8CCDD",
"< 	c #E5E9F9",
"[ 	c #DADEEF",
"} 	c #D6DAEA",
"| 	c #E0E4F3",
"1 	c #E0E4F4",
"2 	c #DDE1F0",
"3 	c #B7BECF",
"4 	c #999FB2",
"5 	c #000000",
"6 	c #CFD3E3",
"7 	c #EFF3FF",
"8 	c #C7CBDA",
"9 	c #E3E7F9",
"0 	c #BFC3D1",
"a 	c #414247",
"b 	c #C2C5D3",
"c 	c #C7CCDC",
"d 	c #8C92A6",
"e 	c #959BAD",
"f 	c #BFC6D6",
"g 	c #EEF2FF",
"h 	c #0A0A0C",
"i 	c #848691",
"j 	c #E7EAFC",
"k 	c #D5D9E9",
"l 	c #DBDFEF",
"m 	c #91949D",
"n 	c #E5E8F8",
"o 	c #CDD2E1",
"p 	c #959BAF",
"q 	c #E9EDFE",
"r 	c #999CA7",
"s 	c #A4A6AF",
"t 	c #FBFDFF",
"u 	c #D6DAEB",
"v 	c #E4E7F3",
"w 	c #E9EBF5",
"x 	c #E1E4F3",
"y 	c #DEE2F0",
"z 	c #D7DBEA",
"A 	c #B2B8C9",
"B 	c #969CAF",
"C 	c #959CB0",
"D 	c #BCC0D2",
"E 	c #DBE0F0",
"F 	c #BCC0CF",
"G 	c #FFFFFF",
"H 	c #EAEEF8",
"I 	c #E4E7F2",
"J 	c #E7EBF5",
"K 	c #F4F8FD",
"L 	c #DFE3F1",
"M 	c #E1E4F2",
"N 	c #C2C7D7",
"O 	c #A1A8BA",
"P 	c #A0A6B9",
"Q 	c #B7BCCD",
"R 	c #D0D4E4",
"S 	c #DBDFEE",
"T 	c #E2E5F4",
"U 	c #C1D6F5",
"V 	c #5D7FB0",
"W 	c #C0D0E6",
"X 	c #9DA8C0",
"Y 	c #5C8FCA",
"Z 	c #EAEFF8",
"` 	c #DDE2F0",
" .	c #E1E5F3",
"..	c #D6DAE9",
"+.	c #B0B5C7",
"@.	c #9BA2B5",
"#.	c #BFC4D4",
"$.	c #D8DCEB",
"%.	c #DEE2F1",
"&.	c #DEE1EF",
"*.	c #BBD3F1",
"=.	c #4E75A4",
"-.	c #BBCBE2",
";.	c #98A5BC",
">.	c #5B8FC7",
",.	c #EBEFF7",
"'.	c #DDE0EF",
").	c #E2E6F4",
"!.	c #CBCFDE",
"~.	c #A7ADBF",
"{.	c #C4C8D8",
"].	c #DFE2F1",
"^.	c #E1E5F2",
"/.	c #D1DAEC",
"(.	c #E1E5F4",
"_.	c #E2E8F9",
":.	c #E4EAFA",
"<.	c #E6EAF7",
"[.	c #E3E7F4",
"}.	c #E6E9F6",
"|.	c #B2B7C8",
"1.	c #B0B6C7",
"2.	c #CBD0E0",
"3.	c #E5E8F5",
"4.	c #E0E3F1",
"5.	c #DDE1EF",
"6.	c #DCE1EF",
"7.	c #B7BBC7",
"8.	c #878992",
"9.	c #9799A2",
"0.	c #C0C4D0",
"a.	c #EDF1FF",
"b.	c #DCDFED",
"c.	c #E1E4F1",
"d.	c #E7EBF6",
"e.	c #D7DAE8",
"f.	c #B7BBCC",
"g.	c #E7EAF8",
"h.	c #E4E8F4",
"i.	c #E0E4F2",
"j.	c #DFE3F2",
"k.	c #DBE0EF",
"l.	c #CFD3E1",
"m.	c #E6EBFB",
"n.	c #767880",
"o.	c #222221",
"p.	c #56575A",
"q.	c #F3F8FF",
"r.	c #DBE1EE",
"s.	c #E3E6F3",
"t.	c #EEF2FD",
"u.	c #C9CDDB",
"v.	c #A8AEBF",
"w.	c #C4C9D8",
"x.	c #E2E5F2",
"y.	c #E2E6F3",
"z.	c #E0E4F1",
"A.	c #DCE0EE",
"B.	c #E0E5F5",
"C.	c #C0C5D2",
"D.	c #7E8087",
"E.	c #A8ACB6",
"F.	c #E3E7F7",
"G.	c #DADFED",
"H.	c #DEE2EF",
"I.	c #E4E8F3",
"J.	c #F3F7FF",
"K.	c #BEC3D2",
"L.	c #9FA5B7",
"M.	c #9EA4B8",
"N.	c #ABB0C1",
"O.	c #BDC2D1",
"P.	c #EDF1FC",
"Q.	c #DADEED",
"R.	c #D9DDEC",
"S.	c #DCE1F1",
"T.	c #EAF0FF",
"U.	c #E1E6F7",
"V.	c #D8DDEC",
"W.	c #E8EBF6",
"X.	c #F0F3FD",
"Y.	c #CDD2DE",
"Z.	c #99A0B3",
"`.	c #BBC1D0",
" +	c #C9CEDC",
".+	c #EAEDF9",
"++	c #D8DCEC",
"@+	c #D6DBEB",
"#+	c #D5DAEA",
"$+	c #D3D8E9",
"%+	c #D4D9EA",
"&+	c #D7DCEB",
"*+	c #DBDFED",
"=+	c #E2E5F3",
"-+	c #E5E8F3",
";+	c #B3B9C9",
">+	c #999FB3",
",+	c #C5CAD8",
"'+	c #D0D4E1",
")+	c #E8ECF8",
"!+	c #D9DEED",
"~+	c #D2D7E8",
"{+	c #D1D7E8",
"]+	c #D4D7E8",
"^+	c #D4DAE9",
"/+	c #EEF1FB",
"(+	c #D6DAE6",
"_+	c #A7ADBE",
":+	c #9FA5B8",
"<+	c #C6CBD9",
"[+	c #D0D5E2",
"}+	c #E9EDF8",
"|+	c #DDE2EF",
"1+	c #DFE4F1",
"2+	c #D0D5E6",
"3+	c #CFD5E7",
"4+	c #CFD4E6",
"5+	c #CFD5E6",
"6+	c #D1D6E7",
"7+	c #D3D8E8",
"8+	c #E9EDF7",
"9+	c #EEF1FA",
"0+	c #C1C6D4",
"a+	c #BCC1D0",
"b+	c #CACFDD",
"c+	c #ECEFFA",
"d+	c #E7EAF5",
"e+	c #E8ECF6",
"f+	c #E0E5F1",
"g+	c #D2D8E7",
"h+	c #CDD2E3",
"i+	c #CBD1E3",
"j+	c #CFD4E5",
"k+	c #DEE3F0",
"l+	c #DBE0EE",
"m+	c #E1E5F1",
"n+	c #F1F5FC",
"o+	c #DFE3EB",
"p+	c #AAB0C1",
"q+	c #A9AFC2",
"r+	c #EFF2FC",
"s+	c #E6EAF6",
"t+	c #EBEFF9",
"u+	c #ECEEFA",
"v+	c #6C748B",
"w+	c #AFB5C6",
"x+	c #D2D6E3",
"y+	c #E7EAF4",
"z+	c #DFE2F0",
"A+	c #CED4E5",
"B+	c #CCD1E3",
"C+	c #D5DAE9",
"D+	c #E9ECF6",
"E+	c #E6EAF5",
"F+	c #DFE3EF",
"G+	c #DEE4F0",
"H+	c #E9ECF7",
"I+	c #ECF0F8",
"J+	c #B4BACA",
"K+	c #BAC0CE",
"L+	c #D7DBE7",
"M+	c #EFF3FC",
"N+	c #E4E8F1",
"O+	c #949AAF",
"P+	c #A4AABC",
"Q+	c #7E859C",
"R+	c #CED2DF",
"S+	c #EDF0FA",
"T+	c #ECEFF8",
"U+	c #D9DEE8",
"V+	c #D5DAE5",
"W+	c #E3E6F1",
"X+	c #ECF0F9",
"Y+	c #E8EBF4",
"Z+	c #B3B8C8",
"`+	c #B2B8C8",
" @	c #CED3E0",
".@	c #EFF3FA",
"+@	c #A6ACBD",
"@@	c #DFDAEC",
"#@	c #AFB5C4",
"$@	c #DBDFEB",
"%@	c #EEF2FB",
"&@	c #E5E9F4",
"*@	c #9298AC",
"=@	c #BBC0CF",
"-@	c #F4F7FF",
";@	c #DEE2EC",
">@	c #EAEEF6",
",@	c #C9CEDB",
"'@	c #ACB1C3",
")@	c #A1A7BA",
"!@	c #CDD0DE",
"~@	c #D8DAE5",
"{@	c #A1A8B9",
"]@	c #9DA3B3",
"^@	c #DEE1ED",
"/@	c #9196AB",
"(@	c #7E869B",
"_@	c #C0C5D3",
":@	c #D4D9E4",
"<@	c #B5BBCA",
"[@	c #858CA3",
"              . + @ # $ %                       ",
"            & % * = - ; > ,                     ",
"          + ' ) ! ~ { ] ^ / (                   ",
"        / _ : < [ } | 1 2 3 4                   ",
"        5 6 7 8 9 0 a b 2 c d                   ",
"      e f g h i j k l m n o % .                 ",
"    p   q r s t u v w x y z A B                 ",
"    C D E F G H I J K v L M N O P               ",
"    Q R S T U V W X Y Z `  ...+.@.              ",
"    #.$.%.&.*.=.-.;.>.,.'.M ).!.~.              ",
"  + {.x ].2 ^./.(._.:.<.'.L [.}.|.%             ",
"  1.2.3.4.].5.6.7.8.9.0.a.b.c.d.e.f.            ",
"  g.h.^.i.j.6.k.l.m.n.o.p.q.r.s.t.u.+           ",
"v.w.x.y.z.y A.S l B.C.D.E.F.G.H.I.J.K.L.M.      ",
"N.O.P.^.L ` S Q.R.} S.T.U...V.G.z.W.X.Y.Z.      ",
"`. +.+^.L 5.G.++@+#+k $+%+#+} &+*+=+H -+;+>+    ",
",+'+)+z.y A.!+&+#+$+~+{+~+~+]+^+&+k.h./+(+_+:+  ",
"<+[+}+i.y |+1+^.6.^+2+3+4+5+6+7+#+&+5.8+9+0+%   ",
"a+b+c+^.^.d.8+d+e+f+g+h+i+j+V.k+l+!+S m+n+o+p+% ",
"q+#.r+s+t+u+v+w+x+y+z+A+B+C+d+e+D+E+F+G+H+I+J+@ ",
"  K+L+M+N+O+P+  Q+R+S+z.6.H+T+U+V+W+S+X+/+Y+Z+% ",
"  `+ @.@+@P     @@#@$@%@&@(+    *@=@-@;@>@,@'@)@",
"    !@~@>+        {@]@M+^@`+      /@(@_@:@<@[@  ",
"                                                "};
