/* XPM */
static char * ghost_invisible_22x22_xpm[] = {
"22 22 167 2",
"  	c None",
". 	c #C2C7D8",
"+ 	c #CED2E3",
"@ 	c #CDD1E1",
"# 	c #AFB4C5",
"$ 	c #BBC1D2",
"% 	c #DBDFEF",
"& 	c #DCE0F0",
"* 	c #DDE1F0",
"= 	c #A7AEBF",
"- 	c #C4C8DA",
"; 	c #DADDEE",
"> 	c #C5C9D7",
", 	c #DEE2F1",
"' 	c #AFB5C6",
") 	c #B6BBCD",
"! 	c #A3A6B3",
"~ 	c #E0E4F4",
"{ 	c #57585E",
"] 	c #9A9DA8",
"^ 	c #E2E6F5",
"/ 	c #747780",
"( 	c #9798A1",
"_ 	c #DADFEF",
": 	c #ECEFFD",
"< 	c #C0C3D0",
"[ 	c #C1C6D7",
"} 	c #DADEEE",
"| 	c #CCCED7",
"1 	c #FFFFFE",
"2 	c #E4E7F3",
"3 	c #E7EAF5",
"4 	c #FFFFFF",
"5 	c #E5E8F3",
"6 	c #E0E4F2",
"7 	c #E3E7F5",
"8 	c #D3D7E7",
"9 	c #E7EDFB",
"0 	c #A0B5DB",
"a 	c #C3D1E5",
"b 	c #DAE2F3",
"c 	c #90A8CC",
"d 	c #E4ECF8",
"e 	c #DFE3F1",
"f 	c #E3E7F4",
"g 	c #CED2E2",
"h 	c #AFB5C7",
"i 	c #E0E4F3",
"j 	c #DEE1F1",
"k 	c #CFE0FA",
"l 	c #1D4C85",
"m 	c #7E9CBD",
"n 	c #B4C9E6",
"o 	c #0C4077",
"p 	c #D9E8F9",
"q 	c #E2E5F3",
"r 	c #B2B7C8",
"s 	c #CFD2E2",
"t 	c #E1E5F3",
"u 	c #E8E9F4",
"v 	c #DCE9FB",
"w 	c #E3E6F5",
"x 	c #E6E7F5",
"y 	c #E7EEFE",
"z 	c #EAECF6",
"A 	c #DFE2F1",
"B 	c #E1E5F2",
"C 	c #E5E8F5",
"D 	c #A4AABC",
"E 	c #E4E7F5",
"F 	c #E0E3F2",
"G 	c #DEE2F0",
"H 	c #CED2E0",
"I 	c #9B9DA8",
"J 	c #9D9FA9",
"K 	c #BFC2CF",
"L 	c #E5E9F8",
"M 	c #E3E6F3",
"N 	c #E9ECF8",
"O 	c #C9CDDC",
"P 	c #E5E8F6",
"Q 	c #E0E3F1",
"R 	c #D4D8E5",
"S 	c #CFD3E1",
"T 	c #ABAEBA",
"U 	c #282827",
"V 	c #707176",
"W 	c #E1E6F4",
"X 	c #B6BBCB",
"Y 	c #CED3E1",
"Z 	c #E4E8F5",
"` 	c #DDE1EF",
" .	c #DCE0EF",
"..	c #DBDFEE",
"+.	c #D5D9E8",
"@.	c #B4B7C3",
"#.	c #C7CBD8",
"$.	c #E0E5F2",
"%.	c #E9ECF7",
"&.	c #A6ACBE",
"*.	c #D7DCE9",
"=.	c #E4E8F4",
"-.	c #E2E6F3",
";.	c #DDE2F0",
">.	c #DADEED",
",.	c #D8DCEC",
"'.	c #D7DCEC",
").	c #D8DDEC",
"!.	c #D9DEED",
"~.	c #DBE0EE",
"{.	c #EDF0FB",
"].	c #A3A9BB",
"^.	c #DCE0ED",
"/.	c #D6DBEB",
"(.	c #D5DAEA",
"_.	c #D4D9EA",
":.	c #D5DAEB",
"<.	c #E6E9F5",
"[.	c #EFF2FC",
"}.	c #CDD1DE",
"|.	c #DFE3EF",
"1.	c #DBE0EF",
"2.	c #D9DDED",
"3.	c #D2D8E8",
"4.	c #D2D7E8",
"5.	c #D4D9E9",
"6.	c #DEE3F0",
"7.	c #EAEDF8",
"8.	c #F1F4FD",
"9.	c #B2B8C8",
"0.	c #E6E9F6",
"a.	c #EBEEF9",
"b.	c #E8EBF7",
"c.	c #CFD5E6",
"d.	c #CFD3E6",
"e.	c #D0D5E7",
"f.	c #D6DAEA",
"g.	c #DADFED",
"h.	c #EDF1FA",
"i.	c #DBDFEA",
"j.	c #E8ECF7",
"k.	c #B7BDCD",
"l.	c #D5D9E6",
"m.	c #CED3E5",
"n.	c #CCD2E4",
"o.	c #D4DAEA",
"p.	c #E7EBF6",
"q.	c #ECEFF9",
"r.	c #E5E9F5",
"s.	c #DDE2EF",
"t.	c #E6EAF5",
"u.	c #F3F6FF",
"v.	c #BEC3D1",
"w.	c #E1E5F1",
"x.	c #DCE1EF",
"y.	c #D8DCE9",
"z.	c #E1E5EF",
"A.	c #F2F6FE",
"B.	c #C5CAD8",
"C.	c #CED2DF",
"D.	c #E0E4EF",
"E.	c #A8AEC0",
"F.	c #EAEDF7",
"G.	c #D2D6E2",
"H.	c #CDD2DF",
"I.	c #F5F9FF",
"J.	c #F4F7FF",
"                                            ",
"                . + @ #                     ",
"            $   % & *   =                   ",
"          -   ; & > , * '                   ",
"        )   ! & ~ { ] ^ )                   ",
"          / ( % _ : < ^                     ",
"      [ } | 1 2 3 4 5 6 7                   ",
"      8 * 9 0 a b c d e f g                 ",
"    h i j k l m n o p , q   r               ",
"    s t e u v w x y z A B C   D             ",
"    E t F , G H I J K L , M N O             ",
"    P q Q e G R S T U V W e C   X           ",
"  Y Z q Q , `  ...+.@.#.&  .$.%.  &.        ",
"  *.=.-.e ;...>.,.'.'.'.).!.~.M {.  ].      ",
"  ^.Z -.e ` >.,./.(.(._.:./.). .<.[.}.      ",
"  |.Z B G  .1.2.(.3.4.4.4.5./.!.6.7.8.9.    ",
"  |.C B 6 0.a.b.G 3.c.d.e.f.2.).g.B h.      ",
"  i.j.Z     k.l.  ` m.n.o.p.q.r.` s.t.u.v.  ",
"        w.          x./.  y.  z.    p.A.B.  ",
"    C.D.E.        F.    G.      H.I.J.      ",
"                                            ",
"                                            "};
