/* XPM */
static char * ghost_invisible_22x22_xpm[] = {
"22 22 278 2",
"  	c None",
". 	c #A3A9BB",
"+ 	c #A7ADBE",
"@ 	c #AFB5C7",
"# 	c #A7ADBF",
"$ 	c #A4AABC",
"% 	c #9A9FB1",
"& 	c #A2A8BA",
"* 	c #ADB3C4",
"= 	c #BAC0D0",
"- 	c #C1C6D7",
"; 	c #ADB2C4",
"> 	c #979EB2",
", 	c #AEB4C6",
"' 	c #969DB0",
") 	c #A7ACBE",
"! 	c #BABED0",
"~ 	c #CDD2E3",
"{ 	c #DADEEE",
"] 	c #E6EAF9",
"^ 	c #E7EBF9",
"/ 	c #D2D7E7",
"( 	c #A5ABBD",
"_ 	c #999FB2",
": 	c #999EAF",
"< 	c #9399AB",
"[ 	c #CACEDF",
"} 	c #E0E4F3",
"| 	c #DFE3F4",
"1 	c #D3D7E7",
"2 	c #AEB1BD",
"3 	c #D7DBEB",
"4 	c #DDE1EF",
"5 	c #B8BFD0",
"6 	c #8B91A5",
"7 	c #8D93A6",
"8 	c #989EAF",
"9 	c #D5DBEA",
"0 	c #B7BAC5",
"a 	c #9699A4",
"b 	c #D7DAEB",
"c 	c #D2D6E6",
"d 	c #757780",
"e 	c #A6A9B4",
"f 	c #E1E4F4",
"g 	c #C6CBDA",
"h 	c #8F95A9",
"i 	c #232A3E",
"j 	c #B7BDCF",
"k 	c #D2D7E6",
"l 	c #7C7E86",
"m 	c #84858A",
"n 	c #D8DBEA",
"o 	c #DDE1F0",
"p 	c #ECEFFD",
"q 	c #B6B9C5",
"r 	c #E2E5F5",
"s 	c #CDD2E1",
"t 	c #878CA0",
"u 	c #A0A5B9",
"v 	c #CCD0E2",
"w 	c #C7CCDB",
"x 	c #C2C4CB",
"y 	c #FCFCFE",
"z 	c #E9EBF5",
"A 	c #E8EBF6",
"B 	c #FBFAFD",
"C 	c #E7E9F7",
"D 	c #DEE2F0",
"E 	c #DADDEC",
"F 	c #B5BBCB",
"G 	c #969EB0",
"H 	c #B8BDCF",
"I 	c #CED2E3",
"J 	c #DBDEED",
"K 	c #DCE4F6",
"L 	c #9FB5D7",
"M 	c #B6C6DF",
"N 	c #BAC2D4",
"O 	c #85AAD6",
"P 	c #E6EBF6",
"Q 	c #DDE2F0",
"R 	c #E0E3F1",
"S 	c #C8CDDD",
"T 	c #A4AABD",
"U 	c #C7CBDB",
"V 	c #D8DCEB",
"W 	c #E0E3F0",
"X 	c #D3E0F6",
"Y 	c #678CBA",
"Z 	c #97AFCF",
"` 	c #A0AABF",
" .	c #4C83BE",
"..	c #E7EDF6",
"+.	c #DCE0EF",
"@.	c #E1E4F2",
"#.	c #DBDFEE",
"$.	c #BBC0D0",
"%.	c #9AA1B4",
"&.	c #A8AEBF",
"*.	c #C9CDDD",
"=.	c #E1E4F3",
"-.	c #DEE1F0",
";.	c #DEE3F1",
">.	c #CCD6E9",
",.	c #D6DEEF",
"'.	c #E0E6F8",
").	c #DAE5F9",
"!.	c #E8ECF9",
"~.	c #DCDEEE",
"{.	c #DFE3F1",
"].	c #E4E8F5",
"^.	c #D5D9E7",
"/.	c #A6ACBE",
"(.	c #A0A7B9",
"_.	c #B4BACB",
":.	c #CFD4E3",
"<.	c #E5E8F5",
"[.	c #DFE2F0",
"}.	c #C5C9D6",
"|.	c #8E909A",
"1.	c #9597A0",
"2.	c #C2C6D2",
"3.	c #F0F4FF",
"4.	c #DBDDEC",
"5.	c #E2E6F2",
"6.	c #E2E6F1",
"7.	c #D0D3E2",
"8.	c #E3E7F3",
"9.	c #E0E4F1",
"0.	c #DFE3F2",
"a.	c #DCE1EF",
"b.	c #D1D5E3",
"c.	c #EAEFFF",
"d.	c #868892",
"e.	c #222221",
"f.	c #5A5B5E",
"g.	c #F8FEFF",
"h.	c #DADFED",
"i.	c #E7EAF7",
"j.	c #B3B8C8",
"k.	c #9DA3B6",
"l.	c #B0B5C6",
"m.	c #E4E7F4",
"n.	c #E1E5F2",
"o.	c #DFE3F0",
"p.	c #DCE0EE",
"q.	c #DBDFED",
"r.	c #DBDEEE",
"s.	c #DFE4F4",
"t.	c #CBD0DE",
"u.	c #8D9098",
"v.	c #B3B7C3",
"w.	c #E2E6F7",
"x.	c #D9DEEC",
"y.	c #DEE2EF",
"z.	c #ECF0F9",
"A.	c #DEE2ED",
"B.	c #AFB4C5",
"C.	c #9AA0B3",
"D.	c #C2C7D6",
"E.	c #EEF2FD",
"F.	c #DBE0EE",
"G.	c #DADEED",
"H.	c #D8DDEC",
"I.	c #D5D9E9",
"J.	c #DBDFEF",
"K.	c #EDF3FF",
"L.	c #E2E7F8",
"M.	c #D4D8E7",
"N.	c #D7DCEB",
"O.	c #E1E5F1",
"P.	c #EDF0FB",
"Q.	c #E7EBF5",
"R.	c #AFB5C5",
"S.	c #949BAF",
"T.	c #C1C7D5",
"U.	c #CED3E0",
"V.	c #E9ECF9",
"W.	c #D5DAEA",
"X.	c #D4D9E9",
"Y.	c #D3D8E8",
"Z.	c #D0D6E7",
"`.	c #D2D7E8",
" +	c #D6DBEA",
".+	c #E4E8F4",
"++	c #EBEEF8",
"@+	c #CCD1DE",
"#+	c #9CA2B5",
"$+	c #C8CDDB",
"%+	c #D2D7E4",
"&+	c #E8ECF8",
"*+	c #DCE1EE",
"=+	c #D3D8E9",
"-+	c #D1D6E7",
";+	c #D0D5E7",
">+	c #D2D6E7",
",+	c #D3D9E8",
"'+	c #D6DBEB",
")+	c #E9EDF8",
"!+	c #E8EBF5",
"~+	c #B8BDCC",
"{+	c #C4C9D7",
"]+	c #D0D5E2",
"^+	c #EAEEF9",
"/+	c #DFE4F1",
"(+	c #E7EAF6",
"_+	c #E5E9F4",
":+	c #D1D6E6",
"<+	c #CDD3E4",
"[+	c #CCD2E4",
"}+	c #CED4E5",
"|+	c #F0F4FC",
"1+	c #D8DCE6",
"2+	c #ACB2C2",
"3+	c #B5BACB",
"4+	c #EFF2FD",
"5+	c #E3E7F4",
"6+	c #E1E4F0",
"7+	c #C3C8D6",
"8+	c #D6DAE6",
"9+	c #E5E9F3",
"0+	c #CCD2E3",
"a+	c #CACFE2",
"b+	c #D3D8E7",
"c+	c #E3E6F2",
"d+	c #DCE1ED",
"e+	c #E8ECF6",
"f+	c #EDF1F8",
"g+	c #B5BACA",
"h+	c #AAB0C3",
"i+	c #E1E5F0",
"j+	c #EDF1FB",
"k+	c #DADEE9",
"l+	c #A0A6B9",
"m+	c #979EB1",
"n+	c #A6ABBE",
"o+	c #D1D5E2",
"p+	c #EAEDF7",
"q+	c #EAEDF6",
"r+	c #DEE2EC",
"s+	c #E0E4EE",
"t+	c #E7EAF5",
"u+	c #E8EDF7",
"v+	c #EBEFF9",
"w+	c #EFF2FB",
"x+	c #B8BDCD",
"y+	c #BCC2D0",
"z+	c #D5DAE6",
"A+	c #E4E8F1",
"B+	c #A6ACBD",
"C+	c #989EB2",
"D+	c #BCC1CF",
"E+	c #ADB3C2",
"F+	c #DCE0EC",
"G+	c #FFFFFF",
"H+	c #C5CBD6",
"I+	c #C1C6D4",
"J+	c #E9EDF6",
"K+	c #D4D9E4",
"L+	c #B3B8C9",
"M+	c #A5AABC",
"N+	c #BCC1D0",
"O+	c #D2D6E2",
"P+	c #CBCFDB",
"Q+	c #969CB0",
"R+	c #A1A8B9",
"S+	c #A7ADBD",
"T+	c #EEF2FB",
"U+	c #DEE1ED",
"V+	c #B7BCCC",
"W+	c #9DA2B5",
"X+	c #C6CBD8",
"Y+	c #D5DAE5",
"Z+	c #BEC4D2",
"`+	c #ACB1C3",
" @	c #EFF3FC",
".@	c #D9DCE9",
"              . + @ # $                     ",
"          % & * = - = ; >                   ",
"      , ' ) ! ~ { ] ^ / ( _                 ",
"      : < [ } | 1 2 3 4 5 6                 ",
"    7 8 9 0 a b c d e f g h                 ",
"    i j k l m n o p q r s ( t               ",
"    u v w x y z A B C D E F G               ",
"  $ H I J K L M N O P Q R S T               ",
"    U V W X Y Z `  ...+.@.#.$.%.            ",
"  &.*.=.-.;.>.,.'.).!.~.{.].^./.(.          ",
"+ _.:.<.[.-.;.}.|.1.2.3.4.5.6.7.            ",
"  <.8.9.0.o a.b.c.d.e.f.g.h.i.5.j.k.        ",
"l.g m.n.o.p.q.r.s.t.u.v.w.x.y.z.A.B.C.      ",
"l.D.E.o.D F.G.H.I.J.K.L.M.N.h.O.P.Q.R.S.    ",
"T.U.V.o.4 q.V W.X.Y.Z.`.X.I. +#..+++@+( #+  ",
"$+%+&+D *+F.h.H.=+-+Z.;+Z.>+,+'++.)+!+~+&   ",
"{+]+^+D /+.+(+_+*+:+<+[+}+X.N.'+H.9.|+1+2+. ",
"3+w 4+5+^+6+7+8+9+h.0+a+b+c+_+8.y.d+e+f+g+( ",
"h+{+i+j+k+l+m+n+o+p+h.N._+q+r+s+t+u+v+w+x+/.",
"  y+z+A+B+C+D+  E+F+v+8.k+G+H+I+o+A+J+K+L+M+",
"  N+O+P+Q+      R+S+T+U+V+    k.W+X+Y+Z+`+  ",
"                     @.@                    "};
