/* XPM */
static char * ghost_invisible_28x28_xpm[] = {
"28 28 317 2",
"  	c None",
". 	c #A2A8BA",
"+ 	c #A1A7B9",
"@ 	c #8F96A9",
"# 	c #A4ABBD",
"$ 	c #9EA4B8",
"% 	c #A5ABBD",
"& 	c #A8AEBF",
"* 	c #B9BECF",
"= 	c #B2B8C9",
"- 	c #ABB1C3",
"; 	c #A6ACBE",
"> 	c #9CA2B7",
", 	c #9EA4B6",
"' 	c #A4AABC",
") 	c #BBC0D1",
"! 	c #D2D7E7",
"~ 	c #DCE0F0",
"{ 	c #E1E5F4",
"] 	c #E2E7F4",
"^ 	c #C6CBDB",
"/ 	c #A3A9BC",
"( 	c #B3B8CA",
"_ 	c #E6EAFA",
": 	c #DBE0F0",
"< 	c #DBDEEF",
"[ 	c #DCE1F1",
"} 	c #DEE2F0",
"| 	c #DDE1F0",
"1 	c #E0E4F3",
"2 	c #B5BBCC",
"3 	c #A3A9BB",
"4 	c #D5D9EA",
"5 	c #DCE0F1",
"6 	c #D9DDED",
"7 	c #DBDFF0",
"8 	c #CACFDD",
"9 	c #D3D6E5",
"0 	c #DFE3F3",
"a 	c #C7CDDD",
"b 	c #9DA3B6",
"c 	c #0A142C",
"d 	c #DADEEE",
"e 	c #E4E8FA",
"f 	c #B9BDCB",
"g 	c #DDE1F2",
"h 	c #E4E8F9",
"i 	c #979AA5",
"j 	c #232326",
"k 	c #C1C4D2",
"l 	c #DEE2F1",
"m 	c #D4D8E7",
"n 	c #9AA0B3",
"o 	c #9DA3B5",
"p 	c #CBD1E1",
"q 	c #E6EAFC",
"r 	c #070709",
"s 	c #666870",
"t 	c #E0E3F4",
"u 	c #DBDFEF",
"v 	c #D7DBEB",
"w 	c #E2E6F6",
"x 	c #91949D",
"y 	c #E3E6F6",
"z 	c #D9DDEC",
"A 	c #AAB0C2",
"B 	c #9AA1B4",
"C 	c #E1E5F5",
"D 	c #989BA6",
"E 	c #9597A0",
"F 	c #F6F8FF",
"G 	c #E9ECF5",
"H 	c #E6E9F4",
"I 	c #DEE1F0",
"J 	c #DFE3F1",
"K 	c #BDC2D3",
"L 	c #9DA3B7",
"M 	c #C7CBDC",
"N 	c #DEE3F3",
"O 	c #B2B6C4",
"P 	c #FFFFFF",
"Q 	c #FBFCFF",
"R 	c #E9EBF5",
"S 	c #E3E6F1",
"T 	c #F7FAFF",
"U 	c #E1E4F2",
"V 	c #E0E3F1",
"W 	c #E2E5F4",
"X 	c #D3D7E6",
"Y 	c #BABFD0",
"Z 	c #D2D7E6",
"` 	c #DDE0F0",
" .	c #E7EFFD",
"..	c #A5BADD",
"+.	c #C9D5E7",
"@.	c #E4E8F5",
"#.	c #AAB8D2",
"$.	c #B2CDEE",
"%.	c #EDEFF7",
"&.	c #E1E5F2",
"*.	c #A0A7B9",
"=.	c #9CA3B6",
"-.	c #DDE1F1",
";.	c #DEE1EF",
">.	c #A5C7F4",
",.	c #07387B",
"'.	c #648BB5",
").	c #DBE4FA",
"!.	c #284267",
"~.	c #196CC6",
"{.	c #F5F6FB",
"].	c #E0E4F2",
"^.	c #E5E8F6",
"/.	c #D1D5E4",
"(.	c #82899E",
"_.	c #000000",
":.	c #D0D4E4",
"<.	c #DCE8F7",
"[.	c #8DABCB",
"}.	c #BCCADE",
"|.	c #E1E5F3",
"1.	c #A0B2CA",
"2.	c #B1CCE9",
"3.	c #EEF0F7",
"4.	c #E2E6F3",
"5.	c #C7CCDB",
"6.	c #B2B7C8",
"7.	c #E2E6F4",
"8.	c #E0E3F2",
"9.	c #E2E4F1",
"0.	c #E8EAF7",
"a.	c #E5E9F6",
"b.	c #E4E7F4",
"c.	c #ABB1C2",
"d.	c #A7ADBF",
"e.	c #BDC3D3",
"f.	c #E6E9F7",
"g.	c #DFE2F1",
"h.	c #DDE1EF",
"i.	c #DEE3F1",
"j.	c #CED2E0",
"k.	c #9396A0",
"l.	c #84868E",
"m.	c #999BA5",
"n.	c #BDC1CC",
"o.	c #E8ECFB",
"p.	c #DDE0EF",
"q.	c #E3E7F3",
"r.	c #E8ECF7",
"s.	c #D6D9E7",
"t.	c #B8BDCD",
"u.	c #DFE3F2",
"v.	c #DDE2F1",
"w.	c #D5D8E7",
"x.	c #C9CDDA",
"y.	c #E5E9F9",
"z.	c #535459",
"A.	c #252524",
"B.	c #4F5052",
"C.	c #ECF0FF",
"D.	c #DCE1EF",
"E.	c #E0E5F2",
"F.	c #E6E9F5",
"G.	c #EDF1FC",
"H.	c #C4C8D7",
"I.	c #BEC3D3",
"J.	c #DDE0EE",
"K.	c #E3E7F4",
"L.	c #E0E4F1",
"M.	c #DCE0EF",
"N.	c #E1E6F6",
"O.	c #A2A6B0",
"P.	c #5C5D61",
"Q.	c #8F929A",
"R.	c #E3E7F7",
"S.	c #DBE0EE",
"T.	c #E2E6F2",
"U.	c #E7EBF6",
"V.	c #F1F4FE",
"W.	c #B5BBCB",
"X.	c #AFB4C5",
"Y.	c #ECF0FB",
"Z.	c #DBDFEE",
"`.	c #DADEED",
" +	c #D7DCEB",
".+	c #E9EEFF",
"++	c #D8DCEB",
"@+	c #D9DEED",
"#+	c #DADFED",
"$+	c #DDE2EF",
"%+	c #E4E8F4",
"&+	c #EAEEF8",
"*+	c #EDF0FA",
"=+	c #C7CBD9",
"-+	c #A0A6B9",
";+	c #B0B6C6",
">+	c #BCC1D0",
",+	c #EBEFF9",
"'+	c #DDE2F0",
")+	c #D7DCEC",
"!+	c #D6DBEB",
"~+	c #D7DAEB",
"{+	c #D5DAEA",
"]+	c #D8DCEC",
"^+	c #D8DDEC",
"/+	c #DFE3F0",
"(+	c #E7EAF6",
"_+	c #ECEFFA",
":+	c #E2E6F0",
"<+	c #B1B7C7",
"[+	c #9BA3B6",
"}+	c #BCC1D1",
"|+	c #C5CAD9",
"1+	c #EAEDF9",
"2+	c #DADFEE",
"3+	c #D4D9E9",
"4+	c #D4D9EA",
"5+	c #D6D9EA",
"6+	c #D6DBEA",
"7+	c #E9EDF7",
"8+	c #EFF2FC",
"9+	c #D0D4E1",
"0+	c #C3C8D7",
"a+	c #CBCFDD",
"b+	c #E9EDF8",
"c+	c #DCE0EE",
"d+	c #D3D8E9",
"e+	c #D2D7E8",
"f+	c #D1D7E8",
"g+	c #D3D7E8",
"h+	c #D4D8E9",
"i+	c #D5DBEA",
"j+	c #DBE0EF",
"k+	c #ECF0FA",
"l+	c #F0F3FC",
"m+	c #C1C6D4",
"n+	c #C3C8D6",
"o+	c #DEE3F0",
"p+	c #D9DFED",
"q+	c #D3D8E8",
"r+	c #D0D5E6",
"s+	c #CFD5E7",
"t+	c #CFD4E6",
"u+	c #CFD5E6",
"v+	c #D1D6E7",
"w+	c #E6EAF5",
"x+	c #E6E9F3",
"y+	c #9BA2B4",
"z+	c #B9BECE",
"A+	c #EDF0FB",
"B+	c #EAEDF8",
"C+	c #D0D6E6",
"D+	c #CDD2E4",
"E+	c #CCD2E4",
"F+	c #CED3E5",
"G+	c #F8FBFF",
"H+	c #C7CCD9",
"I+	c #A5ABBE",
"J+	c #B4BACB",
"K+	c #F3F6FF",
"L+	c #E6EAF6",
"M+	c #E5E9F5",
"N+	c #F1F3FE",
"O+	c #717990",
"P+	c #AFB5C6",
"Q+	c #CDD1DF",
"R+	c #E8ECF6",
"S+	c #E8EBF6",
"T+	c #CBD1E3",
"U+	c #EAEDF7",
"V+	c #E1E6F2",
"W+	c #DDE1EE",
"X+	c #DDE3EF",
"Y+	c #E4E8F3",
"Z+	c #E0E4EE",
"`+	c #AAB0C1",
" @	c #F5F8FF",
".@	c #969CB1",
"+@	c #9BA2B5",
"@@	c #9EA4B7",
"#@	c #E7EBF5",
"$@	c #E1E6F0",
"%@	c #DBDFEA",
"&@	c #E0E5EF",
"*@	c #F1F4FD",
"=@	c #E5E9F4",
"-@	c #EFF2FB",
";@	c #E5E9F2",
">@	c #A0A6B8",
",@	c #A7AEBF",
"'@	c #C1C7D5",
")@	c #E5E9F3",
"!@	c #F5F9FF",
"~@	c #A1A7BA",
"{@	c #B4B8C9",
"]@	c #E0E3EE",
"^@	c #F0F3FD",
"/@	c #EBEEF8",
"(@	c #BABFCE",
"_@	c #CED2DF",
":@	c #EFF3FC",
"<@	c #CACEDB",
"[@	c #B8BCCD",
"}@	c #D6DAE6",
"|@	c #A1A8B9",
"1@	c #D4D9E4",
"2@	c #E4E7F2",
"3@	c #C5CAD8",
"4@	c #A5AABC",
"5@	c #CBD0DC",
"6@	c #CED3DF",
"7@	c #ADB3C4",
"8@	c #DDE0EC",
"9@	c #ACB1C3",
"0@	c #E7EAF2",
"a@	c #BAC0CF",
"b@	c #949AAF",
"                  . + @ # $ .                           ",
"                . % & * = - ; >                         ",
"              , ' ) ! ~ { ] ^ / '                       ",
"            . ( _ : < [ } | 1 2 .                       ",
"          3 @ 4 5 6 7 8 9 0 | a b                       ",
"          c d e f g h i j k l m n                       ",
"        o p q r s t u v w x y z A 3                     ",
"      B   C D E F 6 d G H I J | K ,                     ",
"      L M N O P Q R S T P U V W X ' /                   ",
"      Y Z ` 0  ...+.@.#.$.%.J &.J * *.%                 ",
"    =.^ | -.;.>.,.'.).!.~.{.} ].^./.- (.                ",
"    _.:.U l | <.[.}.|.1.2.3.I V 4.^.5.%                 ",
"  n 6.7.8.J l 9.N 8.{ h 0.{ I J &.a.b.c.'               ",
"  d.e.f.U 8.g.h.i.j.k.l.m.n.o.p.V q.r.s.t.              ",
"    a.4.|.].u.h.v.w.x.y.z.A.B.C.D.E.F.G.H.3             ",
"  I.J.K.&.L.l h.M.u u N.O.P.Q.R.S.h.T.U.V.W.. %         ",
"+ X.Y.K.|.J } M.Z.`.z  +N .+N.++@+#+$+%+&+*+=+-+        ",
";+>+,+K.&.J '+S.d z )+!+~+{+!+ +]+^+`./+(+_+:+<+[+      ",
"}+|+1+K.&.J h.2+^+v {+3+3+4+4+3+5+6+ +Z.].7+8+9+3 3     ",
"0+a+b+4.L.} c+2+@+ +4 d+e+f+e+e+g+h+i+ +j+4.k+l+m++ %   ",
"n+8 &+K.L.} o+E.4.].p+q+r+s+t+u+v+e+{+!+^+h.w+l+x+;+y+  ",
"z+0+A+q.&.T.U.&+B+b+w+S.C+D+E+F+3+D.} #+@+Z.L.7+G+H+% ' ",
"I+J+K+L+M+b+N+O+P+Q+R+S+]+E+T+u+L.&+7+U+V+W+X+Y+l+Z+`++ ",
"    9+8+,+ @.@3   +@@@#@(+^+d+c+*+$@%@&@*@7+=@M+-@;@`+>@",
"  ,@'@)@!@' ~@      {@]@^@/@b+V.V.    (@_@K+ @:@T <@d.~@",
"    [@}@P @@          |@1@:@2@3@        4@  5@l+6@7@    ",
"                      `+  :@8@A           X.9@0@a@b@    ",
"                                                        "};
