/* XPM */
static char * ghost_invisible_24x24_xpm[] = {
"24 24 182 2",
"  	c None",
". 	c #BFC4D5",
"+ 	c #AAB0C2",
"@ 	c #D6DAEB",
"# 	c #DBDEEE",
"$ 	c #DCE1F0",
"% 	c #D6DBEA",
"& 	c #A6ACBD",
"* 	c #CED3E4",
"= 	c #DADFEF",
"- 	c #D9DEED",
"; 	c #D9DCEC",
"> 	c #DDE1F0",
", 	c #DCE0EF",
"' 	c #B5BBCC",
") 	c #E2E6F8",
"! 	c #CED2E2",
"~ 	c #DADDEE",
"{ 	c #D4D8E7",
"] 	c #63646C",
"^ 	c #C3C6D4",
"/ 	c #DEE3F1",
"( 	c #BCC1D2",
"_ 	c #9496A2",
": 	c #DBDFEE",
"< 	c #D9DDED",
"[ 	c #CFD3E2",
"} 	c #9497A1",
"| 	c #E5E9F9",
"1 	c #C9CEDD",
"2 	c #9DA0AB",
"3 	c #A9ABB4",
"4 	c #F0F3FF",
"5 	c #DADEEE",
"6 	c #DFE2F1",
"7 	c #EDEFF7",
"8 	c #E1E4F3",
"9 	c #DFE3F1",
"0 	c #A7ADBF",
"a 	c #AFB4C6",
"b 	c #E0E4F3",
"c 	c #FFFFFF",
"d 	c #FCFEFF",
"e 	c #DDE0F0",
"f 	c #F8F9FC",
"g 	c #E7E9F4",
"h 	c #E5E9F6",
"i 	c #CCD1E1",
"j 	c #DEE1F1",
"k 	c #DEE1EF",
"l 	c #B5CDF3",
"m 	c #436CA8",
"n 	c #D5DAEA",
"o 	c #9EB2D6",
"p 	c #3867A3",
"q 	c #E7EEFA",
"r 	c #DEE2F0",
"s 	c #E1E5F3",
"t 	c #E5E8F6",
"u 	c #A1A7BA",
"v 	c #E5E8F7",
"w 	c #DFE1EF",
"x 	c #A5C5EB",
"y 	c #245689",
"z 	c #D4D9E9",
"A 	c #9EB7D4",
"B 	c #28629D",
"C 	c #E9F0FB",
"D 	c #E0E4F2",
"E 	c #E4E7F5",
"F 	c #DDE2F1",
"G 	c #EDEDF5",
"H 	c #E5EBF9",
"I 	c #E8EBF8",
"J 	c #F2F4FF",
"K 	c #E6E9F5",
"L 	c #DEE1F0",
"M 	c #E0E4F1",
"N 	c #E2E6F4",
"O 	c #E5E8F5",
"P 	c #B4BACA",
"Q 	c #DCE0EE",
"R 	c #E0E3F1",
"S 	c #DDE1EF",
"T 	c #E1E5F4",
"U 	c #B2B6C2",
"V 	c #898C96",
"W 	c #9799A3",
"X 	c #C0C4D0",
"Y 	c #EBEFFF",
"Z 	c #E1E4F2",
"` 	c #DBDEEB",
" .	c #DFE3F2",
"..	c #DFE3F3",
"+.	c #C7CBD8",
"@.	c #DADEED",
"#.	c #8C8F98",
"$.	c #21201F",
"%.	c #5B5C5F",
"&.	c #E9EDFE",
"*.	c #DEE3F0",
"=.	c #E3E7F4",
"-.	c #CBCFDE",
";.	c #E1E6F3",
">.	c #DEE2F1",
",.	c #DBDFEF",
"'.	c #DADFEE",
").	c #C8CDDA",
"!.	c #93969F",
"~.	c #B3B7C2",
"{.	c #DEE2F2",
"].	c #DBE0EE",
"^.	c #E5E9F5",
"/.	c #F0F3FD",
"(.	c #C8CDDB",
"_.	c #E2E6F3",
":.	c #DBE0EF",
"<.	c #D8DDEC",
"[.	c #D8DCEC",
"}.	c #D8DDED",
"|.	c #E9ECF7",
"1.	c #D0D5E2",
"2.	c #DDE2F0",
"3.	c #D7DBEB",
"4.	c #D6DAEA",
"5.	c #D6DBEB",
"6.	c #D8DCEB",
"7.	c #DBDFED",
"8.	c #E1E5F0",
"9.	c #A8AFC0",
"0.	c #D5D9E6",
"a.	c #E2E6F2",
"b.	c #DFE3F0",
"c.	c #DCE1EF",
"d.	c #D2D8E8",
"e.	c #D2D7E8",
"f.	c #D3D7E8",
"g.	c #D4D8E9",
"h.	c #E5E9F4",
"i.	c #F2F6FE",
"j.	c #9FA5B8",
"k.	c #D6DAE6",
"l.	c #E1E5F2",
"m.	c #E0E5F2",
"n.	c #D5DAE9",
"o.	c #D1D5E6",
"p.	c #CFD5E7",
"q.	c #CFD4E6",
"r.	c #D0D5E6",
"s.	c #D1D6E7",
"t.	c #D3D8E8",
"u.	c #E9EDF7",
"v.	c #F2F5FE",
"w.	c #C8CCD9",
"x.	c #D1D6E4",
"y.	c #E7EAF6",
"z.	c #E7EBF6",
"A.	c #EAEDF8",
"B.	c #CDD2E4",
"C.	c #CCD2E4",
"D.	c #CFD4E5",
"E.	c #E1E6F2",
"F.	c #EDF1FA",
"G.	c #A7ACBE",
"H.	c #C9CDDB",
"I.	c #CFD5E6",
"J.	c #CBD1E3",
"K.	c #EBEFF9",
"L.	c #EBEFF8",
"M.	c #DFE4F0",
"N.	c #EFF2FB",
"O.	c #BABFCE",
"P.	c #ECF0F9",
"Q.	c #F1F4FD",
"R.	c #E9ECF8",
"S.	c #F1F4FC",
"T.	c #EEF1FA",
"U.	c #B6BCCB",
"V.	c #EFF2FC",
"W.	c #EDF0FA",
"X.	c #F0F3FB",
"Y.	c #DCDFEA",
"                                                ",
"                      . +                       ",
"                @ # $   % &                     ",
"            * =   - ; > , '                     ",
"            ) ! ~ { ] ^ / (                     ",
"              _ : < [ } | 1                     ",
"          2 3 4 5 6 7 8 9 # 0                   ",
"      a b   c d e f c g 6 h                     ",
"      i j k l m n o p q r s t u                 ",
"      v r w x y z A B C > D E                   ",
"      D 9 F G H b I J K L M N O P               ",
"    Q   R 6 S T U V W X Y S Z K `               ",
"      s D  .S ..+.@.#.$.%.&.*.=.  -.            ",
"    =.;.M >.S ,., '.).!.~.{.].r ^./.            ",
"  (.  _.D r :.5 - <.[.= }.<.- '.M |.            ",
"  1.^._.R 2.'.< 3.n n z n 4.5.6.7._.  8.9.      ",
"  0.O a.b.c.5 <.n z d.d.e.f.g.n [.:.h.i.  j.    ",
"  k.^.l.b.*.m.l.2.n.o.p.q.r.s.t.5.<.r u.v.w.    ",
"  x.y.l.  z.  h.A.a.  B.C.D.- M c.- : E.F.  G.  ",
"        A.      H.  M I.J.  K.8.L.  M.M.z.N.O.  ",
"    P.F.            Q.    R.      S.T.  L.  U.  ",
"                      V.W.            X.  Y.    ",
"                                                ",
"                                                "};
