<?xml version="1.0" encoding="UTF-8"?>
<svg id="svg6002" width="128" height="128"
   xmlns="http://www.w3.org/2000/svg"
   xmlns:xlink="http://www.w3.org/1999/xlink"
   inkscape:export-filename="../gaf-pdf.png"
   inkscape:export-xdpi="90"
   inkscape:export-ydpi="90">
 <defs id="defs6004">
  <linearGradient id="linearGradient3034" x1="-3723.2" x2="-3647.7" y1="-209.32" y2="-40.623" gradientTransform="matrix(.7207 0 0 .69447 2721.7 603.97)" gradientUnits="userSpaceOnUse">
   <stop id="stop7169" stop-color="#484848" offset="0"/>
   <stop id="stop7171" stop-color="#fff" offset="1"/>
  </linearGradient>
  <linearGradient id="linearGradient3036" x1="14.921" x2="105.52" y1="257.86" y2="378.97" gradientTransform="matrix(.16812 0 0 .16812 -62.77 441.45)" gradientUnits="userSpaceOnUse">
   <stop id="stop3509" stop-color="#fff" offset="0"/>
   <stop id="stop3511" stop-color="#fff" stop-opacity="0" offset="1"/>
  </linearGradient>
 </defs>
 <g id="layer1" transform="translate(-15.371 -474.58)">
  <g id="gaf-pdf">
   <path id="rect5414" d="m44.964 476.67 54.683 0.17539c13.666 7.3063 40.648 26.338 40.767 37.374l0.36403 86.265h-95.815v-123.81z" color="#000000" display="block" fill="url(#linearGradient3034)" stroke="#a4a4a4" stroke-width="4.1854"/>
   <g id="g3038" transform="matrix(.95343 0 0 1.0013 15.853 2.4024)" fill="none">
    <path id="path3537" d="m54.295 587.58c3.4101 12.666 35.606-17.362 50.324-64.94 4.5973-16.022-7.1986-12.487-8.0777-0.70502-2.8094 37.651 16.614 69.297 24.147 62.474 10.063-7.1395-12.691-17.705-28.618-15.665-7.6978 0.98565-41.255 5.6595-37.775 18.837z" stroke="#000" stroke-opacity=".18113" stroke-width="7.3661"/>
    <path id="path4539" d="m51.656 585.49c3.4101 12.666 35.606-17.362 50.324-64.94 4.5973-16.022-7.1986-12.487-8.0777-0.70502-2.8094 37.651 16.614 69.297 24.147 62.474 10.063-7.1395-12.691-17.705-28.618-15.665-7.6978 0.98564-41.255 5.6595-37.775 18.837z" stroke="#f10000" stroke-width="2.4906"/>
   </g>
   <path id="path7176" d="m96.95 484.08s4.583 7.3873 9.1927 21.625c21.655-5.9781 25.511 1.3686 25.511 1.3686-4.9136-14.039-30.492-21.941-34.703-22.994z" fill="#fff" fill-rule="evenodd"/>
   <g id="button" transform="matrix(1.0581 0 0 1.2523 80.925 -120.51)">
    <path id="rect2622" d="m-59.084 486.85h70.132c1.5259 8.3057 1.3712 26.105 0 34.166h-70.132c-1.8924-8.5221-1.7026-26.775 0-34.166z" color="#000000" display="block" fill="#f70000" stroke="#ca0000" stroke-width="2.7908"/>
    <path id="rect2632" d="m-58.207 488.44 27.511 0.20294-5.943 24.635-22.408-1.6847c-0.41177-6.0936-0.61794-13.875 0.84062-23.153z" color="#000000" display="block" fill="url(#linearGradient3036)"/>
   </g>
   <text id="text3017" transform="scale(.85909 1.164)" x="26.357088" y="452.55096" fill="#ffffff" font-family="Arial" font-size="38.71px" xml:space="preserve"><tspan id="tspan3019" x="26.357088" y="452.55096">PDF</tspan></text>
  </g>
 </g>
</svg>
