<?xml version="1.0" encoding="UTF-8"?>
<svg id="svg2" width="128" height="128"
   xmlns="http://www.w3.org/2000/svg"
   xmlns:xlink="http://www.w3.org/1999/xlink"
   inkscape:export-filename="../geda_box.png"
   inkscape:export-xdpi="90"
   inkscape:export-ydpi="90">
 <defs id="defs4">
  <linearGradient id="linearGradient3224">
   <stop id="stop3226" stop-color="#53301a" offset="0"/>
   <stop id="stop3228" stop-color="#8d5632" offset="1"/>
  </linearGradient>
  <linearGradient id="linearGradient3130" x1="426.15" x2="435.38" y1="462.36" y2="480.36" gradientTransform="matrix(.73294 0 0 .58904 910.07 -136.95)" gradientUnits="userSpaceOnUse">
   <stop id="stop2803" stop-color="#f8f8f8" offset="0"/>
   <stop id="stop2805" stop-color="#f8f8f8" stop-opacity="0" offset="1"/>
  </linearGradient>
  <linearGradient id="linearGradient3133" x1="171.91" x2="126.18" y1="537.62" y2="501.19" gradientTransform="matrix(.74448 0 0 .59544 1109.1 -135.48)" gradientUnits="userSpaceOnUse">
   <stop id="stop11119" stop-color="#814b29" offset="0"/>
   <stop id="stop2872" stop-color="#a2633a" offset="1"/>
  </linearGradient>
  <linearGradient id="linearGradient3136" x1="65.943" x2="66.346" y1="560.09" y2="499.36" gradientTransform="matrix(.74948 0 0 .58903 1109.6 -132.7)" gradientUnits="userSpaceOnUse">
   <stop id="stop10226" stop-color="#b8804d" offset="0"/>
   <stop id="stop3759" stop-color="#cd986e" offset="1"/>
  </linearGradient>
  <linearGradient id="linearGradient3139" x1="369.25" x2="359.04" y1="453.82" y2="494.76" gradientTransform="matrix(.73294 0 0 .58904 910.07 -136.95)" gradientUnits="userSpaceOnUse">
   <stop id="stop11045" stop-color="#fff" offset="0"/>
   <stop id="stop11047" stop-color="#fff" stop-opacity="0" offset="1"/>
  </linearGradient>
  <linearGradient id="linearGradient3144" x1="346.82" x2="343.72" y1="136.25" y2="103.83" gradientTransform="matrix(-.41379 0 0 .58904 1287.6 67.451)" gradientUnits="userSpaceOnUse" xlink:href="#linearGradient3224"/>
  <linearGradient id="linearGradient3149" x1="394.2" x2="396.42" y1="150.25" y2="112.33" gradientTransform="matrix(.73294 0 0 .58904 910.07 67.451)" gradientUnits="userSpaceOnUse" xlink:href="#linearGradient3224"/>
  <linearGradient id="linearGradient3154" x1="137.43" x2="82.748" y1="431.25" y2="342.44" gradientTransform="matrix(.75359 0 0 .59339 1107.4 -133.49)" gradientUnits="userSpaceOnUse">
   <stop id="stop7551" stop-color="#c9996a" offset="0"/>
   <stop id="stop16449" stop-color="#c9996a" stop-opacity=".49804" offset="1"/>
   <stop id="stop3112" stop-color="#c9996a" stop-opacity="0" offset="1"/>
  </linearGradient>
  <linearGradient id="linearGradient3157" x1="24.093" x2="-36.576" y1="438" y2="354.82" gradientTransform="matrix(.74038 0 0 .59827 1109 -136.3)" gradientUnits="userSpaceOnUse">
   <stop id="stop8440" stop-color="#ba875d" offset="0"/>
   <stop id="stop6181" stop-color="#f2e8e0" offset="1"/>
   <stop id="stop8442" stop-color="#ba875d" stop-opacity="0" offset="1"/>
  </linearGradient>
  <linearGradient id="linearGradient3239" x1="22.75" x2="23.063" y1="40.001" y2="36.472" gradientUnits="userSpaceOnUse">
   <stop id="stop3271-8" stop-color="#fecb81" offset="0"/>
   <stop id="stop3273-2" stop-color="#fcaf3e" offset="1"/>
  </linearGradient>
  <linearGradient id="linearGradient3241" x1="17.25" x2="17.25" y1="41.147" y2="36.103" gradientUnits="userSpaceOnUse">
   <stop id="stop3286-4" stop-color="#ce5c00" offset="0"/>
   <stop id="stop3288-5" stop-color="#f57900" offset="1"/>
  </linearGradient>
  <linearGradient id="linearGradient3243" x1="18.875" x2="18.875" y1="36.16" y2="37.916" gradientUnits="userSpaceOnUse">
   <stop id="stop3278-1" stop-color="#fff" offset="0"/>
   <stop id="stop3280-9" stop-color="#fff" stop-opacity="0" offset="1"/>
  </linearGradient>
 </defs>
 <g id="g3163" transform="matrix(.21661 0 0 .21497 -192.63 -17.404)" fill-rule="evenodd">
  <path id="path2210" d="m916.7 161.91-20.849-29.746 153.3-43.628 62.548 83.575-1.2265 29.461-193.78-39.662z" fill="url(#linearGradient3157)" stroke-width=".20258"/>
  <path id="path2212" d="m1110.6 172.02 207.68 35.573 89.178-32.687 20.768-44.564-274.87-42.009-42.757 83.688z" fill="url(#linearGradient3154)" stroke-width="0"/>
  <path id="path2214" d="m1111.7 170.97-1.2134 30.808 78.874 15.404 60.672 60.654 69.166-71.244-207.5-35.622z" fill="url(#linearGradient3149)" stroke-width="0"/>
  <path id="path3232" d="m1111.4 171.39-1.0377 30.808-44.397 14.978-34.254 60.654-39.049-71.244 118.74-35.196z" fill="url(#linearGradient3144)" stroke-width="0"/>
  <path id="path14603" d="m1111.5 171.25-153.52 45.82" fill="#c87137" stroke="#a16644" stroke-linejoin="round" stroke-width=".32853"/>
  <path id="path3242" d="m1111.4 171.21-1.4203 51.446" fill="#c87137" stroke="#a16644" stroke-linejoin="round" stroke-width=".32853"/>
  <path id="path2206" d="m900.53 159.11 289.77 54.83 62.6 62.71-296.42-57.76-55.95-59.78z" fill="#a3693c" stroke="url(#linearGradient3139)" stroke-linecap="round" stroke-linejoin="round" stroke-width=".53288"/>
  <path id="path2204" d="m956.53 218.73 294.49 57.178-1.6802 266.52-280.62-72.96-12.15-250.74z" fill="url(#linearGradient3136)" stroke-width=".106"/>
  <path id="path2219" d="m1250.9 275.89 138.14-57.073-7.7358 251.91-132.01 71.704 1.6091-266.54z" fill="url(#linearGradient3133)" stroke-width="0"/>
  <path id="path2217" d="m1250.9 276.2 136.47-55.912 71.223-65.691-151.18 48.995-56.522 72.608z" fill="#71472d" stroke="url(#linearGradient3130)" stroke-linecap="round" stroke-linejoin="round" stroke-width=".32853"/>
 </g>
 <g id="g3813" transform="matrix(3.4337 0 0 3.714 12.259 -41.61)" enable-background="new" stroke-dashoffset="1.4" stroke-linecap="round" stroke-width="2.1738">
  <path id="path3815" d="m15.5 35.5h17l-8.5 9-8.5-9z" color="#000000" fill="url(#linearGradient3239)" stroke="url(#linearGradient3241)" stroke-linejoin="round"/>
  <path id="path3817" transform="translate(0,2)" d="m20.281 35.562 3.719 3.938 3.7188-3.9375h-7.4375z" color="#000000" fill="none" opacity=".7" stroke="url(#linearGradient3243)"/>
 </g>
</svg>
