<?xml version="1.0" encoding="UTF-8"?>
<svg id="svg6025" width="18.0" height="18.0"
   xmlns="http://www.w3.org/2000/svg"
   xmlns:xlink="http://www.w3.org/1999/xlink"
   inkscape:export-filename="../geda-open-recent.png"
   inkscape:export-xdpi="110.0"
   inkscape:export-ydpi="110.0">
 <defs id="defs6027">
  <linearGradient id="linearGradient5704">
   <stop id="stop5706" stop-color="#5a5a5a" offset="0"/>
   <stop id="stop5708" offset="1"/>
  </linearGradient>
  <linearGradient id="linearGradient3017" x1="283.98" x2="279.48" y1="25.258" y2="21.16" gradientTransform="matrix(1.3318 0 0 1.3279 -361.69 -25.101)" gradientUnits="userSpaceOnUse">
   <stop id="stop5736" stop-color="#8ab3df" offset="0"/>
   <stop id="stop5738" stop-color="#fff" offset="1"/>
  </linearGradient>
  <linearGradient id="linearGradient3019" x1="279.64" x2="283.11" y1="22.038" y2="25.592" gradientTransform="matrix(1.3318 0 0 1.3279 -361.69 -25.101)" gradientUnits="userSpaceOnUse" xlink:href="#linearGradient5704"/>
  <linearGradient id="linearGradient3280" x1="272.96" x2="276.83" y1="24.096" y2="29.518" gradientTransform="matrix(1.3021 0 0 1.204 -350.43 -23.333)" gradientUnits="userSpaceOnUse">
   <stop id="stop1888" stop-color="#fffdf8" offset="0"/>
   <stop id="stop1889" stop-color="#cdccc7" offset="1"/>
  </linearGradient>
  <linearGradient id="linearGradient3282" x1="273.12" x2="278.53" y1="24.153" y2="28.991" gradientTransform="matrix(1.3021 0 0 1.204 -351.08 -25.139)" gradientUnits="userSpaceOnUse" xlink:href="#linearGradient5704"/>
 </defs>
 <use id="use5610" transform="matrix(1.1278 0 0 1.0727 4.1213 3.4584)" width="1250" height="1250" xlink:href="#rect6425"/>
 <use id="use5608" transform="matrix(1.0667 0 0 1.0517 2.0592 1.5241)" width="1250" height="1250" xlink:href="#rect6425"/>
 <path id="rect6425" d="m5.0327 0.7409h6.5103v12.04h-10.417v-8.4277l3.9062-3.6119z" color="#000000" fill="url(#linearGradient3280)" fill-rule="evenodd" stroke="url(#linearGradient3282)" stroke-linecap="round" stroke-linejoin="round" stroke-width="1.252"/>
  <g
     id="clock"
     transform="translate(0.09235794,-0.39075782)">
    <path
       d="m 16.526596,5.440067 a 3.995277,3.983607 0 0 1 -7.990554,0 3.995277,3.983607 0 1 1 7.990554,0 z"
       id="path6398"
       style="color:#000000;fill:url(#linearGradient3017);fill-opacity:1;fill-rule:evenodd;stroke:url(#linearGradient3019);stroke-width:0.94679987;stroke-linecap:round;stroke-linejoin:round;stroke-miterlimit:0;stroke-opacity:1;stroke-dasharray:none;stroke-dashoffset:0;marker:none;display:inline"/>
    <path
       d="m 12,2.89707 1,-1 0,4 -1,0 0,-3 z"
       id="rect4108"
       style="color:#000000;fill:#000000;fill-opacity:1;fill-rule:evenodd;stroke:none;stroke-width:1;marker:none;display:inline"/>
    <path
       d="m 11,4.89257 2,0 0,1 -3,0 1,-1 z"
       id="rect4110"
       style="color:#000000;fill:#000000;fill-opacity:1;fill-rule:evenodd;stroke:none;stroke-width:1;marker:none;display:inline"/>
  </g>
 </g>
 <path id="path4704" d="m1.215 4.3154 3.7379-0.026399 0.015276-3.4464z" fill="none" stroke="#008000" stroke-linecap="round" stroke-linejoin="round" stroke-width="1.1416px"/>
</svg>
