<?xml version="1.0" encoding="UTF-8"?>
<svg id="svg2985" width="48px" height="48px"
   xmlns="http://www.w3.org/2000/svg"
   xmlns:xlink="http://www.w3.org/1999/xlink"
   inkscape:export-filename="../geda-pin.png"
   inkscape:export-xdpi="90.0"
   inkscape:export-ydpi="90.0">
 <defs id="defs2987">
  <radialGradient id="radialGradient3008" cx="24.788" cy="13.342" r="13.93" gradientTransform="matrix(1.0443 -.0031658 .0020619 .33468 -1.6036 3.0408)" gradientUnits="userSpaceOnUse">
   <stop id="stop3765" stop-opacity=".61392" offset="0"/>
   <stop id="stop3767" stop-opacity=".76582" offset="1"/>
  </radialGradient>
  <linearGradient id="linearGradient3010" x1="21.77" x2="27.374" y1="33.163" y2="33.163" gradientTransform="matrix(.83484 0 0 1.2172 4.008 -5.3922)" gradientUnits="userSpaceOnUse">
   <stop id="stop3857" stop-color="#343434" offset="0"/>
   <stop id="stop3859" stop-color="#343434" stop-opacity=".72785" offset="1"/>
  </linearGradient>
 </defs>
 <g id="layer1">
  <g id="g2999" transform="matrix(1.0289 0 0 1.0191 -.45851 -1.335)">
   <path id="path2993" d="m32.289 7.4592-15.961-0.063331" fill="none" stroke="url(#radialGradient3008)" stroke-width="11px"/>
   <path id="path2993-3" d="m24.437 12.881-0.03744 11.567" fill-opacity=".56429" stroke="#424242" stroke-opacity=".87843" stroke-width="12.497px"/>
   <path id="path2993-3-1" d="m24.523 23.981-0.0018 21.988" stroke="url(#linearGradient3010)" stroke-opacity=".87843" stroke-width="5.6462"/>
   <rect id="rect3827" transform="matrix(.43006 -.9028 .9028 .43006 0 0)" x="-10.488" y="35.312" width="9.5714" height="9.5714" fill="#fff"/>
   <rect id="rect3827-5" transform="matrix(.89258 -.45089 .45089 .89258 0 0)" x="-1.1216" y="22.044" width="9.5714" height="9.5714" fill="#fff"/>
   <rect id="rect3827-0" transform="matrix(.4377 -.89912 .90637 .42249 0 0)" x="-31.018" y="43.829" width="3.2951" height="3.3404" fill="#fff"/>
   <rect id="rect3827-0-3" transform="matrix(.86001 -.51028 .56884 .82245 0 0)" x="-10.662" y="48.352" width="3.4097" height="3.0787" fill="#fff"/>
  </g>
 </g>
</svg>
