<?xml version="1.0" encoding="UTF-8"?>
<svg id="svg2" width="128" height="128"
   xmlns="http://www.w3.org/2000/svg"
   xmlns:xlink="http://www.w3.org/1999/xlink"
   inkscape:export-filename="../geda-inspect-grn.png"
   inkscape:export-xdpi="90"
   inkscape:export-ydpi="90">
 <defs id="defs10">
  <linearGradient id="linearGradient4919">
   <stop id="stop4921" stop-color="#429eff" offset="0"/>
   <stop id="stop4923" stop-color="#0044a7" offset="1"/>
  </linearGradient>
  <linearGradient id="linearGradient4952">
   <stop id="stop4954" stop-color="#fff" offset="0"/>
   <stop id="stop4956" stop-color="#fff" stop-opacity="0" offset="1"/>
  </linearGradient>
  <linearGradient id="linearGradient2617">
   <stop id="stop2619" stop-color="#fbfbfa" offset="0"/>
   <stop id="stop2621" stop-color="#d3d7cf" offset="1"/>
  </linearGradient>
  <linearGradient id="linearGradient2698">
   <stop id="stop2700" stop-color="#555753" offset="0"/>
   <stop id="stop2706" stop-color="#a3a5a2" offset=".70238"/>
   <stop id="stop2702" stop-color="#888a85" offset="1"/>
  </linearGradient>
  <linearGradient id="linearGradient2690">
   <stop id="stop2692" stop-color="#2e3436" offset="0"/>
   <stop id="stop2694" stop-color="#555753" offset="1"/>
  </linearGradient>
  <linearGradient id="linearGradient19900">
   <stop id="stop19902" stop-color="#888a85" offset="0"/>
   <stop id="stop19904" stop-color="#d3d7cf" offset="1"/>
  </linearGradient>
  <linearGradient id="linearGradient19914">
   <stop id="stop19916" offset="0"/>
   <stop id="stop19918" stop-opacity="0" offset="1"/>
  </linearGradient>
  <linearGradient id="linearGradient2609">
   <stop id="stop2611" stop-color="#fff" offset="0"/>
   <stop id="stop2613" stop-color="#eeeeec" offset="1"/>
  </linearGradient>
  <linearGradient id="linearGradient23434">
   <stop id="stop23436" stop-color="#888a85" offset="0"/>
   <stop id="stop23438" stop-color="#babdb6" offset="1"/>
  </linearGradient>
  <linearGradient id="linearGradient4931">
   <stop id="stop4933" stop-color="#babdb6" offset="0"/>
   <stop id="stop4935" stop-color="#888a85" offset="1"/>
  </linearGradient>
  <radialGradient id="radialGradient3151" cx="17.062" cy="28.851" r="13.5" gradientTransform="matrix(1.4595 0 0 1.3453 -7.4031 -10.822)" gradientUnits="userSpaceOnUse" xlink:href="#linearGradient4919"/>
  <radialGradient id="radialGradient3153" cx="16.83" cy="24.744" r="16.925" gradientTransform="matrix(.81539 -.21865 .19377 .72374 130.72 31.879)" gradientUnits="userSpaceOnUse" xlink:href="#linearGradient4952"/>
  <radialGradient id="radialGradient3155" cx="59.787" cy="10.902" r="10.556" gradientTransform="matrix(0 -1.6866 1.6634 0 41.654 111.74)" gradientUnits="userSpaceOnUse" xlink:href="#linearGradient2617"/>
  <linearGradient id="linearGradient3157" x1="81.332" x2="82.92" y1="55.107" y2="53.511" gradientUnits="userSpaceOnUse" xlink:href="#linearGradient2698"/>
  <linearGradient id="linearGradient3159" x1="81.096" x2="83.629" y1="57.148" y2="54.615" gradientUnits="userSpaceOnUse" xlink:href="#linearGradient2690"/>
  <linearGradient id="linearGradient3161" x1="40.25" x2="43.062" y1="41" y2="38.435" gradientTransform="matrix(.36543 0 0 .36571 141.59 37.913)" gradientUnits="userSpaceOnUse" xlink:href="#linearGradient19900"/>
  <linearGradient id="linearGradient3163" x1="33.985" x2="37.211" y1="32.046" y2="35.272" gradientTransform="matrix(.36543 0 0 .36571 141.59 37.913)" gradientUnits="userSpaceOnUse" xlink:href="#linearGradient19914"/>
  <radialGradient id="radialGradient3165" cx="45.095" cy="-2.6937" r="10.498" gradientTransform="matrix(0 1.1434 -1.2472 -1.2486e-6 41.735 -54.257)" gradientUnits="userSpaceOnUse" xlink:href="#linearGradient2609"/>
  <linearGradient id="linearGradient3167" x1="55.878" x2="52.5" y1="12.472" y2="-4.6214" gradientUnits="userSpaceOnUse" xlink:href="#linearGradient23434"/>
  <linearGradient id="linearGradient3169" x1="54.113" x2="50.08" y1="12.847" y2="-3.8814" gradientUnits="userSpaceOnUse" xlink:href="#linearGradient4931"/>
  <radialGradient id="radialGradient3171" cx="8.0402" cy="9.528" r="9.8125" gradientTransform="matrix(.94683 0 0 .94683 .46935 .49926)" gradientUnits="userSpaceOnUse" xlink:href="#linearGradient4952"/>
 </defs>
 <g id="geda-inspect-grn">
  <g id="geda-check-grn" transform="matrix(.8992 0 0 .78051 13.221 28.049)">
   <path id="path4068" d="m0.79328 76.641 40.313 50.565c20.54-45.255 45.685-86.887 86.101-126.41-30.248 18.448-63.591 53.48-92.073 96.827l-34.341-20.979z" fill="#0f0" stroke="#101010" stroke-width="1.5866"/>
  </g>
  <g id="g3137" transform="matrix(0 5.746 -5.4824 0 299.58 -821.82)">
   <path id="path1425" transform="matrix(.43311 0 0 .42555 142.05 37.46)" d="m31 18.25c0 7.5939-6.0442 13.75-13.5 13.75s-13.5-6.1561-13.5-13.75 6.0442-13.75 13.5-13.75 13.5 6.1561 13.5 13.75z" color="#000000" fill="url(#radialGradient3151)" opacity=".6"/>
   <path id="path4939" d="m149.42 39.193c-3.1121 0.1185-5.6017 2.6877-5.6017 5.831 0 0.8839 0.51274 1.7268 0.9104 2.4546-0.17251-1.9851 0.68212-2.4185 1.2496-2.2422 1.7218 0.53491 4.7095 1.0211 7.779-0.58275 1.0761-0.56226 1.7036 0.81534 1.6606-0.42283-0.3433-2.8506-2.8248-5.0378-5.7731-5.0378-0.0754 0-0.15024-3e-3 -0.22493 0z" color="#000000" fill="url(#radialGradient3153)" opacity=".5"/>
   <path id="path2607" transform="matrix(.58469 0 0 .58513 118.93 42.594)" d="m62.5 4.5c0 5.5228-4.4772 10-10 10s-10-4.4772-10-10c0-5.5228 4.4772-10 10-10s10 4.4772 10 10z" color="#000000" fill="none" stroke="url(#radialGradient3155)" stroke-linecap="round" stroke-width="1.875"/>
   <g id="g2708" transform="matrix(.56425 0 0 .56173 110.68 21.659)">
    <path id="path2682" d="m76.796 49.768 0.64765 3.2552 5.1812 5.2135c0.1925 0.1937 0.97147 0.3203 1.9429-0.65625 0.97147-0.97655 0.89557-1.7039 0.64765-1.9531l-5.1812-5.2083-3.2382-0.65104z" color="#000000" fill="url(#linearGradient3157)" stroke="url(#linearGradient3159)" stroke-linecap="round" stroke-linejoin="round" stroke-width=".67653"/>
    <path id="path2687" d="m79.567 51.32c-3e-3 0.0112 0.2941 0.32432-0.24529 0.86498-0.5394 0.54066-1.0071 0.37399-0.99349 0.36026l-0.26915-1.5216 1.5079 0.29634z" color="#000000" fill="#fff" opacity=".19216"/>
   </g>
   <path id="path17267" d="m154.48 50.083 0.22751 1.1707 2.7406 2.7607c0.13478 0.13576 0.34125 0.0797 0.68252-0.26184 0.34126-0.34151 0.42925-0.51245 0.25981-0.68303l-2.7406-2.7588-1.1698-0.22768z" color="#000000" fill="none" stroke="url(#linearGradient3161)" stroke-linecap="round" stroke-width=".36557"/>
   <path id="path19908" d="m153.95 49.429c-0.0949 0.032-0.14886 0.13167-0.12343 0.22821l0.37028 1.8256c9e-3 0.0336 0.0276 0.0639 0.0529 0.0878l2.9094 2.9316c0.1304 0.13061 0.32723 0.16878 0.56426 0.12287 0.23701-0.046 0.51613-0.19633 0.81109-0.49152 0.29254-0.29276 0.44332-0.55467 0.49373-0.78994 0.0503-0.23526 5e-3 -0.45063-0.12342-0.57929l-2.927-2.914c-0.0288-0.0282-0.0658-0.0467-0.1058-0.0527l-1.8162-0.36864c-0.0346-0.0101-0.0712-0.0101-0.10579 0z" color="#000000" fill="url(#linearGradient3163)" opacity=".15294"/>
   <path id="path2605" transform="matrix(.60297 0 0 .60342 117.97 42.511)" d="m62.5 4.5c0 5.5228-4.4772 10-10 10s-10-4.4772-10-10c0-5.5228 4.4772-10 10-10s10 4.4772 10 10z" color="#000000" fill="none" stroke="url(#radialGradient3165)" stroke-linecap="round" stroke-width=".60606"/>
   <path id="path2599" transform="matrix(.63951 0 0 .63999 116.05 42.347)" d="m62.5 4.5c0 5.5228-4.4772 10-10 10s-10-4.4772-10-10c0-5.5228 4.4772-10 10-10s10 4.4772 10 10z" color="#000000" fill="none" stroke="url(#linearGradient3167)" stroke-linecap="round" stroke-width=".57143"/>
   <path id="path4927" transform="matrix(.53104 0 0 .53144 121.75 42.835)" d="m62.5 4.5c0 5.5228-4.4772 10-10 10s-10-4.4772-10-10c0-5.5228 4.4772-10 10-10s10 4.4772 10 10z" color="#000000" fill="none" stroke="url(#linearGradient3169)" stroke-linecap="round" stroke-width=".68815"/>
   <path id="path11092" transform="matrix(.48414 0 0 .48451 143.64 38.958)" d="m22.188 12.938c0 5.4193-4.3932 9.8125-9.8125 9.8125-5.4193 0-9.8125-4.3932-9.8125-9.8125 0-5.4193 4.3932-9.8125 9.8125-9.8125 5.4193 0 9.8125 4.3932 9.8125 9.8125z" color="#000000" fill="url(#radialGradient3171)" opacity=".16078"/>
  </g>
 </g>
</svg>
