<?xml version="1.0" encoding="UTF-8"?>
<svg id="geda-close-all" width="64px" height="64px"
   xmlns="http://www.w3.org/2000/svg"
   xmlns:xlink="http://www.w3.org/1999/xlink"
   inkscape:export-filename="../geda-close-all.png"
   inkscape:export-xdpi="64.0"
   inkscape:export-ydpi="64.0">
 <defs id="defs2987">
  <filter id="filter4035" x="-.31407" y="-.2277" width="1.6281" height="1.4554">
   <feGaussianBlur id="feGaussianBlur4037" stdDeviation="2.0126026"/>
  </filter>
  <radialGradient id="radialGradient3094" cx="23.071" cy="35.127" r="10.319" gradientTransform="matrix(.91481 .01265 -.008215 .21356 2.2539 27.189)" gradientUnits="userSpaceOnUse">
   <stop id="stop2093-9" offset="0"/>
   <stop id="stop2095-1" stop-opacity="0" offset="1"/>
  </radialGradient>
  <radialGradient id="radialGradient3096" cx="6.5734" cy="24.5" r="18.5" gradientTransform="matrix(-2.1314e-8,2.5479,-4.8842,-2.2328e-8,144.16,-10.748)" gradientUnits="userSpaceOnUse">
   <stop id="stop3167-1" stop-color="#e78181" offset="0"/>
   <stop id="stop8599-3" stop-color="#e15f5f" offset=".25"/>
   <stop id="stop8601-6" stop-color="#c22f2f" offset=".68"/>
   <stop id="stop3169-3" stop-color="#a40000" offset="1"/>
  </radialGradient>
  <linearGradient id="linearGradient3098" x1="23.173" x2="23.1" y1="6.0005" y2="43" gradientUnits="userSpaceOnUse">
   <stop id="stop7957-6" stop-color="#c22f2f" offset="0"/>
   <stop id="stop7959-1" stop-color="#a40000" offset="1"/>
  </linearGradient>
  <linearGradient id="linearGradient3100" x1="31.972" x2="12.718" y1="17.042" y2="36.297" gradientTransform="matrix(1.0495,-1.0495,1.0495,1.0495,-26.939,23.169)" gradientUnits="userSpaceOnUse">
   <stop id="stop7918-8" stop-color="#fff" offset="0"/>
   <stop id="stop7920-5" stop-color="#fff" stop-opacity="0" offset="1"/>
  </linearGradient>
 </defs>
 <g id="g3063" transform="matrix(1.0673 0 0 1.1713 -5.1566 -5.1844)">
  <use id="use3989" transform="matrix(.95588 .29375 -.29375 .95588 19.002 1.9979)" width="64" height="64" xlink:href="#use3987"/>
  <use id="use4009" transform="matrix(.97562 .21945 -.21945 .97562 16.418 3.4268)" width="64" height="64" xlink:href="#rect3991"/>
  <use id="use3987" transform="matrix(.97551 .21997 -.21997 .97551 16.468 3.3648)" width="64" height="64" xlink:href="#g3837"/>
  <rect id="rect3991" x="13.965" y="19.099" width="15.38" height="21.213" ry="2.2892" filter="url(#filter4035)"/>
  <g id="g3837" transform="matrix(1.3339,0,0,1.3339,2.574,-85.671)">
   <rect id="rect3052" x="2.5909" y="73.955" width="17" height="20" ry="1.2727" fill="#fff" stroke="#7d7d7d" stroke-linecap="round" stroke-linejoin="round"/>
   <path id="path3823" d="m5.0948 90.959h5.9929" fill="none" stroke="#dedede" stroke-width="1px"/>
   <path id="path3825" d="m5.0984 88.949h11.993" fill="none" stroke="#dedede" stroke-width="1px"/>
   <path id="path3827" d="m5.0984 86.952h11.993" fill="none" stroke="#dedede" stroke-width="1px"/>
   <path id="path3829" d="m5.0948 83.959h5.9929" fill="none" stroke="#dedede" stroke-width="1px"/>
   <path id="path3831" d="m5.0984 81.949h11.993" fill="none" stroke="#dedede" stroke-width="1px"/>
   <path id="path3833" d="m5.0984 79.952h11.993" fill="none" stroke="#dedede" stroke-width="1px"/>
   <path id="path3835" d="m5.0984 77.952h11.993" fill="none" stroke="#dedede" stroke-width="1px"/>
  </g>
  <g id="layer1-9" transform="matrix(.83206 0 0 .83206 25.312 -.060164)">
   <path id="path1361" transform="matrix(2.2288,0,0,1.919,-27.171,-25.505)" d="m33.278 34.941c0 1.2814-4.6201 2.3202-10.319 2.3202s-10.319-1.0388-10.319-2.3202 4.6201-2.3202 10.319-2.3202 10.319 1.0388 10.319 2.3202z" fill="url(#radialGradient3094)" opacity=".25571"/>
   <path id="text1314" d="M 42.5,35 32,24 42.5,14 35,6.5 24.5,17 14,6.5 6.5,14 17,24 6.5,35 14,42.5 24.5,32 34,42.5 42.5001,35 z" fill="url(#radialGradient3096)" stroke="url(#linearGradient3098)" stroke-linejoin="round"/>
   <path id="path7076" d="M 41,35 30.5,24 41,14 35,8 24.5,18.5 14,8 8,14 18.5,24 8,35 l 6,6 10.5,-10.5 9.5001,10.5 7,-5.9995 z" fill="none" opacity=".4" stroke="url(#linearGradient3100)" stroke-linejoin="round"/>
  </g>
 </g>
</svg>
