<?xml version="1.0" encoding="UTF-8"?>
<svg id="geda-display" width="128" height="128"
   xmlns="http://www.w3.org/2000/svg"
   inkscape:export-filename="../geda-display.png"
   inkscape:export-xdpi="90">
 <defs id="defs1903">
  <filter id="filter3474" x="-.034729" y="-.56101" width="1.0695" height="2.122" color-interpolation-filters="sRGB">
   <feGaussianBlur id="feGaussianBlur3476" stdDeviation="1.5348278"/>
  </filter>
  <filter id="filter3498" color-interpolation-filters="sRGB">
   <feGaussianBlur id="feGaussianBlur3500" stdDeviation="2.6826708"/>
  </filter>
  <filter id="filter3538" x="-.0055243" y="-.17702" width="1.011" height="1.354" color-interpolation-filters="sRGB">
   <feGaussianBlur id="feGaussianBlur3540" stdDeviation="0.41911182"/>
  </filter>
  <linearGradient id="linearGradient3210" x1="373.36" x2="996.22" y1="1113" y2="1113" gradientTransform="matrix(.99999 0 0 .99997 -.032919 -.15959)" gradientUnits="userSpaceOnUse">
   <stop id="stop3610" stop-color="#787878" offset="0"/>
   <stop id="stop3616" stop-color="#262626" offset=".058866"/>
   <stop id="stop3618" stop-color="#262626" offset=".92191"/>
   <stop id="stop3612" stop-color="#787878" offset="1"/>
  </linearGradient>
  <linearGradient id="linearGradient3212" x1="361.08" x2="1008.5" y1="1077.7" y2="1077.7" gradientTransform="matrix(.99999 0 0 .99997 -.032919 -.15959)" gradientUnits="userSpaceOnUse">
   <stop id="stop3588" stop-color="#5c5b60" offset="0"/>
   <stop id="stop3594" stop-color="#b3b2b6" offset=".23476"/>
   <stop id="stop3596" stop-color="#5c5b60" offset=".49256"/>
   <stop id="stop3598" stop-color="#aeadb2" offset=".77982"/>
   <stop id="stop3590" stop-color="#5c5b60" offset="1"/>
  </linearGradient>
  <linearGradient id="linearGradient3214" x1="361.08" x2="1008.5" y1="1068.4" y2="1068.4" gradientTransform="matrix(.99999 0 0 .97998 -.032919 22.716)" gradientUnits="userSpaceOnUse">
   <stop id="stop3556" stop-color="#7b7b7d" offset="0"/>
   <stop id="stop3562" stop-color="#f8f8f6" offset=".5"/>
   <stop id="stop3558" stop-color="#7b7b7d" offset="1"/>
  </linearGradient>
  <radialGradient id="radialGradient3216" cx="527.65" cy="1272.5" r="323.71" gradientTransform="matrix(1.5481 -.18342 .037297 .3235 -356.96 814.25)" gradientUnits="userSpaceOnUse">
   <stop id="stop3566" stop-color="#818183" offset="0"/>
   <stop id="stop3572" stop-color="#fff" offset=".5"/>
   <stop id="stop3568" stop-color="#81818f" stop-opacity=".94118" offset="1"/>
  </radialGradient>
  <linearGradient id="linearGradient3218" x1="388.93" x2="980.65" y1="1061.3" y2="1061.3" gradientTransform="matrix(.99999 0 0 .99997 -.032919 -.15959)" gradientUnits="userSpaceOnUse">
   <stop id="stop3546" stop-color="#8b8b8d" offset="0"/>
   <stop id="stop3552" stop-color="#7f7f81" offset=".5"/>
   <stop id="stop3548" stop-color="#8b8b8d" offset="1"/>
  </linearGradient>
  <linearGradient id="linearGradient3220" x1="665.68" x2="666.97" y1="1066.9" y2="1104" gradientTransform="matrix(.99999 0 0 .99997 -.010111 -.049342)" gradientUnits="userSpaceOnUse">
   <stop id="stop3520" stop-color="#767175" offset="0"/>
   <stop id="stop3522" stop-color="#525053" offset="1"/>
  </linearGradient>
  <linearGradient id="linearGradient3222" x1="636.94" x2="636.02" y1="1106.6" y2="1055.4" gradientTransform="matrix(.99999 0 0 .99997 -.010111 -.049342)" gradientUnits="userSpaceOnUse">
   <stop id="stop3602" stop-color="#343434" offset="0"/>
   <stop id="stop3604" stop-color="#343434" stop-opacity=".42609" offset="1"/>
  </linearGradient>
  <linearGradient id="linearGradient3224" x1="677.31" x2="677.31" y1="868.61" y2="1029.2" gradientTransform="matrix(.99999 0 0 .99997 -.032919 -.15959)" gradientUnits="userSpaceOnUse">
   <stop id="stop3336" offset="0"/>
   <stop id="stop3342" stop-color="#1e1e1e" offset=".5"/>
   <stop id="stop3338" stop-color="#1e1e1e" offset="1"/>
  </linearGradient>
  <linearGradient id="linearGradient3226" x1="674.3" x2="674.25" y1="1034.7" y2="1105" gradientTransform="matrix(.99999 0 0 .99997 -.032907 -.1511)" gradientUnits="userSpaceOnUse">
   <stop id="stop3504" offset="0"/>
   <stop id="stop3506" stop-opacity="0" offset="1"/>
  </linearGradient>
  <linearGradient id="linearGradient3228" x1="65.643" x2="1299.2" y1="462.01" y2="462.01" gradientTransform="matrix(.99999 0 0 .99997 -.03292 -.15958)" gradientUnits="userSpaceOnUse">
   <stop id="stop3738" stop-color="#d3d2d3" offset="0"/>
   <stop id="stop3740" stop-color="#a4a3a7" offset="1"/>
  </linearGradient>
  <linearGradient id="linearGradient3230" x1="1270.1" x2="1270.1" y1="87.607" y2="826.46" gradientTransform="matrix(.99999 0 0 .99997 -.03292 -.15958)" gradientUnits="userSpaceOnUse">
   <stop id="stop3704" stop-color="#dadada" offset="0"/>
   <stop id="stop3706" stop-color="#ceced0" offset="1"/>
  </linearGradient>
  <linearGradient id="linearGradient3232" x1="91.339" x2="1273.9" y1="809.39" y2="809.39" gradientTransform="matrix(.99999 0 0 .99997 -.03292 19.84)" gradientUnits="userSpaceOnUse">
   <stop id="stop3670" stop-color="#dcdcdc" offset="0"/>
   <stop id="stop3682" stop-color="#e2e2e2" offset=".5"/>
   <stop id="stop3672" stop-color="#e0e0e0" offset="1"/>
  </linearGradient>
  <linearGradient id="linearGradient3234" x1="94.828" x2="94.828" y1="834.01" y2="87.007" gradientTransform="matrix(.99999 0 0 .99997 -.03292 -.15958)" gradientUnits="userSpaceOnUse">
   <stop id="stop3660" stop-color="#dcdcdc" offset="0"/>
   <stop id="stop3662" stop-color="#efefef" offset="1"/>
  </linearGradient>
  <radialGradient id="radialGradient3236" cx="-719.95" cy="-100.64" r="585.16" gradientTransform="matrix(.1612 .94334 -.64185 .10968 -620.5 642.47)" gradientUnits="userSpaceOnUse">
   <stop id="stop3346" stop-color="#3e3f42" offset="0"/>
   <stop id="stop3348" stop-color="#141414" offset="1"/>
  </radialGradient>
 </defs>
 <text id="text3258" transform="scale(.87045 1.1488)" x="1464.7524" y="-491.53387" fill="#000000" font-family="Webdings" font-size="13.786px" style="line-height:100%" line-height="100%" xml:space="preserve"><tspan id="tspan3260" x="1464.7524" y="-491.53387"/></text>
 <g id="g3138" transform="matrix(.10147 0 0 .11328 -4.9001 -4.3089)">
  <g id="g3780" transform="translate(-.13736 .11239)">
   <path id="path3372" d="m373.36 1100.7c0 25.71 139.52 55.974 311.43 55.974s311.43-30.264 311.43-55.974v-28.301h-599.07 0.35714l-24.137-3.2143v31.516z" fill="url(#linearGradient3210)" fill-rule="evenodd"/>
   <path id="path3370" d="m1008 1062.1c0 42.624-144.8 92.799-323.21 92.799s-323.21-50.174-323.21-92.799c0-42.624 144.8-61.636 323.21-61.636s323.21 19.012 323.21 61.636z" fill="url(#linearGradient3212)" fill-rule="evenodd"/>
   <path id="path3361" d="m1008 1054.9c0 40.999-144.8 89.261-323.21 89.261s-323.21-48.262-323.21-89.261 144.8-59.286 323.21-59.286 323.21 18.287 323.21 59.286z" fill="url(#linearGradient3214)" fill-rule="evenodd" stroke="url(#radialGradient3216)" stroke-linejoin="round"/>
   <path id="path3359" d="m980.15 1047.1c0 38.681-132.32 84.214-295.36 84.214s-295.36-45.533-295.36-84.214 132.32-55.934 295.36-55.934 295.36 17.254 295.36 55.934z" fill="url(#linearGradient3218)" fill-rule="evenodd" stroke="#858588" stroke-linejoin="round"/>
   <path id="path3432" transform="matrix(2.0048,0,0,4.4615,-583.1,-3539.7)" d="m686.4 1022.7c0 1.8132-23.744 3.283-53.033 3.283s-53.033-1.4698-53.033-3.283c0-1.8131 23.744-3.283 53.033-3.283s53.033 1.4699 53.033 3.283z" fill-rule="evenodd" filter="url(#filter3474)" opacity=".33636"/>
   <path id="path3352" transform="matrix(2.2843,0,0,2.3691,-844.85,-1515)" d="m776.43 1080.5c0 13.997-47.84 30.474-106.79 30.474-58.946 0-106.79-16.477-106.79-30.474s47.84-20.24 106.79-20.24c58.946 0 106.79 6.2434 106.79 20.24z" fill="url(#linearGradient3220)" fill-rule="evenodd" stroke="url(#linearGradient3222)" stroke-linejoin="round" stroke-width=".42987"/>
   <rect id="rect3267" x="594.73" y="868.86" width="178.04" height="160.11" rx="0" ry="0" fill="url(#linearGradient3224)" fill-rule="evenodd"/>
   <rect id="rect3424" x="593.84" y="1023.5" width="182.08" height="5.6821" rx="3.0305" ry="2.399" fill="#262626" fill-rule="evenodd" filter="url(#filter3538)"/>
   <rect id="rect3269" x="602.14" y="868.86" width="6.7857" height="160" fill="#8f8f8f" fill-opacity=".13146" fill-rule="evenodd"/>
   <path id="path3271" d="m609.57 868.86v159.73" fill="none" stroke="#0e0e0e" stroke-linejoin="round"/>
   <rect id="rect3281" x="618.14" y="868.86" width="6.7857" height="160" fill="#8f8f8f" fill-opacity=".13146" fill-rule="evenodd"/>
   <path id="path3283" d="m625.57 868.86v159.73" fill="none" stroke="#0e0e0e" stroke-linejoin="round"/>
   <rect id="rect3285" x="634.14" y="868.86" width="6.7857" height="160" fill="#8f8f8f" fill-opacity=".13146" fill-rule="evenodd"/>
   <path id="path3287" d="m641.57 868.86v159.73" fill="none" stroke="#0e0e0e" stroke-linejoin="round"/>
   <rect id="rect3289" x="650.14" y="868.86" width="6.7857" height="160" fill="#8f8f8f" fill-opacity=".13146" fill-rule="evenodd"/>
   <path id="path3291" d="m657.57 868.86v159.73" fill="none" stroke="#0e0e0e" stroke-linejoin="round"/>
   <rect id="rect3293" x="666.14" y="868.86" width="6.7857" height="160" fill="#8f8f8f" fill-opacity=".13146" fill-rule="evenodd"/>
   <path id="path3295" d="m673.57 868.86v159.73" fill="none" stroke="#0e0e0e" stroke-linejoin="round"/>
   <rect id="rect3297" x="682.14" y="868.86" width="6.7857" height="160" fill="#8f8f8f" fill-opacity=".13146" fill-rule="evenodd"/>
   <path id="path3299" d="m689.57 868.86v159.73" fill="none" stroke="#0e0e0e" stroke-linejoin="round"/>
   <rect id="rect3301" x="698.14" y="868.86" width="6.7857" height="160" fill="#8f8f8f" fill-opacity=".13146" fill-rule="evenodd"/>
   <path id="path3303" d="m705.57 868.86v159.73" fill="none" stroke="#0e0e0e" stroke-linejoin="round"/>
   <rect id="rect3305" x="714.14" y="868.86" width="6.7857" height="160" fill="#8f8f8f" fill-opacity=".13146" fill-rule="evenodd"/>
   <path id="path3307" d="m721.57 868.86v159.73" fill="none" stroke="#0e0e0e" stroke-linejoin="round"/>
   <rect id="rect3309" x="730.14" y="868.86" width="6.7857" height="160" fill="#8f8f8f" fill-opacity=".13146" fill-rule="evenodd"/>
   <path id="path3311" d="m737.57 868.86v159.73" fill="none" stroke="#0e0e0e" stroke-linejoin="round"/>
   <rect id="rect3313" x="746.14" y="868.86" width="6.7857" height="160" fill="#8f8f8f" fill-opacity=".13146" fill-rule="evenodd"/>
   <path id="path3315" d="m753.57 868.86v159.73" fill="none" stroke="#0e0e0e" stroke-linejoin="round"/>
   <rect id="rect3317" x="762.14" y="868.86" width="6.7857" height="160" fill="#8f8f8f" fill-opacity=".13146" fill-rule="evenodd"/>
   <path id="path3319" d="m769.57 868.86v159.73" fill="none" stroke="#0e0e0e" stroke-linejoin="round"/>
   <rect id="rect3380" transform="matrix(1,0,0,1.0464,-1.0102,-52.46)" x="595.99" y="1030" width="177.28" height="90.914" fill="url(#linearGradient3226)" fill-rule="evenodd" filter="url(#filter3498)" opacity=".65"/>
  </g>
  <rect id="rect3748" x="61.964" y="50.668" width="1240.5" height="822.27" rx="6.4285" ry="6.4284" fill="#fff" fill-rule="evenodd"/>
  <path id="path3746" d="m61.786 866.36c0.39912 2.2395 1.1057 7.1774 9.6429 6.6072h1224.5c6.7819-0.52607 6.8207-3.0778 6.6071-7.8011-1.0625 2.7882-5.1608 5.0845-8.677 4.2507l-1232-3.06z" fill="#d3d3d3" fill-rule="evenodd"/>
  <path id="path3744" d="m71.973 53.417c-5.996 0.721-10.738-1.002-10.086 5.393l-0.101 808.26c2.6419 2.4452 5.8108 3.6254 9.6429 3.2143l0.544-816.86z" fill="#f4f4f4" fill-rule="evenodd"/>
  <rect id="rect3248" x="65.893" y="53.229" width="1233" height="817.57" rx="6.4285" ry="6.4284" fill="url(#linearGradient3228)" fill-rule="evenodd"/>
  <path id="path3710" d="m90.965 87.236 7.4694 7.8048 1168.5-0.625 6.5178-6.7857-1182.5-0.39413z" fill="#959595" fill-rule="evenodd"/>
  <path id="path3692" d="m1273.8 833.76-1.1365 0.12627-6.3134-7.3236 0.6118-731.81 6.6964-7.1429 0.1417 746.15z" fill="url(#linearGradient3230)" fill-rule="evenodd"/>
  <path id="path3666" d="m98.125 826.8-6.7857 7.0536 1182.6 0.17857-8.75-9.2857-1167.1 2.0536z" fill="url(#linearGradient3232)" fill-rule="evenodd"/>
  <path id="path3644" d="m90.914 87.257 7.8287 7.3236-0.25254 731.86-7.3236 7.3236-0.25254-746.5z" fill="url(#linearGradient3234)" fill-rule="evenodd"/>
  <rect id="rect2450" transform="translate(769.36,140.99)" x="-671.68" y="-47.316" width="1169.8" height="733.57" rx="0" ry="0" fill="url(#radialGradient3236)" fill-rule="evenodd"/>
  <rect id="rect3321" x="61.964" y="50.668" width="1240.5" height="822.27" rx="6.4285" ry="6.4284" fill="none" stroke="#ececec" stroke-linejoin="round"/>
  <path id="path3323" d="m91.071 87.429v746.52" fill="none" stroke="#b2b4b3" stroke-linejoin="round"/>
  <path id="path3325" d="m90.714 87.429h1183.2" fill="none" stroke="#959595" stroke-linejoin="round"/>
  <path id="path3330" d="m90.893 833.86h1183.4" fill="none" stroke="#c0c0c0" stroke-linejoin="round"/>
  <path id="path3332" d="m1273.8 833.68v-746.16" fill="none" stroke="#bbbbbd" stroke-linejoin="round"/>
  <path id="path3374" d="m97.679 93.679-6.25-5.8929" fill="none" stroke="#8c8c8c" stroke-linecap="round" stroke-linejoin="round"/>
  <path id="path3376" d="m1273.3 87.875-5.5356 5.7143" fill="none" stroke="#878789" stroke-linecap="round" stroke-linejoin="round"/>
  <path id="path3378" d="m97.606 827.45-6.1872 6.1872" fill="none" stroke="#d4d4d4" stroke-linecap="round" stroke-linejoin="round"/>
  <path id="path3250" transform="matrix(.71897 0 0 .71706 364.42 190.28)" d="m1289.5 684.56 5.4214 9.3903h-10.843z" fill-rule="evenodd"/>
  <path id="path3252" transform="matrix(.71897 0 0 -.71706 364.42 1216)" d="m1289.5 684.56 5.4214 9.3903h-10.843z" fill-rule="evenodd"/>
  <path id="path3254" d="m1294.6 756.18v4.2857h-5.2679" fill="none" stroke="#000" stroke-linejoin="round"/>
  <path id="path3256" transform="matrix(0 .41403 .40917 0 1005.9 226.57)" d="m1289.5 684.56 5.4214 9.3903h-10.843z" fill-rule="evenodd"/>
  <path id="path3262" transform="matrix(.92857 0 0 .92857 92.24 58.057)" d="m1292.3 811.41c1.5484 0.6875 2.6291 2.239 2.6291 4.0413 0 2.4395-1.9799 4.4194-4.4195 4.4194-2.4395 0-4.4194-1.9799-4.4194-4.4194 0-1.8043 1.083-3.3572 2.6341-4.0435" fill="none" stroke="#000" stroke-linecap="round" stroke-linejoin="round" stroke-width="1.0769"/>
  <path id="path3265" d="m1290.5 809.26v4.5457" fill="none" stroke="#000" stroke-linecap="round" stroke-linejoin="round"/>
  <path id="path3355" d="m1291.4 651.23c-1.6234-0.83546-2.6243-0.79046-4.01-0.43746v-5.0508c1.0797-0.94246 2.4863-0.57711 4.0406 0.37881 1.4972-0.91418 2.0318-1.6908 4.195-0.44194v4.6764c-1.8737-0.46524-3.0643-1.0345-4.2256 0.87491z" fill="none" stroke="#000" stroke-linejoin="round"/>
  <path id="path3357" d="m1291.5 646.18v5.2679" fill="none" stroke="#000" stroke-linejoin="round"/>
  <path id="path3365" d="m1257.6 855.82c-1.5868 0-3.2143 0.95953-3.2143 3.2143v8.9286c0 2.8582-2.6353 2.8571-4.1072 2.8571h14.393c-1.4719 0-4.1072 1e-3 -4.1072-2.8571v-8.9286c0-2.2548-1.6275-3.2143-3.2143-3.2143" fill="#e4e4e4" fill-rule="evenodd"/>
  <rect id="rect3813" x="1223" y="58.168" width="44.643" height="25" rx="4.2856" ry="4.2856" fill="#1b1b1b" fill-rule="evenodd"/>
  <rect id="rect3815" x="1186.9" y="58.168" width="33.929" height="25" rx="4.2856" ry="4.2856" fill="#1b1b1b" fill-rule="evenodd"/>
  <path id="text3817" d="m1213.3 70.337c-0.5679 1.0251-1.2649 1.8991-2.0909 2.6218-1.9838 1.7553-4.4471 2.6329-7.3897 2.6329-2.9426 2e-6 -5.4096-0.87762-7.4008-2.6329-0.826-0.72274-1.5267-1.5967-2.1019-2.6218 0.5752-1.0251 1.2759-1.9027 2.1019-2.6329 1.9912-1.7552 4.4582-2.6329 7.4008-2.6329 2.9426 1.3e-5 5.4059 0.87764 7.3897 2.6329 0.826 0.73013 1.523 1.6078 2.0909 2.6329m-1.8032 0c-0.3614-0.63424-0.8002-1.2021-1.3165-1.7036-1.239-1.1947-2.7656-1.9433-4.5798-2.2457 0.7891 0.33926 1.4233 0.8592 1.9027 1.5598 0.4867 0.72276 0.7301 1.5193 0.7301 2.3895 0 0.86288-0.2397 1.6483-0.719 2.3563-0.472 0.708-1.0952 1.2353-1.8696 1.5819 2.6697-0.45725 4.6204-1.77 5.8521-3.9383m-4.1817 0c0-0.94399-0.3429-1.7516-1.0288-2.4227-0.6859-0.67112-1.5119-1.0067-2.478-1.0067-0.5089 1.1e-5 -0.9919 0.10326-1.4492 0.30975l-0.365-0.82969c-2.6772 0.45726-4.6352 1.7737-5.8742 3.9493 0.3614 0.63426 0.7965 1.1984 1.3054 1.6926 1.2316 1.1874 2.7435 1.9359 4.5356 2.2457-0.7744-0.34662-1.3976-0.87393-1.8696-1.5819-0.472-0.708-0.708-1.4934-0.708-2.3563 0-0.52362 0.092-1.0325 0.2766-1.5266l0.885 0.27656c-0.1623 0.40563-0.2434 0.82232-0.2434 1.2501 0 0.95138 0.3429 1.7626 1.0288 2.4338 0.6859 0.66376 1.5119 0.99563 2.478 0.99563 0.9661 4e-6 1.7921-0.33187 2.478-0.99563 0.6859-0.67112 1.0288-1.4824 1.0288-2.4338m-0.8518 0c0 0.71538-0.2618 1.3275-0.7854 1.8364-0.5163 0.50888-1.1395 0.76332-1.8696 0.76331-0.7375 4e-6 -1.3644-0.25443-1.8806-0.76331-0.5163-0.50887-0.7744-1.121-0.7744-1.8364 0-0.31712 0.055-0.62318 0.166-0.91819l2.7103 1.2279-1.2722-2.6882c0.3319-0.14749 0.6822-0.22124 1.0509-0.22125 0.7301 1e-5 1.3533 0.25445 1.8696 0.76331 0.5236 0.50888 0.7854 1.121 0.7854 1.8364" fill="#e4e4e4"/>
  <path id="text3825" d="m1244.5 68.294c0 1.917-0.5809 3.6888-1.7428 5.3153 0.568-1.2135 0.852-2.5786 0.8521-4.0954-1e-4 -1.4135-0.2292-2.727-0.6875-3.9405-0.5615-1.4716-1.3716-2.4818-2.4301-3.0304 1.2909 0.4131 2.2881 1.136 2.9917 2.1687 0.6777 1.0069 1.0166 2.201 1.0166 3.5823m-1.7718 0.3195c0 1.5362-0.4647 2.953-1.3942 4.2503 0.4518-0.96818 0.6777-2.059 0.6777-3.2725 0-1.1295-0.1839-2.1784-0.5518-3.1466-0.4454-1.1812-1.0941-1.9912-1.9461-2.4301 1.0327 0.32919 1.8299 0.9101 2.3914 1.7427 0.5487 0.80037 0.823 1.7524 0.823 2.8561m-1.5975 0.32918c0 1.2328-0.3744 2.3688-1.1231 3.408 0.3679-0.781 0.5519-1.6556 0.5519-2.6238 0-0.90363-0.1485-1.7427-0.4454-2.5173-0.355-0.94236-0.8714-1.591-1.5491-1.9461 0.8197 0.26465 1.4523 0.72615 1.8976 1.3845 0.4454 0.65192 0.6681 1.4168 0.6681 2.2946m-1.7427 1.8686c-1e-4 0.71646-0.068 1.3458-0.2034 1.888-0.2065 0.852-0.5454 1.278-1.0165 1.278-0.1227 1e-6 -0.3906-0.13877-0.8036-0.41632-0.5035-0.34209-1.4652-0.62609-2.8852-0.852-1.1748-0.19364-2.2043-0.29045-3.0885-0.29046-0.2453 3e-6 -0.368 0.19687-0.368 0.59059 0 0.13555 0.052 0.32918 0.155 0.58091 0.1032 0.24528 0.1549 0.43891 0.1549 0.58091s0.084 0.30014 0.2517 0.47441c0.1678 0.17427 0.2517 0.31305 0.2517 0.41632 0 0.02582-0.01 0.06455-0.029 0.11618-0.013 0.05164-0.019 0.09036-0.019 0.11618 0 0.09036 0.074 0.21945 0.2227 0.38727 0.1549 0.16782 0.2324 0.31304 0.2324 0.43568 0 0.05809-0.026 0.13232-0.077 0.22268-0.045 0.09036-0.068 0.16136-0.068 0.213 0 0.07745 0.039 0.16459 0.1162 0.26141 0.078 0.10327 0.1162 0.17427 0.1162 0.213 0 0.11618-0.1549 0.17427-0.4647 0.17427-0.6778-2e-6 -1.1554-0.20009-1.4329-0.60028-0.1743-0.24528-0.3389-0.75841-0.4938-1.5394-0.3034-1.4587-0.8198-2.1881-1.5491-2.1881-0.026 2e-6 -0.065 0.0065-0.1162 0.01936-0.052 0.0065-0.09 0.0097-0.1162 0.0097-0.8262 2e-6 -1.2393-0.75518-1.2393-2.2656 0-0.86491 0.4228-1.4878 1.2684-1.8686 0.4389-0.16136 1.094-0.41631 1.9654-0.76487 0.9165-0.38727 1.9202-0.98109 3.011-1.7815 1.0198-0.74226 1.7395-1.378 2.1591-1.9073 0.1678-0.89072 0.5196-1.3361 1.0553-1.3361 0.6325 1.2e-5 1.2425 0.6971 1.8299 2.0913 0.3937 0.94238 0.6938 1.9332 0.9004 2.9723 0.1872 0.93592 0.2807 1.8589 0.2808 2.769m-11.909 1.9848c-0.6971-0.04518-1.1909-0.13554-1.4813-0.27109-0.4583-0.22591-0.6874-0.63577-0.6874-1.2296 0-0.58736 0.1839-1.023 0.5518-1.307 0.013-0.0129 0.4454-0.24204 1.2974-0.68741-0.3034 0.3421-0.4551 0.86492-0.4551 1.5685 0 0.85201 0.2582 1.4942 0.7746 1.9267m9.4301-2.6335c0-0.68418-0.1162-1.3264-0.3485-1.9267-0.2582-0.67127-0.6132-1.1424-1.065-1.4136 0.2452 2.2978 0.6228 4.0212 1.1327 5.1701 0.1872-0.568 0.2808-1.178 0.2808-1.8299m-0.01 2.8174c-0.568-0.86491-1.0198-1.959-1.3554-3.2821-0.3099-1.2199-0.4648-2.3979-0.4648-3.5339l0.1259-1.1037c-0.4325 0.56156-1.0263 1.0876-1.7815 1.5781-0.6841 0.40664-1.3651 0.81651-2.0428 1.2296-0.8004 0.49701-1.2006 1.0747-1.2006 1.7331 0 0.57446 0.1033 1.0715 0.3098 1.491 0.2582 0.51637 0.639 0.8165 1.1425 0.90041 0.032 0.0065 0.3873 0.02259 1.065 0.04841 1.6072 0.06455 3.0078 0.3776 4.2019 0.93914m-10.146-0.59059c-0.2518-0.70354-0.3776-1.2554-0.3776-1.6556 0-0.27754 0.035-0.51313 0.1065-0.70678l-0.2227 0.05809c-0.078 0.29692-0.1162 0.61319-0.1162 0.94882 0 0.27755 0.1129 0.72937 0.3389 1.3555h0.2711m-0.5326-0.05809c-0.2323-0.55509-0.3485-0.95204-0.3485-1.1909 0-0.23882 0.026-0.53572 0.078-0.89073l-0.2711 0.18396c-0.045 0.25819-0.068 0.50023-0.068 0.72614 0 0.29691 0.1226 0.65837 0.3679 1.0844l0.242 0.08714" fill="#e4e4e4"/>
  <path id="text3829" transform="scale(.80846 1.2369)" d="m1541.7 54.409h1.1538v-3.9825l-1.2552 0.25175v-0.64336l1.2482-0.25175h0.7063v4.6259h1.1539v0.59441h-3.007v-0.59441m6.035-2.2972c-0.3171 3e-6 -0.5688 0.10839-0.7553 0.32518-0.1841 0.21679-0.2762 0.51399-0.2762 0.89161 0 0.37529 0.092 0.6725 0.2762 0.89161 0.1865 0.21678 0.4382 0.32518 0.7553 0.32518 0.317 1e-6 0.5676-0.10839 0.7517-0.32518 0.1865-0.21911 0.2797-0.51632 0.2797-0.89161 0-0.37762-0.093-0.67482-0.2797-0.89161-0.1841-0.21678-0.4347-0.32517-0.7517-0.32518m1.4021-2.2133v0.64336c-0.1772-0.08391-0.3567-0.14801-0.5385-0.19231-0.1795-0.04428-0.3578-0.06643-0.535-0.06643-0.4662 5e-6 -0.8228 0.15735-1.0699 0.47203-0.2448 0.31469-0.3846 0.79021-0.4196 1.4266 0.1375-0.20279 0.31-0.35781 0.5175-0.46504 0.2075-0.10955 0.4359-0.16433 0.6853-0.16434 0.5245 3e-6 0.9382 0.15968 1.2413 0.47902 0.3053 0.31702 0.458 0.74942 0.458 1.2972 0 0.53613-0.1585 0.9662-0.4755 1.2902-0.317 0.32401-0.7389 0.48601-1.2657 0.48601-0.6038 0-1.0653-0.23077-1.3847-0.69231-0.3193-0.46387-0.479-1.1352-0.479-2.014 0-0.82517 0.1958-1.4825 0.5874-1.972 0.3916-0.49184 0.9173-0.73776 1.577-0.73776 0.1771 5e-6 0.3554 0.01749 0.5349 0.05245 0.1818 0.03497 0.3707 0.08742 0.5665 0.15734m3.0699 0.34965c-0.3636 5e-6 -0.6375 0.17949-0.8217 0.53846-0.1818 0.35665-0.2727 0.89394-0.2727 1.6119 0 0.71562 0.091 1.2529 0.2727 1.6119 0.1842 0.35664 0.4581 0.53497 0.8217 0.53497 0.366 1e-6 0.6398-0.17832 0.8217-0.53497 0.1841-0.35897 0.2762-0.89627 0.2762-1.6119 0-0.71795-0.092-1.2552-0.2762-1.6119-0.1819-0.35897-0.4557-0.53846-0.8217-0.53846m0-0.55944c0.5851 5e-6 1.0315 0.23194 1.3392 0.6958 0.31 0.46154 0.465 1.1329 0.465 2.014 0 0.87879-0.155 1.5501-0.465 2.014-0.3077 0.46154-0.7541 0.69231-1.3392 0.69231s-1.0326-0.23077-1.3427-0.69231c-0.3077-0.46387-0.4615-1.1352-0.4615-2.014 0-0.88112 0.1538-1.5524 0.4615-2.014 0.3101-0.46386 0.7576-0.6958 1.3427-0.6958m4.5594 0.55944c-0.3636 5e-6 -0.6375 0.17949-0.8216 0.53846-0.1819 0.35665-0.2728 0.89394-0.2728 1.6119 0 0.71562 0.091 1.2529 0.2728 1.6119 0.1841 0.35664 0.458 0.53497 0.8216 0.53497 0.366 1e-6 0.6399-0.17832 0.8217-0.53497 0.1842-0.35897 0.2762-0.89627 0.2762-1.6119 0-0.71795-0.092-1.2552-0.2762-1.6119-0.1818-0.35897-0.4557-0.53846-0.8217-0.53846m0-0.55944c0.5851 5e-6 1.0315 0.23194 1.3392 0.6958 0.31 0.46154 0.465 1.1329 0.465 2.014 0 0.87879-0.155 1.5501-0.465 2.014-0.3077 0.46154-0.7541 0.69231-1.3392 0.69231-0.585 0-1.0326-0.23077-1.3426-0.69231-0.3077-0.46387-0.4616-1.1352-0.4616-2.014 0-0.88112 0.1539-1.5524 0.4616-2.014 0.31-0.46386 0.7576-0.6958 1.3426-0.6958m3.1224 4.4266h0.7378v0.88811h-0.7378v-0.88811m0-2.8147h0.7378v0.88811h-0.7378v-0.88811m2.4686 3.1084h1.1538v-3.9825l-1.2552 0.25175v-0.64336l1.2482-0.25175h0.7063v4.6259h1.1539v0.59441h-3.007v-0.59441m-19.311 3.5726c0.097-0.17342 0.2119-0.3014 0.3462-0.38392s0.2923-0.12377 0.4741-0.12378c0.2448 2e-6 0.4336 0.08602 0.5665 0.25804 0.1328 0.17063 0.1993 0.41399 0.1993 0.73007v1.4182h-0.3882v-1.4056c0-0.22517-0.04-0.39231-0.1195-0.5014-0.08-0.10909-0.2014-0.16363-0.3651-0.16364-0.2 3e-6 -0.358 0.06644-0.4741 0.1993-0.1161 0.13287-0.1741 0.31399-0.1741 0.54336v1.328h-0.3881v-1.4056c0-0.22657-0.04-0.3937-0.1196-0.5014-0.08-0.10909-0.2028-0.16363-0.3692-0.16364-0.1973 3e-6 -0.3539 0.06714-0.47 0.2014-0.1161 0.13287-0.1741 0.31329-0.1741 0.54126v1.328h-0.3881v-2.3497h0.3881v0.36504c0.088-0.14405 0.1937-0.25035 0.3168-0.31888s0.2692-0.1028 0.4384-0.1028c0.1707 2e-6 0.3154 0.04336 0.4343 0.13007 0.1203 0.08672 0.2091 0.21259 0.2664 0.37762m3.2686-0.18042c-0.207 2e-6 -0.3707 0.08112-0.4909 0.24336-0.1203 0.16084-0.1805 0.38182-0.1805 0.66294s0.06 0.5028 0.1784 0.66504c0.1202 0.16084 0.2846 0.24126 0.493 0.24126 0.2056 0 0.3685-0.08112 0.4888-0.24336s0.1804-0.38322 0.1804-0.66294c0-0.27832-0.06-0.4986-0.1804-0.66084-0.1203-0.16364-0.2832-0.24545-0.4888-0.24546m0-0.32727c0.3356 2e-6 0.5993 0.10909 0.7909 0.32727s0.2874 0.52028 0.2874 0.9063c0 0.38462-0.096 0.68671-0.2874 0.9063-0.1916 0.21818-0.4553 0.32727-0.7909 0.32727-0.3371 0-0.6014-0.10909-0.793-0.32727-0.1902-0.21958-0.2853-0.52168-0.2853-0.9063 0-0.38601 0.095-0.68811 0.2853-0.9063 0.1916-0.21818 0.4559-0.32727 0.793-0.32727m3.214 0.12587v0.36504c-0.1091-0.05594-0.2224-0.0979-0.3399-0.12587s-0.2392-0.04196-0.365-0.04196c-0.1916 2e-6 -0.3357 0.02937-0.4322 0.08811-0.095 0.05874-0.1427 0.14686-0.1427 0.26434 0 0.08951 0.034 0.16014 0.1028 0.21189 0.069 0.05035 0.2063 0.0986 0.4133 0.14476l0.1322 0.02937c0.2741 0.05874 0.4685 0.14196 0.5832 0.24965 0.1161 0.1063 0.1741 0.25525 0.1741 0.44685 0 0.21818-0.087 0.39091-0.2601 0.51818-0.172 0.12727-0.4091 0.19091-0.7112 0.19091-0.1259 0-0.2573-0.01259-0.3944-0.03776-0.1357-0.02378-0.279-0.06014-0.4301-0.10909v-0.3986c0.1427 0.07413 0.2833 0.13007 0.4217 0.16783 0.1385 0.03636 0.2755 0.05455 0.4112 0.05455 0.1818 1e-6 0.3217-0.03077 0.4196-0.09231 0.098-0.06294 0.1468-0.15105 0.1468-0.26434 0-0.1049-0.036-0.18532-0.107-0.24126-0.07-0.05594-0.2244-0.10979-0.4636-0.16154l-0.1343-0.03147c-0.2391-0.05035-0.4118-0.12727-0.5181-0.23077-0.1063-0.10489-0.1595-0.24825-0.1595-0.43007 0-0.22098 0.078-0.39161 0.235-0.51189 0.1566-0.12028 0.379-0.18042 0.6671-0.18042 0.1427 2e-6 0.2769 0.01049 0.4028 0.03147s0.242 0.05245 0.3483 0.09441m1.1244-0.73636v0.66713h0.7952v0.3h-0.7952v1.2755c0 0.19161 0.026 0.31469 0.078 0.36923 0.053 0.05455 0.1601 0.08182 0.3209 0.08182h0.3966v0.32308h-0.3966c-0.2979 0-0.5035-0.05524-0.6167-0.16573-0.1133-0.11189-0.17-0.31468-0.17-0.60839v-1.2755h-0.2832v-0.3h0.2832v-0.66713h0.3881m-8.3685 6.1322c-0.3119 1e-6 -0.528 0.03567-0.6483 0.10699-0.1202 0.07133-0.1804 0.19301-0.1804 0.36504 0 0.13706 0.045 0.24616 0.1343 0.32727 0.091 0.07972 0.214 0.11958 0.3692 0.11958 0.214 0 0.3853-0.07552 0.514-0.22657 0.1301-0.15245 0.1951-0.35454 0.1951-0.60629v-0.08601h-0.3839m0.7699-0.15944v1.3406h-0.386v-0.35664c-0.088 0.14266-0.1979 0.24825-0.3294 0.31678-0.1314 0.06713-0.2923 0.1007-0.4825 0.1007-0.2405 0-0.4321-0.06713-0.5748-0.2014-0.1413-0.13566-0.2119-0.31678-0.2119-0.54336 0-0.26434 0.088-0.46364 0.2644-0.5979 0.1776-0.13426 0.4419-0.2014 0.793-0.2014h0.5412v-0.03776c0-0.17762-0.059-0.31468-0.1762-0.41119-0.1161-0.0979-0.2797-0.14685-0.4909-0.14685-0.1343 2e-6 -0.2651 0.01609-0.3923 0.04825-0.1273 0.03217-0.2497 0.08042-0.3672 0.14476v-0.35664c0.1413-0.05454 0.2784-0.0951 0.4112-0.12168 0.1329-0.02797 0.2623-0.04196 0.3881-0.04196 0.3399 2e-6 0.5938 0.08811 0.7616 0.26434 0.1678 0.17622 0.2517 0.44336 0.2517 0.8014m0.5728-1.0091h0.386l0.4825 1.8336 0.4804-1.8336h0.4553l0.4825 1.8336 0.4804-1.8336h0.386l-0.6147 2.3497h-0.4552l-0.5056-1.9259-0.5077 1.9259h-0.4553l-0.6146-2.3497m5.7503 1.0783v0.18881h-1.7748c0.017 0.26574 0.096 0.46853 0.2392 0.60839 0.144 0.13846 0.344 0.20769 0.6 0.20769 0.1482 1e-6 0.2916-0.01818 0.43-0.05455 0.1399-0.03636 0.2783-0.09091 0.4154-0.16364v0.36504c-0.1385 0.05874-0.2804 0.1035-0.4259 0.13427-0.1454 0.03077-0.293 0.04615-0.4426 0.04615-0.3749 0-0.6721-0.10909-0.8916-0.32727-0.2182-0.21818-0.3273-0.51329-0.3273-0.88532 0-0.38462 0.1035-0.68951 0.3105-0.91469 0.2084-0.22657 0.4888-0.33986 0.8412-0.33986 0.3161 2e-6 0.5658 0.1021 0.749 0.30629 0.1846 0.2028 0.2769 0.47902 0.2769 0.82867m-0.386-0.11329c0-0.21119-0.062-0.37972-0.1783-0.5056-0.1147-0.12587-0.2672-0.18881-0.4574-0.18881-0.2153 2e-6 -0.3881 0.06084-0.5181 0.18252-0.1287 0.12168-0.2028 0.29301-0.2224 0.51399l1.3762-0.0021m2.5175-0.8958v0.36504c-0.1091-0.05594-0.2224-0.0979-0.3399-0.12587s-0.2391-0.04196-0.365-0.04196c-0.1916 2e-6 -0.3357 0.02937-0.4322 0.08811-0.095 0.05874-0.1426 0.14686-0.1426 0.26434 0 0.08951 0.034 0.16014 0.1028 0.21189 0.068 0.05035 0.2063 0.0986 0.4133 0.14476l0.1321 0.02937c0.2741 0.05874 0.4686 0.14196 0.5832 0.24965 0.1161 0.1063 0.1742 0.25525 0.1742 0.44685 0 0.21818-0.087 0.39091-0.2602 0.51818-0.172 0.12727-0.4091 0.19091-0.7112 0.19091-0.1258 0-0.2573-0.01259-0.3944-0.03776-0.1356-0.02378-0.279-0.06014-0.43-0.10909v-0.3986c0.1426 0.07413 0.2832 0.13007 0.4216 0.16783 0.1385 0.03636 0.2756 0.05455 0.4112 0.05455 0.1818 0 0.3217-0.03077 0.4196-0.09231 0.098-0.06294 0.1469-0.15105 0.1469-0.26434 0-0.10489-0.036-0.18531-0.107-0.24126-0.07-0.05594-0.2245-0.10979-0.4637-0.16154l-0.1342-0.03147c-0.2392-0.05035-0.4119-0.12727-0.5182-0.23077-0.1063-0.10489-0.1595-0.24825-0.1595-0.43007 0-0.22098 0.078-0.39161 0.235-0.51189 0.1566-0.12028 0.379-0.18042 0.6671-0.18042 0.1427 2e-6 0.277 0.01049 0.4028 0.03147 0.1259 0.02098 0.242 0.05245 0.3483 0.09441m1.6531 0.2014c-0.207 2e-6 -0.3706 0.08112-0.4909 0.24336-0.1203 0.16084-0.1804 0.38182-0.1804 0.66294s0.059 0.5028 0.1783 0.66504c0.1203 0.16084 0.2846 0.24126 0.493 0.24126 0.2056 1e-6 0.3686-0.08112 0.4889-0.24336 0.1202-0.16224 0.1804-0.38322 0.1804-0.66294 0-0.27832-0.06-0.4986-0.1804-0.66084-0.1203-0.16364-0.2833-0.24545-0.4889-0.24546m0-0.32727c0.3357 2e-6 0.5993 0.10909 0.7909 0.32727 0.1917 0.21818 0.2875 0.52028 0.2875 0.90629 0 0.38462-0.096 0.68672-0.2875 0.9063-0.1916 0.21818-0.4552 0.32727-0.7909 0.32727-0.337 0-0.6014-0.10909-0.793-0.32727-0.1902-0.21958-0.2853-0.52168-0.2853-0.9063 0-0.38601 0.095-0.68811 0.2853-0.90629 0.1916-0.21818 0.456-0.32727 0.793-0.32727m3.5455 0.50769c0.097-0.17342 0.2119-0.3014 0.3462-0.38392 0.1342-0.08252 0.2923-0.12377 0.4741-0.12378 0.2447 2e-6 0.4335 0.08602 0.5664 0.25804 0.1329 0.17063 0.1993 0.41399 0.1993 0.73007v1.4182h-0.3881v-1.4056c0-0.22517-0.04-0.39231-0.1196-0.5014-0.08-0.10909-0.2014-0.16364-0.365-0.16364-0.2 2e-6 -0.3581 0.06644-0.4741 0.1993-0.1161 0.13287-0.1742 0.31399-0.1742 0.54336v1.328h-0.3881v-1.4056c0-0.22657-0.04-0.3937-0.1196-0.5014-0.08-0.10909-0.2028-0.16364-0.3692-0.16364-0.1972 2e-6 -0.3538 0.06713-0.4699 0.2014-0.1161 0.13287-0.1741 0.31329-0.1741 0.54126v1.328h-0.3882v-2.3497h0.3882v0.36504c0.088-0.14405 0.1937-0.25035 0.3167-0.31888 0.1231-0.06853 0.2693-0.1028 0.4385-0.1028 0.1706 2e-6 0.3154 0.04336 0.4343 0.13007 0.1202 0.08671 0.2091 0.21259 0.2664 0.37762m4.3678 0.62727v0.18881h-1.7748c0.017 0.26574 0.097 0.46853 0.2392 0.60839 0.144 0.13846 0.344 0.20769 0.6 0.20769 0.1482 1e-6 0.2916-0.01818 0.43-0.05455 0.1399-0.03636 0.2784-0.09091 0.4154-0.16364v0.36504c-0.1384 0.05874-0.2804 0.1035-0.4259 0.13427-0.1454 0.03077-0.293 0.04615-0.4426 0.04615-0.3748 0-0.672-0.10909-0.8916-0.32727-0.2182-0.21818-0.3273-0.51329-0.3273-0.88532 0-0.38462 0.1035-0.68951 0.3105-0.91469 0.2084-0.22657 0.4888-0.33986 0.8413-0.33986 0.316 2e-6 0.5657 0.1021 0.7489 0.30629 0.1846 0.2028 0.2769 0.47902 0.2769 0.82867m-0.386-0.11329c0-0.21119-0.062-0.37972-0.1783-0.5056-0.1147-0.12587-0.2671-0.18881-0.4573-0.18881-0.2154 2e-6 -0.3882 0.06084-0.5182 0.18252-0.1287 0.12168-0.2028 0.29301-0.2224 0.51399l1.3762-0.0021" fill="#e4e4e4"/>
  <path id="path3627" transform="matrix(1.0202,0,0,1.0202,7.849,-17.098)" d="m677.86 851.89c0 6.9036-5.5964 12.5-12.5 12.5s-12.5-5.5964-12.5-12.5 5.5964-12.5 12.5-12.5 12.5 5.5964 12.5 12.5z" fill="#2e2f33" fill-rule="evenodd"/>
  <path id="path3629" d="m696.65 852.01c0 5.52-4.48 10-10 10s-10-4.48-10-10" fill="none" stroke="#d6d6d7" stroke-linecap="round" stroke-linejoin="round"/>
  <path id="path3632" transform="matrix(1.3571,0,0,1.3571,-214.77,-302.7)" d="m662.23 847.88c0 0.69036-0.55965 1.25-1.25 1.25-0.69036 0-1.25-0.55964-1.25-1.25s0.55964-1.25 1.25-1.25c0.69035 0 1.25 0.55964 1.25 1.25z" fill="#d6d6d7" fill-rule="evenodd"/>
  <path id="path3636" transform="matrix(1.0714 0 0 .84414 -17.797 132.54)" d="m662.23 847.88c0 0.69036-0.55965 1.25-1.25 1.25-0.69036 0-1.25-0.55964-1.25-1.25s0.55964-1.25 1.25-1.25c0.69035 0 1.25 0.55964 1.25 1.25z" fill="#d6d6d7" fill-rule="evenodd"/>
  <path id="path3638" d="m690.49 847.72c1.3542 0.3429 2.2173-0.0543 3.3036-0.8035-0.28256 1.6624-2.1802 2.6561-3.3259 2.3884l0.0223-1.5849z" fill="#d6d6d7" fill-rule="evenodd"/>
  <text id="text3640" transform="scale(1.5905 .62874)" x="63.150967" y="128.44087" fill="#464646" font-family="Trebuchet MS" font-size="19.086px" style="line-height:100%" line-height="100%" xml:space="preserve"><tspan id="tspan3642" x="63.150967" y="128.44087" fill="#464646" font-style="italic">FLAT</tspan></text>
 </g>
</svg>
