<?xml version="1.0" encoding="UTF-8"?>
<svg id="geda-undo" width="48px" height="48px"
   xmlns="http://www.w3.org/2000/svg"
   xmlns:xlink="http://www.w3.org/1999/xlink"
   inkscape:export-filename="../geda-undo.png"
   inkscape:export-xdpi="90"
   inkscape:export-ydpi="90">
 <defs id="defs3051">
  <linearGradient id="linearGradient3009" x1="21.677" x2="18.072" y1="29.705" y2="55.692" gradientTransform="matrix(-1.3443 0 0 1.1268 58.36 -3.575)" gradientUnits="userSpaceOnUse">
   <stop id="stop5134" stop-color="#fff" offset="0"/>
   <stop id="stop5136" stop-color="#fff" stop-opacity="0" offset="1"/>
  </linearGradient>
  <linearGradient id="linearGradient3012" x1="25.446" x2="25.446" y1="20.688" y2="16.375" gradientTransform="matrix(-1.3363 0 0 1.1205 58.084 -3.4362)" gradientUnits="userSpaceOnUse">
   <stop id="stop2792" stop-color="#edd400" offset="0"/>
   <stop id="stop2794" stop-color="#fce94f" offset="1"/>
  </linearGradient>
  <radialGradient id="radialGradient3015" cx="24.837" cy="36.421" r="15.645" gradientTransform="matrix(1 0 0 .53672 0 16.873)" gradientUnits="userSpaceOnUse">
   <stop id="stop8664" offset="0"/>
   <stop id="stop8666" stop-opacity="0" offset="1"/>
  </radialGradient>
 </defs>
 <g id="layer1">
  <g id="geda-undo" transform="matrix(1.0147 0 0 1.0128 -.51059 -.4118)">
   <path id="path8660" transform="matrix(-1.2682 0 0 -.73256 59.633 68.327)" d="m40.482 36.421c0 4.6375-7.0044 8.3969-15.645 8.3969s-15.645-3.7594-15.645-8.3969c0-4.6375 7.0044-8.3969 15.645-8.3969s15.645 3.7594 15.645 8.3969z" color="#000000" fill="url(#radialGradient3015)" fill-rule="evenodd" opacity=".13"/>
   <path id="path1432" d="m34.799 43.507c22.906-10.59 10.008-33.038-12.024-32.862v-9.0387l-21.485 15.753 21.485 16.52v-9.7811c13.677-0.46521 19.7 8.1429 7.7137 14.974-3.4305 1.9551-1.0541 6.9144 4.31 4.4345z" color="#000000" display="block" fill="url(#linearGradient3012)" stroke="#c4a000" stroke-width="1.2237"/>
   <path id="path4247" d="m21.475 3.9608v6.6202c0.01119 0.61836 0.60662 1.1173 1.3443 1.1269 10.526-0.08424 18.797 5.2752 21.719 11.761 2.9224 6.4862 0.7767 14.076-10.292 19.192-1.1429 0.52823-1.9705 0.58114-2.5206 0.493-0.55007-0.08823-0.89748-0.33475-1.1343-0.66906-0.47359-0.66864-0.40354-1.6986 0.75619-2.3593 3.1689-1.8054 5.2549-3.7761 6.3015-5.8103 1.0466-2.0342 0.99457-4.1382-0.04195-5.9159-2.0732-3.5556-7.6009-5.6687-14.83-5.4229-0.72125 0.02796-1.2919 0.52169-1.3023 1.1268v7.2541l-18.232-14.015 18.232-13.381z" color="#000000" display="block" fill="none" opacity=".61798" stroke="url(#linearGradient3009)" stroke-width="1.2308"/>
  </g>
 </g>
</svg>
