<?xml version="1.0" encoding="UTF-8"?>
<svg id="svg2" width="128" height="128"
   xmlns="http://www.w3.org/2000/svg"
   xmlns:osb="http://www.openswatchbook.org/uri/2009/osb"
   xmlns:xlink="http://www.w3.org/1999/xlink"
   inkscape:export-filename="../geda-grid-mesh.png"
   inkscape:export-xdpi="90"
   inkscape:export-ydpi="90">
 <defs id="defs1903">
  <filter id="filter3474" x="-.034729" y="-.56101" width="1.0695" height="2.122" color-interpolation-filters="sRGB">
   <feGaussianBlur id="feGaussianBlur3476" stdDeviation="1.5348278"/>
  </filter>
  <filter id="filter3498" color-interpolation-filters="sRGB">
   <feGaussianBlur id="feGaussianBlur3500" stdDeviation="2.6826708"/>
  </filter>
  <filter id="filter3538" x="-.0055243" y="-.17702" width="1.011" height="1.354" color-interpolation-filters="sRGB">
   <feGaussianBlur id="feGaussianBlur3540" stdDeviation="0.41911182"/>
  </filter>
  <radialGradient id="radialGradient3192" cx="-719.95" cy="-100.64" r="585.16" gradientTransform="matrix(.016204 .093714 -.064522 .010895 10.8 1135.8)" gradientUnits="userSpaceOnUse">
   <stop id="stop3346" stop-color="#3e3f42" offset="0"/>
   <stop id="stop3348" stop-color="#141414" offset="1"/>
  </radialGradient>
  <linearGradient id="linearGradient3195" x1="94.828" x2="94.828" y1="834.01" y2="87.007" gradientTransform="matrix(.10052 0 0 .099339 -4.1664 1057.9)" gradientUnits="userSpaceOnUse">
   <stop id="stop3660" stop-color="#dcdcdc" offset="0"/>
   <stop id="stop3662" stop-color="#efefef" offset="1"/>
  </linearGradient>
  <linearGradient id="linearGradient3198" x1="91.339" x2="1273.9" y1="809.39" y2="809.39" gradientTransform="matrix(.10052 0 0 .099339 -4.1664 1059.9)" gradientUnits="userSpaceOnUse">
   <stop id="stop3670" stop-color="#dcdcdc" offset="0"/>
   <stop id="stop3682" stop-color="#e2e2e2" offset=".5"/>
   <stop id="stop3672" stop-color="#e0e0e0" offset="1"/>
  </linearGradient>
  <linearGradient id="linearGradient3201" x1="1270.1" x2="1270.1" y1="87.607" y2="826.46" gradientTransform="matrix(.10052 0 0 .099339 -4.1664 1057.9)" gradientUnits="userSpaceOnUse">
   <stop id="stop3704" stop-color="#dadada" offset="0"/>
   <stop id="stop3706" stop-color="#ceced0" offset="1"/>
  </linearGradient>
  <linearGradient id="linearGradient3205" x1="65.643" x2="1299.2" y1="462.01" y2="462.01" gradientTransform="matrix(.10052 0 0 .099339 -4.1664 1057.9)" gradientUnits="userSpaceOnUse">
   <stop id="stop3738" stop-color="#d3d2d3" offset="0"/>
   <stop id="stop3740" stop-color="#a4a3a7" offset="1"/>
  </linearGradient>
  <linearGradient id="linearGradient3258" x1="674.3" x2="674.25" y1="1034.7" y2="1105" gradientUnits="userSpaceOnUse">
   <stop id="stop3504" offset="0"/>
   <stop id="stop3506" stop-opacity="0" offset="1"/>
  </linearGradient>
  <linearGradient id="linearGradient3285" x1="677.31" x2="677.31" y1="868.61" y2="1029.2" gradientTransform="matrix(.10052 0 0 .099339 -4.1802 1058)" gradientUnits="userSpaceOnUse">
   <stop id="stop3336" offset="0"/>
   <stop id="stop3342" stop-color="#1e1e1e" offset=".5"/>
   <stop id="stop3338" stop-color="#1e1e1e" offset="1"/>
  </linearGradient>
  <linearGradient id="linearGradient3288" x1="665.68" x2="666.97" y1="1066.9" y2="1104" gradientTransform="matrix(.22962 0 0 .23535 -89.107 907.45)" gradientUnits="userSpaceOnUse">
   <stop id="stop3520" stop-color="#767175" offset="0"/>
   <stop id="stop3522" stop-color="#525053" offset="1"/>
  </linearGradient>
  <linearGradient id="linearGradient3290" x1="636.94" x2="636.02" y1="1106.6" y2="1055.4" gradientTransform="matrix(.22962 0 0 .23535 -89.107 907.45)" gradientUnits="userSpaceOnUse">
   <stop id="stop3602" stop-color="#343434" offset="0"/>
   <stop id="stop3604" stop-color="#343434" stop-opacity=".42609" offset="1"/>
  </linearGradient>
  <linearGradient id="linearGradient3302" x1="361.08" x2="1008.5" y1="1077.7" y2="1077.7" gradientTransform="matrix(.10052 0 0 .099339 -4.1802 1058)" gradientUnits="userSpaceOnUse">
   <stop id="stop3588" stop-color="#5c5b60" offset="0"/>
   <stop id="stop3594" stop-color="#b3b2b6" offset=".23476"/>
   <stop id="stop3596" stop-color="#5c5b60" offset=".49256"/>
   <stop id="stop3598" stop-color="#aeadb2" offset=".77982"/>
   <stop id="stop3590" stop-color="#5c5b60" offset="1"/>
  </linearGradient>
  <linearGradient id="linearGradient3305" x1="373.36" x2="996.22" y1="1113" y2="1113" gradientTransform="matrix(.10052 0 0 .099339 -4.1802 1058)" gradientUnits="userSpaceOnUse">
   <stop id="stop3610" stop-color="#787878" offset="0"/>
   <stop id="stop3616" stop-color="#262626" offset=".058866"/>
   <stop id="stop3618" stop-color="#262626" offset=".92191"/>
   <stop id="stop3612" stop-color="#787878" offset="1"/>
  </linearGradient>
 </defs>
 <g id="layer2" transform="translate(0,-1053)">
  <g id="geda-grid-mesh" transform="matrix(1.0014 0 0 1.1467 -.0027566 -164.61)">
   <path id="path3372" d="m33.352 1167.3c0 2.554 14.025 5.5604 31.306 5.5604 17.281 0 31.306-3.0064 31.306-5.5604v-2.8114h-60.221 0.0359l-2.4263-0.3193v3.1307z" fill="url(#linearGradient3305)" fill-rule="evenodd"/>
   <path id="path3370" d="m97.148 1163.5c0 4.2342-14.556 9.2185-32.49 9.2185-17.935 0-32.49-4.9843-32.49-9.2185s14.556-6.1229 32.49-6.1229c17.935 0 32.49 1.8887 32.49 6.1229z" fill="url(#linearGradient3302)" fill-rule="evenodd"/>
   <path id="path3432" transform="matrix(.20153 0 0 .44321 -62.795 706.32)" d="m686.4 1022.7c0 1.8132-23.744 3.283-53.033 3.283s-53.033-1.4698-53.033-3.283c0-1.8131 23.744-3.283 53.033-3.283s53.033 1.4699 53.033 3.283z" fill-rule="evenodd" filter="url(#filter3474)" opacity=".33636"/>
   <path id="path3352" d="m89.178 1161.8c0 3.2942-10.985 7.1719-24.52 7.1719-13.535 0-24.52-3.8777-24.52-7.1719s10.985-4.7636 24.52-4.7636c13.535 0 24.52 1.4694 24.52 4.7636z" fill="url(#linearGradient3288)" fill-rule="evenodd" stroke="url(#linearGradient3290)" stroke-linejoin="round" stroke-width=".09993"/>
   <rect id="rect3267" x="55.604" y="1144.3" width="17.897" height="15.905" rx="0" ry="0" fill="url(#linearGradient3285)" fill-rule="evenodd"/>
   <rect id="rect3424" transform="matrix(.10052 0 0 .099339 -4.1802 1058)" x="593.84" y="1023.5" width="182.08" height="5.6821" rx="3.0305" ry="2.3991" fill="#262626" fill-rule="evenodd" filter="url(#filter3538)"/>
   <rect id="rect3380" transform="matrix(.10052 0 0 .10394 -4.2817 1052.7)" x="595.99" y="1030" width="177.28" height="90.914" fill="url(#linearGradient3258)" fill-rule="evenodd" filter="url(#filter3498)" opacity=".65"/>
   <rect id="rect3748" x="2.0625" y="1063" width="124.7" height="81.684" rx=".64622" ry=".63861" fill="#fff" fill-rule="evenodd"/>
   <path id="path3746" d="m2.0446 1144c0.040121 0.2224 0.11115 0.713 0.96933 0.6563h123.09c0.68174-0.052 0.68564-0.3057 0.66417-0.7749-0.1068 0.2769-0.51878 0.5051-0.87224 0.4222l-123.85-0.3036z" fill="#d3d3d3" fill-rule="evenodd"/>
   <path id="path3744" d="m3.0686 1063.3c-0.60279 0.072-1.0795-0.1-1.0139 0.5357l-0.010198 80.292c0.26557 0.2429 0.58413 0.3602 0.96933 0.3193l0.054765-81.147z" fill="#f4f4f4" fill-rule="evenodd"/>
   <rect id="rect3248" x="2.4574" y="1063.2" width="123.95" height="81.216" rx=".64622" ry=".63861" fill="url(#linearGradient3205)" fill-rule="evenodd"/>
   <path id="path3710" d="m4.9777 1066.6 0.75085 0.7753 117.46-0.062 0.65519-0.6741-118.87-0.039z" fill="#959595" fill-rule="evenodd"/>
   <path id="path3692" d="m123.88 1140.8-0.11424 0.013-0.63465-0.7275 0.0615-72.698 0.67315-0.7096 0.0142 74.122z" fill="url(#linearGradient3201)" fill-rule="evenodd"/>
   <path id="path3666" d="m5.6975 1140.1-0.68212 0.7007 118.88 0.018-0.87958-0.9225-117.32 0.204z" fill="url(#linearGradient3198)" fill-rule="evenodd"/>
   <path id="path3644" d="m4.9726 1066.6 0.78697 0.7275-0.025386 72.702-0.73619 0.7275-0.025386-74.157z" fill="url(#linearGradient3195)" fill-rule="evenodd"/>
   <rect id="rect2450" x="5.6526" y="1067.3" width="117.59" height="72.873" rx="0" ry="0" fill="url(#radialGradient3192)" fill-rule="evenodd"/>
   <rect id="rect3321" x="2.0625" y="1063" width="124.7" height="81.684" rx=".64622" ry=".63861" fill="none" stroke="#ececec" stroke-linejoin="round" stroke-width=".09993"/>
   <path id="path3323" d="m4.9885 1066.6v74.159" fill="none" stroke="#b2b4b3" stroke-linejoin="round" stroke-width=".09993"/>
   <path id="path3325" d="m4.9526 1066.6h118.94" fill="none" stroke="#959595" stroke-linejoin="round" stroke-width=".09993"/>
   <path id="path3330" d="m4.9705 1140.8h118.96" fill="none" stroke="#c0c0c0" stroke-linejoin="round" stroke-width=".09993"/>
   <path id="path3332" d="m123.88 1140.8v-74.123" fill="none" stroke="#bbbbbd" stroke-linejoin="round" stroke-width=".09993"/>
   <path id="path3374" d="m5.6526 1067.3-0.62827-0.5854" fill="none" stroke="#8c8c8c" stroke-linecap="round" stroke-linejoin="round" stroke-width=".09993"/>
   <path id="path3376" d="m123.83 1066.7-0.55646 0.5677" fill="none" stroke="#878789" stroke-linecap="round" stroke-linejoin="round" stroke-width=".09993"/>
   <path id="path3378" d="m5.6453 1140.1-0.62196 0.6146" fill="none" stroke="#d4d4d4" stroke-linecap="round" stroke-linejoin="round" stroke-width=".09993"/>
   <path id="path3250" transform="matrix(.072274 0 0 .071232 32.466 1076.8)" d="m1289.5 684.56 5.4214 9.3903h-10.843z" fill-rule="evenodd"/>
   <path id="path3252" transform="matrix(.072274 0 0 -.071232 32.466 1178.7)" d="m1289.5 684.56 5.4214 9.3903h-10.843z" fill-rule="evenodd"/>
   <path id="path3254" d="m125.97 1133.1v0.4257h-0.52954" fill="none" stroke="#000" stroke-linejoin="round" stroke-width=".09993"/>
   <path id="path3256" transform="matrix(0 .04113 .041131 0 96.953 1080.5)" d="m1289.5 684.56 5.4214 9.3903h-10.843z" fill-rule="evenodd"/>
   <path id="path3262" d="m125.73 1138.6c0.14453 0.063 0.24541 0.2066 0.24541 0.3728 0 0.225-0.18481 0.4077-0.41253 0.4077-0.22771 0-0.41252-0.1827-0.41252-0.4077 0-0.1664 0.10109-0.3097 0.24587-0.373" fill="none" stroke="#000" stroke-linecap="round" stroke-linejoin="round" stroke-width=".09993"/>
   <path id="path3265" d="m125.56 1138.3v0.4515" fill="none" stroke="#000" stroke-linecap="round" stroke-linejoin="round" stroke-width=".09993"/>
   <path id="path3355" d="m125.65 1122.6c-0.16319-0.083-0.26381-0.079-0.4031-0.043v-0.5018c0.10853-0.094 0.24993-0.057 0.40617 0.038 0.15051-0.091 0.20425-0.168 0.4217-0.044v0.4645c-0.18835-0.046-0.30803-0.1027-0.42477 0.087z" fill="none" stroke="#000" stroke-linejoin="round" stroke-width=".09993"/>
   <path id="path3357" d="m125.66 1122.1v0.5233" fill="none" stroke="#000" stroke-linejoin="round" stroke-width=".09993"/>
   <path id="path3365" d="m122.25 1143c-0.15951 0-0.32311 0.095-0.32311 0.3193v0.8869c0 0.2839-0.26491 0.2838-0.41287 0.2838h1.4468c-0.14796 0-0.41287 1e-4 -0.41287-0.2838v-0.8869c0-0.224-0.16361-0.3193-0.32312-0.3193" fill="#e4e4e4" fill-rule="evenodd"/>
   <rect id="rect3813" x="118.77" y="1063.7" width="4.4877" height="2.4835" rx=".43081" ry=".42574" fill="#1b1b1b" fill-rule="evenodd"/>
   <rect id="rect3815" x="115.15" y="1063.7" width="3.4106" height="2.4835" rx=".43081" ry=".42574" fill="#1b1b1b" fill-rule="evenodd"/>
   <path id="path3627" transform="matrix(.10255 0 0 .10135 -3.3774 1056.2)" d="m677.86 851.89c0 6.9036-5.5964 12.5-12.5 12.5s-12.5-5.5964-12.5-12.5 5.5964-12.5 12.5-12.5 12.5 5.5964 12.5 12.5z" fill="#2e2f33" fill-rule="evenodd"/>
   <path id="path3629" d="m65.863 1142.6c0 0.5483-0.45034 0.9934-1.0052 0.9934-0.55489 0-1.0052-0.4451-1.0052-0.9934" fill="none" stroke="#d6d6d7" stroke-linecap="round" stroke-linejoin="round" stroke-width=".09993"/>
   <path id="path3632" transform="matrix(.13642 0 0 .13482 -25.305 1028.2)" d="m662.23 847.88c0 0.69036-0.55965 1.25-1.25 1.25-0.69036 0-1.25-0.55964-1.25-1.25s0.55964-1.25 1.25-1.25c0.69035 0 1.25 0.55964 1.25 1.25z" fill="#d6d6d7" fill-rule="evenodd"/>
   <path id="path3210" d="m5.6587 1125.3c35.282-0.4111 58.554 0 117.88 0" fill="#fff" stroke="#f2f2f2" stroke-width="3.1174"/>
   <path id="path3210-2" d="m5.6587 1110.4c35.282-0.4108 58.554 0 117.88 0" fill="#fff" stroke="#f2f2f2" stroke-width="3.1174"/>
   <path id="path3210-2-4" d="m5.6586 1095.5c35.282-0.4111 58.554 0 117.88 0" fill="#fff" stroke="#f2f2f2" stroke-width="3.1173"/>
   <path id="path3210-2-1" d="m5.6586 1080c35.282-0.4115 58.554 0 117.88 0" fill="#fff" stroke="#f2f2f2" stroke-width="3.1171"/>
   <path id="path3210-2-0-5-5" d="m25.674 1066.8c0.4379 22.117 0 36.704 0 73.894" fill="#e6e6e6" stroke="#e6e6e6" stroke-width="3.1054"/>
   <path id="path3210-2-0-5-5-1" d="m50.505 1066.8c0.4379 22.117 0 36.704 0 73.894" fill="#e6e6e6" stroke="#e6e6e6" stroke-width="3.1054"/>
   <path id="path3210-2-0-5-5-2" d="m75.475 1066.8c0.49452 22.128 0 36.722 0 73.931" fill="#e6e6e6" stroke="#e6e6e6" stroke-width="3.0802"/>
   <path id="path3210-2-0-5-5-6" d="m100.46 1066.3c0.37426 22.245 0 36.917 0 74.324" fill="#e6e6e6" stroke="#e6e6e6" stroke-width="3.1337"/>
  </g>
 </g>
</svg>
