<?xml version="1.0" encoding="UTF-8"?>
<svg id="svg3036" width="48px" height="48px"
   xmlns="http://www.w3.org/2000/svg"
   inkscape:export-filename="../geda-redo.png"
   inkscape:export-xdpi="90.0"
   inkscape:export-ydpi="90.0">
 <defs id="defs3038">
  <radialGradient id="radialGradient3025" cx="24.837" cy="36.421" r="15.645" gradientTransform="matrix(1 0 0 .53672 0 16.873)" gradientUnits="userSpaceOnUse">
   <stop id="stop8664" offset="0"/>
   <stop id="stop8666" stop-opacity="0" offset="1"/>
  </radialGradient>
  <linearGradient id="linearGradient3000" x1="21.552" x2="18.072" y1="29.205" y2="55.692" gradientTransform="matrix(1.3491 0 0 1.1993 -10.383 -4.1841)" gradientUnits="userSpaceOnUse">
   <stop id="stop5134" stop-color="#fff" offset="0"/>
   <stop id="stop5136" stop-color="#fff" stop-opacity="0" offset="1"/>
  </linearGradient>
  <linearGradient id="linearGradient3003" x1="13.188" x2="17.938" y1="35.938" y2="38.875" gradientTransform="matrix(1.3474 0 0 1.1958 -10.338 -3.7796)" gradientUnits="userSpaceOnUse">
   <stop id="stop1915" stop-color="#73d216" offset="0"/>
   <stop id="stop1917" stop-color="#8ae234" offset="1"/>
  </linearGradient>
 </defs>
 <g id="layer1">
  <path id="path8660" transform="matrix(1.3476 0 0 -.91499 -12.04 73.449)" d="m40.482 36.421a15.645 8.3969 0 1 1-31.289 0 15.645 8.3969 0 1 1 31.289 0z" color="#000000" fill="url(#radialGradient3025)" fill-rule="evenodd" opacity=".13"/>
  <path id="path1432" d="m13.141 46.318c-23.096-11.302-10.091-35.258 12.123-35.07v-9.6462l21.663 16.811-21.663 17.631v-10.438c-13.79-0.49646-19.863 8.6901-7.7777 15.98 3.4589 2.0865 1.0628 7.3791-4.3457 4.7325z" color="#000000" display="block" fill="url(#linearGradient3003)" stroke="#4e9a06" stroke-width="1.2694"/>
  <path id="path4247" d="m26.634 3.836v7.0457c-0.0097 0.6581-0.60878 1.1891-1.3491 1.1993-10.563-0.089715-18.864 5.6143-21.797 12.517-2.9328 6.903-0.77947 14.98 10.329 20.425 1.147 0.56217 1.9776 0.6185 2.5296 0.52469 0.55202-0.09394 0.90068-0.35626 1.1383-0.71206 0.47527-0.71162 0.40497-1.8078-0.75888-2.511-3.1802-1.9215-5.2736-4.0188-6.324-6.1837-1.0504-2.165-0.99811-4.4041 0.04235-6.2961 2.0805-3.7841 7.6279-6.0331 14.882-5.7715 0.72382 0.02974 1.2965 0.55522 1.3069 1.1993v7.7203l18.297-14.916-18.297-14.241z" color="#000000" display="block" fill="none" opacity=".61798" stroke="url(#linearGradient3000)" stroke-width="1.272"/>
 </g>
</svg>
