<?xml version="1.0" encoding="UTF-8"?>
<svg id="svg11300" width="128" height="128"
   xmlns:cc="http://creativecommons.org/ns#"
   xmlns:dc="http://purl.org/dc/elements/1.1/"
   xmlns:rdf="http://www.w3.org/1999/02/22-rdf-syntax-ns#"
   xmlns:xlink="http://www.w3.org/1999/xlink"
   inkscape:export-ydpi="48"
   inkscape:export-xdpi="48"
   inkscape:export-filename="../geda-verilog-blue.png">
 <title id="title3036">Verilog</title>
 <defs id="defs3">
  <linearGradient id="linearGradient3001" x1="3.6275" x2="127.83" y1="39.19" y2="36.599" gradientTransform="translate(-2.0257e-6 1.9568e-7)" gradientUnits="userSpaceOnUse">
   <stop id="stop3769-0" stop-color="#000080" offset="0"/>
   <stop id="stop3771-9" stop-color="#000080" stop-opacity="0" offset="1"/>
  </linearGradient>
  <linearGradient id="linearGradient3004" x1="124.37" x2="4.664" y1="-18.332" y2="-18.332" gradientUnits="userSpaceOnUse">
   <stop id="stop3769" stop-color="#000080" offset="0"/>
   <stop id="stop3771" stop-color="#000080" stop-opacity="0" offset="1"/>
  </linearGradient>
 </defs>
 <metadata id="metadata4">
  <rdf:RDF>
   <cc:Work rdf:about="">
    <dc:format>image/svg+xml</dc:format>
    <dc:type rdf:resource="http://purl.org/dc/dcmitype/StillImage"/>
    <dc:creator>
     <cc:Agent>
      <dc:title>Wiley Edward Hill</dc:title>
     </cc:Agent>
    </dc:creator>
    <dc:source>wileyhill@gmail.com</dc:source>
    <cc:license rdf:resource="GPL2"/>
    <dc:title>Verilog</dc:title>
    <dc:subject>
     <rdf:Bag>
      <rdf:li>Verilog</rdf:li>
     </rdf:Bag>
    </dc:subject>
   </cc:Work>
  </rdf:RDF>
 </metadata>
 <g id="layer1" transform="translate(0,80)">
  <path id="path2995" d="m2.6-40.047c6.047-1.4906 12.092-2.9806 18.134-4.4699 13.133-2.9599 26.352-5.445 39.623-7.0277h3e-6c6.9776-0.83201 13.953-1.4163 20.884-1.501 6.0438-0.06508 12 0.1769 17.624 1.3425 1e-6 0 2e-6 1e-6 3e-6 1e-6 2.3104 0.48059 4.5151 1.0881 6.5102 1.9499 1e-5 1e-6 1e-5 2e-6 1e-5 3e-6 1.6984 0.74668 3.2255 1.5973 4.3745 2.6526v1e-6c1.007 0.91999 1.8165 1.9766 2.2361 3.0644 0.50313 1.1445 0.65845 2.5644 0.6146 4.0362l9.9996-0.09407c-0.0832-2.7121-0.7467-5.5014-2.082-8.1155-1.3019-2.4317-3.088-4.4357-5.1466-5.9554-2.2508-1.6503-4.6512-2.7877-7.0239-3.5591 0-1e-6 0-1e-6 -1e-5 -1e-6 -2.7623-0.91213-5.5303-1.4552-8.2333-1.7776-6.5311-0.78126-12.967-0.54762-19.216 0.04382-7.2025 0.67009-14.293 1.8381-21.291 3.2493-13.323 2.6861-26.391 6.245-39.275 10.254-5.9134 1.97-11.824 3.9393-17.733 5.908z" fill="url(#linearGradient3004)" fill-rule="evenodd"/>
  <path id="path2995-5" d="m123.2 8.0472c-6.047 1.4907-12.092 2.9806-18.134 4.4699-13.133 2.9599-26.352 5.4451-39.623 7.0277-6.9776 0.83202-13.953 1.4163-20.884 1.501-6.0438 0.06508-12-0.1769-17.624-1.3425-2.3104-0.48059-4.5151-1.0881-6.5102-1.95-1.6984-0.74669-3.2255-1.5974-4.3745-2.6526 0-1e-6 -1e-6 -1e-6 -1e-6 -2e-6 -1.007-0.92-1.8165-1.9766-2.2361-3.0644-0.50314-1.1445-0.65846-2.5645-0.61461-4.0363l-9.9996 0.094075c0.083213 2.7122 0.7467 5.5014 2.082 8.1156 1.3019 2.4317 3.088 4.4358 5.1466 5.9554 2e-6 2e-6 5e-6 4e-6 7e-6 5e-6 2.2508 1.6503 4.6512 2.7878 7.0239 3.5591 3e-6 1e-6 5e-6 1e-6 7e-6 2e-6 2.7623 0.91214 5.5303 1.4553 8.2333 1.7777 2e-6 0 4e-6 0 6e-6 1e-6 6.5311 0.78126 12.967 0.54762 19.216-0.04382 7.2025-0.6701 14.293-1.8381 21.291-3.2493 13.323-2.6861 26.391-6.245 39.275-10.254 5.9134-1.97 11.824-3.9394 17.733-5.9081z" fill="url(#linearGradient3001)" fill-rule="evenodd"/>
  <text id="text3812" transform="scale(.80909 1.2359)" x="3.1199567" y="-2.7141042" fill="#000000" font-family="DejaVu Sans" font-size="38.132px" font-weight="bold" letter-spacing="0px" word-spacing="0px" style="line-height:125%" xml:space="preserve"><tspan id="tspan3814" x="3.1199567" y="-2.7141042">Verilog</tspan></text>
 </g>
</svg>
