<?xml version="1.0" encoding="UTF-8"?>
<svg id="svg5960" width="48" height="48"
xmlns="http://www.w3.org/2000/svg"
   xmlns:xlink="http://www.w3.org/1999/xlink"
   inkscape:export-filename="../geda-snap.png"
   inkscape:export-xdpi="90"
   inkscape:export-ydpi="90">
 <defs id="defs5962">
  <linearGradient id="linearGradient3871" x1="36.493" x2="47.848" y1="33.306" y2="39.41" gradientTransform="matrix(3.0113 -.00055622 .00017328 3.2454 -10.813 16.059)" gradientUnits="userSpaceOnUse">
   <stop id="stop4729-8" stop-color="#eeed4d" offset="0"/>
   <stop id="stop4730-9" stop-color="#fbcd11" offset="1"/>
  </linearGradient>
  <linearGradient id="linearGradient3874" x1="79.82" x2="12.241" y1="63.969" y2="14.953" gradientTransform="matrix(3.0103 -.00055603 .00017334 3.2466 -5.7184 4.9133)" gradientUnits="userSpaceOnUse">
   <stop id="stop4831-2" stop-color="#f21100" offset="0"/>
   <stop id="stop4832-1" stop-opacity="0" offset="1"/>
  </linearGradient>
 </defs>
 <g id="g2998">
  <rect id="rect3224-2" transform="matrix(.70698 -.70724 .70698 .70724 0 0)" x="-5.127" y="8.3746" width="10.264" height="10.37" color="#000000" fill="#6464ff" fill-opacity=".39216" fill-rule="evenodd" stroke="#00f" stroke-linecap="round" stroke-linejoin="round" stroke-miterlimit="0" stroke-width="2.592"/>
  <rect id="rect3224-2-8" transform="matrix(.70698 -.70724 .70698 .70724 0 0)" x="-5.127" y="49.127" width="10.264" height="10.37" color="#000000" fill="#6464ff" fill-opacity=".39216" fill-rule="evenodd" stroke="#d40000" stroke-linecap="round" stroke-linejoin="round" stroke-miterlimit="0" stroke-width="2.592"/>
  <g id="g30" transform="matrix(.002575 -.10279 .076059 -.0010004 13.745 36.651)">
   <title id="title32">Layer 1</title>
   <g id="g3876" fill-rule="evenodd">
    <path id="path4829" d="m171.24 29.523-94.144 90.493 47.239 1.6318-74.948 74.094 31.746 0.58315-52.6 57.805 127.1-70.521-47.313 0.50495 95.768-76.074-51.805-0.11713 86.737-79.155z" fill="url(#linearGradient3874)" opacity=".78873" stroke-width="0"/>
    <path id="path4828" d="m160.72 30.46-93.207 93.816 47.239 1.6318-74.948 74.094 31.746 0.58317-52.6 57.805 127.1-70.521-47.313 0.50496 95.768-76.074-51.805-0.11716 90.987-82.37z" fill="url(#linearGradient3871)" stroke="#ff8400" stroke-width="1.5135pt"/>
   </g>
  </g>
 </g>
</svg>
