<?xml version="1.0" encoding="UTF-8"?>
<svg id="svg2" width="48" height="48"
   xmlns="http://www.w3.org/2000/svg"
   xmlns:cc="http://creativecommons.org/ns#"
   xmlns:dc="http://purl.org/dc/elements/1.1/"
   xmlns:rdf="http://www.w3.org/1999/02/22-rdf-syntax-ns#"
   xmlns:xlink="http://www.w3.org/1999/xlink"
   inkscape:export-filename="../geda-text-editor.png"
   inkscape:export-xdpi="92"
   inkscape:export-ydpi="92">
 <defs id="defs4">
  <linearGradient id="linearGradient3399">
   <stop id="stop3401" offset="0"/>
   <stop id="stop3403" stop-opacity="0" offset="1"/>
  </linearGradient>
  <linearGradient id="linearGradient3275" x1="26.993" x2="30.432" y1="11.252" y2="14.691" gradientTransform="matrix(.9375 0 0 .84711 -.21202 5.0744)" gradientUnits="userSpaceOnUse">
   <stop id="stop2277" stop-color="#fce94f" offset="0"/>
   <stop id="stop2279" stop-color="#c4a000" offset="1"/>
  </linearGradient>
  <linearGradient id="linearGradient3277" x1="29.034" x2="25.992" y1="14.298" y2="11.256" gradientTransform="matrix(.9375 0 0 .84711 -.21202 5.0744)" gradientUnits="userSpaceOnUse">
   <stop id="stop2303" stop-color="#c4a000" offset="0"/>
   <stop id="stop2305" stop-color="#edd400" offset="1"/>
  </linearGradient>
  <radialGradient id="radialGradient4339" cx="37.375" cy="33.188" r="14.625" gradientTransform="matrix(.9375 0 0 .19187 .11607 28.553)" gradientUnits="userSpaceOnUse">
   <stop id="stop4335" offset="0"/>
   <stop id="stop4337" stop-opacity="0" offset="1"/>
  </radialGradient>
  <linearGradient id="linearGradient4688" x1="6.7929" x2="7.9216" y1="32.963" y2="54.449" gradientTransform="matrix(.9375 0 0 .84711 .1875 6.9373)" gradientUnits="userSpaceOnUse">
   <stop id="stop4684" stop-color="#fff" offset="0"/>
   <stop id="stop4686" stop-color="#fff" stop-opacity="0" offset="1"/>
  </linearGradient>
  <linearGradient id="linearGradient3091" x1="18.188" x2="32.938" y1="18.538" y2="18.392" gradientTransform="matrix(1 0 0 .415 6.5485 26.767)" gradientUnits="userSpaceOnUse">
   <stop id="stop1815" offset="0"/>
   <stop id="stop1817" stop-opacity="0" offset="1"/>
  </linearGradient>
  <linearGradient id="linearGradient3129" x1="11.95" x2="94.364" y1="40.665" y2="47.897" gradientTransform="matrix(1 0 0 1.4897 -2 -22.552)" gradientUnits="userSpaceOnUse">
   <stop id="stop2921" stop-color="#d3d7cf" offset="0"/>
   <stop id="stop2923" stop-color="#d3d7cf" stop-opacity="0" offset="1"/>
  </linearGradient>
  <linearGradient id="linearGradient3133" x1="18" x2="18" y1="46" y2="32.999" gradientTransform="matrix(1 0 0 .375 -1.5378e-6 28.125)" gradientUnits="userSpaceOnUse">
   <stop id="stop3417" stop-opacity="0" offset="0"/>
   <stop id="stop3423" offset=".5"/>
   <stop id="stop3419" stop-opacity="0" offset="1"/>
  </linearGradient>
  <radialGradient id="radialGradient3136" cx="6" cy="39.5" r="3" gradientTransform="matrix(1 0 0 .8125 -45 -75.031)" gradientUnits="userSpaceOnUse" xlink:href="#linearGradient3399"/>
  <radialGradient id="radialGradient3139" cx="6" cy="39.5" r="3" gradientTransform="matrix(1 0 0 .8125 -1.5378e-6 10.844)" gradientUnits="userSpaceOnUse" xlink:href="#linearGradient3399"/>
  <radialGradient id="radialGradient3142" cx="29.481" cy="36.777" r="18.5" gradientTransform="matrix(2.0129 0 0 1.3389 -28.887 -12.682)" gradientUnits="userSpaceOnUse">
   <stop id="stop4692" stop-color="#fff" offset="0"/>
   <stop id="stop4694" stop-color="#eeeeec" offset="1"/>
  </radialGradient>
  <linearGradient id="linearGradient3144" x1="5.6569" x2="4" y1="53.321" y2="16.003" gradientUnits="userSpaceOnUse">
   <stop id="stop4702" stop-color="#2e3436" offset="0"/>
   <stop id="stop4704" stop-color="#888a85" offset="1"/>
  </linearGradient>
  <linearGradient id="linearGradient3930" x1="7.5599" x2="36.32" y1="3.703" y2="3.703" gradientUnits="userSpaceOnUse">
   <stop id="stop3924" stop-color="#000080" offset="0"/>
   <stop id="stop3926" stop-color="#000080" stop-opacity="0" offset="1"/>
  </linearGradient>
 </defs>
 <metadata id="metadata7">
  <rdf:RDF>
   <cc:Work rdf:about="">
    <dc:format>image/svg+xml</dc:format>
    <dc:type rdf:resource="http://purl.org/dc/dcmitype/StillImage"/>
    <dc:creator>
     <cc:Agent>
      <dc:title>Wiley E. Coyote</dc:title>
     </cc:Agent>
    </dc:creator>
    <cc:license rdf:resource="GPL2"/>
    <dc:title>Text editor</dc:title>
   </cc:Work>
  </rdf:RDF>
 </metadata>
 <g id="layer1">
  <g id="geda-text-editor">
   <path id="rect3790" d="m8.619 4.2333h30.362c1.0446 0 1.8099 0.88852 1.8856 2.0868l2.0667 32.71 0.06669 4.1317h-38.4v-4.1317l2.1333-32.71c0.074747-1.1461 0.84099-2.0868 1.8856-2.0868z" fill="url(#radialGradient3142)" stroke="url(#linearGradient3144)" stroke-linecap="round" stroke-linejoin="round" stroke-width="1.1221"/>
   <rect id="rect3397" x="3" y="39.62" width="3.2" height="5.7549" fill="url(#radialGradient3139)" opacity=".3"/>
   <rect id="rect3407" transform="scale(-1)" x="-44.6" y="-45.375" width="3.2" height="5.7549" fill="url(#radialGradient3136)" opacity=".3"/>
   <rect id="rect3413" x="6.2" y="39.62" width="35.2" height="5.7549" fill="url(#linearGradient3133)" opacity=".3"/>
   <path id="path4331" transform="matrix(.95727 0 0 1.1582 1.2222 -6.1959)" d="m52 33.188a14.625 3.3125 0 1 1-29.25 0 14.625 3.3125 0 1 1 29.25 0z" fill="url(#radialGradient4339)" opacity=".07"/>
   <rect id="rect2757" x="5.1333" y="39.03" width="37.333" height="3.5537" fill="url(#linearGradient3129)"/>
   <path id="path4680" d="m8.2812 11.5c-0.46366 0-0.77473 0.32045-0.8125 0.84375l-2 27.656v0.0625 2.4688h34.031l-0.03125-2.4688v-0.03125l-1.9375-27.688c-0.040859-0.58434-0.31956-0.84375-0.8125-0.84375h-28.438z" fill="none" stroke="url(#linearGradient4688)" stroke-linecap="round"/>
   <path id="path2760" d="m4.69 43.162h38.4" fill="none" stroke="#c17d11" stroke-linecap="square" stroke-width="1.1221px"/>
   <rect id="rect3297" x="32.867" y="11.879" width="5.3333" height="1.18" rx=".5" ry=".5" fill="#888a85" opacity=".48"/>
   <rect id="rect3305" x="9.2667" y="14.24" width="2.2667" height="1.18" rx=".5" ry=".5" fill="#888a85" opacity=".48"/>
   <rect id="rect3287" x="8.15" y="33.128" width="4.45" height="1.18" rx=".46088" ry=".5" fill="#888a85" opacity=".48"/>
   <rect id="rect3307" x="8.9833" y="17.781" width="8.95" height="1.18" rx=".5" ry=".5" fill="#888a85" opacity=".48"/>
   <rect id="rect3309" x="8.85" y="20.142" width="3.75" height="1.18" rx=".4952" ry=".5" fill="#888a85" opacity=".48"/>
   <rect id="rect3313" x="35" y="29.586" width="4.27" height="1.18" rx=".5" ry=".5" fill="#888a85" opacity=".48"/>
   <rect id="rect2940" x="22.2" y="33.128" width="3.28" height="1.18" rx=".5" ry=".5" fill="#888a85" opacity=".48"/>
   <rect id="rect2915" x="31.8" y="17.781" width="5.3333" height="1.18" rx=".54237" ry=".5" fill="#888a85" opacity=".48"/>
   <rect id="rect2885" x="8.7167" y="23.684" width="2.8167" height="1.18" rx=".5" ry=".5" fill="#888a85" opacity=".48"/>
   <rect id="rect2893" x="9.4" y="11.879" width="6.4" height="1.18" rx=".5" ry=".5" fill="#888a85" opacity=".48"/>
   <rect id="rect2895" x="22.2" y="11.879" width="5.3333" height="1.18" rx=".5" ry=".5" fill="#888a85" opacity=".48"/>
   <rect id="rect2897" x="29.667" y="11.879" width="2.1333" height="1.18" rx=".5" ry=".5" fill="#888a85" opacity=".48"/>
   <rect id="rect2899" x="16.867" y="11.879" width="2.1333" height="1.18" rx=".5" ry=".5" fill="#888a85" opacity=".48"/>
   <rect id="rect2901" x="20.067" y="11.879" width="2.1333" height="1.18" rx=".5" ry=".5" fill="#888a85" opacity=".48"/>
   <rect id="rect2903" x="12.6" y="14.24" width="4.2667" height="1.18" rx=".54237" ry=".5" fill="#888a85" opacity=".48"/>
   <rect id="rect2905" x="17.933" y="14.24" width="2.1333" height="1.18" rx=".54237" ry=".5" fill="#888a85" opacity=".48"/>
   <rect id="rect2907" x="21.133" y="14.24" width="4.2667" height="1.18" rx=".54237" ry=".5" fill="#888a85" opacity=".48"/>
   <rect id="rect2909" x="20.067" y="17.781" width="4.2667" height="1.18" rx=".54237" ry=".5" fill="#888a85" opacity=".48"/>
   <rect id="rect2911" x="24.333" y="17.781" width="2.1333" height="1.18" rx=".54237" ry=".5" fill="#888a85" opacity=".48"/>
   <rect id="rect2913" x="27.533" y="17.781" width="3.28" height="1.18" rx=".54237" ry=".5" fill="#888a85" opacity=".48"/>
   <rect id="rect2919" x="13.667" y="20.142" width="2.1333" height="1.18" rx=".54237" ry=".5" fill="#888a85" opacity=".48"/>
   <rect id="rect2921" x="16.867" y="20.142" width="4.2667" height="1.18" rx=".54237" ry=".5" fill="#888a85" opacity=".48"/>
   <rect id="rect2923" x="21.133" y="20.142" width="2.1333" height="1.18" rx=".54237" ry=".5" fill="#888a85" opacity=".48"/>
   <rect id="rect2925" x="25.4" y="20.142" width="2.1333" height="1.18" rx=".54237" ry=".5" fill="#888a85" opacity=".48"/>
   <rect id="rect2931" x="12.6" y="23.684" width="2.1333" height="1.18" rx=".54237" ry=".5" fill="#888a85" opacity=".48"/>
   <rect id="rect2933" x="14.733" y="23.684" width="4.2667" height="1.18" rx=".54237" ry=".5" fill="#888a85" opacity=".48"/>
   <rect id="rect2935" x="20.067" y="23.684" width="2.1333" height="1.18" rx=".54237" ry=".5" fill="#888a85" opacity=".48"/>
   <rect id="rect2938" x="13.667" y="33.128" width="6.4" height="1.18" rx=".54237" ry=".5" fill="#888a85" opacity=".48"/>
   <rect id="rect2942" x="8.3333" y="29.586" width="2.1333" height="1.18" rx=".5" ry=".5" fill="#888a85" opacity=".48"/>
   <rect id="rect2945" x="11.533" y="29.586" width="4.2667" height="1.18" rx=".54237" ry=".5" fill="#888a85" opacity=".48"/>
   <rect id="rect2947" x="17.933" y="29.586" width="5.3333" height="1.18" rx=".54237" ry=".5" fill="#888a85" opacity=".48"/>
   <rect id="rect2949" x="24.333" y="29.586" width="4.2667" height="1.18" rx=".54237" ry=".5" fill="#888a85" opacity=".48"/>
   <rect id="rect2951" x="29.675" y="29.591" width="4.2667" height="1.18" rx=".54237" ry=".5" fill="#888a85" opacity=".48"/>
   <path id="path2334" d="m43.618 25.414-16 5.2802-0.13333 0.07656-0.1 0.09185-2.9333 3.3681 7.9333-0.99513 0.3-0.03062 0.2-0.09185 10.733-3.1675v-4.5317z" fill="url(#linearGradient3091)" fill-rule="evenodd" opacity=".23529"/>
   <g id="g2321" transform="matrix(1.0667 0 0 1.18 6.6184 6.1944)">
    <path id="path2273" d="m19.5 18 17-17c2.175 0.35996 3.0847 1.7322 3.5 3.5l-17 17-5.5 1.5 2-5z" fill="url(#linearGradient3275)" fill-rule="evenodd" stroke="url(#linearGradient3277)"/>
    <path id="path2313" d="m20.4 18.5 16.498-16.398c1.0897 0.17843 1.5173 0.98794 2 2l-16.398 16.498-3.3 0.9 1.2-3z" fill="none" opacity=".28235" stroke="#fff"/>
    <path id="path2298" d="m18.346 22.277 1.5978-4.0084s1.1502 0.23527 1.8527 0.935 0.95734 1.8639 0.95734 1.8639l-4.4079 1.2095z" fill="#fff" fill-rule="evenodd" opacity=".50196"/>
    <path id="path2283" d="m17.562 21.5-0.90625 2.25 2.3438-0.65625c2e-3 -0.03184 0-0.06141 0-0.09375 0-0.80212-0.64531-1.4598-1.4375-1.5z" fill-rule="evenodd"/>
   </g>
   <text id="text3234" transform="scale(1.0834 .92303)" x="6.7042375" y="9.3511915" fill="#0000ff" font-family="Sans" font-size="15.151px" letter-spacing="0px" stroke="url(#linearGradient3930)" stroke-width="1.2625" word-spacing="0px" style="line-height:125%" xml:space="preserve"><tspan id="tspan3236" x="6.7042375" y="9.3511915" fill="#0000ff" font-family="Sans" stroke="url(#linearGradient3930)" stroke-width="1.2625">Edit</tspan></text>
  </g>
 </g>
</svg>
