<?xml version="1.0" encoding="UTF-8" standalone="no"?>
<svg
   xmlns:svg="http://www.w3.org/2000/svg"
   xmlns="http://www.w3.org/2000/svg"
   sodipodi:docname="geda_display.svg"
   inkscape:export-filename="../geda-display.png"
   height="128"
   sodipodi:version="0.32"
   width="128"
   inkscape:export-xdpi="90"
   version="1.0"
   inkscape:version="0.48.3.1 r9886">
  <defs
     id="defs1903">
    <filter
       id="filter3474"
       height="2.122"
       width="1.0695"
       color-interpolation-filters="sRGB"
       y="-.56101"
       x="-.034729"
       inkscape:collect="always">
      <feGaussianBlur
         id="feGaussianBlur3476"
         stdDeviation="1.5348278"
         inkscape:collect="always" />
    </filter>
    <filter
       id="filter3498"
       inkscape:collect="always"
       color-interpolation-filters="sRGB">
      <feGaussianBlur
         id="feGaussianBlur3500"
         stdDeviation="2.6826708"
         inkscape:collect="always" />
    </filter>
    <filter
       id="filter3538"
       height="1.354"
       width="1.011"
       color-interpolation-filters="sRGB"
       y="-.17702"
       x="-.0055243"
       inkscape:collect="always">
      <feGaussianBlur
         id="feGaussianBlur3540"
         stdDeviation="0.41911182"
         inkscape:collect="always" />
    </filter>
    <linearGradient
       id="linearGradient3210"
       y2="1113"
       gradientUnits="userSpaceOnUse"
       x2="996.22"
       y1="1113"
       x1="373.36"
       inkscape:collect="always"
       gradientTransform="matrix(0.99998837,0,0,0.99997182,-0.03291879,-0.15958539)">
      <stop
         id="stop3610"
         stop-color="#787878"
         offset="0" />
      <stop
         id="stop3616"
         stop-color="#262626"
         offset=".058866" />
      <stop
         id="stop3618"
         stop-color="#262626"
         offset=".92191" />
      <stop
         id="stop3612"
         stop-color="#787878"
         offset="1" />
    </linearGradient>
    <linearGradient
       id="linearGradient3212"
       y2="1077.7"
       gradientUnits="userSpaceOnUse"
       x2="1008.5"
       y1="1077.7"
       x1="361.08"
       inkscape:collect="always"
       gradientTransform="matrix(0.99998837,0,0,0.99997182,-0.03291879,-0.15958539)">
      <stop
         id="stop3588"
         stop-color="#5c5b60"
         offset="0" />
      <stop
         id="stop3594"
         stop-color="#b3b2b6"
         offset=".23476" />
      <stop
         id="stop3596"
         stop-color="#5c5b60"
         offset=".49256" />
      <stop
         id="stop3598"
         stop-color="#aeadb2"
         offset=".77982" />
      <stop
         id="stop3590"
         stop-color="#5c5b60"
         offset="1" />
    </linearGradient>
    <linearGradient
       id="linearGradient3214"
       y2="1068.4"
       gradientUnits="userSpaceOnUse"
       x2="1008.5"
       gradientTransform="matrix(0.99998837,0,0,0.97998239,-0.03291879,22.71577)"
       y1="1068.4"
       x1="361.08"
       inkscape:collect="always">
      <stop
         id="stop3556"
         stop-color="#7b7b7d"
         offset="0" />
      <stop
         id="stop3562"
         stop-color="#f8f8f6"
         offset=".5" />
      <stop
         id="stop3558"
         stop-color="#7b7b7d"
         offset="1" />
    </linearGradient>
    <radialGradient
       id="radialGradient3216"
       gradientUnits="userSpaceOnUse"
       cy="1272.5"
       cx="527.65"
       gradientTransform="matrix(1.548082,-0.18342483,0.03729657,0.32350088,-356.95876,814.24747)"
       r="323.71"
       inkscape:collect="always">
      <stop
         id="stop3566"
         stop-color="#818183"
         offset="0" />
      <stop
         id="stop3572"
         stop-color="#fff"
         offset=".5" />
      <stop
         id="stop3568"
         stop-color="#81818f"
         stop-opacity=".94118"
         offset="1" />
    </radialGradient>
    <linearGradient
       id="linearGradient3218"
       y2="1061.3"
       gradientUnits="userSpaceOnUse"
       x2="980.65"
       y1="1061.3"
       x1="388.93"
       inkscape:collect="always"
       gradientTransform="matrix(0.99998837,0,0,0.99997182,-0.03291879,-0.15958539)">
      <stop
         id="stop3546"
         stop-color="#8b8b8d"
         offset="0" />
      <stop
         id="stop3552"
         stop-color="#7f7f81"
         offset=".5" />
      <stop
         id="stop3548"
         stop-color="#8b8b8d"
         offset="1" />
    </linearGradient>
    <linearGradient
       id="linearGradient3220"
       y2="1104"
       gradientUnits="userSpaceOnUse"
       x2="666.97"
       y1="1066.9"
       x1="665.68"
       inkscape:collect="always"
       gradientTransform="matrix(0.99998837,0,0,0.99997182,-0.01011063,-0.04934203)">
      <stop
         id="stop3520"
         stop-color="#767175"
         offset="0" />
      <stop
         id="stop3522"
         stop-color="#525053"
         offset="1" />
    </linearGradient>
    <linearGradient
       id="linearGradient3222"
       y2="1055.4"
       gradientUnits="userSpaceOnUse"
       x2="636.02"
       y1="1106.6"
       x1="636.94"
       inkscape:collect="always"
       gradientTransform="matrix(0.99998837,0,0,0.99997182,-0.01011063,-0.04934203)">
      <stop
         id="stop3602"
         stop-color="#343434"
         offset="0" />
      <stop
         id="stop3604"
         stop-color="#343434"
         stop-opacity=".42609"
         offset="1" />
    </linearGradient>
    <linearGradient
       id="linearGradient3224"
       y2="1029.2"
       gradientUnits="userSpaceOnUse"
       x2="677.31"
       y1="868.61"
       x1="677.31"
       inkscape:collect="always"
       gradientTransform="matrix(0.99998837,0,0,0.99997182,-0.03291879,-0.15958539)">
      <stop
         id="stop3336"
         offset="0" />
      <stop
         id="stop3342"
         stop-color="#1e1e1e"
         offset=".5" />
      <stop
         id="stop3338"
         stop-color="#1e1e1e"
         offset="1" />
    </linearGradient>
    <linearGradient
       id="linearGradient3226"
       y2="1105"
       gradientUnits="userSpaceOnUse"
       x2="674.25"
       y1="1034.7"
       x1="674.3"
       inkscape:collect="always"
       gradientTransform="matrix(0.99998837,0,0,0.99997182,-0.03290704,-0.15109631)">
      <stop
         id="stop3504"
         offset="0" />
      <stop
         id="stop3506"
         stop-opacity="0"
         offset="1" />
    </linearGradient>
    <linearGradient
       id="linearGradient3228"
       y2="462.01"
       gradientUnits="userSpaceOnUse"
       x2="1299.2"
       y1="462.01"
       x1="65.643"
       inkscape:collect="always"
       gradientTransform="matrix(0.99998837,0,0,0.99997182,-0.03292039,-0.15958222)">
      <stop
         id="stop3738"
         stop-color="#d3d2d3"
         offset="0" />
      <stop
         id="stop3740"
         stop-color="#a4a3a7"
         offset="1" />
    </linearGradient>
    <linearGradient
       id="linearGradient3230"
       y2="826.46"
       gradientUnits="userSpaceOnUse"
       x2="1270.1"
       y1="87.607"
       x1="1270.1"
       inkscape:collect="always"
       gradientTransform="matrix(0.99998837,0,0,0.99997182,-0.03292039,-0.15958222)">
      <stop
         id="stop3704"
         stop-color="#dadada"
         offset="0" />
      <stop
         id="stop3706"
         stop-color="#ceced0"
         offset="1" />
    </linearGradient>
    <linearGradient
       id="linearGradient3232"
       y2="809.39"
       gradientUnits="userSpaceOnUse"
       x2="1273.9"
       gradientTransform="matrix(0.99998837,0,0,0.99997182,-0.03292039,19.839854)"
       y1="809.39"
       x1="91.339"
       inkscape:collect="always">
      <stop
         id="stop3670"
         stop-color="#dcdcdc"
         offset="0" />
      <stop
         id="stop3682"
         stop-color="#e2e2e2"
         offset=".5" />
      <stop
         id="stop3672"
         stop-color="#e0e0e0"
         offset="1" />
    </linearGradient>
    <linearGradient
       id="linearGradient3234"
       y2="87.007"
       gradientUnits="userSpaceOnUse"
       x2="94.828"
       y1="834.01"
       x1="94.828"
       inkscape:collect="always"
       gradientTransform="matrix(0.99998837,0,0,0.99997182,-0.03292039,-0.15958222)">
      <stop
         id="stop3660"
         stop-color="#dcdcdc"
         offset="0" />
      <stop
         id="stop3662"
         stop-color="#efefef"
         offset="1" />
    </linearGradient>
    <radialGradient
       id="radialGradient3236"
       gradientUnits="userSpaceOnUse"
       cy="-100.64"
       cx="-719.95"
       gradientTransform="matrix(0.16119813,0.94334342,-0.64185254,0.10967691,-620.50465,642.46834)"
       r="585.16"
       inkscape:collect="always">
      <stop
         id="stop3346"
         stop-color="#3e3f42"
         offset="0" />
      <stop
         id="stop3348"
         stop-color="#141414"
         offset="1" />
    </radialGradient>
  </defs>
  <sodipodi:namedview
     id="base"
     bordercolor="#666666"
     inkscape:pageshadow="2"
     inkscape:window-y="31"
     pagecolor="#ffffff"
     gridtolerance="10000"
     inkscape:window-height="718"
     inkscape:window-maximized="0"
     inkscape:zoom="3.3260145"
     inkscape:window-x="0"
     showgrid="false"
     borderopacity="1.0"
     inkscape:current-layer="layer2"
     inkscape:cx="111.50894"
     inkscape:cy="58.831537"
     inkscape:window-width="1022"
     inkscape:pageopacity="0.0"
     inkscape:document-units="px" />
  <metadata
     id="metadata1906">
    <rdf:RDF>
      <cc:Work
         rdf:about="">
        <dc:format>image/svg+xml</dc:format>
        <dc:type
           rdf:resource="http://purl.org/dc/dcmitype/StillImage" />
        <dc:title />
      </cc:Work>
    </rdf:RDF>
  </metadata>
  <g
     id="layer2"
     transform="translate(0,-1053)"
     inkscape:groupmode="layer"
     inkscape:label="vektori">
    <text
       id="text3258"
       line-height="100%"
       xml:space="preserve"
       font-size="12px"
       y="640.10712"
       x="1275"
       font-family="Webdings"
       sodipodi:linespacing="100%"
       fill="#000000"><tspan
         id="tspan3260"
         sodipodi:role="line"
         x="1275"
         y="640.10712" /></text>
    <g
       id="g3138"
       transform="matrix(0.10147118,0,0,0.08582942,-4.9000596,1064.7137)">
      <g
         id="g3780"
         transform="translate(-0.13736,0.11239)">
        <path
           id="path3372"
           d="m 373.36,1100.7 c 0,25.71 139.52,55.974 311.43,55.974 171.91,0 311.43,-30.264 311.43,-55.974 v -28.301 h -599.07 0.35714 l -24.137,-3.2143 v 31.516 z"
           sodipodi:nodetypes="css"
           inkscape:connector-curvature="0"
           style="fill:url(#linearGradient3210);fill-rule:evenodd" />
        <path
           id="path3370"
           d="m 1008,1062.1 c 0,42.624 -144.8,92.799 -323.21,92.799 -178.41,0 -323.21,-50.174 -323.21,-92.799 0,-42.624 144.8,-61.636 323.21,-61.636 178.41,0 323.21,19.012 323.21,61.636 z"
           sodipodi:nodetypes="csssc"
           inkscape:connector-curvature="0"
           style="fill:url(#linearGradient3212);fill-rule:evenodd" />
        <path
           id="path3361"
           d="m 1008,1054.9 c 0,40.999 -144.8,89.261 -323.21,89.261 -178.41,0 -323.21,-48.262 -323.21,-89.261 0,-40.999 144.8,-59.286 323.21,-59.286 178.41,0 323.21,18.287 323.21,59.286 z"
           sodipodi:nodetypes="csssc"
           inkscape:connector-curvature="0"
           style="fill:url(#linearGradient3214);fill-rule:evenodd;stroke:url(#radialGradient3216);stroke-linejoin:round" />
        <path
           id="path3359"
           d="m 980.15,1047.1 c 0,38.681 -132.32,84.214 -295.36,84.214 -163.04,0 -295.36,-45.533 -295.36,-84.214 0,-38.681 132.32,-55.934 295.36,-55.934 163.04,0 295.36,17.254 295.36,55.934 z"
           sodipodi:nodetypes="csssc"
           inkscape:connector-curvature="0"
           style="fill:url(#linearGradient3218);fill-rule:evenodd;stroke:#858588;stroke-linejoin:round" />
        <path
           id="path3432"
           sodipodi:rx="53.033009"
           sodipodi:ry="3.2829957"
           sodipodi:type="arc"
           d="m 686.39867,1022.6586 c 0,1.8132 -23.74369,3.283 -53.03301,3.283 -29.28932,0 -53.03301,-1.4698 -53.03301,-3.283 0,-1.8131 23.74369,-3.283 53.03301,-3.283 29.28932,0 53.03301,1.4699 53.03301,3.283 z"
           transform="matrix(2.0048,0,0,4.4615,-583.1,-3539.7)"
           sodipodi:cy="1022.6586"
           sodipodi:cx="633.36566"
           style="opacity:0.33636002;fill-rule:evenodd;filter:url(#filter3474)" />
        <path
           id="path3352"
           d="m 776.43,1080.5 c 0,13.997 -47.84,30.474 -106.79,30.474 -58.946,0 -106.79,-16.477 -106.79,-30.474 0,-13.997 47.84,-20.24 106.79,-20.24 58.946,0 106.79,6.2434 106.79,20.24 z"
           sodipodi:nodetypes="csssc"
           inkscape:connector-curvature="0"
           transform="matrix(2.2843,0,0,2.3691,-844.85,-1515)"
           style="fill:url(#linearGradient3220);fill-rule:evenodd;stroke:url(#linearGradient3222);stroke-width:0.42987001;stroke-linejoin:round" />
        <rect
           id="rect3267"
           rx="0"
           ry="0"
           height="160.11"
           width="178.03999"
           y="868.85999"
           x="594.72998"
           style="fill:url(#linearGradient3224);fill-rule:evenodd" />
        <rect
           id="rect3424"
           rx="3.0304646"
           ry="2.3990324"
           height="5.6820998"
           width="182.08"
           y="1023.5"
           x="593.84003"
           style="fill:#262626;fill-rule:evenodd;filter:url(#filter3538)" />
        <rect
           id="rect3269"
           height="160"
           width="6.7856998"
           y="868.85999"
           x="602.14001"
           style="fill:#8f8f8f;fill-opacity:0.13145997;fill-rule:evenodd" />
        <path
           id="path3271"
           d="m 609.57,868.86 v 159.73"
           inkscape:connector-curvature="0"
           style="fill:none;stroke:#0e0e0e;stroke-linejoin:round" />
        <rect
           id="rect3281"
           height="160"
           width="6.7856998"
           y="868.85999"
           x="618.14001"
           style="fill:#8f8f8f;fill-opacity:0.13145997;fill-rule:evenodd" />
        <path
           id="path3283"
           d="m 625.57,868.86 v 159.73"
           inkscape:connector-curvature="0"
           style="fill:none;stroke:#0e0e0e;stroke-linejoin:round" />
        <rect
           id="rect3285"
           height="160"
           width="6.7856998"
           y="868.85999"
           x="634.14001"
           style="fill:#8f8f8f;fill-opacity:0.13145997;fill-rule:evenodd" />
        <path
           id="path3287"
           d="m 641.57,868.86 v 159.73"
           inkscape:connector-curvature="0"
           style="fill:none;stroke:#0e0e0e;stroke-linejoin:round" />
        <rect
           id="rect3289"
           height="160"
           width="6.7856998"
           y="868.85999"
           x="650.14001"
           style="fill:#8f8f8f;fill-opacity:0.13145997;fill-rule:evenodd" />
        <path
           id="path3291"
           d="m 657.57,868.86 v 159.73"
           inkscape:connector-curvature="0"
           style="fill:none;stroke:#0e0e0e;stroke-linejoin:round" />
        <rect
           id="rect3293"
           height="160"
           width="6.7856998"
           y="868.85999"
           x="666.14001"
           style="fill:#8f8f8f;fill-opacity:0.13145997;fill-rule:evenodd" />
        <path
           id="path3295"
           d="m 673.57,868.86 v 159.73"
           inkscape:connector-curvature="0"
           style="fill:none;stroke:#0e0e0e;stroke-linejoin:round" />
        <rect
           id="rect3297"
           height="160"
           width="6.7856998"
           y="868.85999"
           x="682.14001"
           style="fill:#8f8f8f;fill-opacity:0.13145997;fill-rule:evenodd" />
        <path
           id="path3299"
           d="m 689.57,868.86 v 159.73"
           inkscape:connector-curvature="0"
           style="fill:none;stroke:#0e0e0e;stroke-linejoin:round" />
        <rect
           id="rect3301"
           height="160"
           width="6.7856998"
           y="868.85999"
           x="698.14001"
           style="fill:#8f8f8f;fill-opacity:0.13145997;fill-rule:evenodd" />
        <path
           id="path3303"
           d="m 705.57,868.86 v 159.73"
           inkscape:connector-curvature="0"
           style="fill:none;stroke:#0e0e0e;stroke-linejoin:round" />
        <rect
           id="rect3305"
           height="160"
           width="6.7856998"
           y="868.85999"
           x="714.14001"
           style="fill:#8f8f8f;fill-opacity:0.13145997;fill-rule:evenodd" />
        <path
           id="path3307"
           d="m 721.57,868.86 v 159.73"
           inkscape:connector-curvature="0"
           style="fill:none;stroke:#0e0e0e;stroke-linejoin:round" />
        <rect
           id="rect3309"
           height="160"
           width="6.7856998"
           y="868.85999"
           x="730.14001"
           style="fill:#8f8f8f;fill-opacity:0.13145997;fill-rule:evenodd" />
        <path
           id="path3311"
           d="m 737.57,868.86 v 159.73"
           inkscape:connector-curvature="0"
           style="fill:none;stroke:#0e0e0e;stroke-linejoin:round" />
        <rect
           id="rect3313"
           height="160"
           width="6.7856998"
           y="868.85999"
           x="746.14001"
           style="fill:#8f8f8f;fill-opacity:0.13145997;fill-rule:evenodd" />
        <path
           id="path3315"
           d="m 753.57,868.86 v 159.73"
           inkscape:connector-curvature="0"
           style="fill:none;stroke:#0e0e0e;stroke-linejoin:round" />
        <rect
           id="rect3317"
           height="160"
           width="6.7856998"
           y="868.85999"
           x="762.14001"
           style="fill:#8f8f8f;fill-opacity:0.13145997;fill-rule:evenodd" />
        <path
           id="path3319"
           d="m 769.57,868.86 v 159.73"
           inkscape:connector-curvature="0"
           style="fill:none;stroke:#0e0e0e;stroke-linejoin:round" />
        <rect
           id="rect3380"
           transform="matrix(1,0,0,1.0464,-1.0102,-52.46)"
           height="90.914001"
           width="177.28"
           y="1030"
           x="595.98999"
           style="opacity:0.65;fill:url(#linearGradient3226);fill-rule:evenodd;filter:url(#filter3498)" />
      </g>
      <rect
         id="rect3748"
         rx="6.428525"
         ry="6.4284186"
         height="822.27002"
         width="1240.5"
         y="50.667999"
         x="61.964001"
         style="fill:#ffffff;fill-rule:evenodd" />
      <path
         id="path3746"
         d="m 61.786,866.36 c 0.39912,2.2395 1.1057,7.1774 9.6429,6.6072 h 1224.5 c 6.7819,-0.52607 6.8207,-3.0778 6.6071,-7.8011 -1.0625,2.7882 -5.1608,5.0845 -8.677,4.2507 l -1232,-3.06 z"
         sodipodi:nodetypes="cccccc"
         inkscape:connector-curvature="0"
         style="fill:#d3d3d3;fill-rule:evenodd" />
      <path
         id="path3744"
         d="M 71.973,53.417 C 65.977,54.138 61.235,52.415 61.887,58.81 l -0.101,808.26 c 2.6419,2.4452 5.8108,3.6254 9.6429,3.2143 l 0.544,-816.86 z"
         sodipodi:nodetypes="ccccc"
         inkscape:connector-curvature="0"
         style="fill:#f4f4f4;fill-rule:evenodd" />
      <rect
         id="rect3248"
         rx="6.428525"
         ry="6.4284186"
         height="817.57001"
         width="1233"
         y="53.229"
         x="65.892998"
         style="fill:url(#linearGradient3228);fill-rule:evenodd" />
      <path
         id="path3710"
         d="m 90.965,87.236 7.4694,7.8048 1168.5,-0.625 6.5178,-6.7857 -1182.5,-0.39413 z"
         sodipodi:nodetypes="ccccc"
         inkscape:connector-curvature="0"
         style="fill:#959595;fill-rule:evenodd" />
      <path
         id="path3692"
         d="m 1273.8,833.76 -1.1365,0.12627 -6.3134,-7.3236 0.6118,-731.81 6.6964,-7.1429 0.1417,746.15 z"
         inkscape:connector-curvature="0"
         style="fill:url(#linearGradient3230);fill-rule:evenodd" />
      <path
         id="path3666"
         d="m 98.125,826.8 -6.7857,7.0536 1182.6,0.17857 -8.75,-9.2857 -1167.1,2.0536 z"
         inkscape:connector-curvature="0"
         style="fill:url(#linearGradient3232);fill-rule:evenodd" />
      <path
         id="path3644"
         d="m 90.914,87.257 7.8287,7.3236 -0.25254,731.86 -7.3236,7.3236 -0.25254,-746.5 z"
         inkscape:connector-curvature="0"
         style="fill:url(#linearGradient3234);fill-rule:evenodd" />
      <rect
         id="rect2450"
         transform="translate(769.36,140.99)"
         rx="0"
         ry="0"
         height="733.57001"
         width="1169.8"
         y="-47.316002"
         x="-671.67999"
         style="fill:url(#radialGradient3236);fill-rule:evenodd" />
      <rect
         id="rect3321"
         rx="6.428525"
         ry="6.4284186"
         height="822.27002"
         width="1240.5"
         y="50.667999"
         x="61.964001"
         style="fill:none;stroke:#ececec;stroke-linejoin:round" />
      <path
         id="path3323"
         d="m 91.071,87.429 v 746.52"
         sodipodi:nodetypes="cc"
         inkscape:connector-curvature="0"
         style="fill:none;stroke:#b2b4b3;stroke-linejoin:round" />
      <path
         id="path3325"
         d="m 90.714,87.429 h 1183.2"
         sodipodi:nodetypes="cc"
         inkscape:connector-curvature="0"
         style="fill:none;stroke:#959595;stroke-linejoin:round" />
      <path
         id="path3330"
         d="m 90.893,833.86 h 1183.4"
         inkscape:connector-curvature="0"
         style="fill:none;stroke:#c0c0c0;stroke-linejoin:round" />
      <path
         id="path3332"
         d="M 1273.8,833.68 V 87.52"
         sodipodi:nodetypes="cc"
         inkscape:connector-curvature="0"
         style="fill:none;stroke:#bbbbbd;stroke-linejoin:round" />
      <path
         id="path3374"
         d="m 97.679,93.679 -6.25,-5.8929"
         sodipodi:nodetypes="cc"
         inkscape:connector-curvature="0"
         style="fill:none;stroke:#8c8c8c;stroke-linecap:round;stroke-linejoin:round" />
      <path
         id="path3376"
         d="m 1273.3,87.875 -5.5356,5.7143"
         sodipodi:nodetypes="cc"
         inkscape:connector-curvature="0"
         style="fill:none;stroke:#878789;stroke-linecap:round;stroke-linejoin:round" />
      <path
         id="path3378"
         d="m 97.606,827.45 -6.1872,6.1872"
         inkscape:connector-curvature="0"
         style="fill:none;stroke:#d4d4d4;stroke-linecap:round;stroke-linejoin:round" />
      <path
         id="path3250"
         sodipodi:type="star"
         d="m 1289.4644,684.56122 5.4214,9.39029 -10.8429,0 z"
         sodipodi:r1="6.2601957"
         inkscape:flatsided="true"
         transform="matrix(0.71897,0,0,0.71706,364.42,190.28)"
         sodipodi:arg2="-0.52359878"
         sodipodi:arg1="-1.5707963"
         inkscape:randomized="0"
         sodipodi:cy="690.82141"
         sodipodi:cx="1289.4644"
         inkscape:rounded="0"
         sodipodi:r2="3.1300979"
         sodipodi:sides="3"
         style="fill-rule:evenodd" />
      <path
         id="path3252"
         sodipodi:type="star"
         sodipodi:sides="3"
         sodipodi:r1="6.2601957"
         sodipodi:r2="3.1300979"
         sodipodi:arg1="-1.5707963"
         sodipodi:arg2="-0.52359878"
         transform="matrix(0.71897,0,0,-0.71706,364.42,1216)"
         inkscape:randomized="0"
         sodipodi:cy="690.82141"
         sodipodi:cx="1289.4644"
         inkscape:rounded="0"
         inkscape:flatsided="true"
         d="m 1289.4644,684.56122 5.4214,9.39029 -10.8429,0 z"
         style="fill-rule:evenodd" />
      <path
         id="path3254"
         d="m 1294.6,756.18 v 4.2857 h -5.2679"
         sodipodi:nodetypes="ccc"
         inkscape:connector-curvature="0"
         style="fill:none;stroke:#000000;stroke-linejoin:round" />
      <path
         id="path3256"
         sodipodi:type="star"
         d="m 1289.4644,684.56122 5.4214,9.39029 -10.8429,0 z"
         sodipodi:r1="6.2601957"
         inkscape:flatsided="true"
         transform="matrix(0,0.41403,0.40917,0,1005.9,226.57)"
         sodipodi:arg2="-0.52359878"
         sodipodi:arg1="-1.5707963"
         inkscape:randomized="0"
         sodipodi:cy="690.82141"
         sodipodi:cx="1289.4644"
         inkscape:rounded="0"
         sodipodi:r2="3.1300979"
         sodipodi:sides="3"
         style="fill-rule:evenodd" />
      <path
         id="path3262"
         d="m 1292.3,811.41 c 1.5484,0.6875 2.6291,2.239 2.6291,4.0413 0,2.4395 -1.9799,4.4194 -4.4195,4.4194 -2.4395,0 -4.4194,-1.9799 -4.4194,-4.4194 0,-1.8043 1.083,-3.3572 2.6341,-4.0435"
         sodipodi:nodetypes="ccsss"
         inkscape:connector-curvature="0"
         transform="matrix(0.92857,0,0,0.92857,92.24,58.057)"
         style="fill:none;stroke:#000000;stroke-width:1.07690001;stroke-linecap:round;stroke-linejoin:round" />
      <path
         id="path3265"
         d="m 1290.5,809.26 v 4.5457"
         sodipodi:nodetypes="cc"
         inkscape:connector-curvature="0"
         style="fill:none;stroke:#000000;stroke-linecap:round;stroke-linejoin:round" />
      <path
         id="path3355"
         d="m 1291.4,651.23 c -1.6234,-0.83546 -2.6243,-0.79046 -4.01,-0.43746 v -5.0508 c 1.0797,-0.94246 2.4863,-0.57711 4.0406,0.37881 1.4972,-0.91418 2.0318,-1.6908 4.195,-0.44194 v 4.6764 c -1.8737,-0.46524 -3.0643,-1.0345 -4.2256,0.87491 z"
         sodipodi:nodetypes="ccccccc"
         inkscape:connector-curvature="0"
         style="fill:none;stroke:#000000;stroke-linejoin:round" />
      <path
         id="path3357"
         d="m 1291.5,646.18 v 5.2679"
         inkscape:connector-curvature="0"
         style="fill:none;stroke:#000000;stroke-linejoin:round" />
      <path
         id="path3365"
         d="m 1257.6,855.82 c -1.5868,0 -3.2143,0.95953 -3.2143,3.2143 v 8.9286 c 0,2.8582 -2.6353,2.8571 -4.1072,2.8571 h 14.393 c -1.4719,0 -4.1072,10e-4 -4.1072,-2.8571 v -8.9286 c 0,-2.2548 -1.6275,-3.2143 -3.2143,-3.2143"
         sodipodi:nodetypes="cccccccc"
         inkscape:connector-curvature="0"
         style="fill:#e4e4e4;fill-rule:evenodd" />
      <rect
         id="rect3813"
         rx="4.2856498"
         ry="4.2855792"
         height="25"
         width="44.643002"
         y="58.167999"
         x="1223"
         style="fill:#1b1b1b;fill-rule:evenodd" />
      <rect
         id="rect3815"
         rx="4.2856498"
         ry="4.2855792"
         height="25"
         width="33.929001"
         y="58.167999"
         x="1186.9"
         style="fill:#1b1b1b;fill-rule:evenodd" />
      <path
         id="text3817"
         d="m 1213.3,70.337 c -0.5679,1.0251 -1.2649,1.8991 -2.0909,2.6218 -1.9838,1.7553 -4.4471,2.6329 -7.3897,2.6329 -2.9426,2e-6 -5.4096,-0.87762 -7.4008,-2.6329 -0.826,-0.72274 -1.5267,-1.5967 -2.1019,-2.6218 0.5752,-1.0251 1.2759,-1.9027 2.1019,-2.6329 1.9912,-1.7552 4.4582,-2.6329 7.4008,-2.6329 2.9426,1.3e-5 5.4059,0.87764 7.3897,2.6329 0.826,0.73013 1.523,1.6078 2.0909,2.6329 m -1.8032,0 c -0.3614,-0.63424 -0.8002,-1.2021 -1.3165,-1.7036 -1.239,-1.1947 -2.7656,-1.9433 -4.5798,-2.2457 0.7891,0.33926 1.4233,0.8592 1.9027,1.5598 0.4867,0.72276 0.7301,1.5193 0.7301,2.3895 0,0.86288 -0.2397,1.6483 -0.719,2.3563 -0.472,0.708 -1.0952,1.2353 -1.8696,1.5819 2.6697,-0.45725 4.6204,-1.77 5.8521,-3.9383 m -4.1817,0 c 0,-0.94399 -0.3429,-1.7516 -1.0288,-2.4227 -0.6859,-0.67112 -1.5119,-1.0067 -2.478,-1.0067 -0.5089,1.1e-5 -0.9919,0.10326 -1.4492,0.30975 l -0.365,-0.82969 c -2.6772,0.45726 -4.6352,1.7737 -5.8742,3.9493 0.3614,0.63426 0.7965,1.1984 1.3054,1.6926 1.2316,1.1874 2.7435,1.9359 4.5356,2.2457 -0.7744,-0.34662 -1.3976,-0.87393 -1.8696,-1.5819 -0.472,-0.708 -0.708,-1.4934 -0.708,-2.3563 0,-0.52362 0.092,-1.0325 0.2766,-1.5266 l 0.885,0.27656 c -0.1623,0.40563 -0.2434,0.82232 -0.2434,1.2501 0,0.95138 0.3429,1.7626 1.0288,2.4338 0.6859,0.66376 1.5119,0.99563 2.478,0.99563 0.9661,4e-6 1.7921,-0.33187 2.478,-0.99563 0.6859,-0.67112 1.0288,-1.4824 1.0288,-2.4338 m -0.8518,0 c 0,0.71538 -0.2618,1.3275 -0.7854,1.8364 -0.5163,0.50888 -1.1395,0.76332 -1.8696,0.76331 -0.7375,4e-6 -1.3644,-0.25443 -1.8806,-0.76331 -0.5163,-0.50887 -0.7744,-1.121 -0.7744,-1.8364 0,-0.31712 0.055,-0.62318 0.166,-0.91819 l 2.7103,1.2279 -1.2722,-2.6882 c 0.3319,-0.14749 0.6822,-0.22124 1.0509,-0.22125 0.7301,1e-5 1.3533,0.25445 1.8696,0.76331 0.5236,0.50888 0.7854,1.121 0.7854,1.8364"
         inkscape:connector-curvature="0"
         style="fill:#e4e4e4" />
      <path
         id="text3825"
         d="m 1244.5,68.294 c 0,1.917 -0.5809,3.6888 -1.7428,5.3153 0.568,-1.2135 0.852,-2.5786 0.8521,-4.0954 -10e-5,-1.4135 -0.2292,-2.727 -0.6875,-3.9405 -0.5615,-1.4716 -1.3716,-2.4818 -2.4301,-3.0304 1.2909,0.4131 2.2881,1.136 2.9917,2.1687 0.6777,1.0069 1.0166,2.201 1.0166,3.5823 m -1.7718,0.3195 c 0,1.5362 -0.4647,2.953 -1.3942,4.2503 0.4518,-0.96818 0.6777,-2.059 0.6777,-3.2725 0,-1.1295 -0.1839,-2.1784 -0.5518,-3.1466 -0.4454,-1.1812 -1.0941,-1.9912 -1.9461,-2.4301 1.0327,0.32919 1.8299,0.9101 2.3914,1.7427 0.5487,0.80037 0.823,1.7524 0.823,2.8561 m -1.5975,0.32918 c 0,1.2328 -0.3744,2.3688 -1.1231,3.408 0.3679,-0.781 0.5519,-1.6556 0.5519,-2.6238 0,-0.90363 -0.1485,-1.7427 -0.4454,-2.5173 -0.355,-0.94236 -0.8714,-1.591 -1.5491,-1.9461 0.8197,0.26465 1.4523,0.72615 1.8976,1.3845 0.4454,0.65192 0.6681,1.4168 0.6681,2.2946 m -1.7427,1.8686 c -10e-5,0.71646 -0.068,1.3458 -0.2034,1.888 -0.2065,0.852 -0.5454,1.278 -1.0165,1.278 -0.1227,10e-7 -0.3906,-0.13877 -0.8036,-0.41632 -0.5035,-0.34209 -1.4652,-0.62609 -2.8852,-0.852 -1.1748,-0.19364 -2.2043,-0.29045 -3.0885,-0.29046 -0.2453,3e-6 -0.368,0.19687 -0.368,0.59059 0,0.13555 0.052,0.32918 0.155,0.58091 0.1032,0.24528 0.1549,0.43891 0.1549,0.58091 0,0.142 0.084,0.30014 0.2517,0.47441 0.1678,0.17427 0.2517,0.31305 0.2517,0.41632 0,0.02582 -0.01,0.06455 -0.029,0.11618 -0.013,0.05164 -0.019,0.09036 -0.019,0.11618 0,0.09036 0.074,0.21945 0.2227,0.38727 0.1549,0.16782 0.2324,0.31304 0.2324,0.43568 0,0.05809 -0.026,0.13232 -0.077,0.22268 -0.045,0.09036 -0.068,0.16136 -0.068,0.213 0,0.07745 0.039,0.16459 0.1162,0.26141 0.078,0.10327 0.1162,0.17427 0.1162,0.213 0,0.11618 -0.1549,0.17427 -0.4647,0.17427 -0.6778,-2e-6 -1.1554,-0.20009 -1.4329,-0.60028 -0.1743,-0.24528 -0.3389,-0.75841 -0.4938,-1.5394 -0.3034,-1.4587 -0.8198,-2.1881 -1.5491,-2.1881 -0.026,2e-6 -0.065,0.0065 -0.1162,0.01936 -0.052,0.0065 -0.09,0.0097 -0.1162,0.0097 -0.8262,2e-6 -1.2393,-0.75518 -1.2393,-2.2656 0,-0.86491 0.4228,-1.4878 1.2684,-1.8686 0.4389,-0.16136 1.094,-0.41631 1.9654,-0.76487 0.9165,-0.38727 1.9202,-0.98109 3.011,-1.7815 1.0198,-0.74226 1.7395,-1.378 2.1591,-1.9073 0.1678,-0.89072 0.5196,-1.3361 1.0553,-1.3361 0.6325,1.2e-5 1.2425,0.6971 1.8299,2.0913 0.3937,0.94238 0.6938,1.9332 0.9004,2.9723 0.1872,0.93592 0.2807,1.8589 0.2808,2.769 m -11.909,1.9848 c -0.6971,-0.04518 -1.1909,-0.13554 -1.4813,-0.27109 -0.4583,-0.22591 -0.6874,-0.63577 -0.6874,-1.2296 0,-0.58736 0.1839,-1.023 0.5518,-1.307 0.013,-0.0129 0.4454,-0.24204 1.2974,-0.68741 -0.3034,0.3421 -0.4551,0.86492 -0.4551,1.5685 0,0.85201 0.2582,1.4942 0.7746,1.9267 m 9.4301,-2.6335 c 0,-0.68418 -0.1162,-1.3264 -0.3485,-1.9267 -0.2582,-0.67127 -0.6132,-1.1424 -1.065,-1.4136 0.2452,2.2978 0.6228,4.0212 1.1327,5.1701 0.1872,-0.568 0.2808,-1.178 0.2808,-1.8299 m -0.01,2.8174 c -0.568,-0.86491 -1.0198,-1.959 -1.3554,-3.2821 -0.3099,-1.2199 -0.4648,-2.3979 -0.4648,-3.5339 l 0.1259,-1.1037 c -0.4325,0.56156 -1.0263,1.0876 -1.7815,1.5781 -0.6841,0.40664 -1.3651,0.81651 -2.0428,1.2296 -0.8004,0.49701 -1.2006,1.0747 -1.2006,1.7331 0,0.57446 0.1033,1.0715 0.3098,1.491 0.2582,0.51637 0.639,0.8165 1.1425,0.90041 0.032,0.0065 0.3873,0.02259 1.065,0.04841 1.6072,0.06455 3.0078,0.3776 4.2019,0.93914 m -10.146,-0.59059 c -0.2518,-0.70354 -0.3776,-1.2554 -0.3776,-1.6556 0,-0.27754 0.035,-0.51313 0.1065,-0.70678 l -0.2227,0.05809 c -0.078,0.29692 -0.1162,0.61319 -0.1162,0.94882 0,0.27755 0.1129,0.72937 0.3389,1.3555 h 0.2711 m -0.5326,-0.05809 c -0.2323,-0.55509 -0.3485,-0.95204 -0.3485,-1.1909 0,-0.23882 0.026,-0.53572 0.078,-0.89073 l -0.2711,0.18396 c -0.045,0.25819 -0.068,0.50023 -0.068,0.72614 0,0.29691 0.1226,0.65837 0.3679,1.0844 l 0.242,0.08714"
         inkscape:connector-curvature="0"
         style="fill:#e4e4e4" />
      <path
         id="text3829"
         d="m 1541.7,54.409 h 1.1538 v -3.9825 l -1.2552,0.25175 v -0.64336 l 1.2482,-0.25175 h 0.7063 v 4.6259 h 1.1539 v 0.59441 h -3.007 v -0.59441 m 6.035,-2.2972 c -0.3171,3e-6 -0.5688,0.10839 -0.7553,0.32518 -0.1841,0.21679 -0.2762,0.51399 -0.2762,0.89161 0,0.37529 0.092,0.6725 0.2762,0.89161 0.1865,0.21678 0.4382,0.32518 0.7553,0.32518 0.317,10e-7 0.5676,-0.10839 0.7517,-0.32518 0.1865,-0.21911 0.2797,-0.51632 0.2797,-0.89161 0,-0.37762 -0.093,-0.67482 -0.2797,-0.89161 -0.1841,-0.21678 -0.4347,-0.32517 -0.7517,-0.32518 m 1.4021,-2.2133 v 0.64336 c -0.1772,-0.08391 -0.3567,-0.14801 -0.5385,-0.19231 -0.1795,-0.04428 -0.3578,-0.06643 -0.535,-0.06643 -0.4662,5e-6 -0.8228,0.15735 -1.0699,0.47203 -0.2448,0.31469 -0.3846,0.79021 -0.4196,1.4266 0.1375,-0.20279 0.31,-0.35781 0.5175,-0.46504 0.2075,-0.10955 0.4359,-0.16433 0.6853,-0.16434 0.5245,3e-6 0.9382,0.15968 1.2413,0.47902 0.3053,0.31702 0.458,0.74942 0.458,1.2972 0,0.53613 -0.1585,0.9662 -0.4755,1.2902 -0.317,0.32401 -0.7389,0.48601 -1.2657,0.48601 -0.6038,0 -1.0653,-0.23077 -1.3847,-0.69231 -0.3193,-0.46387 -0.479,-1.1352 -0.479,-2.014 0,-0.82517 0.1958,-1.4825 0.5874,-1.972 0.3916,-0.49184 0.9173,-0.73776 1.577,-0.73776 0.1771,5e-6 0.3554,0.01749 0.5349,0.05245 0.1818,0.03497 0.3707,0.08742 0.5665,0.15734 m 3.0699,0.34965 c -0.3636,5e-6 -0.6375,0.17949 -0.8217,0.53846 -0.1818,0.35665 -0.2727,0.89394 -0.2727,1.6119 0,0.71562 0.091,1.2529 0.2727,1.6119 0.1842,0.35664 0.4581,0.53497 0.8217,0.53497 0.366,10e-7 0.6398,-0.17832 0.8217,-0.53497 0.1841,-0.35897 0.2762,-0.89627 0.2762,-1.6119 0,-0.71795 -0.092,-1.2552 -0.2762,-1.6119 -0.1819,-0.35897 -0.4557,-0.53846 -0.8217,-0.53846 m 0,-0.55944 c 0.5851,5e-6 1.0315,0.23194 1.3392,0.6958 0.31,0.46154 0.465,1.1329 0.465,2.014 0,0.87879 -0.155,1.5501 -0.465,2.014 -0.3077,0.46154 -0.7541,0.69231 -1.3392,0.69231 -0.5851,0 -1.0326,-0.23077 -1.3427,-0.69231 -0.3077,-0.46387 -0.4615,-1.1352 -0.4615,-2.014 0,-0.88112 0.1538,-1.5524 0.4615,-2.014 0.3101,-0.46386 0.7576,-0.6958 1.3427,-0.6958 m 4.5594,0.55944 c -0.3636,5e-6 -0.6375,0.17949 -0.8216,0.53846 -0.1819,0.35665 -0.2728,0.89394 -0.2728,1.6119 0,0.71562 0.091,1.2529 0.2728,1.6119 0.1841,0.35664 0.458,0.53497 0.8216,0.53497 0.366,10e-7 0.6399,-0.17832 0.8217,-0.53497 0.1842,-0.35897 0.2762,-0.89627 0.2762,-1.6119 0,-0.71795 -0.092,-1.2552 -0.2762,-1.6119 -0.1818,-0.35897 -0.4557,-0.53846 -0.8217,-0.53846 m 0,-0.55944 c 0.5851,5e-6 1.0315,0.23194 1.3392,0.6958 0.31,0.46154 0.465,1.1329 0.465,2.014 0,0.87879 -0.155,1.5501 -0.465,2.014 -0.3077,0.46154 -0.7541,0.69231 -1.3392,0.69231 -0.585,0 -1.0326,-0.23077 -1.3426,-0.69231 -0.3077,-0.46387 -0.4616,-1.1352 -0.4616,-2.014 0,-0.88112 0.1539,-1.5524 0.4616,-2.014 0.31,-0.46386 0.7576,-0.6958 1.3426,-0.6958 m 3.1224,4.4266 h 0.7378 v 0.88811 h -0.7378 v -0.88811 m 0,-2.8147 h 0.7378 v 0.88811 h -0.7378 v -0.88811 m 2.4686,3.1084 h 1.1538 v -3.9825 l -1.2552,0.25175 v -0.64336 l 1.2482,-0.25175 h 0.7063 v 4.6259 h 1.1539 v 0.59441 h -3.007 v -0.59441 m -19.311,3.5726 c 0.097,-0.17342 0.2119,-0.3014 0.3462,-0.38392 0.1343,-0.08252 0.2923,-0.12377 0.4741,-0.12378 0.2448,2e-6 0.4336,0.08602 0.5665,0.25804 0.1328,0.17063 0.1993,0.41399 0.1993,0.73007 v 1.4182 h -0.3882 v -1.4056 c 0,-0.22517 -0.04,-0.39231 -0.1195,-0.5014 -0.08,-0.10909 -0.2014,-0.16363 -0.3651,-0.16364 -0.2,3e-6 -0.358,0.06644 -0.4741,0.1993 -0.1161,0.13287 -0.1741,0.31399 -0.1741,0.54336 v 1.328 h -0.3881 v -1.4056 c 0,-0.22657 -0.04,-0.3937 -0.1196,-0.5014 -0.08,-0.10909 -0.2028,-0.16363 -0.3692,-0.16364 -0.1973,3e-6 -0.3539,0.06714 -0.47,0.2014 -0.1161,0.13287 -0.1741,0.31329 -0.1741,0.54126 v 1.328 h -0.3881 v -2.3497 h 0.3881 v 0.36504 c 0.088,-0.14405 0.1937,-0.25035 0.3168,-0.31888 0.1231,-0.06853 0.2692,-0.1028 0.4384,-0.1028 0.1707,2e-6 0.3154,0.04336 0.4343,0.13007 0.1203,0.08672 0.2091,0.21259 0.2664,0.37762 m 3.2686,-0.18042 c -0.207,2e-6 -0.3707,0.08112 -0.4909,0.24336 -0.1203,0.16084 -0.1805,0.38182 -0.1805,0.66294 0,0.28112 0.06,0.5028 0.1784,0.66504 0.1202,0.16084 0.2846,0.24126 0.493,0.24126 0.2056,0 0.3685,-0.08112 0.4888,-0.24336 0.1203,-0.16224 0.1804,-0.38322 0.1804,-0.66294 0,-0.27832 -0.06,-0.4986 -0.1804,-0.66084 -0.1203,-0.16364 -0.2832,-0.24545 -0.4888,-0.24546 m 0,-0.32727 c 0.3356,2e-6 0.5993,0.10909 0.7909,0.32727 0.1916,0.21818 0.2874,0.52028 0.2874,0.9063 0,0.38462 -0.096,0.68671 -0.2874,0.9063 -0.1916,0.21818 -0.4553,0.32727 -0.7909,0.32727 -0.3371,0 -0.6014,-0.10909 -0.793,-0.32727 -0.1902,-0.21958 -0.2853,-0.52168 -0.2853,-0.9063 0,-0.38601 0.095,-0.68811 0.2853,-0.9063 0.1916,-0.21818 0.4559,-0.32727 0.793,-0.32727 m 3.214,0.12587 v 0.36504 c -0.1091,-0.05594 -0.2224,-0.0979 -0.3399,-0.12587 -0.1175,-0.02797 -0.2392,-0.04196 -0.365,-0.04196 -0.1916,2e-6 -0.3357,0.02937 -0.4322,0.08811 -0.095,0.05874 -0.1427,0.14686 -0.1427,0.26434 0,0.08951 0.034,0.16014 0.1028,0.21189 0.069,0.05035 0.2063,0.0986 0.4133,0.14476 l 0.1322,0.02937 c 0.2741,0.05874 0.4685,0.14196 0.5832,0.24965 0.1161,0.1063 0.1741,0.25525 0.1741,0.44685 0,0.21818 -0.087,0.39091 -0.2601,0.51818 -0.172,0.12727 -0.4091,0.19091 -0.7112,0.19091 -0.1259,0 -0.2573,-0.01259 -0.3944,-0.03776 -0.1357,-0.02378 -0.279,-0.06014 -0.4301,-0.10909 v -0.3986 c 0.1427,0.07413 0.2833,0.13007 0.4217,0.16783 0.1385,0.03636 0.2755,0.05455 0.4112,0.05455 0.1818,10e-7 0.3217,-0.03077 0.4196,-0.09231 0.098,-0.06294 0.1468,-0.15105 0.1468,-0.26434 0,-0.1049 -0.036,-0.18532 -0.107,-0.24126 -0.07,-0.05594 -0.2244,-0.10979 -0.4636,-0.16154 l -0.1343,-0.03147 c -0.2391,-0.05035 -0.4118,-0.12727 -0.5181,-0.23077 -0.1063,-0.10489 -0.1595,-0.24825 -0.1595,-0.43007 0,-0.22098 0.078,-0.39161 0.235,-0.51189 0.1566,-0.12028 0.379,-0.18042 0.6671,-0.18042 0.1427,2e-6 0.2769,0.01049 0.4028,0.03147 0.1259,0.02098 0.242,0.05245 0.3483,0.09441 m 1.1244,-0.73636 v 0.66713 h 0.7952 v 0.3 h -0.7952 v 1.2755 c 0,0.19161 0.026,0.31469 0.078,0.36923 0.053,0.05455 0.1601,0.08182 0.3209,0.08182 h 0.3966 v 0.32308 h -0.3966 c -0.2979,0 -0.5035,-0.05524 -0.6167,-0.16573 -0.1133,-0.11189 -0.17,-0.31468 -0.17,-0.60839 v -1.2755 h -0.2832 v -0.3 h 0.2832 v -0.66713 h 0.3881 m -8.3685,6.1322 c -0.3119,10e-7 -0.528,0.03567 -0.6483,0.10699 -0.1202,0.07133 -0.1804,0.19301 -0.1804,0.36504 0,0.13706 0.045,0.24616 0.1343,0.32727 0.091,0.07972 0.214,0.11958 0.3692,0.11958 0.214,0 0.3853,-0.07552 0.514,-0.22657 0.1301,-0.15245 0.1951,-0.35454 0.1951,-0.60629 v -0.08601 h -0.3839 m 0.7699,-0.15944 v 1.3406 h -0.386 v -0.35664 c -0.088,0.14266 -0.1979,0.24825 -0.3294,0.31678 -0.1314,0.06713 -0.2923,0.1007 -0.4825,0.1007 -0.2405,0 -0.4321,-0.06713 -0.5748,-0.2014 -0.1413,-0.13566 -0.2119,-0.31678 -0.2119,-0.54336 0,-0.26434 0.088,-0.46364 0.2644,-0.5979 0.1776,-0.13426 0.4419,-0.2014 0.793,-0.2014 h 0.5412 v -0.03776 c 0,-0.17762 -0.059,-0.31468 -0.1762,-0.41119 -0.1161,-0.0979 -0.2797,-0.14685 -0.4909,-0.14685 -0.1343,2e-6 -0.2651,0.01609 -0.3923,0.04825 -0.1273,0.03217 -0.2497,0.08042 -0.3672,0.14476 v -0.35664 c 0.1413,-0.05454 0.2784,-0.0951 0.4112,-0.12168 0.1329,-0.02797 0.2623,-0.04196 0.3881,-0.04196 0.3399,2e-6 0.5938,0.08811 0.7616,0.26434 0.1678,0.17622 0.2517,0.44336 0.2517,0.8014 m 0.5728,-1.0091 h 0.386 l 0.4825,1.8336 0.4804,-1.8336 h 0.4553 l 0.4825,1.8336 0.4804,-1.8336 h 0.386 l -0.6147,2.3497 h -0.4552 l -0.5056,-1.9259 -0.5077,1.9259 h -0.4553 l -0.6146,-2.3497 m 5.7503,1.0783 v 0.18881 h -1.7748 c 0.017,0.26574 0.096,0.46853 0.2392,0.60839 0.144,0.13846 0.344,0.20769 0.6,0.20769 0.1482,10e-7 0.2916,-0.01818 0.43,-0.05455 0.1399,-0.03636 0.2783,-0.09091 0.4154,-0.16364 v 0.36504 c -0.1385,0.05874 -0.2804,0.1035 -0.4259,0.13427 -0.1454,0.03077 -0.293,0.04615 -0.4426,0.04615 -0.3749,0 -0.6721,-0.10909 -0.8916,-0.32727 -0.2182,-0.21818 -0.3273,-0.51329 -0.3273,-0.88532 0,-0.38462 0.1035,-0.68951 0.3105,-0.91469 0.2084,-0.22657 0.4888,-0.33986 0.8412,-0.33986 0.3161,2e-6 0.5658,0.1021 0.749,0.30629 0.1846,0.2028 0.2769,0.47902 0.2769,0.82867 m -0.386,-0.11329 c 0,-0.21119 -0.062,-0.37972 -0.1783,-0.5056 -0.1147,-0.12587 -0.2672,-0.18881 -0.4574,-0.18881 -0.2153,2e-6 -0.3881,0.06084 -0.5181,0.18252 -0.1287,0.12168 -0.2028,0.29301 -0.2224,0.51399 l 1.3762,-0.0021 m 2.5175,-0.8958 v 0.36504 c -0.1091,-0.05594 -0.2224,-0.0979 -0.3399,-0.12587 -0.1175,-0.02797 -0.2391,-0.04196 -0.365,-0.04196 -0.1916,2e-6 -0.3357,0.02937 -0.4322,0.08811 -0.095,0.05874 -0.1426,0.14686 -0.1426,0.26434 0,0.08951 0.034,0.16014 0.1028,0.21189 0.068,0.05035 0.2063,0.0986 0.4133,0.14476 l 0.1321,0.02937 c 0.2741,0.05874 0.4686,0.14196 0.5832,0.24965 0.1161,0.1063 0.1742,0.25525 0.1742,0.44685 0,0.21818 -0.087,0.39091 -0.2602,0.51818 -0.172,0.12727 -0.4091,0.19091 -0.7112,0.19091 -0.1258,0 -0.2573,-0.01259 -0.3944,-0.03776 -0.1356,-0.02378 -0.279,-0.06014 -0.43,-0.10909 v -0.3986 c 0.1426,0.07413 0.2832,0.13007 0.4216,0.16783 0.1385,0.03636 0.2756,0.05455 0.4112,0.05455 0.1818,0 0.3217,-0.03077 0.4196,-0.09231 0.098,-0.06294 0.1469,-0.15105 0.1469,-0.26434 0,-0.10489 -0.036,-0.18531 -0.107,-0.24126 -0.07,-0.05594 -0.2245,-0.10979 -0.4637,-0.16154 l -0.1342,-0.03147 c -0.2392,-0.05035 -0.4119,-0.12727 -0.5182,-0.23077 -0.1063,-0.10489 -0.1595,-0.24825 -0.1595,-0.43007 0,-0.22098 0.078,-0.39161 0.235,-0.51189 0.1566,-0.12028 0.379,-0.18042 0.6671,-0.18042 0.1427,2e-6 0.277,0.01049 0.4028,0.03147 0.1259,0.02098 0.242,0.05245 0.3483,0.09441 m 1.6531,0.2014 c -0.207,2e-6 -0.3706,0.08112 -0.4909,0.24336 -0.1203,0.16084 -0.1804,0.38182 -0.1804,0.66294 0,0.28112 0.059,0.5028 0.1783,0.66504 0.1203,0.16084 0.2846,0.24126 0.493,0.24126 0.2056,1e-6 0.3686,-0.08112 0.4889,-0.24336 0.1202,-0.16224 0.1804,-0.38322 0.1804,-0.66294 0,-0.27832 -0.06,-0.4986 -0.1804,-0.66084 -0.1203,-0.16364 -0.2833,-0.24545 -0.4889,-0.24546 m 0,-0.32727 c 0.3357,2e-6 0.5993,0.10909 0.7909,0.32727 0.1917,0.21818 0.2875,0.52028 0.2875,0.90629 0,0.38462 -0.096,0.68672 -0.2875,0.9063 -0.1916,0.21818 -0.4552,0.32727 -0.7909,0.32727 -0.337,0 -0.6014,-0.10909 -0.793,-0.32727 -0.1902,-0.21958 -0.2853,-0.52168 -0.2853,-0.9063 0,-0.38601 0.095,-0.68811 0.2853,-0.90629 0.1916,-0.21818 0.456,-0.32727 0.793,-0.32727 m 3.5455,0.50769 c 0.097,-0.17342 0.2119,-0.3014 0.3462,-0.38392 0.1342,-0.08252 0.2923,-0.12377 0.4741,-0.12378 0.2447,2e-6 0.4335,0.08602 0.5664,0.25804 0.1329,0.17063 0.1993,0.41399 0.1993,0.73007 v 1.4182 h -0.3881 v -1.4056 c 0,-0.22517 -0.04,-0.39231 -0.1196,-0.5014 -0.08,-0.10909 -0.2014,-0.16364 -0.365,-0.16364 -0.2,2e-6 -0.3581,0.06644 -0.4741,0.1993 -0.1161,0.13287 -0.1742,0.31399 -0.1742,0.54336 v 1.328 h -0.3881 v -1.4056 c 0,-0.22657 -0.04,-0.3937 -0.1196,-0.5014 -0.08,-0.10909 -0.2028,-0.16364 -0.3692,-0.16364 -0.1972,2e-6 -0.3538,0.06713 -0.4699,0.2014 -0.1161,0.13287 -0.1741,0.31329 -0.1741,0.54126 v 1.328 h -0.3882 v -2.3497 h 0.3882 v 0.36504 c 0.088,-0.14405 0.1937,-0.25035 0.3167,-0.31888 0.1231,-0.06853 0.2693,-0.1028 0.4385,-0.1028 0.1706,2e-6 0.3154,0.04336 0.4343,0.13007 0.1202,0.08671 0.2091,0.21259 0.2664,0.37762 m 4.3678,0.62727 v 0.18881 h -1.7748 c 0.017,0.26574 0.097,0.46853 0.2392,0.60839 0.144,0.13846 0.344,0.20769 0.6,0.20769 0.1482,1e-6 0.2916,-0.01818 0.43,-0.05455 0.1399,-0.03636 0.2784,-0.09091 0.4154,-0.16364 v 0.36504 c -0.1384,0.05874 -0.2804,0.1035 -0.4259,0.13427 -0.1454,0.03077 -0.293,0.04615 -0.4426,0.04615 -0.3748,0 -0.672,-0.10909 -0.8916,-0.32727 -0.2182,-0.21818 -0.3273,-0.51329 -0.3273,-0.88532 0,-0.38462 0.1035,-0.68951 0.3105,-0.91469 0.2084,-0.22657 0.4888,-0.33986 0.8413,-0.33986 0.316,2e-6 0.5657,0.1021 0.7489,0.30629 0.1846,0.2028 0.2769,0.47902 0.2769,0.82867 m -0.386,-0.11329 c 0,-0.21119 -0.062,-0.37972 -0.1783,-0.5056 -0.1147,-0.12587 -0.2671,-0.18881 -0.4573,-0.18881 -0.2154,2e-6 -0.3882,0.06084 -0.5182,0.18252 -0.1287,0.12168 -0.2028,0.29301 -0.2224,0.51399 l 1.3762,-0.0021"
         transform="scale(0.80846,1.2369)"
         inkscape:connector-curvature="0"
         style="fill:#e4e4e4" />
      <path
         id="path3627"
         sodipodi:rx="12.5"
         sodipodi:ry="12.5"
         sodipodi:type="arc"
         d="m 677.85712,851.89288 c 0,6.90356 -5.59644,12.5 -12.5,12.5 -6.90356,0 -12.5,-5.59644 -12.5,-12.5 0,-6.90356 5.59644,-12.5 12.5,-12.5 6.90356,0 12.5,5.59644 12.5,12.5 z"
         transform="matrix(1.0202,0,0,1.0202,7.849,-17.098)"
         sodipodi:cy="851.89288"
         sodipodi:cx="665.35712"
         style="fill:#2e2f33;fill-rule:evenodd" />
      <path
         id="path3629"
         d="m 696.65,852.01 c 0,5.52 -4.48,10 -10,10 -5.52,0 -10,-4.48 -10,-10"
         sodipodi:nodetypes="css"
         inkscape:connector-curvature="0"
         style="fill:none;stroke:#d6d6d7;stroke-linecap:round;stroke-linejoin:round" />
      <path
         id="path3632"
         sodipodi:rx="1.25"
         sodipodi:ry="1.25"
         sodipodi:type="arc"
         d="m 662.23212,847.875 c 0,0.69036 -0.55965,1.25 -1.25,1.25 -0.69036,0 -1.25,-0.55964 -1.25,-1.25 0,-0.69036 0.55964,-1.25 1.25,-1.25 0.69035,0 1.25,0.55964 1.25,1.25 z"
         transform="matrix(1.3571,0,0,1.3571,-214.77,-302.7)"
         sodipodi:cy="847.875"
         sodipodi:cx="660.98212"
         style="fill:#d6d6d7;fill-rule:evenodd" />
      <path
         id="path3636"
         sodipodi:rx="1.25"
         sodipodi:ry="1.25"
         sodipodi:type="arc"
         d="m 662.23212,847.875 c 0,0.69036 -0.55965,1.25 -1.25,1.25 -0.69036,0 -1.25,-0.55964 -1.25,-1.25 0,-0.69036 0.55964,-1.25 1.25,-1.25 0.69035,0 1.25,0.55964 1.25,1.25 z"
         transform="matrix(1.0714,0,0,0.84414,-17.797,132.54)"
         sodipodi:cy="847.875"
         sodipodi:cx="660.98212"
         style="fill:#d6d6d7;fill-rule:evenodd" />
      <path
         id="path3638"
         d="m 690.49,847.72 c 1.3542,0.3429 2.2173,-0.0543 3.3036,-0.8035 -0.28256,1.6624 -2.1802,2.6561 -3.3259,2.3884 L 690.49,847.72 z"
         sodipodi:nodetypes="cccc"
         inkscape:connector-curvature="0"
         style="fill:#d6d6d7;fill-rule:evenodd" />
      <text
         id="text3640"
         sodipodi:linespacing="100%"
         transform="scale(1.5905,0.62874)"
         line-height="100%"
         xml:space="preserve"
         font-size="19.086px"
         y="128.44087"
         x="63.150967"
         style="font-size:19.08600044px;line-height:100%;fill:#464646;font-family:Trebuchet MS"><tspan
           id="tspan3642"
           sodipodi:role="line"
           font-style="italic"
           y="128.44087"
           x="63.150967"
           style="font-style:italic;fill:#464646">FLAT</tspan></text>
    </g>
  </g>
</svg>
