<?xml version="1.0" encoding="UTF-8"?>
<svg id="svg2986" width="48px" height="48px"
   xmlns="http://www.w3.org/2000/svg"
   inkscape:export-filename="../geda-arc-edit.png"
   inkscape:export-xdpi="90"
   inkscape:export-ydpi="90">
 <defs id="defs2988">
  <marker id="Arrow1Mstart" overflow="visible" orient="auto">
   <path id="path3788" transform="scale(.4) translate(10)" d="m0 0 5-5-17.5 5 17.5 5-5-5z" fill-rule="evenodd" stroke="#000" stroke-width="1pt"/>
  </marker>
  <linearGradient id="linearGradient3875" x1="4.3651" x2="45.068" y1="24.727" y2="24.727" gradientUnits="userSpaceOnUse">
   <stop id="stop3869" stop-color="#0068ff" offset="0"/>
   <stop id="stop3871" stop-color="#0068ff" stop-opacity="0" offset="1"/>
  </linearGradient>
  <linearGradient id="linearGradient5371" x1="6.4948" x2="25.152" y1="24.664" y2="32.085" gradientUnits="userSpaceOnUse">
   <stop id="stop5365" stop-color="#0068ff" offset="0"/>
   <stop id="stop5367" stop-color="#00b2ff" offset="1"/>
  </linearGradient>
 </defs>
 <g id="layer1" transform="matrix(1.0785 0 0 1.1542 -3.3022 -5.4694)">
  <g id="g2999" transform="matrix(1.0686 0 0 .97802 -.575 -.077871)" fill="url(#linearGradient3875)">
   <path id="path3960" d="m6.1357 43.836c2.7861-27.593 21.397-35.806 37.161-38.218" fill="url(#linearGradient5371)"/>
  </g>
  <path id="path3007" d="m4.5358 43.424 41.648-0.086" fill="none" stroke="#00f" stroke-width="1.1037px"/>
  <path id="path3007-9" d="m9.0323 7.4464 31.774 35.837" fill="none" marker-start="url(#Arrow1Mstart)" stroke="#0000c0" stroke-width="1.348"/>
  <path id="path3029" d="m6.2932 41.438-0.0432 4.058" fill="#f95" stroke="#f90" stroke-width=".8"/>
  <path id="path3029-4" d="m13.293 41.395-0.043 4.058" fill="none" stroke="#f90" stroke-width=".8"/>
  <path id="path3029-49" d="m20.293 41.395-0.043 4.058" fill="none" stroke="#f90" stroke-width=".8"/>
  <path id="path3029-7" d="m27.293 41.309-0.043 4.058" fill="none" stroke="#f90" stroke-width=".8"/>
  <path id="path3029-73" d="m34.293 41.309-0.043 4.058" fill="none" stroke="#f90" stroke-width=".8"/>
  <path id="path3029-3" d="m41.293 41.136-0.043 4.058" fill="none" stroke="#f90" stroke-width=".8"/>
  <path id="path4592" d="m10.181 10.87c-1.2139-2.5231-2.198-4.5973-2.1868-4.6094 0.011186-0.012132 1.9195 1.1825 4.2406 2.6547 4.8582 3.0813 4.6227 2.7787 2.0589 2.6453-0.86837-0.04521-1.6041-0.06613-1.635-0.04653-0.03086 0.01962-0.08145 0.7997-0.11241 1.7335-0.03096 0.93382-0.0792 1.813-0.1072 1.9538-0.04608 0.23162-0.26034-0.17938-2.2581-4.3314z" fill="#f95" stroke="#f90" stroke-linecap="round" stroke-linejoin="round" stroke-width=".062524"/>
 </g>
</svg>
