<?xml version="1.0" encoding="UTF-8"?>
<svg id="svg2" width="1e3" height="650"
   xmlns="http://www.w3.org/2000/svg"
   xmlns:cc="http://creativecommons.org/ns#"
   xmlns:dc="http://purl.org/dc/elements/1.1/"
   xmlns:rdf="http://www.w3.org/1999/02/22-rdf-syntax-ns#"
   inkscape:export-filename="../geda-bed.png"
   inkscape:export-xdpi="24">
 <title id="title2989">Steel bed</title>
 <metadata id="metadata12">
  <rdf:RDF>
   <cc:Work rdf:about="">
    <cc:license rdf:resource="GPL2"/>
    <dc:date>15 September 2014</dc:date>
    <dc:description>Bed, Single</dc:description>
    <dc:creator>
     <cc:Agent>
      <dc:title>W. Hill: Changed to two-tone green</dc:title>
     </cc:Agent>
    </dc:creator>
    <dc:format>image/svg+xml</dc:format>
    <dc:type rdf:resource="http://purl.org/dc/dcmitype/StillImage"/>
   </cc:Work>
  </rdf:RDF>
 </metadata>
 <path id="path2197" d="m194.36 380.14-168.12-53.581c8.9972-125.96 89.914-164.46 126.09-95.243l94.065-5.1874-52.034 154.01z" fill="#0f0" fill-rule="evenodd" stroke="#0000ef" stroke-width="2.8357"/>
 <path id="path2189" d="m659.18 535.12-394.83-136.76c-90.03-127.99 195.29-249.99 229.97-248.3l365.73 60.524c330.45 124.2-33.792 255.07-200.87 324.54z" fill="#008000" fill-rule="evenodd" stroke="#0000ef" stroke-width="2.8357"/>
 <path id="path2187" d="m326.42 200.71-217.45 14.246c-1.0415-39.361 189.11-165.77 362.1-69.137l-144.65 54.891z" fill="#0f0" fill-rule="evenodd" stroke="#0000ef" stroke-width="2.8357"/>
 <path id="path2193" d="m435.9 128.81c10.105-9.0733 101.43 20.507 64.36 30.672l-158.63 82.924c-71.559 37.408-83.254 102.56-72.213 151.13l-87.415-22.386c-9.5979-11.01-3.5512-90.18 33.148-125.81 56.527-54.874 211.78-119.63 220.75-116.53z" fill="#eeeeec" fill-rule="evenodd" stroke="#0000ef" stroke-width="2.8357"/>
 <path id="path1308" d="m180.23 156.15c-16.186-7.1918 1.0046-104.67-6.6935-102.24l-34.95 11.058 1.4946 106.73-12.13 7.3113c-1.6653-73.429 0.85829-91.061 0.66183-109.1-23.035 5.0821-35.771 17.218-36.049 25.966l-4.477 141.14c0.54787-36.831-7.8141 19.186-12.665-9.5767-4.2777-25.362 4.4016-134.9 2.3889-133.74-23.283 13.419-39.1 29.594-40.372 48.842l-4.7434 172.08 625.15 202.01 4.1348-125.75c-8.6008-35.893 5.7153-68.264 32.189-100.16 74.744-44.804 160.18-65.241 245.31-86.385 34.856-7.5599 54.774 3.7895 57.62 36.748l-6.3579 260.7-19.629 7.8756 2.3563-93.906-289.75 137.95-2.2656 92.511-24.497-2.5069-3.5988-94.634-617.15-198.93-5.349 111.03c-0.4566 13.966-9.0787 18.63-30.85 8.3139l4.0738-338.83c22.183-92.639 263.56-117.78 286.9-124.44 58.771 0.67337 38.136 80.925 48.76 107.2l-28.624-6.9338c6.8627-43.437 5.3951-100.03-57.282-75.65l1.8574 94.445-12.955 8.95-6.8208-98.385-47.474 12.228-0.29391 111.62-7.9131-3.5159zm565.71 142.02-2.0154 196.04-62.269 28.65 4.2071-133.88c6.4504-46.583 14.525-76.623 60.078-90.809zm192.97-68.134-51.958 16.77-4.2352 181.53 52.758-23.145 3.4354-175.15zm-126.73 38.606-52.885 20.005-6.6875 199.1 56.441-27.128 3.1308-191.98zm65.405-19.686-0.48941 181.84-55.454 26.877 2.3442-193.41 53.599-15.307zm104.91 8.8307-4.54 125.28-30.114 15.156 1.8779-173.44c13.744 4.322 25.859 1.4606 32.776 33.006z" fill="#2e3436" fill-opacity=".94118" fill-rule="evenodd"/>
 <path id="path2191" d="m203.74 246.5c-48.611 0.4965-97.827 22.571-142.89-13.349l10.671-34.46c118.81-24.989 185.15 55.525 132.22 47.808z" fill="#eeeeec" fill-rule="evenodd" stroke="#0000ef" stroke-width="2.8357"/>
 <path id="path2185" d="m222.06 242.48c-23.722-50.336-91.831-57.572-151.53-46.175 65.39-39.47 54.165-49.085 174.37-97.211 42.261-29.738 92.192-1.6618 130.95 35.771 0 38.126-116.85 66.963-153.78 107.62z" fill="#eeeeec" fill-rule="evenodd" stroke="#0000ef" stroke-width="2.7798"/>
</svg>
