<?xml version="1.0" encoding="UTF-8"?>
<svg id="geda-deslect" width="48px" height="48px"
   xmlns="http://www.w3.org/2000/svg"
   inkscape:export-filename="../geda-deslect.png"
   inkscape:export-xdpi="90"
   inkscape:export-ydpi="90">
 <defs id="defs2988">
  <marker id="Arrow2Mstart" overflow="visible" orient="auto">
   <path id="path3792" transform="scale(.6) translate(0)" d="m8.7186 4.0337-10.926-4.0177 10.926-4.0177c-1.7455 2.3721-1.7354 5.6175-6e-7 8.0354z" fill-rule="evenodd" stroke-linejoin="round" stroke-width=".625"/>
  </marker>
 </defs>
 <g id="layer1" transform="matrix(1.3646 0 0 1.2495 -8.6803 -6.5126)">
  <path id="path2994" d="m10.695 9.9128 28.536 31.119" fill="#10cd1b" fill-opacity=".43922" marker-start="url(#Arrow2Mstart)" stroke="#10cc1c" stroke-opacity=".44048" stroke-width="4.703"/>
  <path id="path3783" d="m12.732 20.53c-3.3914-8.255-6.156-15.018-6.1435-15.029 0.012486-0.010849 6.5046 3.3247 14.427 7.4123 8.7865 4.5335 14.367 7.4524 14.308 7.4843-0.05298 0.02879-0.27747 0.0751-0.49886 0.1029-0.22139 0.02781-0.83066 0.14496-1.3539 0.26034-2.5055 0.55244-5.0545 1.7376-7.2612 3.3762-0.92529 0.68705-2.9897 2.7462-3.6939 3.6845-1.6098 2.1449-2.6805 4.3381-3.3538 6.8699-0.11636 0.43751-0.22323 0.80714-0.23749 0.8214s-2.8007-6.7281-6.1921-14.983v0z" fill="#10cd1b" fill-opacity=".43922" stroke="#10cc1c" stroke-linecap="square" stroke-opacity=".44048" stroke-width=".0026347"/>
  <path id="path3785" d="m15.975 28.31c-5.5486-13.423-9.3208-22.711-9.2062-22.667 0.59962 0.2301 27.838 14.327 28.293 14.643 0.13046 0.09053 0.13046 0.09448 0 0.13347-0.07394 0.0221-0.51317 0.11121-0.97608 0.19803-3.0756 0.57686-6.3634 2.1536-8.6487 4.1476-1.5014 1.3101-2.7385 2.6896-3.6695 4.092-1.1211 1.6887-1.9674 3.5189-2.5133 5.4356-0.14426 0.5064-0.28306 0.9593-0.30844 1.0064-0.02539 0.04714-1.3622-3.098-2.9707-6.9893v0z" fill="#10cd1b" fill-opacity=".43922" stroke="#10cc1c" stroke-linecap="square" stroke-opacity=".44048" stroke-width=".0026347"/>
  <path id="path3787" d="m18.426 34.061c-0.52742-1.2065-2.4963-5.9171-3.5867-8.5811-0.74621-1.8232-1.2423-3.0306-3.6989-9.0019-2.7138-6.5966-4.3172-10.636-4.2489-10.704 0.031214-0.031214 2.3092 1.1193 6.9582 3.5141 4.1126 2.1186 6.598 3.402 7.9041 4.0817 0.52328 0.27231 2.6146 1.3584 4.6473 2.4136 5.2134 2.7062 8.7192 4.5514 8.694 4.576-0.01181 0.01157-0.56489 0.14229-1.2291 0.29047-3.1212 0.69638-5.7749 1.9417-8.0504 3.7777-0.74091 0.59782-2.2895 2.1321-2.9458 2.9187-1.5647 1.8751-2.8085 4.2372-3.6129 6.8612-0.15117 0.49309-0.29741 0.89653-0.32497 0.89653s-0.25527-0.46931-0.50601-1.0429v0z" fill="#10cd1b" fill-opacity=".43922" stroke="#10cc1c" stroke-linecap="square" stroke-opacity=".44048" stroke-width=".0026347"/>
  <path id="path3789" d="m18.55 34.284c-1.6864-3.8022-11.206-27.066-11.578-28.294l-0.050944-0.16818 0.28049 0.11684c0.96552 0.40221 22.943 11.762 27.048 13.98l0.78649 0.42507-1.5184 0.38191c-0.8351 0.21005-1.8971 0.52043-2.36 0.68973-1.7987 0.65785-3.8779 1.8183-5.306 2.9615-0.6453 0.51653-2.3035 2.1585-2.9702 2.9411-1.3461 1.5802-2.6464 3.9609-3.4316 6.2829-0.24466 0.72356-0.47198 1.3427-0.50514 1.3759-0.03317 0.03316-0.21075-0.2789-0.39463-0.69348v0z" fill="#10cd1b" fill-opacity=".43922" stroke="#10cc1c" stroke-linecap="square" stroke-opacity=".44048" stroke-width=".0026347"/>
  <path id="path3791" d="m18.721 34.6c-0.33905-0.6646-4.9736-11.811-7.5803-18.232-0.43308-1.0667-1.0163-2.4993-1.296-3.1836-0.8392-2.0531-2.6647-6.6398-2.7618-6.9393-0.04981-0.15364-0.074396-0.29552-0.054638-0.31528 0.019759-0.019759 0.96989 0.43105 2.1114 1.0018 4.9524 2.4762 25.572 13.18 25.769 13.377 0.0305 0.03051-0.26572 0.13086-0.65829 0.223-3.3579 0.78822-5.7409 1.844-8.0399 3.5623-0.72205 0.53964-2.6495 2.413-3.3834 3.2884-1.3048 1.5564-2.5364 3.8047-3.3786 6.1676-0.26152 0.73371-0.49962 1.334-0.52911 1.334s-0.11891-0.12796-0.1987-0.28436z" fill="#10cd1b" fill-opacity=".43922" stroke="#10cc1c" stroke-linecap="square" stroke-opacity=".44048" stroke-width=".0026347"/>
  <path id="path3793" d="m18.697 34.511c-1.0607-2.2443-11.264-27.123-11.621-28.334-0.032585-0.11069-0.030935-0.20126 0.00367-0.20126 0.1861 0 3.7333 1.7904 11.71 5.9103 10.776 5.5657 16.15 8.3961 16.052 8.4547-0.03369 0.02033-0.5882 0.17504-1.2322 0.34379-1.5165 0.39736-2.3552 0.66815-3.3157 1.0705-1.4843 0.62188-3.1448 1.5889-4.2957 2.5016-0.70511 0.5592-2.4991 2.3285-3.1697 3.1261-1.2423 1.4775-2.5308 3.8023-3.3401 6.0261-0.22469 0.61746-0.4527 1.207-0.5067 1.31l-0.09818 0.18738-0.18678-0.3952z" fill="#10cd1b" fill-opacity=".43922" stroke="#10cc1c" stroke-linecap="square" stroke-opacity=".44048" stroke-width=".0026347"/>
  <path id="path3795" d="m18.811 34.745c-0.48107-0.77032-11.548-27.759-11.705-28.546-0.028028-0.14014-0.014965-0.22397 0.034899-0.22397 0.32945 0 27.676 14.171 27.676 14.342 0 0.02706-0.60104 0.20712-1.3356 0.40013-0.73461 0.19301-1.7473 0.49754-2.2505 0.67673-1.675 0.59652-3.5852 1.6251-5.0313 2.7093-0.68388 0.51272-2.6163 2.3849-3.3045 3.2014-1.4229 1.6883-2.4801 3.6006-3.452 6.2438-0.19617 0.53349-0.39947 1.0517-0.45178 1.1515-0.09011 0.17198-0.09959 0.17434-0.18045 0.04487v0z" fill="#10cd1b" fill-opacity=".43922" stroke="#10cc1c" stroke-linecap="square" stroke-opacity=".44048" stroke-width=".0026347"/>
  <path id="path3797" d="m18.811 34.723c-0.25606-0.32598-7.3374-17.453-10.615-25.673-0.93229-2.3383-1.1654-2.9767-1.1079-3.0342 0.022866-0.022866 0.41713 0.13503 0.87614 0.35088 2.2795 1.0719 24.28 12.464 26.577 13.763 0.15064 0.08512 0.27414 0.17243 0.27445 0.19403 2.93e-4 0.0216-0.48521 0.16696-1.0789 0.32302-2.9336 0.7711-4.9921 1.6753-7.0123 3.0801-1.0675 0.7423-2.9109 2.4799-4.0004 3.7708-1.1089 1.3139-2.3141 3.5115-3.2083 5.8506-0.28471 0.74467-0.54315 1.38-0.57432 1.4119-0.03117 0.03189-0.0901 0.01543-0.13096-0.03659v0z" fill="#10cd1b" fill-opacity=".43922" stroke="#10cc1c" stroke-linecap="square" stroke-opacity=".44048" stroke-width=".0026347"/>
  <path id="path3799" d="m18.811 34.723c-0.36142-0.46011-11.541-27.703-11.705-28.523-0.024637-0.12318-0.02763-0.22397-0.00665-0.22397 0.25525 0 16.498 8.3455 24.717 12.699 2.842 1.5055 2.9995 1.5922 3.0002 1.6495 2.2e-4 0.02258-0.17244 0.08429-0.38376 0.13714-1.0898 0.27252-2.9606 0.84-3.6279 1.1005-1.605 0.6265-3.2156 1.5162-4.54 2.5079-0.85294 0.6387-3.094 2.854-3.7582 3.715-1.2097 1.5682-2.0875 3.2207-3.0711 5.7817-0.23963 0.62391-0.46143 1.1605-0.49288 1.1924-0.03145 0.03189-0.09062 0.01543-0.13149-0.03659v0z" fill="#10cd1b" fill-opacity=".43922" stroke="#10cc1c" stroke-linecap="square" stroke-opacity=".44048" stroke-width=".0026347"/>
  <path id="path3801" d="m18.811 34.723c-0.36142-0.46011-11.541-27.703-11.705-28.523-0.024637-0.12318-0.02763-0.22397-0.00665-0.22397 0.21144 0 9.8325 4.9196 20.363 10.412 5.2318 2.7289 7.3536 3.8638 7.3546 3.9338 2.93e-4 0.02091-0.53461 0.18234-1.1887 0.35873-1.8476 0.49824-2.9852 0.91134-4.3363 1.5746-1.6009 0.78589-2.97 1.7012-4.135 2.7646-2.7913 2.5477-4.1459 4.5441-5.6013 8.2547-0.30786 0.78492-0.58447 1.4532-0.61469 1.4851-0.03022 0.03189-0.08839 0.01543-0.12925-0.03659z" fill="#0ff03a" fill-opacity=".45833" opacity=".27326" stroke="#9de594" stroke-linecap="square" stroke-opacity=".77679" stroke-width=".2"/>
  <path id="path3803" d="m18.763 34.319c-0.57495-1.2454-4.1995-9.9505-6.7733-16.268-0.71342-1.751-1.6222-3.9799-2.0195-4.9531-1.6805-4.1164-2.7346-6.8217-2.6796-6.8768 0.027391-0.027391 5.0052 2.4634 7.1864 3.5958 1.2865 0.66796 8.6454 4.4727 10.795 5.5813 4.2404 2.1868 9.2507 4.8447 9.2081 4.8847-0.01277 0.01198-0.66269 0.20839-1.4443 0.43648-1.6666 0.48634-2.4061 0.76474-3.702 1.3936-1.7544 0.85139-3.0371 1.7142-4.4278 2.9782-2.5677 2.3338-3.8676 4.2487-5.3809 7.9264-0.3147 0.7648-0.59379 1.4161-0.6202 1.4474-0.02641 0.03128-0.09023-0.03459-0.14184-0.14637z" fill="#0ff03a" fill-opacity=".45833" opacity=".27326" stroke="#9de594" stroke-linecap="square" stroke-opacity=".77679" stroke-width=".014637"/>
  <path id="path3805" d="m30.417 34.843c-3.8965-4.2487-7.0966-7.7595-7.1115-7.8018-0.03883-0.11077 2.0398-2.1366 2.7496-2.6798l0.60026-0.45936 4.4183 4.8139c8.4802 9.2396 9.7857 10.669 9.7863 10.716 3.66e-4 0.02584-0.75519 0.74203-1.6789 1.5915l-1.6795 1.5446-7.0845-7.7249z" fill="#0ff03a" fill-opacity=".45833" opacity=".27326" stroke="#9de594" stroke-linecap="square" stroke-opacity=".77679" stroke-width=".014637"/>
  <path id="path3807" d="m33.023 37.645c-7.791-8.5143-9.6161-10.525-9.6376-10.619-0.02552-0.11137 1.8468-1.9527 2.6465-2.6027 0.41002-0.33326 0.60449-0.44908 0.67393-0.40138 0.09668 0.06642 11.883 12.916 13.306 14.506 0.40667 0.45447 0.74868 0.85282 0.76002 0.88521 0.02551 0.07284-3.1905 3.0866-3.2871 3.0804-0.01481-9.51e-4 -2.0227-2.1828-4.4621-4.8486z" fill="#0ff03a" fill-opacity=".45833" opacity=".27326" stroke="#9de594" stroke-linecap="square" stroke-opacity=".77679" stroke-width=".014637"/>
  <path id="path3809" d="m34.449 39.147c-1.6546-1.8013-3.9104-4.2645-5.013-5.4738-1.1025-1.2093-2.7098-2.9713-3.5718-3.9155-2.2979-2.5172-2.437-2.6854-2.3526-2.843 0.12496-0.23349 2.3676-2.3627 2.7699-2.6298 0.38201-0.25364 0.39075-0.2556 0.52156-0.11717 0.07317 0.07744 0.75495 0.81741 1.5151 1.6444 0.76011 0.82697 2.3047 2.5066 3.4323 3.7325 1.1277 1.2259 2.4103 2.6241 2.8502 3.1071 0.43995 0.48303 1.1173 1.224 1.5053 1.6467 2.5636 2.7929 4.127 4.5136 4.3663 4.8056l0.27687 0.33788-0.73076 0.69734c-1.0405 0.99292-2.4619 2.2828-2.5155 2.2828-0.02502 0-1.3992-1.4738-3.0538-3.2751v0z" fill="#0ff03a" fill-opacity=".45833" opacity=".27326" stroke="#9de594" stroke-linecap="square" stroke-opacity=".77679" stroke-width=".014637"/>
  <path id="path3811" d="m35.878 40.646c-4.1202-4.4326-12.03-13.134-12.264-13.492l-0.12748-0.19455 1.1319-1.1086c1.0936-1.0712 1.8628-1.7254 2.0286-1.7254 0.11064 0 13.835 14.939 14.008 15.247 0.06092 0.10886-2.9866 2.9809-3.1562 2.9745-0.02187-8.34e-4 -0.75087-0.76654-1.62-1.7016z" fill="#0ff03a" fill-opacity=".45833" opacity=".27326" stroke="#9de594" stroke-linecap="square" stroke-opacity=".77679" stroke-width=".014637"/>
  <path id="path3813" d="m17.422 31.062c-3.826-9.0484-10.172-24.657-10.066-24.757 0.11693-0.10954 26.122 13.324 26.836 13.863 0.15787 0.11908 0.12567 0.13359-1.1403 0.51353-1.7118 0.51376-2.7062 0.90197-4.0373 1.5762-1.9077 0.96628-3.2519 1.9468-4.9018 3.5754-1.3781 1.3603-2.3385 2.6087-3.1914 4.1484-0.4319 0.77965-0.70857 1.3689-1.4425 3.0721-0.32045 0.7437-0.59235 1.3619-0.60422 1.3738-0.01187 0.01187-0.66592-1.5023-1.4535-3.3648v0z" fill="#0aff08" fill-opacity=".91667" opacity=".27326" stroke="#92f584" stroke-linecap="square" stroke-opacity=".5506" stroke-width=".014637"/>
  <path id="path3819" d="m17.863 31.979c-2.1018-4.9142-5.7415-13.739-8.4915-20.588-1.7225-4.2899-1.9835-4.9767-1.8913-4.9767 0.18532 0 8.2012 4.0887 17.795 9.0771 7.5721 3.937 8.959 4.6819 8.8685 4.7632-0.02881 0.0259-0.76393 0.28046-1.6336 0.56568-3.6821 1.2076-5.988 2.5859-8.4746 5.0652-1.9919 1.9861-2.9235 3.4099-4.3898 6.7091-0.36178 0.81398-0.68698 1.5321-0.72266 1.5959-0.04764 0.08512-0.32954-0.50284-1.0605-2.2118v0z" fill="none" opacity=".27326" stroke="#92f584" stroke-linecap="square" stroke-opacity=".5506" stroke-width=".014637"/>
 </g>
</svg>
