<?xml version="1.0" encoding="UTF-8"?>
<svg id="svg11300" width="48px" height="48px"
   xmlns="http://www.w3.org/2000/svg"
   xmlns:xlink="http://www.w3.org/1999/xlink"
   inkscape:export-filename="../geda-view-redraw.png"
   inkscape:export-ydpi="90.0"
   inkscape:export-xdpi="90.0">
 <defs id="defs3">
  <linearGradient id="linearGradient2402">
   <stop id="stop2404" stop-color="#46a916" offset="0"/>
   <stop id="stop2406" stop-color="#4e9a06" offset="1"/>
  </linearGradient>
  <linearGradient id="linearGradient2871">
   <stop id="stop2873" stop-color="#3a7304" offset="0"/>
   <stop id="stop2875" stop-color="#3a7304" offset="1"/>
  </linearGradient>
  <linearGradient id="linearGradient2847">
   <stop id="stop2849" stop-color="#4e9a06" offset="0"/>
   <stop id="stop2851" stop-color="#3465a4" stop-opacity="0" offset="1"/>
  </linearGradient>
  <linearGradient id="linearGradient2797">
   <stop id="stop2799" stop-color="#fff" offset="0"/>
   <stop id="stop2801" stop-color="#fff" stop-opacity="0" offset="1"/>
  </linearGradient>
  <linearGradient id="linearGradient1491" x1="5.9649" x2="52.854" y1="26.048" y2="26.048" gradientUnits="userSpaceOnUse" xlink:href="#linearGradient2797"/>
  <linearGradient id="linearGradient1501" x1="46.835" x2="45.38" y1="45.264" y2="50.94" gradientUnits="userSpaceOnUse" xlink:href="#linearGradient2871"/>
  <radialGradient id="radialGradient1503" cx="24.837" cy="36.421" r="15.645" gradientTransform="matrix(1 0 0 .53672 0 16.873)" gradientUnits="userSpaceOnUse">
   <stop id="stop8664" offset="0"/>
   <stop id="stop8666" stop-opacity="0" offset="1"/>
  </radialGradient>
  <linearGradient id="linearGradient2408" x1="18.936" x2="53.589" y1="23.668" y2="26.649" gradientUnits="userSpaceOnUse" xlink:href="#linearGradient2402"/>
  <linearGradient id="linearGradient3038" x1="5.9649" x2="52.854" y1="26.048" y2="26.048" gradientTransform="matrix(.50854 .42965 .42965 -.50854 -3.9732 30.541)" gradientUnits="userSpaceOnUse" xlink:href="#linearGradient2797"/>
  <linearGradient id="linearGradient3044" x1="32.648" x2="37.124" y1="30.749" y2="24.842" gradientUnits="userSpaceOnUse">
   <stop id="stop2692" stop-color="#4e9a06" offset="0"/>
   <stop id="stop2694" stop-color="#c4d7eb" stop-opacity="0" offset="1"/>
  </linearGradient>
  <linearGradient id="linearGradient3046" x1="36.714" x2="37.124" y1="31.456" y2="24.842" gradientUnits="userSpaceOnUse" xlink:href="#linearGradient2847"/>
  <linearGradient id="linearGradient3049" x1="62.514" x2="15.985" y1="36.061" y2="20.609" gradientTransform="matrix(-.57905 -.48923 -.48923 .57905 56.916 13.371)" gradientUnits="userSpaceOnUse">
   <stop id="stop2382" stop-color="#45a916" offset="0"/>
   <stop id="stop2384" stop-color="#45a906" offset="1"/>
  </linearGradient>
  <linearGradient id="linearGradient3051" x1="46.835" x2="45.38" y1="45.264" y2="50.94" gradientTransform="matrix(-.57905 -.48923 -.48923 .57905 56.916 13.371)" gradientUnits="userSpaceOnUse" xlink:href="#linearGradient2871"/>
  <linearGradient id="linearGradient3054" x1="13.479" x2="15.419" y1="10.612" y2="19.115" gradientTransform="translate(.46541 -.27759)" gradientUnits="userSpaceOnUse">
   <stop id="stop2833" stop-color="#73d216" offset="0"/>
   <stop id="stop2855" stop-color="#73d216" offset=".33333"/>
   <stop id="stop2835" stop-color="#9cd883" stop-opacity="0" offset="1"/>
  </linearGradient>
  <linearGradient id="linearGradient3056" x1="37.128" x2="37.065" y1="29.73" y2="26.194" gradientTransform="matrix(-1 0 0 -1 47.528 45.847)" gradientUnits="userSpaceOnUse" xlink:href="#linearGradient2847"/>
 </defs>
 <g id="layer1">
    <path
       transform="matrix(-1.489736,0,0,-1.001252,61.20865,75.2819)"
       d="m 40.481863,36.421127 a 15.644737,8.3968935 0 1 1 -31.2894745,0 15.644737,8.3968935 0 1 1 31.2894745,0 z"
       id="path8660"
       style="opacity:0.38333333;color:#000000;fill:url(#radialGradient1503);fill-opacity:1;fill-rule:evenodd;stroke:none;stroke-width:1;marker:none;visibility:visible;display:inline;overflow:visible"/>
  <path id="path2865" d="m20.153 10.41s-8.9375-0.625-6.1875 9.875h-7.6875s0.5-11.875 13.875-9.875z" color="#000000" display="block" fill="url(#linearGradient3054)" stroke="url(#linearGradient3056)"/>
  <path id="path1880" d="m6.6862 20.781c-3.6708-17.403 14.91-23.941 31.109-11.162l4.7742-5.2413-0.09572 17.132-14.962-0.01541 4.98-5.5985c-11.392-8.6336-25.982-7.9873-25.805 4.8848z" color="#000000" display="block" fill="url(#linearGradient3049)" stroke="url(#linearGradient3051)"/>
  <path id="path2839" d="m28.375 33.438s8.9375 0.625 6.1875-9.875h7.7759c0 1.5026-0.58839 11.875-13.963 9.875z" color="#000000" display="block" fill="url(#linearGradient3044)" stroke="url(#linearGradient3046)"/>
  <g id="g2779" transform="matrix(.57905 .48923 .48923 -.57905 -7.921 30.536)" color="#000000" display="block" fill="url(#linearGradient2408)" stroke="url(#linearGradient1501)" stroke-width="1.3192">
   <path id="path2781" d="m44.307 50.23c18.515-14.411 5.3578-36.818-21.844-37.732l-0.062979-9.4286-14.605 17.355 14.668 12.582v-9.6684c18.83 0.99898 32.982 14.072 21.844 26.892z" color="#000000" display="block" fill="url(#linearGradient2408)" stroke="url(#linearGradient1501)" stroke-width="1.3192"/>
  </g>
  <path id="path2791" d="m7.0625 38.188 0.0625-14.875 12.938-0.375-4.3889 5.1788 3.8672 2.3732c-3 2.25-4.5495 2.4221-5.5495 4.9846l-2.8169-2.1103-4.1119 4.8236z" color="#000000" fill="#fff" opacity=".27222"/>
  <path id="path2795" d="m41.748 29.128c-1.9012 11.658-16.765 15.244-30.678 3.7085l-3.5282 4.2052 0.099277-13.506 11.24-0.06581s-3.8415 4.6042-3.8415 4.6042c8.8173 7.6447 22.239 9.9837 26.708 1.0542z" color="#000000" display="block" fill="none" opacity=".5" stroke="url(#linearGradient3038)"/>
  <g id="g2805" transform="matrix(-.50854 -.42965 -.42965 .50854 53.049 13.365)" fill="none" opacity=".5" stroke="#fff">
   <path id="path2807" d="m51.39 46.506c9.1202-15.22-4.3392-34.074-31.761-34.436l-0.28566-8.019-13.002 15.329 13.468 11.385-0.18176-9.4532c18.245 0.38197 34.784 10.925 31.763 25.195z" color="#000000" display="block" fill="none" stroke="url(#linearGradient1491)" stroke-width="1.5021"/>
  </g>
  <path id="path2811" d="m6.8125 16.5c3.5934-10.441 16.444-6.1446 20.188-4.5 4.1753 0.21148 5.6747-2.835 9-3-14.05-9.79-28.812-6.5-29.188 7.5z" color="#000000" fill="#fff" opacity=".27222"/>
 </g>
</svg>
