<?xml version="1.0" encoding="UTF-8"?>
<svg id="svg2" width="48" height="48"
   xmlns="http://www.w3.org/2000/svg"
   xmlns:cc="http://creativecommons.org/ns#"
   xmlns:dc="http://purl.org/dc/elements/1.1/"
   xmlns:rdf="http://www.w3.org/1999/02/22-rdf-syntax-ns#"
   xmlns:xlink="http://www.w3.org/1999/xlink"
   inkscape:export-filename="../geda-offset.png"
   inkscape:export-xdpi="90.0"
   inkscape:export-ydpi="90.0">
 <metadata id="metadata33">
  <rdf:RDF>
   <cc:Work rdf:about="">
    <dc:format>image/svg+xml</dc:format>
    <dc:type rdf:resource="http://purl.org/dc/dcmitype/StillImage"/>
    <dc:title/>
    <dc:source>wileyhill@gmail.com</dc:source>
    <dc:creator>
     <cc:Agent>
      <dc:title>Wiley Edward Hill</dc:title>
     </cc:Agent>
    </dc:creator>
   </cc:Work>
  </rdf:RDF>
 </metadata>
 <defs id="defs4">
  <radialGradient id="radialGradient2459" cx="26" cy="39.75" r="24.25" gradientTransform="matrix(1 0 0 .17526 0 32.784)" gradientUnits="userSpaceOnUse">
   <stop id="stop2455" offset="0"/>
   <stop id="stop2457" stop-opacity="0" offset="1"/>
  </radialGradient>
  <linearGradient id="linearGradient2496" x1="10.875" x2="47" y1="11.5" y2="47.375" gradientTransform="matrix(.3846 0 0 1 2.5898 0)" gradientUnits="userSpaceOnUse">
   <stop id="stop2296" stop-color="#3465a4" offset="0"/>
   <stop id="stop2298" stop-color="#3465a4" stop-opacity="0" offset="1"/>
  </linearGradient>
  <linearGradient id="linearGradient2502" x1="43.375" x2="21.125" y1="-9.375" y2="31.75" gradientTransform="matrix(.41094 0 0 1 1.8822 0)" gradientUnits="userSpaceOnUse">
   <stop id="stop2225" stop-color="#3465a4" offset="0"/>
   <stop id="stop2227" stop-color="#729fcf" offset="1"/>
  </linearGradient>
  <linearGradient id="linearGradient3226" x1="10.875" x2="47" y1="11.5" y2="47.375" gradientTransform="matrix(-.3846 0 0 1 45.667 -.017505)" gradientUnits="userSpaceOnUse">
   <stop id="stop2296-9" stop-color="#3465a4" offset="0"/>
   <stop id="stop2298-0" stop-color="#3465a4" stop-opacity="0" offset="1"/>
  </linearGradient>
  <linearGradient id="linearGradient3228" x1="43.375" x2="21.125" y1="-9.375" y2="31.75" gradientTransform="matrix(-.41094 0 0 1 46.375 -.017505)" gradientUnits="userSpaceOnUse">
   <stop id="stop2225-1" stop-color="#3465a4" offset="0"/>
   <stop id="stop2227-0" stop-color="#729fcf" offset="1"/>
  </linearGradient>
 </defs>
 <g id="layer3">
  <g id="geda-offset">
    <path
       sodipodi:type="arc"
       style="opacity:0.3;color:#000000;fill:url(#radialGradient2459);fill-opacity:1;fill-rule:nonzero;stroke-width:1display:inline;overflow:visible"
       id="path28"
       sodipodi:cx="26"
       sodipodi:cy="39.75"
       sodipodi:rx="24.25"
       sodipodi:ry="4.25"
       d="m 50.25,39.75 a 24.25,4.25 0 1 1 -48.5,0 24.25,4.25 0 1 1 48.5,0 z"
       transform="matrix(0.989691,0,0,1.176471,-1.731959,-5.764706)" />
   <path id="path2451" transform="matrix(.98969 0 0 1.1765 -1.732 -5.7647)" d="m50.25 39.75a24.25 4.25 0 1 1-48.5 0 24.25 4.25 0 1 1 48.5 0z" color="#000000" fill="url(#radialGradient2459)" opacity=".3"/>
   <path id="rect1314" d="m4.9375 1.5h13.383c0.34208 0 0.61569 0.66756 0.61569 1.5v37c0 0.83244-0.27361 1.5-0.61569 1.5h-2.5l-11.5-19.25v-19.25c0-0.83244 0.27492-1.5 0.617-1.5z" color="#000000" fill="url(#linearGradient2502)" stroke="#1b6397" stroke-linecap="square" stroke-linejoin="round" stroke-width=".64105"/>
   <path id="rect2204" d="m5.5035 2.5h12.479c0.10157 0 0.18334 0.2359 0.18334 0.5v37c0 0.2641-0.08177 0.5-0.18334 0.5h-1.6621l-11-18.5v-19c0-0.2641 0.081428-0.5 0.183-0.5z" color="#000000" fill="none" opacity=".6" stroke="url(#linearGradient2496)" stroke-linecap="square" stroke-linejoin="round" stroke-width=".62016"/>
   <path id="rect1314-9" d="m43.319 1.5h-13.311c-0.34208 0-0.6879 0.66756-0.6879 1.5v37c0 0.83244 0.2754 1.5 0.61748 1.5l2.4982-5e-6 11.5-19.25v-19.25c0-0.83244-0.27492-1.5-0.617-1.5z" color="#000000" fill="url(#linearGradient3228)" stroke="#1b6397" stroke-linecap="square" stroke-linejoin="round" stroke-width=".64105"/>
   <path id="rect2204-5" d="m42.753 2.5h-12.495c-0.10157 0-0.16767 0.2359-0.16767 0.5v37c0 0.2641 0.0661 0.5 0.16767 0.5l1.6778-0.0175 11-18.482v-19c0-0.2641-0.08143-0.5-0.183-0.5z" color="#000000" fill="none" opacity=".6" stroke="url(#linearGradient3226)" stroke-linecap="square" stroke-linejoin="round" stroke-width=".62016"/>
  </g>
 </g>
</svg>
