<?xml version="1.0" encoding="UTF-8" standalone="no"?>
<svg
   xmlns:dc="http://purl.org/dc/elements/1.1/"
   xmlns:xlink="http://www.w3.org/1999/xlink"
   xmlns:sodipodi="http://sodipodi.sourceforge.net/DTD/sodipodi-0.dtd"
   xmlns:inkscape="http://www.inkscape.org/namespaces/inkscape"
   width="128"
   height="128"
   id="svg2"
   version="1.1"
   inkscape:export-filename="../geda-check-grn.png"
   inkscape:export-xdpi="90"
   inkscape:export-ydpi="90"
   inkscape:version="0.48.3.1 r9886"
   sodipodi:docname="geda-inspect-grn.svg">
  <defs
     id="defs10">
    <linearGradient
       id="linearGradient4919">
      <stop
         style="stop-color:#429eff;stop-opacity:1;"
         offset="0"
         id="stop4921" />
      <stop
         style="stop-color:#0044a7;stop-opacity:1;"
         offset="1"
         id="stop4923" />
    </linearGradient>
    <linearGradient
       inkscape:collect="always"
       id="linearGradient4952">
      <stop
         style="stop-color:#ffffff;stop-opacity:1;"
         offset="0"
         id="stop4954" />
      <stop
         style="stop-color:#ffffff;stop-opacity:0;"
         offset="1"
         id="stop4956" />
    </linearGradient>
    <linearGradient
       id="linearGradient2617">
      <stop
         id="stop2619"
         offset="0"
         style="stop-color:#fbfbfa;stop-opacity:1;" />
      <stop
         id="stop2621"
         offset="1"
         style="stop-color:#d3d7cf" />
    </linearGradient>
    <linearGradient
       id="linearGradient2698">
      <stop
         id="stop2700"
         offset="0"
         style="stop-color:#555753" />
      <stop
         style="stop-color:#a3a5a2;stop-opacity:1;"
         offset="0.70238096"
         id="stop2706" />
      <stop
         id="stop2702"
         offset="1"
         style="stop-color:#888a85" />
    </linearGradient>
    <linearGradient
       id="linearGradient2690"
       inkscape:collect="always">
      <stop
         id="stop2692"
         offset="0"
         style="stop-color:#2e3436" />
      <stop
         id="stop2694"
         offset="1"
         style="stop-color:#555753" />
    </linearGradient>
    <linearGradient
       inkscape:collect="always"
       id="linearGradient19900">
      <stop
         style="stop-color:#888a85"
         offset="0"
         id="stop19902" />
      <stop
         style="stop-color:#d3d7cf"
         offset="1"
         id="stop19904" />
    </linearGradient>
    <linearGradient
       inkscape:collect="always"
       id="linearGradient19914">
      <stop
         style="stop-color:#000000;stop-opacity:1;"
         offset="0"
         id="stop19916" />
      <stop
         style="stop-color:#000000;stop-opacity:0;"
         offset="1"
         id="stop19918" />
    </linearGradient>
    <linearGradient
       id="linearGradient2609"
       inkscape:collect="always">
      <stop
         id="stop2611"
         offset="0"
         style="stop-color:#ffffff;stop-opacity:1" />
      <stop
         id="stop2613"
         offset="1"
         style="stop-color:#eeeeec" />
    </linearGradient>
    <linearGradient
       inkscape:collect="always"
       id="linearGradient23434">
      <stop
         style="stop-color:#888a85;stop-opacity:1"
         offset="0"
         id="stop23436" />
      <stop
         style="stop-color:#babdb6;stop-opacity:1"
         offset="1"
         id="stop23438" />
    </linearGradient>
    <linearGradient
       inkscape:collect="always"
       id="linearGradient4931">
      <stop
         style="stop-color:#babdb6;stop-opacity:1;"
         offset="0"
         id="stop4933" />
      <stop
         style="stop-color:#888a85"
         offset="1"
         id="stop4935" />
    </linearGradient>
    <linearGradient
       inkscape:collect="always"
       id="linearGradient11102">
      <stop
         style="stop-color:#ffffff;stop-opacity:1;"
         offset="0"
         id="stop11104" />
      <stop
         style="stop-color:#ffffff;stop-opacity:0;"
         offset="1"
         id="stop11106" />
    </linearGradient>
    <linearGradient
       inkscape:collect="always"
       xlink:href="#linearGradient2843"
       id="linearGradient5784"
       gradientUnits="userSpaceOnUse"
       x1="17.25"
       y1="12.5625"
       x2="21"
       y2="28.4375"
       gradientTransform="matrix(0.51411111,0,0,0.51411147,748.83075,577.96417)" />
    <linearGradient
       id="linearGradient2843">
      <stop
         style="stop-color:#eeeeec;stop-opacity:1"
         offset="0"
         id="stop2845" />
      <stop
         style="stop-color:white;stop-opacity:1;"
         offset="1"
         id="stop2847" />
    </linearGradient>
    <radialGradient
       inkscape:collect="always"
       xlink:href="#linearGradient4919"
       id="radialGradient3151"
       gradientUnits="userSpaceOnUse"
       gradientTransform="matrix(1.459545,0,0,1.345339,-7.403138,-10.82184)"
       cx="17.062258"
       cy="28.851427"
       fx="17.062258"
       fy="28.851427"
       r="13.5" />
    <radialGradient
       inkscape:collect="always"
       xlink:href="#linearGradient4952"
       id="radialGradient3153"
       gradientUnits="userSpaceOnUse"
       gradientTransform="matrix(0.81538903,-0.21864686,0.19377252,0.72374186,130.71802,31.87929)"
       cx="16.829521"
       cy="24.743624"
       fx="16.829521"
       fy="24.743624"
       r="16.924616" />
    <radialGradient
       inkscape:collect="always"
       xlink:href="#linearGradient2617"
       id="radialGradient3155"
       gradientUnits="userSpaceOnUse"
       gradientTransform="matrix(0,-1.686609,1.66336,0,41.65431,111.7396)"
       cx="59.787472"
       cy="10.901535"
       fx="59.787472"
       fy="10.901535"
       r="10.55559" />
    <linearGradient
       inkscape:collect="always"
       xlink:href="#linearGradient2698"
       id="linearGradient3157"
       gradientUnits="userSpaceOnUse"
       x1="81.332451"
       y1="55.106758"
       x2="82.919647"
       y2="53.511261" />
    <linearGradient
       inkscape:collect="always"
       xlink:href="#linearGradient2690"
       id="linearGradient3159"
       gradientUnits="userSpaceOnUse"
       x1="81.096306"
       y1="57.148193"
       x2="83.629295"
       y2="54.615208" />
    <linearGradient
       inkscape:collect="always"
       xlink:href="#linearGradient19900"
       id="linearGradient3161"
       gradientUnits="userSpaceOnUse"
       gradientTransform="matrix(0.36543415,0,0,0.36570844,141.58926,37.91259)"
       x1="40.25"
       y1="41"
       x2="43.0625"
       y2="38.434578" />
    <linearGradient
       inkscape:collect="always"
       xlink:href="#linearGradient19914"
       id="linearGradient3163"
       gradientUnits="userSpaceOnUse"
       gradientTransform="matrix(0.36543409,0,0,0.36570847,141.58917,37.9126)"
       x1="33.985317"
       y1="32.045906"
       x2="37.211494"
       y2="35.272079" />
    <radialGradient
       inkscape:collect="always"
       xlink:href="#linearGradient2609"
       id="radialGradient3165"
       gradientUnits="userSpaceOnUse"
       gradientTransform="matrix(0,1.143443,-1.247217,-1.248581e-6,41.735,-54.25682)"
       cx="45.094624"
       cy="-2.6936908"
       fx="45.094624"
       fy="-2.6936908"
       r="10.498367" />
    <linearGradient
       inkscape:collect="always"
       xlink:href="#linearGradient23434"
       id="linearGradient3167"
       gradientUnits="userSpaceOnUse"
       x1="55.878288"
       y1="12.472493"
       x2="52.5"
       y2="-4.6213989" />
    <linearGradient
       inkscape:collect="always"
       xlink:href="#linearGradient4931"
       id="linearGradient3169"
       gradientUnits="userSpaceOnUse"
       x1="54.1129"
       y1="12.846775"
       x2="50.079948"
       y2="-3.8813655" />
    <radialGradient
       inkscape:collect="always"
       xlink:href="#linearGradient11102"
       id="radialGradient3171"
       gradientUnits="userSpaceOnUse"
       gradientTransform="matrix(0.946826,0,0,0.946826,0.469351,0.499261)"
       cx="8.0402098"
       cy="9.5280285"
       fx="8.0402098"
       fy="9.5280285"
       r="9.8125" />
  </defs>
  <sodipodi:namedview
     pagecolor="#ffffff"
     bordercolor="#666666"
     borderopacity="1"
     objecttolerance="10"
     gridtolerance="10"
     guidetolerance="10"
     inkscape:pageopacity="0"
     inkscape:pageshadow="2"
     inkscape:window-width="1582"
     inkscape:window-height="911"
     id="namedview8"
     showgrid="false"
     inkscape:zoom="3.9001358"
     inkscape:cx="52.87037"
     inkscape:cy="72.217727"
     inkscape:window-x="232"
     inkscape:window-y="31"
     inkscape:window-maximized="0"
     inkscape:current-layer="svg2" />
  <g
     id="geda-inspect-grn"
     inkscape:label="geda-inspect-grn"
     inkscape:export-filename="../geda-inspect-grn.png"
     inkscape:export-xdpi="90"
     inkscape:export-ydpi="90">
    <g
       transform="matrix(0.89919669,0,0,0.78051354,13.220943,28.048857)"
       inkscape:label="geda-check-grn"
       id="geda-check-grn">
      <path
         style="fill:#00ff00;stroke:#101010;stroke-width:1.58656108;stroke-miterlimit:4"
         inkscape:connector-curvature="0"
         stroke-miterlimit="4"
         id="path4068"
         d="M 0.79328218,76.641368 41.106278,127.20672 C 61.646738,81.952011 86.791185,40.319475 127.20686,0.79333298 96.958839,19.241284 63.61603,54.27285 35.133981,97.620608 L 0.79328218,76.641368 z" />
    </g>
    <g
       transform="matrix(0,5.74596,-5.4823551,0,299.57816,-821.82479)"
       id="g3137">
      <path
         sodipodi:type="arc"
         style="opacity:0.6;color:#000000;fill:url(#radialGradient3151);fill-opacity:1;fill-rule:nonzero;stroke:none;stroke-width:2;marker:none;visibility:visible;display:inline;overflow:visible"
         id="path1425"
         sodipodi:cx="17.5"
         sodipodi:cy="18.25"
         sodipodi:rx="13.5"
         sodipodi:ry="13.75"
         d="M 31,18.25 C 31,25.843915 24.955844,32 17.5,32 10.044156,32 4,25.843915 4,18.25 4,10.656085 10.044156,4.5 17.5,4.5 24.955844,4.5 31,10.656085 31,18.25 z"
         transform="matrix(0.43310701,0,0,0.42555193,142.04936,37.46046)" />
      <path
         inkscape:connector-curvature="0"
         style="opacity:0.5;color:#000000;fill:url(#radialGradient3153);fill-opacity:1;fill-rule:nonzero;stroke:none;stroke-width:2;marker:none;visibility:visible;display:inline;overflow:visible"
         d="m 149.42071,39.19259 c -3.11209,0.1185 -5.60168,2.68772 -5.60168,5.83098 0,0.8839 0.51274,1.7268 0.9104,2.45461 -0.17251,-1.98514 0.68212,-2.41851 1.24962,-2.2422 1.72176,0.53491 4.70948,1.02114 7.77904,-0.58275 1.07609,-0.56226 1.70362,0.81534 1.66062,-0.42283 -0.3433,-2.85056 -2.8248,-5.03781 -5.77307,-5.03781 -0.0754,0 -0.15024,-0.003 -0.22493,0 z"
         id="path4939"
         sodipodi:nodetypes="cscsscsc" />
      <path
         transform="matrix(0.58469455,0,0,0.58513359,118.93226,42.59367)"
         d="m 62.5,4.5 c 0,5.522847 -4.477153,10 -10,10 -5.522847,0 -10,-4.477153 -10,-10 0,-5.5228475 4.477153,-10 10,-10 5.522847,0 10,4.4771525 10,10 z"
         sodipodi:ry="10"
         sodipodi:rx="10"
         sodipodi:cy="4.5"
         sodipodi:cx="52.5"
         id="path2607"
         style="color:#000000;fill:none;stroke:url(#radialGradient3155);stroke-width:1.87499988;stroke-linecap:round;stroke-linejoin:miter;stroke-miterlimit:4;stroke-opacity:1;stroke-dasharray:none;stroke-dashoffset:0;marker:none;visibility:visible;display:inline;overflow:visible"
         sodipodi:type="arc" />
      <g
         style="display:inline"
         transform="matrix(0.56424922,0,0,0.56173406,110.68166,21.65865)"
         id="g2708">
        <path
           inkscape:connector-curvature="0"
           style="color:#000000;fill:url(#linearGradient3157);fill-opacity:1;fill-rule:nonzero;stroke:url(#linearGradient3159);stroke-width:0.67653471;stroke-linecap:round;stroke-linejoin:round;stroke-miterlimit:4;stroke-opacity:1;stroke-dashoffset:0;marker:none;visibility:visible;display:inline;overflow:visible"
           d="m 76.796351,49.768459 0.647647,3.255175 5.181173,5.213494 c 0.192503,0.193704 0.97147,0.320302 1.942939,-0.65625 0.97147,-0.976552 0.895574,-1.70388 0.647647,-1.953105 l -5.181173,-5.208279 -3.238233,-0.651035 z"
           id="path2682"
           sodipodi:nodetypes="cczzzcc" />
        <path
           inkscape:connector-curvature="0"
           style="opacity:0.19215686;color:#000000;fill:#ffffff;fill-opacity:1;fill-rule:nonzero;stroke:none;stroke-width:0.99999964;marker:none;visibility:visible;display:inline;overflow:visible"
           d="m 79.567301,51.320041 c -0.003,0.0112 0.294101,0.324318 -0.245291,0.864982 -0.539399,0.540663 -1.007144,0.373988 -0.993486,0.360259 l -0.269149,-1.521577 1.507926,0.296336 z"
           id="path2687"
           sodipodi:nodetypes="csccc" />
      </g>
      <path
         inkscape:connector-curvature="0"
         sodipodi:nodetypes="cczzzcc"
         id="path17267"
         d="m 154.48338,50.08287 0.22751,1.17071 2.74061,2.76066 c 0.13478,0.13576 0.34125,0.0797 0.68252,-0.26184 0.34126,-0.34151 0.42925,-0.51245 0.25981,-0.68303 l -2.74061,-2.75882 -1.16984,-0.22768 z"
         style="color:#000000;fill:none;stroke:url(#linearGradient3161);stroke-width:0.36557102;stroke-linecap:round;stroke-linejoin:miter;stroke-miterlimit:4;stroke-opacity:1;stroke-dasharray:none;stroke-dashoffset:0;marker:none;visibility:visible;display:inline;overflow:visible" />
      <path
         inkscape:connector-curvature="0"
         style="opacity:0.15294118;color:#000000;fill:url(#linearGradient3163);fill-opacity:1;fill-rule:nonzero;stroke:none;stroke-width:0.67653471;marker:none;visibility:visible;display:inline;overflow:visible"
         d="m 153.95251,49.42937 c -0.0949,0.032 -0.14886,0.13167 -0.12343,0.22821 l 0.37028,1.82562 c 0.009,0.0336 0.0276,0.0639 0.0529,0.0878 l 2.90942,2.93156 c 0.1304,0.13061 0.32723,0.16878 0.56426,0.12287 0.23701,-0.046 0.51613,-0.19633 0.81109,-0.49152 0.29254,-0.29276 0.44332,-0.55467 0.49373,-0.78994 0.0503,-0.23526 0.005,-0.45063 -0.12342,-0.57929 l -2.92705,-2.91399 c -0.0288,-0.0282 -0.0658,-0.0467 -0.1058,-0.0527 l -1.81619,-0.36864 c -0.0346,-0.0101 -0.0712,-0.0101 -0.10579,0 z"
         id="path19908"
         sodipodi:nodetypes="cccccsssccccc" />
      <path
         transform="matrix(0.60296622,0,0,0.603419,117.973,42.51139)"
         d="m 62.5,4.5 c 0,5.522847 -4.477153,10 -10,10 -5.522847,0 -10,-4.477153 -10,-10 0,-5.5228475 4.477153,-10 10,-10 5.522847,0 10,4.4771525 10,10 z"
         sodipodi:ry="10"
         sodipodi:rx="10"
         sodipodi:cy="4.5"
         sodipodi:cx="52.5"
         id="path2605"
         style="color:#000000;fill:none;stroke:url(#radialGradient3165);stroke-width:0.60606074;stroke-linecap:round;stroke-linejoin:miter;stroke-miterlimit:4;stroke-opacity:1;stroke-dasharray:none;stroke-dashoffset:0;marker:none;visibility:visible;display:inline;overflow:visible"
         sodipodi:type="arc" />
      <path
         transform="matrix(0.63950966,0,0,0.63998985,116.05446,42.34682)"
         d="m 62.5,4.5 c 0,5.522847 -4.477153,10 -10,10 -5.522847,0 -10,-4.477153 -10,-10 0,-5.5228475 4.477153,-10 10,-10 5.522847,0 10,4.4771525 10,10 z"
         sodipodi:ry="10"
         sodipodi:rx="10"
         sodipodi:cy="4.5"
         sodipodi:cx="52.5"
         id="path2599"
         style="color:#000000;fill:none;stroke:url(#linearGradient3167);stroke-width:0.57142824;stroke-linecap:round;stroke-linejoin:miter;stroke-miterlimit:4;stroke-opacity:1;stroke-dasharray:none;stroke-dashoffset:0;marker:none;visibility:visible;display:inline;overflow:visible"
         sodipodi:type="arc" />
      <path
         transform="matrix(0.53103855,0,0,0.53143843,121.74918,42.83531)"
         d="m 62.5,4.5 c 0,5.522847 -4.477153,10 -10,10 -5.522847,0 -10,-4.477153 -10,-10 0,-5.5228475 4.477153,-10 10,-10 5.522847,0 10,4.4771525 10,10 z"
         sodipodi:ry="10"
         sodipodi:rx="10"
         sodipodi:cy="4.5"
         sodipodi:cx="52.5"
         id="path4927"
         style="color:#000000;fill:none;stroke:url(#linearGradient3169);stroke-width:0.68814939;stroke-linecap:round;stroke-linejoin:miter;stroke-miterlimit:4;stroke-opacity:1;stroke-dasharray:none;stroke-dashoffset:0;marker:none;visibility:visible;display:inline;overflow:visible"
         sodipodi:type="arc" />
      <path
         sodipodi:type="arc"
         style="opacity:0.16078431;color:#000000;fill:url(#radialGradient3171);fill-opacity:1;fill-rule:nonzero;stroke:none;stroke-width:1;marker:none;visibility:visible;display:inline;overflow:visible"
         id="path11092"
         sodipodi:cx="12.375"
         sodipodi:cy="12.9375"
         sodipodi:rx="9.8125"
         sodipodi:ry="9.8125"
         d="m 22.1875,12.9375 c 0,5.419294 -4.393206,9.8125 -9.8125,9.8125 -5.4192941,0 -9.8125,-4.393206 -9.8125,-9.8125 0,-5.4192941 4.3932059,-9.8125 9.8125,-9.8125 5.419294,0 9.8125,4.3932059 9.8125,9.8125 z"
         transform="matrix(0.48414243,0,0,0.48450596,143.63746,38.95849)" />
    </g>
  </g>
</svg>
