<?xml version="1.0" encoding="UTF-8" standalone="no"?>
<!-- Created with Inkscape (http://www.inkscape.org/) -->

<svg
   xmlns:dc="http://purl.org/dc/elements/1.1/"
   xmlns:cc="http://creativecommons.org/ns#"
   xmlns:rdf="http://www.w3.org/1999/02/22-rdf-syntax-ns#"
   xmlns:svg="http://www.w3.org/2000/svg"
   xmlns="http://www.w3.org/2000/svg"
   xmlns:sodipodi="http://sodipodi.sourceforge.net/DTD/sodipodi-0.dtd"
   xmlns:inkscape="http://www.inkscape.org/namespaces/inkscape"
   width="48px"
   height="48px"
   id="svg2986"
   version="1.1"
   inkscape:version="0.48.3.1 r9886"
   sodipodi:docname="geda_deselect.svg">
  <defs
     id="defs2988">
    <marker
       inkscape:stockid="Arrow2Mstart"
       orient="auto"
       refY="0.0"
       refX="0.0"
       id="Arrow2Mstart"
       style="overflow:visible">
      <path
         id="path3792"
         style="fill-rule:evenodd;stroke-width:0.62500000;stroke-linejoin:round"
         d="M 8.7185878,4.0337352 L -2.2072895,0.016013256 L 8.7185884,-4.0017078 C 6.9730900,-1.6296469 6.9831476,1.6157441 8.7185878,4.0337352 z "
         transform="scale(0.6) translate(0,0)" />
    </marker>
    <marker
       inkscape:stockid="Arrow2Lstart"
       orient="auto"
       refY="0.0"
       refX="0.0"
       id="Arrow2Lstart"
       style="overflow:visible">
      <path
         id="path3786"
         style="fill-rule:evenodd;stroke-width:0.62500000;stroke-linejoin:round"
         d="M 8.7185878,4.0337352 L -2.2072895,0.016013256 L 8.7185884,-4.0017078 C 6.9730900,-1.6296469 6.9831476,1.6157441 8.7185878,4.0337352 z "
         transform="scale(1.1) translate(1,0)" />
    </marker>
    <marker
       inkscape:stockid="Arrow1Mstart"
       orient="auto"
       refY="0.0"
       refX="0.0"
       id="Arrow1Mstart"
       style="overflow:visible">
      <path
         id="path3774"
         d="M 0.0,0.0 L 5.0,-5.0 L -12.5,0.0 L 5.0,5.0 L 0.0,0.0 z "
         style="fill-rule:evenodd;stroke:#000000;stroke-width:1.0pt"
         transform="scale(0.4) translate(10,0)" />
    </marker>
    <marker
       inkscape:stockid="Arrow1Lstart"
       orient="auto"
       refY="0.0"
       refX="0.0"
       id="Arrow1Lstart"
       style="overflow:visible">
      <path
         id="path3768"
         d="M 0.0,0.0 L 5.0,-5.0 L -12.5,0.0 L 5.0,5.0 L 0.0,0.0 z "
         style="fill-rule:evenodd;stroke:#000000;stroke-width:1.0pt"
         transform="scale(0.8) translate(12.5,0)" />
    </marker>
  </defs>
  <sodipodi:namedview
     id="base"
     pagecolor="#ffffff"
     bordercolor="#666666"
     borderopacity="1.0"
     inkscape:pageopacity="0.0"
     inkscape:pageshadow="2"
     inkscape:zoom="16.013566"
     inkscape:cx="24.017205"
     inkscape:cy="23.632128"
     inkscape:current-layer="layer1"
     showgrid="true"
     inkscape:grid-bbox="true"
     inkscape:document-units="px"
     inkscape:window-width="1221"
     inkscape:window-height="809"
     inkscape:window-x="211"
     inkscape:window-y="92"
     inkscape:window-maximized="0" />
  <metadata
     id="metadata2991">
    <rdf:RDF>
      <cc:Work
         rdf:about="">
        <dc:format>image/svg+xml</dc:format>
        <dc:type
           rdf:resource="http://purl.org/dc/dcmitype/StillImage" />
        <dc:title />
      </cc:Work>
    </rdf:RDF>
  </metadata>
  <g
     id="layer1"
     inkscape:label="Layer 1"
     inkscape:groupmode="layer">
    <path
       style="fill:#10cd1b;stroke:#10cc1c;stroke-width:4.70300006999999987;stroke-linecap:butt;stroke-linejoin:miter;stroke-miterlimit:4;stroke-opacity:0.44047617999999999;stroke-dasharray:none;marker-start:url(#Arrow2Mstart);fill-opacity:0.43921569"
       d="M 10.694919,9.9128176 39.23091,41.0315"
       id="path2994"
       inkscape:connector-curvature="0"
       sodipodi:nodetypes="cc" />
    <path
       style="fill:#10cd1b;fill-opacity:0.43921569;stroke:#10cc1c;stroke-width:0.0026347;stroke-linecap:square;stroke-miterlimit:4;stroke-opacity:0.44047618;stroke-dasharray:none"
       d="M 12.732076,20.529921 C 9.3406762,12.274963 6.5761104,5.51203 6.5885965,5.5011811 c 0.012486,-0.010849 6.5046045,3.3246715 14.4269305,7.4122669 8.78651,4.53348 14.366657,7.452408 14.307895,7.484338 -0.05298,0.02879 -0.27747,0.0751 -0.498858,0.102903 -0.221388,0.02781 -0.830663,0.144961 -1.353944,0.260341 -2.505486,0.552443 -5.054532,1.737643 -7.261221,3.376164 -0.925288,0.687049 -2.989743,2.746241 -3.693899,3.684484 -1.609796,2.144946 -2.68048,4.338122 -3.35382,6.869923 -0.116356,0.437509 -0.223227,0.80714 -0.23749,0.821403 -0.01426,0.01426 -2.800714,-6.728124 -6.192114,-14.983083 l 0,0 z"
       id="path3783"
       inkscape:connector-curvature="0" />
    <path
       style="fill:#10cd1b;fill-opacity:0.43921569;stroke:#10cc1c;stroke-width:0.0026347;stroke-linecap:square;stroke-miterlimit:4;stroke-opacity:0.44047618;stroke-dasharray:none"
       d="M 15.974754,28.309915 C 10.426113,14.886571 6.6539806,5.5991619 6.7685067,5.6431097 7.368125,5.8732048 34.606516,19.9704 35.061461,20.286093 c 0.130458,0.09053 0.130458,0.09448 0,0.133466 -0.07394,0.0221 -0.513174,0.111213 -0.976077,0.198034 -3.075634,0.576859 -6.363427,2.153563 -8.648661,4.147579 -1.501399,1.310068 -2.738523,2.68962 -3.66952,4.091987 -1.121064,1.688663 -1.967356,3.518934 -2.513345,5.435592 -0.144256,0.506401 -0.283056,0.9593 -0.308444,1.006443 -0.02539,0.04714 -1.362184,-3.098034 -2.97066,-6.989279 l 0,0 z"
       id="path3785"
       inkscape:connector-curvature="0" />
    <path
       style="fill:#10cd1b;fill-opacity:0.43921569;stroke:#10cc1c;stroke-width:0.0026347;stroke-linecap:square;stroke-miterlimit:4;stroke-opacity:0.44047618;stroke-dasharray:none"
       d="M 18.425735,34.060798 C 17.898317,32.854282 15.929409,28.143675 14.839074,25.47972 14.092867,23.656555 13.596744,22.449169 11.14013,16.477822 8.4262811,9.8812084 6.8229652,5.8420064 6.8912551,5.7737165 6.9224694,5.7425022 9.2004717,6.8929747 13.84941,9.287833 c 4.112579,2.118558 6.597993,3.402036 7.904106,4.081713 0.523281,0.272306 2.614575,1.358415 4.647321,2.413576 5.213382,2.706169 8.719178,4.551419 8.694042,4.576044 -0.01181,0.01157 -0.564889,0.142286 -1.229053,0.290472 -3.121169,0.696383 -5.774912,1.941665 -8.050364,3.777671 -0.740911,0.597823 -2.289497,2.132143 -2.945796,2.918659 -1.56466,1.875105 -2.808504,4.237241 -3.612946,6.861202 -0.15117,0.493092 -0.297407,0.896531 -0.324972,0.896531 -0.02756,0 -0.25527,-0.469306 -0.506013,-1.042903 l 0,0 z"
       id="path3787"
       inkscape:connector-curvature="0" />
    <path
       style="fill:#10cd1b;fill-opacity:0.43921569;stroke:#10cc1c;stroke-width:0.0026347;stroke-linecap:square;stroke-miterlimit:4;stroke-opacity:0.44047618;stroke-dasharray:none"
       d="M 18.550355,34.28398 C 16.863934,30.481828 7.3441352,7.2183163 6.9721715,5.9903964 L 6.9212271,5.8222195 7.2017204,5.9390645 C 8.167243,6.3412718 30.1447,17.70074 34.249793,19.919377 l 0.786492,0.425068 -1.518353,0.38191 c -0.835095,0.210051 -1.897092,0.520431 -2.359994,0.689732 -1.798683,0.657849 -3.877891,1.818324 -5.305997,2.961453 -0.6453,0.516532 -2.303473,2.15847 -2.970203,2.941123 -1.346113,1.580161 -2.646448,3.960947 -3.431606,6.282936 -0.244665,0.723561 -0.47198,1.3427 -0.505143,1.375864 -0.03317,0.03316 -0.21075,-0.278904 -0.394634,-0.693483 l 0,0 z"
       id="path3789"
       inkscape:connector-curvature="0" />
    <path
       style="fill:#10cd1b;fill-opacity:0.43921569;stroke:#10cc1c;stroke-width:0.0026347;stroke-linecap:square;stroke-miterlimit:4;stroke-opacity:0.44047618;stroke-dasharray:none"
       d="M 18.720565,34.599778 C 18.381513,33.935181 13.746978,22.788516 11.140217,16.368043 10.707133,15.301355 10.123942,13.868736 9.8442357,13.184445 9.0050355,11.131372 7.1795648,6.5446273 7.0824783,6.2451524 7.0326688,6.091509 7.0080818,5.9496344 7.0278406,5.9298757 7.0475993,5.910117 7.9977276,6.3609276 9.1392369,6.9316772 14.091678,9.4078758 34.711619,20.112009 34.908529,20.308919 c 0.0305,0.03051 -0.265725,0.130857 -0.658289,0.223005 -3.357914,0.788216 -5.740861,1.844037 -8.039904,3.56227 -0.72205,0.539638 -2.649544,2.413006 -3.383374,3.288367 -1.304772,1.556418 -2.536393,3.804726 -3.378585,6.167568 -0.261517,0.733707 -0.499618,1.334013 -0.529113,1.334013 -0.02949,0 -0.11891,-0.127963 -0.198699,-0.284364 z"
       id="path3791"
       inkscape:connector-curvature="0" />
    <path
       style="fill:#10cd1b;fill-opacity:0.43921569;stroke:#10cc1c;stroke-width:0.0026347;stroke-linecap:square;stroke-miterlimit:4;stroke-opacity:0.44047618;stroke-dasharray:none"
       d="M 18.696893,34.510884 C 17.6362,32.266607 7.4325138,7.3880895 7.0759669,6.1768699 c -0.032585,-0.1106941 -0.030935,-0.201262 0.00367,-0.201262 0.1861041,0 3.7332921,1.7903561 11.7098421,5.9102551 10.775801,5.565716 16.149597,8.396052 16.052437,8.454694 -0.03369,0.02033 -0.588201,0.175041 -1.232239,0.343792 -1.516532,0.397359 -2.35522,0.668149 -3.31567,1.070542 -1.484326,0.621877 -3.144817,1.588857 -4.295691,2.501577 -0.705109,0.559198 -2.499091,2.328492 -3.169715,3.126093 -1.242273,1.477486 -2.53082,3.80228 -3.340055,6.026121 -0.224687,0.617457 -0.4527,1.206967 -0.506697,1.310024 l -0.09818,0.187375 -0.186777,-0.395197 z"
       id="path3793"
       inkscape:connector-curvature="0" />
    <path
       style="fill:#10cd1b;fill-opacity:0.43921569;stroke:#10cc1c;stroke-width:0.0026347;stroke-linecap:square;stroke-miterlimit:4;stroke-opacity:0.44047618;stroke-dasharray:none"
       d="M 18.811059,34.745134 C 18.329985,33.974811 7.2634991,6.9861366 7.1061876,6.1995788 7.0781597,6.0594397 7.0912223,5.9756079 7.1410864,5.9756079 c 0.3294491,0 27.6761596,14.1710331 27.6761596,14.3417531 0,0.02706 -0.601042,0.207117 -1.335648,0.400131 -0.734606,0.193013 -1.747319,0.49754 -2.250474,0.676726 -1.675043,0.596524 -3.585226,1.625132 -5.031339,2.709307 -0.683885,0.51272 -2.616332,2.384915 -3.304462,3.201431 -1.422872,1.688343 -2.480108,3.600598 -3.452038,6.243808 -0.196169,0.533492 -0.39947,1.051669 -0.451779,1.151504 -0.09011,0.171976 -0.09959,0.174335 -0.180447,0.04487 l 0,0 z"
       id="path3795"
       inkscape:connector-curvature="0" />
    <path
       style="fill:#10cd1b;fill-opacity:0.43921569;stroke:#10cc1c;stroke-width:0.0026347;stroke-linecap:square;stroke-miterlimit:4;stroke-opacity:0.44047618;stroke-dasharray:none"
       d="M 18.811437,34.722575 C 18.555382,34.396598 11.474066,17.269342 8.1967964,9.0494268 7.264507,6.7110964 7.0313936,6.072695 7.0888553,6.0152333 7.1117217,5.9923669 7.5059857,6.1502623 7.9649977,6.366112 10.244486,7.4380379 32.244751,18.830553 34.542234,20.128745 c 0.150636,0.08512 0.274138,0.172429 0.274448,0.194027 2.93e-4,0.0216 -0.485209,0.166958 -1.078932,0.323021 -2.93355,0.771103 -4.992061,1.675283 -7.012264,3.080066 -1.067489,0.742298 -2.910881,2.479886 -4.000425,3.770816 -1.108948,1.313922 -2.314068,3.511511 -3.208344,5.850558 -0.284706,0.744669 -0.543148,1.38004 -0.574316,1.411935 -0.03117,0.03189 -0.0901,0.01543 -0.130964,-0.03659 l 0,0 z"
       id="path3797"
       inkscape:connector-curvature="0" />
    <path
       style="fill:#10cd1b;fill-opacity:0.43921569;stroke:#10cc1c;stroke-width:0.0026347;stroke-linecap:square;stroke-miterlimit:4;stroke-opacity:0.44047618;stroke-dasharray:none"
       d="M 18.811437,34.722575 C 18.450019,34.262463 7.2702698,7.0199901 7.1061876,6.1995788 c -0.024637,-0.123184 -0.02763,-0.2239709 -0.00665,-0.2239709 0.2552515,0 16.4981774,8.3454921 24.7170774,12.6994471 2.841962,1.505528 2.999524,1.592155 3.00017,1.649502 2.2e-4,0.02258 -0.17244,0.08429 -0.383765,0.137135 -1.089791,0.272518 -2.960557,0.839999 -3.627918,1.100497 -1.604999,0.626499 -3.215626,1.516222 -4.539979,2.50792 -0.852944,0.638698 -3.094036,2.854026 -3.758181,3.714976 -1.209741,1.568219 -2.087483,3.220655 -3.071133,5.781706 -0.239632,0.623912 -0.46143,1.160482 -0.492884,1.192377 -0.03145,0.03189 -0.09062,0.01543 -0.131486,-0.03659 l 0,0 z"
       id="path3799"
       inkscape:connector-curvature="0" />
    <path
       style="fill:#0ff03a;fill-opacity:0.45833334;stroke:#9de594;stroke-width:0.20000000000000001;stroke-linecap:square;stroke-miterlimit:4;stroke-opacity:0.77678572999999984;stroke-dasharray:none;opacity:0.27325580999999999"
       d="M 18.811437,34.722575 C 18.450019,34.262463 7.2702698,7.0199901 7.1061876,6.1995788 c -0.024637,-0.123184 -0.02763,-0.2239709 -0.00665,-0.2239709 0.2114413,0 9.8324504,4.9195761 20.3625004,10.4120971 5.231823,2.728941 7.353608,3.863829 7.354646,3.933811 2.93e-4,0.02091 -0.53461,0.182335 -1.188711,0.358728 -1.847577,0.498238 -2.985239,0.911338 -4.336281,1.574558 -1.600936,0.785894 -2.969999,1.701215 -4.135018,2.764571 -2.791294,2.547719 -4.145948,4.544083 -5.601293,8.254674 -0.307856,0.784921 -0.584469,1.453226 -0.614693,1.485121 -0.03022,0.03189 -0.08839,0.01543 -0.129249,-0.03659 z"
       id="path3801"
       inkscape:connector-curvature="0" />
    <path
       style="opacity:0.27325577;fill:#0ff03a;fill-opacity:0.45833333;stroke:#9de594;stroke-width:0.01463723;stroke-linecap:square;stroke-miterlimit:4;stroke-opacity:0.77678576;stroke-dasharray:none"
       d="M 18.763484,34.318935 C 18.188538,33.073528 14.564008,24.368413 11.990174,18.051325 11.276755,16.300346 10.367982,14.071466 9.9706767,13.098258 8.2901775,8.9818333 7.2360287,6.2765242 7.2910755,6.2214774 c 0.027391,-0.027391 5.0052325,2.4633783 7.1863575,3.595848 1.286486,0.6679616 8.645407,4.4727046 10.794959,5.5812606 4.240397,2.186835 9.250693,4.844681 9.208074,4.884669 -0.01277,0.01198 -0.662692,0.208394 -1.444281,0.436479 -1.666556,0.486339 -2.406084,0.764738 -3.701961,1.393616 -1.754392,0.851394 -3.037107,1.714163 -4.427763,2.978165 -2.567656,2.33381 -3.867626,4.248726 -5.380939,7.92638 -0.314704,0.764796 -0.593794,1.416131 -0.620199,1.447412 -0.02641,0.03128 -0.09023,-0.03459 -0.141839,-0.146372 z"
       id="path3803"
       inkscape:connector-curvature="0" />
    <path
       style="opacity:0.27325577;fill:#0ff03a;fill-opacity:0.45833333;stroke:#9de594;stroke-width:0.01463723;stroke-linecap:square;stroke-miterlimit:4;stroke-opacity:0.77678576;stroke-dasharray:none"
       d="m 30.417459,34.843311 c -3.896475,-4.248671 -7.096635,-7.759472 -7.111467,-7.801779 -0.03883,-0.110769 2.039777,-2.136624 2.749629,-2.679844 l 0.600264,-0.459358 4.418252,4.813934 c 8.480166,9.239618 9.785696,10.669147 9.7863,10.715803 3.66e-4,0.02584 -0.755187,0.742029 -1.678935,1.591539 l -1.679543,1.544562 -7.0845,-7.724857 z"
       id="path3805"
       inkscape:connector-curvature="0" />
    <path
       style="opacity:0.27325577;fill:#0ff03a;fill-opacity:0.45833333;stroke:#9de594;stroke-width:0.01463723;stroke-linecap:square;stroke-miterlimit:4;stroke-opacity:0.77678576;stroke-dasharray:none"
       d="M 33.022768,37.645189 C 25.231718,29.130858 23.40663,27.119922 23.385149,27.02618 c -0.02552,-0.11137 1.846803,-1.952662 2.646532,-2.602672 0.410021,-0.33326 0.604488,-0.449081 0.673926,-0.401377 0.09668,0.06642 11.883391,12.915856 13.306262,14.505997 0.406668,0.454474 0.748676,0.852817 0.760017,0.885207 0.02551,0.07284 -3.190458,3.086646 -3.287067,3.080437 -0.01481,-9.51e-4 -2.022734,-2.182813 -4.462051,-4.848583 z"
       id="path3807"
       inkscape:connector-curvature="0" />
    <path
       style="opacity:0.27325577;fill:#0ff03a;fill-opacity:0.45833333;stroke:#9de594;stroke-width:0.01463723;stroke-linecap:square;stroke-miterlimit:4;stroke-opacity:0.77678576;stroke-dasharray:none"
       d="m 34.448987,39.147236 c -1.654592,-1.801294 -3.910432,-4.264502 -5.012977,-5.473797 -1.102544,-1.209294 -2.709847,-2.971251 -3.571783,-3.915459 -2.297869,-2.517203 -2.437021,-2.685359 -2.352641,-2.843025 0.124959,-0.233488 2.367596,-2.362709 2.769916,-2.629835 0.382014,-0.253643 0.390749,-0.255605 0.521561,-0.117171 0.07317,0.07744 0.754952,0.817407 1.515066,1.644381 0.760114,0.826973 2.304657,2.506596 3.432318,3.732494 1.127661,1.225899 2.410251,2.624112 2.850201,3.10714 0.439949,0.483029 1.117322,1.224039 1.505273,1.646689 2.563644,2.79294 4.12699,4.513588 4.366275,4.805603 l 0.27687,0.337883 -0.730762,0.697335 c -1.040519,0.992921 -2.46189,2.282843 -2.515476,2.282843 -0.02502,0 -1.399248,-1.473786 -3.053841,-3.275081 l 0,0 z"
       id="path3809"
       inkscape:connector-curvature="0" />
    <path
       style="opacity:0.27325577;fill:#0ff03a;fill-opacity:0.45833333;stroke:#9de594;stroke-width:0.01463723;stroke-linecap:square;stroke-miterlimit:4;stroke-opacity:0.77678576;stroke-dasharray:none"
       d="M 35.877652,40.646041 C 31.757471,36.213423 23.847707,27.512094 23.613291,27.15433 l -0.127476,-0.194553 1.131884,-1.10863 c 1.093627,-1.071159 1.862802,-1.725371 2.028567,-1.725371 0.110635,0 13.835135,14.939265 14.00757,15.24739 0.06092,0.108861 -2.986598,2.980903 -3.156187,2.974453 -0.02187,-8.34e-4 -0.750867,-0.766542 -1.619997,-1.701578 z"
       id="path3811"
       inkscape:connector-curvature="0" />
    <path
       style="opacity:0.27325577000000001;fill:#0aff08;fill-opacity:0.91666674999999997;stroke:#92f584;stroke-width:0.01463723000000000;stroke-linecap:square;stroke-miterlimit:4;stroke-opacity:0.55059522;stroke-dasharray:none"
       d="M 17.421501,31.061677 C 13.595525,22.013303 7.2493789,6.4042272 7.3559777,6.3043625 7.4729067,6.1948201 33.477555,19.627949 34.192401,20.167159 c 0.157874,0.119085 0.125671,0.133587 -1.140286,0.513532 -1.711814,0.513757 -2.706182,0.901969 -4.037273,1.576193 -1.907679,0.966276 -3.25191,1.94677 -4.901813,3.575422 -1.37808,1.360332 -2.338475,2.608706 -3.191405,4.148363 -0.431905,0.779651 -0.708568,1.368872 -1.442455,3.072055 -0.320454,0.743699 -0.59235,1.361887 -0.604215,1.373752 -0.01187,0.01187 -0.665918,-1.502294 -1.453453,-3.364799 l 0,0 z"
       id="path3813"
       inkscape:connector-curvature="0" />
    <path
       style="opacity:0.27325577000000001;fill:none;fill-opacity:0.27380951999999997;stroke:#92f584;stroke-width:0.01463723000000000;stroke-linecap:square;stroke-miterlimit:4;stroke-opacity:0.55059521000000000;stroke-dasharray:none"
       d="M 17.8626,31.979105 C 15.760798,27.064868 12.121136,18.24052 9.3710562,11.391384 7.648581,7.1015201 7.3875812,6.4147249 7.4797974,6.4147249 c 0.1853233,0 8.2011806,4.0887461 17.7954266,9.0771311 7.57207,3.936985 8.958984,4.681892 8.868489,4.763234 -0.02881,0.0259 -0.763931,0.280457 -1.633595,0.565683 -3.682056,1.207617 -5.988026,2.58588 -8.474555,5.065188 -1.991875,1.986089 -2.923524,3.409946 -4.389832,6.709062 -0.361779,0.813982 -0.686978,1.532142 -0.722665,1.595911 -0.04764,0.08512 -0.329536,-0.502837 -1.060466,-2.211829 l 0,0 z"
       id="path3819"
       inkscape:connector-curvature="0" />
  </g>
</svg>
