<?xml version="1.0" encoding="UTF-8" standalone="no"?>
<!-- Created with Inkscape (http://www.inkscape.org/) -->

<svg
   xmlns:dc="http://purl.org/dc/elements/1.1/"
   xmlns:cc="http://creativecommons.org/ns#"
   xmlns:rdf="http://www.w3.org/1999/02/22-rdf-syntax-ns#"
   xmlns:svg="http://www.w3.org/2000/svg"
   xmlns="http://www.w3.org/2000/svg"
   xmlns:xlink="http://www.w3.org/1999/xlink"
   xmlns:sodipodi="http://sodipodi.sourceforge.net/DTD/sodipodi-0.dtd"
   xmlns:inkscape="http://www.inkscape.org/namespaces/inkscape"
   width="48px"
   height="48px"
   id="svg2999"
   version="1.1"
   inkscape:version="0.48.3.1 r9886"
   sodipodi:docname="geda-save-image.svg"
   inkscape:export-filename="../geda-save-image.png"
   inkscape:export-xdpi="90"
   inkscape:export-ydpi="90">
  <defs
     id="defs3001">
    <inkscape:path-effect
       effect="skeletal"
       id="path-effect5786"
       is_visible="true"
       pattern="m 14.339887,2.0918704 0,9.9999996 10,-4.9999996 z"
       copytype="single_stretched"
       prop_scale="1"
       scale_y_rel="false"
       spacing="0"
       normal_offset="0"
       tang_offset="0"
       prop_units="false"
       vertical_pattern="false"
       fuse_tolerance="0" />
    <marker
       inkscape:stockid="Arrow2Mend"
       orient="auto"
       refY="0.0"
       refX="0.0"
       id="Arrow2Mend"
       style="overflow:visible;">
      <path
         id="path4193"
         style="fill-rule:evenodd;stroke-width:0.62500000;stroke-linejoin:round;"
         d="M 8.7185878,4.0337352 L -2.2072895,0.016013256 L 8.7185884,-4.0017078 C 6.9730900,-1.6296469 6.9831476,1.6157441 8.7185878,4.0337352 z "
         transform="scale(0.6) rotate(180) translate(0,0)" />
    </marker>
    <marker
       inkscape:stockid="Arrow1Lend"
       orient="auto"
       refY="0.0"
       refX="0.0"
       id="Arrow1Lend"
       style="overflow:visible;">
      <path
         id="path4169"
         d="M 0.0,0.0 L 5.0,-5.0 L -12.5,0.0 L 5.0,5.0 L 0.0,0.0 z "
         style="fill-rule:evenodd;stroke:#000000;stroke-width:1.0pt;"
         transform="scale(0.8) rotate(180) translate(12.5,0)" />
    </marker>
    <marker
       inkscape:stockid="Arrow2Lend"
       orient="auto"
       refY="0.0"
       refX="0.0"
       id="Arrow2Lend"
       style="overflow:visible;">
      <path
         id="path4187"
         style="fill-rule:evenodd;stroke-width:0.62500000;stroke-linejoin:round;"
         d="M 8.7185878,4.0337352 L -2.2072895,0.016013256 L 8.7185884,-4.0017078 C 6.9730900,-1.6296469 6.9831476,1.6157441 8.7185878,4.0337352 z "
         transform="scale(1.1) rotate(180) translate(1,0)" />
    </marker>
    <marker
       inkscape:stockid="Tail"
       orient="auto"
       refY="0.0"
       refX="0.0"
       id="Tail"
       style="overflow:visible">
      <g
         id="g4202"
         transform="scale(-1.2)">
        <path
           id="path4204"
           d="M -3.8048674,-3.9585227 L 0.54352094,0"
           style="fill:none;fill-rule:evenodd;stroke:#000000;stroke-width:0.8;stroke-linecap:round" />
        <path
           id="path4206"
           d="M -1.2866832,-3.9585227 L 3.0617053,0"
           style="fill:none;fill-rule:evenodd;stroke:#000000;stroke-width:0.8;stroke-linecap:round" />
        <path
           id="path4208"
           d="M 1.3053582,-3.9585227 L 5.6537466,0"
           style="fill:none;fill-rule:evenodd;stroke:#000000;stroke-width:0.8;stroke-linecap:round" />
        <path
           id="path4210"
           d="M -3.8048674,4.1775838 L 0.54352094,0.21974226"
           style="fill:none;fill-rule:evenodd;stroke:#000000;stroke-width:0.8;stroke-linecap:round" />
        <path
           id="path4212"
           d="M -1.2866832,4.1775838 L 3.0617053,0.21974226"
           style="fill:none;fill-rule:evenodd;stroke:#000000;stroke-width:0.8;stroke-linecap:round" />
        <path
           id="path4214"
           d="M 1.3053582,4.1775838 L 5.6537466,0.21974226"
           style="fill:none;fill-rule:evenodd;stroke:#000000;stroke-width:0.8;stroke-linecap:round" />
      </g>
    </marker>
    <linearGradient
       inkscape:collect="always"
       id="linearGradient3825">
      <stop
         style="stop-color:#ffff00;stop-opacity:1;"
         offset="0"
         id="stop3827" />
      <stop
         style="stop-color:#ffff00;stop-opacity:0;"
         offset="1"
         id="stop3829" />
    </linearGradient>
    <radialGradient
       inkscape:collect="always"
       xlink:href="#linearGradient3825"
       id="radialGradient3974"
       gradientUnits="userSpaceOnUse"
       cx="8.0714281"
       cy="9.2489753"
       fx="8.0714281"
       fy="9.2489753"
       r="4"
       gradientTransform="matrix(0.78571431,0,0,0.82608693,1.5714283,1.6428998)" />
  </defs>
  <sodipodi:namedview
     id="base"
     pagecolor="#ffffff"
     bordercolor="#666666"
     borderopacity="1.0"
     inkscape:pageopacity="0.0"
     inkscape:pageshadow="2"
     inkscape:zoom="11.624994"
     inkscape:cx="23.99998"
     inkscape:cy="23.999947"
     inkscape:current-layer="layer1"
     showgrid="true"
     inkscape:grid-bbox="true"
     inkscape:document-units="px"
     inkscape:window-width="1350"
     inkscape:window-height="756"
     inkscape:window-x="202"
     inkscape:window-y="106"
     inkscape:window-maximized="0" />
  <metadata
     id="metadata3004">
    <rdf:RDF>
      <cc:Work
         rdf:about="">
        <dc:format>image/svg+xml</dc:format>
        <dc:type
           rdf:resource="http://purl.org/dc/dcmitype/StillImage" />
        <dc:title></dc:title>
      </cc:Work>
    </rdf:RDF>
  </metadata>
  <g
     id="layer1"
     inkscape:label="Layer 1"
     inkscape:groupmode="layer">
    <g
       id="picture"
       transform="matrix(1.2727273,0,0,1.2105263,-1.9999996,-1.9887737)">
      <path
         style="fill:#95a5a6"
         inkscape:connector-curvature="0"
         d="m 23.571428,18.6429 c 0,1.1 -0.895,2 -2,2 h -8 -3.9999997 -6 c -1.1046,0 -2,-0.9 -2,-2 v -14 c 0,-1.1 0.8954,-2 2,-2 h 6 3.9999997 4 4 c 1.105,0 2,0.9 2,2 v 4 10 z"
         id="path6" />
      <path
         inkscape:label="#picture_frame"
         style="fill:#bdc3c7"
         inkscape:connector-curvature="0"
         d="m 1.5714283,17.6429 c 0,1.1 0.8954,2 2,2 h 8.0000007 4 5.999999 c 1.105,0 2,-0.9 2,-2 v -14 c 0,-1.1 -0.895,-2 -2,-2 h -5.999999 -4 -4.0000005 -4.0000002 c -1.1046,0 -2,0.9 -2,2 v 4 10 z"
         id="path8" />
      <rect
         style="fill:#f39c12"
         height="15.500346"
         width="18.999619"
         x="3"
         y="2.7859833"
         id="rect10" />
      <path
         style="fill:#e67e22"
         inkscape:connector-curvature="0"
         d="M 17.381654,7.8610967 6.463208,18.236328 h 15.53641 V 12.236195 L 17.381654,7.8610967 z"
         id="path12" />
      <path
         style="fill:#f1c40f;stroke:url(#radialGradient3974);stroke-width:1.02740347"
         inkscape:connector-curvature="0"
         d="m 11.444273,9.2361274 a 3.6943702,3.5000783 0 0 1 -7.3887387,0 3.6943702,3.5000783 0 1 1 7.3887387,0 z"
         id="path14" />
      <path
         style="fill:#d35400"
         inkscape:connector-curvature="0"
         d="M 8.3766806,10.330152 3,15.424265 v 2.812063 H 16.721945 L 8.3766806,10.330152 z"
         id="path16" />
    </g>
    <g
       transform="matrix(1.1111111,0,0,1.277776,24.666667,-1292.8981)"
       id="floppy">
      <path
         style="fill:#2980b9"
         inkscape:connector-curvature="0"
         d="m 3,1037.4 v 2 2 6 c 0,1.1 0.8954,2 2,2 h 14 c 1.105,0 2,-0.9 2,-2 v -6 -2 -2 H 3 z"
         id="path6-6" />
      <path
         style="fill:#3498db"
         inkscape:connector-curvature="0"
         d="M 5,3 C 3.8954,3 3,3.8954 3,5 v 2 2 1 2 6 c 0,1.105 0.8954,2 2,2 h 14 c 1.105,0 2,-0.895 2,-2 V 12 10 9 7 6 L 18,3 H 17 15 5 z"
         transform="translate(0,1028.4)"
         id="path8-2" />
      <path
         style="fill:#2980b9"
         inkscape:connector-curvature="0"
         d="m 6,3 v 1 1 2 c 0,1.1046 0.8954,2 2,2 h 1 4 2 1 c 1.105,0 2,-0.8954 2,-2 V 5.1562 5 4 3 H 6 z"
         transform="translate(0,1028.4)"
         id="path10" />
      <path
         style="fill:#ecf0f1"
         inkscape:connector-curvature="0"
         d="m 8,1041.4 c -1.1046,0 -2,0.9 -2,2 v 1.8 3.2 h 12 v -3.2 -1.8 c 0,-1.1 -0.895,-2 -2,-2 H 13 8 z"
         id="path12-2" />
      <rect
         style="fill:#bdc3c7"
         height="1"
         width="12"
         x="6"
         y="1048.4"
         id="rect14" />
      <path
         style="fill:#ecf0f1"
         inkscape:connector-curvature="0"
         d="m 7,1031.4 v 1 2 c 0,1.1 0.8954,2 2,2 h 1 4 1 c 1.105,0 2,-0.9 2,-2 v -1.9 -0.1 -1 H 7 z"
         id="path16-5" />
      <path
         style="fill:#95a5a6"
         inkscape:connector-curvature="0"
         d="m 8,4 v 2 c 0,0.5523 0.4477,1 1,1 h 1 1 c 0.552,0 1,-0.4477 1,-1 V 4 H 10 8 z"
         transform="translate(0,1028.4)"
         id="path18" />
      <g
         style="fill:#bdc3c7"
         id="g20">
        <rect
           height="1"
           transform="translate(0,1028.4)"
           width="8"
           x="8"
           y="15"
           id="rect22" />
        <rect
           height="1"
           width="8"
           x="8"
           y="1045.4"
           id="rect24" />
        <rect
           height="1"
           width="4"
           x="8"
           y="1031.4"
           id="rect26" />
      </g>
    </g>
    <g
       id="g3026">
      <path
         inkscape:connector-curvature="0"
         inkscape:original-d="m 20,36.5 8,0"
         inkscape:path-effect="#path-effect5786"
         id="path5784"
         d="m 20,31.5 0,10 8,-5 z"
         style="fill:#008000;fill-rule:evenodd;stroke:none" />
      <path
         sodipodi:nodetypes="cc"
         inkscape:connector-curvature="0"
         id="path5782"
         d="m 14.048581,36.640742 5.924561,0"
         style="fill:none;stroke:#008000;stroke-width:1.05086076px;stroke-linecap:butt;stroke-linejoin:miter;stroke-opacity:1" />
      <path
         sodipodi:nodetypes="cc"
         inkscape:connector-curvature="0"
         id="path5788"
         d="m 14.500038,22.600522 -1.8e-5,14.42471"
         style="fill:none;stroke:#008000;stroke-width:0.94953698px;stroke-linecap:butt;stroke-linejoin:miter;stroke-opacity:1" />
    </g>
  </g>
</svg>
