<?xml version="1.0" encoding="UTF-8" standalone="no"?>

<svg
   xmlns:svg="http://www.w3.org/2000/svg"
   xmlns="http://www.w3.org/2000/svg"
   version="1.1"
   inkscape:version="0.48.3.1 r9886"
   width="64"
   height="64"
   sodipodi:docname="git-logo_64x64.svg"
   inkscape:export-filename="../git-logo.png"
   inkscape:export-xdpi="89.989632"
   inkscape:export-ydpi="89.989632">
  <metadata
     id="metadata3045">
    <rdf:RDF>
      <cc:Work
         rdf:about="">
        <dc:format>image/svg+xml</dc:format>
        <dc:type
           rdf:resource="http://purl.org/dc/dcmitype/StillImage" />
        <dc:title>Git Logo</dc:title>
      </cc:Work>
    </rdf:RDF>
  </metadata>
  <defs
     id="defs3043" />
  <sodipodi:namedview
     pagecolor="#ffffff"
     bordercolor="#666666"
     borderopacity="1"
     objecttolerance="10"
     gridtolerance="10"
     guidetolerance="10"
     inkscape:pageopacity="0"
     inkscape:pageshadow="2"
     inkscape:window-width="1596"
     inkscape:window-height="953"
     id="namedview3041"
     showgrid="false"
     inkscape:zoom="11.79683"
     inkscape:cx="32.339197"
     inkscape:cy="32.000124"
     inkscape:window-x="0"
     inkscape:window-y="31"
     inkscape:window-maximized="0"
     inkscape:current-layer="svg3039" />
  <rect
     style="fill:#f05033;fill-opacity:1;stroke:#f05000;stroke-width:3.82299995;stroke-linecap:round;stroke-linejoin:round;stroke-miterlimit:4;stroke-opacity:1;stroke-dasharray:none"
     id="rect3049"
     width="42.551739"
     height="42.551739"
     x="-21.275696"
     y="23.978964"
     transform="matrix(0.70710679,-0.70710677,0.70710679,0.70710677,0,0)" />
  <g
     id="g3882">
    <g
       id="g3889">
      <path
         style="fill:#ffffff;stroke:#ffffff;stroke-width:3.8182199;stroke-linecap:butt;stroke-linejoin:miter;stroke-miterlimit:4;stroke-opacity:1;stroke-dasharray:none"
         d="M 22.35286,8.0820267 46.912765,32.641932"
         id="path3849"
         inkscape:connector-curvature="0" />
      <path
         style="fill:none;stroke:#ffffff;stroke-width:3.79999995000000013;stroke-linecap:butt;stroke-linejoin:miter;stroke-miterlimit:4;stroke-opacity:1;stroke-dasharray:none"
         d="m 32.2,46.1 0,-27.823477"
         id="path3851"
         inkscape:connector-curvature="0" />
      <path
         sodipodi:type="arc"
         style="fill:#ffffff;fill-opacity:0;stroke:#ffffff;stroke-width:3.79999995;stroke-linecap:round;stroke-linejoin:round;stroke-miterlimit:4;stroke-opacity:1;stroke-dasharray:none"
         id="path3855"
         sodipodi:cx="31.585938"
         sodipodi:cy="21.260416"
         sodipodi:rx="2.9453125"
         sodipodi:ry="2.7083333"
         d="m 34.53125,21.260416 c 0,1.495771 -1.318661,2.708333 -2.945313,2.708333 -1.626651,0 -2.945312,-1.212562 -2.945312,-2.708333 0,-1.495771 1.318661,-2.708333 2.945312,-2.708333 1.626652,0 2.945313,1.212562 2.945313,2.708333 z"
         transform="matrix(1.0148792,0,0,1.1036812,-0.05591108,-4.3438882)" />
      <path
         sodipodi:type="arc"
         style="fill:#ffffff;fill-opacity:0;stroke:#ffffff;stroke-width:3.79999995;stroke-linecap:round;stroke-linejoin:round;stroke-miterlimit:4;stroke-opacity:1;stroke-dasharray:none"
         id="path3855-9"
         sodipodi:cx="31.585938"
         sodipodi:cy="21.260416"
         sodipodi:rx="2.9453125"
         sodipodi:ry="2.7083333"
         d="m 34.53125,21.260416 c 0,1.495771 -1.318661,2.708333 -2.945313,2.708333 -1.626651,0 -2.945312,-1.212562 -2.945312,-2.708333 0,-1.495771 1.318661,-2.708333 2.945312,-2.708333 1.626652,0 2.945313,1.212562 2.945313,2.708333 z"
         transform="matrix(1.0148792,0,0,1.1036812,14.053464,8.5352785)" />
      <path
         sodipodi:type="arc"
         style="fill:#ffffff;fill-opacity:0;stroke:#ffffff;stroke-width:3.79999995;stroke-linecap:round;stroke-linejoin:round;stroke-miterlimit:4;stroke-opacity:1;stroke-dasharray:none"
         id="path3855-7"
         sodipodi:cx="31.585938"
         sodipodi:cy="21.260416"
         sodipodi:rx="2.9453125"
         sodipodi:ry="2.7083333"
         d="m 34.53125,21.260416 c 0,1.495771 -1.318661,2.708333 -2.945313,2.708333 -1.626651,0 -2.945312,-1.212562 -2.945312,-2.708333 0,-1.495771 1.318661,-2.708333 2.945312,-2.708333 1.626652,0 2.945313,1.212562 2.945313,2.708333 z"
         transform="matrix(1.0148792,0,0,1.1036812,-0.05591108,21.535279)" />
    </g>
  </g>
</svg>
