<?xml version="1.0" encoding="UTF-8" standalone="no"?>
<!-- Created with Inkscape (http://www.inkscape.org/) -->

<svg
   xmlns:dc="http://purl.org/dc/elements/1.1/"
   xmlns:cc="http://creativecommons.org/ns#"
   xmlns:rdf="http://www.w3.org/1999/02/22-rdf-syntax-ns#"
   xmlns:svg="http://www.w3.org/2000/svg"
   xmlns="http://www.w3.org/2000/svg"
   xmlns:xlink="http://www.w3.org/1999/xlink"
   xmlns:sodipodi="http://sodipodi.sourceforge.net/DTD/sodipodi-0.dtd"
   xmlns:inkscape="http://www.inkscape.org/namespaces/inkscape"
   width="186"
   height="145"
   id="svg3650"
   version="1.1"
   inkscape:version="0.48.3.1 r9886"
   sodipodi:docname="guile-logo.svg">
  <defs
     id="defs3652">
    <inkscape:perspective
       sodipodi:type="inkscape:persp3d"
       inkscape:vp_x="0 : 526.18109 : 1"
       inkscape:vp_y="0 : 1000 : 0"
       inkscape:vp_z="744.09448 : 526.18109 : 1"
       inkscape:persp3d-origin="372.04724 : 350.78739 : 1"
       id="perspective3658" />
    <inkscape:perspective
       id="perspective3695"
       inkscape:persp3d-origin="0.5 : 0.33333333 : 1"
       inkscape:vp_z="1 : 0.5 : 1"
       inkscape:vp_y="0 : 1000 : 0"
       inkscape:vp_x="0 : 0.5 : 1"
       sodipodi:type="inkscape:persp3d" />
    <linearGradient
       id="linearGradient5494">
      <stop
         style="stop-color:#aabfb0;stop-opacity:1;"
         offset="0"
         id="stop5496" />
      <stop
         style="stop-color:#84a38d;stop-opacity:1;"
         offset="1"
         id="stop5498" />
    </linearGradient>
    <linearGradient
       id="linearGradient5478">
      <stop
         style="stop-color:#fcbc1a;stop-opacity:1;"
         offset="0"
         id="stop5480" />
      <stop
         style="stop-color:#f3d077;stop-opacity:0.93859649;"
         offset="1"
         id="stop5482" />
    </linearGradient>
    <linearGradient
       id="linearGradient5470">
      <stop
         style="stop-color:#cdb974;stop-opacity:1;"
         offset="0"
         id="stop5472" />
      <stop
         style="stop-color:#d1b249;stop-opacity:1;"
         offset="1"
         id="stop5474" />
    </linearGradient>
    <linearGradient
       id="linearGradient3712">
      <stop
         style="stop-color:#aabfb0;stop-opacity:1;"
         offset="0"
         id="stop3714" />
      <stop
         style="stop-color:#84a38d;stop-opacity:1;"
         offset="1"
         id="stop3716" />
    </linearGradient>
    <linearGradient
       id="linearGradient5462">
      <stop
         style="stop-color:#cdb06a;stop-opacity:1;"
         offset="0"
         id="stop5464" />
      <stop
         style="stop-color:#cba853;stop-opacity:1;"
         offset="1"
         id="stop5466" />
    </linearGradient>
    <linearGradient
       id="linearGradient5486">
      <stop
         style="stop-color:#dfcb8c;stop-opacity:1;"
         offset="0"
         id="stop5488" />
      <stop
         style="stop-color:#d2b65e;stop-opacity:1;"
         offset="1"
         id="stop5490" />
    </linearGradient>
    <linearGradient
       id="linearGradient5510">
      <stop
         style="stop-color:#cdb873;stop-opacity:1;"
         offset="0"
         id="stop5512" />
      <stop
         style="stop-color:#c6af61;stop-opacity:1;"
         offset="1"
         id="stop5514" />
    </linearGradient>
    <linearGradient
       id="linearGradient5454">
      <stop
         style="stop-color:#e5c988;stop-opacity:1;"
         offset="0"
         id="stop5456" />
      <stop
         style="stop-color:#dcb65d;stop-opacity:1;"
         offset="1"
         id="stop5458" />
    </linearGradient>
    <linearGradient
       inkscape:collect="always"
       xlink:href="#linearGradient5446"
       id="linearGradient5452"
       x1="97.454773"
       y1="-0.53673768"
       x2="101.89899"
       y2="29.437613"
       gradientUnits="userSpaceOnUse" />
    <linearGradient
       id="linearGradient5446">
      <stop
         style="stop-color:#e5c988;stop-opacity:1;"
         offset="0"
         id="stop5448" />
      <stop
         style="stop-color:#d8ae4b;stop-opacity:1;"
         offset="1"
         id="stop5450" />
    </linearGradient>
    <linearGradient
       inkscape:collect="always"
       xlink:href="#linearGradient5494"
       id="linearGradient3954"
       gradientUnits="userSpaceOnUse"
       x1="38.724209"
       y1="26.22546"
       x2="33.057144"
       y2="76.135513" />
    <linearGradient
       inkscape:collect="always"
       xlink:href="#linearGradient5478"
       id="linearGradient3956"
       gradientUnits="userSpaceOnUse"
       x1="26.743456"
       y1="33.909828"
       x2="35.401268"
       y2="39.293087" />
    <linearGradient
       inkscape:collect="always"
       xlink:href="#linearGradient5470"
       id="linearGradient3958"
       gradientUnits="userSpaceOnUse"
       x1="42.432289"
       y1="24.783386"
       x2="32.90023"
       y2="45.02887" />
    <linearGradient
       inkscape:collect="always"
       xlink:href="#linearGradient5494"
       id="linearGradient3960"
       gradientUnits="userSpaceOnUse"
       x1="157.82664"
       y1="11.208718"
       x2="164.05792"
       y2="73.42981" />
    <linearGradient
       inkscape:collect="always"
       xlink:href="#linearGradient5462"
       id="linearGradient3962"
       gradientUnits="userSpaceOnUse"
       x1="154.95158"
       y1="16.011023"
       x2="162.37524"
       y2="30.899527" />
    <linearGradient
       inkscape:collect="always"
       xlink:href="#linearGradient5486"
       id="linearGradient3964"
       gradientUnits="userSpaceOnUse"
       x1="88.422516"
       y1="83.461342"
       x2="121.58204"
       y2="120.15018" />
    <linearGradient
       inkscape:collect="always"
       xlink:href="#linearGradient5510"
       id="linearGradient3966"
       gradientUnits="userSpaceOnUse"
       x1="107.95062"
       y1="116.55167"
       x2="100.84061"
       y2="135.12505" />
    <linearGradient
       inkscape:collect="always"
       xlink:href="#linearGradient5454"
       id="linearGradient3968"
       gradientUnits="userSpaceOnUse"
       x1="108.26636"
       y1="8.9126301"
       x2="101.1438"
       y2="89.231453" />
    <linearGradient
       inkscape:collect="always"
       xlink:href="#linearGradient5446"
       id="linearGradient3970"
       gradientUnits="userSpaceOnUse"
       x1="97.454773"
       y1="-0.53673768"
       x2="101.89899"
       y2="29.437613" />
    <linearGradient
       inkscape:collect="always"
       xlink:href="#linearGradient5494"
       id="linearGradient3097"
       gradientUnits="userSpaceOnUse"
       x1="38.724209"
       y1="26.22546"
       x2="33.057144"
       y2="76.135513" />
    <linearGradient
       inkscape:collect="always"
       xlink:href="#linearGradient5478"
       id="linearGradient3099"
       gradientUnits="userSpaceOnUse"
       x1="26.743456"
       y1="33.909828"
       x2="35.401268"
       y2="39.293087" />
    <linearGradient
       inkscape:collect="always"
       xlink:href="#linearGradient5470"
       id="linearGradient3101"
       gradientUnits="userSpaceOnUse"
       x1="42.432289"
       y1="24.783386"
       x2="32.90023"
       y2="45.02887" />
    <linearGradient
       inkscape:collect="always"
       xlink:href="#linearGradient5494"
       id="linearGradient3103"
       gradientUnits="userSpaceOnUse"
       x1="157.82664"
       y1="11.208718"
       x2="164.05792"
       y2="73.42981" />
    <linearGradient
       inkscape:collect="always"
       xlink:href="#linearGradient5462"
       id="linearGradient3105"
       gradientUnits="userSpaceOnUse"
       x1="154.95158"
       y1="16.011023"
       x2="162.37524"
       y2="30.899527" />
    <linearGradient
       inkscape:collect="always"
       xlink:href="#linearGradient5486"
       id="linearGradient3107"
       gradientUnits="userSpaceOnUse"
       x1="88.422516"
       y1="83.461342"
       x2="121.58204"
       y2="120.15018" />
    <linearGradient
       inkscape:collect="always"
       xlink:href="#linearGradient5510"
       id="linearGradient3109"
       gradientUnits="userSpaceOnUse"
       x1="107.95062"
       y1="116.55167"
       x2="100.84061"
       y2="135.12505" />
    <linearGradient
       inkscape:collect="always"
       xlink:href="#linearGradient5454"
       id="linearGradient3111"
       gradientUnits="userSpaceOnUse"
       x1="108.26636"
       y1="8.9126301"
       x2="101.1438"
       y2="89.231453" />
    <linearGradient
       inkscape:collect="always"
       xlink:href="#linearGradient5446"
       id="linearGradient3113"
       gradientUnits="userSpaceOnUse"
       x1="97.454773"
       y1="-0.53673768"
       x2="101.89899"
       y2="29.437613" />
  </defs>
  <sodipodi:namedview
     id="base"
     pagecolor="#ffffff"
     bordercolor="#666666"
     borderopacity="1.0"
     inkscape:pageopacity="0.0"
     inkscape:pageshadow="2"
     inkscape:zoom="3.7774922"
     inkscape:cx="146.71115"
     inkscape:cy="63.978171"
     inkscape:document-units="px"
     inkscape:current-layer="layer1"
     showgrid="false"
     inkscape:window-width="1920"
     inkscape:window-height="985"
     inkscape:window-x="0"
     inkscape:window-y="31"
     inkscape:window-maximized="1" />
  <metadata
     id="metadata3655">
    <rdf:RDF>
      <cc:Work
         rdf:about="">
        <dc:format>image/svg+xml</dc:format>
        <dc:type
           rdf:resource="http://purl.org/dc/dcmitype/StillImage" />
        <dc:title></dc:title>
      </cc:Work>
    </rdf:RDF>
  </metadata>
  <g
     inkscape:label="Calque 1"
     inkscape:groupmode="layer"
     id="layer1"
     transform="translate(-41.419559,-182.63167)">
    <g
       transform="translate(33.556076,179.62919)"
       id="guile-logo"
       inkscape:label="guile-logo"
       inkscape:export-filename="../guile-logo.png"
       inkscape:export-xdpi="30.898954"
       inkscape:export-ydpi="30.898954">
      <path
         inkscape:connector-curvature="0"
         sodipodi:nodetypes="ccccsz"
         id="path3698"
         d="M 68.584934,8.5173598 68.252536,26.57769 C 46.426268,29.113525 48.037736,51.159023 49.749007,63.363147 15.146669,80.014701 5.664065,43.713768 9.7503622,30.788074 18.426929,56.822779 37.819126,53.080881 44.029503,37.908343 54.109264,13.282533 58.44888,10.792603 67.826353,7.934807 l 0.758581,0.5825528 z"
         style="fill:url(#linearGradient3097);fill-opacity:1;stroke:#000000;stroke-width:2;stroke-linecap:butt;stroke-linejoin:miter;stroke-miterlimit:4;stroke-opacity:1;stroke-dasharray:none" />
      <path
         inkscape:connector-curvature="0"
         sodipodi:nodetypes="cccc"
         id="path3723"
         d="m 40.583827,43.676347 c 1.075827,-1.1736 1.807301,-2.576768 2.475253,-4.022285 -5.166677,-2.07316 -9.7933,-3.989703 -14.822775,-4.965252 0.40471,4.517932 7.798806,6.175961 12.347522,8.987537 z"
         style="fill:url(#linearGradient3099);fill-opacity:1;stroke:#000000;stroke-width:2;stroke-linecap:butt;stroke-linejoin:miter;stroke-miterlimit:4;stroke-opacity:1;stroke-dasharray:none" />
      <path
         inkscape:connector-curvature="0"
         sodipodi:nodetypes="ccccc"
         id="path3721"
         d="m 48.318992,27.845045 c -15.7377,-7.092209 -19.579767,2.554511 -30.837521,4.795801 0.844717,2.801147 5.907062,2.164986 9.504802,2.116844 5.154312,0.109796 10.701943,3.003199 16.227511,4.896372 2.245594,-4.389554 3.662298,-8.088367 5.105208,-11.809017 z"
         style="fill:url(#linearGradient3101);fill-opacity:1;stroke:#000000;stroke-width:2;stroke-linecap:butt;stroke-linejoin:miter;stroke-miterlimit:4;stroke-opacity:1;stroke-dasharray:none" />
      <path
         inkscape:connector-curvature="0"
         sodipodi:nodetypes="ccccsc"
         id="path3725"
         d="m 135.62321,7.9914573 -0.10314,16.5016837 c 23.78497,11.480784 16.32379,22.602416 17.94559,33.828451 32.4632,17.666157 42.3361,-23.501784 38.26327,-31.662605 -9.2343,12.956561 -6.22467,19.104596 -19.30237,19.748139 C 156.55488,47.188158 153.9334,11.312098 135.62321,7.9914573 z"
         style="fill:url(#linearGradient3103);fill-opacity:1;stroke:#000000;stroke-width:2;stroke-linecap:butt;stroke-linejoin:miter;stroke-miterlimit:4;stroke-opacity:1;stroke-dasharray:none" />
      <path
         inkscape:connector-curvature="0"
         sodipodi:nodetypes="cccc"
         id="path3727"
         d="m 149.50204,18.739872 c 2.95058,5.386238 5.81877,10.770799 8.75134,15.971193 5.58006,-8.698768 18.08151,-9.964546 16.91926,-15.023131 -10.99925,2.971338 -15.28467,-7.57251 -25.6706,-0.948062 z"
         style="fill:url(#linearGradient3105);fill-opacity:1;stroke:#000000;stroke-width:2;stroke-linecap:butt;stroke-linejoin:miter;stroke-miterlimit:4;stroke-opacity:1;stroke-dasharray:none" />
      <path
         inkscape:connector-curvature="0"
         sodipodi:nodetypes="cc"
         id="path3729"
         d="m 66.105122,50.036924 c 11.10764,-0.7386 21.871977,1.612532 32.400207,6.08863"
         style="fill:none;stroke:#000000;stroke-width:1px;stroke-linecap:butt;stroke-linejoin:miter;stroke-opacity:1" />
      <path
         inkscape:connector-curvature="0"
         sodipodi:nodetypes="cc"
         id="path3731"
         d="m 100.02749,59.278594 c 4.49703,-4.839082 11.81197,-9.465492 31.5304,-13.155789"
         style="fill:none;stroke:#000000;stroke-width:1px;stroke-linecap:butt;stroke-linejoin:miter;stroke-opacity:1" />
      <path
         inkscape:connector-curvature="0"
         id="path3964"
         d="m 99.425265,57.262015 -1.158822,-0.543165 0.156559,-0.392522 c 0.0905,-0.226917 0.11771,-0.431089 0.06448,-0.483936 -0.157642,-0.156506 -3.743495,-1.555881 -5.92857,-2.313621 -6.260423,-2.170985 -12.394404,-3.490064 -18.551763,-3.989452 -1.06946,-0.08674 -2.524271,-0.157705 -3.232913,-0.157705 -0.780876,0 -1.314873,-0.04278 -1.355538,-0.108562 -0.160328,-0.259418 0.866211,-2.996265 1.757516,-4.6857 2.554841,-4.842603 6.483369,-8.030834 11.116721,-9.021871 1.094161,-0.234033 3.202389,-0.308729 4.442873,-0.157415 1.175725,0.143416 2.653368,0.492249 3.790753,0.894896 2.221405,0.786408 5.370541,2.626524 7.632258,4.459714 0.615073,0.498536 1.166705,0.906428 1.225849,0.906428 0.05915,0 0.587711,-0.451005 1.174592,-1.002233 1.01729,-0.95548 2.86065,-2.408677 3.7963,-2.99278 4.51318,-2.817456 8.94334,-3.556363 13.21035,-2.203358 4.19156,1.329078 8.12954,5.058918 10.3168,9.771518 0.46064,0.992463 0.46493,1.011574 0.23846,1.06211 -0.12684,0.0283 -0.98103,0.21893 -1.89819,0.423613 -7.0003,1.562258 -12.94572,3.536668 -17.45737,5.79741 -2.89833,1.452323 -4.77864,2.665192 -6.87541,4.434902 -0.56264,0.47487 -1.08669,0.859237 -1.16455,0.854148 -0.0778,-0.0051 -0.66303,-0.253677 -1.30038,-0.552419 l 0,0 z"
         style="fill:#e5c988;fill-opacity:1;stroke:#000000;stroke-width:0.0104223;stroke-miterlimit:4;stroke-opacity:1;stroke-dasharray:none" />
      <path
         inkscape:connector-curvature="0"
         sodipodi:nodetypes="ccc"
         id="path3735"
         d="M 110.24769,74.391442 C 147.17153,66.454439 123.55317,17.463743 99.483859,41.338882 71.788023,17.73343 54.124629,71.078145 87.3066,72.651834"
         style="fill:none;stroke:#000000;stroke-width:2;stroke-linecap:butt;stroke-linejoin:miter;stroke-miterlimit:4;stroke-opacity:1;stroke-dasharray:none" />
      <path
         transform="matrix(1.0508515,0,0,0.98983386,-4.4272588,0.74328055)"
         d="m 98.429841,67.329582 c 0,3.734498 -2.500903,6.761907 -5.585923,6.761907 -3.08502,0 -5.585923,-3.027409 -5.585923,-6.761907 0,-3.734498 2.500903,-6.761906 5.585923,-6.761906 3.08502,0 5.585923,3.027408 5.585923,6.761906 z"
         sodipodi:ry="6.7619066"
         sodipodi:rx="5.5859232"
         sodipodi:cy="67.329582"
         sodipodi:cx="92.843918"
         id="path3768"
         style="fill:#000000;fill-opacity:1;stroke:#000000;stroke-width:1;stroke-miterlimit:4;stroke-opacity:1;stroke-dasharray:none"
         sodipodi:type="arc" />
      <path
         transform="matrix(1.081425,0,0,1.0741872,-7.9099203,-4.6376592)"
         d="m 96.94373,65.683205 c 0,1.667313 -1.203739,3.018938 -2.688626,3.018938 -1.484887,0 -2.688626,-1.351625 -2.688626,-3.018938 0,-1.667314 1.203739,-3.018938 2.688626,-3.018938 1.484887,0 2.688626,1.351624 2.688626,3.018938 z"
         sodipodi:ry="3.0189381"
         sodipodi:rx="2.6886256"
         sodipodi:cy="65.683205"
         sodipodi:cx="94.255104"
         id="path3770"
         style="fill:#ffffff;fill-opacity:1;stroke:#000000;stroke-width:1;stroke-miterlimit:4;stroke-opacity:1;stroke-dasharray:none"
         sodipodi:type="arc" />
      <path
         transform="matrix(1.0819484,0.17307277,-0.1907767,0.98154447,3.9251218,-17.032915)"
         d="m 111.95366,66.800385 c 0,3.896867 -2.26398,7.055902 -5.05673,7.055902 -2.79276,0 -5.05673,-3.159035 -5.05673,-7.055902 0,-3.896868 2.26397,-7.055903 5.05673,-7.055903 2.79275,0 5.05673,3.159035 5.05673,7.055903 z"
         sodipodi:ry="7.055903"
         sodipodi:rx="5.0567303"
         sodipodi:cy="66.800385"
         sodipodi:cx="106.89693"
         id="path3774"
         style="fill:#000000;fill-opacity:1;stroke:#000000;stroke-width:1;stroke-miterlimit:4;stroke-opacity:1;stroke-dasharray:none"
         sodipodi:type="arc" />
      <path
         d="m 111.17832,65.448006 c 0,1.831751 -1.33769,3.316679 -2.98781,3.316679 -1.65012,0 -2.98781,-1.484928 -2.98781,-3.316679 0,-1.831752 1.33769,-3.31668 2.98781,-3.31668 1.65012,0 2.98781,1.484928 2.98781,3.31668 z"
         sodipodi:ry="3.3166795"
         sodipodi:rx="2.9878089"
         sodipodi:cy="65.448006"
         sodipodi:cx="108.19051"
         id="path3772"
         style="fill:#ffffff;fill-opacity:1;stroke:#000000;stroke-width:1;stroke-miterlimit:4;stroke-opacity:1;stroke-dasharray:none"
         sodipodi:type="arc" />
      <path
         inkscape:connector-curvature="0"
         sodipodi:nodetypes="cccccc"
         id="path3776"
         d="M 137.7077,85.968924 C 121.81373,74.020663 112.69777,83.970576 100.42902,83.734554 88.013859,82.533633 74.129191,77.037233 65.502298,86.909711 63.730364,99.702803 63.71997,115.60779 84.788432,123.01241 c 10.544656,2.85632 21.089308,2.7453 31.633968,0.588 10.72532,-3.14807 24.84754,-10.68659 21.2853,-37.631486 z"
         style="fill:url(#linearGradient3107);fill-opacity:1;stroke:#000000;stroke-width:2;stroke-linecap:butt;stroke-linejoin:miter;stroke-miterlimit:4;stroke-opacity:1;stroke-dasharray:none" />
      <path
         inkscape:connector-curvature="0"
         sodipodi:nodetypes="cc"
         id="path3780"
         d="m 79.496505,104.43187 c -7.513247,0.35622 -7.460401,2.37858 -9.055076,3.52795"
         style="fill:none;stroke:#000000;stroke-width:2;stroke-linecap:butt;stroke-linejoin:miter;stroke-miterlimit:4;stroke-opacity:1;stroke-dasharray:none" />
      <path
         inkscape:connector-curvature="0"
         sodipodi:nodetypes="cc"
         id="path3782"
         d="m 122.65511,109.2534 c 5.33438,-1.50649 6.36419,0.50893 8.46708,1.64638"
         style="fill:none;stroke:#000000;stroke-width:2;stroke-linecap:butt;stroke-linejoin:miter;stroke-miterlimit:4;stroke-opacity:1;stroke-dasharray:none" />
      <path
         inkscape:connector-curvature="0"
         sodipodi:nodetypes="cc"
         id="path3786"
         d="m 75.380561,105.25506 c 0.317302,5.58439 -1.091384,10.61807 4.586337,15.52298"
         style="fill:none;stroke:#000000;stroke-width:2;stroke-linecap:butt;stroke-linejoin:miter;stroke-miterlimit:4;stroke-opacity:1;stroke-dasharray:none" />
      <path
         inkscape:connector-curvature="0"
         sodipodi:nodetypes="cc"
         id="path3788"
         d="m 127.35905,109.01821 c -2.44024,9.61199 -4.79037,10.59509 -7.5263,13.40621"
         style="fill:none;stroke:#000000;stroke-width:2;stroke-linecap:butt;stroke-linejoin:miter;stroke-miterlimit:4;stroke-opacity:1;stroke-dasharray:none" />
      <path
         inkscape:connector-curvature="0"
         sodipodi:nodetypes="cccccccccc"
         id="path3790"
         d="m 84.90603,123.24761 c 10.970274,2.89536 21.52448,2.46217 31.86916,0.3528 -1.80618,7.45453 -4.36784,14.60687 -9.29027,20.81491 -2.26067,-2.43037 -3.1669,-4.86073 -3.88075,-7.2911 -0.43563,3.44866 -1.64194,6.74319 -3.645547,9.87826 -1.496328,-2.18167 -2.91143,-4.52579 -4.703935,-6.11511 -0.861006,1.60994 -2.005875,2.65216 -3.175157,3.64555 -0.794905,-3.57162 -1.274071,-5.88028 -1.763975,-8.23189 -0.195286,1.21589 -1.10451,1.71785 -2.23437,1.99917 -2.755095,-4.80544 -2.842449,-9.94435 -3.175156,-15.05259 z"
         style="fill:url(#linearGradient3109);fill-opacity:1;stroke:#000000;stroke-width:2;stroke-linecap:butt;stroke-linejoin:miter;stroke-miterlimit:4;stroke-opacity:1;stroke-dasharray:none" />
      <path
         inkscape:connector-curvature="0"
         sodipodi:nodetypes="cc"
         id="path3792"
         d="M 65.737494,86.792112 C 59.205889,79.1719 54.051224,71.322197 49.391319,63.390035"
         style="fill:none;stroke:#000000;stroke-width:2.20000005;stroke-linecap:butt;stroke-linejoin:miter;stroke-miterlimit:4;stroke-opacity:1;stroke-dasharray:none" />
      <path
         inkscape:connector-curvature="0"
         sodipodi:nodetypes="cc"
         id="path3794"
         d="m 137.5901,85.968924 c 7.36624,-11.184166 12.46369,-20.249571 15.75819,-27.988415"
         style="fill:none;stroke:#000000;stroke-width:2.20000005;stroke-linecap:butt;stroke-linejoin:miter;stroke-miterlimit:4;stroke-opacity:1;stroke-dasharray:none" />
      <path
         inkscape:connector-curvature="0"
         sodipodi:nodetypes="ccc"
         id="path3798"
         d="m 87.963588,89.496875 c -5.086506,5.633188 -8.824652,15.493845 -19.403733,8.231886 2.414211,-6.653649 6.716593,-15.188064 19.403733,-8.231886 z"
         style="fill:#000000;fill-opacity:1;stroke:#000000;stroke-width:1px;stroke-linecap:butt;stroke-linejoin:miter;stroke-opacity:1" />
      <path
         inkscape:connector-curvature="0"
         sodipodi:nodetypes="cccc"
         id="path3800"
         d="m 115.59921,89.026481 c 4.34588,1.806558 4.89373,6.73624 11.52464,8.819879 0.93042,0.705331 9.74395,1.289017 5.64472,-6.115116 -3.02607,-2.825963 -6.75459,-8.936477 -17.16936,-2.704763 z"
         style="fill:#000000;fill-opacity:1;stroke:#000000;stroke-width:1px;stroke-linecap:butt;stroke-linejoin:miter;stroke-opacity:1" />
      <path
         inkscape:connector-curvature="0"
         sodipodi:nodetypes="cssssscccssscccssscccsssssssssccccccssscccssssscccsssccccccccccssssssscccccsssscc"
         id="path3988"
         d="m 64.643259,84.593872 c -2.798152,-3.384263 -5.269462,-6.704816 -8.218514,-11.04273 -2.209194,-3.249618 -6.192126,-9.676617 -6.123376,-9.880895 0.02132,-0.06335 -0.0517,-0.784511 -0.162263,-1.602578 -0.842891,-6.236522 -0.937269,-12.41885 -0.256021,-16.770803 0.888338,-5.674887 3.110166,-10.23027 6.446673,-13.217518 2.700127,-2.417484 6.473108,-4.101866 10.640965,-4.750474 l 1.065547,-0.165823 0.787434,0.393215 c 2.160723,1.078984 5.194224,1.691562 9.30113,1.87824 1.411261,0.06415 24.763376,-0.530089 39.804366,-0.689734 7.00928,-0.0744 12.2945,0.268945 12.56665,0.230904 2.36219,-0.330184 3.98382,-1.411472 4.92093,-3.281242 l 0.26592,-0.53057 1.33322,0.701368 c 4.46484,2.348824 7.34545,4.326486 9.85529,6.766084 2.51176,2.44146 4.00794,4.700391 4.91188,7.415925 0.93013,2.794267 1.04873,4.141125 0.96581,10.967645 -0.0351,2.892152 -0.0255,5.58258 0.0214,5.978727 l 0.0853,0.720269 -0.70254,1.583437 c -2.46408,5.553655 -6.4262,12.774886 -11.14559,20.313572 -0.92072,1.470736 -3.41533,5.358253 -3.49487,5.446282 -0.0187,0.02067 -0.49782,-0.278131 -1.06476,-0.663999 -6.50146,-4.424966 -12.41436,-5.699555 -19.83694,-4.276067 -1.38745,0.266083 -2.7538,0.594131 -6.38439,1.532825 -4.49507,1.162208 -7.19529,1.580951 -9.56539,1.483375 -1.40305,-0.05776 -3.925133,-0.388328 -7.311763,-0.95834 -2.889283,-0.486303 -6.90416,-1.092188 -8.313374,-1.254572 -7.308224,-0.842126 -12.393523,-0.05905 -16.376346,2.521759 -0.981605,0.636066 -1.625286,1.143018 -2.406736,1.895506 l -0.553756,0.533232 -1.055856,-1.27702 0,0 -3e-5,0 z M 111.7289,74.600397 c 8.8195,-2.199211 14.87002,-7.1625 17.21341,-14.120284 1.25881,-3.737569 1.33408,-8.06032 0.21082,-12.108191 -0.16643,-0.599757 -0.28495,-1.108115 -0.26338,-1.129686 0.0216,-0.02157 0.65832,-0.161218 1.41499,-0.310329 l 1.37577,-0.27111 -0.0664,-0.50045 c -0.0365,-0.275248 -0.0847,-0.518808 -0.10718,-0.541245 -0.0224,-0.02244 -0.68432,0.08424 -1.47085,0.237059 -0.78653,0.15282 -1.46334,0.283043 -1.50403,0.289382 -0.0407,0.0063 -0.29175,-0.463678 -0.5579,-1.044485 -2.40914,-5.257397 -6.5918,-9.052397 -11.35554,-10.303077 -5.43079,-1.42581 -10.92087,0.252567 -16.26702,4.973002 l -0.910451,0.80389 -0.74221,-0.595214 c -2.091583,-1.677343 -5.254439,-3.468544 -7.453005,-4.220816 -4.634127,-1.585635 -9.227697,-1.200381 -13.039428,1.093591 -2.187681,1.316588 -4.339165,3.427678 -5.952903,5.841136 -1.23992,1.854387 -2.802007,5.327252 -2.830325,6.292442 l -0.01247,0.425072 -1.302094,0.0017 c -0.716152,9.02e-4 -1.471117,0.02965 -1.677699,0.0638 l -0.375605,0.06208 0,0.517234 0,0.517234 1.566575,-0.04209 1.566575,-0.04209 -0.06085,0.287999 c -0.462626,2.189788 -0.472293,6.200601 -0.02013,8.350972 0.529483,2.518067 1.516183,4.853192 2.83429,6.707634 0.867135,1.219971 2.518359,2.873784 3.729001,3.734851 1.173706,0.834796 3.405957,1.956062 4.807734,2.41494 1.910984,0.625567 4.833892,1.165134 6.311691,1.165134 0.325736,0 1.055856,0.05172 1.62249,0.114936 0.913148,0.101873 1.104196,0.159202 1.680934,0.504406 2.304889,1.379583 5.147809,1.069238 7.103245,-0.775421 l 0.683957,-0.645209 2.01263,0 2.012628,0 0.68541,0.685417 c 0.7689,0.768897 1.64874,1.261858 2.52665,1.415644 0.30299,0.05308 1.58756,0.146872 2.85459,0.208437 1.26704,0.06156 2.31929,0.154723 2.33833,0.207022 0.0191,0.0523 0.10919,0.073 0.20032,0.046 0.0911,-0.027 0.63897,-0.167096 1.2174,-0.311332 l 3e-5,1.5e-5 z"
         style="fill:url(#linearGradient3111);fill-opacity:1;stroke:none" />
      <path
         inkscape:connector-curvature="0"
         sodipodi:nodetypes="ccccccccc"
         id="path3796"
         d="m 68.20706,26.581742 c 2.109588,1.399158 5.687513,2.21098 10.932769,2.35587 24.124821,0.984865 32.904151,-1.312261 50.216931,-0.402785 2.85204,-0.07804 5.02515,-1.174497 5.99898,-4.069856 L 135.59093,8.0011978 C 135.46766,6.1615806 135.07975,4.4983906 132.17839,4.5108305 105.56851,3.3378184 81.785274,5.7503182 73.146382,4.3640482 71.185706,4.7121248 69.777656,5.4244961 68.442257,7.6484026 L 68.20706,26.581742 z"
         style="fill:url(#linearGradient3113);fill-opacity:1;stroke:#000000;stroke-width:2;stroke-linecap:butt;stroke-linejoin:miter;stroke-miterlimit:4;stroke-opacity:1;stroke-dasharray:none" />
    </g>
  </g>
</svg>
