<?xml version="1.0" encoding="UTF-8" standalone="no"?>
<svg
   xmlns:dc="http://purl.org/dc/elements/1.1/"
   xmlns:sodipodi="http://sodipodi.sourceforge.net/DTD/sodipodi-0.dtd"
   xmlns:inkscape="http://www.inkscape.org/namespaces/inkscape"
   width="48px"
   height="48px"
   id="svg2985"
   version="1.1"
   inkscape:version="0.48.3.1 r9886"
   sodipodi:docname="nets.svg">
  <defs
     id="defs2987" />
  <sodipodi:namedview
     id="base"
     pagecolor="#ffffff"
     bordercolor="#666666"
     borderopacity="1.0"
     inkscape:pageopacity="0.0"
     inkscape:pageshadow="2"
     inkscape:zoom="13.625"
     inkscape:cx="24"
     inkscape:cy="24"
     inkscape:current-layer="layer1"
     showgrid="true"
     inkscape:grid-bbox="true"
     inkscape:document-units="px"
     inkscape:window-width="1450"
     inkscape:window-height="854"
     inkscape:window-x="619"
     inkscape:window-y="69"
     inkscape:window-maximized="0" />
  <g
     id="layer1"
     inkscape:label="Layer 1"
     inkscape:groupmode="layer">
    <path
       style="fill:#0000ff;stroke:#002dc0;stroke-width:1.55956912;stroke-linecap:butt;stroke-linejoin:miter;stroke-miterlimit:4;stroke-opacity:0.92156863;stroke-dasharray:none;marker-mid:none;marker-end:none"
       d="m 5.7327846,12.941821 32.8338904,0"
       id="path2993-5"
       inkscape:connector-curvature="0"
       sodipodi:nodetypes="cc" />
    <path
       style="fill:#aa0000;fill-opacity:1;stroke:#ff0000;stroke-width:0.08081369;stroke-linecap:square;stroke-miterlimit:0;stroke-opacity:1;stroke-dasharray:none"
       d="m 40.359042,15.634538 -2.445565,-0.02739 0,-2.386055 0,-2.386055 1.370591,0.06173 c 0.753823,0.03395 1.96317,0.0619 2.687434,0.06211 l 1.316841,3.86e-4 0,2.373185 0,2.373188 -0.241868,-0.02186 c -0.133031,-0.01201 -1.342373,-0.03418 -2.687433,-0.04925 z"
       id="path4953-5"
       inkscape:connector-curvature="0" />
    <path
       style="fill:#ff0000;stroke:#0000ff;stroke-width:2.73505735;stroke-linecap:butt;stroke-linejoin:miter;stroke-miterlimit:4;stroke-opacity:1;stroke-dasharray:none;marker-mid:none;marker-end:none"
       d="M 6.8675287,11 39.132471,11"
       id="path2993"
       inkscape:connector-curvature="0"
       sodipodi:nodetypes="cc" />
    <path
       style="fill:#ff0000;fill-opacity:1;stroke:#ff0000;stroke-width:0.0924875;stroke-linecap:square;stroke-miterlimit:0;stroke-opacity:1;stroke-dasharray:none"
       d="m 41.61319,13.68822 -2.666539,-0.03291 0,-2.866212 0,-2.8662097 1.494435,0.074149 c 0.821935,0.040783 2.140557,0.074357 2.930262,0.074612 l 1.435827,4.624e-4 0,2.8507533 0,2.850754 -0.263725,-0.02627 c -0.145049,-0.01443 -1.463665,-0.04105 -2.93026,-0.05917 z"
       id="path4953"
       inkscape:connector-curvature="0" />
  </g>
</svg>
